<?xml version="1.0" encoding="utf-8" standalone="no"?>
<!DOCTYPE svg PUBLIC "-//W3C//DTD SVG 1.1//EN"
  "http://www.w3.org/Graphics/SVG/1.1/DTD/svg11.dtd">
<!-- Created with matplotlib (https://matplotlib.org/) -->
<svg height="720pt" version="1.1" viewBox="0 0 720 720" width="720pt" xmlns="http://www.w3.org/2000/svg" xmlns:xlink="http://www.w3.org/1999/xlink">
 <defs>
  <style type="text/css">
*{stroke-linecap:butt;stroke-linejoin:round;}
  </style>
 </defs>
 <g id="figure_1">
  <g id="patch_1">
   <path d="M 0 720 
L 720 720 
L 720 0 
L 0 0 
z
" style="fill:#ffffff;"/>
  </g>
  <g id="patch_2">
   <path d="M 90 630 
L 648 630 
L 648 86.4 
L 90 86.4 
z
" style="fill:#eaeaf2;"/>
  </g>
  <g id="pane3d_1">
   <g id="patch_3">
    <path d="M 163.971523 509.883558 
L 323.674042 376.605155 
L 321.015164 121.932002 
L 152.408183 241.679906 
" style="fill:#f2f2f2;opacity:0.5;stroke:#f2f2f2;stroke-linejoin:miter;"/>
   </g>
  </g>
  <g id="pane3d_2">
   <g id="patch_4">
    <path d="M 323.674042 376.605155 
L 582.377109 451.116383 
L 593.200935 188.763664 
L 321.015164 121.932002 
" style="fill:#e6e6e6;opacity:0.5;stroke:#e6e6e6;stroke-linejoin:miter;"/>
   </g>
  </g>
  <g id="pane3d_3">
   <g id="patch_5">
    <path d="M 163.971523 509.883558 
L 436.162105 596.664023 
L 582.377109 451.116383 
L 323.674042 376.605155 
" style="fill:#ececec;opacity:0.5;stroke:#ececec;stroke-linejoin:miter;"/>
   </g>
  </g>
  <g id="axis3d_1">
   <g id="line2d_1">
    <path d="M 163.971523 509.883558 
L 436.162105 596.664023 
" style="fill:none;stroke:#ffffff;stroke-linecap:round;stroke-width:1.25;"/>
   </g>
   <g id="Line3DCollection_1">
    <path d="M 180.820755 515.255471 
L 339.738823 381.232106 
L 337.882687 126.073601 
" style="fill:none;stroke:#ffffff;"/>
    <path d="M 213.850042 525.785949 
L 371.210989 390.296667 
L 370.940704 134.190566 
" style="fill:none;stroke:#ffffff;"/>
    <path d="M 247.255275 536.436287 
L 403.015304 399.456893 
L 404.3654 142.397564 
" style="fill:none;stroke:#ffffff;"/>
    <path d="M 281.042909 547.208543 
L 435.157056 408.714307 
L 438.162908 150.696101 
" style="fill:none;stroke:#ffffff;"/>
    <path d="M 315.219548 558.104822 
L 467.641642 418.070464 
L 472.339502 159.087717 
" style="fill:none;stroke:#ffffff;"/>
    <path d="M 349.791948 569.127279 
L 500.474578 427.526951 
L 506.901596 167.573988 
" style="fill:none;stroke:#ffffff;"/>
    <path d="M 384.767024 580.278118 
L 533.661496 437.085393 
L 541.855748 176.156524 
" style="fill:none;stroke:#ffffff;"/>
    <path d="M 420.151853 591.559595 
L 567.208153 446.747445 
L 577.208668 184.836972 
" style="fill:none;stroke:#ffffff;"/>
   </g>
   <g id="xtick_1">
    <g id="line2d_2">
     <path clip-path="url(#p2bd83f4fed)" d="M 376.540541 350.854054 
" style="fill:none;stroke:#ffffff;stroke-linecap:round;"/>
    </g>
    <g id="line2d_3">
     <path d="M 182.18992 514.100787 
L 178.077317 517.569146 
" style="fill:none;stroke:#262626;stroke-linecap:round;stroke-width:1.25;"/>
    </g>
    <g id="text_1">
     <!-- −0.3 -->
     <defs>
      <path d="M 52.828125 31.203125 
L 5.5625 31.203125 
L 5.5625 39.40625 
L 52.828125 39.40625 
z
" id="ArialMT-8722"/>
      <path d="M 4.15625 35.296875 
Q 4.15625 48 6.765625 55.734375 
Q 9.375 63.484375 14.515625 67.671875 
Q 19.671875 71.875 27.484375 71.875 
Q 33.25 71.875 37.59375 69.546875 
Q 41.9375 67.234375 44.765625 62.859375 
Q 47.609375 58.5 49.21875 52.21875 
Q 50.828125 45.953125 50.828125 35.296875 
Q 50.828125 22.703125 48.234375 14.96875 
Q 45.65625 7.234375 40.5 3 
Q 35.359375 -1.21875 27.484375 -1.21875 
Q 17.140625 -1.21875 11.234375 6.203125 
Q 4.15625 15.140625 4.15625 35.296875 
z
M 13.1875 35.296875 
Q 13.1875 17.671875 17.3125 11.828125 
Q 21.4375 6 27.484375 6 
Q 33.546875 6 37.671875 11.859375 
Q 41.796875 17.71875 41.796875 35.296875 
Q 41.796875 52.984375 37.671875 58.78125 
Q 33.546875 64.59375 27.390625 64.59375 
Q 21.34375 64.59375 17.71875 59.46875 
Q 13.1875 52.9375 13.1875 35.296875 
z
" id="ArialMT-48"/>
      <path d="M 9.078125 0 
L 9.078125 10.015625 
L 19.09375 10.015625 
L 19.09375 0 
z
" id="ArialMT-46"/>
      <path d="M 4.203125 18.890625 
L 12.984375 20.0625 
Q 14.5 12.59375 18.140625 9.296875 
Q 21.78125 6 27 6 
Q 33.203125 6 37.46875 10.296875 
Q 41.75 14.59375 41.75 20.953125 
Q 41.75 27 37.796875 30.921875 
Q 33.84375 34.859375 27.734375 34.859375 
Q 25.25 34.859375 21.53125 33.890625 
L 22.515625 41.609375 
Q 23.390625 41.5 23.921875 41.5 
Q 29.546875 41.5 34.03125 44.421875 
Q 38.53125 47.359375 38.53125 53.46875 
Q 38.53125 58.296875 35.25 61.46875 
Q 31.984375 64.65625 26.8125 64.65625 
Q 21.6875 64.65625 18.265625 61.421875 
Q 14.84375 58.203125 13.875 51.765625 
L 5.078125 53.328125 
Q 6.6875 62.15625 12.390625 67.015625 
Q 18.109375 71.875 26.609375 71.875 
Q 32.46875 71.875 37.390625 69.359375 
Q 42.328125 66.84375 44.9375 62.5 
Q 47.5625 58.15625 47.5625 53.265625 
Q 47.5625 48.640625 45.0625 44.828125 
Q 42.578125 41.015625 37.703125 38.765625 
Q 44.046875 37.3125 47.5625 32.6875 
Q 51.078125 28.078125 51.078125 21.140625 
Q 51.078125 11.765625 44.234375 5.25 
Q 37.40625 -1.265625 26.953125 -1.265625 
Q 17.53125 -1.265625 11.296875 4.34375 
Q 5.078125 9.96875 4.203125 18.890625 
z
" id="ArialMT-51"/>
     </defs>
     <g style="fill:#262626;" transform="translate(163.497656 539.15048)scale(0.11 -0.11)">
      <use xlink:href="#ArialMT-8722"/>
      <use x="58.398438" xlink:href="#ArialMT-48"/>
      <use x="114.013672" xlink:href="#ArialMT-46"/>
      <use x="141.796875" xlink:href="#ArialMT-51"/>
     </g>
    </g>
   </g>
   <g id="xtick_2">
    <g id="line2d_4">
     <path clip-path="url(#p2bd83f4fed)" d="M 376.540541 350.854054 
" style="fill:none;stroke:#ffffff;stroke-linecap:round;"/>
    </g>
    <g id="line2d_5">
     <path d="M 215.20634 524.618164 
L 211.132359 528.1259 
" style="fill:none;stroke:#262626;stroke-linecap:round;stroke-width:1.25;"/>
    </g>
    <g id="text_2">
     <!-- −0.2 -->
     <defs>
      <path d="M 50.34375 8.453125 
L 50.34375 0 
L 3.03125 0 
Q 2.9375 3.171875 4.046875 6.109375 
Q 5.859375 10.9375 9.828125 15.625 
Q 13.8125 20.3125 21.34375 26.46875 
Q 33.015625 36.03125 37.109375 41.625 
Q 41.21875 47.21875 41.21875 52.203125 
Q 41.21875 57.421875 37.46875 61 
Q 33.734375 64.59375 27.734375 64.59375 
Q 21.390625 64.59375 17.578125 60.78125 
Q 13.765625 56.984375 13.71875 50.25 
L 4.6875 51.171875 
Q 5.609375 61.28125 11.65625 66.578125 
Q 17.71875 71.875 27.9375 71.875 
Q 38.234375 71.875 44.234375 66.15625 
Q 50.25 60.453125 50.25 52 
Q 50.25 47.703125 48.484375 43.546875 
Q 46.734375 39.40625 42.65625 34.8125 
Q 38.578125 30.21875 29.109375 22.21875 
Q 21.1875 15.578125 18.9375 13.203125 
Q 16.703125 10.84375 15.234375 8.453125 
z
" id="ArialMT-50"/>
     </defs>
     <g style="fill:#262626;" transform="translate(196.5248 549.782711)scale(0.11 -0.11)">
      <use xlink:href="#ArialMT-8722"/>
      <use x="58.398438" xlink:href="#ArialMT-48"/>
      <use x="114.013672" xlink:href="#ArialMT-46"/>
      <use x="141.796875" xlink:href="#ArialMT-50"/>
     </g>
    </g>
   </g>
   <g id="xtick_3">
    <g id="line2d_6">
     <path clip-path="url(#p2bd83f4fed)" d="M 376.540541 350.854054 
" style="fill:none;stroke:#ffffff;stroke-linecap:round;"/>
    </g>
    <g id="line2d_7">
     <path d="M 248.598323 535.255176 
L 244.564114 538.802964 
" style="fill:none;stroke:#262626;stroke-linecap:round;stroke-width:1.25;"/>
    </g>
    <g id="text_3">
     <!-- −0.1 -->
     <defs>
      <path d="M 37.25 0 
L 28.46875 0 
L 28.46875 56 
Q 25.296875 52.984375 20.140625 49.953125 
Q 14.984375 46.921875 10.890625 45.40625 
L 10.890625 53.90625 
Q 18.265625 57.375 23.78125 62.296875 
Q 29.296875 67.234375 31.59375 71.875 
L 37.25 71.875 
z
" id="ArialMT-49"/>
     </defs>
     <g style="fill:#262626;" transform="translate(229.92826 560.536086)scale(0.11 -0.11)">
      <use xlink:href="#ArialMT-8722"/>
      <use x="58.398438" xlink:href="#ArialMT-48"/>
      <use x="114.013672" xlink:href="#ArialMT-46"/>
      <use x="141.796875" xlink:href="#ArialMT-49"/>
     </g>
    </g>
   </g>
   <g id="xtick_4">
    <g id="line2d_8">
     <path clip-path="url(#p2bd83f4fed)" d="M 376.540541 350.854054 
" style="fill:none;stroke:#ffffff;stroke-linecap:round;"/>
    </g>
    <g id="line2d_9">
     <path d="M 282.372314 546.013877 
L 278.379056 549.602407 
" style="fill:none;stroke:#262626;stroke-linecap:round;stroke-width:1.25;"/>
    </g>
    <g id="text_4">
     <!-- 0.0 -->
     <g style="fill:#262626;" transform="translate(266.926848 571.412689)scale(0.11 -0.11)">
      <use xlink:href="#ArialMT-48"/>
      <use x="55.615234" xlink:href="#ArialMT-46"/>
      <use x="83.398438" xlink:href="#ArialMT-48"/>
     </g>
    </g>
   </g>
   <g id="xtick_5">
    <g id="line2d_10">
     <path clip-path="url(#p2bd83f4fed)" d="M 376.540541 350.854054 
" style="fill:none;stroke:#ffffff;stroke-linecap:round;"/>
    </g>
    <g id="line2d_11">
     <path d="M 316.534906 556.896367 
L 312.583812 560.526344 
" style="fill:none;stroke:#262626;stroke-linecap:round;stroke-width:1.25;"/>
    </g>
    <g id="text_5">
     <!-- 0.1 -->
     <g style="fill:#262626;" transform="translate(301.102494 582.414649)scale(0.11 -0.11)">
      <use xlink:href="#ArialMT-48"/>
      <use x="55.615234" xlink:href="#ArialMT-46"/>
      <use x="83.398438" xlink:href="#ArialMT-49"/>
     </g>
    </g>
   </g>
   <g id="xtick_6">
    <g id="line2d_12">
     <path clip-path="url(#p2bd83f4fed)" d="M 376.540541 350.854054 
" style="fill:none;stroke:#ffffff;stroke-linecap:round;"/>
    </g>
    <g id="line2d_13">
     <path d="M 351.092844 567.904794 
L 347.185163 571.576941 
" style="fill:none;stroke:#262626;stroke-linecap:round;stroke-width:1.25;"/>
    </g>
    <g id="text_6">
     <!-- 0.2 -->
     <g style="fill:#262626;" transform="translate(335.674313 593.544147)scale(0.11 -0.11)">
      <use xlink:href="#ArialMT-48"/>
      <use x="55.615234" xlink:href="#ArialMT-46"/>
      <use x="83.398438" xlink:href="#ArialMT-50"/>
     </g>
    </g>
   </g>
   <g id="xtick_7">
    <g id="line2d_14">
     <path clip-path="url(#p2bd83f4fed)" d="M 376.540541 350.854054 
" style="fill:none;stroke:#ffffff;stroke-linecap:round;"/>
    </g>
    <g id="line2d_15">
     <path d="M 386.053031 579.041357 
L 382.190046 582.756414 
" style="fill:none;stroke:#262626;stroke-linecap:round;stroke-width:1.25;"/>
    </g>
    <g id="text_7">
     <!-- 0.3 -->
     <g style="fill:#262626;" transform="translate(370.649233 604.803414)scale(0.11 -0.11)">
      <use xlink:href="#ArialMT-48"/>
      <use x="55.615234" xlink:href="#ArialMT-46"/>
      <use x="83.398438" xlink:href="#ArialMT-51"/>
     </g>
    </g>
   </g>
   <g id="xtick_8">
    <g id="line2d_16">
     <path clip-path="url(#p2bd83f4fed)" d="M 376.540541 350.854054 
" style="fill:none;stroke:#ffffff;stroke-linecap:round;"/>
    </g>
    <g id="line2d_17">
     <path d="M 421.422532 590.308308 
L 417.60556 594.06703 
" style="fill:none;stroke:#262626;stroke-linecap:round;stroke-width:1.25;"/>
    </g>
    <g id="text_8">
     <!-- 0.4 -->
     <defs>
      <path d="M 32.328125 0 
L 32.328125 17.140625 
L 1.265625 17.140625 
L 1.265625 25.203125 
L 33.9375 71.578125 
L 41.109375 71.578125 
L 41.109375 25.203125 
L 50.78125 25.203125 
L 50.78125 17.140625 
L 41.109375 17.140625 
L 41.109375 0 
z
M 32.328125 25.203125 
L 32.328125 57.46875 
L 9.90625 25.203125 
z
" id="ArialMT-52"/>
     </defs>
     <g style="fill:#262626;" transform="translate(406.034347 616.194731)scale(0.11 -0.11)">
      <use xlink:href="#ArialMT-48"/>
      <use x="55.615234" xlink:href="#ArialMT-46"/>
      <use x="83.398438" xlink:href="#ArialMT-52"/>
     </g>
    </g>
   </g>
  </g>
  <g id="axis3d_2">
   <g id="line2d_18">
    <path d="M 582.377109 451.116383 
L 436.162105 596.664023 
" style="fill:none;stroke:#ffffff;stroke-linecap:round;stroke-width:1.25;"/>
   </g>
   <g id="Line3DCollection_2">
    <path d="M 183.976774 219.259289 
L 193.778255 485.008598 
L 463.526059 569.424966 
" style="fill:none;stroke:#ffffff;"/>
    <path d="M 211.677936 199.585393 
L 219.969238 463.151132 
L 487.542298 545.518343 
" style="fill:none;stroke:#ffffff;"/>
    <path d="M 238.691221 180.400041 
L 245.542166 441.809459 
L 510.966312 522.201242 
" style="fill:none;stroke:#ffffff;"/>
    <path d="M 265.041935 161.68526 
L 270.518661 420.965534 
L 533.819741 499.452122 
" style="fill:none;stroke:#ffffff;"/>
    <path d="M 290.75416 143.423946 
L 294.91935 400.602143 
L 556.123182 477.25048 
" style="fill:none;stroke:#ffffff;"/>
    <path d="M 315.850825 125.599814 
L 318.763916 380.702859 
L 577.896253 455.576787 
" style="fill:none;stroke:#ffffff;"/>
   </g>
   <g id="xtick_9">
    <g id="line2d_19">
     <path clip-path="url(#p2bd83f4fed)" d="M 376.540541 350.854054 
" style="fill:none;stroke:#ffffff;stroke-linecap:round;"/>
    </g>
    <g id="line2d_20">
     <path d="M 461.269397 568.718754 
L 468.044381 570.838954 
" style="fill:none;stroke:#262626;stroke-linecap:round;stroke-width:1.25;"/>
    </g>
    <g id="text_9">
     <!-- −0.2 -->
     <g style="fill:#262626;" transform="translate(463.791924 591.23158)scale(0.11 -0.11)">
      <use xlink:href="#ArialMT-8722"/>
      <use x="58.398438" xlink:href="#ArialMT-48"/>
      <use x="114.013672" xlink:href="#ArialMT-46"/>
      <use x="141.796875" xlink:href="#ArialMT-50"/>
     </g>
    </g>
   </g>
   <g id="xtick_10">
    <g id="line2d_21">
     <path clip-path="url(#p2bd83f4fed)" d="M 376.540541 350.854054 
" style="fill:none;stroke:#ffffff;stroke-linecap:round;"/>
    </g>
    <g id="line2d_22">
     <path d="M 485.305051 544.82965 
L 492.021685 546.897236 
" style="fill:none;stroke:#262626;stroke-linecap:round;stroke-width:1.25;"/>
    </g>
    <g id="text_10">
     <!-- −0.1 -->
     <g style="fill:#262626;" transform="translate(487.662564 567.157822)scale(0.11 -0.11)">
      <use xlink:href="#ArialMT-8722"/>
      <use x="58.398438" xlink:href="#ArialMT-48"/>
      <use x="114.013672" xlink:href="#ArialMT-46"/>
      <use x="141.796875" xlink:href="#ArialMT-49"/>
     </g>
    </g>
   </g>
   <g id="xtick_11">
    <g id="line2d_23">
     <path clip-path="url(#p2bd83f4fed)" d="M 376.540541 350.854054 
" style="fill:none;stroke:#ffffff;stroke-linecap:round;"/>
    </g>
    <g id="line2d_24">
     <path d="M 508.748215 521.529424 
L 515.407299 523.54633 
" style="fill:none;stroke:#262626;stroke-linecap:round;stroke-width:1.25;"/>
    </g>
    <g id="text_11">
     <!-- 0.0 -->
     <g style="fill:#262626;" transform="translate(514.157078 543.677541)scale(0.11 -0.11)">
      <use xlink:href="#ArialMT-48"/>
      <use x="55.615234" xlink:href="#ArialMT-46"/>
      <use x="83.398438" xlink:href="#ArialMT-48"/>
     </g>
    </g>
   </g>
   <g id="xtick_12">
    <g id="line2d_25">
     <path clip-path="url(#p2bd83f4fed)" d="M 376.540541 350.854054 
" style="fill:none;stroke:#ffffff;stroke-linecap:round;"/>
    </g>
    <g id="line2d_26">
     <path d="M 531.62053 498.796566 
L 538.222857 500.764633 
" style="fill:none;stroke:#262626;stroke-linecap:round;stroke-width:1.25;"/>
    </g>
    <g id="text_12">
     <!-- 0.1 -->
     <g style="fill:#262626;" transform="translate(536.872274 520.769059)scale(0.11 -0.11)">
      <use xlink:href="#ArialMT-48"/>
      <use x="55.615234" xlink:href="#ArialMT-46"/>
      <use x="83.398438" xlink:href="#ArialMT-49"/>
     </g>
    </g>
   </g>
   <g id="xtick_13">
    <g id="line2d_27">
     <path clip-path="url(#p2bd83f4fed)" d="M 376.540541 350.854054 
" style="fill:none;stroke:#ffffff;stroke-linecap:round;"/>
    </g>
    <g id="line2d_28">
     <path d="M 553.942595 476.610603 
L 560.488953 478.531583 
" style="fill:none;stroke:#262626;stroke-linecap:round;stroke-width:1.25;"/>
    </g>
    <g id="text_13">
     <!-- 0.2 -->
     <g style="fill:#262626;" transform="translate(559.040958 498.411739)scale(0.11 -0.11)">
      <use xlink:href="#ArialMT-48"/>
      <use x="55.615234" xlink:href="#ArialMT-46"/>
      <use x="83.398438" xlink:href="#ArialMT-50"/>
     </g>
    </g>
   </g>
   <g id="xtick_14">
    <g id="line2d_29">
     <path clip-path="url(#p2bd83f4fed)" d="M 376.540541 350.854054 
" style="fill:none;stroke:#ffffff;stroke-linecap:round;"/>
    </g>
    <g id="line2d_30">
     <path d="M 575.734032 454.952033 
L 582.225199 456.827597 
" style="fill:none;stroke:#262626;stroke-linecap:round;stroke-width:1.25;"/>
    </g>
    <g id="text_14">
     <!-- 0.3 -->
     <g style="fill:#262626;" transform="translate(580.682618 476.585928)scale(0.11 -0.11)">
      <use xlink:href="#ArialMT-48"/>
      <use x="55.615234" xlink:href="#ArialMT-46"/>
      <use x="83.398438" xlink:href="#ArialMT-51"/>
     </g>
    </g>
   </g>
  </g>
  <g id="axis3d_3">
   <g id="line2d_31">
    <path d="M 582.377109 451.116383 
L 593.200935 188.763664 
" style="fill:none;stroke:#ffffff;stroke-linecap:round;stroke-width:1.25;"/>
   </g>
   <g id="Line3DCollection_3">
    <path d="M 583.54717 422.755932 
L 323.386057 349.021336 
L 162.723438 480.935102 
" style="fill:none;stroke:#ffffff;"/>
    <path d="M 584.820922 391.88215 
L 323.072705 319.007789 
L 161.364219 449.408963 
" style="fill:none;stroke:#ffffff;"/>
    <path d="M 586.110447 360.626071 
L 322.755637 288.638277 
L 159.987609 417.479441 
" style="fill:none;stroke:#ffffff;"/>
    <path d="M 587.416039 328.98055 
L 322.434785 257.90643 
L 158.593271 385.138745 
" style="fill:none;stroke:#ffffff;"/>
    <path d="M 588.738001 296.938262 
L 322.110083 226.805723 
L 157.180862 352.37888 
" style="fill:none;stroke:#ffffff;"/>
    <path d="M 590.076641 264.491699 
L 321.78146 195.329475 
L 155.750026 319.191644 
" style="fill:none;stroke:#ffffff;"/>
    <path d="M 591.432278 231.633161 
L 321.448845 163.470845 
L 154.300402 285.56862 
" style="fill:none;stroke:#ffffff;"/>
    <path d="M 592.805238 198.354752 
L 321.112164 131.22282 
L 152.831617 251.501166 
" style="fill:none;stroke:#ffffff;"/>
   </g>
   <g id="xtick_15">
    <g id="line2d_32">
     <path clip-path="url(#p2bd83f4fed)" d="M 376.540541 350.854054 
" style="fill:none;stroke:#ffffff;stroke-linecap:round;"/>
    </g>
    <g id="line2d_33">
     <path d="M 581.376079 422.140603 
L 587.893889 423.987875 
" style="fill:none;stroke:#262626;stroke-linecap:round;stroke-width:1.25;"/>
    </g>
    <g id="text_15">
     <!-- −0.15 -->
     <defs>
      <path d="M 4.15625 18.75 
L 13.375 19.53125 
Q 14.40625 12.796875 18.140625 9.390625 
Q 21.875 6 27.15625 6 
Q 33.5 6 37.890625 10.78125 
Q 42.28125 15.578125 42.28125 23.484375 
Q 42.28125 31 38.0625 35.34375 
Q 33.84375 39.703125 27 39.703125 
Q 22.75 39.703125 19.328125 37.765625 
Q 15.921875 35.84375 13.96875 32.765625 
L 5.71875 33.84375 
L 12.640625 70.609375 
L 48.25 70.609375 
L 48.25 62.203125 
L 19.671875 62.203125 
L 15.828125 42.96875 
Q 22.265625 47.46875 29.34375 47.46875 
Q 38.71875 47.46875 45.15625 40.96875 
Q 51.609375 34.46875 51.609375 24.265625 
Q 51.609375 14.546875 45.953125 7.46875 
Q 39.0625 -1.21875 27.15625 -1.21875 
Q 17.390625 -1.21875 11.203125 4.25 
Q 5.03125 9.71875 4.15625 18.75 
z
" id="ArialMT-53"/>
     </defs>
     <g style="fill:#262626;" transform="translate(585.942776 428.374454)scale(0.11 -0.11)">
      <use xlink:href="#ArialMT-8722"/>
      <use x="58.398438" xlink:href="#ArialMT-48"/>
      <use x="114.013672" xlink:href="#ArialMT-46"/>
      <use x="141.796875" xlink:href="#ArialMT-49"/>
      <use x="197.412109" xlink:href="#ArialMT-53"/>
     </g>
    </g>
   </g>
   <g id="xtick_16">
    <g id="line2d_34">
     <path clip-path="url(#p2bd83f4fed)" d="M 376.540541 350.854054 
" style="fill:none;stroke:#ffffff;stroke-linecap:round;"/>
    </g>
    <g id="line2d_35">
     <path d="M 582.636031 391.273846 
L 589.195299 393.100038 
" style="fill:none;stroke:#262626;stroke-linecap:round;stroke-width:1.25;"/>
    </g>
    <g id="text_16">
     <!-- −0.10 -->
     <g style="fill:#262626;" transform="translate(587.315133 397.526427)scale(0.11 -0.11)">
      <use xlink:href="#ArialMT-8722"/>
      <use x="58.398438" xlink:href="#ArialMT-48"/>
      <use x="114.013672" xlink:href="#ArialMT-46"/>
      <use x="141.796875" xlink:href="#ArialMT-49"/>
      <use x="197.412109" xlink:href="#ArialMT-48"/>
     </g>
    </g>
   </g>
   <g id="xtick_17">
    <g id="line2d_36">
     <path clip-path="url(#p2bd83f4fed)" d="M 376.540541 350.854054 
" style="fill:none;stroke:#ffffff;stroke-linecap:round;"/>
    </g>
    <g id="line2d_37">
     <path d="M 583.911579 360.025013 
L 590.512836 361.82946 
" style="fill:none;stroke:#262626;stroke-linecap:round;stroke-width:1.25;"/>
    </g>
    <g id="text_17">
     <!-- −0.05 -->
     <g style="fill:#262626;" transform="translate(588.704462 366.296915)scale(0.11 -0.11)">
      <use xlink:href="#ArialMT-8722"/>
      <use x="58.398438" xlink:href="#ArialMT-48"/>
      <use x="114.013672" xlink:href="#ArialMT-46"/>
      <use x="141.796875" xlink:href="#ArialMT-48"/>
      <use x="197.412109" xlink:href="#ArialMT-53"/>
     </g>
    </g>
   </g>
   <g id="xtick_18">
    <g id="line2d_38">
     <path clip-path="url(#p2bd83f4fed)" d="M 376.540541 350.854054 
" style="fill:none;stroke:#ffffff;stroke-linecap:round;"/>
    </g>
    <g id="line2d_39">
     <path d="M 585.203014 328.386965 
L 591.8468 330.168983 
" style="fill:none;stroke:#262626;stroke-linecap:round;stroke-width:1.25;"/>
    </g>
    <g id="text_18">
     <!-- 0.00 -->
     <g style="fill:#262626;" transform="translate(593.323423 334.678797)scale(0.11 -0.11)">
      <use xlink:href="#ArialMT-48"/>
      <use x="55.615234" xlink:href="#ArialMT-46"/>
      <use x="83.398438" xlink:href="#ArialMT-48"/>
      <use x="139.013672" xlink:href="#ArialMT-48"/>
     </g>
    </g>
   </g>
   <g id="xtick_19">
    <g id="line2d_40">
     <path clip-path="url(#p2bd83f4fed)" d="M 376.540541 350.854054 
" style="fill:none;stroke:#ffffff;stroke-linecap:round;"/>
    </g>
    <g id="line2d_41">
     <path d="M 586.510636 296.352387 
L 593.197502 298.111268 
" style="fill:none;stroke:#262626;stroke-linecap:round;stroke-width:1.25;"/>
    </g>
    <g id="text_19">
     <!-- 0.05 -->
     <g style="fill:#262626;" transform="translate(594.747652 302.664775)scale(0.11 -0.11)">
      <use xlink:href="#ArialMT-48"/>
      <use x="55.615234" xlink:href="#ArialMT-46"/>
      <use x="83.398438" xlink:href="#ArialMT-48"/>
      <use x="139.013672" xlink:href="#ArialMT-53"/>
     </g>
    </g>
   </g>
   <g id="xtick_20">
    <g id="line2d_42">
     <path clip-path="url(#p2bd83f4fed)" d="M 376.540541 350.854054 
" style="fill:none;stroke:#ffffff;stroke-linecap:round;"/>
    </g>
    <g id="line2d_43">
     <path d="M 587.83475 263.913775 
L 594.565257 265.648793 
" style="fill:none;stroke:#262626;stroke-linecap:round;stroke-width:1.25;"/>
    </g>
    <g id="text_20">
     <!-- 0.10 -->
     <g style="fill:#262626;" transform="translate(596.189828 270.247365)scale(0.11 -0.11)">
      <use xlink:href="#ArialMT-48"/>
      <use x="55.615234" xlink:href="#ArialMT-46"/>
      <use x="83.398438" xlink:href="#ArialMT-49"/>
      <use x="139.013672" xlink:href="#ArialMT-48"/>
     </g>
    </g>
   </g>
   <g id="xtick_21">
    <g id="line2d_44">
     <path clip-path="url(#p2bd83f4fed)" d="M 376.540541 350.854054 
" style="fill:none;stroke:#ffffff;stroke-linecap:round;"/>
    </g>
    <g id="line2d_45">
     <path d="M 589.17567 231.063439 
L 595.950391 232.773843 
" style="fill:none;stroke:#262626;stroke-linecap:round;stroke-width:1.25;"/>
    </g>
    <g id="text_21">
     <!-- 0.15 -->
     <g style="fill:#262626;" transform="translate(597.65029 237.418895)scale(0.11 -0.11)">
      <use xlink:href="#ArialMT-48"/>
      <use x="55.615234" xlink:href="#ArialMT-46"/>
      <use x="83.398438" xlink:href="#ArialMT-49"/>
      <use x="139.013672" xlink:href="#ArialMT-53"/>
     </g>
    </g>
   </g>
   <g id="xtick_22">
    <g id="line2d_46">
     <path clip-path="url(#p2bd83f4fed)" d="M 376.540541 350.854054 
" style="fill:none;stroke:#ffffff;stroke-linecap:round;"/>
    </g>
    <g id="line2d_47">
     <path d="M 590.533718 197.793488 
L 597.353238 199.478505 
" style="fill:none;stroke:#262626;stroke-linecap:round;stroke-width:1.25;"/>
    </g>
    <g id="text_22">
     <!-- 0.20 -->
     <g style="fill:#262626;" transform="translate(599.12939 204.171496)scale(0.11 -0.11)">
      <use xlink:href="#ArialMT-48"/>
      <use x="55.615234" xlink:href="#ArialMT-46"/>
      <use x="83.398438" xlink:href="#ArialMT-50"/>
      <use x="139.013672" xlink:href="#ArialMT-48"/>
     </g>
    </g>
   </g>
  </g>
  <g id="axes_1">
   <g id="Path3DCollection_1">
    <defs>
     <path d="M 0 2.236068 
C 0.593012 2.236068 1.161816 2.000462 1.581139 1.581139 
C 2.000462 1.161816 2.236068 0.593012 2.236068 0 
C 2.236068 -0.593012 2.000462 -1.161816 1.581139 -1.581139 
C 1.161816 -2.000462 0.593012 -2.236068 0 -2.236068 
C -0.593012 -2.236068 -1.161816 -2.000462 -1.581139 -1.581139 
C -2.000462 -1.161816 -2.236068 -0.593012 -2.236068 0 
C -2.236068 0.593012 -2.000462 1.161816 -1.581139 1.581139 
C -1.161816 2.000462 -0.593012 2.236068 0 2.236068 
z
" id="m47951d6685" style="stroke:#8172b3;"/>
    </defs>
    <g clip-path="url(#p2bd83f4fed)">
     <use style="fill:#8172b3;stroke:#8172b3;" x="349.699766" xlink:href="#m47951d6685" y="375.320987"/>
    </g>
   </g>
   <g id="Path3DCollection_2">
    <defs>
     <path d="M 0 2.236068 
C 0.593012 2.236068 1.161816 2.000462 1.581139 1.581139 
C 2.000462 1.161816 2.236068 0.593012 2.236068 0 
C 2.236068 -0.593012 2.000462 -1.161816 1.581139 -1.581139 
C 1.161816 -2.000462 0.593012 -2.236068 0 -2.236068 
C -0.593012 -2.236068 -1.161816 -2.000462 -1.581139 -1.581139 
C -2.000462 -1.161816 -2.236068 -0.593012 -2.236068 0 
C -2.236068 0.593012 -2.000462 1.161816 -1.581139 1.581139 
C -1.161816 2.000462 -0.593012 2.236068 0 2.236068 
z
" id="mf78bc58f6e" style="stroke:#c44e52;"/>
    </defs>
    <g clip-path="url(#p2bd83f4fed)">
     <use style="fill:#c44e52;stroke:#c44e52;" x="439.071832" xlink:href="#mf78bc58f6e" y="307.782576"/>
    </g>
   </g>
   <g id="Path3DCollection_3">
    <defs>
     <path d="M 0 2.236068 
C 0.593012 2.236068 1.161816 2.000462 1.581139 1.581139 
C 2.000462 1.161816 2.236068 0.593012 2.236068 0 
C 2.236068 -0.593012 2.000462 -1.161816 1.581139 -1.581139 
C 1.161816 -2.000462 0.593012 -2.236068 0 -2.236068 
C -0.593012 -2.236068 -1.161816 -2.000462 -1.581139 -1.581139 
C -2.000462 -1.161816 -2.236068 -0.593012 -2.236068 0 
C -2.236068 0.593012 -2.000462 1.161816 -1.581139 1.581139 
C -1.161816 2.000462 -0.593012 2.236068 0 2.236068 
z
" id="m006fd812e0" style="stroke:#4c72b0;"/>
    </defs>
    <g clip-path="url(#p2bd83f4fed)">
     <use style="fill:#4c72b0;stroke:#4c72b0;" x="377.760713" xlink:href="#m006fd812e0" y="384.007464"/>
    </g>
   </g>
   <g id="Path3DCollection_4">
    <g clip-path="url(#p2bd83f4fed)">
     <use style="fill:#c44e52;stroke:#c44e52;" x="408.155253" xlink:href="#mf78bc58f6e" y="341.976846"/>
    </g>
   </g>
   <g id="legend_1">
    <g id="patch_6">
     <path d="M 575.142188 189.731406 
L 640.3 189.731406 
Q 642.5 189.731406 642.5 187.531406 
L 642.5 94.1 
Q 642.5 91.9 640.3 91.9 
L 575.142188 91.9 
Q 572.942188 91.9 572.942188 94.1 
L 572.942188 187.531406 
Q 572.942188 189.731406 575.142188 189.731406 
z
" style="fill:#eaeaf2;opacity:0.8;stroke:#cccccc;stroke-linejoin:miter;"/>
    </g>
    <g id="text_23">
     <!-- Classes -->
     <defs>
      <path d="M 58.796875 25.09375 
L 68.265625 22.703125 
Q 65.28125 11.03125 57.546875 4.90625 
Q 49.8125 -1.21875 38.625 -1.21875 
Q 27.046875 -1.21875 19.796875 3.484375 
Q 12.546875 8.203125 8.765625 17.140625 
Q 4.984375 26.078125 4.984375 36.328125 
Q 4.984375 47.515625 9.25 55.828125 
Q 13.53125 64.15625 21.40625 68.46875 
Q 29.296875 72.796875 38.765625 72.796875 
Q 49.515625 72.796875 56.828125 67.328125 
Q 64.15625 61.859375 67.046875 51.953125 
L 57.71875 49.75 
Q 55.21875 57.5625 50.484375 61.125 
Q 45.75 64.703125 38.578125 64.703125 
Q 30.328125 64.703125 24.78125 60.734375 
Q 19.234375 56.78125 16.984375 50.109375 
Q 14.75 43.453125 14.75 36.375 
Q 14.75 27.25 17.40625 20.4375 
Q 20.0625 13.625 25.671875 10.25 
Q 31.296875 6.890625 37.84375 6.890625 
Q 45.796875 6.890625 51.3125 11.46875 
Q 56.84375 16.0625 58.796875 25.09375 
z
" id="ArialMT-67"/>
      <path d="M 6.390625 0 
L 6.390625 71.578125 
L 15.1875 71.578125 
L 15.1875 0 
z
" id="ArialMT-108"/>
      <path d="M 40.4375 6.390625 
Q 35.546875 2.25 31.03125 0.53125 
Q 26.515625 -1.171875 21.34375 -1.171875 
Q 12.796875 -1.171875 8.203125 3 
Q 3.609375 7.171875 3.609375 13.671875 
Q 3.609375 17.484375 5.34375 20.625 
Q 7.078125 23.78125 9.890625 25.6875 
Q 12.703125 27.59375 16.21875 28.5625 
Q 18.796875 29.25 24.03125 29.890625 
Q 34.671875 31.15625 39.703125 32.90625 
Q 39.75 34.71875 39.75 35.203125 
Q 39.75 40.578125 37.25 42.78125 
Q 33.890625 45.75 27.25 45.75 
Q 21.046875 45.75 18.09375 43.578125 
Q 15.140625 41.40625 13.71875 35.890625 
L 5.125 37.0625 
Q 6.296875 42.578125 8.984375 45.96875 
Q 11.671875 49.359375 16.75 51.1875 
Q 21.828125 53.03125 28.515625 53.03125 
Q 35.15625 53.03125 39.296875 51.46875 
Q 43.453125 49.90625 45.40625 47.53125 
Q 47.359375 45.171875 48.140625 41.546875 
Q 48.578125 39.3125 48.578125 33.453125 
L 48.578125 21.734375 
Q 48.578125 9.46875 49.140625 6.21875 
Q 49.703125 2.984375 51.375 0 
L 42.1875 0 
Q 40.828125 2.734375 40.4375 6.390625 
z
M 39.703125 26.03125 
Q 34.90625 24.078125 25.34375 22.703125 
Q 19.921875 21.921875 17.671875 20.9375 
Q 15.4375 19.96875 14.203125 18.09375 
Q 12.984375 16.21875 12.984375 13.921875 
Q 12.984375 10.40625 15.640625 8.0625 
Q 18.3125 5.71875 23.4375 5.71875 
Q 28.515625 5.71875 32.46875 7.9375 
Q 36.421875 10.15625 38.28125 14.015625 
Q 39.703125 17 39.703125 22.796875 
z
" id="ArialMT-97"/>
      <path d="M 3.078125 15.484375 
L 11.765625 16.84375 
Q 12.5 11.625 15.84375 8.84375 
Q 19.1875 6.0625 25.203125 6.0625 
Q 31.25 6.0625 34.171875 8.515625 
Q 37.109375 10.984375 37.109375 14.3125 
Q 37.109375 17.28125 34.515625 19 
Q 32.71875 20.171875 25.53125 21.96875 
Q 15.875 24.421875 12.140625 26.203125 
Q 8.40625 27.984375 6.46875 31.125 
Q 4.546875 34.28125 4.546875 38.09375 
Q 4.546875 41.546875 6.125 44.5 
Q 7.71875 47.46875 10.453125 49.421875 
Q 12.5 50.921875 16.03125 51.96875 
Q 19.578125 53.03125 23.640625 53.03125 
Q 29.734375 53.03125 34.34375 51.265625 
Q 38.96875 49.515625 41.15625 46.5 
Q 43.359375 43.5 44.1875 38.484375 
L 35.59375 37.3125 
Q 35.015625 41.3125 32.203125 43.546875 
Q 29.390625 45.796875 24.265625 45.796875 
Q 18.21875 45.796875 15.625 43.796875 
Q 13.03125 41.796875 13.03125 39.109375 
Q 13.03125 37.40625 14.109375 36.03125 
Q 15.1875 34.625 17.484375 33.6875 
Q 18.796875 33.203125 25.25 31.453125 
Q 34.578125 28.953125 38.25 27.359375 
Q 41.9375 25.78125 44.03125 22.75 
Q 46.140625 19.734375 46.140625 15.234375 
Q 46.140625 10.84375 43.578125 6.953125 
Q 41.015625 3.078125 36.171875 0.953125 
Q 31.34375 -1.171875 25.25 -1.171875 
Q 15.140625 -1.171875 9.84375 3.03125 
Q 4.546875 7.234375 3.078125 15.484375 
z
" id="ArialMT-115"/>
      <path d="M 42.09375 16.703125 
L 51.171875 15.578125 
Q 49.03125 7.625 43.21875 3.21875 
Q 37.40625 -1.171875 28.375 -1.171875 
Q 17 -1.171875 10.328125 5.828125 
Q 3.65625 12.84375 3.65625 25.484375 
Q 3.65625 38.578125 10.390625 45.796875 
Q 17.140625 53.03125 27.875 53.03125 
Q 38.28125 53.03125 44.875 45.953125 
Q 51.46875 38.875 51.46875 26.03125 
Q 51.46875 25.25 51.421875 23.6875 
L 12.75 23.6875 
Q 13.234375 15.140625 17.578125 10.59375 
Q 21.921875 6.0625 28.421875 6.0625 
Q 33.25 6.0625 36.671875 8.59375 
Q 40.09375 11.140625 42.09375 16.703125 
z
M 13.234375 30.90625 
L 42.1875 30.90625 
Q 41.609375 37.453125 38.875 40.71875 
Q 34.671875 45.796875 27.984375 45.796875 
Q 21.921875 45.796875 17.796875 41.75 
Q 13.671875 37.703125 13.234375 30.90625 
z
" id="ArialMT-101"/>
     </defs>
     <g style="fill:#262626;" transform="translate(586.381719 104.889375)scale(0.12 -0.12)">
      <use xlink:href="#ArialMT-67"/>
      <use x="72.216797" xlink:href="#ArialMT-108"/>
      <use x="94.433594" xlink:href="#ArialMT-97"/>
      <use x="150.048828" xlink:href="#ArialMT-115"/>
      <use x="200.048828" xlink:href="#ArialMT-115"/>
      <use x="250.048828" xlink:href="#ArialMT-101"/>
      <use x="305.664062" xlink:href="#ArialMT-115"/>
     </g>
    </g>
    <g id="line2d_48">
     <path d="M 577.342188 116.797969 
L 599.342188 116.797969 
" style="fill:none;stroke:#4c72b0;stroke-linecap:round;stroke-width:1.5;"/>
    </g>
    <g id="line2d_49">
     <defs>
      <path d="M 0 3 
C 0.795609 3 1.55874 2.683901 2.12132 2.12132 
C 2.683901 1.55874 3 0.795609 3 0 
C 3 -0.795609 2.683901 -1.55874 2.12132 -2.12132 
C 1.55874 -2.683901 0.795609 -3 0 -3 
C -0.795609 -3 -1.55874 -2.683901 -2.12132 -2.12132 
C -2.683901 -1.55874 -3 -0.795609 -3 0 
C -3 0.795609 -2.683901 1.55874 -2.12132 2.12132 
C -1.55874 2.683901 -0.795609 3 0 3 
z
" id="mbac20cfe69" style="stroke:#4c72b0;"/>
     </defs>
     <g>
      <use style="fill:#4c72b0;stroke:#4c72b0;" x="588.342188" xlink:href="#mbac20cfe69" y="116.797969"/>
     </g>
    </g>
    <g id="text_24">
     <!-- man -->
     <defs>
      <path d="M 6.59375 0 
L 6.59375 51.859375 
L 14.453125 51.859375 
L 14.453125 44.578125 
Q 16.890625 48.390625 20.9375 50.703125 
Q 25 53.03125 30.171875 53.03125 
Q 35.9375 53.03125 39.625 50.640625 
Q 43.3125 48.25 44.828125 43.953125 
Q 50.984375 53.03125 60.84375 53.03125 
Q 68.5625 53.03125 72.703125 48.75 
Q 76.859375 44.484375 76.859375 35.59375 
L 76.859375 0 
L 68.109375 0 
L 68.109375 32.671875 
Q 68.109375 37.9375 67.25 40.25 
Q 66.40625 42.578125 64.15625 43.984375 
Q 61.921875 45.40625 58.890625 45.40625 
Q 53.421875 45.40625 49.796875 41.765625 
Q 46.1875 38.140625 46.1875 30.125 
L 46.1875 0 
L 37.40625 0 
L 37.40625 33.6875 
Q 37.40625 39.546875 35.25 42.46875 
Q 33.109375 45.40625 28.21875 45.40625 
Q 24.515625 45.40625 21.359375 43.453125 
Q 18.21875 41.5 16.796875 37.734375 
Q 15.375 33.984375 15.375 26.90625 
L 15.375 0 
z
" id="ArialMT-109"/>
      <path d="M 6.59375 0 
L 6.59375 51.859375 
L 14.5 51.859375 
L 14.5 44.484375 
Q 20.21875 53.03125 31 53.03125 
Q 35.6875 53.03125 39.625 51.34375 
Q 43.5625 49.65625 45.515625 46.921875 
Q 47.46875 44.1875 48.25 40.4375 
Q 48.734375 37.984375 48.734375 31.890625 
L 48.734375 0 
L 39.9375 0 
L 39.9375 31.546875 
Q 39.9375 36.921875 38.90625 39.578125 
Q 37.890625 42.234375 35.28125 43.8125 
Q 32.671875 45.40625 29.15625 45.40625 
Q 23.53125 45.40625 19.453125 41.84375 
Q 15.375 38.28125 15.375 28.328125 
L 15.375 0 
z
" id="ArialMT-110"/>
     </defs>
     <g style="fill:#262626;" transform="translate(608.142187 120.647969)scale(0.11 -0.11)">
      <use xlink:href="#ArialMT-109"/>
      <use x="83.300781" xlink:href="#ArialMT-97"/>
      <use x="138.916016" xlink:href="#ArialMT-110"/>
     </g>
    </g>
    <g id="line2d_50">
     <path d="M 577.342188 132.357813 
L 599.342188 132.357813 
" style="fill:none;stroke:#55a868;stroke-linecap:round;stroke-width:1.5;"/>
    </g>
    <g id="line2d_51">
     <defs>
      <path d="M 0 3 
C 0.795609 3 1.55874 2.683901 2.12132 2.12132 
C 2.683901 1.55874 3 0.795609 3 0 
C 3 -0.795609 2.683901 -1.55874 2.12132 -2.12132 
C 1.55874 -2.683901 0.795609 -3 0 -3 
C -0.795609 -3 -1.55874 -2.683901 -2.12132 -2.12132 
C -2.683901 -1.55874 -3 -0.795609 -3 0 
C -3 0.795609 -2.683901 1.55874 -2.12132 2.12132 
C -1.55874 2.683901 -0.795609 3 0 3 
z
" id="m982738942f" style="stroke:#55a868;"/>
     </defs>
     <g>
      <use style="fill:#55a868;stroke:#55a868;" x="588.342188" xlink:href="#m982738942f" y="132.357813"/>
     </g>
    </g>
    <g id="text_25">
     <!-- mal -->
     <g style="fill:#262626;" transform="translate(608.142187 136.207813)scale(0.11 -0.11)">
      <use xlink:href="#ArialMT-109"/>
      <use x="83.300781" xlink:href="#ArialMT-97"/>
      <use x="138.916016" xlink:href="#ArialMT-108"/>
     </g>
    </g>
    <g id="line2d_52">
     <path d="M 577.342188 147.917656 
L 599.342188 147.917656 
" style="fill:none;stroke:#c44e52;stroke-linecap:round;stroke-width:1.5;"/>
    </g>
    <g id="line2d_53">
     <defs>
      <path d="M 0 3 
C 0.795609 3 1.55874 2.683901 2.12132 2.12132 
C 2.683901 1.55874 3 0.795609 3 0 
C 3 -0.795609 2.683901 -1.55874 2.12132 -2.12132 
C 1.55874 -2.683901 0.795609 -3 0 -3 
C -0.795609 -3 -1.55874 -2.683901 -2.12132 -2.12132 
C -2.683901 -1.55874 -3 -0.795609 -3 0 
C -3 0.795609 -2.683901 1.55874 -2.12132 2.12132 
C -1.55874 2.683901 -0.795609 3 0 3 
z
" id="mec7aafd5bc" style="stroke:#c44e52;"/>
     </defs>
     <g>
      <use style="fill:#c44e52;stroke:#c44e52;" x="588.342188" xlink:href="#mec7aafd5bc" y="147.917656"/>
     </g>
    </g>
    <g id="text_26">
     <!-- glu -->
     <defs>
      <path d="M 4.984375 -4.296875 
L 13.53125 -5.5625 
Q 14.0625 -9.515625 16.5 -11.328125 
Q 19.78125 -13.765625 25.4375 -13.765625 
Q 31.546875 -13.765625 34.859375 -11.328125 
Q 38.1875 -8.890625 39.359375 -4.5 
Q 40.046875 -1.8125 39.984375 6.78125 
Q 34.234375 0 25.640625 0 
Q 14.9375 0 9.078125 7.71875 
Q 3.21875 15.4375 3.21875 26.21875 
Q 3.21875 33.640625 5.90625 39.90625 
Q 8.59375 46.1875 13.6875 49.609375 
Q 18.796875 53.03125 25.6875 53.03125 
Q 34.859375 53.03125 40.828125 45.609375 
L 40.828125 51.859375 
L 48.921875 51.859375 
L 48.921875 7.03125 
Q 48.921875 -5.078125 46.453125 -10.125 
Q 44 -15.1875 38.640625 -18.109375 
Q 33.296875 -21.046875 25.484375 -21.046875 
Q 16.21875 -21.046875 10.5 -16.875 
Q 4.78125 -12.703125 4.984375 -4.296875 
z
M 12.25 26.859375 
Q 12.25 16.65625 16.296875 11.96875 
Q 20.359375 7.28125 26.46875 7.28125 
Q 32.515625 7.28125 36.609375 11.9375 
Q 40.71875 16.609375 40.71875 26.5625 
Q 40.71875 36.078125 36.5 40.90625 
Q 32.28125 45.75 26.3125 45.75 
Q 20.453125 45.75 16.34375 40.984375 
Q 12.25 36.234375 12.25 26.859375 
z
" id="ArialMT-103"/>
      <path d="M 40.578125 0 
L 40.578125 7.625 
Q 34.515625 -1.171875 24.125 -1.171875 
Q 19.53125 -1.171875 15.546875 0.578125 
Q 11.578125 2.34375 9.640625 5 
Q 7.71875 7.671875 6.9375 11.53125 
Q 6.390625 14.109375 6.390625 19.734375 
L 6.390625 51.859375 
L 15.1875 51.859375 
L 15.1875 23.09375 
Q 15.1875 16.21875 15.71875 13.8125 
Q 16.546875 10.359375 19.234375 8.375 
Q 21.921875 6.390625 25.875 6.390625 
Q 29.828125 6.390625 33.296875 8.421875 
Q 36.765625 10.453125 38.203125 13.9375 
Q 39.65625 17.4375 39.65625 24.078125 
L 39.65625 51.859375 
L 48.4375 51.859375 
L 48.4375 0 
z
" id="ArialMT-117"/>
     </defs>
     <g style="fill:#262626;" transform="translate(608.142187 151.767656)scale(0.11 -0.11)">
      <use xlink:href="#ArialMT-103"/>
      <use x="55.615234" xlink:href="#ArialMT-108"/>
      <use x="77.832031" xlink:href="#ArialMT-117"/>
     </g>
    </g>
    <g id="line2d_54">
     <path d="M 577.342188 163.606406 
L 599.342188 163.606406 
" style="fill:none;stroke:#64b5cd;stroke-linecap:round;stroke-width:1.5;"/>
    </g>
    <g id="line2d_55">
     <defs>
      <path d="M 0 3 
C 0.795609 3 1.55874 2.683901 2.12132 2.12132 
C 2.683901 1.55874 3 0.795609 3 0 
C 3 -0.795609 2.683901 -1.55874 2.12132 -2.12132 
C 1.55874 -2.683901 0.795609 -3 0 -3 
C -0.795609 -3 -1.55874 -2.683901 -2.12132 -2.12132 
C -2.683901 -1.55874 -3 -0.795609 -3 0 
C -3 0.795609 -2.683901 1.55874 -2.12132 2.12132 
C -1.55874 2.683901 -0.795609 3 0 3 
z
" id="md4afd311b2" style="stroke:#64b5cd;"/>
     </defs>
     <g>
      <use style="fill:#64b5cd;stroke:#64b5cd;" x="588.342188" xlink:href="#md4afd311b2" y="163.606406"/>
     </g>
    </g>
    <g id="text_27">
     <!-- fru -->
     <defs>
      <path d="M 8.6875 0 
L 8.6875 45.015625 
L 0.921875 45.015625 
L 0.921875 51.859375 
L 8.6875 51.859375 
L 8.6875 57.375 
Q 8.6875 62.59375 9.625 65.140625 
Q 10.890625 68.5625 14.078125 70.671875 
Q 17.28125 72.796875 23.046875 72.796875 
Q 26.765625 72.796875 31.25 71.921875 
L 29.9375 64.265625 
Q 27.203125 64.75 24.75 64.75 
Q 20.75 64.75 19.09375 63.03125 
Q 17.4375 61.328125 17.4375 56.640625 
L 17.4375 51.859375 
L 27.546875 51.859375 
L 27.546875 45.015625 
L 17.4375 45.015625 
L 17.4375 0 
z
" id="ArialMT-102"/>
      <path d="M 6.5 0 
L 6.5 51.859375 
L 14.40625 51.859375 
L 14.40625 44 
Q 17.4375 49.515625 20 51.265625 
Q 22.5625 53.03125 25.640625 53.03125 
Q 30.078125 53.03125 34.671875 50.203125 
L 31.640625 42.046875 
Q 28.421875 43.953125 25.203125 43.953125 
Q 22.3125 43.953125 20.015625 42.21875 
Q 17.71875 40.484375 16.75 37.40625 
Q 15.28125 32.71875 15.28125 27.15625 
L 15.28125 0 
z
" id="ArialMT-114"/>
     </defs>
     <g style="fill:#262626;" transform="translate(608.142187 167.456406)scale(0.11 -0.11)">
      <use xlink:href="#ArialMT-102"/>
      <use x="27.783203" xlink:href="#ArialMT-114"/>
      <use x="61.083984" xlink:href="#ArialMT-117"/>
     </g>
    </g>
    <g id="line2d_56">
     <path d="M 577.342188 179.16625 
L 599.342188 179.16625 
" style="fill:none;stroke:#8172b3;stroke-linecap:round;stroke-width:1.5;"/>
    </g>
    <g id="line2d_57">
     <defs>
      <path d="M 0 3 
C 0.795609 3 1.55874 2.683901 2.12132 2.12132 
C 2.683901 1.55874 3 0.795609 3 0 
C 3 -0.795609 2.683901 -1.55874 2.12132 -2.12132 
C 1.55874 -2.683901 0.795609 -3 0 -3 
C -0.795609 -3 -1.55874 -2.683901 -2.12132 -2.12132 
C -2.683901 -1.55874 -3 -0.795609 -3 0 
C -3 0.795609 -2.683901 1.55874 -2.12132 2.12132 
C -1.55874 2.683901 -0.795609 3 0 3 
z
" id="m177342fbe1" style="stroke:#8172b3;"/>
     </defs>
     <g>
      <use style="fill:#8172b3;stroke:#8172b3;" x="588.342188" xlink:href="#m177342fbe1" y="179.16625"/>
     </g>
    </g>
    <g id="text_28">
     <!-- gluam -->
     <g style="fill:#262626;" transform="translate(608.142187 183.01625)scale(0.11 -0.11)">
      <use xlink:href="#ArialMT-103"/>
      <use x="55.615234" xlink:href="#ArialMT-108"/>
      <use x="77.832031" xlink:href="#ArialMT-117"/>
      <use x="133.447266" xlink:href="#ArialMT-97"/>
      <use x="189.0625" xlink:href="#ArialMT-109"/>
     </g>
    </g>
   </g>
   <g id="Path3DCollection_5">
    <g clip-path="url(#p2bd83f4fed)">
     <use style="fill:#c44e52;stroke:#c44e52;" x="387.447997" xlink:href="#mf78bc58f6e" y="443.4417"/>
    </g>
   </g>
   <g id="Path3DCollection_6">
    <defs>
     <path d="M 0 2.236068 
C 0.593012 2.236068 1.161816 2.000462 1.581139 1.581139 
C 2.000462 1.161816 2.236068 0.593012 2.236068 0 
C 2.236068 -0.593012 2.000462 -1.161816 1.581139 -1.581139 
C 1.161816 -2.000462 0.593012 -2.236068 0 -2.236068 
C -0.593012 -2.236068 -1.161816 -2.000462 -1.581139 -1.581139 
C -2.000462 -1.161816 -2.236068 -0.593012 -2.236068 0 
C -2.236068 0.593012 -2.000462 1.161816 -1.581139 1.581139 
C -1.161816 2.000462 -0.593012 2.236068 0 2.236068 
z
" id="m116061eb30" style="stroke:#55a868;"/>
    </defs>
    <g clip-path="url(#p2bd83f4fed)">
     <use style="fill:#55a868;stroke:#55a868;" x="325.363871" xlink:href="#m116061eb30" y="300.193807"/>
    </g>
   </g>
   <g id="Path3DCollection_7">
    <defs>
     <path d="M 0 2.236068 
C 0.593012 2.236068 1.161816 2.000462 1.581139 1.581139 
C 2.000462 1.161816 2.236068 0.593012 2.236068 0 
C 2.236068 -0.593012 2.000462 -1.161816 1.581139 -1.581139 
C 1.161816 -2.000462 0.593012 -2.236068 0 -2.236068 
C -0.593012 -2.236068 -1.161816 -2.000462 -1.581139 -1.581139 
C -2.000462 -1.161816 -2.236068 -0.593012 -2.236068 0 
C -2.236068 0.593012 -2.000462 1.161816 -1.581139 1.581139 
C -1.161816 2.000462 -0.593012 2.236068 0 2.236068 
z
" id="m5088772251" style="stroke:#64b5cd;"/>
    </defs>
    <g clip-path="url(#p2bd83f4fed)">
     <use style="fill:#64b5cd;stroke:#64b5cd;" x="395.003698" xlink:href="#m5088772251" y="354.686685"/>
    </g>
   </g>
   <g id="Path3DCollection_8">
    <g clip-path="url(#p2bd83f4fed)">
     <use style="fill:#8172b3;stroke:#8172b3;" x="374.677137" xlink:href="#m47951d6685" y="369.945587"/>
    </g>
   </g>
   <g id="Path3DCollection_9">
    <g clip-path="url(#p2bd83f4fed)">
     <use style="fill:#c44e52;stroke:#c44e52;" x="342.909861" xlink:href="#mf78bc58f6e" y="287.57951"/>
    </g>
   </g>
   <g id="Path3DCollection_10">
    <g clip-path="url(#p2bd83f4fed)">
     <use style="fill:#64b5cd;stroke:#64b5cd;" x="417.111506" xlink:href="#m5088772251" y="438.294223"/>
    </g>
   </g>
   <g id="Path3DCollection_11">
    <g clip-path="url(#p2bd83f4fed)">
     <use style="fill:#c44e52;stroke:#c44e52;" x="331.640161" xlink:href="#mf78bc58f6e" y="364.959814"/>
    </g>
   </g>
   <g id="Path3DCollection_12">
    <g clip-path="url(#p2bd83f4fed)">
     <use style="fill:#55a868;stroke:#55a868;" x="506.974296" xlink:href="#m116061eb30" y="301.093857"/>
    </g>
   </g>
   <g id="Path3DCollection_13">
    <g clip-path="url(#p2bd83f4fed)">
     <use style="fill:#8172b3;stroke:#8172b3;" x="321.949474" xlink:href="#m47951d6685" y="318.785476"/>
    </g>
   </g>
   <g id="Path3DCollection_14">
    <g clip-path="url(#p2bd83f4fed)">
     <use style="fill:#4c72b0;stroke:#4c72b0;" x="323.455092" xlink:href="#m006fd812e0" y="285.044294"/>
    </g>
   </g>
   <g id="Path3DCollection_15">
    <g clip-path="url(#p2bd83f4fed)">
     <use style="fill:#c44e52;stroke:#c44e52;" x="309.100984" xlink:href="#mf78bc58f6e" y="342.415674"/>
    </g>
   </g>
   <g id="Path3DCollection_16">
    <g clip-path="url(#p2bd83f4fed)">
     <use style="fill:#8172b3;stroke:#8172b3;" x="299.699041" xlink:href="#m47951d6685" y="433.768597"/>
    </g>
   </g>
   <g id="Path3DCollection_17">
    <g clip-path="url(#p2bd83f4fed)">
     <use style="fill:#4c72b0;stroke:#4c72b0;" x="244.694578" xlink:href="#m006fd812e0" y="327.432888"/>
    </g>
   </g>
   <g id="Path3DCollection_18">
    <g clip-path="url(#p2bd83f4fed)">
     <use style="fill:#8172b3;stroke:#8172b3;" x="330.739665" xlink:href="#m47951d6685" y="284.795623"/>
    </g>
   </g>
   <g id="Path3DCollection_19">
    <g clip-path="url(#p2bd83f4fed)">
     <use style="fill:#64b5cd;stroke:#64b5cd;" x="368.946566" xlink:href="#m5088772251" y="341.91018"/>
    </g>
   </g>
   <g id="Path3DCollection_20">
    <g clip-path="url(#p2bd83f4fed)">
     <use style="fill:#4c72b0;stroke:#4c72b0;" x="332.979258" xlink:href="#m006fd812e0" y="484.261668"/>
    </g>
   </g>
   <g id="Path3DCollection_21">
    <g clip-path="url(#p2bd83f4fed)">
     <use style="fill:#4c72b0;stroke:#4c72b0;" x="392.55902" xlink:href="#m006fd812e0" y="301.927538"/>
    </g>
   </g>
   <g id="Path3DCollection_22">
    <g clip-path="url(#p2bd83f4fed)">
     <use style="fill:#64b5cd;stroke:#64b5cd;" x="352.189415" xlink:href="#m5088772251" y="422.203544"/>
    </g>
   </g>
   <g id="Path3DCollection_23">
    <g clip-path="url(#p2bd83f4fed)">
     <use style="fill:#c44e52;stroke:#c44e52;" x="306.77209" xlink:href="#mf78bc58f6e" y="370.73618"/>
    </g>
   </g>
   <g id="Path3DCollection_24">
    <g clip-path="url(#p2bd83f4fed)">
     <use style="fill:#8172b3;stroke:#8172b3;" x="279.048299" xlink:href="#m47951d6685" y="406.735029"/>
    </g>
   </g>
   <g id="Path3DCollection_25">
    <g clip-path="url(#p2bd83f4fed)">
     <use style="fill:#4c72b0;stroke:#4c72b0;" x="358.848518" xlink:href="#m006fd812e0" y="313.158044"/>
    </g>
   </g>
   <g id="Path3DCollection_26">
    <g clip-path="url(#p2bd83f4fed)">
     <use style="fill:#8172b3;stroke:#8172b3;" x="345.630804" xlink:href="#m47951d6685" y="431.837628"/>
    </g>
   </g>
   <g id="Path3DCollection_27">
    <g clip-path="url(#p2bd83f4fed)">
     <use style="fill:#4c72b0;stroke:#4c72b0;" x="328.566375" xlink:href="#m006fd812e0" y="494.620218"/>
    </g>
   </g>
   <g id="Path3DCollection_28">
    <g clip-path="url(#p2bd83f4fed)">
     <use style="fill:#55a868;stroke:#55a868;" x="351.190494" xlink:href="#m116061eb30" y="410.355666"/>
    </g>
   </g>
   <g id="Path3DCollection_29">
    <g clip-path="url(#p2bd83f4fed)">
     <use style="fill:#8172b3;stroke:#8172b3;" x="478.836135" xlink:href="#m47951d6685" y="358.485373"/>
    </g>
   </g>
   <g id="Path3DCollection_30">
    <g clip-path="url(#p2bd83f4fed)">
     <use style="fill:#55a868;stroke:#55a868;" x="383.335825" xlink:href="#m116061eb30" y="349.156971"/>
    </g>
   </g>
   <g id="Path3DCollection_31">
    <g clip-path="url(#p2bd83f4fed)">
     <use style="fill:#64b5cd;stroke:#64b5cd;" x="405.952539" xlink:href="#m5088772251" y="403.809608"/>
    </g>
   </g>
   <g id="Path3DCollection_32">
    <g clip-path="url(#p2bd83f4fed)">
     <use style="fill:#64b5cd;stroke:#64b5cd;" x="275.504909" xlink:href="#m5088772251" y="475.633997"/>
    </g>
   </g>
   <g id="Path3DCollection_33">
    <g clip-path="url(#p2bd83f4fed)">
     <use style="fill:#64b5cd;stroke:#64b5cd;" x="359.437141" xlink:href="#m5088772251" y="218.101885"/>
    </g>
   </g>
   <g id="Path3DCollection_34">
    <g clip-path="url(#p2bd83f4fed)">
     <use style="fill:#8172b3;stroke:#8172b3;" x="327.505256" xlink:href="#m47951d6685" y="295.808756"/>
    </g>
   </g>
   <g id="Path3DCollection_35">
    <g clip-path="url(#p2bd83f4fed)">
     <use style="fill:#55a868;stroke:#55a868;" x="345.652844" xlink:href="#m116061eb30" y="221.641436"/>
    </g>
   </g>
   <g id="Path3DCollection_36">
    <g clip-path="url(#p2bd83f4fed)">
     <use style="fill:#64b5cd;stroke:#64b5cd;" x="439.410409" xlink:href="#m5088772251" y="428.156096"/>
    </g>
   </g>
   <g id="Path3DCollection_37">
    <g clip-path="url(#p2bd83f4fed)">
     <use style="fill:#55a868;stroke:#55a868;" x="351.540686" xlink:href="#m116061eb30" y="325.362603"/>
    </g>
   </g>
   <g id="Path3DCollection_38">
    <g clip-path="url(#p2bd83f4fed)">
     <use style="fill:#55a868;stroke:#55a868;" x="261.925024" xlink:href="#m116061eb30" y="330.027817"/>
    </g>
   </g>
   <g id="Path3DCollection_39">
    <g clip-path="url(#p2bd83f4fed)">
     <use style="fill:#64b5cd;stroke:#64b5cd;" x="352.541631" xlink:href="#m5088772251" y="350.380331"/>
    </g>
   </g>
   <g id="Path3DCollection_40">
    <g clip-path="url(#p2bd83f4fed)">
     <use style="fill:#55a868;stroke:#55a868;" x="337.745912" xlink:href="#m116061eb30" y="239.164657"/>
    </g>
   </g>
   <g id="Path3DCollection_41">
    <g clip-path="url(#p2bd83f4fed)">
     <use style="fill:#c44e52;stroke:#c44e52;" x="362.667377" xlink:href="#mf78bc58f6e" y="346.160814"/>
    </g>
   </g>
   <g id="Path3DCollection_42">
    <g clip-path="url(#p2bd83f4fed)">
     <use style="fill:#8172b3;stroke:#8172b3;" x="431.986201" xlink:href="#m47951d6685" y="320.338989"/>
    </g>
   </g>
   <g id="Path3DCollection_43">
    <g clip-path="url(#p2bd83f4fed)">
     <use style="fill:#64b5cd;stroke:#64b5cd;" x="390.495667" xlink:href="#m5088772251" y="328.438144"/>
    </g>
   </g>
   <g id="Path3DCollection_44">
    <g clip-path="url(#p2bd83f4fed)">
     <use style="fill:#55a868;stroke:#55a868;" x="496.143959" xlink:href="#m116061eb30" y="415.910475"/>
    </g>
   </g>
   <g id="Path3DCollection_45">
    <g clip-path="url(#p2bd83f4fed)">
     <use style="fill:#55a868;stroke:#55a868;" x="269.456021" xlink:href="#m116061eb30" y="440.364818"/>
    </g>
   </g>
   <g id="Path3DCollection_46">
    <g clip-path="url(#p2bd83f4fed)">
     <use style="fill:#4c72b0;stroke:#4c72b0;" x="408.32822" xlink:href="#m006fd812e0" y="350.928391"/>
    </g>
   </g>
   <g id="Path3DCollection_47">
    <g clip-path="url(#p2bd83f4fed)">
     <use style="fill:#4c72b0;stroke:#4c72b0;" x="338.41541" xlink:href="#m006fd812e0" y="295.683642"/>
    </g>
   </g>
   <g id="Path3DCollection_48">
    <g clip-path="url(#p2bd83f4fed)">
     <use style="fill:#c44e52;stroke:#c44e52;" x="359.156395" xlink:href="#mf78bc58f6e" y="297.125023"/>
    </g>
   </g>
   <g id="Path3DCollection_49">
    <g clip-path="url(#p2bd83f4fed)">
     <use style="fill:#4c72b0;stroke:#4c72b0;" x="318.755469" xlink:href="#m006fd812e0" y="265.598872"/>
    </g>
   </g>
   <g id="Path3DCollection_50">
    <g clip-path="url(#p2bd83f4fed)">
     <use style="fill:#c44e52;stroke:#c44e52;" x="369.786238" xlink:href="#mf78bc58f6e" y="351.422599"/>
    </g>
   </g>
  </g>
 </g>
 <defs>
  <clipPath id="p2bd83f4fed">
   <rect height="543.6" width="558" x="90" y="86.4"/>
  </clipPath>
 </defs>
</svg>
