<?xml version="1.0" encoding="utf-8" standalone="no"?>
<!DOCTYPE svg PUBLIC "-//W3C//DTD SVG 1.1//EN"
  "http://www.w3.org/Graphics/SVG/1.1/DTD/svg11.dtd">
<!-- Created with matplotlib (https://matplotlib.org/) -->
<svg height="720pt" version="1.1" viewBox="0 0 720 720" width="720pt" xmlns="http://www.w3.org/2000/svg" xmlns:xlink="http://www.w3.org/1999/xlink">
 <defs>
  <style type="text/css">
*{stroke-linecap:butt;stroke-linejoin:round;}
  </style>
 </defs>
 <g id="figure_1">
  <g id="patch_1">
   <path d="M 0 720 
L 720 720 
L 720 0 
L 0 0 
z
" style="fill:#ffffff;"/>
  </g>
  <g id="axes_1">
   <g id="patch_2">
    <path d="M 90 630 
L 648 630 
L 648 86.4 
L 90 86.4 
z
" style="fill:#eaeaf2;"/>
   </g>
   <g id="matplotlib.axis_1">
    <g id="xtick_1">
     <g id="line2d_1">
      <path clip-path="url(#pd380bd8b5d)" d="M 115.929796 630 
L 115.929796 86.4 
" style="fill:none;stroke:#ffffff;stroke-linecap:round;"/>
     </g>
     <g id="text_1">
      <!-- −0.3 -->
      <defs>
       <path d="M 52.828125 31.203125 
L 5.5625 31.203125 
L 5.5625 39.40625 
L 52.828125 39.40625 
z
" id="ArialMT-8722"/>
       <path d="M 4.15625 35.296875 
Q 4.15625 48 6.765625 55.734375 
Q 9.375 63.484375 14.515625 67.671875 
Q 19.671875 71.875 27.484375 71.875 
Q 33.25 71.875 37.59375 69.546875 
Q 41.9375 67.234375 44.765625 62.859375 
Q 47.609375 58.5 49.21875 52.21875 
Q 50.828125 45.953125 50.828125 35.296875 
Q 50.828125 22.703125 48.234375 14.96875 
Q 45.65625 7.234375 40.5 3 
Q 35.359375 -1.21875 27.484375 -1.21875 
Q 17.140625 -1.21875 11.234375 6.203125 
Q 4.15625 15.140625 4.15625 35.296875 
z
M 13.1875 35.296875 
Q 13.1875 17.671875 17.3125 11.828125 
Q 21.4375 6 27.484375 6 
Q 33.546875 6 37.671875 11.859375 
Q 41.796875 17.71875 41.796875 35.296875 
Q 41.796875 52.984375 37.671875 58.78125 
Q 33.546875 64.59375 27.390625 64.59375 
Q 21.34375 64.59375 17.71875 59.46875 
Q 13.1875 52.9375 13.1875 35.296875 
z
" id="ArialMT-48"/>
       <path d="M 9.078125 0 
L 9.078125 10.015625 
L 19.09375 10.015625 
L 19.09375 0 
z
" id="ArialMT-46"/>
       <path d="M 4.203125 18.890625 
L 12.984375 20.0625 
Q 14.5 12.59375 18.140625 9.296875 
Q 21.78125 6 27 6 
Q 33.203125 6 37.46875 10.296875 
Q 41.75 14.59375 41.75 20.953125 
Q 41.75 27 37.796875 30.921875 
Q 33.84375 34.859375 27.734375 34.859375 
Q 25.25 34.859375 21.53125 33.890625 
L 22.515625 41.609375 
Q 23.390625 41.5 23.921875 41.5 
Q 29.546875 41.5 34.03125 44.421875 
Q 38.53125 47.359375 38.53125 53.46875 
Q 38.53125 58.296875 35.25 61.46875 
Q 31.984375 64.65625 26.8125 64.65625 
Q 21.6875 64.65625 18.265625 61.421875 
Q 14.84375 58.203125 13.875 51.765625 
L 5.078125 53.328125 
Q 6.6875 62.15625 12.390625 67.015625 
Q 18.109375 71.875 26.609375 71.875 
Q 32.46875 71.875 37.390625 69.359375 
Q 42.328125 66.84375 44.9375 62.5 
Q 47.5625 58.15625 47.5625 53.265625 
Q 47.5625 48.640625 45.0625 44.828125 
Q 42.578125 41.015625 37.703125 38.765625 
Q 44.046875 37.3125 47.5625 32.6875 
Q 51.078125 28.078125 51.078125 21.140625 
Q 51.078125 11.765625 44.234375 5.25 
Q 37.40625 -1.265625 26.953125 -1.265625 
Q 17.53125 -1.265625 11.296875 4.34375 
Q 5.078125 9.96875 4.203125 18.890625 
z
" id="ArialMT-51"/>
      </defs>
      <g style="fill:#262626;" transform="translate(105.072453 647.373594)scale(0.11 -0.11)">
       <use xlink:href="#ArialMT-8722"/>
       <use x="58.398438" xlink:href="#ArialMT-48"/>
       <use x="114.013672" xlink:href="#ArialMT-46"/>
       <use x="141.796875" xlink:href="#ArialMT-51"/>
      </g>
     </g>
    </g>
    <g id="xtick_2">
     <g id="line2d_2">
      <path clip-path="url(#pd380bd8b5d)" d="M 188.922306 630 
L 188.922306 86.4 
" style="fill:none;stroke:#ffffff;stroke-linecap:round;"/>
     </g>
     <g id="text_2">
      <!-- −0.2 -->
      <defs>
       <path d="M 50.34375 8.453125 
L 50.34375 0 
L 3.03125 0 
Q 2.9375 3.171875 4.046875 6.109375 
Q 5.859375 10.9375 9.828125 15.625 
Q 13.8125 20.3125 21.34375 26.46875 
Q 33.015625 36.03125 37.109375 41.625 
Q 41.21875 47.21875 41.21875 52.203125 
Q 41.21875 57.421875 37.46875 61 
Q 33.734375 64.59375 27.734375 64.59375 
Q 21.390625 64.59375 17.578125 60.78125 
Q 13.765625 56.984375 13.71875 50.25 
L 4.6875 51.171875 
Q 5.609375 61.28125 11.65625 66.578125 
Q 17.71875 71.875 27.9375 71.875 
Q 38.234375 71.875 44.234375 66.15625 
Q 50.25 60.453125 50.25 52 
Q 50.25 47.703125 48.484375 43.546875 
Q 46.734375 39.40625 42.65625 34.8125 
Q 38.578125 30.21875 29.109375 22.21875 
Q 21.1875 15.578125 18.9375 13.203125 
Q 16.703125 10.84375 15.234375 8.453125 
z
" id="ArialMT-50"/>
      </defs>
      <g style="fill:#262626;" transform="translate(178.064962 647.373594)scale(0.11 -0.11)">
       <use xlink:href="#ArialMT-8722"/>
       <use x="58.398438" xlink:href="#ArialMT-48"/>
       <use x="114.013672" xlink:href="#ArialMT-46"/>
       <use x="141.796875" xlink:href="#ArialMT-50"/>
      </g>
     </g>
    </g>
    <g id="xtick_3">
     <g id="line2d_3">
      <path clip-path="url(#pd380bd8b5d)" d="M 261.914815 630 
L 261.914815 86.4 
" style="fill:none;stroke:#ffffff;stroke-linecap:round;"/>
     </g>
     <g id="text_3">
      <!-- −0.1 -->
      <defs>
       <path d="M 37.25 0 
L 28.46875 0 
L 28.46875 56 
Q 25.296875 52.984375 20.140625 49.953125 
Q 14.984375 46.921875 10.890625 45.40625 
L 10.890625 53.90625 
Q 18.265625 57.375 23.78125 62.296875 
Q 29.296875 67.234375 31.59375 71.875 
L 37.25 71.875 
z
" id="ArialMT-49"/>
      </defs>
      <g style="fill:#262626;" transform="translate(251.057472 647.373594)scale(0.11 -0.11)">
       <use xlink:href="#ArialMT-8722"/>
       <use x="58.398438" xlink:href="#ArialMT-48"/>
       <use x="114.013672" xlink:href="#ArialMT-46"/>
       <use x="141.796875" xlink:href="#ArialMT-49"/>
      </g>
     </g>
    </g>
    <g id="xtick_4">
     <g id="line2d_4">
      <path clip-path="url(#pd380bd8b5d)" d="M 334.907325 630 
L 334.907325 86.4 
" style="fill:none;stroke:#ffffff;stroke-linecap:round;"/>
     </g>
     <g id="text_4">
      <!-- 0.0 -->
      <g style="fill:#262626;" transform="translate(327.262325 647.373594)scale(0.11 -0.11)">
       <use xlink:href="#ArialMT-48"/>
       <use x="55.615234" xlink:href="#ArialMT-46"/>
       <use x="83.398438" xlink:href="#ArialMT-48"/>
      </g>
     </g>
    </g>
    <g id="xtick_5">
     <g id="line2d_5">
      <path clip-path="url(#pd380bd8b5d)" d="M 407.899835 630 
L 407.899835 86.4 
" style="fill:none;stroke:#ffffff;stroke-linecap:round;"/>
     </g>
     <g id="text_5">
      <!-- 0.1 -->
      <g style="fill:#262626;" transform="translate(400.254835 647.373594)scale(0.11 -0.11)">
       <use xlink:href="#ArialMT-48"/>
       <use x="55.615234" xlink:href="#ArialMT-46"/>
       <use x="83.398438" xlink:href="#ArialMT-49"/>
      </g>
     </g>
    </g>
    <g id="xtick_6">
     <g id="line2d_6">
      <path clip-path="url(#pd380bd8b5d)" d="M 480.892344 630 
L 480.892344 86.4 
" style="fill:none;stroke:#ffffff;stroke-linecap:round;"/>
     </g>
     <g id="text_6">
      <!-- 0.2 -->
      <g style="fill:#262626;" transform="translate(473.247344 647.373594)scale(0.11 -0.11)">
       <use xlink:href="#ArialMT-48"/>
       <use x="55.615234" xlink:href="#ArialMT-46"/>
       <use x="83.398438" xlink:href="#ArialMT-50"/>
      </g>
     </g>
    </g>
    <g id="xtick_7">
     <g id="line2d_7">
      <path clip-path="url(#pd380bd8b5d)" d="M 553.884854 630 
L 553.884854 86.4 
" style="fill:none;stroke:#ffffff;stroke-linecap:round;"/>
     </g>
     <g id="text_7">
      <!-- 0.3 -->
      <g style="fill:#262626;" transform="translate(546.239854 647.373594)scale(0.11 -0.11)">
       <use xlink:href="#ArialMT-48"/>
       <use x="55.615234" xlink:href="#ArialMT-46"/>
       <use x="83.398438" xlink:href="#ArialMT-51"/>
      </g>
     </g>
    </g>
    <g id="xtick_8">
     <g id="line2d_8">
      <path clip-path="url(#pd380bd8b5d)" d="M 626.877363 630 
L 626.877363 86.4 
" style="fill:none;stroke:#ffffff;stroke-linecap:round;"/>
     </g>
     <g id="text_8">
      <!-- 0.4 -->
      <defs>
       <path d="M 32.328125 0 
L 32.328125 17.140625 
L 1.265625 17.140625 
L 1.265625 25.203125 
L 33.9375 71.578125 
L 41.109375 71.578125 
L 41.109375 25.203125 
L 50.78125 25.203125 
L 50.78125 17.140625 
L 41.109375 17.140625 
L 41.109375 0 
z
M 32.328125 25.203125 
L 32.328125 57.46875 
L 9.90625 25.203125 
z
" id="ArialMT-52"/>
      </defs>
      <g style="fill:#262626;" transform="translate(619.232363 647.373594)scale(0.11 -0.11)">
       <use xlink:href="#ArialMT-48"/>
       <use x="55.615234" xlink:href="#ArialMT-46"/>
       <use x="83.398438" xlink:href="#ArialMT-52"/>
      </g>
     </g>
    </g>
   </g>
   <g id="matplotlib.axis_2">
    <g id="ytick_1">
     <g id="line2d_9">
      <path clip-path="url(#pd380bd8b5d)" d="M 90 541.898878 
L 648 541.898878 
" style="fill:none;stroke:#ffffff;stroke-linecap:round;"/>
     </g>
     <g id="text_9">
      <!-- −0.2 -->
      <g style="fill:#262626;" transform="translate(58.785313 545.835675)scale(0.11 -0.11)">
       <use xlink:href="#ArialMT-8722"/>
       <use x="58.398438" xlink:href="#ArialMT-48"/>
       <use x="114.013672" xlink:href="#ArialMT-46"/>
       <use x="141.796875" xlink:href="#ArialMT-50"/>
      </g>
     </g>
    </g>
    <g id="ytick_2">
     <g id="line2d_10">
      <path clip-path="url(#pd380bd8b5d)" d="M 90 452.276577 
L 648 452.276577 
" style="fill:none;stroke:#ffffff;stroke-linecap:round;"/>
     </g>
     <g id="text_10">
      <!-- −0.1 -->
      <g style="fill:#262626;" transform="translate(58.785313 456.213374)scale(0.11 -0.11)">
       <use xlink:href="#ArialMT-8722"/>
       <use x="58.398438" xlink:href="#ArialMT-48"/>
       <use x="114.013672" xlink:href="#ArialMT-46"/>
       <use x="141.796875" xlink:href="#ArialMT-49"/>
      </g>
     </g>
    </g>
    <g id="ytick_3">
     <g id="line2d_11">
      <path clip-path="url(#pd380bd8b5d)" d="M 90 362.654276 
L 648 362.654276 
" style="fill:none;stroke:#ffffff;stroke-linecap:round;"/>
     </g>
     <g id="text_11">
      <!-- 0.0 -->
      <g style="fill:#262626;" transform="translate(65.21 366.591073)scale(0.11 -0.11)">
       <use xlink:href="#ArialMT-48"/>
       <use x="55.615234" xlink:href="#ArialMT-46"/>
       <use x="83.398438" xlink:href="#ArialMT-48"/>
      </g>
     </g>
    </g>
    <g id="ytick_4">
     <g id="line2d_12">
      <path clip-path="url(#pd380bd8b5d)" d="M 90 273.031975 
L 648 273.031975 
" style="fill:none;stroke:#ffffff;stroke-linecap:round;"/>
     </g>
     <g id="text_12">
      <!-- 0.1 -->
      <g style="fill:#262626;" transform="translate(65.21 276.968772)scale(0.11 -0.11)">
       <use xlink:href="#ArialMT-48"/>
       <use x="55.615234" xlink:href="#ArialMT-46"/>
       <use x="83.398438" xlink:href="#ArialMT-49"/>
      </g>
     </g>
    </g>
    <g id="ytick_5">
     <g id="line2d_13">
      <path clip-path="url(#pd380bd8b5d)" d="M 90 183.409674 
L 648 183.409674 
" style="fill:none;stroke:#ffffff;stroke-linecap:round;"/>
     </g>
     <g id="text_13">
      <!-- 0.2 -->
      <g style="fill:#262626;" transform="translate(65.21 187.346471)scale(0.11 -0.11)">
       <use xlink:href="#ArialMT-48"/>
       <use x="55.615234" xlink:href="#ArialMT-46"/>
       <use x="83.398438" xlink:href="#ArialMT-50"/>
      </g>
     </g>
    </g>
    <g id="ytick_6">
     <g id="line2d_14">
      <path clip-path="url(#pd380bd8b5d)" d="M 90 93.787373 
L 648 93.787373 
" style="fill:none;stroke:#ffffff;stroke-linecap:round;"/>
     </g>
     <g id="text_14">
      <!-- 0.3 -->
      <g style="fill:#262626;" transform="translate(65.21 97.72417)scale(0.11 -0.11)">
       <use xlink:href="#ArialMT-48"/>
       <use x="55.615234" xlink:href="#ArialMT-46"/>
       <use x="83.398438" xlink:href="#ArialMT-51"/>
      </g>
     </g>
    </g>
   </g>
   <g id="PathCollection_1">
    <defs>
     <path d="M 0 3 
C 0.795609 3 1.55874 2.683901 2.12132 2.12132 
C 2.683901 1.55874 3 0.795609 3 0 
C 3 -0.795609 2.683901 -1.55874 2.12132 -2.12132 
C 1.55874 -2.683901 0.795609 -3 0 -3 
C -0.795609 -3 -1.55874 -2.683901 -2.12132 -2.12132 
C -2.683901 -1.55874 -3 -0.795609 -3 0 
C -3 0.795609 -2.683901 1.55874 -2.12132 2.12132 
C -1.55874 2.683901 -0.795609 3 0 3 
z
" id="m5a87160077" style="stroke:#4c72b0;"/>
    </defs>
    <g clip-path="url(#pd380bd8b5d)">
     <use style="fill:#4c72b0;stroke:#4c72b0;" x="115.363636" xlink:href="#m5a87160077" y="411.100924"/>
    </g>
   </g>
   <g id="PathCollection_2">
    <defs>
     <path d="M 0 3 
C 0.795609 3 1.55874 2.683901 2.12132 2.12132 
C 2.683901 1.55874 3 0.795609 3 0 
C 3 -0.795609 2.683901 -1.55874 2.12132 -2.12132 
C 1.55874 -2.683901 0.795609 -3 0 -3 
C -0.795609 -3 -1.55874 -2.683901 -2.12132 -2.12132 
C -2.683901 -1.55874 -3 -0.795609 -3 0 
C -3 0.795609 -2.683901 1.55874 -2.12132 2.12132 
C -1.55874 2.683901 -0.795609 3 0 3 
z
" id="m49924f64ec" style="stroke:#55a868;"/>
    </defs>
    <g clip-path="url(#pd380bd8b5d)">
     <use style="fill:#55a868;stroke:#55a868;" x="271.012453" xlink:href="#m49924f64ec" y="303.629816"/>
    </g>
   </g>
   <g id="PathCollection_3">
    <g clip-path="url(#pd380bd8b5d)">
     <use style="fill:#55a868;stroke:#55a868;" x="510.815607" xlink:href="#m49924f64ec" y="118.167501"/>
    </g>
   </g>
   <g id="PathCollection_4">
    <defs>
     <path d="M 0 3 
C 0.795609 3 1.55874 2.683901 2.12132 2.12132 
C 2.683901 1.55874 3 0.795609 3 0 
C 3 -0.795609 2.683901 -1.55874 2.12132 -2.12132 
C 1.55874 -2.683901 0.795609 -3 0 -3 
C -0.795609 -3 -1.55874 -2.683901 -2.12132 -2.12132 
C -2.683901 -1.55874 -3 -0.795609 -3 0 
C -3 0.795609 -2.683901 1.55874 -2.12132 2.12132 
C -1.55874 2.683901 -0.795609 3 0 3 
z
" id="m4e77bace16" style="stroke:#64b5cd;"/>
    </defs>
    <g clip-path="url(#pd380bd8b5d)">
     <use style="fill:#64b5cd;stroke:#64b5cd;" x="521.697281" xlink:href="#m4e77bace16" y="390.757378"/>
    </g>
   </g>
   <g id="PathCollection_5">
    <defs>
     <path d="M 0 3 
C 0.795609 3 1.55874 2.683901 2.12132 2.12132 
C 2.683901 1.55874 3 0.795609 3 0 
C 3 -0.795609 2.683901 -1.55874 2.12132 -2.12132 
C 1.55874 -2.683901 0.795609 -3 0 -3 
C -0.795609 -3 -1.55874 -2.683901 -2.12132 -2.12132 
C -2.683901 -1.55874 -3 -0.795609 -3 0 
C -3 0.795609 -2.683901 1.55874 -2.12132 2.12132 
C -1.55874 2.683901 -0.795609 3 0 3 
z
" id="mc6ecdc1f0b" style="stroke:#c44e52;"/>
    </defs>
    <g clip-path="url(#pd380bd8b5d)">
     <use style="fill:#c44e52;stroke:#c44e52;" x="369.772018" xlink:href="#mc6ecdc1f0b" y="319.173775"/>
    </g>
   </g>
   <g id="PathCollection_6">
    <g clip-path="url(#pd380bd8b5d)">
     <use style="fill:#55a868;stroke:#55a868;" x="291.300314" xlink:href="#m49924f64ec" y="605.290909"/>
    </g>
   </g>
   <g id="PathCollection_7">
    <g clip-path="url(#pd380bd8b5d)">
     <use style="fill:#55a868;stroke:#55a868;" x="622.636364" xlink:href="#m49924f64ec" y="361.179007"/>
    </g>
   </g>
   <g id="PathCollection_8">
    <g clip-path="url(#pd380bd8b5d)">
     <use style="fill:#4c72b0;stroke:#4c72b0;" x="307.589449" xlink:href="#m5a87160077" y="318.742762"/>
    </g>
   </g>
   <g id="PathCollection_9">
    <g clip-path="url(#pd380bd8b5d)">
     <use style="fill:#64b5cd;stroke:#64b5cd;" x="346.622097" xlink:href="#m4e77bace16" y="408.839455"/>
    </g>
   </g>
   <g id="PathCollection_10">
    <defs>
     <path d="M 0 3 
C 0.795609 3 1.55874 2.683901 2.12132 2.12132 
C 2.683901 1.55874 3 0.795609 3 0 
C 3 -0.795609 2.683901 -1.55874 2.12132 -2.12132 
C 1.55874 -2.683901 0.795609 -3 0 -3 
C -0.795609 -3 -1.55874 -2.683901 -2.12132 -2.12132 
C -2.683901 -1.55874 -3 -0.795609 -3 0 
C -3 0.795609 -2.683901 1.55874 -2.12132 2.12132 
C -1.55874 2.683901 -0.795609 3 0 3 
z
" id="mf5ea9403a2" style="stroke:#8172b3;"/>
    </defs>
    <g clip-path="url(#pd380bd8b5d)">
     <use style="fill:#8172b3;stroke:#8172b3;" x="218.039334" xlink:href="#mf5ea9403a2" y="204.950585"/>
    </g>
   </g>
   <g id="PathCollection_11">
    <g clip-path="url(#pd380bd8b5d)">
     <use style="fill:#4c72b0;stroke:#4c72b0;" x="360.751769" xlink:href="#m5a87160077" y="477.367031"/>
    </g>
   </g>
   <g id="PathCollection_12">
    <g clip-path="url(#pd380bd8b5d)">
     <use style="fill:#55a868;stroke:#55a868;" x="201.153566" xlink:href="#m49924f64ec" y="263.970996"/>
    </g>
   </g>
   <g id="PathCollection_13">
    <g clip-path="url(#pd380bd8b5d)">
     <use style="fill:#64b5cd;stroke:#64b5cd;" x="328.835607" xlink:href="#m4e77bace16" y="318.068368"/>
    </g>
   </g>
   <g id="PathCollection_14">
    <g clip-path="url(#pd380bd8b5d)">
     <use style="fill:#8172b3;stroke:#8172b3;" x="225.261501" xlink:href="#mf5ea9403a2" y="315.643702"/>
    </g>
   </g>
   <g id="PathCollection_15">
    <g clip-path="url(#pd380bd8b5d)">
     <use style="fill:#55a868;stroke:#55a868;" x="279.913339" xlink:href="#m49924f64ec" y="346.273862"/>
    </g>
   </g>
   <g id="PathCollection_16">
    <g clip-path="url(#pd380bd8b5d)">
     <use style="fill:#8172b3;stroke:#8172b3;" x="236.023764" xlink:href="#mf5ea9403a2" y="300.76122"/>
    </g>
   </g>
   <g id="PathCollection_17">
    <g clip-path="url(#pd380bd8b5d)">
     <use style="fill:#64b5cd;stroke:#64b5cd;" x="285.257145" xlink:href="#m4e77bace16" y="278.381366"/>
    </g>
   </g>
   <g id="PathCollection_18">
    <g clip-path="url(#pd380bd8b5d)">
     <use style="fill:#64b5cd;stroke:#64b5cd;" x="352.597628" xlink:href="#m4e77bace16" y="416.243044"/>
    </g>
   </g>
   <g id="PathCollection_19">
    <g clip-path="url(#pd380bd8b5d)">
     <use style="fill:#c44e52;stroke:#c44e52;" x="252.651813" xlink:href="#mc6ecdc1f0b" y="327.057051"/>
    </g>
   </g>
   <g id="PathCollection_20">
    <g clip-path="url(#pd380bd8b5d)">
     <use style="fill:#c44e52;stroke:#c44e52;" x="352.408485" xlink:href="#mc6ecdc1f0b" y="213.217658"/>
    </g>
   </g>
   <g id="PathCollection_21">
    <g clip-path="url(#pd380bd8b5d)">
     <use style="fill:#4c72b0;stroke:#4c72b0;" x="491.8903" xlink:href="#m5a87160077" y="454.464398"/>
    </g>
   </g>
   <g id="PathCollection_22">
    <g clip-path="url(#pd380bd8b5d)">
     <use style="fill:#4c72b0;stroke:#4c72b0;" x="353.556861" xlink:href="#m5a87160077" y="273.975431"/>
    </g>
   </g>
   <g id="PathCollection_23">
    <g clip-path="url(#pd380bd8b5d)">
     <use style="fill:#4c72b0;stroke:#4c72b0;" x="212.292248" xlink:href="#m5a87160077" y="288.179629"/>
    </g>
   </g>
   <g id="PathCollection_24">
    <g clip-path="url(#pd380bd8b5d)">
     <use style="fill:#55a868;stroke:#55a868;" x="379.39167" xlink:href="#m49924f64ec" y="351.24386"/>
    </g>
   </g>
   <g id="PathCollection_25">
    <g clip-path="url(#pd380bd8b5d)">
     <use style="fill:#64b5cd;stroke:#64b5cd;" x="426.487361" xlink:href="#m4e77bace16" y="305.858694"/>
    </g>
   </g>
   <g id="PathCollection_26">
    <g clip-path="url(#pd380bd8b5d)">
     <use style="fill:#8172b3;stroke:#8172b3;" x="250.947522" xlink:href="#mf5ea9403a2" y="439.780978"/>
    </g>
   </g>
   <g id="PathCollection_27">
    <g clip-path="url(#pd380bd8b5d)">
     <use style="fill:#c44e52;stroke:#c44e52;" x="219.917008" xlink:href="#mc6ecdc1f0b" y="353.291612"/>
    </g>
   </g>
   <g id="PathCollection_28">
    <g clip-path="url(#pd380bd8b5d)">
     <use style="fill:#c44e52;stroke:#c44e52;" x="361.149502" xlink:href="#mc6ecdc1f0b" y="111.109091"/>
    </g>
   </g>
   <g id="PathCollection_29">
    <g clip-path="url(#pd380bd8b5d)">
     <use style="fill:#4c72b0;stroke:#4c72b0;" x="346.610492" xlink:href="#m5a87160077" y="494.32744"/>
    </g>
   </g>
   <g id="PathCollection_30">
    <g clip-path="url(#pd380bd8b5d)">
     <use style="fill:#55a868;stroke:#55a868;" x="347.862814" xlink:href="#m49924f64ec" y="414.238776"/>
    </g>
   </g>
   <g id="PathCollection_31">
    <g clip-path="url(#pd380bd8b5d)">
     <use style="fill:#c44e52;stroke:#c44e52;" x="370.693228" xlink:href="#mc6ecdc1f0b" y="410.527371"/>
    </g>
   </g>
   <g id="PathCollection_32">
    <g clip-path="url(#pd380bd8b5d)">
     <use style="fill:#4c72b0;stroke:#4c72b0;" x="339.571967" xlink:href="#m5a87160077" y="467.050726"/>
    </g>
   </g>
   <g id="PathCollection_33">
    <g clip-path="url(#pd380bd8b5d)">
     <use style="fill:#8172b3;stroke:#8172b3;" x="343.985371" xlink:href="#mf5ea9403a2" y="428.045992"/>
    </g>
   </g>
   <g id="PathCollection_34">
    <g clip-path="url(#pd380bd8b5d)">
     <use style="fill:#c44e52;stroke:#c44e52;" x="487.398759" xlink:href="#mc6ecdc1f0b" y="581.032796"/>
    </g>
   </g>
   <g id="PathCollection_35">
    <g clip-path="url(#pd380bd8b5d)">
     <use style="fill:#8172b3;stroke:#8172b3;" x="222.486631" xlink:href="#mf5ea9403a2" y="464.717918"/>
    </g>
   </g>
   <g id="PathCollection_36">
    <g clip-path="url(#pd380bd8b5d)">
     <use style="fill:#c44e52;stroke:#c44e52;" x="248.94987" xlink:href="#mc6ecdc1f0b" y="408.882955"/>
    </g>
   </g>
   <g id="PathCollection_37">
    <g clip-path="url(#pd380bd8b5d)">
     <use style="fill:#64b5cd;stroke:#64b5cd;" x="442.157835" xlink:href="#m4e77bace16" y="375.667517"/>
    </g>
   </g>
   <g id="PathCollection_38">
    <g clip-path="url(#pd380bd8b5d)">
     <use style="fill:#55a868;stroke:#55a868;" x="337.282016" xlink:href="#m49924f64ec" y="394.046841"/>
    </g>
   </g>
   <g id="PathCollection_39">
    <g clip-path="url(#pd380bd8b5d)">
     <use style="fill:#64b5cd;stroke:#64b5cd;" x="344.960723" xlink:href="#m4e77bace16" y="249.539409"/>
    </g>
   </g>
   <g id="PathCollection_40">
    <g clip-path="url(#pd380bd8b5d)">
     <use style="fill:#55a868;stroke:#55a868;" x="197.706991" xlink:href="#m49924f64ec" y="478.783392"/>
    </g>
   </g>
   <g id="PathCollection_41">
    <g clip-path="url(#pd380bd8b5d)">
     <use style="fill:#4c72b0;stroke:#4c72b0;" x="345.068464" xlink:href="#m5a87160077" y="517.190354"/>
    </g>
   </g>
   <g id="PathCollection_42">
    <g clip-path="url(#pd380bd8b5d)">
     <use style="fill:#c44e52;stroke:#c44e52;" x="412.635489" xlink:href="#mc6ecdc1f0b" y="492.028792"/>
    </g>
   </g>
   <g id="PathCollection_43">
    <g clip-path="url(#pd380bd8b5d)">
     <use style="fill:#8172b3;stroke:#8172b3;" x="274.853221" xlink:href="#mf5ea9403a2" y="375.350111"/>
    </g>
   </g>
   <g id="PathCollection_44">
    <g clip-path="url(#pd380bd8b5d)">
     <use style="fill:#8172b3;stroke:#8172b3;" x="319.29682" xlink:href="#mf5ea9403a2" y="281.205328"/>
    </g>
   </g>
   <g id="PathCollection_45">
    <g clip-path="url(#pd380bd8b5d)">
     <use style="fill:#4c72b0;stroke:#4c72b0;" x="312.995258" xlink:href="#m5a87160077" y="259.166973"/>
    </g>
   </g>
   <g id="PathCollection_46">
    <g clip-path="url(#pd380bd8b5d)">
     <use style="fill:#64b5cd;stroke:#64b5cd;" x="410.301417" xlink:href="#m4e77bace16" y="378.207496"/>
    </g>
   </g>
   <g id="PathCollection_47">
    <g clip-path="url(#pd380bd8b5d)">
     <use style="fill:#64b5cd;stroke:#64b5cd;" x="267.394987" xlink:href="#m4e77bace16" y="550.792229"/>
    </g>
   </g>
   <g id="PathCollection_48">
    <g clip-path="url(#pd380bd8b5d)">
     <use style="fill:#c44e52;stroke:#c44e52;" x="227.550596" xlink:href="#mc6ecdc1f0b" y="243.536635"/>
    </g>
   </g>
   <g id="PathCollection_49">
    <g clip-path="url(#pd380bd8b5d)">
     <use style="fill:#8172b3;stroke:#8172b3;" x="469.399258" xlink:href="#mf5ea9403a2" y="329.977653"/>
    </g>
   </g>
   <g id="PathCollection_50">
    <g clip-path="url(#pd380bd8b5d)">
     <use style="fill:#8172b3;stroke:#8172b3;" x="530.868404" xlink:href="#mf5ea9403a2" y="261.676991"/>
    </g>
   </g>
   <g id="patch_3">
    <path d="M 90 630 
L 90 86.4 
" style="fill:none;stroke:#ffffff;stroke-linecap:square;stroke-linejoin:miter;stroke-width:1.25;"/>
   </g>
   <g id="patch_4">
    <path d="M 648 630 
L 648 86.4 
" style="fill:none;stroke:#ffffff;stroke-linecap:square;stroke-linejoin:miter;stroke-width:1.25;"/>
   </g>
   <g id="patch_5">
    <path d="M 90 630 
L 648 630 
" style="fill:none;stroke:#ffffff;stroke-linecap:square;stroke-linejoin:miter;stroke-width:1.25;"/>
   </g>
   <g id="patch_6">
    <path d="M 90 86.4 
L 648 86.4 
" style="fill:none;stroke:#ffffff;stroke-linecap:square;stroke-linejoin:miter;stroke-width:1.25;"/>
   </g>
   <g id="legend_1">
    <g id="patch_7">
     <path d="M 575.142188 189.731406 
L 640.3 189.731406 
Q 642.5 189.731406 642.5 187.531406 
L 642.5 94.1 
Q 642.5 91.9 640.3 91.9 
L 575.142188 91.9 
Q 572.942188 91.9 572.942188 94.1 
L 572.942188 187.531406 
Q 572.942188 189.731406 575.142188 189.731406 
z
" style="fill:#eaeaf2;opacity:0.8;stroke:#cccccc;stroke-linejoin:miter;"/>
    </g>
    <g id="text_15">
     <!-- Classes -->
     <defs>
      <path d="M 58.796875 25.09375 
L 68.265625 22.703125 
Q 65.28125 11.03125 57.546875 4.90625 
Q 49.8125 -1.21875 38.625 -1.21875 
Q 27.046875 -1.21875 19.796875 3.484375 
Q 12.546875 8.203125 8.765625 17.140625 
Q 4.984375 26.078125 4.984375 36.328125 
Q 4.984375 47.515625 9.25 55.828125 
Q 13.53125 64.15625 21.40625 68.46875 
Q 29.296875 72.796875 38.765625 72.796875 
Q 49.515625 72.796875 56.828125 67.328125 
Q 64.15625 61.859375 67.046875 51.953125 
L 57.71875 49.75 
Q 55.21875 57.5625 50.484375 61.125 
Q 45.75 64.703125 38.578125 64.703125 
Q 30.328125 64.703125 24.78125 60.734375 
Q 19.234375 56.78125 16.984375 50.109375 
Q 14.75 43.453125 14.75 36.375 
Q 14.75 27.25 17.40625 20.4375 
Q 20.0625 13.625 25.671875 10.25 
Q 31.296875 6.890625 37.84375 6.890625 
Q 45.796875 6.890625 51.3125 11.46875 
Q 56.84375 16.0625 58.796875 25.09375 
z
" id="ArialMT-67"/>
      <path d="M 6.390625 0 
L 6.390625 71.578125 
L 15.1875 71.578125 
L 15.1875 0 
z
" id="ArialMT-108"/>
      <path d="M 40.4375 6.390625 
Q 35.546875 2.25 31.03125 0.53125 
Q 26.515625 -1.171875 21.34375 -1.171875 
Q 12.796875 -1.171875 8.203125 3 
Q 3.609375 7.171875 3.609375 13.671875 
Q 3.609375 17.484375 5.34375 20.625 
Q 7.078125 23.78125 9.890625 25.6875 
Q 12.703125 27.59375 16.21875 28.5625 
Q 18.796875 29.25 24.03125 29.890625 
Q 34.671875 31.15625 39.703125 32.90625 
Q 39.75 34.71875 39.75 35.203125 
Q 39.75 40.578125 37.25 42.78125 
Q 33.890625 45.75 27.25 45.75 
Q 21.046875 45.75 18.09375 43.578125 
Q 15.140625 41.40625 13.71875 35.890625 
L 5.125 37.0625 
Q 6.296875 42.578125 8.984375 45.96875 
Q 11.671875 49.359375 16.75 51.1875 
Q 21.828125 53.03125 28.515625 53.03125 
Q 35.15625 53.03125 39.296875 51.46875 
Q 43.453125 49.90625 45.40625 47.53125 
Q 47.359375 45.171875 48.140625 41.546875 
Q 48.578125 39.3125 48.578125 33.453125 
L 48.578125 21.734375 
Q 48.578125 9.46875 49.140625 6.21875 
Q 49.703125 2.984375 51.375 0 
L 42.1875 0 
Q 40.828125 2.734375 40.4375 6.390625 
z
M 39.703125 26.03125 
Q 34.90625 24.078125 25.34375 22.703125 
Q 19.921875 21.921875 17.671875 20.9375 
Q 15.4375 19.96875 14.203125 18.09375 
Q 12.984375 16.21875 12.984375 13.921875 
Q 12.984375 10.40625 15.640625 8.0625 
Q 18.3125 5.71875 23.4375 5.71875 
Q 28.515625 5.71875 32.46875 7.9375 
Q 36.421875 10.15625 38.28125 14.015625 
Q 39.703125 17 39.703125 22.796875 
z
" id="ArialMT-97"/>
      <path d="M 3.078125 15.484375 
L 11.765625 16.84375 
Q 12.5 11.625 15.84375 8.84375 
Q 19.1875 6.0625 25.203125 6.0625 
Q 31.25 6.0625 34.171875 8.515625 
Q 37.109375 10.984375 37.109375 14.3125 
Q 37.109375 17.28125 34.515625 19 
Q 32.71875 20.171875 25.53125 21.96875 
Q 15.875 24.421875 12.140625 26.203125 
Q 8.40625 27.984375 6.46875 31.125 
Q 4.546875 34.28125 4.546875 38.09375 
Q 4.546875 41.546875 6.125 44.5 
Q 7.71875 47.46875 10.453125 49.421875 
Q 12.5 50.921875 16.03125 51.96875 
Q 19.578125 53.03125 23.640625 53.03125 
Q 29.734375 53.03125 34.34375 51.265625 
Q 38.96875 49.515625 41.15625 46.5 
Q 43.359375 43.5 44.1875 38.484375 
L 35.59375 37.3125 
Q 35.015625 41.3125 32.203125 43.546875 
Q 29.390625 45.796875 24.265625 45.796875 
Q 18.21875 45.796875 15.625 43.796875 
Q 13.03125 41.796875 13.03125 39.109375 
Q 13.03125 37.40625 14.109375 36.03125 
Q 15.1875 34.625 17.484375 33.6875 
Q 18.796875 33.203125 25.25 31.453125 
Q 34.578125 28.953125 38.25 27.359375 
Q 41.9375 25.78125 44.03125 22.75 
Q 46.140625 19.734375 46.140625 15.234375 
Q 46.140625 10.84375 43.578125 6.953125 
Q 41.015625 3.078125 36.171875 0.953125 
Q 31.34375 -1.171875 25.25 -1.171875 
Q 15.140625 -1.171875 9.84375 3.03125 
Q 4.546875 7.234375 3.078125 15.484375 
z
" id="ArialMT-115"/>
      <path d="M 42.09375 16.703125 
L 51.171875 15.578125 
Q 49.03125 7.625 43.21875 3.21875 
Q 37.40625 -1.171875 28.375 -1.171875 
Q 17 -1.171875 10.328125 5.828125 
Q 3.65625 12.84375 3.65625 25.484375 
Q 3.65625 38.578125 10.390625 45.796875 
Q 17.140625 53.03125 27.875 53.03125 
Q 38.28125 53.03125 44.875 45.953125 
Q 51.46875 38.875 51.46875 26.03125 
Q 51.46875 25.25 51.421875 23.6875 
L 12.75 23.6875 
Q 13.234375 15.140625 17.578125 10.59375 
Q 21.921875 6.0625 28.421875 6.0625 
Q 33.25 6.0625 36.671875 8.59375 
Q 40.09375 11.140625 42.09375 16.703125 
z
M 13.234375 30.90625 
L 42.1875 30.90625 
Q 41.609375 37.453125 38.875 40.71875 
Q 34.671875 45.796875 27.984375 45.796875 
Q 21.921875 45.796875 17.796875 41.75 
Q 13.671875 37.703125 13.234375 30.90625 
z
" id="ArialMT-101"/>
     </defs>
     <g style="fill:#262626;" transform="translate(586.381719 104.889375)scale(0.12 -0.12)">
      <use xlink:href="#ArialMT-67"/>
      <use x="72.216797" xlink:href="#ArialMT-108"/>
      <use x="94.433594" xlink:href="#ArialMT-97"/>
      <use x="150.048828" xlink:href="#ArialMT-115"/>
      <use x="200.048828" xlink:href="#ArialMT-115"/>
      <use x="250.048828" xlink:href="#ArialMT-101"/>
      <use x="305.664062" xlink:href="#ArialMT-115"/>
     </g>
    </g>
    <g id="line2d_15">
     <path d="M 577.342188 116.797969 
L 599.342188 116.797969 
" style="fill:none;stroke:#4c72b0;stroke-linecap:round;stroke-width:1.5;"/>
    </g>
    <g id="line2d_16">
     <g>
      <use style="fill:#4c72b0;stroke:#4c72b0;" x="588.342188" xlink:href="#m5a87160077" y="116.797969"/>
     </g>
    </g>
    <g id="text_16">
     <!-- man -->
     <defs>
      <path d="M 6.59375 0 
L 6.59375 51.859375 
L 14.453125 51.859375 
L 14.453125 44.578125 
Q 16.890625 48.390625 20.9375 50.703125 
Q 25 53.03125 30.171875 53.03125 
Q 35.9375 53.03125 39.625 50.640625 
Q 43.3125 48.25 44.828125 43.953125 
Q 50.984375 53.03125 60.84375 53.03125 
Q 68.5625 53.03125 72.703125 48.75 
Q 76.859375 44.484375 76.859375 35.59375 
L 76.859375 0 
L 68.109375 0 
L 68.109375 32.671875 
Q 68.109375 37.9375 67.25 40.25 
Q 66.40625 42.578125 64.15625 43.984375 
Q 61.921875 45.40625 58.890625 45.40625 
Q 53.421875 45.40625 49.796875 41.765625 
Q 46.1875 38.140625 46.1875 30.125 
L 46.1875 0 
L 37.40625 0 
L 37.40625 33.6875 
Q 37.40625 39.546875 35.25 42.46875 
Q 33.109375 45.40625 28.21875 45.40625 
Q 24.515625 45.40625 21.359375 43.453125 
Q 18.21875 41.5 16.796875 37.734375 
Q 15.375 33.984375 15.375 26.90625 
L 15.375 0 
z
" id="ArialMT-109"/>
      <path d="M 6.59375 0 
L 6.59375 51.859375 
L 14.5 51.859375 
L 14.5 44.484375 
Q 20.21875 53.03125 31 53.03125 
Q 35.6875 53.03125 39.625 51.34375 
Q 43.5625 49.65625 45.515625 46.921875 
Q 47.46875 44.1875 48.25 40.4375 
Q 48.734375 37.984375 48.734375 31.890625 
L 48.734375 0 
L 39.9375 0 
L 39.9375 31.546875 
Q 39.9375 36.921875 38.90625 39.578125 
Q 37.890625 42.234375 35.28125 43.8125 
Q 32.671875 45.40625 29.15625 45.40625 
Q 23.53125 45.40625 19.453125 41.84375 
Q 15.375 38.28125 15.375 28.328125 
L 15.375 0 
z
" id="ArialMT-110"/>
     </defs>
     <g style="fill:#262626;" transform="translate(608.142187 120.647969)scale(0.11 -0.11)">
      <use xlink:href="#ArialMT-109"/>
      <use x="83.300781" xlink:href="#ArialMT-97"/>
      <use x="138.916016" xlink:href="#ArialMT-110"/>
     </g>
    </g>
    <g id="line2d_17">
     <path d="M 577.342188 132.357813 
L 599.342188 132.357813 
" style="fill:none;stroke:#55a868;stroke-linecap:round;stroke-width:1.5;"/>
    </g>
    <g id="line2d_18">
     <g>
      <use style="fill:#55a868;stroke:#55a868;" x="588.342188" xlink:href="#m49924f64ec" y="132.357813"/>
     </g>
    </g>
    <g id="text_17">
     <!-- mal -->
     <g style="fill:#262626;" transform="translate(608.142187 136.207813)scale(0.11 -0.11)">
      <use xlink:href="#ArialMT-109"/>
      <use x="83.300781" xlink:href="#ArialMT-97"/>
      <use x="138.916016" xlink:href="#ArialMT-108"/>
     </g>
    </g>
    <g id="line2d_19">
     <path d="M 577.342188 147.917656 
L 599.342188 147.917656 
" style="fill:none;stroke:#c44e52;stroke-linecap:round;stroke-width:1.5;"/>
    </g>
    <g id="line2d_20">
     <g>
      <use style="fill:#c44e52;stroke:#c44e52;" x="588.342188" xlink:href="#mc6ecdc1f0b" y="147.917656"/>
     </g>
    </g>
    <g id="text_18">
     <!-- glu -->
     <defs>
      <path d="M 4.984375 -4.296875 
L 13.53125 -5.5625 
Q 14.0625 -9.515625 16.5 -11.328125 
Q 19.78125 -13.765625 25.4375 -13.765625 
Q 31.546875 -13.765625 34.859375 -11.328125 
Q 38.1875 -8.890625 39.359375 -4.5 
Q 40.046875 -1.8125 39.984375 6.78125 
Q 34.234375 0 25.640625 0 
Q 14.9375 0 9.078125 7.71875 
Q 3.21875 15.4375 3.21875 26.21875 
Q 3.21875 33.640625 5.90625 39.90625 
Q 8.59375 46.1875 13.6875 49.609375 
Q 18.796875 53.03125 25.6875 53.03125 
Q 34.859375 53.03125 40.828125 45.609375 
L 40.828125 51.859375 
L 48.921875 51.859375 
L 48.921875 7.03125 
Q 48.921875 -5.078125 46.453125 -10.125 
Q 44 -15.1875 38.640625 -18.109375 
Q 33.296875 -21.046875 25.484375 -21.046875 
Q 16.21875 -21.046875 10.5 -16.875 
Q 4.78125 -12.703125 4.984375 -4.296875 
z
M 12.25 26.859375 
Q 12.25 16.65625 16.296875 11.96875 
Q 20.359375 7.28125 26.46875 7.28125 
Q 32.515625 7.28125 36.609375 11.9375 
Q 40.71875 16.609375 40.71875 26.5625 
Q 40.71875 36.078125 36.5 40.90625 
Q 32.28125 45.75 26.3125 45.75 
Q 20.453125 45.75 16.34375 40.984375 
Q 12.25 36.234375 12.25 26.859375 
z
" id="ArialMT-103"/>
      <path d="M 40.578125 0 
L 40.578125 7.625 
Q 34.515625 -1.171875 24.125 -1.171875 
Q 19.53125 -1.171875 15.546875 0.578125 
Q 11.578125 2.34375 9.640625 5 
Q 7.71875 7.671875 6.9375 11.53125 
Q 6.390625 14.109375 6.390625 19.734375 
L 6.390625 51.859375 
L 15.1875 51.859375 
L 15.1875 23.09375 
Q 15.1875 16.21875 15.71875 13.8125 
Q 16.546875 10.359375 19.234375 8.375 
Q 21.921875 6.390625 25.875 6.390625 
Q 29.828125 6.390625 33.296875 8.421875 
Q 36.765625 10.453125 38.203125 13.9375 
Q 39.65625 17.4375 39.65625 24.078125 
L 39.65625 51.859375 
L 48.4375 51.859375 
L 48.4375 0 
z
" id="ArialMT-117"/>
     </defs>
     <g style="fill:#262626;" transform="translate(608.142187 151.767656)scale(0.11 -0.11)">
      <use xlink:href="#ArialMT-103"/>
      <use x="55.615234" xlink:href="#ArialMT-108"/>
      <use x="77.832031" xlink:href="#ArialMT-117"/>
     </g>
    </g>
    <g id="line2d_21">
     <path d="M 577.342188 163.606406 
L 599.342188 163.606406 
" style="fill:none;stroke:#64b5cd;stroke-linecap:round;stroke-width:1.5;"/>
    </g>
    <g id="line2d_22">
     <g>
      <use style="fill:#64b5cd;stroke:#64b5cd;" x="588.342188" xlink:href="#m4e77bace16" y="163.606406"/>
     </g>
    </g>
    <g id="text_19">
     <!-- fru -->
     <defs>
      <path d="M 8.6875 0 
L 8.6875 45.015625 
L 0.921875 45.015625 
L 0.921875 51.859375 
L 8.6875 51.859375 
L 8.6875 57.375 
Q 8.6875 62.59375 9.625 65.140625 
Q 10.890625 68.5625 14.078125 70.671875 
Q 17.28125 72.796875 23.046875 72.796875 
Q 26.765625 72.796875 31.25 71.921875 
L 29.9375 64.265625 
Q 27.203125 64.75 24.75 64.75 
Q 20.75 64.75 19.09375 63.03125 
Q 17.4375 61.328125 17.4375 56.640625 
L 17.4375 51.859375 
L 27.546875 51.859375 
L 27.546875 45.015625 
L 17.4375 45.015625 
L 17.4375 0 
z
" id="ArialMT-102"/>
      <path d="M 6.5 0 
L 6.5 51.859375 
L 14.40625 51.859375 
L 14.40625 44 
Q 17.4375 49.515625 20 51.265625 
Q 22.5625 53.03125 25.640625 53.03125 
Q 30.078125 53.03125 34.671875 50.203125 
L 31.640625 42.046875 
Q 28.421875 43.953125 25.203125 43.953125 
Q 22.3125 43.953125 20.015625 42.21875 
Q 17.71875 40.484375 16.75 37.40625 
Q 15.28125 32.71875 15.28125 27.15625 
L 15.28125 0 
z
" id="ArialMT-114"/>
     </defs>
     <g style="fill:#262626;" transform="translate(608.142187 167.456406)scale(0.11 -0.11)">
      <use xlink:href="#ArialMT-102"/>
      <use x="27.783203" xlink:href="#ArialMT-114"/>
      <use x="61.083984" xlink:href="#ArialMT-117"/>
     </g>
    </g>
    <g id="line2d_23">
     <path d="M 577.342188 179.16625 
L 599.342188 179.16625 
" style="fill:none;stroke:#8172b3;stroke-linecap:round;stroke-width:1.5;"/>
    </g>
    <g id="line2d_24">
     <g>
      <use style="fill:#8172b3;stroke:#8172b3;" x="588.342188" xlink:href="#mf5ea9403a2" y="179.16625"/>
     </g>
    </g>
    <g id="text_20">
     <!-- gluam -->
     <g style="fill:#262626;" transform="translate(608.142187 183.01625)scale(0.11 -0.11)">
      <use xlink:href="#ArialMT-103"/>
      <use x="55.615234" xlink:href="#ArialMT-108"/>
      <use x="77.832031" xlink:href="#ArialMT-117"/>
      <use x="133.447266" xlink:href="#ArialMT-97"/>
      <use x="189.0625" xlink:href="#ArialMT-109"/>
     </g>
    </g>
   </g>
  </g>
 </g>
 <defs>
  <clipPath id="pd380bd8b5d">
   <rect height="543.6" width="558" x="90" y="86.4"/>
  </clipPath>
 </defs>
</svg>
