<?xml version="1.0" encoding="utf-8" standalone="no"?>
<!DOCTYPE svg PUBLIC "-//W3C//DTD SVG 1.1//EN"
  "http://www.w3.org/Graphics/SVG/1.1/DTD/svg11.dtd">
<!-- Created with matplotlib (https://matplotlib.org/) -->
<svg height="720pt" version="1.1" viewBox="0 0 720 720" width="720pt" xmlns="http://www.w3.org/2000/svg" xmlns:xlink="http://www.w3.org/1999/xlink">
 <defs>
  <style type="text/css">
*{stroke-linecap:butt;stroke-linejoin:round;}
  </style>
 </defs>
 <g id="figure_1">
  <g id="patch_1">
   <path d="M 0 720 
L 720 720 
L 720 0 
L 0 0 
z
" style="fill:#ffffff;"/>
  </g>
  <g id="patch_2">
   <path d="M 90 630 
L 648 630 
L 648 86.4 
L 90 86.4 
z
" style="fill:#eaeaf2;"/>
  </g>
  <g id="pane3d_1">
   <g id="patch_3">
    <path d="M 163.971523 509.883558 
L 323.674042 376.605155 
L 321.015164 121.932002 
L 152.408183 241.679906 
" style="fill:#f2f2f2;opacity:0.5;stroke:#f2f2f2;stroke-linejoin:miter;"/>
   </g>
  </g>
  <g id="pane3d_2">
   <g id="patch_4">
    <path d="M 323.674042 376.605155 
L 582.377109 451.116383 
L 593.200935 188.763664 
L 321.015164 121.932002 
" style="fill:#e6e6e6;opacity:0.5;stroke:#e6e6e6;stroke-linejoin:miter;"/>
   </g>
  </g>
  <g id="pane3d_3">
   <g id="patch_5">
    <path d="M 163.971523 509.883558 
L 436.162105 596.664023 
L 582.377109 451.116383 
L 323.674042 376.605155 
" style="fill:#ececec;opacity:0.5;stroke:#ececec;stroke-linejoin:miter;"/>
   </g>
  </g>
  <g id="axis3d_1">
   <g id="line2d_1">
    <path d="M 163.971523 509.883558 
L 436.162105 596.664023 
" style="fill:none;stroke:#ffffff;stroke-linecap:round;stroke-width:1.25;"/>
   </g>
   <g id="Line3DCollection_1">
    <path d="M 180.895307 515.27924 
L 339.809889 381.252575 
L 337.957314 126.091925 
" style="fill:none;stroke:#ffffff;"/>
    <path d="M 233.405152 532.020557 
L 389.832116 395.659893 
L 390.508377 138.995153 
" style="fill:none;stroke:#ffffff;"/>
    <path d="M 286.868369 549.06583 
L 440.696037 410.309636 
L 443.989073 152.126639 
" style="fill:none;stroke:#ffffff;"/>
    <path d="M 341.31116 566.423413 
L 492.423077 425.207972 
L 498.424291 165.492496 
" style="fill:none;stroke:#ffffff;"/>
    <path d="M 396.760696 584.10197 
L 545.035394 440.361284 
L 553.839814 179.099055 
" style="fill:none;stroke:#ffffff;"/>
   </g>
   <g id="xtick_1">
    <g id="line2d_2">
     <path clip-path="url(#pb9350c75d1)" d="M 376.540541 350.854054 
" style="fill:none;stroke:#ffffff;stroke-linecap:round;"/>
    </g>
    <g id="line2d_3">
     <path d="M 182.264443 514.124526 
L 178.151927 517.592974 
" style="fill:none;stroke:#262626;stroke-linecap:round;stroke-width:1.25;"/>
    </g>
    <g id="text_1">
     <!-- −0.5 -->
     <defs>
      <path d="M 52.828125 31.203125 
L 5.5625 31.203125 
L 5.5625 39.40625 
L 52.828125 39.40625 
z
" id="ArialMT-8722"/>
      <path d="M 4.15625 35.296875 
Q 4.15625 48 6.765625 55.734375 
Q 9.375 63.484375 14.515625 67.671875 
Q 19.671875 71.875 27.484375 71.875 
Q 33.25 71.875 37.59375 69.546875 
Q 41.9375 67.234375 44.765625 62.859375 
Q 47.609375 58.5 49.21875 52.21875 
Q 50.828125 45.953125 50.828125 35.296875 
Q 50.828125 22.703125 48.234375 14.96875 
Q 45.65625 7.234375 40.5 3 
Q 35.359375 -1.21875 27.484375 -1.21875 
Q 17.140625 -1.21875 11.234375 6.203125 
Q 4.15625 15.140625 4.15625 35.296875 
z
M 13.1875 35.296875 
Q 13.1875 17.671875 17.3125 11.828125 
Q 21.4375 6 27.484375 6 
Q 33.546875 6 37.671875 11.859375 
Q 41.796875 17.71875 41.796875 35.296875 
Q 41.796875 52.984375 37.671875 58.78125 
Q 33.546875 64.59375 27.390625 64.59375 
Q 21.34375 64.59375 17.71875 59.46875 
Q 13.1875 52.9375 13.1875 35.296875 
z
" id="ArialMT-48"/>
      <path d="M 9.078125 0 
L 9.078125 10.015625 
L 19.09375 10.015625 
L 19.09375 0 
z
" id="ArialMT-46"/>
      <path d="M 4.15625 18.75 
L 13.375 19.53125 
Q 14.40625 12.796875 18.140625 9.390625 
Q 21.875 6 27.15625 6 
Q 33.5 6 37.890625 10.78125 
Q 42.28125 15.578125 42.28125 23.484375 
Q 42.28125 31 38.0625 35.34375 
Q 33.84375 39.703125 27 39.703125 
Q 22.75 39.703125 19.328125 37.765625 
Q 15.921875 35.84375 13.96875 32.765625 
L 5.71875 33.84375 
L 12.640625 70.609375 
L 48.25 70.609375 
L 48.25 62.203125 
L 19.671875 62.203125 
L 15.828125 42.96875 
Q 22.265625 47.46875 29.34375 47.46875 
Q 38.71875 47.46875 45.15625 40.96875 
Q 51.609375 34.46875 51.609375 24.265625 
Q 51.609375 14.546875 45.953125 7.46875 
Q 39.0625 -1.21875 27.15625 -1.21875 
Q 17.390625 -1.21875 11.203125 4.25 
Q 5.03125 9.71875 4.15625 18.75 
z
" id="ArialMT-53"/>
     </defs>
     <g style="fill:#262626;" transform="translate(163.572203 539.174479)scale(0.11 -0.11)">
      <use xlink:href="#ArialMT-8722"/>
      <use x="58.398438" xlink:href="#ArialMT-48"/>
      <use x="114.013672" xlink:href="#ArialMT-46"/>
      <use x="141.796875" xlink:href="#ArialMT-53"/>
     </g>
    </g>
   </g>
   <g id="xtick_2">
    <g id="line2d_4">
     <path clip-path="url(#pb9350c75d1)" d="M 376.540541 350.854054 
" style="fill:none;stroke:#ffffff;stroke-linecap:round;"/>
    </g>
    <g id="line2d_5">
     <path d="M 234.753722 530.84498 
L 230.702936 534.376135 
" style="fill:none;stroke:#262626;stroke-linecap:round;stroke-width:1.25;"/>
    </g>
    <g id="text_2">
     <!-- 0.0 -->
     <g style="fill:#262626;" transform="translate(219.291167 556.07762)scale(0.11 -0.11)">
      <use xlink:href="#ArialMT-48"/>
      <use x="55.615234" xlink:href="#ArialMT-46"/>
      <use x="83.398438" xlink:href="#ArialMT-48"/>
     </g>
    </g>
   </g>
   <g id="xtick_3">
    <g id="line2d_6">
     <path clip-path="url(#pb9350c75d1)" d="M 376.540541 350.854054 
" style="fill:none;stroke:#ffffff;stroke-linecap:round;"/>
    </g>
    <g id="line2d_7">
     <path d="M 288.195397 547.868819 
L 284.209273 551.464397 
" style="fill:none;stroke:#262626;stroke-linecap:round;stroke-width:1.25;"/>
    </g>
    <g id="text_3">
     <!-- 0.5 -->
     <g style="fill:#262626;" transform="translate(272.752109 573.28798)scale(0.11 -0.11)">
      <use xlink:href="#ArialMT-48"/>
      <use x="55.615234" xlink:href="#ArialMT-46"/>
      <use x="83.398438" xlink:href="#ArialMT-53"/>
     </g>
    </g>
   </g>
   <g id="xtick_4">
    <g id="line2d_8">
     <path clip-path="url(#pb9350c75d1)" d="M 376.540541 350.854054 
" style="fill:none;stroke:#ffffff;stroke-linecap:round;"/>
    </g>
    <g id="line2d_9">
     <path d="M 342.615627 565.204377 
L 338.697226 568.866158 
" style="fill:none;stroke:#262626;stroke-linecap:round;stroke-width:1.25;"/>
    </g>
    <g id="text_4">
     <!-- 1.0 -->
     <defs>
      <path d="M 37.25 0 
L 28.46875 0 
L 28.46875 56 
Q 25.296875 52.984375 20.140625 49.953125 
Q 14.984375 46.921875 10.890625 45.40625 
L 10.890625 53.90625 
Q 18.265625 57.375 23.78125 62.296875 
Q 29.296875 67.234375 31.59375 71.875 
L 37.25 71.875 
z
" id="ArialMT-49"/>
     </defs>
     <g style="fill:#262626;" transform="translate(327.193628 590.814011)scale(0.11 -0.11)">
      <use xlink:href="#ArialMT-49"/>
      <use x="55.615234" xlink:href="#ArialMT-46"/>
      <use x="83.398438" xlink:href="#ArialMT-48"/>
     </g>
    </g>
   </g>
   <g id="xtick_5">
    <g id="line2d_10">
     <path clip-path="url(#pb9350c75d1)" d="M 376.540541 350.854054 
" style="fill:none;stroke:#ffffff;stroke-linecap:round;"/>
    </g>
    <g id="line2d_11">
     <path d="M 398.041537 582.860295 
L 394.194059 586.590123 
" style="fill:none;stroke:#262626;stroke-linecap:round;stroke-width:1.25;"/>
    </g>
    <g id="text_5">
     <!-- 1.5 -->
     <g style="fill:#262626;" transform="translate(382.642952 608.664479)scale(0.11 -0.11)">
      <use xlink:href="#ArialMT-49"/>
      <use x="55.615234" xlink:href="#ArialMT-46"/>
      <use x="83.398438" xlink:href="#ArialMT-53"/>
     </g>
    </g>
   </g>
  </g>
  <g id="axis3d_2">
   <g id="line2d_12">
    <path d="M 582.377109 451.116383 
L 436.162105 596.664023 
" style="fill:none;stroke:#ffffff;stroke-linecap:round;stroke-width:1.25;"/>
   </g>
   <g id="Line3DCollection_2">
    <path d="M 168.331916 230.370566 
L 179.001113 497.340739 
L 449.964249 582.924876 
" style="fill:none;stroke:#ffffff;"/>
    <path d="M 191.360552 214.015188 
L 200.756216 479.185199 
L 469.927195 563.053046 
" style="fill:none;stroke:#ffffff;"/>
    <path d="M 213.916122 197.995791 
L 222.086869 461.383881 
L 489.482939 543.58656 
" style="fill:none;stroke:#ffffff;"/>
    <path d="M 236.013055 182.302126 
L 243.005373 443.926518 
L 508.643812 524.513141 
" style="fill:none;stroke:#ffffff;"/>
    <path d="M 257.665198 166.924359 
L 263.52356 426.803237 
L 527.421657 505.821004 
" style="fill:none;stroke:#ffffff;"/>
    <path d="M 278.885849 151.853047 
L 283.652811 410.004539 
L 545.827844 487.498827 
" style="fill:none;stroke:#ffffff;"/>
    <path d="M 299.687778 137.07912 
L 303.404082 393.521281 
L 563.873299 469.535736 
" style="fill:none;stroke:#ffffff;"/>
   </g>
   <g id="xtick_6">
    <g id="line2d_13">
     <path clip-path="url(#pb9350c75d1)" d="M 376.540541 350.854054 
" style="fill:none;stroke:#ffffff;stroke-linecap:round;"/>
    </g>
    <g id="line2d_14">
     <path d="M 447.696722 582.208674 
L 454.504362 584.358878 
" style="fill:none;stroke:#262626;stroke-linecap:round;stroke-width:1.25;"/>
    </g>
    <g id="text_6">
     <!-- −0.6 -->
     <defs>
      <path d="M 49.75 54.046875 
L 41.015625 53.375 
Q 39.84375 58.546875 37.703125 60.890625 
Q 34.125 64.65625 28.90625 64.65625 
Q 24.703125 64.65625 21.53125 62.3125 
Q 17.390625 59.28125 14.984375 53.46875 
Q 12.59375 47.65625 12.5 36.921875 
Q 15.671875 41.75 20.265625 44.09375 
Q 24.859375 46.4375 29.890625 46.4375 
Q 38.671875 46.4375 44.84375 39.96875 
Q 51.03125 33.5 51.03125 23.25 
Q 51.03125 16.5 48.125 10.71875 
Q 45.21875 4.9375 40.140625 1.859375 
Q 35.0625 -1.21875 28.609375 -1.21875 
Q 17.625 -1.21875 10.6875 6.859375 
Q 3.765625 14.9375 3.765625 33.5 
Q 3.765625 54.25 11.421875 63.671875 
Q 18.109375 71.875 29.4375 71.875 
Q 37.890625 71.875 43.28125 67.140625 
Q 48.6875 62.40625 49.75 54.046875 
z
M 13.875 23.1875 
Q 13.875 18.65625 15.796875 14.5 
Q 17.71875 10.359375 21.1875 8.171875 
Q 24.65625 6 28.46875 6 
Q 34.03125 6 38.03125 10.484375 
Q 42.046875 14.984375 42.046875 22.703125 
Q 42.046875 30.125 38.078125 34.390625 
Q 34.125 38.671875 28.125 38.671875 
Q 22.171875 38.671875 18.015625 34.390625 
Q 13.875 30.125 13.875 23.1875 
z
" id="ArialMT-54"/>
     </defs>
     <g style="fill:#262626;" transform="translate(450.312408 604.825795)scale(0.11 -0.11)">
      <use xlink:href="#ArialMT-8722"/>
      <use x="58.398438" xlink:href="#ArialMT-48"/>
      <use x="114.013672" xlink:href="#ArialMT-46"/>
      <use x="141.796875" xlink:href="#ArialMT-54"/>
     </g>
    </g>
   </g>
   <g id="xtick_7">
    <g id="line2d_15">
     <path clip-path="url(#pb9350c75d1)" d="M 376.540541 350.854054 
" style="fill:none;stroke:#ffffff;stroke-linecap:round;"/>
    </g>
    <g id="line2d_16">
     <path d="M 467.675687 562.351525 
L 474.435183 564.457637 
" style="fill:none;stroke:#262626;stroke-linecap:round;stroke-width:1.25;"/>
    </g>
    <g id="text_7">
     <!-- −0.4 -->
     <defs>
      <path d="M 32.328125 0 
L 32.328125 17.140625 
L 1.265625 17.140625 
L 1.265625 25.203125 
L 33.9375 71.578125 
L 41.109375 71.578125 
L 41.109375 25.203125 
L 50.78125 25.203125 
L 50.78125 17.140625 
L 41.109375 17.140625 
L 41.109375 0 
z
M 32.328125 25.203125 
L 32.328125 57.46875 
L 9.90625 25.203125 
z
" id="ArialMT-52"/>
     </defs>
     <g style="fill:#262626;" transform="translate(470.154237 584.81513)scale(0.11 -0.11)">
      <use xlink:href="#ArialMT-8722"/>
      <use x="58.398438" xlink:href="#ArialMT-48"/>
      <use x="114.013672" xlink:href="#ArialMT-46"/>
      <use x="141.796875" xlink:href="#ArialMT-52"/>
     </g>
    </g>
   </g>
   <g id="xtick_8">
    <g id="line2d_17">
     <path clip-path="url(#pb9350c75d1)" d="M 376.540541 350.854054 
" style="fill:none;stroke:#ffffff;stroke-linecap:round;"/>
    </g>
    <g id="line2d_18">
     <path d="M 487.24727 542.899273 
L 493.95916 544.962636 
" style="fill:none;stroke:#262626;stroke-linecap:round;stroke-width:1.25;"/>
    </g>
    <g id="text_8">
     <!-- −0.2 -->
     <defs>
      <path d="M 50.34375 8.453125 
L 50.34375 0 
L 3.03125 0 
Q 2.9375 3.171875 4.046875 6.109375 
Q 5.859375 10.9375 9.828125 15.625 
Q 13.8125 20.3125 21.34375 26.46875 
Q 33.015625 36.03125 37.109375 41.625 
Q 41.21875 47.21875 41.21875 52.203125 
Q 41.21875 57.421875 37.46875 61 
Q 33.734375 64.59375 27.734375 64.59375 
Q 21.390625 64.59375 17.578125 60.78125 
Q 13.765625 56.984375 13.71875 50.25 
L 4.6875 51.171875 
Q 5.609375 61.28125 11.65625 66.578125 
Q 17.71875 71.875 27.9375 71.875 
Q 38.234375 71.875 44.234375 66.15625 
Q 50.25 60.453125 50.25 52 
Q 50.25 47.703125 48.484375 43.546875 
Q 46.734375 39.40625 42.65625 34.8125 
Q 38.578125 30.21875 29.109375 22.21875 
Q 21.1875 15.578125 18.9375 13.203125 
Q 16.703125 10.84375 15.234375 8.453125 
z
" id="ArialMT-50"/>
     </defs>
     <g style="fill:#262626;" transform="translate(489.591447 565.212526)scale(0.11 -0.11)">
      <use xlink:href="#ArialMT-8722"/>
      <use x="58.398438" xlink:href="#ArialMT-48"/>
      <use x="114.013672" xlink:href="#ArialMT-46"/>
      <use x="141.796875" xlink:href="#ArialMT-50"/>
     </g>
    </g>
   </g>
   <g id="xtick_9">
    <g id="line2d_19">
     <path clip-path="url(#pb9350c75d1)" d="M 376.540541 350.854054 
" style="fill:none;stroke:#ffffff;stroke-linecap:round;"/>
    </g>
    <g id="line2d_20">
     <path d="M 506.423807 523.839659 
L 513.088625 525.861562 
" style="fill:none;stroke:#262626;stroke-linecap:round;stroke-width:1.25;"/>
    </g>
    <g id="text_9">
     <!-- 0.0 -->
     <g style="fill:#262626;" transform="translate(511.848635 546.005627)scale(0.11 -0.11)">
      <use xlink:href="#ArialMT-48"/>
      <use x="55.615234" xlink:href="#ArialMT-46"/>
      <use x="83.398438" xlink:href="#ArialMT-48"/>
     </g>
    </g>
   </g>
   <g id="xtick_10">
    <g id="line2d_21">
     <path clip-path="url(#pb9350c75d1)" d="M 376.540541 350.854054 
" style="fill:none;stroke:#ffffff;stroke-linecap:round;"/>
    </g>
    <g id="line2d_22">
     <path d="M 525.217138 505.160915 
L 531.835416 507.142595 
" style="fill:none;stroke:#262626;stroke-linecap:round;stroke-width:1.25;"/>
    </g>
    <g id="text_10">
     <!-- 0.2 -->
     <g style="fill:#262626;" transform="translate(530.512875 527.182571)scale(0.11 -0.11)">
      <use xlink:href="#ArialMT-48"/>
      <use x="55.615234" xlink:href="#ArialMT-46"/>
      <use x="83.398438" xlink:href="#ArialMT-50"/>
     </g>
    </g>
   </g>
   <g id="xtick_11">
    <g id="line2d_23">
     <path clip-path="url(#pb9350c75d1)" d="M 376.540541 350.854054 
" style="fill:none;stroke:#ffffff;stroke-linecap:round;"/>
    </g>
    <g id="line2d_24">
     <path d="M 543.638636 486.851736 
L 550.210901 488.794381 
" style="fill:none;stroke:#262626;stroke-linecap:round;stroke-width:1.25;"/>
    </g>
    <g id="text_11">
     <!-- 0.4 -->
     <g style="fill:#262626;" transform="translate(548.807806 508.731966)scale(0.11 -0.11)">
      <use xlink:href="#ArialMT-48"/>
      <use x="55.615234" xlink:href="#ArialMT-46"/>
      <use x="83.398438" xlink:href="#ArialMT-52"/>
     </g>
    </g>
   </g>
   <g id="xtick_12">
    <g id="line2d_25">
     <path clip-path="url(#pb9350c75d1)" d="M 376.540541 350.854054 
" style="fill:none;stroke:#ffffff;stroke-linecap:round;"/>
    </g>
    <g id="line2d_26">
     <path d="M 561.699229 468.901263 
L 568.226004 470.806015 
" style="fill:none;stroke:#262626;stroke-linecap:round;stroke-width:1.25;"/>
    </g>
    <g id="text_12">
     <!-- 0.6 -->
     <g style="fill:#262626;" transform="translate(566.744284 490.642865)scale(0.11 -0.11)">
      <use xlink:href="#ArialMT-48"/>
      <use x="55.615234" xlink:href="#ArialMT-46"/>
      <use x="83.398438" xlink:href="#ArialMT-54"/>
     </g>
    </g>
   </g>
  </g>
  <g id="axis3d_3">
   <g id="line2d_27">
    <path d="M 582.377109 451.116383 
L 593.200935 188.763664 
" style="fill:none;stroke:#ffffff;stroke-linecap:round;stroke-width:1.25;"/>
   </g>
   <g id="Line3DCollection_3">
    <path d="M 582.631616 444.947518 
L 323.611389 370.604114 
L 163.700083 503.587708 
" style="fill:none;stroke:#ffffff;"/>
    <path d="M 583.751367 417.806502 
L 323.335812 344.208776 
L 162.505576 475.881951 
" style="fill:none;stroke:#ffffff;"/>
    <path d="M 584.883352 390.368946 
L 323.057351 317.537143 
L 161.297586 447.863457 
" style="fill:none;stroke:#ffffff;"/>
    <path d="M 586.027773 362.629963 
L 322.77596 290.584856 
L 160.075883 419.526901 
" style="fill:none;stroke:#ffffff;"/>
    <path d="M 587.184836 334.584557 
L 322.491592 263.34746 
L 158.840232 390.866837 
" style="fill:none;stroke:#ffffff;"/>
    <path d="M 588.354751 306.227624 
L 322.2042 235.820408 
L 157.590394 361.877692 
" style="fill:none;stroke:#ffffff;"/>
    <path d="M 589.537735 277.553944 
L 321.913735 207.999054 
L 156.326121 332.553766 
" style="fill:none;stroke:#ffffff;"/>
    <path d="M 590.734007 248.558179 
L 321.620148 179.878653 
L 155.047163 302.889227 
" style="fill:none;stroke:#ffffff;"/>
    <path d="M 591.943792 219.234873 
L 321.323388 151.454358 
L 153.753263 272.878103 
" style="fill:none;stroke:#ffffff;"/>
   </g>
   <g id="xtick_13">
    <g id="line2d_28">
     <path clip-path="url(#pb9350c75d1)" d="M 376.540541 350.854054 
" style="fill:none;stroke:#ffffff;stroke-linecap:round;"/>
    </g>
    <g id="line2d_29">
     <path d="M 580.470442 444.327222 
L 586.958463 446.189399 
" style="fill:none;stroke:#262626;stroke-linecap:round;stroke-width:1.25;"/>
    </g>
    <g id="text_13">
     <!-- −0.4 -->
     <g style="fill:#262626;" transform="translate(588.01485 450.547827)scale(0.11 -0.11)">
      <use xlink:href="#ArialMT-8722"/>
      <use x="58.398438" xlink:href="#ArialMT-48"/>
      <use x="114.013672" xlink:href="#ArialMT-46"/>
      <use x="141.796875" xlink:href="#ArialMT-52"/>
     </g>
    </g>
   </g>
   <g id="xtick_14">
    <g id="line2d_30">
     <path clip-path="url(#pb9350c75d1)" d="M 376.540541 350.854054 
" style="fill:none;stroke:#ffffff;stroke-linecap:round;"/>
    </g>
    <g id="line2d_31">
     <path d="M 581.578064 417.192291 
L 588.10252 419.03621 
" style="fill:none;stroke:#262626;stroke-linecap:round;stroke-width:1.25;"/>
    </g>
    <g id="text_14">
     <!-- −0.3 -->
     <defs>
      <path d="M 4.203125 18.890625 
L 12.984375 20.0625 
Q 14.5 12.59375 18.140625 9.296875 
Q 21.78125 6 27 6 
Q 33.203125 6 37.46875 10.296875 
Q 41.75 14.59375 41.75 20.953125 
Q 41.75 27 37.796875 30.921875 
Q 33.84375 34.859375 27.734375 34.859375 
Q 25.25 34.859375 21.53125 33.890625 
L 22.515625 41.609375 
Q 23.390625 41.5 23.921875 41.5 
Q 29.546875 41.5 34.03125 44.421875 
Q 38.53125 47.359375 38.53125 53.46875 
Q 38.53125 58.296875 35.25 61.46875 
Q 31.984375 64.65625 26.8125 64.65625 
Q 21.6875 64.65625 18.265625 61.421875 
Q 14.84375 58.203125 13.875 51.765625 
L 5.078125 53.328125 
Q 6.6875 62.15625 12.390625 67.015625 
Q 18.109375 71.875 26.609375 71.875 
Q 32.46875 71.875 37.390625 69.359375 
Q 42.328125 66.84375 44.9375 62.5 
Q 47.5625 58.15625 47.5625 53.265625 
Q 47.5625 48.640625 45.0625 44.828125 
Q 42.578125 41.015625 37.703125 38.765625 
Q 44.046875 37.3125 47.5625 32.6875 
Q 51.078125 28.078125 51.078125 21.140625 
Q 51.078125 11.765625 44.234375 5.25 
Q 37.40625 -1.265625 26.953125 -1.265625 
Q 17.53125 -1.265625 11.296875 4.34375 
Q 5.078125 9.96875 4.203125 18.890625 
z
" id="ArialMT-51"/>
     </defs>
     <g style="fill:#262626;" transform="translate(589.221298 423.429121)scale(0.11 -0.11)">
      <use xlink:href="#ArialMT-8722"/>
      <use x="58.398438" xlink:href="#ArialMT-48"/>
      <use x="114.013672" xlink:href="#ArialMT-46"/>
      <use x="141.796875" xlink:href="#ArialMT-51"/>
     </g>
    </g>
   </g>
   <g id="xtick_15">
    <g id="line2d_32">
     <path clip-path="url(#pb9350c75d1)" d="M 376.540541 350.854054 
" style="fill:none;stroke:#ffffff;stroke-linecap:round;"/>
    </g>
    <g id="line2d_33">
     <path d="M 582.697784 389.760989 
L 589.259085 391.586138 
" style="fill:none;stroke:#262626;stroke-linecap:round;stroke-width:1.25;"/>
    </g>
    <g id="text_15">
     <!-- −0.2 -->
     <g style="fill:#262626;" transform="translate(590.440911 396.014498)scale(0.11 -0.11)">
      <use xlink:href="#ArialMT-8722"/>
      <use x="58.398438" xlink:href="#ArialMT-48"/>
      <use x="114.013672" xlink:href="#ArialMT-46"/>
      <use x="141.796875" xlink:href="#ArialMT-50"/>
     </g>
    </g>
   </g>
   <g id="xtick_16">
    <g id="line2d_34">
     <path clip-path="url(#pb9350c75d1)" d="M 376.540541 350.854054 
" style="fill:none;stroke:#ffffff;stroke-linecap:round;"/>
    </g>
    <g id="line2d_35">
     <path d="M 583.829801 362.028435 
L 590.428366 363.834289 
" style="fill:none;stroke:#262626;stroke-linecap:round;stroke-width:1.25;"/>
    </g>
    <g id="text_16">
     <!-- −0.1 -->
     <g style="fill:#262626;" transform="translate(591.673906 368.299088)scale(0.11 -0.11)">
      <use xlink:href="#ArialMT-8722"/>
      <use x="58.398438" xlink:href="#ArialMT-48"/>
      <use x="114.013672" xlink:href="#ArialMT-46"/>
      <use x="141.796875" xlink:href="#ArialMT-49"/>
     </g>
    </g>
   </g>
   <g id="xtick_17">
    <g id="line2d_36">
     <path clip-path="url(#pb9350c75d1)" d="M 376.540541 350.854054 
" style="fill:none;stroke:#ffffff;stroke-linecap:round;"/>
    </g>
    <g id="line2d_37">
     <path d="M 584.974318 333.989639 
L 591.610572 335.775659 
" style="fill:none;stroke:#262626;stroke-linecap:round;stroke-width:1.25;"/>
    </g>
    <g id="text_17">
     <!-- 0.0 -->
     <g style="fill:#262626;" transform="translate(596.132846 340.277915)scale(0.11 -0.11)">
      <use xlink:href="#ArialMT-48"/>
      <use x="55.615234" xlink:href="#ArialMT-46"/>
      <use x="83.398438" xlink:href="#ArialMT-48"/>
     </g>
    </g>
   </g>
   <g id="xtick_18">
    <g id="line2d_38">
     <path clip-path="url(#pb9350c75d1)" d="M 376.540541 350.854054 
" style="fill:none;stroke:#ffffff;stroke-linecap:round;"/>
    </g>
    <g id="line2d_39">
     <path d="M 586.131545 305.639499 
L 592.805919 307.405132 
" style="fill:none;stroke:#262626;stroke-linecap:round;stroke-width:1.25;"/>
    </g>
    <g id="text_18">
     <!-- 0.1 -->
     <g style="fill:#262626;" transform="translate(597.393273 311.945888)scale(0.11 -0.11)">
      <use xlink:href="#ArialMT-48"/>
      <use x="55.615234" xlink:href="#ArialMT-46"/>
      <use x="83.398438" xlink:href="#ArialMT-49"/>
     </g>
    </g>
   </g>
   <g id="xtick_19">
    <g id="line2d_40">
     <path clip-path="url(#pb9350c75d1)" d="M 376.540541 350.854054 
" style="fill:none;stroke:#ffffff;stroke-linecap:round;"/>
    </g>
    <g id="line2d_41">
     <path d="M 587.301692 276.972801 
L 594.014629 278.717479 
" style="fill:none;stroke:#262626;stroke-linecap:round;stroke-width:1.25;"/>
    </g>
    <g id="text_19">
     <!-- 0.2 -->
     <g style="fill:#262626;" transform="translate(598.667759 283.297808)scale(0.11 -0.11)">
      <use xlink:href="#ArialMT-48"/>
      <use x="55.615234" xlink:href="#ArialMT-46"/>
      <use x="83.398438" xlink:href="#ArialMT-50"/>
     </g>
    </g>
   </g>
   <g id="xtick_20">
    <g id="line2d_42">
     <path clip-path="url(#pb9350c75d1)" d="M 376.540541 350.854054 
" style="fill:none;stroke:#ffffff;stroke-linecap:round;"/>
    </g>
    <g id="line2d_43">
     <path d="M 588.484979 247.984214 
L 595.236925 249.707352 
" style="fill:none;stroke:#262626;stroke-linecap:round;stroke-width:1.25;"/>
    </g>
    <g id="text_20">
     <!-- 0.3 -->
     <g style="fill:#262626;" transform="translate(599.956543 254.328356)scale(0.11 -0.11)">
      <use xlink:href="#ArialMT-48"/>
      <use x="55.615234" xlink:href="#ArialMT-46"/>
      <use x="83.398438" xlink:href="#ArialMT-51"/>
     </g>
    </g>
   </g>
   <g id="xtick_21">
    <g id="line2d_44">
     <path clip-path="url(#pb9350c75d1)" d="M 376.540541 350.854054 
" style="fill:none;stroke:#ffffff;stroke-linecap:round;"/>
    </g>
    <g id="line2d_45">
     <path d="M 589.681628 218.668284 
L 596.473038 220.369284 
" style="fill:none;stroke:#262626;stroke-linecap:round;stroke-width:1.25;"/>
    </g>
    <g id="text_21">
     <!-- 0.4 -->
     <g style="fill:#262626;" transform="translate(601.259866 225.032094)scale(0.11 -0.11)">
      <use xlink:href="#ArialMT-48"/>
      <use x="55.615234" xlink:href="#ArialMT-46"/>
      <use x="83.398438" xlink:href="#ArialMT-52"/>
     </g>
    </g>
   </g>
  </g>
  <g id="axes_1">
   <g id="Path3DCollection_1">
    <defs>
     <path d="M 0 2.236068 
C 0.593012 2.236068 1.161816 2.000462 1.581139 1.581139 
C 2.000462 1.161816 2.236068 0.593012 2.236068 0 
C 2.236068 -0.593012 2.000462 -1.161816 1.581139 -1.581139 
C 1.161816 -2.000462 0.593012 -2.236068 0 -2.236068 
C -0.593012 -2.236068 -1.161816 -2.000462 -1.581139 -1.581139 
C -2.000462 -1.161816 -2.236068 -0.593012 -2.236068 0 
C -2.236068 0.593012 -2.000462 1.161816 -1.581139 1.581139 
C -1.161816 2.000462 -0.593012 2.236068 0 2.236068 
z
" id="m46d355b954" style="stroke:#c44e52;"/>
    </defs>
    <g clip-path="url(#pb9350c75d1)">
     <use style="fill:#c44e52;stroke:#c44e52;" x="323.852038" xlink:href="#m46d355b954" y="319.324337"/>
    </g>
   </g>
   <g id="Path3DCollection_2">
    <defs>
     <path d="M 0 2.236068 
C 0.593012 2.236068 1.161816 2.000462 1.581139 1.581139 
C 2.000462 1.161816 2.236068 0.593012 2.236068 0 
C 2.236068 -0.593012 2.000462 -1.161816 1.581139 -1.581139 
C 1.161816 -2.000462 0.593012 -2.236068 0 -2.236068 
C -0.593012 -2.236068 -1.161816 -2.000462 -1.581139 -1.581139 
C -2.000462 -1.161816 -2.236068 -0.593012 -2.236068 0 
C -2.236068 0.593012 -2.000462 1.161816 -1.581139 1.581139 
C -1.161816 2.000462 -0.593012 2.236068 0 2.236068 
z
" id="m2e96a52a25" style="stroke:#4c72b0;"/>
    </defs>
    <g clip-path="url(#pb9350c75d1)">
     <use style="fill:#4c72b0;stroke:#4c72b0;" x="325.711807" xlink:href="#m2e96a52a25" y="335.635656"/>
    </g>
   </g>
   <g id="Path3DCollection_3">
    <g clip-path="url(#pb9350c75d1)">
     <use style="fill:#c44e52;stroke:#c44e52;" x="304.044096" xlink:href="#m46d355b954" y="317.545642"/>
    </g>
   </g>
   <g id="Path3DCollection_4">
    <g clip-path="url(#pb9350c75d1)">
     <use style="fill:#c44e52;stroke:#c44e52;" x="281.945792" xlink:href="#m46d355b954" y="418.357029"/>
    </g>
   </g>
   <g id="legend_1">
    <g id="patch_6">
     <path d="M 593.22125 189.473594 
L 640.3 189.473594 
Q 642.5 189.473594 642.5 187.273594 
L 642.5 94.1 
Q 642.5 91.9 640.3 91.9 
L 593.22125 91.9 
Q 591.02125 91.9 591.02125 94.1 
L 591.02125 187.273594 
Q 591.02125 189.473594 593.22125 189.473594 
z
" style="fill:#eaeaf2;opacity:0.8;stroke:#cccccc;stroke-linejoin:miter;"/>
    </g>
    <g id="text_22">
     <!-- Classes -->
     <defs>
      <path d="M 58.796875 25.09375 
L 68.265625 22.703125 
Q 65.28125 11.03125 57.546875 4.90625 
Q 49.8125 -1.21875 38.625 -1.21875 
Q 27.046875 -1.21875 19.796875 3.484375 
Q 12.546875 8.203125 8.765625 17.140625 
Q 4.984375 26.078125 4.984375 36.328125 
Q 4.984375 47.515625 9.25 55.828125 
Q 13.53125 64.15625 21.40625 68.46875 
Q 29.296875 72.796875 38.765625 72.796875 
Q 49.515625 72.796875 56.828125 67.328125 
Q 64.15625 61.859375 67.046875 51.953125 
L 57.71875 49.75 
Q 55.21875 57.5625 50.484375 61.125 
Q 45.75 64.703125 38.578125 64.703125 
Q 30.328125 64.703125 24.78125 60.734375 
Q 19.234375 56.78125 16.984375 50.109375 
Q 14.75 43.453125 14.75 36.375 
Q 14.75 27.25 17.40625 20.4375 
Q 20.0625 13.625 25.671875 10.25 
Q 31.296875 6.890625 37.84375 6.890625 
Q 45.796875 6.890625 51.3125 11.46875 
Q 56.84375 16.0625 58.796875 25.09375 
z
" id="ArialMT-67"/>
      <path d="M 6.390625 0 
L 6.390625 71.578125 
L 15.1875 71.578125 
L 15.1875 0 
z
" id="ArialMT-108"/>
      <path d="M 40.4375 6.390625 
Q 35.546875 2.25 31.03125 0.53125 
Q 26.515625 -1.171875 21.34375 -1.171875 
Q 12.796875 -1.171875 8.203125 3 
Q 3.609375 7.171875 3.609375 13.671875 
Q 3.609375 17.484375 5.34375 20.625 
Q 7.078125 23.78125 9.890625 25.6875 
Q 12.703125 27.59375 16.21875 28.5625 
Q 18.796875 29.25 24.03125 29.890625 
Q 34.671875 31.15625 39.703125 32.90625 
Q 39.75 34.71875 39.75 35.203125 
Q 39.75 40.578125 37.25 42.78125 
Q 33.890625 45.75 27.25 45.75 
Q 21.046875 45.75 18.09375 43.578125 
Q 15.140625 41.40625 13.71875 35.890625 
L 5.125 37.0625 
Q 6.296875 42.578125 8.984375 45.96875 
Q 11.671875 49.359375 16.75 51.1875 
Q 21.828125 53.03125 28.515625 53.03125 
Q 35.15625 53.03125 39.296875 51.46875 
Q 43.453125 49.90625 45.40625 47.53125 
Q 47.359375 45.171875 48.140625 41.546875 
Q 48.578125 39.3125 48.578125 33.453125 
L 48.578125 21.734375 
Q 48.578125 9.46875 49.140625 6.21875 
Q 49.703125 2.984375 51.375 0 
L 42.1875 0 
Q 40.828125 2.734375 40.4375 6.390625 
z
M 39.703125 26.03125 
Q 34.90625 24.078125 25.34375 22.703125 
Q 19.921875 21.921875 17.671875 20.9375 
Q 15.4375 19.96875 14.203125 18.09375 
Q 12.984375 16.21875 12.984375 13.921875 
Q 12.984375 10.40625 15.640625 8.0625 
Q 18.3125 5.71875 23.4375 5.71875 
Q 28.515625 5.71875 32.46875 7.9375 
Q 36.421875 10.15625 38.28125 14.015625 
Q 39.703125 17 39.703125 22.796875 
z
" id="ArialMT-97"/>
      <path d="M 3.078125 15.484375 
L 11.765625 16.84375 
Q 12.5 11.625 15.84375 8.84375 
Q 19.1875 6.0625 25.203125 6.0625 
Q 31.25 6.0625 34.171875 8.515625 
Q 37.109375 10.984375 37.109375 14.3125 
Q 37.109375 17.28125 34.515625 19 
Q 32.71875 20.171875 25.53125 21.96875 
Q 15.875 24.421875 12.140625 26.203125 
Q 8.40625 27.984375 6.46875 31.125 
Q 4.546875 34.28125 4.546875 38.09375 
Q 4.546875 41.546875 6.125 44.5 
Q 7.71875 47.46875 10.453125 49.421875 
Q 12.5 50.921875 16.03125 51.96875 
Q 19.578125 53.03125 23.640625 53.03125 
Q 29.734375 53.03125 34.34375 51.265625 
Q 38.96875 49.515625 41.15625 46.5 
Q 43.359375 43.5 44.1875 38.484375 
L 35.59375 37.3125 
Q 35.015625 41.3125 32.203125 43.546875 
Q 29.390625 45.796875 24.265625 45.796875 
Q 18.21875 45.796875 15.625 43.796875 
Q 13.03125 41.796875 13.03125 39.109375 
Q 13.03125 37.40625 14.109375 36.03125 
Q 15.1875 34.625 17.484375 33.6875 
Q 18.796875 33.203125 25.25 31.453125 
Q 34.578125 28.953125 38.25 27.359375 
Q 41.9375 25.78125 44.03125 22.75 
Q 46.140625 19.734375 46.140625 15.234375 
Q 46.140625 10.84375 43.578125 6.953125 
Q 41.015625 3.078125 36.171875 0.953125 
Q 31.34375 -1.171875 25.25 -1.171875 
Q 15.140625 -1.171875 9.84375 3.03125 
Q 4.546875 7.234375 3.078125 15.484375 
z
" id="ArialMT-115"/>
      <path d="M 42.09375 16.703125 
L 51.171875 15.578125 
Q 49.03125 7.625 43.21875 3.21875 
Q 37.40625 -1.171875 28.375 -1.171875 
Q 17 -1.171875 10.328125 5.828125 
Q 3.65625 12.84375 3.65625 25.484375 
Q 3.65625 38.578125 10.390625 45.796875 
Q 17.140625 53.03125 27.875 53.03125 
Q 38.28125 53.03125 44.875 45.953125 
Q 51.46875 38.875 51.46875 26.03125 
Q 51.46875 25.25 51.421875 23.6875 
L 12.75 23.6875 
Q 13.234375 15.140625 17.578125 10.59375 
Q 21.921875 6.0625 28.421875 6.0625 
Q 33.25 6.0625 36.671875 8.59375 
Q 40.09375 11.140625 42.09375 16.703125 
z
M 13.234375 30.90625 
L 42.1875 30.90625 
Q 41.609375 37.453125 38.875 40.71875 
Q 34.671875 45.796875 27.984375 45.796875 
Q 21.921875 45.796875 17.796875 41.75 
Q 13.671875 37.703125 13.234375 30.90625 
z
" id="ArialMT-101"/>
     </defs>
     <g style="fill:#262626;" transform="translate(595.42125 104.889375)scale(0.12 -0.12)">
      <use xlink:href="#ArialMT-67"/>
      <use x="72.216797" xlink:href="#ArialMT-108"/>
      <use x="94.433594" xlink:href="#ArialMT-97"/>
      <use x="150.048828" xlink:href="#ArialMT-115"/>
      <use x="200.048828" xlink:href="#ArialMT-115"/>
      <use x="250.048828" xlink:href="#ArialMT-101"/>
      <use x="305.664062" xlink:href="#ArialMT-115"/>
     </g>
    </g>
    <g id="line2d_46">
     <path d="M 596.169141 116.797969 
L 618.169141 116.797969 
" style="fill:none;stroke:#4c72b0;stroke-linecap:round;stroke-width:1.5;"/>
    </g>
    <g id="line2d_47">
     <defs>
      <path d="M 0 3 
C 0.795609 3 1.55874 2.683901 2.12132 2.12132 
C 2.683901 1.55874 3 0.795609 3 0 
C 3 -0.795609 2.683901 -1.55874 2.12132 -2.12132 
C 1.55874 -2.683901 0.795609 -3 0 -3 
C -0.795609 -3 -1.55874 -2.683901 -2.12132 -2.12132 
C -2.683901 -1.55874 -3 -0.795609 -3 0 
C -3 0.795609 -2.683901 1.55874 -2.12132 2.12132 
C -1.55874 2.683901 -0.795609 3 0 3 
z
" id="md6ff68eafd" style="stroke:#4c72b0;"/>
     </defs>
     <g>
      <use style="fill:#4c72b0;stroke:#4c72b0;" x="607.169141" xlink:href="#md6ff68eafd" y="116.797969"/>
     </g>
    </g>
    <g id="text_23">
     <!-- E -->
     <defs>
      <path d="M 7.90625 0 
L 7.90625 71.578125 
L 59.671875 71.578125 
L 59.671875 63.140625 
L 17.390625 63.140625 
L 17.390625 41.21875 
L 56.984375 41.21875 
L 56.984375 32.8125 
L 17.390625 32.8125 
L 17.390625 8.453125 
L 61.328125 8.453125 
L 61.328125 0 
z
" id="ArialMT-69"/>
     </defs>
     <g style="fill:#262626;" transform="translate(626.969141 120.647969)scale(0.11 -0.11)">
      <use xlink:href="#ArialMT-69"/>
     </g>
    </g>
    <g id="line2d_48">
     <path d="M 596.169141 132.357813 
L 618.169141 132.357813 
" style="fill:none;stroke:#55a868;stroke-linecap:round;stroke-width:1.5;"/>
    </g>
    <g id="line2d_49">
     <defs>
      <path d="M 0 3 
C 0.795609 3 1.55874 2.683901 2.12132 2.12132 
C 2.683901 1.55874 3 0.795609 3 0 
C 3 -0.795609 2.683901 -1.55874 2.12132 -2.12132 
C 1.55874 -2.683901 0.795609 -3 0 -3 
C -0.795609 -3 -1.55874 -2.683901 -2.12132 -2.12132 
C -2.683901 -1.55874 -3 -0.795609 -3 0 
C -3 0.795609 -2.683901 1.55874 -2.12132 2.12132 
C -1.55874 2.683901 -0.795609 3 0 3 
z
" id="m204339a34e" style="stroke:#55a868;"/>
     </defs>
     <g>
      <use style="fill:#55a868;stroke:#55a868;" x="607.169141" xlink:href="#m204339a34e" y="132.357813"/>
     </g>
    </g>
    <g id="text_24">
     <!-- R -->
     <defs>
      <path d="M 7.859375 0 
L 7.859375 71.578125 
L 39.59375 71.578125 
Q 49.171875 71.578125 54.140625 69.640625 
Q 59.125 67.71875 62.109375 62.828125 
Q 65.09375 57.953125 65.09375 52.046875 
Q 65.09375 44.4375 60.15625 39.203125 
Q 55.21875 33.984375 44.921875 32.5625 
Q 48.6875 30.765625 50.640625 29 
Q 54.78125 25.203125 58.5 19.484375 
L 70.953125 0 
L 59.03125 0 
L 49.5625 14.890625 
Q 45.40625 21.34375 42.71875 24.75 
Q 40.046875 28.171875 37.921875 29.53125 
Q 35.796875 30.90625 33.59375 31.453125 
Q 31.984375 31.78125 28.328125 31.78125 
L 17.328125 31.78125 
L 17.328125 0 
z
M 17.328125 39.984375 
L 37.703125 39.984375 
Q 44.1875 39.984375 47.84375 41.328125 
Q 51.515625 42.671875 53.421875 45.625 
Q 55.328125 48.578125 55.328125 52.046875 
Q 55.328125 57.125 51.640625 60.390625 
Q 47.953125 63.671875 39.984375 63.671875 
L 17.328125 63.671875 
z
" id="ArialMT-82"/>
     </defs>
     <g style="fill:#262626;" transform="translate(626.969141 136.207813)scale(0.11 -0.11)">
      <use xlink:href="#ArialMT-82"/>
     </g>
    </g>
    <g id="line2d_50">
     <path d="M 596.169141 147.917656 
L 618.169141 147.917656 
" style="fill:none;stroke:#c44e52;stroke-linecap:round;stroke-width:1.5;"/>
    </g>
    <g id="line2d_51">
     <defs>
      <path d="M 0 3 
C 0.795609 3 1.55874 2.683901 2.12132 2.12132 
C 2.683901 1.55874 3 0.795609 3 0 
C 3 -0.795609 2.683901 -1.55874 2.12132 -2.12132 
C 1.55874 -2.683901 0.795609 -3 0 -3 
C -0.795609 -3 -1.55874 -2.683901 -2.12132 -2.12132 
C -2.683901 -1.55874 -3 -0.795609 -3 0 
C -3 0.795609 -2.683901 1.55874 -2.12132 2.12132 
C -1.55874 2.683901 -0.795609 3 0 3 
z
" id="mfdf37e882b" style="stroke:#c44e52;"/>
     </defs>
     <g>
      <use style="fill:#c44e52;stroke:#c44e52;" x="607.169141" xlink:href="#mfdf37e882b" y="147.917656"/>
     </g>
    </g>
    <g id="text_25">
     <!-- S -->
     <defs>
      <path d="M 4.5 23 
L 13.421875 23.78125 
Q 14.0625 18.40625 16.375 14.96875 
Q 18.703125 11.53125 23.578125 9.40625 
Q 28.46875 7.28125 34.578125 7.28125 
Q 39.984375 7.28125 44.140625 8.890625 
Q 48.296875 10.5 50.3125 13.296875 
Q 52.34375 16.109375 52.34375 19.4375 
Q 52.34375 22.796875 50.390625 25.3125 
Q 48.4375 27.828125 43.953125 29.546875 
Q 41.0625 30.671875 31.203125 33.03125 
Q 21.34375 35.40625 17.390625 37.5 
Q 12.25 40.1875 9.734375 44.15625 
Q 7.234375 48.140625 7.234375 53.078125 
Q 7.234375 58.5 10.296875 63.203125 
Q 13.375 67.921875 19.28125 70.359375 
Q 25.203125 72.796875 32.421875 72.796875 
Q 40.375 72.796875 46.453125 70.234375 
Q 52.546875 67.671875 55.8125 62.6875 
Q 59.078125 57.71875 59.328125 51.421875 
L 50.25 50.734375 
Q 49.515625 57.515625 45.28125 60.984375 
Q 41.0625 64.453125 32.8125 64.453125 
Q 24.21875 64.453125 20.28125 61.296875 
Q 16.359375 58.15625 16.359375 53.71875 
Q 16.359375 49.859375 19.140625 47.359375 
Q 21.875 44.875 33.421875 42.265625 
Q 44.96875 39.65625 49.265625 37.703125 
Q 55.515625 34.8125 58.484375 30.390625 
Q 61.46875 25.984375 61.46875 20.21875 
Q 61.46875 14.5 58.203125 9.4375 
Q 54.9375 4.390625 48.796875 1.578125 
Q 42.671875 -1.21875 35.015625 -1.21875 
Q 25.296875 -1.21875 18.71875 1.609375 
Q 12.15625 4.4375 8.421875 10.125 
Q 4.6875 15.828125 4.5 23 
z
" id="ArialMT-83"/>
     </defs>
     <g style="fill:#262626;" transform="translate(626.969141 151.767656)scale(0.11 -0.11)">
      <use xlink:href="#ArialMT-83"/>
     </g>
    </g>
    <g id="line2d_52">
     <path d="M 596.169141 163.4775 
L 618.169141 163.4775 
" style="fill:none;stroke:#64b5cd;stroke-linecap:round;stroke-width:1.5;"/>
    </g>
    <g id="line2d_53">
     <defs>
      <path d="M 0 3 
C 0.795609 3 1.55874 2.683901 2.12132 2.12132 
C 2.683901 1.55874 3 0.795609 3 0 
C 3 -0.795609 2.683901 -1.55874 2.12132 -2.12132 
C 1.55874 -2.683901 0.795609 -3 0 -3 
C -0.795609 -3 -1.55874 -2.683901 -2.12132 -2.12132 
C -2.683901 -1.55874 -3 -0.795609 -3 0 
C -3 0.795609 -2.683901 1.55874 -2.12132 2.12132 
C -1.55874 2.683901 -0.795609 3 0 3 
z
" id="mbe9f5be216" style="stroke:#64b5cd;"/>
     </defs>
     <g>
      <use style="fill:#64b5cd;stroke:#64b5cd;" x="607.169141" xlink:href="#mbe9f5be216" y="163.4775"/>
     </g>
    </g>
    <g id="text_26">
     <!-- V -->
     <defs>
      <path d="M 28.171875 0 
L 0.4375 71.578125 
L 10.6875 71.578125 
L 29.296875 19.578125 
Q 31.546875 13.328125 33.0625 7.859375 
Q 34.71875 13.71875 36.921875 19.578125 
L 56.25 71.578125 
L 65.921875 71.578125 
L 37.890625 0 
z
" id="ArialMT-86"/>
     </defs>
     <g style="fill:#262626;" transform="translate(626.969141 167.3275)scale(0.11 -0.11)">
      <use xlink:href="#ArialMT-86"/>
     </g>
    </g>
    <g id="line2d_54">
     <path d="M 596.169141 179.037344 
L 618.169141 179.037344 
" style="fill:none;stroke:#8172b3;stroke-linecap:round;stroke-width:1.5;"/>
    </g>
    <g id="line2d_55">
     <defs>
      <path d="M 0 3 
C 0.795609 3 1.55874 2.683901 2.12132 2.12132 
C 2.683901 1.55874 3 0.795609 3 0 
C 3 -0.795609 2.683901 -1.55874 2.12132 -2.12132 
C 1.55874 -2.683901 0.795609 -3 0 -3 
C -0.795609 -3 -1.55874 -2.683901 -2.12132 -2.12132 
C -2.683901 -1.55874 -3 -0.795609 -3 0 
C -3 0.795609 -2.683901 1.55874 -2.12132 2.12132 
C -1.55874 2.683901 -0.795609 3 0 3 
z
" id="mb1a9f794aa" style="stroke:#8172b3;"/>
     </defs>
     <g>
      <use style="fill:#8172b3;stroke:#8172b3;" x="607.169141" xlink:href="#mb1a9f794aa" y="179.037344"/>
     </g>
    </g>
    <g id="text_27">
     <!-- W -->
     <defs>
      <path d="M 20.21875 0 
L 1.21875 71.578125 
L 10.9375 71.578125 
L 21.828125 24.65625 
Q 23.578125 17.28125 24.859375 10.015625 
Q 27.59375 21.484375 28.078125 23.25 
L 41.703125 71.578125 
L 53.125 71.578125 
L 63.375 35.359375 
Q 67.234375 21.875 68.953125 10.015625 
Q 70.3125 16.796875 72.515625 25.59375 
L 83.734375 71.578125 
L 93.265625 71.578125 
L 73.640625 0 
L 64.5 0 
L 49.421875 54.546875 
Q 47.515625 61.375 47.171875 62.9375 
Q 46.046875 58.015625 45.0625 54.546875 
L 29.890625 0 
z
" id="ArialMT-87"/>
     </defs>
     <g style="fill:#262626;" transform="translate(626.969141 182.887344)scale(0.11 -0.11)">
      <use xlink:href="#ArialMT-87"/>
     </g>
    </g>
   </g>
   <g id="Path3DCollection_5">
    <g clip-path="url(#pb9350c75d1)">
     <use style="fill:#c44e52;stroke:#c44e52;" x="299.704616" xlink:href="#m46d355b954" y="420.915711"/>
    </g>
   </g>
   <g id="Path3DCollection_6">
    <defs>
     <path d="M 0 2.236068 
C 0.593012 2.236068 1.161816 2.000462 1.581139 1.581139 
C 2.000462 1.161816 2.236068 0.593012 2.236068 0 
C 2.236068 -0.593012 2.000462 -1.161816 1.581139 -1.581139 
C 1.161816 -2.000462 0.593012 -2.236068 0 -2.236068 
C -0.593012 -2.236068 -1.161816 -2.000462 -1.581139 -1.581139 
C -2.000462 -1.161816 -2.236068 -0.593012 -2.236068 0 
C -2.236068 0.593012 -2.000462 1.161816 -1.581139 1.581139 
C -1.161816 2.000462 -0.593012 2.236068 0 2.236068 
z
" id="m178dc8582e" style="stroke:#64b5cd;"/>
    </defs>
    <g clip-path="url(#pb9350c75d1)">
     <use style="fill:#64b5cd;stroke:#64b5cd;" x="271.095338" xlink:href="#m178dc8582e" y="424.146993"/>
    </g>
   </g>
   <g id="Path3DCollection_7">
    <g clip-path="url(#pb9350c75d1)">
     <use style="fill:#4c72b0;stroke:#4c72b0;" x="298.094978" xlink:href="#m2e96a52a25" y="275.539208"/>
    </g>
   </g>
   <g id="Path3DCollection_8">
    <g clip-path="url(#pb9350c75d1)">
     <use style="fill:#c44e52;stroke:#c44e52;" x="276.183735" xlink:href="#m46d355b954" y="391.58211"/>
    </g>
   </g>
   <g id="Path3DCollection_9">
    <g clip-path="url(#pb9350c75d1)">
     <use style="fill:#4c72b0;stroke:#4c72b0;" x="274.91969" xlink:href="#m2e96a52a25" y="399.330202"/>
    </g>
   </g>
   <g id="Path3DCollection_10">
    <defs>
     <path d="M 0 2.236068 
C 0.593012 2.236068 1.161816 2.000462 1.581139 1.581139 
C 2.000462 1.161816 2.236068 0.593012 2.236068 0 
C 2.236068 -0.593012 2.000462 -1.161816 1.581139 -1.581139 
C 1.161816 -2.000462 0.593012 -2.236068 0 -2.236068 
C -0.593012 -2.236068 -1.161816 -2.000462 -1.581139 -1.581139 
C -2.000462 -1.161816 -2.236068 -0.593012 -2.236068 0 
C -2.236068 0.593012 -2.000462 1.161816 -1.581139 1.581139 
C -1.161816 2.000462 -0.593012 2.236068 0 2.236068 
z
" id="m67cd1c8e34" style="stroke:#8172b3;"/>
    </defs>
    <g clip-path="url(#pb9350c75d1)">
     <use style="fill:#8172b3;stroke:#8172b3;" x="484.252835" xlink:href="#m67cd1c8e34" y="288.736231"/>
    </g>
   </g>
   <g id="Path3DCollection_11">
    <g clip-path="url(#pb9350c75d1)">
     <use style="fill:#4c72b0;stroke:#4c72b0;" x="298.234782" xlink:href="#m2e96a52a25" y="362.761146"/>
    </g>
   </g>
   <g id="Path3DCollection_12">
    <g clip-path="url(#pb9350c75d1)">
     <use style="fill:#4c72b0;stroke:#4c72b0;" x="304.173483" xlink:href="#m2e96a52a25" y="298.843583"/>
    </g>
   </g>
   <g id="Path3DCollection_13">
    <g clip-path="url(#pb9350c75d1)">
     <use style="fill:#64b5cd;stroke:#64b5cd;" x="286.110114" xlink:href="#m178dc8582e" y="384.646009"/>
    </g>
   </g>
   <g id="Path3DCollection_14">
    <g clip-path="url(#pb9350c75d1)">
     <use style="fill:#8172b3;stroke:#8172b3;" x="420.025242" xlink:href="#m67cd1c8e34" y="319.62108"/>
    </g>
   </g>
   <g id="Path3DCollection_15">
    <g clip-path="url(#pb9350c75d1)">
     <use style="fill:#8172b3;stroke:#8172b3;" x="384.477321" xlink:href="#m67cd1c8e34" y="469.567899"/>
    </g>
   </g>
   <g id="Path3DCollection_16">
    <g clip-path="url(#pb9350c75d1)">
     <use style="fill:#c44e52;stroke:#c44e52;" x="290.261559" xlink:href="#m46d355b954" y="314.177962"/>
    </g>
   </g>
   <g id="Path3DCollection_17">
    <g clip-path="url(#pb9350c75d1)">
     <use style="fill:#4c72b0;stroke:#4c72b0;" x="267.648434" xlink:href="#m2e96a52a25" y="372.079632"/>
    </g>
   </g>
   <g id="Path3DCollection_18">
    <g clip-path="url(#pb9350c75d1)">
     <use style="fill:#64b5cd;stroke:#64b5cd;" x="282.182874" xlink:href="#m178dc8582e" y="390.203947"/>
    </g>
   </g>
   <g id="Path3DCollection_19">
    <g clip-path="url(#pb9350c75d1)">
     <use style="fill:#8172b3;stroke:#8172b3;" x="441.180742" xlink:href="#m67cd1c8e34" y="462.118411"/>
    </g>
   </g>
   <g id="Path3DCollection_20">
    <g clip-path="url(#pb9350c75d1)">
     <use style="fill:#4c72b0;stroke:#4c72b0;" x="262.78179" xlink:href="#m2e96a52a25" y="385.703621"/>
    </g>
   </g>
   <g id="Path3DCollection_21">
    <defs>
     <path d="M 0 2.236068 
C 0.593012 2.236068 1.161816 2.000462 1.581139 1.581139 
C 2.000462 1.161816 2.236068 0.593012 2.236068 0 
C 2.236068 -0.593012 2.000462 -1.161816 1.581139 -1.581139 
C 1.161816 -2.000462 0.593012 -2.236068 0 -2.236068 
C -0.593012 -2.236068 -1.161816 -2.000462 -1.581139 -1.581139 
C -2.000462 -1.161816 -2.236068 -0.593012 -2.236068 0 
C -2.236068 0.593012 -2.000462 1.161816 -1.581139 1.581139 
C -1.161816 2.000462 -0.593012 2.236068 0 2.236068 
z
" id="me9c6286c91" style="stroke:#55a868;"/>
    </defs>
    <g clip-path="url(#pb9350c75d1)">
     <use style="fill:#55a868;stroke:#55a868;" x="314.554207" xlink:href="#me9c6286c91" y="266.338171"/>
    </g>
   </g>
   <g id="Path3DCollection_22">
    <g clip-path="url(#pb9350c75d1)">
     <use style="fill:#c44e52;stroke:#c44e52;" x="279.573404" xlink:href="#m46d355b954" y="293.40213"/>
    </g>
   </g>
   <g id="Path3DCollection_23">
    <g clip-path="url(#pb9350c75d1)">
     <use style="fill:#55a868;stroke:#55a868;" x="313.819479" xlink:href="#me9c6286c91" y="272.537599"/>
    </g>
   </g>
   <g id="Path3DCollection_24">
    <g clip-path="url(#pb9350c75d1)">
     <use style="fill:#8172b3;stroke:#8172b3;" x="413.43279" xlink:href="#m67cd1c8e34" y="424.243499"/>
    </g>
   </g>
   <g id="Path3DCollection_25">
    <g clip-path="url(#pb9350c75d1)">
     <use style="fill:#8172b3;stroke:#8172b3;" x="376.129411" xlink:href="#m67cd1c8e34" y="420.934857"/>
    </g>
   </g>
   <g id="Path3DCollection_26">
    <g clip-path="url(#pb9350c75d1)">
     <use style="fill:#c44e52;stroke:#c44e52;" x="287.246076" xlink:href="#m46d355b954" y="391.370697"/>
    </g>
   </g>
   <g id="Path3DCollection_27">
    <g clip-path="url(#pb9350c75d1)">
     <use style="fill:#c44e52;stroke:#c44e52;" x="277.095674" xlink:href="#m46d355b954" y="261.123435"/>
    </g>
   </g>
   <g id="Path3DCollection_28">
    <g clip-path="url(#pb9350c75d1)">
     <use style="fill:#4c72b0;stroke:#4c72b0;" x="288.331894" xlink:href="#m2e96a52a25" y="263.602004"/>
    </g>
   </g>
   <g id="Path3DCollection_29">
    <g clip-path="url(#pb9350c75d1)">
     <use style="fill:#64b5cd;stroke:#64b5cd;" x="244.537269" xlink:href="#m178dc8582e" y="401.146444"/>
    </g>
   </g>
   <g id="Path3DCollection_30">
    <g clip-path="url(#pb9350c75d1)">
     <use style="fill:#4c72b0;stroke:#4c72b0;" x="247.922179" xlink:href="#m2e96a52a25" y="357.455294"/>
    </g>
   </g>
   <g id="Path3DCollection_31">
    <g clip-path="url(#pb9350c75d1)">
     <use style="fill:#8172b3;stroke:#8172b3;" x="396.768118" xlink:href="#m67cd1c8e34" y="307.596193"/>
    </g>
   </g>
   <g id="Path3DCollection_32">
    <g clip-path="url(#pb9350c75d1)">
     <use style="fill:#64b5cd;stroke:#64b5cd;" x="266.595564" xlink:href="#m178dc8582e" y="378.539693"/>
    </g>
   </g>
   <g id="Path3DCollection_33">
    <g clip-path="url(#pb9350c75d1)">
     <use style="fill:#55a868;stroke:#55a868;" x="270.168707" xlink:href="#me9c6286c91" y="363.580952"/>
    </g>
   </g>
   <g id="Path3DCollection_34">
    <g clip-path="url(#pb9350c75d1)">
     <use style="fill:#55a868;stroke:#55a868;" x="275.17945" xlink:href="#me9c6286c91" y="377.053877"/>
    </g>
   </g>
   <g id="Path3DCollection_35">
    <g clip-path="url(#pb9350c75d1)">
     <use style="fill:#64b5cd;stroke:#64b5cd;" x="276.501987" xlink:href="#m178dc8582e" y="264.329259"/>
    </g>
   </g>
   <g id="Path3DCollection_36">
    <g clip-path="url(#pb9350c75d1)">
     <use style="fill:#c44e52;stroke:#c44e52;" x="265.942456" xlink:href="#m46d355b954" y="204.129375"/>
    </g>
   </g>
   <g id="Path3DCollection_37">
    <g clip-path="url(#pb9350c75d1)">
     <use style="fill:#64b5cd;stroke:#64b5cd;" x="230.766052" xlink:href="#m178dc8582e" y="361.49798"/>
    </g>
   </g>
   <g id="Path3DCollection_38">
    <g clip-path="url(#pb9350c75d1)">
     <use style="fill:#55a868;stroke:#55a868;" x="282.828597" xlink:href="#me9c6286c91" y="369.259046"/>
    </g>
   </g>
   <g id="Path3DCollection_39">
    <g clip-path="url(#pb9350c75d1)">
     <use style="fill:#64b5cd;stroke:#64b5cd;" x="258.224527" xlink:href="#m178dc8582e" y="356.547117"/>
    </g>
   </g>
   <g id="Path3DCollection_40">
    <g clip-path="url(#pb9350c75d1)">
     <use style="fill:#55a868;stroke:#55a868;" x="261.497372" xlink:href="#me9c6286c91" y="363.584979"/>
    </g>
   </g>
   <g id="Path3DCollection_41">
    <g clip-path="url(#pb9350c75d1)">
     <use style="fill:#64b5cd;stroke:#64b5cd;" x="273.0911" xlink:href="#m178dc8582e" y="353.839322"/>
    </g>
   </g>
   <g id="Path3DCollection_42">
    <g clip-path="url(#pb9350c75d1)">
     <use style="fill:#8172b3;stroke:#8172b3;" x="414.584419" xlink:href="#m67cd1c8e34" y="386.161797"/>
    </g>
   </g>
   <g id="Path3DCollection_43">
    <g clip-path="url(#pb9350c75d1)">
     <use style="fill:#55a868;stroke:#55a868;" x="292.600286" xlink:href="#me9c6286c91" y="247.504773"/>
    </g>
   </g>
   <g id="Path3DCollection_44">
    <g clip-path="url(#pb9350c75d1)">
     <use style="fill:#64b5cd;stroke:#64b5cd;" x="252.389056" xlink:href="#m178dc8582e" y="351.785246"/>
    </g>
   </g>
   <g id="Path3DCollection_45">
    <g clip-path="url(#pb9350c75d1)">
     <use style="fill:#55a868;stroke:#55a868;" x="271.624557" xlink:href="#me9c6286c91" y="262.128895"/>
    </g>
   </g>
   <g id="Path3DCollection_46">
    <g clip-path="url(#pb9350c75d1)">
     <use style="fill:#8172b3;stroke:#8172b3;" x="407.673719" xlink:href="#m67cd1c8e34" y="344.601259"/>
    </g>
   </g>
   <g id="Path3DCollection_47">
    <g clip-path="url(#pb9350c75d1)">
     <use style="fill:#8172b3;stroke:#8172b3;" x="430.879884" xlink:href="#m67cd1c8e34" y="324.385535"/>
    </g>
   </g>
  </g>
 </g>
 <defs>
  <clipPath id="pb9350c75d1">
   <rect height="543.6" width="558" x="90" y="86.4"/>
  </clipPath>
 </defs>
</svg>
