<?xml version="1.0" encoding="utf-8" standalone="no"?>
<!DOCTYPE svg PUBLIC "-//W3C//DTD SVG 1.1//EN"
  "http://www.w3.org/Graphics/SVG/1.1/DTD/svg11.dtd">
<!-- Created with matplotlib (https://matplotlib.org/) -->
<svg height="720pt" version="1.1" viewBox="0 0 720 720" width="720pt" xmlns="http://www.w3.org/2000/svg" xmlns:xlink="http://www.w3.org/1999/xlink">
 <defs>
  <style type="text/css">
*{stroke-linecap:butt;stroke-linejoin:round;}
  </style>
 </defs>
 <g id="figure_1">
  <g id="patch_1">
   <path d="M 0 720 
L 720 720 
L 720 0 
L 0 0 
z
" style="fill:#ffffff;"/>
  </g>
  <g id="axes_1">
   <g id="patch_2">
    <path d="M 90 630 
L 648 630 
L 648 86.4 
L 90 86.4 
z
" style="fill:#eaeaf2;"/>
   </g>
   <g id="matplotlib.axis_1">
    <g id="xtick_1">
     <g id="line2d_1">
      <path clip-path="url(#p1f89e68830)" d="M 131.047331 630 
L 131.047331 86.4 
" style="fill:none;stroke:#ffffff;stroke-linecap:round;"/>
     </g>
     <g id="text_1">
      <!-- −2 -->
      <defs>
       <path d="M 52.828125 31.203125 
L 5.5625 31.203125 
L 5.5625 39.40625 
L 52.828125 39.40625 
z
" id="ArialMT-8722"/>
       <path d="M 50.34375 8.453125 
L 50.34375 0 
L 3.03125 0 
Q 2.9375 3.171875 4.046875 6.109375 
Q 5.859375 10.9375 9.828125 15.625 
Q 13.8125 20.3125 21.34375 26.46875 
Q 33.015625 36.03125 37.109375 41.625 
Q 41.21875 47.21875 41.21875 52.203125 
Q 41.21875 57.421875 37.46875 61 
Q 33.734375 64.59375 27.734375 64.59375 
Q 21.390625 64.59375 17.578125 60.78125 
Q 13.765625 56.984375 13.71875 50.25 
L 4.6875 51.171875 
Q 5.609375 61.28125 11.65625 66.578125 
Q 17.71875 71.875 27.9375 71.875 
Q 38.234375 71.875 44.234375 66.15625 
Q 50.25 60.453125 50.25 52 
Q 50.25 47.703125 48.484375 43.546875 
Q 46.734375 39.40625 42.65625 34.8125 
Q 38.578125 30.21875 29.109375 22.21875 
Q 21.1875 15.578125 18.9375 13.203125 
Q 16.703125 10.84375 15.234375 8.453125 
z
" id="ArialMT-50"/>
      </defs>
      <g style="fill:#262626;" transform="translate(124.776472 647.373594)scale(0.11 -0.11)">
       <use xlink:href="#ArialMT-8722"/>
       <use x="58.398438" xlink:href="#ArialMT-50"/>
      </g>
     </g>
    </g>
    <g id="xtick_2">
     <g id="line2d_2">
      <path clip-path="url(#p1f89e68830)" d="M 195.737477 630 
L 195.737477 86.4 
" style="fill:none;stroke:#ffffff;stroke-linecap:round;"/>
     </g>
     <g id="text_2">
      <!-- 0 -->
      <defs>
       <path d="M 4.15625 35.296875 
Q 4.15625 48 6.765625 55.734375 
Q 9.375 63.484375 14.515625 67.671875 
Q 19.671875 71.875 27.484375 71.875 
Q 33.25 71.875 37.59375 69.546875 
Q 41.9375 67.234375 44.765625 62.859375 
Q 47.609375 58.5 49.21875 52.21875 
Q 50.828125 45.953125 50.828125 35.296875 
Q 50.828125 22.703125 48.234375 14.96875 
Q 45.65625 7.234375 40.5 3 
Q 35.359375 -1.21875 27.484375 -1.21875 
Q 17.140625 -1.21875 11.234375 6.203125 
Q 4.15625 15.140625 4.15625 35.296875 
z
M 13.1875 35.296875 
Q 13.1875 17.671875 17.3125 11.828125 
Q 21.4375 6 27.484375 6 
Q 33.546875 6 37.671875 11.859375 
Q 41.796875 17.71875 41.796875 35.296875 
Q 41.796875 52.984375 37.671875 58.78125 
Q 33.546875 64.59375 27.390625 64.59375 
Q 21.34375 64.59375 17.71875 59.46875 
Q 13.1875 52.9375 13.1875 35.296875 
z
" id="ArialMT-48"/>
      </defs>
      <g style="fill:#262626;" transform="translate(192.678962 647.373594)scale(0.11 -0.11)">
       <use xlink:href="#ArialMT-48"/>
      </g>
     </g>
    </g>
    <g id="xtick_3">
     <g id="line2d_3">
      <path clip-path="url(#p1f89e68830)" d="M 260.427624 630 
L 260.427624 86.4 
" style="fill:none;stroke:#ffffff;stroke-linecap:round;"/>
     </g>
     <g id="text_3">
      <!-- 2 -->
      <g style="fill:#262626;" transform="translate(257.369108 647.373594)scale(0.11 -0.11)">
       <use xlink:href="#ArialMT-50"/>
      </g>
     </g>
    </g>
    <g id="xtick_4">
     <g id="line2d_4">
      <path clip-path="url(#p1f89e68830)" d="M 325.11777 630 
L 325.11777 86.4 
" style="fill:none;stroke:#ffffff;stroke-linecap:round;"/>
     </g>
     <g id="text_4">
      <!-- 4 -->
      <defs>
       <path d="M 32.328125 0 
L 32.328125 17.140625 
L 1.265625 17.140625 
L 1.265625 25.203125 
L 33.9375 71.578125 
L 41.109375 71.578125 
L 41.109375 25.203125 
L 50.78125 25.203125 
L 50.78125 17.140625 
L 41.109375 17.140625 
L 41.109375 0 
z
M 32.328125 25.203125 
L 32.328125 57.46875 
L 9.90625 25.203125 
z
" id="ArialMT-52"/>
      </defs>
      <g style="fill:#262626;" transform="translate(322.059254 647.373594)scale(0.11 -0.11)">
       <use xlink:href="#ArialMT-52"/>
      </g>
     </g>
    </g>
    <g id="xtick_5">
     <g id="line2d_5">
      <path clip-path="url(#p1f89e68830)" d="M 389.807916 630 
L 389.807916 86.4 
" style="fill:none;stroke:#ffffff;stroke-linecap:round;"/>
     </g>
     <g id="text_5">
      <!-- 6 -->
      <defs>
       <path d="M 49.75 54.046875 
L 41.015625 53.375 
Q 39.84375 58.546875 37.703125 60.890625 
Q 34.125 64.65625 28.90625 64.65625 
Q 24.703125 64.65625 21.53125 62.3125 
Q 17.390625 59.28125 14.984375 53.46875 
Q 12.59375 47.65625 12.5 36.921875 
Q 15.671875 41.75 20.265625 44.09375 
Q 24.859375 46.4375 29.890625 46.4375 
Q 38.671875 46.4375 44.84375 39.96875 
Q 51.03125 33.5 51.03125 23.25 
Q 51.03125 16.5 48.125 10.71875 
Q 45.21875 4.9375 40.140625 1.859375 
Q 35.0625 -1.21875 28.609375 -1.21875 
Q 17.625 -1.21875 10.6875 6.859375 
Q 3.765625 14.9375 3.765625 33.5 
Q 3.765625 54.25 11.421875 63.671875 
Q 18.109375 71.875 29.4375 71.875 
Q 37.890625 71.875 43.28125 67.140625 
Q 48.6875 62.40625 49.75 54.046875 
z
M 13.875 23.1875 
Q 13.875 18.65625 15.796875 14.5 
Q 17.71875 10.359375 21.1875 8.171875 
Q 24.65625 6 28.46875 6 
Q 34.03125 6 38.03125 10.484375 
Q 42.046875 14.984375 42.046875 22.703125 
Q 42.046875 30.125 38.078125 34.390625 
Q 34.125 38.671875 28.125 38.671875 
Q 22.171875 38.671875 18.015625 34.390625 
Q 13.875 30.125 13.875 23.1875 
z
" id="ArialMT-54"/>
      </defs>
      <g style="fill:#262626;" transform="translate(386.7494 647.373594)scale(0.11 -0.11)">
       <use xlink:href="#ArialMT-54"/>
      </g>
     </g>
    </g>
    <g id="xtick_6">
     <g id="line2d_6">
      <path clip-path="url(#p1f89e68830)" d="M 454.498062 630 
L 454.498062 86.4 
" style="fill:none;stroke:#ffffff;stroke-linecap:round;"/>
     </g>
     <g id="text_6">
      <!-- 8 -->
      <defs>
       <path d="M 17.671875 38.8125 
Q 12.203125 40.828125 9.5625 44.53125 
Q 6.9375 48.25 6.9375 53.421875 
Q 6.9375 61.234375 12.546875 66.546875 
Q 18.171875 71.875 27.484375 71.875 
Q 36.859375 71.875 42.578125 66.421875 
Q 48.296875 60.984375 48.296875 53.171875 
Q 48.296875 48.1875 45.671875 44.5 
Q 43.0625 40.828125 37.75 38.8125 
Q 44.34375 36.671875 47.78125 31.875 
Q 51.21875 27.09375 51.21875 20.453125 
Q 51.21875 11.28125 44.71875 5.03125 
Q 38.234375 -1.21875 27.640625 -1.21875 
Q 17.046875 -1.21875 10.546875 5.046875 
Q 4.046875 11.328125 4.046875 20.703125 
Q 4.046875 27.6875 7.59375 32.390625 
Q 11.140625 37.109375 17.671875 38.8125 
z
M 15.921875 53.71875 
Q 15.921875 48.640625 19.1875 45.40625 
Q 22.46875 42.1875 27.6875 42.1875 
Q 32.765625 42.1875 36.015625 45.375 
Q 39.265625 48.578125 39.265625 53.21875 
Q 39.265625 58.0625 35.90625 61.359375 
Q 32.5625 64.65625 27.59375 64.65625 
Q 22.5625 64.65625 19.234375 61.421875 
Q 15.921875 58.203125 15.921875 53.71875 
z
M 13.09375 20.65625 
Q 13.09375 16.890625 14.875 13.375 
Q 16.65625 9.859375 20.171875 7.921875 
Q 23.6875 6 27.734375 6 
Q 34.03125 6 38.125 10.046875 
Q 42.234375 14.109375 42.234375 20.359375 
Q 42.234375 26.703125 38.015625 30.859375 
Q 33.796875 35.015625 27.4375 35.015625 
Q 21.234375 35.015625 17.15625 30.90625 
Q 13.09375 26.8125 13.09375 20.65625 
z
" id="ArialMT-56"/>
      </defs>
      <g style="fill:#262626;" transform="translate(451.439547 647.373594)scale(0.11 -0.11)">
       <use xlink:href="#ArialMT-56"/>
      </g>
     </g>
    </g>
    <g id="xtick_7">
     <g id="line2d_7">
      <path clip-path="url(#p1f89e68830)" d="M 519.188208 630 
L 519.188208 86.4 
" style="fill:none;stroke:#ffffff;stroke-linecap:round;"/>
     </g>
     <g id="text_7">
      <!-- 10 -->
      <defs>
       <path d="M 37.25 0 
L 28.46875 0 
L 28.46875 56 
Q 25.296875 52.984375 20.140625 49.953125 
Q 14.984375 46.921875 10.890625 45.40625 
L 10.890625 53.90625 
Q 18.265625 57.375 23.78125 62.296875 
Q 29.296875 67.234375 31.59375 71.875 
L 37.25 71.875 
z
" id="ArialMT-49"/>
      </defs>
      <g style="fill:#262626;" transform="translate(513.071177 647.373594)scale(0.11 -0.11)">
       <use xlink:href="#ArialMT-49"/>
       <use x="55.615234" xlink:href="#ArialMT-48"/>
      </g>
     </g>
    </g>
    <g id="xtick_8">
     <g id="line2d_8">
      <path clip-path="url(#p1f89e68830)" d="M 583.878355 630 
L 583.878355 86.4 
" style="fill:none;stroke:#ffffff;stroke-linecap:round;"/>
     </g>
     <g id="text_8">
      <!-- 12 -->
      <g style="fill:#262626;" transform="translate(577.761323 647.373594)scale(0.11 -0.11)">
       <use xlink:href="#ArialMT-49"/>
       <use x="55.615234" xlink:href="#ArialMT-50"/>
      </g>
     </g>
    </g>
   </g>
   <g id="matplotlib.axis_2">
    <g id="ytick_1">
     <g id="line2d_9">
      <path clip-path="url(#p1f89e68830)" d="M 90 571.677674 
L 648 571.677674 
" style="fill:none;stroke:#ffffff;stroke-linecap:round;"/>
     </g>
     <g id="text_9">
      <!-- −1.5 -->
      <defs>
       <path d="M 9.078125 0 
L 9.078125 10.015625 
L 19.09375 10.015625 
L 19.09375 0 
z
" id="ArialMT-46"/>
       <path d="M 4.15625 18.75 
L 13.375 19.53125 
Q 14.40625 12.796875 18.140625 9.390625 
Q 21.875 6 27.15625 6 
Q 33.5 6 37.890625 10.78125 
Q 42.28125 15.578125 42.28125 23.484375 
Q 42.28125 31 38.0625 35.34375 
Q 33.84375 39.703125 27 39.703125 
Q 22.75 39.703125 19.328125 37.765625 
Q 15.921875 35.84375 13.96875 32.765625 
L 5.71875 33.84375 
L 12.640625 70.609375 
L 48.25 70.609375 
L 48.25 62.203125 
L 19.671875 62.203125 
L 15.828125 42.96875 
Q 22.265625 47.46875 29.34375 47.46875 
Q 38.71875 47.46875 45.15625 40.96875 
Q 51.609375 34.46875 51.609375 24.265625 
Q 51.609375 14.546875 45.953125 7.46875 
Q 39.0625 -1.21875 27.15625 -1.21875 
Q 17.390625 -1.21875 11.203125 4.25 
Q 5.03125 9.71875 4.15625 18.75 
z
" id="ArialMT-53"/>
      </defs>
      <g style="fill:#262626;" transform="translate(58.785313 575.614471)scale(0.11 -0.11)">
       <use xlink:href="#ArialMT-8722"/>
       <use x="58.398438" xlink:href="#ArialMT-49"/>
       <use x="114.013672" xlink:href="#ArialMT-46"/>
       <use x="141.796875" xlink:href="#ArialMT-53"/>
      </g>
     </g>
    </g>
    <g id="ytick_2">
     <g id="line2d_10">
      <path clip-path="url(#p1f89e68830)" d="M 90 509.034336 
L 648 509.034336 
" style="fill:none;stroke:#ffffff;stroke-linecap:round;"/>
     </g>
     <g id="text_10">
      <!-- −1.0 -->
      <g style="fill:#262626;" transform="translate(58.785313 512.971133)scale(0.11 -0.11)">
       <use xlink:href="#ArialMT-8722"/>
       <use x="58.398438" xlink:href="#ArialMT-49"/>
       <use x="114.013672" xlink:href="#ArialMT-46"/>
       <use x="141.796875" xlink:href="#ArialMT-48"/>
      </g>
     </g>
    </g>
    <g id="ytick_3">
     <g id="line2d_11">
      <path clip-path="url(#p1f89e68830)" d="M 90 446.390998 
L 648 446.390998 
" style="fill:none;stroke:#ffffff;stroke-linecap:round;"/>
     </g>
     <g id="text_11">
      <!-- −0.5 -->
      <g style="fill:#262626;" transform="translate(58.785313 450.327795)scale(0.11 -0.11)">
       <use xlink:href="#ArialMT-8722"/>
       <use x="58.398438" xlink:href="#ArialMT-48"/>
       <use x="114.013672" xlink:href="#ArialMT-46"/>
       <use x="141.796875" xlink:href="#ArialMT-53"/>
      </g>
     </g>
    </g>
    <g id="ytick_4">
     <g id="line2d_12">
      <path clip-path="url(#p1f89e68830)" d="M 90 383.747661 
L 648 383.747661 
" style="fill:none;stroke:#ffffff;stroke-linecap:round;"/>
     </g>
     <g id="text_12">
      <!-- 0.0 -->
      <g style="fill:#262626;" transform="translate(65.21 387.684458)scale(0.11 -0.11)">
       <use xlink:href="#ArialMT-48"/>
       <use x="55.615234" xlink:href="#ArialMT-46"/>
       <use x="83.398438" xlink:href="#ArialMT-48"/>
      </g>
     </g>
    </g>
    <g id="ytick_5">
     <g id="line2d_13">
      <path clip-path="url(#p1f89e68830)" d="M 90 321.104323 
L 648 321.104323 
" style="fill:none;stroke:#ffffff;stroke-linecap:round;"/>
     </g>
     <g id="text_13">
      <!-- 0.5 -->
      <g style="fill:#262626;" transform="translate(65.21 325.04112)scale(0.11 -0.11)">
       <use xlink:href="#ArialMT-48"/>
       <use x="55.615234" xlink:href="#ArialMT-46"/>
       <use x="83.398438" xlink:href="#ArialMT-53"/>
      </g>
     </g>
    </g>
    <g id="ytick_6">
     <g id="line2d_14">
      <path clip-path="url(#p1f89e68830)" d="M 90 258.460986 
L 648 258.460986 
" style="fill:none;stroke:#ffffff;stroke-linecap:round;"/>
     </g>
     <g id="text_14">
      <!-- 1.0 -->
      <g style="fill:#262626;" transform="translate(65.21 262.397783)scale(0.11 -0.11)">
       <use xlink:href="#ArialMT-49"/>
       <use x="55.615234" xlink:href="#ArialMT-46"/>
       <use x="83.398438" xlink:href="#ArialMT-48"/>
      </g>
     </g>
    </g>
    <g id="ytick_7">
     <g id="line2d_15">
      <path clip-path="url(#p1f89e68830)" d="M 90 195.817648 
L 648 195.817648 
" style="fill:none;stroke:#ffffff;stroke-linecap:round;"/>
     </g>
     <g id="text_15">
      <!-- 1.5 -->
      <g style="fill:#262626;" transform="translate(65.21 199.754445)scale(0.11 -0.11)">
       <use xlink:href="#ArialMT-49"/>
       <use x="55.615234" xlink:href="#ArialMT-46"/>
       <use x="83.398438" xlink:href="#ArialMT-53"/>
      </g>
     </g>
    </g>
    <g id="ytick_8">
     <g id="line2d_16">
      <path clip-path="url(#p1f89e68830)" d="M 90 133.17431 
L 648 133.17431 
" style="fill:none;stroke:#ffffff;stroke-linecap:round;"/>
     </g>
     <g id="text_16">
      <!-- 2.0 -->
      <g style="fill:#262626;" transform="translate(65.21 137.111107)scale(0.11 -0.11)">
       <use xlink:href="#ArialMT-50"/>
       <use x="55.615234" xlink:href="#ArialMT-46"/>
       <use x="83.398438" xlink:href="#ArialMT-48"/>
      </g>
     </g>
    </g>
   </g>
   <g id="PathCollection_1">
    <defs>
     <path d="M 0 3 
C 0.795609 3 1.55874 2.683901 2.12132 2.12132 
C 2.683901 1.55874 3 0.795609 3 0 
C 3 -0.795609 2.683901 -1.55874 2.12132 -2.12132 
C 1.55874 -2.683901 0.795609 -3 0 -3 
C -0.795609 -3 -1.55874 -2.683901 -2.12132 -2.12132 
C -2.683901 -1.55874 -3 -0.795609 -3 0 
C -3 0.795609 -2.683901 1.55874 -2.12132 2.12132 
C -1.55874 2.683901 -0.795609 3 0 3 
z
" id="C0_0_9d2cd9f70d"/>
    </defs>
    <g clip-path="url(#p1f89e68830)">
     <use style="fill:#800080;stroke:#800080;" x="322.334256" xlink:href="#C0_0_9d2cd9f70d" y="321.631754"/>
    </g>
    <g clip-path="url(#p1f89e68830)">
     <use style="fill:#800080;stroke:#800080;" x="235.828112" xlink:href="#C0_0_9d2cd9f70d" y="253.991566"/>
    </g>
    <g clip-path="url(#p1f89e68830)">
     <use style="fill:#800080;stroke:#800080;" x="238.340311" xlink:href="#C0_0_9d2cd9f70d" y="256.93131"/>
    </g>
    <g clip-path="url(#p1f89e68830)">
     <use style="fill:#800080;stroke:#800080;" x="295.75568" xlink:href="#C0_0_9d2cd9f70d" y="325.059518"/>
    </g>
    <g clip-path="url(#p1f89e68830)">
     <use style="fill:#800080;stroke:#800080;" x="267.02952" xlink:href="#C0_0_9d2cd9f70d" y="300.913047"/>
    </g>
    <g clip-path="url(#p1f89e68830)">
     <use style="fill:#800080;stroke:#800080;" x="237.908149" xlink:href="#C0_0_9d2cd9f70d" y="266.34176"/>
    </g>
    <g clip-path="url(#p1f89e68830)">
     <use style="fill:#800080;stroke:#800080;" x="265.257059" xlink:href="#C0_0_9d2cd9f70d" y="282.14628"/>
    </g>
    <g clip-path="url(#p1f89e68830)">
     <use style="fill:#800080;stroke:#800080;" x="270.575984" xlink:href="#C0_0_9d2cd9f70d" y="284.942175"/>
    </g>
    <g clip-path="url(#p1f89e68830)">
     <use style="fill:#ffc0cb;stroke:#ffc0cb;" x="246.328801" xlink:href="#C0_0_9d2cd9f70d" y="303.532489"/>
    </g>
    <g clip-path="url(#p1f89e68830)">
     <use style="fill:#ffc0cb;stroke:#ffc0cb;" x="221.485378" xlink:href="#C0_0_9d2cd9f70d" y="273.439494"/>
    </g>
    <g clip-path="url(#p1f89e68830)">
     <use style="fill:#ffc0cb;stroke:#ffc0cb;" x="230.135666" xlink:href="#C0_0_9d2cd9f70d" y="282.758381"/>
    </g>
    <g clip-path="url(#p1f89e68830)">
     <use style="fill:#ffc0cb;stroke:#ffc0cb;" x="237.472005" xlink:href="#C0_0_9d2cd9f70d" y="318.681644"/>
    </g>
    <g clip-path="url(#p1f89e68830)">
     <use style="fill:#ffc0cb;stroke:#ffc0cb;" x="269.993433" xlink:href="#C0_0_9d2cd9f70d" y="330.902477"/>
    </g>
    <g clip-path="url(#p1f89e68830)">
     <use style="fill:#ffc0cb;stroke:#ffc0cb;" x="216.002899" xlink:href="#C0_0_9d2cd9f70d" y="264.894621"/>
    </g>
    <g clip-path="url(#p1f89e68830)">
     <use style="fill:#ffc0cb;stroke:#ffc0cb;" x="229.489426" xlink:href="#C0_0_9d2cd9f70d" y="283.037097"/>
    </g>
    <g clip-path="url(#p1f89e68830)">
     <use style="fill:#ffc0cb;stroke:#ffc0cb;" x="225.786795" xlink:href="#C0_0_9d2cd9f70d" y="286.188204"/>
    </g>
    <g clip-path="url(#p1f89e68830)">
     <use style="fill:#ee82ee;stroke:#ee82ee;" x="342.511276" xlink:href="#C0_0_9d2cd9f70d" y="355.910391"/>
    </g>
    <g clip-path="url(#p1f89e68830)">
     <use style="fill:#ee82ee;stroke:#ee82ee;" x="294.876233" xlink:href="#C0_0_9d2cd9f70d" y="315.924153"/>
    </g>
    <g clip-path="url(#p1f89e68830)">
     <use style="fill:#ee82ee;stroke:#ee82ee;" x="284.541264" xlink:href="#C0_0_9d2cd9f70d" y="307.298379"/>
    </g>
    <g clip-path="url(#p1f89e68830)">
     <use style="fill:#ee82ee;stroke:#ee82ee;" x="335.270717" xlink:href="#C0_0_9d2cd9f70d" y="372.185897"/>
    </g>
    <g clip-path="url(#p1f89e68830)">
     <use style="fill:#ee82ee;stroke:#ee82ee;" x="335.757266" xlink:href="#C0_0_9d2cd9f70d" y="364.537449"/>
    </g>
    <g clip-path="url(#p1f89e68830)">
     <use style="fill:#ee82ee;stroke:#ee82ee;" x="266.902073" xlink:href="#C0_0_9d2cd9f70d" y="293.773359"/>
    </g>
    <g clip-path="url(#p1f89e68830)">
     <use style="fill:#ee82ee;stroke:#ee82ee;" x="275.616317" xlink:href="#C0_0_9d2cd9f70d" y="298.190919"/>
    </g>
    <g clip-path="url(#p1f89e68830)">
     <use style="fill:#ee82ee;stroke:#ee82ee;" x="288.928962" xlink:href="#C0_0_9d2cd9f70d" y="310.424996"/>
    </g>
    <g clip-path="url(#p1f89e68830)">
     <use style="fill:#ffffff;stroke:#ffffff;" x="117.518176" xlink:href="#C0_0_9d2cd9f70d" y="144.754486"/>
    </g>
    <g clip-path="url(#p1f89e68830)">
     <use style="fill:#ffffff;stroke:#ffffff;" x="125.034601" xlink:href="#C0_0_9d2cd9f70d" y="168.38139"/>
    </g>
    <g clip-path="url(#p1f89e68830)">
     <use style="fill:#ffffff;stroke:#ffffff;" x="120.564127" xlink:href="#C0_0_9d2cd9f70d" y="151.130534"/>
    </g>
    <g clip-path="url(#p1f89e68830)">
     <use style="fill:#ffffff;stroke:#ffffff;" x="118.848529" xlink:href="#C0_0_9d2cd9f70d" y="165.734566"/>
    </g>
    <g clip-path="url(#p1f89e68830)">
     <use style="fill:#ffffff;stroke:#ffffff;" x="119.200925" xlink:href="#C0_0_9d2cd9f70d" y="147.105005"/>
    </g>
    <g clip-path="url(#p1f89e68830)">
     <use style="fill:#ffffff;stroke:#ffffff;" x="118.245687" xlink:href="#C0_0_9d2cd9f70d" y="124.695883"/>
    </g>
    <g clip-path="url(#p1f89e68830)">
     <use style="fill:#ffffff;stroke:#ffffff;" x="120.165328" xlink:href="#C0_0_9d2cd9f70d" y="112.91563"/>
    </g>
    <g clip-path="url(#p1f89e68830)">
     <use style="fill:#ffffff;stroke:#ffffff;" x="122.927158" xlink:href="#C0_0_9d2cd9f70d" y="111.109091"/>
    </g>
    <g clip-path="url(#p1f89e68830)">
     <use style="fill:#4c72b0;stroke:#4c72b0;" x="119.95432" xlink:href="#C0_0_9d2cd9f70d" y="541.336504"/>
    </g>
    <g clip-path="url(#p1f89e68830)">
     <use style="fill:#4c72b0;stroke:#4c72b0;" x="120.921137" xlink:href="#C0_0_9d2cd9f70d" y="531.351037"/>
    </g>
    <g clip-path="url(#p1f89e68830)">
     <use style="fill:#4c72b0;stroke:#4c72b0;" x="124.428943" xlink:href="#C0_0_9d2cd9f70d" y="538.44582"/>
    </g>
    <g clip-path="url(#p1f89e68830)">
     <use style="fill:#4c72b0;stroke:#4c72b0;" x="125.221701" xlink:href="#C0_0_9d2cd9f70d" y="586.369103"/>
    </g>
    <g clip-path="url(#p1f89e68830)">
     <use style="fill:#4c72b0;stroke:#4c72b0;" x="121.985595" xlink:href="#C0_0_9d2cd9f70d" y="553.924724"/>
    </g>
    <g clip-path="url(#p1f89e68830)">
     <use style="fill:#4c72b0;stroke:#4c72b0;" x="119.093518" xlink:href="#C0_0_9d2cd9f70d" y="544.724887"/>
    </g>
    <g clip-path="url(#p1f89e68830)">
     <use style="fill:#4c72b0;stroke:#4c72b0;" x="115.962317" xlink:href="#C0_0_9d2cd9f70d" y="535.140617"/>
    </g>
    <g clip-path="url(#p1f89e68830)">
     <use style="fill:#4c72b0;stroke:#4c72b0;" x="117.845997" xlink:href="#C0_0_9d2cd9f70d" y="534.230637"/>
    </g>
    <g clip-path="url(#p1f89e68830)">
     <use style="fill:#64b5cd;stroke:#64b5cd;" x="126.136381" xlink:href="#C0_0_9d2cd9f70d" y="585.496214"/>
    </g>
    <g clip-path="url(#p1f89e68830)">
     <use style="fill:#64b5cd;stroke:#64b5cd;" x="122.438082" xlink:href="#C0_0_9d2cd9f70d" y="534.356867"/>
    </g>
    <g clip-path="url(#p1f89e68830)">
     <use style="fill:#64b5cd;stroke:#64b5cd;" x="134.137488" xlink:href="#C0_0_9d2cd9f70d" y="553.114801"/>
    </g>
    <g clip-path="url(#p1f89e68830)">
     <use style="fill:#64b5cd;stroke:#64b5cd;" x="131.85572" xlink:href="#C0_0_9d2cd9f70d" y="555.699386"/>
    </g>
    <g clip-path="url(#p1f89e68830)">
     <use style="fill:#64b5cd;stroke:#64b5cd;" x="132.307851" xlink:href="#C0_0_9d2cd9f70d" y="587.6661"/>
    </g>
    <g clip-path="url(#p1f89e68830)">
     <use style="fill:#64b5cd;stroke:#64b5cd;" x="122.980614" xlink:href="#C0_0_9d2cd9f70d" y="539.209801"/>
    </g>
    <g clip-path="url(#p1f89e68830)">
     <use style="fill:#64b5cd;stroke:#64b5cd;" x="126.204162" xlink:href="#C0_0_9d2cd9f70d" y="537.547786"/>
    </g>
    <g clip-path="url(#p1f89e68830)">
     <use style="fill:#64b5cd;stroke:#64b5cd;" x="124.805483" xlink:href="#C0_0_9d2cd9f70d" y="542.717992"/>
    </g>
    <g clip-path="url(#p1f89e68830)">
     <use style="fill:#d2691e;stroke:#d2691e;" x="140.207539" xlink:href="#C0_0_9d2cd9f70d" y="216.479607"/>
    </g>
    <g clip-path="url(#p1f89e68830)">
     <use style="fill:#d2691e;stroke:#d2691e;" x="139.017648" xlink:href="#C0_0_9d2cd9f70d" y="198.080473"/>
    </g>
    <g clip-path="url(#p1f89e68830)">
     <use style="fill:#d2691e;stroke:#d2691e;" x="145.305579" xlink:href="#C0_0_9d2cd9f70d" y="205.235497"/>
    </g>
    <g clip-path="url(#p1f89e68830)">
     <use style="fill:#d2691e;stroke:#d2691e;" x="186.914795" xlink:href="#C0_0_9d2cd9f70d" y="267.134079"/>
    </g>
    <g clip-path="url(#p1f89e68830)">
     <use style="fill:#d2691e;stroke:#d2691e;" x="178.095711" xlink:href="#C0_0_9d2cd9f70d" y="257.834418"/>
    </g>
    <g clip-path="url(#p1f89e68830)">
     <use style="fill:#d2691e;stroke:#d2691e;" x="155.975644" xlink:href="#C0_0_9d2cd9f70d" y="221.277604"/>
    </g>
    <g clip-path="url(#p1f89e68830)">
     <use style="fill:#d2691e;stroke:#d2691e;" x="176.072637" xlink:href="#C0_0_9d2cd9f70d" y="240.429447"/>
    </g>
    <g clip-path="url(#p1f89e68830)">
     <use style="fill:#d2691e;stroke:#d2691e;" x="174.600987" xlink:href="#C0_0_9d2cd9f70d" y="242.626059"/>
    </g>
    <g clip-path="url(#p1f89e68830)">
     <use style="fill:#8172b3;stroke:#8172b3;" x="115.363636" xlink:href="#C0_0_9d2cd9f70d" y="526.657046"/>
    </g>
    <g clip-path="url(#p1f89e68830)">
     <use style="fill:#8172b3;stroke:#8172b3;" x="121.605635" xlink:href="#C0_0_9d2cd9f70d" y="529.614761"/>
    </g>
    <g clip-path="url(#p1f89e68830)">
     <use style="fill:#8172b3;stroke:#8172b3;" x="123.433167" xlink:href="#C0_0_9d2cd9f70d" y="535.053191"/>
    </g>
    <g clip-path="url(#p1f89e68830)">
     <use style="fill:#8172b3;stroke:#8172b3;" x="125.378846" xlink:href="#C0_0_9d2cd9f70d" y="541.847305"/>
    </g>
    <g clip-path="url(#p1f89e68830)">
     <use style="fill:#8172b3;stroke:#8172b3;" x="125.543056" xlink:href="#C0_0_9d2cd9f70d" y="587.00616"/>
    </g>
    <g clip-path="url(#p1f89e68830)">
     <use style="fill:#8172b3;stroke:#8172b3;" x="121.380877" xlink:href="#C0_0_9d2cd9f70d" y="539.031648"/>
    </g>
    <g clip-path="url(#p1f89e68830)">
     <use style="fill:#8172b3;stroke:#8172b3;" x="117.164703" xlink:href="#C0_0_9d2cd9f70d" y="536.130079"/>
    </g>
    <g clip-path="url(#p1f89e68830)">
     <use style="fill:#8172b3;stroke:#8172b3;" x="122.346535" xlink:href="#C0_0_9d2cd9f70d" y="540.165353"/>
    </g>
    <g clip-path="url(#p1f89e68830)">
     <use style="fill:#ccb974;stroke:#ccb974;" x="353.201986" xlink:href="#C0_0_9d2cd9f70d" y="417.668076"/>
    </g>
    <g clip-path="url(#p1f89e68830)">
     <use style="fill:#ccb974;stroke:#ccb974;" x="455.703083" xlink:href="#C0_0_9d2cd9f70d" y="496.338585"/>
    </g>
    <g clip-path="url(#p1f89e68830)">
     <use style="fill:#ccb974;stroke:#ccb974;" x="573.753674" xlink:href="#C0_0_9d2cd9f70d" y="605.290909"/>
    </g>
    <g clip-path="url(#p1f89e68830)">
     <use style="fill:#ccb974;stroke:#ccb974;" x="365.894837" xlink:href="#C0_0_9d2cd9f70d" y="441.149368"/>
    </g>
    <g clip-path="url(#p1f89e68830)">
     <use style="fill:#ccb974;stroke:#ccb974;" x="564.704071" xlink:href="#C0_0_9d2cd9f70d" y="549.977826"/>
    </g>
    <g clip-path="url(#p1f89e68830)">
     <use style="fill:#ccb974;stroke:#ccb974;" x="614.428537" xlink:href="#C0_0_9d2cd9f70d" y="590.291636"/>
    </g>
    <g clip-path="url(#p1f89e68830)">
     <use style="fill:#ccb974;stroke:#ccb974;" x="622.636364" xlink:href="#C0_0_9d2cd9f70d" y="584.577819"/>
    </g>
    <g clip-path="url(#p1f89e68830)">
     <use style="fill:#1a1a1a;stroke:#1a1a1a;" x="145.918213" xlink:href="#C0_0_9d2cd9f70d" y="189.412262"/>
    </g>
    <g clip-path="url(#p1f89e68830)">
     <use style="fill:#1a1a1a;stroke:#1a1a1a;" x="172.643442" xlink:href="#C0_0_9d2cd9f70d" y="212.377863"/>
    </g>
    <g clip-path="url(#p1f89e68830)">
     <use style="fill:#1a1a1a;stroke:#1a1a1a;" x="159.56457" xlink:href="#C0_0_9d2cd9f70d" y="191.193017"/>
    </g>
    <g clip-path="url(#p1f89e68830)">
     <use style="fill:#1a1a1a;stroke:#1a1a1a;" x="159.209946" xlink:href="#C0_0_9d2cd9f70d" y="207.452718"/>
    </g>
    <g clip-path="url(#p1f89e68830)">
     <use style="fill:#1a1a1a;stroke:#1a1a1a;" x="150.842953" xlink:href="#C0_0_9d2cd9f70d" y="184.578206"/>
    </g>
    <g clip-path="url(#p1f89e68830)">
     <use style="fill:#1a1a1a;stroke:#1a1a1a;" x="152.809627" xlink:href="#C0_0_9d2cd9f70d" y="183.088554"/>
    </g>
    <g clip-path="url(#p1f89e68830)">
     <use style="fill:#1a1a1a;stroke:#1a1a1a;" x="160.71658" xlink:href="#C0_0_9d2cd9f70d" y="190.056773"/>
    </g>
    <g clip-path="url(#p1f89e68830)">
     <use style="fill:#1a1a1a;stroke:#1a1a1a;" x="158.326851" xlink:href="#C0_0_9d2cd9f70d" y="184.824099"/>
    </g>
    <g clip-path="url(#p1f89e68830)">
     <use style="fill:#ffefd5;stroke:#ffefd5;" x="220.55659" xlink:href="#C0_0_9d2cd9f70d" y="260.395295"/>
    </g>
    <g clip-path="url(#p1f89e68830)">
     <use style="fill:#ffefd5;stroke:#ffefd5;" x="205.53432" xlink:href="#C0_0_9d2cd9f70d" y="246.328367"/>
    </g>
    <g clip-path="url(#p1f89e68830)">
     <use style="fill:#ffefd5;stroke:#ffefd5;" x="207.473897" xlink:href="#C0_0_9d2cd9f70d" y="246.05343"/>
    </g>
    <g clip-path="url(#p1f89e68830)">
     <use style="fill:#ffefd5;stroke:#ffefd5;" x="242.877731" xlink:href="#C0_0_9d2cd9f70d" y="291.532659"/>
    </g>
    <g clip-path="url(#p1f89e68830)">
     <use style="fill:#ffefd5;stroke:#ffefd5;" x="228.762214" xlink:href="#C0_0_9d2cd9f70d" y="262.052107"/>
    </g>
    <g clip-path="url(#p1f89e68830)">
     <use style="fill:#ffefd5;stroke:#ffefd5;" x="223.408883" xlink:href="#C0_0_9d2cd9f70d" y="262.36332"/>
    </g>
    <g clip-path="url(#p1f89e68830)">
     <use style="fill:#ffefd5;stroke:#ffefd5;" x="223.566556" xlink:href="#C0_0_9d2cd9f70d" y="263.763353"/>
    </g>
    <g clip-path="url(#p1f89e68830)">
     <use style="fill:#55a868;stroke:#55a868;" x="120.923514" xlink:href="#C0_0_9d2cd9f70d" y="533.93583"/>
    </g>
    <g clip-path="url(#p1f89e68830)">
     <use style="fill:#55a868;stroke:#55a868;" x="121.527727" xlink:href="#C0_0_9d2cd9f70d" y="529.070952"/>
    </g>
    <g clip-path="url(#p1f89e68830)">
     <use style="fill:#55a868;stroke:#55a868;" x="129.531689" xlink:href="#C0_0_9d2cd9f70d" y="549.508076"/>
    </g>
    <g clip-path="url(#p1f89e68830)">
     <use style="fill:#55a868;stroke:#55a868;" x="122.369014" xlink:href="#C0_0_9d2cd9f70d" y="536.994999"/>
    </g>
    <g clip-path="url(#p1f89e68830)">
     <use style="fill:#55a868;stroke:#55a868;" x="126.891827" xlink:href="#C0_0_9d2cd9f70d" y="573.713748"/>
    </g>
    <g clip-path="url(#p1f89e68830)">
     <use style="fill:#55a868;stroke:#55a868;" x="120.959741" xlink:href="#C0_0_9d2cd9f70d" y="549.352623"/>
    </g>
    <g clip-path="url(#p1f89e68830)">
     <use style="fill:#55a868;stroke:#55a868;" x="116.787262" xlink:href="#C0_0_9d2cd9f70d" y="544.633229"/>
    </g>
    <g clip-path="url(#p1f89e68830)">
     <use style="fill:#55a868;stroke:#55a868;" x="121.755637" xlink:href="#C0_0_9d2cd9f70d" y="536.831309"/>
    </g>
    <g clip-path="url(#p1f89e68830)">
     <use style="fill:#c44e52;stroke:#c44e52;" x="117.974219" xlink:href="#C0_0_9d2cd9f70d" y="545.151333"/>
    </g>
    <g clip-path="url(#p1f89e68830)">
     <use style="fill:#c44e52;stroke:#c44e52;" x="117.802812" xlink:href="#C0_0_9d2cd9f70d" y="540.397707"/>
    </g>
    <g clip-path="url(#p1f89e68830)">
     <use style="fill:#c44e52;stroke:#c44e52;" x="125.878222" xlink:href="#C0_0_9d2cd9f70d" y="534.068148"/>
    </g>
    <g clip-path="url(#p1f89e68830)">
     <use style="fill:#c44e52;stroke:#c44e52;" x="123.790518" xlink:href="#C0_0_9d2cd9f70d" y="566.650483"/>
    </g>
    <g clip-path="url(#p1f89e68830)">
     <use style="fill:#c44e52;stroke:#c44e52;" x="128.605663" xlink:href="#C0_0_9d2cd9f70d" y="557.241399"/>
    </g>
    <g clip-path="url(#p1f89e68830)">
     <use style="fill:#c44e52;stroke:#c44e52;" x="119.522281" xlink:href="#C0_0_9d2cd9f70d" y="552.815113"/>
    </g>
    <g clip-path="url(#p1f89e68830)">
     <use style="fill:#c44e52;stroke:#c44e52;" x="116.537615" xlink:href="#C0_0_9d2cd9f70d" y="531.597718"/>
    </g>
    <g clip-path="url(#p1f89e68830)">
     <use style="fill:#c44e52;stroke:#c44e52;" x="120.511609" xlink:href="#C0_0_9d2cd9f70d" y="534.133553"/>
    </g>
   </g>
   <g id="patch_3">
    <path d="M 90 630 
L 90 86.4 
" style="fill:none;stroke:#ffffff;stroke-linecap:square;stroke-linejoin:miter;stroke-width:1.25;"/>
   </g>
   <g id="patch_4">
    <path d="M 648 630 
L 648 86.4 
" style="fill:none;stroke:#ffffff;stroke-linecap:square;stroke-linejoin:miter;stroke-width:1.25;"/>
   </g>
   <g id="patch_5">
    <path d="M 90 630 
L 648 630 
" style="fill:none;stroke:#ffffff;stroke-linecap:square;stroke-linejoin:miter;stroke-width:1.25;"/>
   </g>
   <g id="patch_6">
    <path d="M 90 86.4 
L 648 86.4 
" style="fill:none;stroke:#ffffff;stroke-linecap:square;stroke-linejoin:miter;stroke-width:1.25;"/>
   </g>
   <g id="legend_1">
    <g id="patch_7">
     <path d="M 589.201563 313.952344 
L 640.3 313.952344 
Q 642.5 313.952344 642.5 311.752344 
L 642.5 94.1 
Q 642.5 91.9 640.3 91.9 
L 589.201563 91.9 
Q 587.001562 91.9 587.001562 94.1 
L 587.001562 311.752344 
Q 587.001562 313.952344 589.201563 313.952344 
z
" style="fill:#eaeaf2;opacity:0.8;stroke:#cccccc;stroke-linejoin:miter;"/>
    </g>
    <g id="text_17">
     <!-- Classes -->
     <defs>
      <path d="M 58.796875 25.09375 
L 68.265625 22.703125 
Q 65.28125 11.03125 57.546875 4.90625 
Q 49.8125 -1.21875 38.625 -1.21875 
Q 27.046875 -1.21875 19.796875 3.484375 
Q 12.546875 8.203125 8.765625 17.140625 
Q 4.984375 26.078125 4.984375 36.328125 
Q 4.984375 47.515625 9.25 55.828125 
Q 13.53125 64.15625 21.40625 68.46875 
Q 29.296875 72.796875 38.765625 72.796875 
Q 49.515625 72.796875 56.828125 67.328125 
Q 64.15625 61.859375 67.046875 51.953125 
L 57.71875 49.75 
Q 55.21875 57.5625 50.484375 61.125 
Q 45.75 64.703125 38.578125 64.703125 
Q 30.328125 64.703125 24.78125 60.734375 
Q 19.234375 56.78125 16.984375 50.109375 
Q 14.75 43.453125 14.75 36.375 
Q 14.75 27.25 17.40625 20.4375 
Q 20.0625 13.625 25.671875 10.25 
Q 31.296875 6.890625 37.84375 6.890625 
Q 45.796875 6.890625 51.3125 11.46875 
Q 56.84375 16.0625 58.796875 25.09375 
z
" id="ArialMT-67"/>
      <path d="M 6.390625 0 
L 6.390625 71.578125 
L 15.1875 71.578125 
L 15.1875 0 
z
" id="ArialMT-108"/>
      <path d="M 40.4375 6.390625 
Q 35.546875 2.25 31.03125 0.53125 
Q 26.515625 -1.171875 21.34375 -1.171875 
Q 12.796875 -1.171875 8.203125 3 
Q 3.609375 7.171875 3.609375 13.671875 
Q 3.609375 17.484375 5.34375 20.625 
Q 7.078125 23.78125 9.890625 25.6875 
Q 12.703125 27.59375 16.21875 28.5625 
Q 18.796875 29.25 24.03125 29.890625 
Q 34.671875 31.15625 39.703125 32.90625 
Q 39.75 34.71875 39.75 35.203125 
Q 39.75 40.578125 37.25 42.78125 
Q 33.890625 45.75 27.25 45.75 
Q 21.046875 45.75 18.09375 43.578125 
Q 15.140625 41.40625 13.71875 35.890625 
L 5.125 37.0625 
Q 6.296875 42.578125 8.984375 45.96875 
Q 11.671875 49.359375 16.75 51.1875 
Q 21.828125 53.03125 28.515625 53.03125 
Q 35.15625 53.03125 39.296875 51.46875 
Q 43.453125 49.90625 45.40625 47.53125 
Q 47.359375 45.171875 48.140625 41.546875 
Q 48.578125 39.3125 48.578125 33.453125 
L 48.578125 21.734375 
Q 48.578125 9.46875 49.140625 6.21875 
Q 49.703125 2.984375 51.375 0 
L 42.1875 0 
Q 40.828125 2.734375 40.4375 6.390625 
z
M 39.703125 26.03125 
Q 34.90625 24.078125 25.34375 22.703125 
Q 19.921875 21.921875 17.671875 20.9375 
Q 15.4375 19.96875 14.203125 18.09375 
Q 12.984375 16.21875 12.984375 13.921875 
Q 12.984375 10.40625 15.640625 8.0625 
Q 18.3125 5.71875 23.4375 5.71875 
Q 28.515625 5.71875 32.46875 7.9375 
Q 36.421875 10.15625 38.28125 14.015625 
Q 39.703125 17 39.703125 22.796875 
z
" id="ArialMT-97"/>
      <path d="M 3.078125 15.484375 
L 11.765625 16.84375 
Q 12.5 11.625 15.84375 8.84375 
Q 19.1875 6.0625 25.203125 6.0625 
Q 31.25 6.0625 34.171875 8.515625 
Q 37.109375 10.984375 37.109375 14.3125 
Q 37.109375 17.28125 34.515625 19 
Q 32.71875 20.171875 25.53125 21.96875 
Q 15.875 24.421875 12.140625 26.203125 
Q 8.40625 27.984375 6.46875 31.125 
Q 4.546875 34.28125 4.546875 38.09375 
Q 4.546875 41.546875 6.125 44.5 
Q 7.71875 47.46875 10.453125 49.421875 
Q 12.5 50.921875 16.03125 51.96875 
Q 19.578125 53.03125 23.640625 53.03125 
Q 29.734375 53.03125 34.34375 51.265625 
Q 38.96875 49.515625 41.15625 46.5 
Q 43.359375 43.5 44.1875 38.484375 
L 35.59375 37.3125 
Q 35.015625 41.3125 32.203125 43.546875 
Q 29.390625 45.796875 24.265625 45.796875 
Q 18.21875 45.796875 15.625 43.796875 
Q 13.03125 41.796875 13.03125 39.109375 
Q 13.03125 37.40625 14.109375 36.03125 
Q 15.1875 34.625 17.484375 33.6875 
Q 18.796875 33.203125 25.25 31.453125 
Q 34.578125 28.953125 38.25 27.359375 
Q 41.9375 25.78125 44.03125 22.75 
Q 46.140625 19.734375 46.140625 15.234375 
Q 46.140625 10.84375 43.578125 6.953125 
Q 41.015625 3.078125 36.171875 0.953125 
Q 31.34375 -1.171875 25.25 -1.171875 
Q 15.140625 -1.171875 9.84375 3.03125 
Q 4.546875 7.234375 3.078125 15.484375 
z
" id="ArialMT-115"/>
      <path d="M 42.09375 16.703125 
L 51.171875 15.578125 
Q 49.03125 7.625 43.21875 3.21875 
Q 37.40625 -1.171875 28.375 -1.171875 
Q 17 -1.171875 10.328125 5.828125 
Q 3.65625 12.84375 3.65625 25.484375 
Q 3.65625 38.578125 10.390625 45.796875 
Q 17.140625 53.03125 27.875 53.03125 
Q 38.28125 53.03125 44.875 45.953125 
Q 51.46875 38.875 51.46875 26.03125 
Q 51.46875 25.25 51.421875 23.6875 
L 12.75 23.6875 
Q 13.234375 15.140625 17.578125 10.59375 
Q 21.921875 6.0625 28.421875 6.0625 
Q 33.25 6.0625 36.671875 8.59375 
Q 40.09375 11.140625 42.09375 16.703125 
z
M 13.234375 30.90625 
L 42.1875 30.90625 
Q 41.609375 37.453125 38.875 40.71875 
Q 34.671875 45.796875 27.984375 45.796875 
Q 21.921875 45.796875 17.796875 41.75 
Q 13.671875 37.703125 13.234375 30.90625 
z
" id="ArialMT-101"/>
     </defs>
     <g style="fill:#262626;" transform="translate(593.411406 104.889375)scale(0.12 -0.12)">
      <use xlink:href="#ArialMT-67"/>
      <use x="72.216797" xlink:href="#ArialMT-108"/>
      <use x="94.433594" xlink:href="#ArialMT-97"/>
      <use x="150.048828" xlink:href="#ArialMT-115"/>
      <use x="200.048828" xlink:href="#ArialMT-115"/>
      <use x="250.048828" xlink:href="#ArialMT-101"/>
      <use x="305.664062" xlink:href="#ArialMT-115"/>
     </g>
    </g>
    <g id="line2d_17">
     <path d="M 591.401562 116.797969 
L 613.401562 116.797969 
" style="fill:none;stroke:#4c72b0;stroke-linecap:round;stroke-width:1.5;"/>
    </g>
    <g id="line2d_18">
     <defs>
      <path d="M 0 3 
C 0.795609 3 1.55874 2.683901 2.12132 2.12132 
C 2.683901 1.55874 3 0.795609 3 0 
C 3 -0.795609 2.683901 -1.55874 2.12132 -2.12132 
C 1.55874 -2.683901 0.795609 -3 0 -3 
C -0.795609 -3 -1.55874 -2.683901 -2.12132 -2.12132 
C -2.683901 -1.55874 -3 -0.795609 -3 0 
C -3 0.795609 -2.683901 1.55874 -2.12132 2.12132 
C -1.55874 2.683901 -0.795609 3 0 3 
z
" id="me7651e4ee1" style="stroke:#4c72b0;"/>
     </defs>
     <g>
      <use style="fill:#4c72b0;stroke:#4c72b0;" x="602.401562" xlink:href="#me7651e4ee1" y="116.797969"/>
     </g>
    </g>
    <g id="text_18">
     <!-- B -->
     <defs>
      <path d="M 7.328125 0 
L 7.328125 71.578125 
L 34.1875 71.578125 
Q 42.390625 71.578125 47.34375 69.40625 
Q 52.296875 67.234375 55.09375 62.71875 
Q 57.90625 58.203125 57.90625 53.265625 
Q 57.90625 48.6875 55.421875 44.625 
Q 52.9375 40.578125 47.90625 38.09375 
Q 54.390625 36.1875 57.875 31.59375 
Q 61.375 27 61.375 20.75 
Q 61.375 15.71875 59.25 11.390625 
Q 57.125 7.078125 54 4.734375 
Q 50.875 2.390625 46.15625 1.1875 
Q 41.453125 0 34.625 0 
z
M 16.796875 41.5 
L 32.28125 41.5 
Q 38.578125 41.5 41.3125 42.328125 
Q 44.921875 43.40625 46.75 45.890625 
Q 48.578125 48.390625 48.578125 52.15625 
Q 48.578125 55.71875 46.875 58.421875 
Q 45.171875 61.140625 41.984375 62.140625 
Q 38.8125 63.140625 31.109375 63.140625 
L 16.796875 63.140625 
z
M 16.796875 8.453125 
L 34.625 8.453125 
Q 39.203125 8.453125 41.0625 8.796875 
Q 44.34375 9.375 46.53125 10.734375 
Q 48.734375 12.109375 50.140625 14.71875 
Q 51.5625 17.328125 51.5625 20.75 
Q 51.5625 24.75 49.515625 27.703125 
Q 47.46875 30.671875 43.828125 31.859375 
Q 40.1875 33.0625 33.34375 33.0625 
L 16.796875 33.0625 
z
" id="ArialMT-66"/>
     </defs>
     <g style="fill:#262626;" transform="translate(622.201562 120.647969)scale(0.11 -0.11)">
      <use xlink:href="#ArialMT-66"/>
     </g>
    </g>
    <g id="line2d_19">
     <path d="M 591.401562 132.357813 
L 613.401562 132.357813 
" style="fill:none;stroke:#55a868;stroke-linecap:round;stroke-width:1.5;"/>
    </g>
    <g id="line2d_20">
     <defs>
      <path d="M 0 3 
C 0.795609 3 1.55874 2.683901 2.12132 2.12132 
C 2.683901 1.55874 3 0.795609 3 0 
C 3 -0.795609 2.683901 -1.55874 2.12132 -2.12132 
C 1.55874 -2.683901 0.795609 -3 0 -3 
C -0.795609 -3 -1.55874 -2.683901 -2.12132 -2.12132 
C -2.683901 -1.55874 -3 -0.795609 -3 0 
C -3 0.795609 -2.683901 1.55874 -2.12132 2.12132 
C -1.55874 2.683901 -0.795609 3 0 3 
z
" id="m9e96be5e23" style="stroke:#55a868;"/>
     </defs>
     <g>
      <use style="fill:#55a868;stroke:#55a868;" x="602.401562" xlink:href="#m9e96be5e23" y="132.357813"/>
     </g>
    </g>
    <g id="text_19">
     <!-- H -->
     <defs>
      <path d="M 8.015625 0 
L 8.015625 71.578125 
L 17.484375 71.578125 
L 17.484375 42.1875 
L 54.6875 42.1875 
L 54.6875 71.578125 
L 64.15625 71.578125 
L 64.15625 0 
L 54.6875 0 
L 54.6875 33.734375 
L 17.484375 33.734375 
L 17.484375 0 
z
" id="ArialMT-72"/>
     </defs>
     <g style="fill:#262626;" transform="translate(622.201562 136.207813)scale(0.11 -0.11)">
      <use xlink:href="#ArialMT-72"/>
     </g>
    </g>
    <g id="line2d_21">
     <path d="M 591.401562 147.917656 
L 613.401562 147.917656 
" style="fill:none;stroke:#c44e52;stroke-linecap:round;stroke-width:1.5;"/>
    </g>
    <g id="line2d_22">
     <defs>
      <path d="M 0 3 
C 0.795609 3 1.55874 2.683901 2.12132 2.12132 
C 2.683901 1.55874 3 0.795609 3 0 
C 3 -0.795609 2.683901 -1.55874 2.12132 -2.12132 
C 1.55874 -2.683901 0.795609 -3 0 -3 
C -0.795609 -3 -1.55874 -2.683901 -2.12132 -2.12132 
C -2.683901 -1.55874 -3 -0.795609 -3 0 
C -3 0.795609 -2.683901 1.55874 -2.12132 2.12132 
C -1.55874 2.683901 -0.795609 3 0 3 
z
" id="mb9ce75a141" style="stroke:#c44e52;"/>
     </defs>
     <g>
      <use style="fill:#c44e52;stroke:#c44e52;" x="602.401562" xlink:href="#mb9ce75a141" y="147.917656"/>
     </g>
    </g>
    <g id="text_20">
     <!-- O -->
     <defs>
      <path d="M 4.828125 34.859375 
Q 4.828125 52.6875 14.390625 62.765625 
Q 23.96875 72.859375 39.109375 72.859375 
Q 49.03125 72.859375 56.984375 68.109375 
Q 64.9375 63.375 69.109375 54.90625 
Q 73.296875 46.4375 73.296875 35.6875 
Q 73.296875 24.8125 68.890625 16.21875 
Q 64.5 7.625 56.4375 3.203125 
Q 48.390625 -1.21875 39.0625 -1.21875 
Q 28.953125 -1.21875 20.984375 3.65625 
Q 13.03125 8.546875 8.921875 16.984375 
Q 4.828125 25.4375 4.828125 34.859375 
z
M 14.59375 34.71875 
Q 14.59375 21.78125 21.546875 14.328125 
Q 28.515625 6.890625 39.015625 6.890625 
Q 49.703125 6.890625 56.609375 14.40625 
Q 63.53125 21.921875 63.53125 35.75 
Q 63.53125 44.484375 60.578125 51 
Q 57.625 57.515625 51.921875 61.109375 
Q 46.234375 64.703125 39.15625 64.703125 
Q 29.109375 64.703125 21.84375 57.78125 
Q 14.59375 50.875 14.59375 34.71875 
z
" id="ArialMT-79"/>
     </defs>
     <g style="fill:#262626;" transform="translate(622.201562 151.767656)scale(0.11 -0.11)">
      <use xlink:href="#ArialMT-79"/>
     </g>
    </g>
    <g id="line2d_23">
     <path d="M 591.401562 163.4775 
L 613.401562 163.4775 
" style="fill:none;stroke:#64b5cd;stroke-linecap:round;stroke-width:1.5;"/>
    </g>
    <g id="line2d_24">
     <defs>
      <path d="M 0 3 
C 0.795609 3 1.55874 2.683901 2.12132 2.12132 
C 2.683901 1.55874 3 0.795609 3 0 
C 3 -0.795609 2.683901 -1.55874 2.12132 -2.12132 
C 1.55874 -2.683901 0.795609 -3 0 -3 
C -0.795609 -3 -1.55874 -2.683901 -2.12132 -2.12132 
C -2.683901 -1.55874 -3 -0.795609 -3 0 
C -3 0.795609 -2.683901 1.55874 -2.12132 2.12132 
C -1.55874 2.683901 -0.795609 3 0 3 
z
" id="mfb2e6ea6fc" style="stroke:#64b5cd;"/>
     </defs>
     <g>
      <use style="fill:#64b5cd;stroke:#64b5cd;" x="602.401562" xlink:href="#mfb2e6ea6fc" y="163.4775"/>
     </g>
    </g>
    <g id="text_21">
     <!-- D -->
     <defs>
      <path d="M 7.71875 0 
L 7.71875 71.578125 
L 32.375 71.578125 
Q 40.71875 71.578125 45.125 70.5625 
Q 51.265625 69.140625 55.609375 65.4375 
Q 61.28125 60.640625 64.078125 53.1875 
Q 66.890625 45.75 66.890625 36.1875 
Q 66.890625 28.03125 64.984375 21.734375 
Q 63.09375 15.4375 60.109375 11.296875 
Q 57.125 7.171875 53.578125 4.796875 
Q 50.046875 2.4375 45.046875 1.21875 
Q 40.046875 0 33.546875 0 
z
M 17.1875 8.453125 
L 32.46875 8.453125 
Q 39.546875 8.453125 43.578125 9.765625 
Q 47.609375 11.078125 50 13.484375 
Q 53.375 16.84375 55.25 22.53125 
Q 57.125 28.21875 57.125 36.328125 
Q 57.125 47.5625 53.4375 53.59375 
Q 49.75 59.625 44.484375 61.671875 
Q 40.671875 63.140625 32.234375 63.140625 
L 17.1875 63.140625 
z
" id="ArialMT-68"/>
     </defs>
     <g style="fill:#262626;" transform="translate(622.201562 167.3275)scale(0.11 -0.11)">
      <use xlink:href="#ArialMT-68"/>
     </g>
    </g>
    <g id="line2d_25">
     <path d="M 591.401562 179.037344 
L 613.401562 179.037344 
" style="fill:none;stroke:#8172b3;stroke-linecap:round;stroke-width:1.5;"/>
    </g>
    <g id="line2d_26">
     <defs>
      <path d="M 0 3 
C 0.795609 3 1.55874 2.683901 2.12132 2.12132 
C 2.683901 1.55874 3 0.795609 3 0 
C 3 -0.795609 2.683901 -1.55874 2.12132 -2.12132 
C 1.55874 -2.683901 0.795609 -3 0 -3 
C -0.795609 -3 -1.55874 -2.683901 -2.12132 -2.12132 
C -2.683901 -1.55874 -3 -0.795609 -3 0 
C -3 0.795609 -2.683901 1.55874 -2.12132 2.12132 
C -1.55874 2.683901 -0.795609 3 0 3 
z
" id="m5ae0b78d54" style="stroke:#8172b3;"/>
     </defs>
     <g>
      <use style="fill:#8172b3;stroke:#8172b3;" x="602.401562" xlink:href="#m5ae0b78d54" y="179.037344"/>
     </g>
    </g>
    <g id="text_22">
     <!-- DD -->
     <g style="fill:#262626;" transform="translate(622.201562 182.887344)scale(0.11 -0.11)">
      <use xlink:href="#ArialMT-68"/>
      <use x="72.216797" xlink:href="#ArialMT-68"/>
     </g>
    </g>
    <g id="line2d_27">
     <path d="M 591.401562 194.597188 
L 613.401562 194.597188 
" style="fill:none;stroke:#ccb974;stroke-linecap:round;stroke-width:1.5;"/>
    </g>
    <g id="line2d_28">
     <defs>
      <path d="M 0 3 
C 0.795609 3 1.55874 2.683901 2.12132 2.12132 
C 2.683901 1.55874 3 0.795609 3 0 
C 3 -0.795609 2.683901 -1.55874 2.12132 -2.12132 
C 1.55874 -2.683901 0.795609 -3 0 -3 
C -0.795609 -3 -1.55874 -2.683901 -2.12132 -2.12132 
C -2.683901 -1.55874 -3 -0.795609 -3 0 
C -3 0.795609 -2.683901 1.55874 -2.12132 2.12132 
C -1.55874 2.683901 -0.795609 3 0 3 
z
" id="mc0b1745588" style="stroke:#ccb974;"/>
     </defs>
     <g>
      <use style="fill:#ccb974;stroke:#ccb974;" x="602.401562" xlink:href="#mc0b1745588" y="194.597188"/>
     </g>
    </g>
    <g id="text_23">
     <!-- M -->
     <defs>
      <path d="M 7.421875 0 
L 7.421875 71.578125 
L 21.6875 71.578125 
L 38.625 20.90625 
Q 40.96875 13.8125 42.046875 10.296875 
Q 43.265625 14.203125 45.84375 21.78125 
L 62.984375 71.578125 
L 75.734375 71.578125 
L 75.734375 0 
L 66.609375 0 
L 66.609375 59.90625 
L 45.796875 0 
L 37.25 0 
L 16.546875 60.9375 
L 16.546875 0 
z
" id="ArialMT-77"/>
     </defs>
     <g style="fill:#262626;" transform="translate(622.201562 198.447188)scale(0.11 -0.11)">
      <use xlink:href="#ArialMT-77"/>
     </g>
    </g>
    <g id="line2d_29">
     <path d="M 591.401562 210.157031 
L 613.401562 210.157031 
" style="fill:none;stroke:#1a1a1a;stroke-linecap:round;stroke-width:1.5;"/>
    </g>
    <g id="line2d_30">
     <defs>
      <path d="M 0 3 
C 0.795609 3 1.55874 2.683901 2.12132 2.12132 
C 2.683901 1.55874 3 0.795609 3 0 
C 3 -0.795609 2.683901 -1.55874 2.12132 -2.12132 
C 1.55874 -2.683901 0.795609 -3 0 -3 
C -0.795609 -3 -1.55874 -2.683901 -2.12132 -2.12132 
C -2.683901 -1.55874 -3 -0.795609 -3 0 
C -3 0.795609 -2.683901 1.55874 -2.12132 2.12132 
C -1.55874 2.683901 -0.795609 3 0 3 
z
" id="m407cfdc400" style="stroke:#1a1a1a;"/>
     </defs>
     <g>
      <use style="fill:#1a1a1a;stroke:#1a1a1a;" x="602.401562" xlink:href="#m407cfdc400" y="210.157031"/>
     </g>
    </g>
    <g id="text_24">
     <!-- P -->
     <defs>
      <path d="M 7.71875 0 
L 7.71875 71.578125 
L 34.71875 71.578125 
Q 41.84375 71.578125 45.609375 70.90625 
Q 50.875 70.015625 54.4375 67.546875 
Q 58.015625 65.09375 60.1875 60.640625 
Q 62.359375 56.203125 62.359375 50.875 
Q 62.359375 41.75 56.546875 35.421875 
Q 50.734375 29.109375 35.546875 29.109375 
L 17.1875 29.109375 
L 17.1875 0 
z
M 17.1875 37.546875 
L 35.6875 37.546875 
Q 44.875 37.546875 48.734375 40.96875 
Q 52.59375 44.390625 52.59375 50.59375 
Q 52.59375 55.078125 50.3125 58.265625 
Q 48.046875 61.46875 44.34375 62.5 
Q 41.9375 63.140625 35.5 63.140625 
L 17.1875 63.140625 
z
" id="ArialMT-80"/>
     </defs>
     <g style="fill:#262626;" transform="translate(622.201562 214.007031)scale(0.11 -0.11)">
      <use xlink:href="#ArialMT-80"/>
     </g>
    </g>
    <g id="line2d_31">
     <path d="M 591.401562 225.716875 
L 613.401562 225.716875 
" style="fill:none;stroke:#ffffff;stroke-linecap:round;stroke-width:1.5;"/>
    </g>
    <g id="line2d_32">
     <defs>
      <path d="M 0 3 
C 0.795609 3 1.55874 2.683901 2.12132 2.12132 
C 2.683901 1.55874 3 0.795609 3 0 
C 3 -0.795609 2.683901 -1.55874 2.12132 -2.12132 
C 1.55874 -2.683901 0.795609 -3 0 -3 
C -0.795609 -3 -1.55874 -2.683901 -2.12132 -2.12132 
C -2.683901 -1.55874 -3 -0.795609 -3 0 
C -3 0.795609 -2.683901 1.55874 -2.12132 2.12132 
C -1.55874 2.683901 -0.795609 3 0 3 
z
" id="m3d2cb4ea0f" style="stroke:#ffffff;"/>
     </defs>
     <g>
      <use style="fill:#ffffff;stroke:#ffffff;" x="602.401562" xlink:href="#m3d2cb4ea0f" y="225.716875"/>
     </g>
    </g>
    <g id="text_25">
     <!-- S -->
     <defs>
      <path d="M 4.5 23 
L 13.421875 23.78125 
Q 14.0625 18.40625 16.375 14.96875 
Q 18.703125 11.53125 23.578125 9.40625 
Q 28.46875 7.28125 34.578125 7.28125 
Q 39.984375 7.28125 44.140625 8.890625 
Q 48.296875 10.5 50.3125 13.296875 
Q 52.34375 16.109375 52.34375 19.4375 
Q 52.34375 22.796875 50.390625 25.3125 
Q 48.4375 27.828125 43.953125 29.546875 
Q 41.0625 30.671875 31.203125 33.03125 
Q 21.34375 35.40625 17.390625 37.5 
Q 12.25 40.1875 9.734375 44.15625 
Q 7.234375 48.140625 7.234375 53.078125 
Q 7.234375 58.5 10.296875 63.203125 
Q 13.375 67.921875 19.28125 70.359375 
Q 25.203125 72.796875 32.421875 72.796875 
Q 40.375 72.796875 46.453125 70.234375 
Q 52.546875 67.671875 55.8125 62.6875 
Q 59.078125 57.71875 59.328125 51.421875 
L 50.25 50.734375 
Q 49.515625 57.515625 45.28125 60.984375 
Q 41.0625 64.453125 32.8125 64.453125 
Q 24.21875 64.453125 20.28125 61.296875 
Q 16.359375 58.15625 16.359375 53.71875 
Q 16.359375 49.859375 19.140625 47.359375 
Q 21.875 44.875 33.421875 42.265625 
Q 44.96875 39.65625 49.265625 37.703125 
Q 55.515625 34.8125 58.484375 30.390625 
Q 61.46875 25.984375 61.46875 20.21875 
Q 61.46875 14.5 58.203125 9.4375 
Q 54.9375 4.390625 48.796875 1.578125 
Q 42.671875 -1.21875 35.015625 -1.21875 
Q 25.296875 -1.21875 18.71875 1.609375 
Q 12.15625 4.4375 8.421875 10.125 
Q 4.6875 15.828125 4.5 23 
z
" id="ArialMT-83"/>
     </defs>
     <g style="fill:#262626;" transform="translate(622.201562 229.566875)scale(0.11 -0.11)">
      <use xlink:href="#ArialMT-83"/>
     </g>
    </g>
    <g id="line2d_33">
     <path d="M 591.401562 241.276719 
L 613.401562 241.276719 
" style="fill:none;stroke:#ee82ee;stroke-linecap:round;stroke-width:1.5;"/>
    </g>
    <g id="line2d_34">
     <defs>
      <path d="M 0 3 
C 0.795609 3 1.55874 2.683901 2.12132 2.12132 
C 2.683901 1.55874 3 0.795609 3 0 
C 3 -0.795609 2.683901 -1.55874 2.12132 -2.12132 
C 1.55874 -2.683901 0.795609 -3 0 -3 
C -0.795609 -3 -1.55874 -2.683901 -2.12132 -2.12132 
C -2.683901 -1.55874 -3 -0.795609 -3 0 
C -3 0.795609 -2.683901 1.55874 -2.12132 2.12132 
C -1.55874 2.683901 -0.795609 3 0 3 
z
" id="mb45beff551" style="stroke:#ee82ee;"/>
     </defs>
     <g>
      <use style="fill:#ee82ee;stroke:#ee82ee;" x="602.401562" xlink:href="#mb45beff551" y="241.276719"/>
     </g>
    </g>
    <g id="text_26">
     <!-- Pol -->
     <defs>
      <path d="M 3.328125 25.921875 
Q 3.328125 40.328125 11.328125 47.265625 
Q 18.015625 53.03125 27.640625 53.03125 
Q 38.328125 53.03125 45.109375 46.015625 
Q 51.90625 39.015625 51.90625 26.65625 
Q 51.90625 16.65625 48.90625 10.90625 
Q 45.90625 5.171875 40.15625 2 
Q 34.421875 -1.171875 27.640625 -1.171875 
Q 16.75 -1.171875 10.03125 5.8125 
Q 3.328125 12.796875 3.328125 25.921875 
z
M 12.359375 25.921875 
Q 12.359375 15.96875 16.703125 11.015625 
Q 21.046875 6.0625 27.640625 6.0625 
Q 34.1875 6.0625 38.53125 11.03125 
Q 42.875 16.015625 42.875 26.21875 
Q 42.875 35.84375 38.5 40.796875 
Q 34.125 45.75 27.640625 45.75 
Q 21.046875 45.75 16.703125 40.8125 
Q 12.359375 35.890625 12.359375 25.921875 
z
" id="ArialMT-111"/>
     </defs>
     <g style="fill:#262626;" transform="translate(622.201562 245.126719)scale(0.11 -0.11)">
      <use xlink:href="#ArialMT-80"/>
      <use x="66.699219" xlink:href="#ArialMT-111"/>
      <use x="122.314453" xlink:href="#ArialMT-108"/>
     </g>
    </g>
    <g id="line2d_35">
     <path d="M 591.401562 256.836563 
L 613.401562 256.836563 
" style="fill:none;stroke:#800080;stroke-linecap:round;stroke-width:1.5;"/>
    </g>
    <g id="line2d_36">
     <defs>
      <path d="M 0 3 
C 0.795609 3 1.55874 2.683901 2.12132 2.12132 
C 2.683901 1.55874 3 0.795609 3 0 
C 3 -0.795609 2.683901 -1.55874 2.12132 -2.12132 
C 1.55874 -2.683901 0.795609 -3 0 -3 
C -0.795609 -3 -1.55874 -2.683901 -2.12132 -2.12132 
C -2.683901 -1.55874 -3 -0.795609 -3 0 
C -3 0.795609 -2.683901 1.55874 -2.12132 2.12132 
C -1.55874 2.683901 -0.795609 3 0 3 
z
" id="m6a205ee9c8" style="stroke:#800080;"/>
     </defs>
     <g>
      <use style="fill:#800080;stroke:#800080;" x="602.401562" xlink:href="#m6a205ee9c8" y="256.836563"/>
     </g>
    </g>
    <g id="text_27">
     <!-- Ol -->
     <g style="fill:#262626;" transform="translate(622.201562 260.686563)scale(0.11 -0.11)">
      <use xlink:href="#ArialMT-79"/>
      <use x="77.783203" xlink:href="#ArialMT-108"/>
     </g>
    </g>
    <g id="line2d_37">
     <path d="M 591.401562 272.396406 
L 613.401562 272.396406 
" style="fill:none;stroke:#ffc0cb;stroke-linecap:round;stroke-width:1.5;"/>
    </g>
    <g id="line2d_38">
     <defs>
      <path d="M 0 3 
C 0.795609 3 1.55874 2.683901 2.12132 2.12132 
C 2.683901 1.55874 3 0.795609 3 0 
C 3 -0.795609 2.683901 -1.55874 2.12132 -2.12132 
C 1.55874 -2.683901 0.795609 -3 0 -3 
C -0.795609 -3 -1.55874 -2.683901 -2.12132 -2.12132 
C -2.683901 -1.55874 -3 -0.795609 -3 0 
C -3 0.795609 -2.683901 1.55874 -2.12132 2.12132 
C -1.55874 2.683901 -0.795609 3 0 3 
z
" id="m3ef16437d8" style="stroke:#ffc0cb;"/>
     </defs>
     <g>
      <use style="fill:#ffc0cb;stroke:#ffc0cb;" x="602.401562" xlink:href="#m3ef16437d8" y="272.396406"/>
     </g>
    </g>
    <g id="text_28">
     <!-- L -->
     <defs>
      <path d="M 7.328125 0 
L 7.328125 71.578125 
L 16.796875 71.578125 
L 16.796875 8.453125 
L 52.046875 8.453125 
L 52.046875 0 
z
" id="ArialMT-76"/>
     </defs>
     <g style="fill:#262626;" transform="translate(622.201562 276.246406)scale(0.11 -0.11)">
      <use xlink:href="#ArialMT-76"/>
     </g>
    </g>
    <g id="line2d_39">
     <path d="M 591.401562 287.95625 
L 613.401562 287.95625 
" style="fill:none;stroke:#d2691e;stroke-linecap:round;stroke-width:1.5;"/>
    </g>
    <g id="line2d_40">
     <defs>
      <path d="M 0 3 
C 0.795609 3 1.55874 2.683901 2.12132 2.12132 
C 2.683901 1.55874 3 0.795609 3 0 
C 3 -0.795609 2.683901 -1.55874 2.12132 -2.12132 
C 1.55874 -2.683901 0.795609 -3 0 -3 
C -0.795609 -3 -1.55874 -2.683901 -2.12132 -2.12132 
C -2.683901 -1.55874 -3 -0.795609 -3 0 
C -3 0.795609 -2.683901 1.55874 -2.12132 2.12132 
C -1.55874 2.683901 -0.795609 3 0 3 
z
" id="m4888ddfaca" style="stroke:#d2691e;"/>
     </defs>
     <g>
      <use style="fill:#d2691e;stroke:#d2691e;" x="602.401562" xlink:href="#m4888ddfaca" y="287.95625"/>
     </g>
    </g>
    <g id="text_29">
     <!-- N -->
     <defs>
      <path d="M 7.625 0 
L 7.625 71.578125 
L 17.328125 71.578125 
L 54.9375 15.375 
L 54.9375 71.578125 
L 64.015625 71.578125 
L 64.015625 0 
L 54.296875 0 
L 16.703125 56.25 
L 16.703125 0 
z
" id="ArialMT-78"/>
     </defs>
     <g style="fill:#262626;" transform="translate(622.201562 291.80625)scale(0.11 -0.11)">
      <use xlink:href="#ArialMT-78"/>
     </g>
    </g>
    <g id="line2d_41">
     <path d="M 591.401562 303.516094 
L 613.401562 303.516094 
" style="fill:none;stroke:#ffefd5;stroke-linecap:round;stroke-width:1.5;"/>
    </g>
    <g id="line2d_42">
     <defs>
      <path d="M 0 3 
C 0.795609 3 1.55874 2.683901 2.12132 2.12132 
C 2.683901 1.55874 3 0.795609 3 0 
C 3 -0.795609 2.683901 -1.55874 2.12132 -2.12132 
C 1.55874 -2.683901 0.795609 -3 0 -3 
C -0.795609 -3 -1.55874 -2.683901 -2.12132 -2.12132 
C -2.683901 -1.55874 -3 -0.795609 -3 0 
C -3 0.795609 -2.683901 1.55874 -2.12132 2.12132 
C -1.55874 2.683901 -0.795609 3 0 3 
z
" id="mcab3dedb70" style="stroke:#ffefd5;"/>
     </defs>
     <g>
      <use style="fill:#ffefd5;stroke:#ffefd5;" x="602.401562" xlink:href="#mcab3dedb70" y="303.516094"/>
     </g>
    </g>
    <g id="text_30">
     <!-- A -->
     <defs>
      <path d="M -0.140625 0 
L 27.34375 71.578125 
L 37.546875 71.578125 
L 66.84375 0 
L 56.0625 0 
L 47.703125 21.6875 
L 17.78125 21.6875 
L 9.90625 0 
z
M 20.515625 29.390625 
L 44.78125 29.390625 
L 37.3125 49.21875 
Q 33.890625 58.25 32.234375 64.0625 
Q 30.859375 57.171875 28.375 50.390625 
z
" id="ArialMT-65"/>
     </defs>
     <g style="fill:#262626;" transform="translate(622.201562 307.366094)scale(0.11 -0.11)">
      <use xlink:href="#ArialMT-65"/>
     </g>
    </g>
   </g>
  </g>
 </g>
 <defs>
  <clipPath id="p1f89e68830">
   <rect height="543.6" width="558" x="90" y="86.4"/>
  </clipPath>
 </defs>
</svg>
