<?xml version="1.0" encoding="utf-8" standalone="no"?>
<!DOCTYPE svg PUBLIC "-//W3C//DTD SVG 1.1//EN"
  "http://www.w3.org/Graphics/SVG/1.1/DTD/svg11.dtd">
<!-- Created with matplotlib (https://matplotlib.org/) -->
<svg height="720pt" version="1.1" viewBox="0 0 720 720" width="720pt" xmlns="http://www.w3.org/2000/svg" xmlns:xlink="http://www.w3.org/1999/xlink">
 <defs>
  <style type="text/css">
*{stroke-linecap:butt;stroke-linejoin:round;}
  </style>
 </defs>
 <g id="figure_1">
  <g id="patch_1">
   <path d="M 0 720 
L 720 720 
L 720 0 
L 0 0 
z
" style="fill:#ffffff;"/>
  </g>
  <g id="axes_1">
   <g id="patch_2">
    <path d="M 90 630 
L 648 630 
L 648 86.4 
L 90 86.4 
z
" style="fill:#eaeaf2;"/>
   </g>
   <g id="matplotlib.axis_1">
    <g id="xtick_1">
     <g id="line2d_1">
      <path clip-path="url(#p61b4469615)" d="M 142.955243 630 
L 142.955243 86.4 
" style="fill:none;stroke:#ffffff;stroke-linecap:round;"/>
     </g>
     <g id="text_1">
      <!-- −1.0 -->
      <defs>
       <path d="M 52.828125 31.203125 
L 5.5625 31.203125 
L 5.5625 39.40625 
L 52.828125 39.40625 
z
" id="ArialMT-8722"/>
       <path d="M 37.25 0 
L 28.46875 0 
L 28.46875 56 
Q 25.296875 52.984375 20.140625 49.953125 
Q 14.984375 46.921875 10.890625 45.40625 
L 10.890625 53.90625 
Q 18.265625 57.375 23.78125 62.296875 
Q 29.296875 67.234375 31.59375 71.875 
L 37.25 71.875 
z
" id="ArialMT-49"/>
       <path d="M 9.078125 0 
L 9.078125 10.015625 
L 19.09375 10.015625 
L 19.09375 0 
z
" id="ArialMT-46"/>
       <path d="M 4.15625 35.296875 
Q 4.15625 48 6.765625 55.734375 
Q 9.375 63.484375 14.515625 67.671875 
Q 19.671875 71.875 27.484375 71.875 
Q 33.25 71.875 37.59375 69.546875 
Q 41.9375 67.234375 44.765625 62.859375 
Q 47.609375 58.5 49.21875 52.21875 
Q 50.828125 45.953125 50.828125 35.296875 
Q 50.828125 22.703125 48.234375 14.96875 
Q 45.65625 7.234375 40.5 3 
Q 35.359375 -1.21875 27.484375 -1.21875 
Q 17.140625 -1.21875 11.234375 6.203125 
Q 4.15625 15.140625 4.15625 35.296875 
z
M 13.1875 35.296875 
Q 13.1875 17.671875 17.3125 11.828125 
Q 21.4375 6 27.484375 6 
Q 33.546875 6 37.671875 11.859375 
Q 41.796875 17.71875 41.796875 35.296875 
Q 41.796875 52.984375 37.671875 58.78125 
Q 33.546875 64.59375 27.390625 64.59375 
Q 21.34375 64.59375 17.71875 59.46875 
Q 13.1875 52.9375 13.1875 35.296875 
z
" id="ArialMT-48"/>
      </defs>
      <g style="fill:#262626;" transform="translate(132.097899 647.373594)scale(0.11 -0.11)">
       <use xlink:href="#ArialMT-8722"/>
       <use x="58.398438" xlink:href="#ArialMT-49"/>
       <use x="114.013672" xlink:href="#ArialMT-46"/>
       <use x="141.796875" xlink:href="#ArialMT-48"/>
      </g>
     </g>
    </g>
    <g id="xtick_2">
     <g id="line2d_2">
      <path clip-path="url(#p61b4469615)" d="M 231.538288 630 
L 231.538288 86.4 
" style="fill:none;stroke:#ffffff;stroke-linecap:round;"/>
     </g>
     <g id="text_2">
      <!-- −0.5 -->
      <defs>
       <path d="M 4.15625 18.75 
L 13.375 19.53125 
Q 14.40625 12.796875 18.140625 9.390625 
Q 21.875 6 27.15625 6 
Q 33.5 6 37.890625 10.78125 
Q 42.28125 15.578125 42.28125 23.484375 
Q 42.28125 31 38.0625 35.34375 
Q 33.84375 39.703125 27 39.703125 
Q 22.75 39.703125 19.328125 37.765625 
Q 15.921875 35.84375 13.96875 32.765625 
L 5.71875 33.84375 
L 12.640625 70.609375 
L 48.25 70.609375 
L 48.25 62.203125 
L 19.671875 62.203125 
L 15.828125 42.96875 
Q 22.265625 47.46875 29.34375 47.46875 
Q 38.71875 47.46875 45.15625 40.96875 
Q 51.609375 34.46875 51.609375 24.265625 
Q 51.609375 14.546875 45.953125 7.46875 
Q 39.0625 -1.21875 27.15625 -1.21875 
Q 17.390625 -1.21875 11.203125 4.25 
Q 5.03125 9.71875 4.15625 18.75 
z
" id="ArialMT-53"/>
      </defs>
      <g style="fill:#262626;" transform="translate(220.680945 647.373594)scale(0.11 -0.11)">
       <use xlink:href="#ArialMT-8722"/>
       <use x="58.398438" xlink:href="#ArialMT-48"/>
       <use x="114.013672" xlink:href="#ArialMT-46"/>
       <use x="141.796875" xlink:href="#ArialMT-53"/>
      </g>
     </g>
    </g>
    <g id="xtick_3">
     <g id="line2d_3">
      <path clip-path="url(#p61b4469615)" d="M 320.121334 630 
L 320.121334 86.4 
" style="fill:none;stroke:#ffffff;stroke-linecap:round;"/>
     </g>
     <g id="text_3">
      <!-- 0.0 -->
      <g style="fill:#262626;" transform="translate(312.476334 647.373594)scale(0.11 -0.11)">
       <use xlink:href="#ArialMT-48"/>
       <use x="55.615234" xlink:href="#ArialMT-46"/>
       <use x="83.398438" xlink:href="#ArialMT-48"/>
      </g>
     </g>
    </g>
    <g id="xtick_4">
     <g id="line2d_4">
      <path clip-path="url(#p61b4469615)" d="M 408.704379 630 
L 408.704379 86.4 
" style="fill:none;stroke:#ffffff;stroke-linecap:round;"/>
     </g>
     <g id="text_4">
      <!-- 0.5 -->
      <g style="fill:#262626;" transform="translate(401.059379 647.373594)scale(0.11 -0.11)">
       <use xlink:href="#ArialMT-48"/>
       <use x="55.615234" xlink:href="#ArialMT-46"/>
       <use x="83.398438" xlink:href="#ArialMT-53"/>
      </g>
     </g>
    </g>
    <g id="xtick_5">
     <g id="line2d_5">
      <path clip-path="url(#p61b4469615)" d="M 497.287424 630 
L 497.287424 86.4 
" style="fill:none;stroke:#ffffff;stroke-linecap:round;"/>
     </g>
     <g id="text_5">
      <!-- 1.0 -->
      <g style="fill:#262626;" transform="translate(489.642424 647.373594)scale(0.11 -0.11)">
       <use xlink:href="#ArialMT-49"/>
       <use x="55.615234" xlink:href="#ArialMT-46"/>
       <use x="83.398438" xlink:href="#ArialMT-48"/>
      </g>
     </g>
    </g>
    <g id="xtick_6">
     <g id="line2d_6">
      <path clip-path="url(#p61b4469615)" d="M 585.870469 630 
L 585.870469 86.4 
" style="fill:none;stroke:#ffffff;stroke-linecap:round;"/>
     </g>
     <g id="text_6">
      <!-- 1.5 -->
      <g style="fill:#262626;" transform="translate(578.225469 647.373594)scale(0.11 -0.11)">
       <use xlink:href="#ArialMT-49"/>
       <use x="55.615234" xlink:href="#ArialMT-46"/>
       <use x="83.398438" xlink:href="#ArialMT-53"/>
      </g>
     </g>
    </g>
   </g>
   <g id="matplotlib.axis_2">
    <g id="ytick_1">
     <g id="line2d_7">
      <path clip-path="url(#p61b4469615)" d="M 90 624.258653 
L 648 624.258653 
" style="fill:none;stroke:#ffffff;stroke-linecap:round;"/>
     </g>
     <g id="text_7">
      <!-- −1.0 -->
      <g style="fill:#262626;" transform="translate(58.785313 628.19545)scale(0.11 -0.11)">
       <use xlink:href="#ArialMT-8722"/>
       <use x="58.398438" xlink:href="#ArialMT-49"/>
       <use x="114.013672" xlink:href="#ArialMT-46"/>
       <use x="141.796875" xlink:href="#ArialMT-48"/>
      </g>
     </g>
    </g>
    <g id="ytick_2">
     <g id="line2d_8">
      <path clip-path="url(#p61b4469615)" d="M 90 527.171737 
L 648 527.171737 
" style="fill:none;stroke:#ffffff;stroke-linecap:round;"/>
     </g>
     <g id="text_8">
      <!-- −0.5 -->
      <g style="fill:#262626;" transform="translate(58.785313 531.108534)scale(0.11 -0.11)">
       <use xlink:href="#ArialMT-8722"/>
       <use x="58.398438" xlink:href="#ArialMT-48"/>
       <use x="114.013672" xlink:href="#ArialMT-46"/>
       <use x="141.796875" xlink:href="#ArialMT-53"/>
      </g>
     </g>
    </g>
    <g id="ytick_3">
     <g id="line2d_9">
      <path clip-path="url(#p61b4469615)" d="M 90 430.08482 
L 648 430.08482 
" style="fill:none;stroke:#ffffff;stroke-linecap:round;"/>
     </g>
     <g id="text_9">
      <!-- 0.0 -->
      <g style="fill:#262626;" transform="translate(65.21 434.021617)scale(0.11 -0.11)">
       <use xlink:href="#ArialMT-48"/>
       <use x="55.615234" xlink:href="#ArialMT-46"/>
       <use x="83.398438" xlink:href="#ArialMT-48"/>
      </g>
     </g>
    </g>
    <g id="ytick_4">
     <g id="line2d_10">
      <path clip-path="url(#p61b4469615)" d="M 90 332.997903 
L 648 332.997903 
" style="fill:none;stroke:#ffffff;stroke-linecap:round;"/>
     </g>
     <g id="text_10">
      <!-- 0.5 -->
      <g style="fill:#262626;" transform="translate(65.21 336.9347)scale(0.11 -0.11)">
       <use xlink:href="#ArialMT-48"/>
       <use x="55.615234" xlink:href="#ArialMT-46"/>
       <use x="83.398438" xlink:href="#ArialMT-53"/>
      </g>
     </g>
    </g>
    <g id="ytick_5">
     <g id="line2d_11">
      <path clip-path="url(#p61b4469615)" d="M 90 235.910987 
L 648 235.910987 
" style="fill:none;stroke:#ffffff;stroke-linecap:round;"/>
     </g>
     <g id="text_11">
      <!-- 1.0 -->
      <g style="fill:#262626;" transform="translate(65.21 239.847784)scale(0.11 -0.11)">
       <use xlink:href="#ArialMT-49"/>
       <use x="55.615234" xlink:href="#ArialMT-46"/>
       <use x="83.398438" xlink:href="#ArialMT-48"/>
      </g>
     </g>
    </g>
    <g id="ytick_6">
     <g id="line2d_12">
      <path clip-path="url(#p61b4469615)" d="M 90 138.82407 
L 648 138.82407 
" style="fill:none;stroke:#ffffff;stroke-linecap:round;"/>
     </g>
     <g id="text_12">
      <!-- 1.5 -->
      <g style="fill:#262626;" transform="translate(65.21 142.760867)scale(0.11 -0.11)">
       <use xlink:href="#ArialMT-49"/>
       <use x="55.615234" xlink:href="#ArialMT-46"/>
       <use x="83.398438" xlink:href="#ArialMT-53"/>
      </g>
     </g>
    </g>
   </g>
   <g id="PathCollection_1">
    <defs>
     <path d="M 0 3 
C 0.795609 3 1.55874 2.683901 2.12132 2.12132 
C 2.683901 1.55874 3 0.795609 3 0 
C 3 -0.795609 2.683901 -1.55874 2.12132 -2.12132 
C 1.55874 -2.683901 0.795609 -3 0 -3 
C -0.795609 -3 -1.55874 -2.683901 -2.12132 -2.12132 
C -2.683901 -1.55874 -3 -0.795609 -3 0 
C -3 0.795609 -2.683901 1.55874 -2.12132 2.12132 
C -1.55874 2.683901 -0.795609 3 0 3 
z
" id="m817921f94e" style="stroke:#4c72b0;"/>
    </defs>
    <g clip-path="url(#p61b4469615)">
     <use style="fill:#4c72b0;stroke:#4c72b0;" x="608.278588" xlink:href="#m817921f94e" y="426.104205"/>
    </g>
   </g>
   <g id="PathCollection_2">
    <defs>
     <path d="M 0 3 
C 0.795609 3 1.55874 2.683901 2.12132 2.12132 
C 2.683901 1.55874 3 0.795609 3 0 
C 3 -0.795609 2.683901 -1.55874 2.12132 -2.12132 
C 1.55874 -2.683901 0.795609 -3 0 -3 
C -0.795609 -3 -1.55874 -2.683901 -2.12132 -2.12132 
C -2.683901 -1.55874 -3 -0.795609 -3 0 
C -3 0.795609 -2.683901 1.55874 -2.12132 2.12132 
C -1.55874 2.683901 -0.795609 3 0 3 
z
" id="m6d7f13fb52" style="stroke:#64b5cd;"/>
    </defs>
    <g clip-path="url(#p61b4469615)">
     <use style="fill:#64b5cd;stroke:#64b5cd;" x="121.71045" xlink:href="#m6d7f13fb52" y="193.033032"/>
    </g>
   </g>
   <g id="PathCollection_3">
    <g clip-path="url(#p61b4469615)">
     <use style="fill:#4c72b0;stroke:#4c72b0;" x="602.825177" xlink:href="#m817921f94e" y="453.693006"/>
    </g>
   </g>
   <g id="PathCollection_4">
    <g clip-path="url(#p61b4469615)">
     <use style="fill:#64b5cd;stroke:#64b5cd;" x="121.845998" xlink:href="#m6d7f13fb52" y="255.659671"/>
    </g>
   </g>
   <g id="PathCollection_5">
    <defs>
     <path d="M 0 3 
C 0.795609 3 1.55874 2.683901 2.12132 2.12132 
C 2.683901 1.55874 3 0.795609 3 0 
C 3 -0.795609 2.683901 -1.55874 2.12132 -2.12132 
C 1.55874 -2.683901 0.795609 -3 0 -3 
C -0.795609 -3 -1.55874 -2.683901 -2.12132 -2.12132 
C -2.683901 -1.55874 -3 -0.795609 -3 0 
C -3 0.795609 -2.683901 1.55874 -2.12132 2.12132 
C -1.55874 2.683901 -0.795609 3 0 3 
z
" id="m838c1c90af" style="stroke:#8172b3;"/>
    </defs>
    <g clip-path="url(#p61b4469615)">
     <use style="fill:#8172b3;stroke:#8172b3;" x="158.575629" xlink:href="#m838c1c90af" y="601.837512"/>
    </g>
   </g>
   <g id="PathCollection_6">
    <defs>
     <path d="M 0 3 
C 0.795609 3 1.55874 2.683901 2.12132 2.12132 
C 2.683901 1.55874 3 0.795609 3 0 
C 3 -0.795609 2.683901 -1.55874 2.12132 -2.12132 
C 1.55874 -2.683901 0.795609 -3 0 -3 
C -0.795609 -3 -1.55874 -2.683901 -2.12132 -2.12132 
C -2.683901 -1.55874 -3 -0.795609 -3 0 
C -3 0.795609 -2.683901 1.55874 -2.12132 2.12132 
C -1.55874 2.683901 -0.795609 3 0 3 
z
" id="m8e7dd57bf9" style="stroke:#55a868;"/>
    </defs>
    <g clip-path="url(#p61b4469615)">
     <use style="fill:#55a868;stroke:#55a868;" x="549.2466" xlink:href="#m8e7dd57bf9" y="425.523397"/>
    </g>
   </g>
   <g id="PathCollection_7">
    <g clip-path="url(#p61b4469615)">
     <use style="fill:#4c72b0;stroke:#4c72b0;" x="619.361934" xlink:href="#m817921f94e" y="437.709925"/>
    </g>
   </g>
   <g id="PathCollection_8">
    <g clip-path="url(#p61b4469615)">
     <use style="fill:#4c72b0;stroke:#4c72b0;" x="613.8964" xlink:href="#m817921f94e" y="476.814329"/>
    </g>
   </g>
   <g id="PathCollection_9">
    <g clip-path="url(#p61b4469615)">
     <use style="fill:#8172b3;stroke:#8172b3;" x="158.38801" xlink:href="#m838c1c90af" y="481.026658"/>
    </g>
   </g>
   <g id="PathCollection_10">
    <g clip-path="url(#p61b4469615)">
     <use style="fill:#64b5cd;stroke:#64b5cd;" x="124.068629" xlink:href="#m6d7f13fb52" y="296.913061"/>
    </g>
   </g>
   <g id="PathCollection_11">
    <defs>
     <path d="M 0 3 
C 0.795609 3 1.55874 2.683901 2.12132 2.12132 
C 2.683901 1.55874 3 0.795609 3 0 
C 3 -0.795609 2.683901 -1.55874 2.12132 -2.12132 
C 1.55874 -2.683901 0.795609 -3 0 -3 
C -0.795609 -3 -1.55874 -2.683901 -2.12132 -2.12132 
C -2.683901 -1.55874 -3 -0.795609 -3 0 
C -3 0.795609 -2.683901 1.55874 -2.12132 2.12132 
C -1.55874 2.683901 -0.795609 3 0 3 
z
" id="md542075592" style="stroke:#c44e52;"/>
    </defs>
    <g clip-path="url(#p61b4469615)">
     <use style="fill:#c44e52;stroke:#c44e52;" x="120.781984" xlink:href="#md542075592" y="483.138166"/>
    </g>
   </g>
   <g id="PathCollection_12">
    <g clip-path="url(#p61b4469615)">
     <use style="fill:#4c72b0;stroke:#4c72b0;" x="622.636364" xlink:href="#m817921f94e" y="420.565601"/>
    </g>
   </g>
   <g id="PathCollection_13">
    <g clip-path="url(#p61b4469615)">
     <use style="fill:#55a868;stroke:#55a868;" x="574.254684" xlink:href="#m8e7dd57bf9" y="454.462289"/>
    </g>
   </g>
   <g id="PathCollection_14">
    <g clip-path="url(#p61b4469615)">
     <use style="fill:#55a868;stroke:#55a868;" x="540.817551" xlink:href="#m8e7dd57bf9" y="413.342205"/>
    </g>
   </g>
   <g id="PathCollection_15">
    <g clip-path="url(#p61b4469615)">
     <use style="fill:#c44e52;stroke:#c44e52;" x="121.906468" xlink:href="#md542075592" y="518.039914"/>
    </g>
   </g>
   <g id="PathCollection_16">
    <g clip-path="url(#p61b4469615)">
     <use style="fill:#64b5cd;stroke:#64b5cd;" x="116.757652" xlink:href="#m6d7f13fb52" y="405.848602"/>
    </g>
   </g>
   <g id="PathCollection_17">
    <g clip-path="url(#p61b4469615)">
     <use style="fill:#8172b3;stroke:#8172b3;" x="138.642174" xlink:href="#m838c1c90af" y="568.005532"/>
    </g>
   </g>
   <g id="PathCollection_18">
    <g clip-path="url(#p61b4469615)">
     <use style="fill:#64b5cd;stroke:#64b5cd;" x="118.040739" xlink:href="#m6d7f13fb52" y="111.109091"/>
    </g>
   </g>
   <g id="PathCollection_19">
    <g clip-path="url(#p61b4469615)">
     <use style="fill:#4c72b0;stroke:#4c72b0;" x="609.243818" xlink:href="#m817921f94e" y="440.369753"/>
    </g>
   </g>
   <g id="PathCollection_20">
    <g clip-path="url(#p61b4469615)">
     <use style="fill:#c44e52;stroke:#c44e52;" x="117.544622" xlink:href="#md542075592" y="595.750815"/>
    </g>
   </g>
   <g id="PathCollection_21">
    <g clip-path="url(#p61b4469615)">
     <use style="fill:#4c72b0;stroke:#4c72b0;" x="610.930656" xlink:href="#m817921f94e" y="443.894123"/>
    </g>
   </g>
   <g id="PathCollection_22">
    <g clip-path="url(#p61b4469615)">
     <use style="fill:#55a868;stroke:#55a868;" x="560.223899" xlink:href="#m8e7dd57bf9" y="357.299583"/>
    </g>
   </g>
   <g id="PathCollection_23">
    <g clip-path="url(#p61b4469615)">
     <use style="fill:#4c72b0;stroke:#4c72b0;" x="611.630375" xlink:href="#m817921f94e" y="444.837268"/>
    </g>
   </g>
   <g id="PathCollection_24">
    <g clip-path="url(#p61b4469615)">
     <use style="fill:#8172b3;stroke:#8172b3;" x="132.771226" xlink:href="#m838c1c90af" y="605.290909"/>
    </g>
   </g>
   <g id="PathCollection_25">
    <g clip-path="url(#p61b4469615)">
     <use style="fill:#c44e52;stroke:#c44e52;" x="120.826847" xlink:href="#md542075592" y="440.984972"/>
    </g>
   </g>
   <g id="PathCollection_26">
    <g clip-path="url(#p61b4469615)">
     <use style="fill:#8172b3;stroke:#8172b3;" x="138.800297" xlink:href="#m838c1c90af" y="597.342994"/>
    </g>
   </g>
   <g id="PathCollection_27">
    <g clip-path="url(#p61b4469615)">
     <use style="fill:#64b5cd;stroke:#64b5cd;" x="119.633284" xlink:href="#m6d7f13fb52" y="243.188855"/>
    </g>
   </g>
   <g id="PathCollection_28">
    <g clip-path="url(#p61b4469615)">
     <use style="fill:#55a868;stroke:#55a868;" x="580.383733" xlink:href="#m8e7dd57bf9" y="465.663934"/>
    </g>
   </g>
   <g id="PathCollection_29">
    <g clip-path="url(#p61b4469615)">
     <use style="fill:#8172b3;stroke:#8172b3;" x="155.900341" xlink:href="#m838c1c90af" y="500.650947"/>
    </g>
   </g>
   <g id="PathCollection_30">
    <g clip-path="url(#p61b4469615)">
     <use style="fill:#c44e52;stroke:#c44e52;" x="115.363636" xlink:href="#md542075592" y="518.025633"/>
    </g>
   </g>
   <g id="PathCollection_31">
    <g clip-path="url(#p61b4469615)">
     <use style="fill:#55a868;stroke:#55a868;" x="568.002976" xlink:href="#m8e7dd57bf9" y="403.38697"/>
    </g>
   </g>
   <g id="PathCollection_32">
    <g clip-path="url(#p61b4469615)">
     <use style="fill:#c44e52;stroke:#c44e52;" x="123.954571" xlink:href="#md542075592" y="475.850165"/>
    </g>
   </g>
   <g id="PathCollection_33">
    <g clip-path="url(#p61b4469615)">
     <use style="fill:#c44e52;stroke:#c44e52;" x="116.659449" xlink:href="#md542075592" y="530.414594"/>
    </g>
   </g>
   <g id="PathCollection_34">
    <g clip-path="url(#p61b4469615)">
     <use style="fill:#8172b3;stroke:#8172b3;" x="155.457751" xlink:href="#m838c1c90af" y="467.782005"/>
    </g>
   </g>
   <g id="PathCollection_35">
    <g clip-path="url(#p61b4469615)">
     <use style="fill:#55a868;stroke:#55a868;" x="558.54583" xlink:href="#m8e7dd57bf9" y="370.437351"/>
    </g>
   </g>
   <g id="PathCollection_36">
    <g clip-path="url(#p61b4469615)">
     <use style="fill:#64b5cd;stroke:#64b5cd;" x="125.356522" xlink:href="#m6d7f13fb52" y="243.509561"/>
    </g>
   </g>
   <g id="PathCollection_37">
    <g clip-path="url(#p61b4469615)">
     <use style="fill:#c44e52;stroke:#c44e52;" x="124.452448" xlink:href="#md542075592" y="499.24254"/>
    </g>
   </g>
   <g id="PathCollection_38">
    <g clip-path="url(#p61b4469615)">
     <use style="fill:#4c72b0;stroke:#4c72b0;" x="615.867256" xlink:href="#m817921f94e" y="435.163337"/>
    </g>
   </g>
   <g id="PathCollection_39">
    <g clip-path="url(#p61b4469615)">
     <use style="fill:#c44e52;stroke:#c44e52;" x="119.711208" xlink:href="#md542075592" y="534.880188"/>
    </g>
   </g>
   <g id="PathCollection_40">
    <g clip-path="url(#p61b4469615)">
     <use style="fill:#8172b3;stroke:#8172b3;" x="157.287589" xlink:href="#m838c1c90af" y="558.250445"/>
    </g>
   </g>
   <g id="PathCollection_41">
    <g clip-path="url(#p61b4469615)">
     <use style="fill:#64b5cd;stroke:#64b5cd;" x="123.57459" xlink:href="#m6d7f13fb52" y="169.47767"/>
    </g>
   </g>
   <g id="PathCollection_42">
    <g clip-path="url(#p61b4469615)">
     <use style="fill:#55a868;stroke:#55a868;" x="537.124458" xlink:href="#m8e7dd57bf9" y="450.311499"/>
    </g>
   </g>
   <g id="PathCollection_43">
    <g clip-path="url(#p61b4469615)">
     <use style="fill:#8172b3;stroke:#8172b3;" x="164.413017" xlink:href="#m838c1c90af" y="484.051947"/>
    </g>
   </g>
   <g id="PathCollection_44">
    <g clip-path="url(#p61b4469615)">
     <use style="fill:#55a868;stroke:#55a868;" x="551.87873" xlink:href="#m8e7dd57bf9" y="407.071512"/>
    </g>
   </g>
   <g id="PathCollection_45">
    <g clip-path="url(#p61b4469615)">
     <use style="fill:#55a868;stroke:#55a868;" x="564.002209" xlink:href="#m8e7dd57bf9" y="381.248566"/>
    </g>
   </g>
   <g id="PathCollection_46">
    <g clip-path="url(#p61b4469615)">
     <use style="fill:#4c72b0;stroke:#4c72b0;" x="612.305106" xlink:href="#m817921f94e" y="423.124052"/>
    </g>
   </g>
   <g id="PathCollection_47">
    <g clip-path="url(#p61b4469615)">
     <use style="fill:#64b5cd;stroke:#64b5cd;" x="118.476257" xlink:href="#m6d7f13fb52" y="241.28778"/>
    </g>
   </g>
   <g id="PathCollection_48">
    <g clip-path="url(#p61b4469615)">
     <use style="fill:#c44e52;stroke:#c44e52;" x="123.466283" xlink:href="#md542075592" y="492.455204"/>
    </g>
   </g>
   <g id="patch_3">
    <path d="M 90 630 
L 90 86.4 
" style="fill:none;stroke:#ffffff;stroke-linecap:square;stroke-linejoin:miter;stroke-width:1.25;"/>
   </g>
   <g id="patch_4">
    <path d="M 648 630 
L 648 86.4 
" style="fill:none;stroke:#ffffff;stroke-linecap:square;stroke-linejoin:miter;stroke-width:1.25;"/>
   </g>
   <g id="patch_5">
    <path d="M 90 630 
L 648 630 
" style="fill:none;stroke:#ffffff;stroke-linecap:square;stroke-linejoin:miter;stroke-width:1.25;"/>
   </g>
   <g id="patch_6">
    <path d="M 90 86.4 
L 648 86.4 
" style="fill:none;stroke:#ffffff;stroke-linecap:square;stroke-linejoin:miter;stroke-width:1.25;"/>
   </g>
   <g id="legend_1">
    <g id="patch_7">
     <path d="M 593.22125 189.473594 
L 640.3 189.473594 
Q 642.5 189.473594 642.5 187.273594 
L 642.5 94.1 
Q 642.5 91.9 640.3 91.9 
L 593.22125 91.9 
Q 591.02125 91.9 591.02125 94.1 
L 591.02125 187.273594 
Q 591.02125 189.473594 593.22125 189.473594 
z
" style="fill:#eaeaf2;opacity:0.8;stroke:#cccccc;stroke-linejoin:miter;"/>
    </g>
    <g id="text_13">
     <!-- Classes -->
     <defs>
      <path d="M 58.796875 25.09375 
L 68.265625 22.703125 
Q 65.28125 11.03125 57.546875 4.90625 
Q 49.8125 -1.21875 38.625 -1.21875 
Q 27.046875 -1.21875 19.796875 3.484375 
Q 12.546875 8.203125 8.765625 17.140625 
Q 4.984375 26.078125 4.984375 36.328125 
Q 4.984375 47.515625 9.25 55.828125 
Q 13.53125 64.15625 21.40625 68.46875 
Q 29.296875 72.796875 38.765625 72.796875 
Q 49.515625 72.796875 56.828125 67.328125 
Q 64.15625 61.859375 67.046875 51.953125 
L 57.71875 49.75 
Q 55.21875 57.5625 50.484375 61.125 
Q 45.75 64.703125 38.578125 64.703125 
Q 30.328125 64.703125 24.78125 60.734375 
Q 19.234375 56.78125 16.984375 50.109375 
Q 14.75 43.453125 14.75 36.375 
Q 14.75 27.25 17.40625 20.4375 
Q 20.0625 13.625 25.671875 10.25 
Q 31.296875 6.890625 37.84375 6.890625 
Q 45.796875 6.890625 51.3125 11.46875 
Q 56.84375 16.0625 58.796875 25.09375 
z
" id="ArialMT-67"/>
      <path d="M 6.390625 0 
L 6.390625 71.578125 
L 15.1875 71.578125 
L 15.1875 0 
z
" id="ArialMT-108"/>
      <path d="M 40.4375 6.390625 
Q 35.546875 2.25 31.03125 0.53125 
Q 26.515625 -1.171875 21.34375 -1.171875 
Q 12.796875 -1.171875 8.203125 3 
Q 3.609375 7.171875 3.609375 13.671875 
Q 3.609375 17.484375 5.34375 20.625 
Q 7.078125 23.78125 9.890625 25.6875 
Q 12.703125 27.59375 16.21875 28.5625 
Q 18.796875 29.25 24.03125 29.890625 
Q 34.671875 31.15625 39.703125 32.90625 
Q 39.75 34.71875 39.75 35.203125 
Q 39.75 40.578125 37.25 42.78125 
Q 33.890625 45.75 27.25 45.75 
Q 21.046875 45.75 18.09375 43.578125 
Q 15.140625 41.40625 13.71875 35.890625 
L 5.125 37.0625 
Q 6.296875 42.578125 8.984375 45.96875 
Q 11.671875 49.359375 16.75 51.1875 
Q 21.828125 53.03125 28.515625 53.03125 
Q 35.15625 53.03125 39.296875 51.46875 
Q 43.453125 49.90625 45.40625 47.53125 
Q 47.359375 45.171875 48.140625 41.546875 
Q 48.578125 39.3125 48.578125 33.453125 
L 48.578125 21.734375 
Q 48.578125 9.46875 49.140625 6.21875 
Q 49.703125 2.984375 51.375 0 
L 42.1875 0 
Q 40.828125 2.734375 40.4375 6.390625 
z
M 39.703125 26.03125 
Q 34.90625 24.078125 25.34375 22.703125 
Q 19.921875 21.921875 17.671875 20.9375 
Q 15.4375 19.96875 14.203125 18.09375 
Q 12.984375 16.21875 12.984375 13.921875 
Q 12.984375 10.40625 15.640625 8.0625 
Q 18.3125 5.71875 23.4375 5.71875 
Q 28.515625 5.71875 32.46875 7.9375 
Q 36.421875 10.15625 38.28125 14.015625 
Q 39.703125 17 39.703125 22.796875 
z
" id="ArialMT-97"/>
      <path d="M 3.078125 15.484375 
L 11.765625 16.84375 
Q 12.5 11.625 15.84375 8.84375 
Q 19.1875 6.0625 25.203125 6.0625 
Q 31.25 6.0625 34.171875 8.515625 
Q 37.109375 10.984375 37.109375 14.3125 
Q 37.109375 17.28125 34.515625 19 
Q 32.71875 20.171875 25.53125 21.96875 
Q 15.875 24.421875 12.140625 26.203125 
Q 8.40625 27.984375 6.46875 31.125 
Q 4.546875 34.28125 4.546875 38.09375 
Q 4.546875 41.546875 6.125 44.5 
Q 7.71875 47.46875 10.453125 49.421875 
Q 12.5 50.921875 16.03125 51.96875 
Q 19.578125 53.03125 23.640625 53.03125 
Q 29.734375 53.03125 34.34375 51.265625 
Q 38.96875 49.515625 41.15625 46.5 
Q 43.359375 43.5 44.1875 38.484375 
L 35.59375 37.3125 
Q 35.015625 41.3125 32.203125 43.546875 
Q 29.390625 45.796875 24.265625 45.796875 
Q 18.21875 45.796875 15.625 43.796875 
Q 13.03125 41.796875 13.03125 39.109375 
Q 13.03125 37.40625 14.109375 36.03125 
Q 15.1875 34.625 17.484375 33.6875 
Q 18.796875 33.203125 25.25 31.453125 
Q 34.578125 28.953125 38.25 27.359375 
Q 41.9375 25.78125 44.03125 22.75 
Q 46.140625 19.734375 46.140625 15.234375 
Q 46.140625 10.84375 43.578125 6.953125 
Q 41.015625 3.078125 36.171875 0.953125 
Q 31.34375 -1.171875 25.25 -1.171875 
Q 15.140625 -1.171875 9.84375 3.03125 
Q 4.546875 7.234375 3.078125 15.484375 
z
" id="ArialMT-115"/>
      <path d="M 42.09375 16.703125 
L 51.171875 15.578125 
Q 49.03125 7.625 43.21875 3.21875 
Q 37.40625 -1.171875 28.375 -1.171875 
Q 17 -1.171875 10.328125 5.828125 
Q 3.65625 12.84375 3.65625 25.484375 
Q 3.65625 38.578125 10.390625 45.796875 
Q 17.140625 53.03125 27.875 53.03125 
Q 38.28125 53.03125 44.875 45.953125 
Q 51.46875 38.875 51.46875 26.03125 
Q 51.46875 25.25 51.421875 23.6875 
L 12.75 23.6875 
Q 13.234375 15.140625 17.578125 10.59375 
Q 21.921875 6.0625 28.421875 6.0625 
Q 33.25 6.0625 36.671875 8.59375 
Q 40.09375 11.140625 42.09375 16.703125 
z
M 13.234375 30.90625 
L 42.1875 30.90625 
Q 41.609375 37.453125 38.875 40.71875 
Q 34.671875 45.796875 27.984375 45.796875 
Q 21.921875 45.796875 17.796875 41.75 
Q 13.671875 37.703125 13.234375 30.90625 
z
" id="ArialMT-101"/>
     </defs>
     <g style="fill:#262626;" transform="translate(595.42125 104.889375)scale(0.12 -0.12)">
      <use xlink:href="#ArialMT-67"/>
      <use x="72.216797" xlink:href="#ArialMT-108"/>
      <use x="94.433594" xlink:href="#ArialMT-97"/>
      <use x="150.048828" xlink:href="#ArialMT-115"/>
      <use x="200.048828" xlink:href="#ArialMT-115"/>
      <use x="250.048828" xlink:href="#ArialMT-101"/>
      <use x="305.664062" xlink:href="#ArialMT-115"/>
     </g>
    </g>
    <g id="line2d_13">
     <path d="M 597.082656 116.797969 
L 619.082656 116.797969 
" style="fill:none;stroke:#4c72b0;stroke-linecap:round;stroke-width:1.5;"/>
    </g>
    <g id="line2d_14">
     <g>
      <use style="fill:#4c72b0;stroke:#4c72b0;" x="608.082656" xlink:href="#m817921f94e" y="116.797969"/>
     </g>
    </g>
    <g id="text_14">
     <!-- B -->
     <defs>
      <path d="M 7.328125 0 
L 7.328125 71.578125 
L 34.1875 71.578125 
Q 42.390625 71.578125 47.34375 69.40625 
Q 52.296875 67.234375 55.09375 62.71875 
Q 57.90625 58.203125 57.90625 53.265625 
Q 57.90625 48.6875 55.421875 44.625 
Q 52.9375 40.578125 47.90625 38.09375 
Q 54.390625 36.1875 57.875 31.59375 
Q 61.375 27 61.375 20.75 
Q 61.375 15.71875 59.25 11.390625 
Q 57.125 7.078125 54 4.734375 
Q 50.875 2.390625 46.15625 1.1875 
Q 41.453125 0 34.625 0 
z
M 16.796875 41.5 
L 32.28125 41.5 
Q 38.578125 41.5 41.3125 42.328125 
Q 44.921875 43.40625 46.75 45.890625 
Q 48.578125 48.390625 48.578125 52.15625 
Q 48.578125 55.71875 46.875 58.421875 
Q 45.171875 61.140625 41.984375 62.140625 
Q 38.8125 63.140625 31.109375 63.140625 
L 16.796875 63.140625 
z
M 16.796875 8.453125 
L 34.625 8.453125 
Q 39.203125 8.453125 41.0625 8.796875 
Q 44.34375 9.375 46.53125 10.734375 
Q 48.734375 12.109375 50.140625 14.71875 
Q 51.5625 17.328125 51.5625 20.75 
Q 51.5625 24.75 49.515625 27.703125 
Q 47.46875 30.671875 43.828125 31.859375 
Q 40.1875 33.0625 33.34375 33.0625 
L 16.796875 33.0625 
z
" id="ArialMT-66"/>
     </defs>
     <g style="fill:#262626;" transform="translate(627.882656 120.647969)scale(0.11 -0.11)">
      <use xlink:href="#ArialMT-66"/>
     </g>
    </g>
    <g id="line2d_15">
     <path d="M 597.082656 132.357813 
L 619.082656 132.357813 
" style="fill:none;stroke:#55a868;stroke-linecap:round;stroke-width:1.5;"/>
    </g>
    <g id="line2d_16">
     <g>
      <use style="fill:#55a868;stroke:#55a868;" x="608.082656" xlink:href="#m8e7dd57bf9" y="132.357813"/>
     </g>
    </g>
    <g id="text_15">
     <!-- D -->
     <defs>
      <path d="M 7.71875 0 
L 7.71875 71.578125 
L 32.375 71.578125 
Q 40.71875 71.578125 45.125 70.5625 
Q 51.265625 69.140625 55.609375 65.4375 
Q 61.28125 60.640625 64.078125 53.1875 
Q 66.890625 45.75 66.890625 36.1875 
Q 66.890625 28.03125 64.984375 21.734375 
Q 63.09375 15.4375 60.109375 11.296875 
Q 57.125 7.171875 53.578125 4.796875 
Q 50.046875 2.4375 45.046875 1.21875 
Q 40.046875 0 33.546875 0 
z
M 17.1875 8.453125 
L 32.46875 8.453125 
Q 39.546875 8.453125 43.578125 9.765625 
Q 47.609375 11.078125 50 13.484375 
Q 53.375 16.84375 55.25 22.53125 
Q 57.125 28.21875 57.125 36.328125 
Q 57.125 47.5625 53.4375 53.59375 
Q 49.75 59.625 44.484375 61.671875 
Q 40.671875 63.140625 32.234375 63.140625 
L 17.1875 63.140625 
z
" id="ArialMT-68"/>
     </defs>
     <g style="fill:#262626;" transform="translate(627.882656 136.207813)scale(0.11 -0.11)">
      <use xlink:href="#ArialMT-68"/>
     </g>
    </g>
    <g id="line2d_17">
     <path d="M 597.082656 147.917656 
L 619.082656 147.917656 
" style="fill:none;stroke:#c44e52;stroke-linecap:round;stroke-width:1.5;"/>
    </g>
    <g id="line2d_18">
     <g>
      <use style="fill:#c44e52;stroke:#c44e52;" x="608.082656" xlink:href="#md542075592" y="147.917656"/>
     </g>
    </g>
    <g id="text_16">
     <!-- P -->
     <defs>
      <path d="M 7.71875 0 
L 7.71875 71.578125 
L 34.71875 71.578125 
Q 41.84375 71.578125 45.609375 70.90625 
Q 50.875 70.015625 54.4375 67.546875 
Q 58.015625 65.09375 60.1875 60.640625 
Q 62.359375 56.203125 62.359375 50.875 
Q 62.359375 41.75 56.546875 35.421875 
Q 50.734375 29.109375 35.546875 29.109375 
L 17.1875 29.109375 
L 17.1875 0 
z
M 17.1875 37.546875 
L 35.6875 37.546875 
Q 44.875 37.546875 48.734375 40.96875 
Q 52.59375 44.390625 52.59375 50.59375 
Q 52.59375 55.078125 50.3125 58.265625 
Q 48.046875 61.46875 44.34375 62.5 
Q 41.9375 63.140625 35.5 63.140625 
L 17.1875 63.140625 
z
" id="ArialMT-80"/>
     </defs>
     <g style="fill:#262626;" transform="translate(627.882656 151.767656)scale(0.11 -0.11)">
      <use xlink:href="#ArialMT-80"/>
     </g>
    </g>
    <g id="line2d_19">
     <path d="M 597.082656 163.4775 
L 619.082656 163.4775 
" style="fill:none;stroke:#64b5cd;stroke-linecap:round;stroke-width:1.5;"/>
    </g>
    <g id="line2d_20">
     <g>
      <use style="fill:#64b5cd;stroke:#64b5cd;" x="608.082656" xlink:href="#m6d7f13fb52" y="163.4775"/>
     </g>
    </g>
    <g id="text_17">
     <!-- O -->
     <defs>
      <path d="M 4.828125 34.859375 
Q 4.828125 52.6875 14.390625 62.765625 
Q 23.96875 72.859375 39.109375 72.859375 
Q 49.03125 72.859375 56.984375 68.109375 
Q 64.9375 63.375 69.109375 54.90625 
Q 73.296875 46.4375 73.296875 35.6875 
Q 73.296875 24.8125 68.890625 16.21875 
Q 64.5 7.625 56.4375 3.203125 
Q 48.390625 -1.21875 39.0625 -1.21875 
Q 28.953125 -1.21875 20.984375 3.65625 
Q 13.03125 8.546875 8.921875 16.984375 
Q 4.828125 25.4375 4.828125 34.859375 
z
M 14.59375 34.71875 
Q 14.59375 21.78125 21.546875 14.328125 
Q 28.515625 6.890625 39.015625 6.890625 
Q 49.703125 6.890625 56.609375 14.40625 
Q 63.53125 21.921875 63.53125 35.75 
Q 63.53125 44.484375 60.578125 51 
Q 57.625 57.515625 51.921875 61.109375 
Q 46.234375 64.703125 39.15625 64.703125 
Q 29.109375 64.703125 21.84375 57.78125 
Q 14.59375 50.875 14.59375 34.71875 
z
" id="ArialMT-79"/>
     </defs>
     <g style="fill:#262626;" transform="translate(627.882656 167.3275)scale(0.11 -0.11)">
      <use xlink:href="#ArialMT-79"/>
     </g>
    </g>
    <g id="line2d_21">
     <path d="M 597.082656 179.037344 
L 619.082656 179.037344 
" style="fill:none;stroke:#8172b3;stroke-linecap:round;stroke-width:1.5;"/>
    </g>
    <g id="line2d_22">
     <g>
      <use style="fill:#8172b3;stroke:#8172b3;" x="608.082656" xlink:href="#m838c1c90af" y="179.037344"/>
     </g>
    </g>
    <g id="text_18">
     <!-- N -->
     <defs>
      <path d="M 7.625 0 
L 7.625 71.578125 
L 17.328125 71.578125 
L 54.9375 15.375 
L 54.9375 71.578125 
L 64.015625 71.578125 
L 64.015625 0 
L 54.296875 0 
L 16.703125 56.25 
L 16.703125 0 
z
" id="ArialMT-78"/>
     </defs>
     <g style="fill:#262626;" transform="translate(627.882656 182.887344)scale(0.11 -0.11)">
      <use xlink:href="#ArialMT-78"/>
     </g>
    </g>
   </g>
  </g>
 </g>
 <defs>
  <clipPath id="p61b4469615">
   <rect height="543.6" width="558" x="90" y="86.4"/>
  </clipPath>
 </defs>
</svg>
