<?xml version="1.0" encoding="utf-8" standalone="no"?>
<!DOCTYPE svg PUBLIC "-//W3C//DTD SVG 1.1//EN"
  "http://www.w3.org/Graphics/SVG/1.1/DTD/svg11.dtd">
<!-- Created with matplotlib (https://matplotlib.org/) -->
<svg height="28.8pt" version="1.1" viewBox="0 0 1656 28.8" width="1656pt" xmlns="http://www.w3.org/2000/svg" xmlns:xlink="http://www.w3.org/1999/xlink">
 <defs>
  <style type="text/css">
*{stroke-linecap:butt;stroke-linejoin:round;}
  </style>
 </defs>
 <g id="figure_1">
  <g id="patch_1">
   <path d="M 0 28.8 
L 1656 28.8 
L 1656 0 
L 0 0 
z
" style="fill:#ffffff;"/>
  </g>
  <g id="axes_1">
   <g id="patch_2">
    <path d="M 207 25.2 
L 1490.4 25.2 
L 1490.4 3.456 
L 207 3.456 
z
" style="fill:#eaeaf2;"/>
   </g>
   <g id="matplotlib.axis_1">
    <g id="xtick_1">
     <g id="text_1">
      <!-- CCPent -->
      <defs>
       <path d="M 64.40625 67.28125 
L 64.40625 56.890625 
Q 59.421875 61.53125 53.78125 63.8125 
Q 48.140625 66.109375 41.796875 66.109375 
Q 29.296875 66.109375 22.65625 58.46875 
Q 16.015625 50.828125 16.015625 36.375 
Q 16.015625 21.96875 22.65625 14.328125 
Q 29.296875 6.6875 41.796875 6.6875 
Q 48.140625 6.6875 53.78125 8.984375 
Q 59.421875 11.28125 64.40625 15.921875 
L 64.40625 5.609375 
Q 59.234375 2.09375 53.4375 0.328125 
Q 47.65625 -1.421875 41.21875 -1.421875 
Q 24.65625 -1.421875 15.125 8.703125 
Q 5.609375 18.84375 5.609375 36.375 
Q 5.609375 53.953125 15.125 64.078125 
Q 24.65625 74.21875 41.21875 74.21875 
Q 47.75 74.21875 53.53125 72.484375 
Q 59.328125 70.75 64.40625 67.28125 
z
" id="DejaVuSans-67"/>
       <path d="M 19.671875 64.796875 
L 19.671875 37.40625 
L 32.078125 37.40625 
Q 38.96875 37.40625 42.71875 40.96875 
Q 46.484375 44.53125 46.484375 51.125 
Q 46.484375 57.671875 42.71875 61.234375 
Q 38.96875 64.796875 32.078125 64.796875 
z
M 9.8125 72.90625 
L 32.078125 72.90625 
Q 44.34375 72.90625 50.609375 67.359375 
Q 56.890625 61.8125 56.890625 51.125 
Q 56.890625 40.328125 50.609375 34.8125 
Q 44.34375 29.296875 32.078125 29.296875 
L 19.671875 29.296875 
L 19.671875 0 
L 9.8125 0 
z
" id="DejaVuSans-80"/>
       <path d="M 56.203125 29.59375 
L 56.203125 25.203125 
L 14.890625 25.203125 
Q 15.484375 15.921875 20.484375 11.0625 
Q 25.484375 6.203125 34.421875 6.203125 
Q 39.59375 6.203125 44.453125 7.46875 
Q 49.3125 8.734375 54.109375 11.28125 
L 54.109375 2.78125 
Q 49.265625 0.734375 44.1875 -0.34375 
Q 39.109375 -1.421875 33.890625 -1.421875 
Q 20.796875 -1.421875 13.15625 6.1875 
Q 5.515625 13.8125 5.515625 26.8125 
Q 5.515625 40.234375 12.765625 48.109375 
Q 20.015625 56 32.328125 56 
Q 43.359375 56 49.78125 48.890625 
Q 56.203125 41.796875 56.203125 29.59375 
z
M 47.21875 32.234375 
Q 47.125 39.59375 43.09375 43.984375 
Q 39.0625 48.390625 32.421875 48.390625 
Q 24.90625 48.390625 20.390625 44.140625 
Q 15.875 39.890625 15.1875 32.171875 
z
" id="DejaVuSans-101"/>
       <path d="M 54.890625 33.015625 
L 54.890625 0 
L 45.90625 0 
L 45.90625 32.71875 
Q 45.90625 40.484375 42.875 44.328125 
Q 39.84375 48.1875 33.796875 48.1875 
Q 26.515625 48.1875 22.3125 43.546875 
Q 18.109375 38.921875 18.109375 30.90625 
L 18.109375 0 
L 9.078125 0 
L 9.078125 54.6875 
L 18.109375 54.6875 
L 18.109375 46.1875 
Q 21.34375 51.125 25.703125 53.5625 
Q 30.078125 56 35.796875 56 
Q 45.21875 56 50.046875 50.171875 
Q 54.890625 44.34375 54.890625 33.015625 
z
" id="DejaVuSans-110"/>
       <path d="M 18.3125 70.21875 
L 18.3125 54.6875 
L 36.8125 54.6875 
L 36.8125 47.703125 
L 18.3125 47.703125 
L 18.3125 18.015625 
Q 18.3125 11.328125 20.140625 9.421875 
Q 21.96875 7.515625 27.59375 7.515625 
L 36.8125 7.515625 
L 36.8125 0 
L 27.59375 0 
Q 17.1875 0 13.234375 3.875 
Q 9.28125 7.765625 9.28125 18.015625 
L 9.28125 47.703125 
L 2.6875 47.703125 
L 2.6875 54.6875 
L 9.28125 54.6875 
L 9.28125 70.21875 
z
" id="DejaVuSans-116"/>
      </defs>
      <g style="fill:#262626;" transform="translate(223.985312 74.348125)rotate(-90)scale(0.11 -0.11)">
       <use xlink:href="#DejaVuSans-67"/>
       <use x="69.824219" xlink:href="#DejaVuSans-67"/>
       <use x="139.648438" xlink:href="#DejaVuSans-80"/>
       <use x="196.326172" xlink:href="#DejaVuSans-101"/>
       <use x="257.849609" xlink:href="#DejaVuSans-110"/>
       <use x="321.228516" xlink:href="#DejaVuSans-116"/>
      </g>
     </g>
    </g>
    <g id="xtick_2">
     <g id="text_2">
      <!-- QLKEIA -->
      <defs>
       <path d="M 39.40625 66.21875 
Q 28.65625 66.21875 22.328125 58.203125 
Q 16.015625 50.203125 16.015625 36.375 
Q 16.015625 22.609375 22.328125 14.59375 
Q 28.65625 6.59375 39.40625 6.59375 
Q 50.140625 6.59375 56.421875 14.59375 
Q 62.703125 22.609375 62.703125 36.375 
Q 62.703125 50.203125 56.421875 58.203125 
Q 50.140625 66.21875 39.40625 66.21875 
z
M 53.21875 1.3125 
L 66.21875 -12.890625 
L 54.296875 -12.890625 
L 43.5 -1.21875 
Q 41.890625 -1.3125 41.03125 -1.359375 
Q 40.1875 -1.421875 39.40625 -1.421875 
Q 24.03125 -1.421875 14.8125 8.859375 
Q 5.609375 19.140625 5.609375 36.375 
Q 5.609375 53.65625 14.8125 63.9375 
Q 24.03125 74.21875 39.40625 74.21875 
Q 54.734375 74.21875 63.90625 63.9375 
Q 73.09375 53.65625 73.09375 36.375 
Q 73.09375 23.6875 67.984375 14.640625 
Q 62.890625 5.609375 53.21875 1.3125 
z
" id="DejaVuSans-81"/>
       <path d="M 9.8125 72.90625 
L 19.671875 72.90625 
L 19.671875 8.296875 
L 55.171875 8.296875 
L 55.171875 0 
L 9.8125 0 
z
" id="DejaVuSans-76"/>
       <path d="M 9.8125 72.90625 
L 19.671875 72.90625 
L 19.671875 42.09375 
L 52.390625 72.90625 
L 65.09375 72.90625 
L 28.90625 38.921875 
L 67.671875 0 
L 54.6875 0 
L 19.671875 35.109375 
L 19.671875 0 
L 9.8125 0 
z
" id="DejaVuSans-75"/>
       <path d="M 9.8125 72.90625 
L 55.90625 72.90625 
L 55.90625 64.59375 
L 19.671875 64.59375 
L 19.671875 43.015625 
L 54.390625 43.015625 
L 54.390625 34.71875 
L 19.671875 34.71875 
L 19.671875 8.296875 
L 56.78125 8.296875 
L 56.78125 0 
L 9.8125 0 
z
" id="DejaVuSans-69"/>
       <path d="M 9.8125 72.90625 
L 19.671875 72.90625 
L 19.671875 0 
L 9.8125 0 
z
" id="DejaVuSans-73"/>
       <path d="M 34.1875 63.1875 
L 20.796875 26.90625 
L 47.609375 26.90625 
z
M 28.609375 72.90625 
L 39.796875 72.90625 
L 67.578125 0 
L 57.328125 0 
L 50.6875 18.703125 
L 17.828125 18.703125 
L 11.1875 0 
L 0.78125 0 
z
" id="DejaVuSans-65"/>
      </defs>
      <g style="fill:#262626;" transform="translate(251.885312 74.422031)rotate(-90)scale(0.11 -0.11)">
       <use xlink:href="#DejaVuSans-81"/>
       <use x="78.710938" xlink:href="#DejaVuSans-76"/>
       <use x="134.423828" xlink:href="#DejaVuSans-75"/>
       <use x="200" xlink:href="#DejaVuSans-69"/>
       <use x="263.183594" xlink:href="#DejaVuSans-73"/>
       <use x="292.675781" xlink:href="#DejaVuSans-65"/>
      </g>
     </g>
    </g>
    <g id="xtick_3">
     <g id="text_3">
      <!-- CCHex2-I24K -->
      <defs>
       <path d="M 9.8125 72.90625 
L 19.671875 72.90625 
L 19.671875 43.015625 
L 55.515625 43.015625 
L 55.515625 72.90625 
L 65.375 72.90625 
L 65.375 0 
L 55.515625 0 
L 55.515625 34.71875 
L 19.671875 34.71875 
L 19.671875 0 
L 9.8125 0 
z
" id="DejaVuSans-72"/>
       <path d="M 54.890625 54.6875 
L 35.109375 28.078125 
L 55.90625 0 
L 45.3125 0 
L 29.390625 21.484375 
L 13.484375 0 
L 2.875 0 
L 24.125 28.609375 
L 4.6875 54.6875 
L 15.28125 54.6875 
L 29.78125 35.203125 
L 44.28125 54.6875 
z
" id="DejaVuSans-120"/>
       <path d="M 19.1875 8.296875 
L 53.609375 8.296875 
L 53.609375 0 
L 7.328125 0 
L 7.328125 8.296875 
Q 12.9375 14.109375 22.625 23.890625 
Q 32.328125 33.6875 34.8125 36.53125 
Q 39.546875 41.84375 41.421875 45.53125 
Q 43.3125 49.21875 43.3125 52.78125 
Q 43.3125 58.59375 39.234375 62.25 
Q 35.15625 65.921875 28.609375 65.921875 
Q 23.96875 65.921875 18.8125 64.3125 
Q 13.671875 62.703125 7.8125 59.421875 
L 7.8125 69.390625 
Q 13.765625 71.78125 18.9375 73 
Q 24.125 74.21875 28.421875 74.21875 
Q 39.75 74.21875 46.484375 68.546875 
Q 53.21875 62.890625 53.21875 53.421875 
Q 53.21875 48.921875 51.53125 44.890625 
Q 49.859375 40.875 45.40625 35.40625 
Q 44.1875 33.984375 37.640625 27.21875 
Q 31.109375 20.453125 19.1875 8.296875 
z
" id="DejaVuSans-50"/>
       <path d="M 4.890625 31.390625 
L 31.203125 31.390625 
L 31.203125 23.390625 
L 4.890625 23.390625 
z
" id="DejaVuSans-45"/>
       <path d="M 37.796875 64.3125 
L 12.890625 25.390625 
L 37.796875 25.390625 
z
M 35.203125 72.90625 
L 47.609375 72.90625 
L 47.609375 25.390625 
L 58.015625 25.390625 
L 58.015625 17.1875 
L 47.609375 17.1875 
L 47.609375 0 
L 37.796875 0 
L 37.796875 17.1875 
L 4.890625 17.1875 
L 4.890625 26.703125 
z
" id="DejaVuSans-52"/>
      </defs>
      <g style="fill:#262626;" transform="translate(279.785312 106.844531)rotate(-90)scale(0.11 -0.11)">
       <use xlink:href="#DejaVuSans-67"/>
       <use x="69.824219" xlink:href="#DejaVuSans-67"/>
       <use x="139.648438" xlink:href="#DejaVuSans-72"/>
       <use x="214.84375" xlink:href="#DejaVuSans-101"/>
       <use x="274.617188" xlink:href="#DejaVuSans-120"/>
       <use x="333.796875" xlink:href="#DejaVuSans-50"/>
       <use x="397.419922" xlink:href="#DejaVuSans-45"/>
       <use x="433.503906" xlink:href="#DejaVuSans-73"/>
       <use x="462.996094" xlink:href="#DejaVuSans-50"/>
       <use x="526.619141" xlink:href="#DejaVuSans-52"/>
       <use x="590.242188" xlink:href="#DejaVuSans-75"/>
      </g>
     </g>
    </g>
    <g id="xtick_4">
     <g id="text_4">
      <!-- CCHept-I24N -->
      <defs>
       <path d="M 18.109375 8.203125 
L 18.109375 -20.796875 
L 9.078125 -20.796875 
L 9.078125 54.6875 
L 18.109375 54.6875 
L 18.109375 46.390625 
Q 20.953125 51.265625 25.265625 53.625 
Q 29.59375 56 35.59375 56 
Q 45.5625 56 51.78125 48.09375 
Q 58.015625 40.1875 58.015625 27.296875 
Q 58.015625 14.40625 51.78125 6.484375 
Q 45.5625 -1.421875 35.59375 -1.421875 
Q 29.59375 -1.421875 25.265625 0.953125 
Q 20.953125 3.328125 18.109375 8.203125 
z
M 48.6875 27.296875 
Q 48.6875 37.203125 44.609375 42.84375 
Q 40.53125 48.484375 33.40625 48.484375 
Q 26.265625 48.484375 22.1875 42.84375 
Q 18.109375 37.203125 18.109375 27.296875 
Q 18.109375 17.390625 22.1875 11.75 
Q 26.265625 6.109375 33.40625 6.109375 
Q 40.53125 6.109375 44.609375 11.75 
Q 48.6875 17.390625 48.6875 27.296875 
z
" id="DejaVuSans-112"/>
       <path d="M 9.8125 72.90625 
L 23.09375 72.90625 
L 55.421875 11.921875 
L 55.421875 72.90625 
L 64.984375 72.90625 
L 64.984375 0 
L 51.703125 0 
L 19.390625 60.984375 
L 19.390625 0 
L 9.8125 0 
z
" id="DejaVuSans-78"/>
      </defs>
      <g style="fill:#262626;" transform="translate(307.685312 105.839062)rotate(-90)scale(0.11 -0.11)">
       <use xlink:href="#DejaVuSans-67"/>
       <use x="69.824219" xlink:href="#DejaVuSans-67"/>
       <use x="139.648438" xlink:href="#DejaVuSans-72"/>
       <use x="214.84375" xlink:href="#DejaVuSans-101"/>
       <use x="276.367188" xlink:href="#DejaVuSans-112"/>
       <use x="339.84375" xlink:href="#DejaVuSans-116"/>
       <use x="379.052734" xlink:href="#DejaVuSans-45"/>
       <use x="415.136719" xlink:href="#DejaVuSans-73"/>
       <use x="444.628906" xlink:href="#DejaVuSans-50"/>
       <use x="508.251953" xlink:href="#DejaVuSans-52"/>
       <use x="571.875" xlink:href="#DejaVuSans-78"/>
      </g>
     </g>
    </g>
    <g id="xtick_5">
     <g id="text_5">
      <!-- CCHept-L28W -->
      <defs>
       <path d="M 31.78125 34.625 
Q 24.75 34.625 20.71875 30.859375 
Q 16.703125 27.09375 16.703125 20.515625 
Q 16.703125 13.921875 20.71875 10.15625 
Q 24.75 6.390625 31.78125 6.390625 
Q 38.8125 6.390625 42.859375 10.171875 
Q 46.921875 13.96875 46.921875 20.515625 
Q 46.921875 27.09375 42.890625 30.859375 
Q 38.875 34.625 31.78125 34.625 
z
M 21.921875 38.8125 
Q 15.578125 40.375 12.03125 44.71875 
Q 8.5 49.078125 8.5 55.328125 
Q 8.5 64.0625 14.71875 69.140625 
Q 20.953125 74.21875 31.78125 74.21875 
Q 42.671875 74.21875 48.875 69.140625 
Q 55.078125 64.0625 55.078125 55.328125 
Q 55.078125 49.078125 51.53125 44.71875 
Q 48 40.375 41.703125 38.8125 
Q 48.828125 37.15625 52.796875 32.3125 
Q 56.78125 27.484375 56.78125 20.515625 
Q 56.78125 9.90625 50.3125 4.234375 
Q 43.84375 -1.421875 31.78125 -1.421875 
Q 19.734375 -1.421875 13.25 4.234375 
Q 6.78125 9.90625 6.78125 20.515625 
Q 6.78125 27.484375 10.78125 32.3125 
Q 14.796875 37.15625 21.921875 38.8125 
z
M 18.3125 54.390625 
Q 18.3125 48.734375 21.84375 45.5625 
Q 25.390625 42.390625 31.78125 42.390625 
Q 38.140625 42.390625 41.71875 45.5625 
Q 45.3125 48.734375 45.3125 54.390625 
Q 45.3125 60.0625 41.71875 63.234375 
Q 38.140625 66.40625 31.78125 66.40625 
Q 25.390625 66.40625 21.84375 63.234375 
Q 18.3125 60.0625 18.3125 54.390625 
z
" id="DejaVuSans-56"/>
       <path d="M 3.328125 72.90625 
L 13.28125 72.90625 
L 28.609375 11.28125 
L 43.890625 72.90625 
L 54.984375 72.90625 
L 70.3125 11.28125 
L 85.59375 72.90625 
L 95.609375 72.90625 
L 77.296875 0 
L 64.890625 0 
L 49.515625 63.28125 
L 33.984375 0 
L 21.578125 0 
z
" id="DejaVuSans-87"/>
      </defs>
      <g style="fill:#262626;" transform="translate(335.585312 111.37)rotate(-90)scale(0.11 -0.11)">
       <use xlink:href="#DejaVuSans-67"/>
       <use x="69.824219" xlink:href="#DejaVuSans-67"/>
       <use x="139.648438" xlink:href="#DejaVuSans-72"/>
       <use x="214.84375" xlink:href="#DejaVuSans-101"/>
       <use x="276.367188" xlink:href="#DejaVuSans-112"/>
       <use x="339.84375" xlink:href="#DejaVuSans-116"/>
       <use x="379.052734" xlink:href="#DejaVuSans-45"/>
       <use x="415.136719" xlink:href="#DejaVuSans-76"/>
       <use x="470.849609" xlink:href="#DejaVuSans-50"/>
       <use x="534.472656" xlink:href="#DejaVuSans-56"/>
       <use x="598.095703" xlink:href="#DejaVuSans-87"/>
      </g>
     </g>
    </g>
    <g id="xtick_6">
     <g id="text_6">
      <!-- GRP22 -->
      <defs>
       <path d="M 59.515625 10.40625 
L 59.515625 29.984375 
L 43.40625 29.984375 
L 43.40625 38.09375 
L 69.28125 38.09375 
L 69.28125 6.78125 
Q 63.578125 2.734375 56.6875 0.65625 
Q 49.8125 -1.421875 42 -1.421875 
Q 24.90625 -1.421875 15.25 8.5625 
Q 5.609375 18.5625 5.609375 36.375 
Q 5.609375 54.25 15.25 64.234375 
Q 24.90625 74.21875 42 74.21875 
Q 49.125 74.21875 55.546875 72.453125 
Q 61.96875 70.703125 67.390625 67.28125 
L 67.390625 56.78125 
Q 61.921875 61.421875 55.765625 63.765625 
Q 49.609375 66.109375 42.828125 66.109375 
Q 29.4375 66.109375 22.71875 58.640625 
Q 16.015625 51.171875 16.015625 36.375 
Q 16.015625 21.625 22.71875 14.15625 
Q 29.4375 6.6875 42.828125 6.6875 
Q 48.046875 6.6875 52.140625 7.59375 
Q 56.25 8.5 59.515625 10.40625 
z
" id="DejaVuSans-71"/>
       <path d="M 44.390625 34.1875 
Q 47.5625 33.109375 50.5625 29.59375 
Q 53.5625 26.078125 56.59375 19.921875 
L 66.609375 0 
L 56 0 
L 46.6875 18.703125 
Q 43.0625 26.03125 39.671875 28.421875 
Q 36.28125 30.8125 30.421875 30.8125 
L 19.671875 30.8125 
L 19.671875 0 
L 9.8125 0 
L 9.8125 72.90625 
L 32.078125 72.90625 
Q 44.578125 72.90625 50.734375 67.671875 
Q 56.890625 62.453125 56.890625 51.90625 
Q 56.890625 45.015625 53.6875 40.46875 
Q 50.484375 35.9375 44.390625 34.1875 
z
M 19.671875 64.796875 
L 19.671875 38.921875 
L 32.078125 38.921875 
Q 39.203125 38.921875 42.84375 42.21875 
Q 46.484375 45.515625 46.484375 51.90625 
Q 46.484375 58.296875 42.84375 61.546875 
Q 39.203125 64.796875 32.078125 64.796875 
z
" id="DejaVuSans-82"/>
      </defs>
      <g style="fill:#262626;" transform="translate(363.485313 71.496719)rotate(-90)scale(0.11 -0.11)">
       <use xlink:href="#DejaVuSans-71"/>
       <use x="77.490234" xlink:href="#DejaVuSans-82"/>
       <use x="146.972656" xlink:href="#DejaVuSans-80"/>
       <use x="207.275391" xlink:href="#DejaVuSans-50"/>
       <use x="270.898438" xlink:href="#DejaVuSans-50"/>
      </g>
     </g>
    </g>
    <g id="xtick_7">
     <g id="text_7">
      <!-- CCHex -->
      <g style="fill:#262626;" transform="translate(391.385312 71.421094)rotate(-90)scale(0.11 -0.11)">
       <use xlink:href="#DejaVuSans-67"/>
       <use x="69.824219" xlink:href="#DejaVuSans-67"/>
       <use x="139.648438" xlink:href="#DejaVuSans-72"/>
       <use x="214.84375" xlink:href="#DejaVuSans-101"/>
       <use x="274.617188" xlink:href="#DejaVuSans-120"/>
      </g>
     </g>
    </g>
    <g id="xtick_8">
     <g id="text_8">
      <!-- NLKEIA -->
      <g style="fill:#262626;" transform="translate(419.285312 73.992344)rotate(-90)scale(0.11 -0.11)">
       <use xlink:href="#DejaVuSans-78"/>
       <use x="74.804688" xlink:href="#DejaVuSans-76"/>
       <use x="130.517578" xlink:href="#DejaVuSans-75"/>
       <use x="196.09375" xlink:href="#DejaVuSans-69"/>
       <use x="259.277344" xlink:href="#DejaVuSans-73"/>
       <use x="288.769531" xlink:href="#DejaVuSans-65"/>
      </g>
     </g>
    </g>
    <g id="xtick_9">
     <g id="text_9">
      <!-- CCHept-L28K -->
      <g style="fill:#262626;" transform="translate(447.185312 107.707344)rotate(-90)scale(0.11 -0.11)">
       <use xlink:href="#DejaVuSans-67"/>
       <use x="69.824219" xlink:href="#DejaVuSans-67"/>
       <use x="139.648438" xlink:href="#DejaVuSans-72"/>
       <use x="214.84375" xlink:href="#DejaVuSans-101"/>
       <use x="276.367188" xlink:href="#DejaVuSans-112"/>
       <use x="339.84375" xlink:href="#DejaVuSans-116"/>
       <use x="379.052734" xlink:href="#DejaVuSans-45"/>
       <use x="415.136719" xlink:href="#DejaVuSans-76"/>
       <use x="470.849609" xlink:href="#DejaVuSans-50"/>
       <use x="534.472656" xlink:href="#DejaVuSans-56"/>
       <use x="598.095703" xlink:href="#DejaVuSans-75"/>
      </g>
     </g>
    </g>
    <g id="xtick_10">
     <g id="text_10">
      <!-- CCHept-I24T -->
      <defs>
       <path d="M -0.296875 72.90625 
L 61.375 72.90625 
L 61.375 64.59375 
L 35.5 64.59375 
L 35.5 0 
L 25.59375 0 
L 25.59375 64.59375 
L -0.296875 64.59375 
z
" id="DejaVuSans-84"/>
      </defs>
      <g style="fill:#262626;" transform="translate(475.085312 104.328281)rotate(-90)scale(0.11 -0.11)">
       <use xlink:href="#DejaVuSans-67"/>
       <use x="69.824219" xlink:href="#DejaVuSans-67"/>
       <use x="139.648438" xlink:href="#DejaVuSans-72"/>
       <use x="214.84375" xlink:href="#DejaVuSans-101"/>
       <use x="276.367188" xlink:href="#DejaVuSans-112"/>
       <use x="339.84375" xlink:href="#DejaVuSans-116"/>
       <use x="379.052734" xlink:href="#DejaVuSans-45"/>
       <use x="415.136719" xlink:href="#DejaVuSans-73"/>
       <use x="444.628906" xlink:href="#DejaVuSans-50"/>
       <use x="508.251953" xlink:href="#DejaVuSans-52"/>
       <use x="571.875" xlink:href="#DejaVuSans-84"/>
      </g>
     </g>
    </g>
    <g id="xtick_11">
     <g id="text_11">
      <!-- CCHept-L7Y -->
      <defs>
       <path d="M 8.203125 72.90625 
L 55.078125 72.90625 
L 55.078125 68.703125 
L 28.609375 0 
L 18.3125 0 
L 43.21875 64.59375 
L 8.203125 64.59375 
z
" id="DejaVuSans-55"/>
       <path d="M -0.203125 72.90625 
L 10.40625 72.90625 
L 30.609375 42.921875 
L 50.6875 72.90625 
L 61.28125 72.90625 
L 35.5 34.71875 
L 35.5 0 
L 25.59375 0 
L 25.59375 34.71875 
z
" id="DejaVuSans-89"/>
      </defs>
      <g style="fill:#262626;" transform="translate(502.985313 100.213594)rotate(-90)scale(0.11 -0.11)">
       <use xlink:href="#DejaVuSans-67"/>
       <use x="69.824219" xlink:href="#DejaVuSans-67"/>
       <use x="139.648438" xlink:href="#DejaVuSans-72"/>
       <use x="214.84375" xlink:href="#DejaVuSans-101"/>
       <use x="276.367188" xlink:href="#DejaVuSans-112"/>
       <use x="339.84375" xlink:href="#DejaVuSans-116"/>
       <use x="379.052734" xlink:href="#DejaVuSans-45"/>
       <use x="415.136719" xlink:href="#DejaVuSans-76"/>
       <use x="470.849609" xlink:href="#DejaVuSans-55"/>
       <use x="534.472656" xlink:href="#DejaVuSans-89"/>
      </g>
     </g>
    </g>
    <g id="xtick_12">
     <g id="text_12">
      <!-- CCHex2 -->
      <g style="fill:#262626;" transform="translate(530.885313 78.419844)rotate(-90)scale(0.11 -0.11)">
       <use xlink:href="#DejaVuSans-67"/>
       <use x="69.824219" xlink:href="#DejaVuSans-67"/>
       <use x="139.648438" xlink:href="#DejaVuSans-72"/>
       <use x="214.84375" xlink:href="#DejaVuSans-101"/>
       <use x="274.617188" xlink:href="#DejaVuSans-120"/>
       <use x="333.796875" xlink:href="#DejaVuSans-50"/>
      </g>
     </g>
    </g>
    <g id="xtick_13">
     <g id="text_13">
      <!-- CCHept-I17G-L21G -->
      <defs>
       <path d="M 12.40625 8.296875 
L 28.515625 8.296875 
L 28.515625 63.921875 
L 10.984375 60.40625 
L 10.984375 69.390625 
L 28.421875 72.90625 
L 38.28125 72.90625 
L 38.28125 8.296875 
L 54.390625 8.296875 
L 54.390625 0 
L 12.40625 0 
z
" id="DejaVuSans-49"/>
      </defs>
      <g style="fill:#262626;" transform="translate(558.785313 138.751406)rotate(-90)scale(0.11 -0.11)">
       <use xlink:href="#DejaVuSans-67"/>
       <use x="69.824219" xlink:href="#DejaVuSans-67"/>
       <use x="139.648438" xlink:href="#DejaVuSans-72"/>
       <use x="214.84375" xlink:href="#DejaVuSans-101"/>
       <use x="276.367188" xlink:href="#DejaVuSans-112"/>
       <use x="339.84375" xlink:href="#DejaVuSans-116"/>
       <use x="379.052734" xlink:href="#DejaVuSans-45"/>
       <use x="415.136719" xlink:href="#DejaVuSans-73"/>
       <use x="444.628906" xlink:href="#DejaVuSans-49"/>
       <use x="508.251953" xlink:href="#DejaVuSans-55"/>
       <use x="571.875" xlink:href="#DejaVuSans-71"/>
       <use x="649.365234" xlink:href="#DejaVuSans-45"/>
       <use x="685.449219" xlink:href="#DejaVuSans-76"/>
       <use x="741.162109" xlink:href="#DejaVuSans-50"/>
       <use x="804.785156" xlink:href="#DejaVuSans-49"/>
       <use x="868.408203" xlink:href="#DejaVuSans-71"/>
      </g>
     </g>
    </g>
    <g id="xtick_14">
     <g id="text_14">
      <!-- CCHept-I17H -->
      <g style="fill:#262626;" transform="translate(586.685313 105.882031)rotate(-90)scale(0.11 -0.11)">
       <use xlink:href="#DejaVuSans-67"/>
       <use x="69.824219" xlink:href="#DejaVuSans-67"/>
       <use x="139.648438" xlink:href="#DejaVuSans-72"/>
       <use x="214.84375" xlink:href="#DejaVuSans-101"/>
       <use x="276.367188" xlink:href="#DejaVuSans-112"/>
       <use x="339.84375" xlink:href="#DejaVuSans-116"/>
       <use x="379.052734" xlink:href="#DejaVuSans-45"/>
       <use x="415.136719" xlink:href="#DejaVuSans-73"/>
       <use x="444.628906" xlink:href="#DejaVuSans-49"/>
       <use x="508.251953" xlink:href="#DejaVuSans-55"/>
       <use x="571.875" xlink:href="#DejaVuSans-72"/>
      </g>
     </g>
    </g>
    <g id="xtick_15">
     <g id="text_15">
      <!-- CCHept-I24H -->
      <g style="fill:#262626;" transform="translate(614.585312 105.882031)rotate(-90)scale(0.11 -0.11)">
       <use xlink:href="#DejaVuSans-67"/>
       <use x="69.824219" xlink:href="#DejaVuSans-67"/>
       <use x="139.648438" xlink:href="#DejaVuSans-72"/>
       <use x="214.84375" xlink:href="#DejaVuSans-101"/>
       <use x="276.367188" xlink:href="#DejaVuSans-112"/>
       <use x="339.84375" xlink:href="#DejaVuSans-116"/>
       <use x="379.052734" xlink:href="#DejaVuSans-45"/>
       <use x="415.136719" xlink:href="#DejaVuSans-73"/>
       <use x="444.628906" xlink:href="#DejaVuSans-50"/>
       <use x="508.251953" xlink:href="#DejaVuSans-52"/>
       <use x="571.875" xlink:href="#DejaVuSans-72"/>
      </g>
     </g>
    </g>
    <g id="xtick_16">
     <g id="text_16">
      <!-- CCHept-L28Y -->
      <g style="fill:#262626;" transform="translate(642.485313 107.212344)rotate(-90)scale(0.11 -0.11)">
       <use xlink:href="#DejaVuSans-67"/>
       <use x="69.824219" xlink:href="#DejaVuSans-67"/>
       <use x="139.648438" xlink:href="#DejaVuSans-72"/>
       <use x="214.84375" xlink:href="#DejaVuSans-101"/>
       <use x="276.367188" xlink:href="#DejaVuSans-112"/>
       <use x="339.84375" xlink:href="#DejaVuSans-116"/>
       <use x="379.052734" xlink:href="#DejaVuSans-45"/>
       <use x="415.136719" xlink:href="#DejaVuSans-76"/>
       <use x="470.849609" xlink:href="#DejaVuSans-50"/>
       <use x="534.472656" xlink:href="#DejaVuSans-56"/>
       <use x="598.095703" xlink:href="#DejaVuSans-89"/>
      </g>
     </g>
    </g>
    <g id="xtick_17">
     <g id="text_17">
      <!-- GRP46 -->
      <defs>
       <path d="M 33.015625 40.375 
Q 26.375 40.375 22.484375 35.828125 
Q 18.609375 31.296875 18.609375 23.390625 
Q 18.609375 15.53125 22.484375 10.953125 
Q 26.375 6.390625 33.015625 6.390625 
Q 39.65625 6.390625 43.53125 10.953125 
Q 47.40625 15.53125 47.40625 23.390625 
Q 47.40625 31.296875 43.53125 35.828125 
Q 39.65625 40.375 33.015625 40.375 
z
M 52.59375 71.296875 
L 52.59375 62.3125 
Q 48.875 64.0625 45.09375 64.984375 
Q 41.3125 65.921875 37.59375 65.921875 
Q 27.828125 65.921875 22.671875 59.328125 
Q 17.53125 52.734375 16.796875 39.40625 
Q 19.671875 43.65625 24.015625 45.921875 
Q 28.375 48.1875 33.59375 48.1875 
Q 44.578125 48.1875 50.953125 41.515625 
Q 57.328125 34.859375 57.328125 23.390625 
Q 57.328125 12.15625 50.6875 5.359375 
Q 44.046875 -1.421875 33.015625 -1.421875 
Q 20.359375 -1.421875 13.671875 8.265625 
Q 6.984375 17.96875 6.984375 36.375 
Q 6.984375 53.65625 15.1875 63.9375 
Q 23.390625 74.21875 37.203125 74.21875 
Q 40.921875 74.21875 44.703125 73.484375 
Q 48.484375 72.75 52.59375 71.296875 
z
" id="DejaVuSans-54"/>
      </defs>
      <g style="fill:#262626;" transform="translate(670.385313 71.496719)rotate(-90)scale(0.11 -0.11)">
       <use xlink:href="#DejaVuSans-71"/>
       <use x="77.490234" xlink:href="#DejaVuSans-82"/>
       <use x="146.972656" xlink:href="#DejaVuSans-80"/>
       <use x="207.275391" xlink:href="#DejaVuSans-52"/>
       <use x="270.898438" xlink:href="#DejaVuSans-54"/>
      </g>
     </g>
    </g>
    <g id="xtick_18">
     <g id="text_18">
      <!-- CCHept -->
      <g style="fill:#262626;" transform="translate(698.285313 76.398594)rotate(-90)scale(0.11 -0.11)">
       <use xlink:href="#DejaVuSans-67"/>
       <use x="69.824219" xlink:href="#DejaVuSans-67"/>
       <use x="139.648438" xlink:href="#DejaVuSans-72"/>
       <use x="214.84375" xlink:href="#DejaVuSans-101"/>
       <use x="276.367188" xlink:href="#DejaVuSans-112"/>
       <use x="339.84375" xlink:href="#DejaVuSans-116"/>
      </g>
     </g>
    </g>
    <g id="xtick_19">
     <g id="text_19">
      <!-- CCHept-I17A-L21A -->
      <g style="fill:#262626;" transform="translate(726.185313 136.506719)rotate(-90)scale(0.11 -0.11)">
       <use xlink:href="#DejaVuSans-67"/>
       <use x="69.824219" xlink:href="#DejaVuSans-67"/>
       <use x="139.648438" xlink:href="#DejaVuSans-72"/>
       <use x="214.84375" xlink:href="#DejaVuSans-101"/>
       <use x="276.367188" xlink:href="#DejaVuSans-112"/>
       <use x="339.84375" xlink:href="#DejaVuSans-116"/>
       <use x="379.052734" xlink:href="#DejaVuSans-45"/>
       <use x="415.136719" xlink:href="#DejaVuSans-73"/>
       <use x="444.628906" xlink:href="#DejaVuSans-49"/>
       <use x="508.251953" xlink:href="#DejaVuSans-55"/>
       <use x="571.875" xlink:href="#DejaVuSans-65"/>
       <use x="638.033203" xlink:href="#DejaVuSans-45"/>
       <use x="674.117188" xlink:href="#DejaVuSans-76"/>
       <use x="729.830078" xlink:href="#DejaVuSans-50"/>
       <use x="793.453125" xlink:href="#DejaVuSans-49"/>
       <use x="857.076172" xlink:href="#DejaVuSans-65"/>
      </g>
     </g>
    </g>
    <g id="xtick_20">
     <g id="text_20">
      <!-- CCHept-I17K-L24E -->
      <g style="fill:#262626;" transform="translate(754.085313 134.714063)rotate(-90)scale(0.11 -0.11)">
       <use xlink:href="#DejaVuSans-67"/>
       <use x="69.824219" xlink:href="#DejaVuSans-67"/>
       <use x="139.648438" xlink:href="#DejaVuSans-72"/>
       <use x="214.84375" xlink:href="#DejaVuSans-101"/>
       <use x="276.367188" xlink:href="#DejaVuSans-112"/>
       <use x="339.84375" xlink:href="#DejaVuSans-116"/>
       <use x="379.052734" xlink:href="#DejaVuSans-45"/>
       <use x="415.136719" xlink:href="#DejaVuSans-73"/>
       <use x="444.628906" xlink:href="#DejaVuSans-49"/>
       <use x="508.251953" xlink:href="#DejaVuSans-55"/>
       <use x="571.875" xlink:href="#DejaVuSans-75"/>
       <use x="626.951172" xlink:href="#DejaVuSans-45"/>
       <use x="663.035156" xlink:href="#DejaVuSans-76"/>
       <use x="718.748047" xlink:href="#DejaVuSans-50"/>
       <use x="782.371094" xlink:href="#DejaVuSans-52"/>
       <use x="845.994141" xlink:href="#DejaVuSans-69"/>
      </g>
     </g>
    </g>
    <g id="xtick_21">
     <g id="text_21">
      <!-- CCHept-L21S-I24S -->
      <defs>
       <path d="M 53.515625 70.515625 
L 53.515625 60.890625 
Q 47.90625 63.578125 42.921875 64.890625 
Q 37.9375 66.21875 33.296875 66.21875 
Q 25.25 66.21875 20.875 63.09375 
Q 16.5 59.96875 16.5 54.203125 
Q 16.5 49.359375 19.40625 46.890625 
Q 22.3125 44.4375 30.421875 42.921875 
L 36.375 41.703125 
Q 47.40625 39.59375 52.65625 34.296875 
Q 57.90625 29 57.90625 20.125 
Q 57.90625 9.515625 50.796875 4.046875 
Q 43.703125 -1.421875 29.984375 -1.421875 
Q 24.8125 -1.421875 18.96875 -0.25 
Q 13.140625 0.921875 6.890625 3.21875 
L 6.890625 13.375 
Q 12.890625 10.015625 18.65625 8.296875 
Q 24.421875 6.59375 29.984375 6.59375 
Q 38.421875 6.59375 43.015625 9.90625 
Q 47.609375 13.234375 47.609375 19.390625 
Q 47.609375 24.75 44.3125 27.78125 
Q 41.015625 30.8125 33.5 32.328125 
L 27.484375 33.5 
Q 16.453125 35.6875 11.515625 40.375 
Q 6.59375 45.0625 6.59375 53.421875 
Q 6.59375 63.09375 13.40625 68.65625 
Q 20.21875 74.21875 32.171875 74.21875 
Q 37.3125 74.21875 42.625 73.28125 
Q 47.953125 72.359375 53.515625 70.515625 
z
" id="DejaVuSans-83"/>
      </defs>
      <g style="fill:#262626;" transform="translate(781.985313 135.671406)rotate(-90)scale(0.11 -0.11)">
       <use xlink:href="#DejaVuSans-67"/>
       <use x="69.824219" xlink:href="#DejaVuSans-67"/>
       <use x="139.648438" xlink:href="#DejaVuSans-72"/>
       <use x="214.84375" xlink:href="#DejaVuSans-101"/>
       <use x="276.367188" xlink:href="#DejaVuSans-112"/>
       <use x="339.84375" xlink:href="#DejaVuSans-116"/>
       <use x="379.052734" xlink:href="#DejaVuSans-45"/>
       <use x="415.136719" xlink:href="#DejaVuSans-76"/>
       <use x="470.849609" xlink:href="#DejaVuSans-50"/>
       <use x="534.472656" xlink:href="#DejaVuSans-49"/>
       <use x="598.095703" xlink:href="#DejaVuSans-83"/>
       <use x="661.572266" xlink:href="#DejaVuSans-45"/>
       <use x="697.65625" xlink:href="#DejaVuSans-73"/>
       <use x="727.148438" xlink:href="#DejaVuSans-50"/>
       <use x="790.771484" xlink:href="#DejaVuSans-52"/>
       <use x="854.394531" xlink:href="#DejaVuSans-83"/>
      </g>
     </g>
    </g>
    <g id="xtick_22">
     <g id="text_22">
      <!-- CCHept-I24Y -->
      <g style="fill:#262626;" transform="translate(809.885313 104.328281)rotate(-90)scale(0.11 -0.11)">
       <use xlink:href="#DejaVuSans-67"/>
       <use x="69.824219" xlink:href="#DejaVuSans-67"/>
       <use x="139.648438" xlink:href="#DejaVuSans-72"/>
       <use x="214.84375" xlink:href="#DejaVuSans-101"/>
       <use x="276.367188" xlink:href="#DejaVuSans-112"/>
       <use x="339.84375" xlink:href="#DejaVuSans-116"/>
       <use x="379.052734" xlink:href="#DejaVuSans-45"/>
       <use x="415.136719" xlink:href="#DejaVuSans-73"/>
       <use x="444.628906" xlink:href="#DejaVuSans-50"/>
       <use x="508.251953" xlink:href="#DejaVuSans-52"/>
       <use x="571.875" xlink:href="#DejaVuSans-89"/>
      </g>
     </g>
    </g>
    <g id="xtick_23">
     <g id="text_23">
      <!-- GRP51 -->
      <defs>
       <path d="M 10.796875 72.90625 
L 49.515625 72.90625 
L 49.515625 64.59375 
L 19.828125 64.59375 
L 19.828125 46.734375 
Q 21.96875 47.46875 24.109375 47.828125 
Q 26.265625 48.1875 28.421875 48.1875 
Q 40.625 48.1875 47.75 41.5 
Q 54.890625 34.8125 54.890625 23.390625 
Q 54.890625 11.625 47.5625 5.09375 
Q 40.234375 -1.421875 26.90625 -1.421875 
Q 22.3125 -1.421875 17.546875 -0.640625 
Q 12.796875 0.140625 7.71875 1.703125 
L 7.71875 11.625 
Q 12.109375 9.234375 16.796875 8.0625 
Q 21.484375 6.890625 26.703125 6.890625 
Q 35.15625 6.890625 40.078125 11.328125 
Q 45.015625 15.765625 45.015625 23.390625 
Q 45.015625 31 40.078125 35.4375 
Q 35.15625 39.890625 26.703125 39.890625 
Q 22.75 39.890625 18.8125 39.015625 
Q 14.890625 38.140625 10.796875 36.28125 
z
" id="DejaVuSans-53"/>
      </defs>
      <g style="fill:#262626;" transform="translate(837.785313 71.496719)rotate(-90)scale(0.11 -0.11)">
       <use xlink:href="#DejaVuSans-71"/>
       <use x="77.490234" xlink:href="#DejaVuSans-82"/>
       <use x="146.972656" xlink:href="#DejaVuSans-80"/>
       <use x="207.275391" xlink:href="#DejaVuSans-53"/>
       <use x="270.898438" xlink:href="#DejaVuSans-49"/>
      </g>
     </g>
    </g>
    <g id="xtick_24">
     <g id="text_24">
      <!-- CCHept-I24D -->
      <defs>
       <path d="M 19.671875 64.796875 
L 19.671875 8.109375 
L 31.59375 8.109375 
Q 46.6875 8.109375 53.6875 14.9375 
Q 60.6875 21.78125 60.6875 36.53125 
Q 60.6875 51.171875 53.6875 57.984375 
Q 46.6875 64.796875 31.59375 64.796875 
z
M 9.8125 72.90625 
L 30.078125 72.90625 
Q 51.265625 72.90625 61.171875 64.09375 
Q 71.09375 55.28125 71.09375 36.53125 
Q 71.09375 17.671875 61.125 8.828125 
Q 51.171875 0 30.078125 0 
L 9.8125 0 
z
" id="DejaVuSans-68"/>
      </defs>
      <g style="fill:#262626;" transform="translate(865.685313 106.079688)rotate(-90)scale(0.11 -0.11)">
       <use xlink:href="#DejaVuSans-67"/>
       <use x="69.824219" xlink:href="#DejaVuSans-67"/>
       <use x="139.648438" xlink:href="#DejaVuSans-72"/>
       <use x="214.84375" xlink:href="#DejaVuSans-101"/>
       <use x="276.367188" xlink:href="#DejaVuSans-112"/>
       <use x="339.84375" xlink:href="#DejaVuSans-116"/>
       <use x="379.052734" xlink:href="#DejaVuSans-45"/>
       <use x="415.136719" xlink:href="#DejaVuSans-73"/>
       <use x="444.628906" xlink:href="#DejaVuSans-50"/>
       <use x="508.251953" xlink:href="#DejaVuSans-52"/>
       <use x="571.875" xlink:href="#DejaVuSans-68"/>
      </g>
     </g>
    </g>
    <g id="xtick_25">
     <g id="text_25">
      <!-- CCHept-L14A -->
      <g style="fill:#262626;" transform="translate(893.585313 108.018438)rotate(-90)scale(0.11 -0.11)">
       <use xlink:href="#DejaVuSans-67"/>
       <use x="69.824219" xlink:href="#DejaVuSans-67"/>
       <use x="139.648438" xlink:href="#DejaVuSans-72"/>
       <use x="214.84375" xlink:href="#DejaVuSans-101"/>
       <use x="276.367188" xlink:href="#DejaVuSans-112"/>
       <use x="339.84375" xlink:href="#DejaVuSans-116"/>
       <use x="379.052734" xlink:href="#DejaVuSans-45"/>
       <use x="415.136719" xlink:href="#DejaVuSans-76"/>
       <use x="470.849609" xlink:href="#DejaVuSans-49"/>
       <use x="534.472656" xlink:href="#DejaVuSans-52"/>
       <use x="598.095703" xlink:href="#DejaVuSans-65"/>
      </g>
     </g>
    </g>
    <g id="xtick_26">
     <g id="text_26">
      <!-- CCHept-L7K -->
      <g style="fill:#262626;" transform="translate(921.485313 100.708594)rotate(-90)scale(0.11 -0.11)">
       <use xlink:href="#DejaVuSans-67"/>
       <use x="69.824219" xlink:href="#DejaVuSans-67"/>
       <use x="139.648438" xlink:href="#DejaVuSans-72"/>
       <use x="214.84375" xlink:href="#DejaVuSans-101"/>
       <use x="276.367188" xlink:href="#DejaVuSans-112"/>
       <use x="339.84375" xlink:href="#DejaVuSans-116"/>
       <use x="379.052734" xlink:href="#DejaVuSans-45"/>
       <use x="415.136719" xlink:href="#DejaVuSans-76"/>
       <use x="470.849609" xlink:href="#DejaVuSans-55"/>
       <use x="534.472656" xlink:href="#DejaVuSans-75"/>
      </g>
     </g>
    </g>
    <g id="xtick_27">
     <g id="text_27">
      <!-- CCHept-L21N-I24N -->
      <g style="fill:#262626;" transform="translate(949.385313 138.163594)rotate(-90)scale(0.11 -0.11)">
       <use xlink:href="#DejaVuSans-67"/>
       <use x="69.824219" xlink:href="#DejaVuSans-67"/>
       <use x="139.648438" xlink:href="#DejaVuSans-72"/>
       <use x="214.84375" xlink:href="#DejaVuSans-101"/>
       <use x="276.367188" xlink:href="#DejaVuSans-112"/>
       <use x="339.84375" xlink:href="#DejaVuSans-116"/>
       <use x="379.052734" xlink:href="#DejaVuSans-45"/>
       <use x="415.136719" xlink:href="#DejaVuSans-76"/>
       <use x="470.849609" xlink:href="#DejaVuSans-50"/>
       <use x="534.472656" xlink:href="#DejaVuSans-49"/>
       <use x="598.095703" xlink:href="#DejaVuSans-78"/>
       <use x="672.900391" xlink:href="#DejaVuSans-45"/>
       <use x="708.984375" xlink:href="#DejaVuSans-73"/>
       <use x="738.476562" xlink:href="#DejaVuSans-50"/>
       <use x="802.099609" xlink:href="#DejaVuSans-52"/>
       <use x="865.722656" xlink:href="#DejaVuSans-78"/>
      </g>
     </g>
    </g>
    <g id="xtick_28">
     <g id="text_28">
      <!-- CCHept-L21S-I24Y -->
      <g style="fill:#262626;" transform="translate(977.285313 135.406719)rotate(-90)scale(0.11 -0.11)">
       <use xlink:href="#DejaVuSans-67"/>
       <use x="69.824219" xlink:href="#DejaVuSans-67"/>
       <use x="139.648438" xlink:href="#DejaVuSans-72"/>
       <use x="214.84375" xlink:href="#DejaVuSans-101"/>
       <use x="276.367188" xlink:href="#DejaVuSans-112"/>
       <use x="339.84375" xlink:href="#DejaVuSans-116"/>
       <use x="379.052734" xlink:href="#DejaVuSans-45"/>
       <use x="415.136719" xlink:href="#DejaVuSans-76"/>
       <use x="470.849609" xlink:href="#DejaVuSans-50"/>
       <use x="534.472656" xlink:href="#DejaVuSans-49"/>
       <use x="598.095703" xlink:href="#DejaVuSans-83"/>
       <use x="661.572266" xlink:href="#DejaVuSans-45"/>
       <use x="697.65625" xlink:href="#DejaVuSans-73"/>
       <use x="727.148438" xlink:href="#DejaVuSans-50"/>
       <use x="790.771484" xlink:href="#DejaVuSans-52"/>
       <use x="854.394531" xlink:href="#DejaVuSans-89"/>
      </g>
     </g>
    </g>
    <g id="xtick_29">
     <g id="text_29">
      <!-- GRP52 -->
      <g style="fill:#262626;" transform="translate(1005.185313 71.496719)rotate(-90)scale(0.11 -0.11)">
       <use xlink:href="#DejaVuSans-71"/>
       <use x="77.490234" xlink:href="#DejaVuSans-82"/>
       <use x="146.972656" xlink:href="#DejaVuSans-80"/>
       <use x="207.275391" xlink:href="#DejaVuSans-53"/>
       <use x="270.898438" xlink:href="#DejaVuSans-50"/>
      </g>
     </g>
    </g>
    <g id="xtick_30">
     <g id="text_30">
      <!-- CCHept-I24E -->
      <g style="fill:#262626;" transform="translate(1033.085313 104.560313)rotate(-90)scale(0.11 -0.11)">
       <use xlink:href="#DejaVuSans-67"/>
       <use x="69.824219" xlink:href="#DejaVuSans-67"/>
       <use x="139.648438" xlink:href="#DejaVuSans-72"/>
       <use x="214.84375" xlink:href="#DejaVuSans-101"/>
       <use x="276.367188" xlink:href="#DejaVuSans-112"/>
       <use x="339.84375" xlink:href="#DejaVuSans-116"/>
       <use x="379.052734" xlink:href="#DejaVuSans-45"/>
       <use x="415.136719" xlink:href="#DejaVuSans-73"/>
       <use x="444.628906" xlink:href="#DejaVuSans-50"/>
       <use x="508.251953" xlink:href="#DejaVuSans-52"/>
       <use x="571.875" xlink:href="#DejaVuSans-69"/>
      </g>
     </g>
    </g>
    <g id="xtick_31">
     <g id="text_31">
      <!-- CCHept-L21A -->
      <g style="fill:#262626;" transform="translate(1060.985312 108.018438)rotate(-90)scale(0.11 -0.11)">
       <use xlink:href="#DejaVuSans-67"/>
       <use x="69.824219" xlink:href="#DejaVuSans-67"/>
       <use x="139.648438" xlink:href="#DejaVuSans-72"/>
       <use x="214.84375" xlink:href="#DejaVuSans-101"/>
       <use x="276.367188" xlink:href="#DejaVuSans-112"/>
       <use x="339.84375" xlink:href="#DejaVuSans-116"/>
       <use x="379.052734" xlink:href="#DejaVuSans-45"/>
       <use x="415.136719" xlink:href="#DejaVuSans-76"/>
       <use x="470.849609" xlink:href="#DejaVuSans-50"/>
       <use x="534.472656" xlink:href="#DejaVuSans-49"/>
       <use x="598.095703" xlink:href="#DejaVuSans-65"/>
      </g>
     </g>
    </g>
    <g id="xtick_32">
     <g id="text_32">
      <!-- CCHept-L21K-I24E -->
      <g style="fill:#262626;" transform="translate(1088.885312 134.714063)rotate(-90)scale(0.11 -0.11)">
       <use xlink:href="#DejaVuSans-67"/>
       <use x="69.824219" xlink:href="#DejaVuSans-67"/>
       <use x="139.648438" xlink:href="#DejaVuSans-72"/>
       <use x="214.84375" xlink:href="#DejaVuSans-101"/>
       <use x="276.367188" xlink:href="#DejaVuSans-112"/>
       <use x="339.84375" xlink:href="#DejaVuSans-116"/>
       <use x="379.052734" xlink:href="#DejaVuSans-45"/>
       <use x="415.136719" xlink:href="#DejaVuSans-76"/>
       <use x="470.849609" xlink:href="#DejaVuSans-50"/>
       <use x="534.472656" xlink:href="#DejaVuSans-49"/>
       <use x="598.095703" xlink:href="#DejaVuSans-75"/>
       <use x="653.171875" xlink:href="#DejaVuSans-45"/>
       <use x="689.255859" xlink:href="#DejaVuSans-73"/>
       <use x="718.748047" xlink:href="#DejaVuSans-50"/>
       <use x="782.371094" xlink:href="#DejaVuSans-52"/>
       <use x="845.994141" xlink:href="#DejaVuSans-69"/>
      </g>
     </g>
    </g>
    <g id="xtick_33">
     <g id="text_33">
      <!-- CCHept-L21T-I24T -->
      <g style="fill:#262626;" transform="translate(1116.785312 134.138281)rotate(-90)scale(0.11 -0.11)">
       <use xlink:href="#DejaVuSans-67"/>
       <use x="69.824219" xlink:href="#DejaVuSans-67"/>
       <use x="139.648438" xlink:href="#DejaVuSans-72"/>
       <use x="214.84375" xlink:href="#DejaVuSans-101"/>
       <use x="276.367188" xlink:href="#DejaVuSans-112"/>
       <use x="339.84375" xlink:href="#DejaVuSans-116"/>
       <use x="379.052734" xlink:href="#DejaVuSans-45"/>
       <use x="415.136719" xlink:href="#DejaVuSans-76"/>
       <use x="470.849609" xlink:href="#DejaVuSans-50"/>
       <use x="534.472656" xlink:href="#DejaVuSans-49"/>
       <use x="598.095703" xlink:href="#DejaVuSans-84"/>
       <use x="650.054688" xlink:href="#DejaVuSans-45"/>
       <use x="686.138672" xlink:href="#DejaVuSans-73"/>
       <use x="715.630859" xlink:href="#DejaVuSans-50"/>
       <use x="779.253906" xlink:href="#DejaVuSans-52"/>
       <use x="842.876953" xlink:href="#DejaVuSans-84"/>
      </g>
     </g>
    </g>
    <g id="xtick_34">
     <g id="text_34">
      <!-- CCHept-L21Y-I24S -->
      <g style="fill:#262626;" transform="translate(1144.685313 134.100469)rotate(-90)scale(0.11 -0.11)">
       <use xlink:href="#DejaVuSans-67"/>
       <use x="69.824219" xlink:href="#DejaVuSans-67"/>
       <use x="139.648438" xlink:href="#DejaVuSans-72"/>
       <use x="214.84375" xlink:href="#DejaVuSans-101"/>
       <use x="276.367188" xlink:href="#DejaVuSans-112"/>
       <use x="339.84375" xlink:href="#DejaVuSans-116"/>
       <use x="379.052734" xlink:href="#DejaVuSans-45"/>
       <use x="415.136719" xlink:href="#DejaVuSans-76"/>
       <use x="470.849609" xlink:href="#DejaVuSans-50"/>
       <use x="534.472656" xlink:href="#DejaVuSans-49"/>
       <use x="598.095703" xlink:href="#DejaVuSans-89"/>
       <use x="647.304688" xlink:href="#DejaVuSans-45"/>
       <use x="683.388672" xlink:href="#DejaVuSans-73"/>
       <use x="712.880859" xlink:href="#DejaVuSans-50"/>
       <use x="776.503906" xlink:href="#DejaVuSans-52"/>
       <use x="840.126953" xlink:href="#DejaVuSans-83"/>
      </g>
     </g>
    </g>
    <g id="xtick_35">
     <g id="text_35">
      <!-- GRP63 -->
      <defs>
       <path d="M 40.578125 39.3125 
Q 47.65625 37.796875 51.625 33 
Q 55.609375 28.21875 55.609375 21.1875 
Q 55.609375 10.40625 48.1875 4.484375 
Q 40.765625 -1.421875 27.09375 -1.421875 
Q 22.515625 -1.421875 17.65625 -0.515625 
Q 12.796875 0.390625 7.625 2.203125 
L 7.625 11.71875 
Q 11.71875 9.328125 16.59375 8.109375 
Q 21.484375 6.890625 26.8125 6.890625 
Q 36.078125 6.890625 40.9375 10.546875 
Q 45.796875 14.203125 45.796875 21.1875 
Q 45.796875 27.640625 41.28125 31.265625 
Q 36.765625 34.90625 28.71875 34.90625 
L 20.21875 34.90625 
L 20.21875 43.015625 
L 29.109375 43.015625 
Q 36.375 43.015625 40.234375 45.921875 
Q 44.09375 48.828125 44.09375 54.296875 
Q 44.09375 59.90625 40.109375 62.90625 
Q 36.140625 65.921875 28.71875 65.921875 
Q 24.65625 65.921875 20.015625 65.03125 
Q 15.375 64.15625 9.8125 62.3125 
L 9.8125 71.09375 
Q 15.4375 72.65625 20.34375 73.4375 
Q 25.25 74.21875 29.59375 74.21875 
Q 40.828125 74.21875 47.359375 69.109375 
Q 53.90625 64.015625 53.90625 55.328125 
Q 53.90625 49.265625 50.4375 45.09375 
Q 46.96875 40.921875 40.578125 39.3125 
z
" id="DejaVuSans-51"/>
      </defs>
      <g style="fill:#262626;" transform="translate(1172.585313 71.496719)rotate(-90)scale(0.11 -0.11)">
       <use xlink:href="#DejaVuSans-71"/>
       <use x="77.490234" xlink:href="#DejaVuSans-82"/>
       <use x="146.972656" xlink:href="#DejaVuSans-80"/>
       <use x="207.275391" xlink:href="#DejaVuSans-54"/>
       <use x="270.898438" xlink:href="#DejaVuSans-51"/>
      </g>
     </g>
    </g>
    <g id="xtick_36">
     <g id="text_36">
      <!-- CCHept-I24K -->
      <g style="fill:#262626;" transform="translate(1200.485312 104.823281)rotate(-90)scale(0.11 -0.11)">
       <use xlink:href="#DejaVuSans-67"/>
       <use x="69.824219" xlink:href="#DejaVuSans-67"/>
       <use x="139.648438" xlink:href="#DejaVuSans-72"/>
       <use x="214.84375" xlink:href="#DejaVuSans-101"/>
       <use x="276.367188" xlink:href="#DejaVuSans-112"/>
       <use x="339.84375" xlink:href="#DejaVuSans-116"/>
       <use x="379.052734" xlink:href="#DejaVuSans-45"/>
       <use x="415.136719" xlink:href="#DejaVuSans-73"/>
       <use x="444.628906" xlink:href="#DejaVuSans-50"/>
       <use x="508.251953" xlink:href="#DejaVuSans-52"/>
       <use x="571.875" xlink:href="#DejaVuSans-75"/>
      </g>
     </g>
    </g>
    <g id="xtick_37">
     <g id="text_37">
      <!-- CCHept-L21K -->
      <g style="fill:#262626;" transform="translate(1228.385312 107.707344)rotate(-90)scale(0.11 -0.11)">
       <use xlink:href="#DejaVuSans-67"/>
       <use x="69.824219" xlink:href="#DejaVuSans-67"/>
       <use x="139.648438" xlink:href="#DejaVuSans-72"/>
       <use x="214.84375" xlink:href="#DejaVuSans-101"/>
       <use x="276.367188" xlink:href="#DejaVuSans-112"/>
       <use x="339.84375" xlink:href="#DejaVuSans-116"/>
       <use x="379.052734" xlink:href="#DejaVuSans-45"/>
       <use x="415.136719" xlink:href="#DejaVuSans-76"/>
       <use x="470.849609" xlink:href="#DejaVuSans-50"/>
       <use x="534.472656" xlink:href="#DejaVuSans-49"/>
       <use x="598.095703" xlink:href="#DejaVuSans-75"/>
      </g>
     </g>
    </g>
    <g id="xtick_38">
     <g id="text_38">
      <!-- CCHept-L21E-I24K -->
      <g style="fill:#262626;" transform="translate(1256.285312 135.869063)rotate(-90)scale(0.11 -0.11)">
       <use xlink:href="#DejaVuSans-67"/>
       <use x="69.824219" xlink:href="#DejaVuSans-67"/>
       <use x="139.648438" xlink:href="#DejaVuSans-72"/>
       <use x="214.84375" xlink:href="#DejaVuSans-101"/>
       <use x="276.367188" xlink:href="#DejaVuSans-112"/>
       <use x="339.84375" xlink:href="#DejaVuSans-116"/>
       <use x="379.052734" xlink:href="#DejaVuSans-45"/>
       <use x="415.136719" xlink:href="#DejaVuSans-76"/>
       <use x="470.849609" xlink:href="#DejaVuSans-50"/>
       <use x="534.472656" xlink:href="#DejaVuSans-49"/>
       <use x="598.095703" xlink:href="#DejaVuSans-69"/>
       <use x="661.279297" xlink:href="#DejaVuSans-45"/>
       <use x="697.363281" xlink:href="#DejaVuSans-73"/>
       <use x="726.855469" xlink:href="#DejaVuSans-50"/>
       <use x="790.478516" xlink:href="#DejaVuSans-52"/>
       <use x="854.101562" xlink:href="#DejaVuSans-75"/>
      </g>
     </g>
    </g>
    <g id="xtick_39">
     <g id="text_39">
      <!-- CCHept-L21H-I24H -->
      <g style="fill:#262626;" transform="translate(1284.185313 138.249531)rotate(-90)scale(0.11 -0.11)">
       <use xlink:href="#DejaVuSans-67"/>
       <use x="69.824219" xlink:href="#DejaVuSans-67"/>
       <use x="139.648438" xlink:href="#DejaVuSans-72"/>
       <use x="214.84375" xlink:href="#DejaVuSans-101"/>
       <use x="276.367188" xlink:href="#DejaVuSans-112"/>
       <use x="339.84375" xlink:href="#DejaVuSans-116"/>
       <use x="379.052734" xlink:href="#DejaVuSans-45"/>
       <use x="415.136719" xlink:href="#DejaVuSans-76"/>
       <use x="470.849609" xlink:href="#DejaVuSans-50"/>
       <use x="534.472656" xlink:href="#DejaVuSans-49"/>
       <use x="598.095703" xlink:href="#DejaVuSans-72"/>
       <use x="673.291016" xlink:href="#DejaVuSans-45"/>
       <use x="709.375" xlink:href="#DejaVuSans-73"/>
       <use x="738.867188" xlink:href="#DejaVuSans-50"/>
       <use x="802.490234" xlink:href="#DejaVuSans-52"/>
       <use x="866.113281" xlink:href="#DejaVuSans-72"/>
      </g>
     </g>
    </g>
    <g id="xtick_40">
     <g id="text_40">
      <!-- CCHept-I17T -->
      <g style="fill:#262626;" transform="translate(1312.085313 104.328281)rotate(-90)scale(0.11 -0.11)">
       <use xlink:href="#DejaVuSans-67"/>
       <use x="69.824219" xlink:href="#DejaVuSans-67"/>
       <use x="139.648438" xlink:href="#DejaVuSans-72"/>
       <use x="214.84375" xlink:href="#DejaVuSans-101"/>
       <use x="276.367188" xlink:href="#DejaVuSans-112"/>
       <use x="339.84375" xlink:href="#DejaVuSans-116"/>
       <use x="379.052734" xlink:href="#DejaVuSans-45"/>
       <use x="415.136719" xlink:href="#DejaVuSans-73"/>
       <use x="444.628906" xlink:href="#DejaVuSans-49"/>
       <use x="508.251953" xlink:href="#DejaVuSans-55"/>
       <use x="571.875" xlink:href="#DejaVuSans-84"/>
      </g>
     </g>
    </g>
    <g id="xtick_41">
     <g id="text_41">
      <!-- GRP80 -->
      <defs>
       <path d="M 31.78125 66.40625 
Q 24.171875 66.40625 20.328125 58.90625 
Q 16.5 51.421875 16.5 36.375 
Q 16.5 21.390625 20.328125 13.890625 
Q 24.171875 6.390625 31.78125 6.390625 
Q 39.453125 6.390625 43.28125 13.890625 
Q 47.125 21.390625 47.125 36.375 
Q 47.125 51.421875 43.28125 58.90625 
Q 39.453125 66.40625 31.78125 66.40625 
z
M 31.78125 74.21875 
Q 44.046875 74.21875 50.515625 64.515625 
Q 56.984375 54.828125 56.984375 36.375 
Q 56.984375 17.96875 50.515625 8.265625 
Q 44.046875 -1.421875 31.78125 -1.421875 
Q 19.53125 -1.421875 13.0625 8.265625 
Q 6.59375 17.96875 6.59375 36.375 
Q 6.59375 54.828125 13.0625 64.515625 
Q 19.53125 74.21875 31.78125 74.21875 
z
" id="DejaVuSans-48"/>
      </defs>
      <g style="fill:#262626;" transform="translate(1339.985312 71.496719)rotate(-90)scale(0.11 -0.11)">
       <use xlink:href="#DejaVuSans-71"/>
       <use x="77.490234" xlink:href="#DejaVuSans-82"/>
       <use x="146.972656" xlink:href="#DejaVuSans-80"/>
       <use x="207.275391" xlink:href="#DejaVuSans-56"/>
       <use x="270.898438" xlink:href="#DejaVuSans-48"/>
      </g>
     </g>
    </g>
    <g id="xtick_42">
     <g id="text_42">
      <!-- CCHept-I17K -->
      <g style="fill:#262626;" transform="translate(1367.885313 104.823281)rotate(-90)scale(0.11 -0.11)">
       <use xlink:href="#DejaVuSans-67"/>
       <use x="69.824219" xlink:href="#DejaVuSans-67"/>
       <use x="139.648438" xlink:href="#DejaVuSans-72"/>
       <use x="214.84375" xlink:href="#DejaVuSans-101"/>
       <use x="276.367188" xlink:href="#DejaVuSans-112"/>
       <use x="339.84375" xlink:href="#DejaVuSans-116"/>
       <use x="379.052734" xlink:href="#DejaVuSans-45"/>
       <use x="415.136719" xlink:href="#DejaVuSans-73"/>
       <use x="444.628906" xlink:href="#DejaVuSans-49"/>
       <use x="508.251953" xlink:href="#DejaVuSans-55"/>
       <use x="571.875" xlink:href="#DejaVuSans-75"/>
      </g>
     </g>
    </g>
    <g id="xtick_43">
     <g id="text_43">
      <!-- CCPent-I24K -->
      <g style="fill:#262626;" transform="translate(1395.785312 102.772813)rotate(-90)scale(0.11 -0.11)">
       <use xlink:href="#DejaVuSans-67"/>
       <use x="69.824219" xlink:href="#DejaVuSans-67"/>
       <use x="139.648438" xlink:href="#DejaVuSans-80"/>
       <use x="196.326172" xlink:href="#DejaVuSans-101"/>
       <use x="257.849609" xlink:href="#DejaVuSans-110"/>
       <use x="321.228516" xlink:href="#DejaVuSans-116"/>
       <use x="360.4375" xlink:href="#DejaVuSans-45"/>
       <use x="396.521484" xlink:href="#DejaVuSans-73"/>
       <use x="426.013672" xlink:href="#DejaVuSans-50"/>
       <use x="489.636719" xlink:href="#DejaVuSans-52"/>
       <use x="553.259766" xlink:href="#DejaVuSans-75"/>
      </g>
     </g>
    </g>
    <g id="xtick_44">
     <g id="text_44">
      <!-- CCHept-I24S -->
      <g style="fill:#262626;" transform="translate(1423.685313 104.592969)rotate(-90)scale(0.11 -0.11)">
       <use xlink:href="#DejaVuSans-67"/>
       <use x="69.824219" xlink:href="#DejaVuSans-67"/>
       <use x="139.648438" xlink:href="#DejaVuSans-72"/>
       <use x="214.84375" xlink:href="#DejaVuSans-101"/>
       <use x="276.367188" xlink:href="#DejaVuSans-112"/>
       <use x="339.84375" xlink:href="#DejaVuSans-116"/>
       <use x="379.052734" xlink:href="#DejaVuSans-45"/>
       <use x="415.136719" xlink:href="#DejaVuSans-73"/>
       <use x="444.628906" xlink:href="#DejaVuSans-50"/>
       <use x="508.251953" xlink:href="#DejaVuSans-52"/>
       <use x="571.875" xlink:href="#DejaVuSans-83"/>
      </g>
     </g>
    </g>
    <g id="xtick_45">
     <g id="text_45">
      <!-- CCHept-L7W -->
      <g style="fill:#262626;" transform="translate(1451.585313 104.37125)rotate(-90)scale(0.11 -0.11)">
       <use xlink:href="#DejaVuSans-67"/>
       <use x="69.824219" xlink:href="#DejaVuSans-67"/>
       <use x="139.648438" xlink:href="#DejaVuSans-72"/>
       <use x="214.84375" xlink:href="#DejaVuSans-101"/>
       <use x="276.367188" xlink:href="#DejaVuSans-112"/>
       <use x="339.84375" xlink:href="#DejaVuSans-116"/>
       <use x="379.052734" xlink:href="#DejaVuSans-45"/>
       <use x="415.136719" xlink:href="#DejaVuSans-76"/>
       <use x="470.849609" xlink:href="#DejaVuSans-55"/>
       <use x="534.472656" xlink:href="#DejaVuSans-87"/>
      </g>
     </g>
    </g>
    <g id="xtick_46">
     <g id="text_46">
      <!-- CCHept-I24P -->
      <g style="fill:#262626;" transform="translate(1479.485312 104.242344)rotate(-90)scale(0.11 -0.11)">
       <use xlink:href="#DejaVuSans-67"/>
       <use x="69.824219" xlink:href="#DejaVuSans-67"/>
       <use x="139.648438" xlink:href="#DejaVuSans-72"/>
       <use x="214.84375" xlink:href="#DejaVuSans-101"/>
       <use x="276.367188" xlink:href="#DejaVuSans-112"/>
       <use x="339.84375" xlink:href="#DejaVuSans-116"/>
       <use x="379.052734" xlink:href="#DejaVuSans-45"/>
       <use x="415.136719" xlink:href="#DejaVuSans-73"/>
       <use x="444.628906" xlink:href="#DejaVuSans-50"/>
       <use x="508.251953" xlink:href="#DejaVuSans-52"/>
       <use x="571.875" xlink:href="#DejaVuSans-80"/>
      </g>
     </g>
    </g>
   </g>
   <g id="matplotlib.axis_2"/>
   <g id="QuadMesh_1">
    <path clip-path="url(#p4ea1951f85)" d="M 207 3.456 
L 234.9 3.456 
L 234.9 25.2 
L 207 25.2 
L 207 3.456 
" style="fill:#cae1ee;stroke:#1a1a1a;stroke-width:2;"/>
    <path clip-path="url(#p4ea1951f85)" d="M 234.9 3.456 
L 262.8 3.456 
L 262.8 25.2 
L 234.9 25.2 
L 234.9 3.456 
" style="fill:#6eaed2;stroke:#1a1a1a;stroke-width:2;"/>
    <path clip-path="url(#p4ea1951f85)" d="M 262.8 3.456 
L 290.7 3.456 
L 290.7 25.2 
L 262.8 25.2 
L 262.8 3.456 
" style="fill:#a2cde3;stroke:#1a1a1a;stroke-width:2;"/>
    <path clip-path="url(#p4ea1951f85)" d="M 290.7 3.456 
L 318.6 3.456 
L 318.6 25.2 
L 290.7 25.2 
L 290.7 3.456 
" style="fill:#c2ddec;stroke:#1a1a1a;stroke-width:2;"/>
    <path clip-path="url(#p4ea1951f85)" d="M 318.6 3.456 
L 346.5 3.456 
L 346.5 25.2 
L 318.6 25.2 
L 318.6 3.456 
" style="fill:#a0cce2;stroke:#1a1a1a;stroke-width:2;"/>
    <path clip-path="url(#p4ea1951f85)" d="M 346.5 3.456 
L 374.4 3.456 
L 374.4 25.2 
L 346.5 25.2 
L 346.5 3.456 
" style="fill:#9bc9e0;stroke:#1a1a1a;stroke-width:2;"/>
    <path clip-path="url(#p4ea1951f85)" d="M 374.4 3.456 
L 402.3 3.456 
L 402.3 25.2 
L 374.4 25.2 
L 374.4 3.456 
" style="fill:#b1d5e7;stroke:#1a1a1a;stroke-width:2;"/>
    <path clip-path="url(#p4ea1951f85)" d="M 402.3 3.456 
L 430.2 3.456 
L 430.2 25.2 
L 402.3 25.2 
L 402.3 3.456 
" style="fill:#b3d6e8;stroke:#1a1a1a;stroke-width:2;"/>
    <path clip-path="url(#p4ea1951f85)" d="M 430.2 3.456 
L 458.1 3.456 
L 458.1 25.2 
L 430.2 25.2 
L 430.2 3.456 
" style="fill:#c2ddec;stroke:#1a1a1a;stroke-width:2;"/>
    <path clip-path="url(#p4ea1951f85)" d="M 458.1 3.456 
L 486 3.456 
L 486 25.2 
L 458.1 25.2 
L 458.1 3.456 
" style="fill:#acd2e5;stroke:#1a1a1a;stroke-width:2;"/>
    <path clip-path="url(#p4ea1951f85)" d="M 486 3.456 
L 513.9 3.456 
L 513.9 25.2 
L 486 25.2 
L 486 3.456 
" style="fill:#b6d7e8;stroke:#1a1a1a;stroke-width:2;"/>
    <path clip-path="url(#p4ea1951f85)" d="M 513.9 3.456 
L 541.8 3.456 
L 541.8 25.2 
L 513.9 25.2 
L 513.9 3.456 
" style="fill:#98c8e0;stroke:#1a1a1a;stroke-width:2;"/>
    <path clip-path="url(#p4ea1951f85)" d="M 541.8 3.456 
L 569.7 3.456 
L 569.7 25.2 
L 541.8 25.2 
L 541.8 3.456 
" style="fill:#9dcbe1;stroke:#1a1a1a;stroke-width:2;"/>
    <path clip-path="url(#p4ea1951f85)" d="M 569.7 3.456 
L 597.6 3.456 
L 597.6 25.2 
L 569.7 25.2 
L 569.7 3.456 
" style="fill:#d8e9f1;stroke:#1a1a1a;stroke-width:2;"/>
    <path clip-path="url(#p4ea1951f85)" d="M 597.6 3.456 
L 625.5 3.456 
L 625.5 25.2 
L 597.6 25.2 
L 597.6 3.456 
" style="fill:#d2e6f0;stroke:#1a1a1a;stroke-width:2;"/>
    <path clip-path="url(#p4ea1951f85)" d="M 625.5 3.456 
L 653.4 3.456 
L 653.4 25.2 
L 625.5 25.2 
L 625.5 3.456 
" style="fill:#cae1ee;stroke:#1a1a1a;stroke-width:2;"/>
    <path clip-path="url(#p4ea1951f85)" d="M 653.4 3.456 
L 681.3 3.456 
L 681.3 25.2 
L 653.4 25.2 
L 653.4 3.456 
" style="fill:#dae9f2;stroke:#1a1a1a;stroke-width:2;"/>
    <path clip-path="url(#p4ea1951f85)" d="M 681.3 3.456 
L 709.2 3.456 
L 709.2 25.2 
L 681.3 25.2 
L 681.3 3.456 
" style="fill:#cfe4ef;stroke:#1a1a1a;stroke-width:2;"/>
    <path clip-path="url(#p4ea1951f85)" d="M 709.2 3.456 
L 737.1 3.456 
L 737.1 25.2 
L 709.2 25.2 
L 709.2 3.456 
" style="fill:#c5dfec;stroke:#1a1a1a;stroke-width:2;"/>
    <path clip-path="url(#p4ea1951f85)" d="M 737.1 3.456 
L 765 3.456 
L 765 25.2 
L 737.1 25.2 
L 737.1 3.456 
" style="fill:#cce2ef;stroke:#1a1a1a;stroke-width:2;"/>
    <path clip-path="url(#p4ea1951f85)" d="M 765 3.456 
L 792.9 3.456 
L 792.9 25.2 
L 765 25.2 
L 765 3.456 
" style="fill:#d2e6f0;stroke:#1a1a1a;stroke-width:2;"/>
    <path clip-path="url(#p4ea1951f85)" d="M 792.9 3.456 
L 820.8 3.456 
L 820.8 25.2 
L 792.9 25.2 
L 792.9 3.456 
" style="fill:#d1e5f0;stroke:#1a1a1a;stroke-width:2;"/>
    <path clip-path="url(#p4ea1951f85)" d="M 820.8 3.456 
L 848.7 3.456 
L 848.7 25.2 
L 820.8 25.2 
L 820.8 3.456 
" style="fill:#bddbea;stroke:#1a1a1a;stroke-width:2;"/>
    <path clip-path="url(#p4ea1951f85)" d="M 848.7 3.456 
L 876.6 3.456 
L 876.6 25.2 
L 848.7 25.2 
L 848.7 3.456 
" style="fill:#b1d5e7;stroke:#1a1a1a;stroke-width:2;"/>
    <path clip-path="url(#p4ea1951f85)" d="M 876.6 3.456 
L 904.5 3.456 
L 904.5 25.2 
L 876.6 25.2 
L 876.6 3.456 
" style="fill:#bbdaea;stroke:#1a1a1a;stroke-width:2;"/>
    <path clip-path="url(#p4ea1951f85)" d="M 904.5 3.456 
L 932.4 3.456 
L 932.4 25.2 
L 904.5 25.2 
L 904.5 3.456 
" style="fill:#b8d8e9;stroke:#1a1a1a;stroke-width:2;"/>
    <path clip-path="url(#p4ea1951f85)" d="M 932.4 3.456 
L 960.3 3.456 
L 960.3 25.2 
L 932.4 25.2 
L 932.4 3.456 
" style="fill:#93c6de;stroke:#1a1a1a;stroke-width:2;"/>
    <path clip-path="url(#p4ea1951f85)" d="M 960.3 3.456 
L 988.2 3.456 
L 988.2 25.2 
L 960.3 25.2 
L 960.3 3.456 
" style="fill:#b3d6e8;stroke:#1a1a1a;stroke-width:2;"/>
    <path clip-path="url(#p4ea1951f85)" d="M 988.2 3.456 
L 1016.1 3.456 
L 1016.1 25.2 
L 988.2 25.2 
L 988.2 3.456 
" style="fill:#cae1ee;stroke:#1a1a1a;stroke-width:2;"/>
    <path clip-path="url(#p4ea1951f85)" d="M 1016.1 3.456 
L 1044 3.456 
L 1044 25.2 
L 1016.1 25.2 
L 1016.1 3.456 
" style="fill:#b3d6e8;stroke:#1a1a1a;stroke-width:2;"/>
    <path clip-path="url(#p4ea1951f85)" d="M 1044 3.456 
L 1071.9 3.456 
L 1071.9 25.2 
L 1044 25.2 
L 1044 3.456 
" style="fill:#a5cee3;stroke:#1a1a1a;stroke-width:2;"/>
    <path clip-path="url(#p4ea1951f85)" d="M 1071.9 3.456 
L 1099.8 3.456 
L 1099.8 25.2 
L 1071.9 25.2 
L 1071.9 3.456 
" style="fill:#b1d5e7;stroke:#1a1a1a;stroke-width:2;"/>
    <path clip-path="url(#p4ea1951f85)" d="M 1099.8 3.456 
L 1127.7 3.456 
L 1127.7 25.2 
L 1099.8 25.2 
L 1099.8 3.456 
" style="fill:#acd2e5;stroke:#1a1a1a;stroke-width:2;"/>
    <path clip-path="url(#p4ea1951f85)" d="M 1127.7 3.456 
L 1155.6 3.456 
L 1155.6 25.2 
L 1127.7 25.2 
L 1127.7 3.456 
" style="fill:#a2cde3;stroke:#1a1a1a;stroke-width:2;"/>
    <path clip-path="url(#p4ea1951f85)" d="M 1155.6 3.456 
L 1183.5 3.456 
L 1183.5 25.2 
L 1155.6 25.2 
L 1155.6 3.456 
" style="fill:#c7e0ed;stroke:#1a1a1a;stroke-width:2;"/>
    <path clip-path="url(#p4ea1951f85)" d="M 1183.5 3.456 
L 1211.4 3.456 
L 1211.4 25.2 
L 1183.5 25.2 
L 1183.5 3.456 
" style="fill:#b8d8e9;stroke:#1a1a1a;stroke-width:2;"/>
    <path clip-path="url(#p4ea1951f85)" d="M 1211.4 3.456 
L 1239.3 3.456 
L 1239.3 25.2 
L 1211.4 25.2 
L 1211.4 3.456 
" style="fill:#c5dfec;stroke:#1a1a1a;stroke-width:2;"/>
    <path clip-path="url(#p4ea1951f85)" d="M 1239.3 3.456 
L 1267.2 3.456 
L 1267.2 25.2 
L 1239.3 25.2 
L 1239.3 3.456 
" style="fill:#9dcbe1;stroke:#1a1a1a;stroke-width:2;"/>
    <path clip-path="url(#p4ea1951f85)" d="M 1267.2 3.456 
L 1295.1 3.456 
L 1295.1 25.2 
L 1267.2 25.2 
L 1267.2 3.456 
" style="fill:#b3d6e8;stroke:#1a1a1a;stroke-width:2;"/>
    <path clip-path="url(#p4ea1951f85)" d="M 1295.1 3.456 
L 1323 3.456 
L 1323 25.2 
L 1295.1 25.2 
L 1295.1 3.456 
" style="fill:#e4eef4;stroke:#1a1a1a;stroke-width:2;"/>
    <path clip-path="url(#p4ea1951f85)" d="M 1323 3.456 
L 1350.9 3.456 
L 1350.9 25.2 
L 1323 25.2 
L 1323 3.456 
" style="fill:#dbeaf2;stroke:#1a1a1a;stroke-width:2;"/>
    <path clip-path="url(#p4ea1951f85)" d="M 1350.9 3.456 
L 1378.8 3.456 
L 1378.8 25.2 
L 1350.9 25.2 
L 1350.9 3.456 
" style="fill:#c7e0ed;stroke:#1a1a1a;stroke-width:2;"/>
    <path clip-path="url(#p4ea1951f85)" d="M 1378.8 3.456 
L 1406.7 3.456 
L 1406.7 25.2 
L 1378.8 25.2 
L 1378.8 3.456 
" style="fill:#d8e9f1;stroke:#1a1a1a;stroke-width:2;"/>
    <path clip-path="url(#p4ea1951f85)" d="M 1406.7 3.456 
L 1434.6 3.456 
L 1434.6 25.2 
L 1406.7 25.2 
L 1406.7 3.456 
" style="fill:#bddbea;stroke:#1a1a1a;stroke-width:2;"/>
    <path clip-path="url(#p4ea1951f85)" d="M 1434.6 3.456 
L 1462.5 3.456 
L 1462.5 25.2 
L 1434.6 25.2 
L 1434.6 3.456 
" style="fill:#e9f0f4;stroke:#1a1a1a;stroke-width:2;"/>
    <path clip-path="url(#p4ea1951f85)" d="M 1462.5 3.456 
L 1490.4 3.456 
L 1490.4 25.2 
L 1462.5 25.2 
L 1462.5 3.456 
" style="fill:#d2e6f0;stroke:#1a1a1a;stroke-width:2;"/>
   </g>
  </g>
 </g>
 <defs>
  <clipPath id="p4ea1951f85">
   <rect height="21.744" width="1283.4" x="207" y="3.456"/>
  </clipPath>
 </defs>
</svg>
