<?xml version="1.0" encoding="utf-8" standalone="no"?>
<!DOCTYPE svg PUBLIC "-//W3C//DTD SVG 1.1//EN"
  "http://www.w3.org/Graphics/SVG/1.1/DTD/svg11.dtd">
<!-- Created with matplotlib (https://matplotlib.org/) -->
<svg height="720pt" version="1.1" viewBox="0 0 720 720" width="720pt" xmlns="http://www.w3.org/2000/svg" xmlns:xlink="http://www.w3.org/1999/xlink">
 <defs>
  <style type="text/css">
*{stroke-linecap:butt;stroke-linejoin:round;}
  </style>
 </defs>
 <g id="figure_1">
  <g id="patch_1">
   <path d="M 0 720 
L 720 720 
L 720 0 
L 0 0 
z
" style="fill:#ffffff;"/>
  </g>
  <g id="axes_1">
   <g id="patch_2">
    <path d="M 90 630 
L 648 630 
L 648 86.4 
L 90 86.4 
z
" style="fill:#eaeaf2;"/>
   </g>
   <g id="matplotlib.axis_1">
    <g id="xtick_1">
     <g id="line2d_1">
      <path clip-path="url(#p9991ee780b)" d="M 180.472674 630 
L 180.472674 86.4 
" style="fill:none;stroke:#ffffff;stroke-linecap:round;"/>
     </g>
     <g id="text_1">
      <!-- −2 -->
      <defs>
       <path d="M 10.59375 35.5 
L 73.1875 35.5 
L 73.1875 27.203125 
L 10.59375 27.203125 
z
" id="DejaVuSans-8722"/>
       <path d="M 19.1875 8.296875 
L 53.609375 8.296875 
L 53.609375 0 
L 7.328125 0 
L 7.328125 8.296875 
Q 12.9375 14.109375 22.625 23.890625 
Q 32.328125 33.6875 34.8125 36.53125 
Q 39.546875 41.84375 41.421875 45.53125 
Q 43.3125 49.21875 43.3125 52.78125 
Q 43.3125 58.59375 39.234375 62.25 
Q 35.15625 65.921875 28.609375 65.921875 
Q 23.96875 65.921875 18.8125 64.3125 
Q 13.671875 62.703125 7.8125 59.421875 
L 7.8125 69.390625 
Q 13.765625 71.78125 18.9375 73 
Q 24.125 74.21875 28.421875 74.21875 
Q 39.75 74.21875 46.484375 68.546875 
Q 53.21875 62.890625 53.21875 53.421875 
Q 53.21875 48.921875 51.53125 44.890625 
Q 49.859375 40.875 45.40625 35.40625 
Q 44.1875 33.984375 37.640625 27.21875 
Q 31.109375 20.453125 19.1875 8.296875 
z
" id="DejaVuSans-50"/>
      </defs>
      <g style="fill:#262626;" transform="translate(172.36447 647.858281)scale(0.11 -0.11)">
       <use xlink:href="#DejaVuSans-8722"/>
       <use x="83.789062" xlink:href="#DejaVuSans-50"/>
      </g>
     </g>
    </g>
    <g id="xtick_2">
     <g id="line2d_2">
      <path clip-path="url(#p9991ee780b)" d="M 273.244828 630 
L 273.244828 86.4 
" style="fill:none;stroke:#ffffff;stroke-linecap:round;"/>
     </g>
     <g id="text_2">
      <!-- 0 -->
      <defs>
       <path d="M 31.78125 66.40625 
Q 24.171875 66.40625 20.328125 58.90625 
Q 16.5 51.421875 16.5 36.375 
Q 16.5 21.390625 20.328125 13.890625 
Q 24.171875 6.390625 31.78125 6.390625 
Q 39.453125 6.390625 43.28125 13.890625 
Q 47.125 21.390625 47.125 36.375 
Q 47.125 51.421875 43.28125 58.90625 
Q 39.453125 66.40625 31.78125 66.40625 
z
M 31.78125 74.21875 
Q 44.046875 74.21875 50.515625 64.515625 
Q 56.984375 54.828125 56.984375 36.375 
Q 56.984375 17.96875 50.515625 8.265625 
Q 44.046875 -1.421875 31.78125 -1.421875 
Q 19.53125 -1.421875 13.0625 8.265625 
Q 6.59375 17.96875 6.59375 36.375 
Q 6.59375 54.828125 13.0625 64.515625 
Q 19.53125 74.21875 31.78125 74.21875 
z
" id="DejaVuSans-48"/>
      </defs>
      <g style="fill:#262626;" transform="translate(269.745453 647.858281)scale(0.11 -0.11)">
       <use xlink:href="#DejaVuSans-48"/>
      </g>
     </g>
    </g>
    <g id="xtick_3">
     <g id="line2d_3">
      <path clip-path="url(#p9991ee780b)" d="M 366.016983 630 
L 366.016983 86.4 
" style="fill:none;stroke:#ffffff;stroke-linecap:round;"/>
     </g>
     <g id="text_3">
      <!-- 2 -->
      <g style="fill:#262626;" transform="translate(362.517608 647.858281)scale(0.11 -0.11)">
       <use xlink:href="#DejaVuSans-50"/>
      </g>
     </g>
    </g>
    <g id="xtick_4">
     <g id="line2d_4">
      <path clip-path="url(#p9991ee780b)" d="M 458.789138 630 
L 458.789138 86.4 
" style="fill:none;stroke:#ffffff;stroke-linecap:round;"/>
     </g>
     <g id="text_4">
      <!-- 4 -->
      <defs>
       <path d="M 37.796875 64.3125 
L 12.890625 25.390625 
L 37.796875 25.390625 
z
M 35.203125 72.90625 
L 47.609375 72.90625 
L 47.609375 25.390625 
L 58.015625 25.390625 
L 58.015625 17.1875 
L 47.609375 17.1875 
L 47.609375 0 
L 37.796875 0 
L 37.796875 17.1875 
L 4.890625 17.1875 
L 4.890625 26.703125 
z
" id="DejaVuSans-52"/>
      </defs>
      <g style="fill:#262626;" transform="translate(455.289763 647.858281)scale(0.11 -0.11)">
       <use xlink:href="#DejaVuSans-52"/>
      </g>
     </g>
    </g>
    <g id="xtick_5">
     <g id="line2d_5">
      <path clip-path="url(#p9991ee780b)" d="M 551.561293 630 
L 551.561293 86.4 
" style="fill:none;stroke:#ffffff;stroke-linecap:round;"/>
     </g>
     <g id="text_5">
      <!-- 6 -->
      <defs>
       <path d="M 33.015625 40.375 
Q 26.375 40.375 22.484375 35.828125 
Q 18.609375 31.296875 18.609375 23.390625 
Q 18.609375 15.53125 22.484375 10.953125 
Q 26.375 6.390625 33.015625 6.390625 
Q 39.65625 6.390625 43.53125 10.953125 
Q 47.40625 15.53125 47.40625 23.390625 
Q 47.40625 31.296875 43.53125 35.828125 
Q 39.65625 40.375 33.015625 40.375 
z
M 52.59375 71.296875 
L 52.59375 62.3125 
Q 48.875 64.0625 45.09375 64.984375 
Q 41.3125 65.921875 37.59375 65.921875 
Q 27.828125 65.921875 22.671875 59.328125 
Q 17.53125 52.734375 16.796875 39.40625 
Q 19.671875 43.65625 24.015625 45.921875 
Q 28.375 48.1875 33.59375 48.1875 
Q 44.578125 48.1875 50.953125 41.515625 
Q 57.328125 34.859375 57.328125 23.390625 
Q 57.328125 12.15625 50.6875 5.359375 
Q 44.046875 -1.421875 33.015625 -1.421875 
Q 20.359375 -1.421875 13.671875 8.265625 
Q 6.984375 17.96875 6.984375 36.375 
Q 6.984375 53.65625 15.1875 63.9375 
Q 23.390625 74.21875 37.203125 74.21875 
Q 40.921875 74.21875 44.703125 73.484375 
Q 48.484375 72.75 52.59375 71.296875 
z
" id="DejaVuSans-54"/>
      </defs>
      <g style="fill:#262626;" transform="translate(548.061918 647.858281)scale(0.11 -0.11)">
       <use xlink:href="#DejaVuSans-54"/>
      </g>
     </g>
    </g>
    <g id="xtick_6">
     <g id="line2d_6">
      <path clip-path="url(#p9991ee780b)" d="M 644.333448 630 
L 644.333448 86.4 
" style="fill:none;stroke:#ffffff;stroke-linecap:round;"/>
     </g>
     <g id="text_6">
      <!-- 8 -->
      <defs>
       <path d="M 31.78125 34.625 
Q 24.75 34.625 20.71875 30.859375 
Q 16.703125 27.09375 16.703125 20.515625 
Q 16.703125 13.921875 20.71875 10.15625 
Q 24.75 6.390625 31.78125 6.390625 
Q 38.8125 6.390625 42.859375 10.171875 
Q 46.921875 13.96875 46.921875 20.515625 
Q 46.921875 27.09375 42.890625 30.859375 
Q 38.875 34.625 31.78125 34.625 
z
M 21.921875 38.8125 
Q 15.578125 40.375 12.03125 44.71875 
Q 8.5 49.078125 8.5 55.328125 
Q 8.5 64.0625 14.71875 69.140625 
Q 20.953125 74.21875 31.78125 74.21875 
Q 42.671875 74.21875 48.875 69.140625 
Q 55.078125 64.0625 55.078125 55.328125 
Q 55.078125 49.078125 51.53125 44.71875 
Q 48 40.375 41.703125 38.8125 
Q 48.828125 37.15625 52.796875 32.3125 
Q 56.78125 27.484375 56.78125 20.515625 
Q 56.78125 9.90625 50.3125 4.234375 
Q 43.84375 -1.421875 31.78125 -1.421875 
Q 19.734375 -1.421875 13.25 4.234375 
Q 6.78125 9.90625 6.78125 20.515625 
Q 6.78125 27.484375 10.78125 32.3125 
Q 14.796875 37.15625 21.921875 38.8125 
z
M 18.3125 54.390625 
Q 18.3125 48.734375 21.84375 45.5625 
Q 25.390625 42.390625 31.78125 42.390625 
Q 38.140625 42.390625 41.71875 45.5625 
Q 45.3125 48.734375 45.3125 54.390625 
Q 45.3125 60.0625 41.71875 63.234375 
Q 38.140625 66.40625 31.78125 66.40625 
Q 25.390625 66.40625 21.84375 63.234375 
Q 18.3125 60.0625 18.3125 54.390625 
z
" id="DejaVuSans-56"/>
      </defs>
      <g style="fill:#262626;" transform="translate(640.834073 647.858281)scale(0.11 -0.11)">
       <use xlink:href="#DejaVuSans-56"/>
      </g>
     </g>
    </g>
   </g>
   <g id="matplotlib.axis_2">
    <g id="ytick_1">
     <g id="line2d_7">
      <path clip-path="url(#p9991ee780b)" d="M 90 621.160846 
L 648 621.160846 
" style="fill:none;stroke:#ffffff;stroke-linecap:round;"/>
     </g>
     <g id="text_7">
      <!-- −3 -->
      <defs>
       <path d="M 40.578125 39.3125 
Q 47.65625 37.796875 51.625 33 
Q 55.609375 28.21875 55.609375 21.1875 
Q 55.609375 10.40625 48.1875 4.484375 
Q 40.765625 -1.421875 27.09375 -1.421875 
Q 22.515625 -1.421875 17.65625 -0.515625 
Q 12.796875 0.390625 7.625 2.203125 
L 7.625 11.71875 
Q 11.71875 9.328125 16.59375 8.109375 
Q 21.484375 6.890625 26.8125 6.890625 
Q 36.078125 6.890625 40.9375 10.546875 
Q 45.796875 14.203125 45.796875 21.1875 
Q 45.796875 27.640625 41.28125 31.265625 
Q 36.765625 34.90625 28.71875 34.90625 
L 20.21875 34.90625 
L 20.21875 43.015625 
L 29.109375 43.015625 
Q 36.375 43.015625 40.234375 45.921875 
Q 44.09375 48.828125 44.09375 54.296875 
Q 44.09375 59.90625 40.109375 62.90625 
Q 36.140625 65.921875 28.71875 65.921875 
Q 24.65625 65.921875 20.015625 65.03125 
Q 15.375 64.15625 9.8125 62.3125 
L 9.8125 71.09375 
Q 15.4375 72.65625 20.34375 73.4375 
Q 25.25 74.21875 29.59375 74.21875 
Q 40.828125 74.21875 47.359375 69.109375 
Q 53.90625 64.015625 53.90625 55.328125 
Q 53.90625 49.265625 50.4375 45.09375 
Q 46.96875 40.921875 40.578125 39.3125 
z
" id="DejaVuSans-51"/>
      </defs>
      <g style="fill:#262626;" transform="translate(64.283594 625.339986)scale(0.11 -0.11)">
       <use xlink:href="#DejaVuSans-8722"/>
       <use x="83.789062" xlink:href="#DejaVuSans-51"/>
      </g>
     </g>
    </g>
    <g id="ytick_2">
     <g id="line2d_8">
      <path clip-path="url(#p9991ee780b)" d="M 90 560.416668 
L 648 560.416668 
" style="fill:none;stroke:#ffffff;stroke-linecap:round;"/>
     </g>
     <g id="text_8">
      <!-- −2 -->
      <g style="fill:#262626;" transform="translate(64.283594 564.595809)scale(0.11 -0.11)">
       <use xlink:href="#DejaVuSans-8722"/>
       <use x="83.789062" xlink:href="#DejaVuSans-50"/>
      </g>
     </g>
    </g>
    <g id="ytick_3">
     <g id="line2d_9">
      <path clip-path="url(#p9991ee780b)" d="M 90 499.67249 
L 648 499.67249 
" style="fill:none;stroke:#ffffff;stroke-linecap:round;"/>
     </g>
     <g id="text_9">
      <!-- −1 -->
      <defs>
       <path d="M 12.40625 8.296875 
L 28.515625 8.296875 
L 28.515625 63.921875 
L 10.984375 60.40625 
L 10.984375 69.390625 
L 28.421875 72.90625 
L 38.28125 72.90625 
L 38.28125 8.296875 
L 54.390625 8.296875 
L 54.390625 0 
L 12.40625 0 
z
" id="DejaVuSans-49"/>
      </defs>
      <g style="fill:#262626;" transform="translate(64.283594 503.851631)scale(0.11 -0.11)">
       <use xlink:href="#DejaVuSans-8722"/>
       <use x="83.789062" xlink:href="#DejaVuSans-49"/>
      </g>
     </g>
    </g>
    <g id="ytick_4">
     <g id="line2d_10">
      <path clip-path="url(#p9991ee780b)" d="M 90 438.928312 
L 648 438.928312 
" style="fill:none;stroke:#ffffff;stroke-linecap:round;"/>
     </g>
     <g id="text_10">
      <!-- 0 -->
      <g style="fill:#262626;" transform="translate(73.50125 443.107453)scale(0.11 -0.11)">
       <use xlink:href="#DejaVuSans-48"/>
      </g>
     </g>
    </g>
    <g id="ytick_5">
     <g id="line2d_11">
      <path clip-path="url(#p9991ee780b)" d="M 90 378.184135 
L 648 378.184135 
" style="fill:none;stroke:#ffffff;stroke-linecap:round;"/>
     </g>
     <g id="text_11">
      <!-- 1 -->
      <g style="fill:#262626;" transform="translate(73.50125 382.363275)scale(0.11 -0.11)">
       <use xlink:href="#DejaVuSans-49"/>
      </g>
     </g>
    </g>
    <g id="ytick_6">
     <g id="line2d_12">
      <path clip-path="url(#p9991ee780b)" d="M 90 317.439957 
L 648 317.439957 
" style="fill:none;stroke:#ffffff;stroke-linecap:round;"/>
     </g>
     <g id="text_12">
      <!-- 2 -->
      <g style="fill:#262626;" transform="translate(73.50125 321.619098)scale(0.11 -0.11)">
       <use xlink:href="#DejaVuSans-50"/>
      </g>
     </g>
    </g>
    <g id="ytick_7">
     <g id="line2d_13">
      <path clip-path="url(#p9991ee780b)" d="M 90 256.695779 
L 648 256.695779 
" style="fill:none;stroke:#ffffff;stroke-linecap:round;"/>
     </g>
     <g id="text_13">
      <!-- 3 -->
      <g style="fill:#262626;" transform="translate(73.50125 260.87492)scale(0.11 -0.11)">
       <use xlink:href="#DejaVuSans-51"/>
      </g>
     </g>
    </g>
    <g id="ytick_8">
     <g id="line2d_14">
      <path clip-path="url(#p9991ee780b)" d="M 90 195.951602 
L 648 195.951602 
" style="fill:none;stroke:#ffffff;stroke-linecap:round;"/>
     </g>
     <g id="text_14">
      <!-- 4 -->
      <g style="fill:#262626;" transform="translate(73.50125 200.130742)scale(0.11 -0.11)">
       <use xlink:href="#DejaVuSans-52"/>
      </g>
     </g>
    </g>
    <g id="ytick_9">
     <g id="line2d_15">
      <path clip-path="url(#p9991ee780b)" d="M 90 135.207424 
L 648 135.207424 
" style="fill:none;stroke:#ffffff;stroke-linecap:round;"/>
     </g>
     <g id="text_15">
      <!-- 5 -->
      <defs>
       <path d="M 10.796875 72.90625 
L 49.515625 72.90625 
L 49.515625 64.59375 
L 19.828125 64.59375 
L 19.828125 46.734375 
Q 21.96875 47.46875 24.109375 47.828125 
Q 26.265625 48.1875 28.421875 48.1875 
Q 40.625 48.1875 47.75 41.5 
Q 54.890625 34.8125 54.890625 23.390625 
Q 54.890625 11.625 47.5625 5.09375 
Q 40.234375 -1.421875 26.90625 -1.421875 
Q 22.3125 -1.421875 17.546875 -0.640625 
Q 12.796875 0.140625 7.71875 1.703125 
L 7.71875 11.625 
Q 12.109375 9.234375 16.796875 8.0625 
Q 21.484375 6.890625 26.703125 6.890625 
Q 35.15625 6.890625 40.078125 11.328125 
Q 45.015625 15.765625 45.015625 23.390625 
Q 45.015625 31 40.078125 35.4375 
Q 35.15625 39.890625 26.703125 39.890625 
Q 22.75 39.890625 18.8125 39.015625 
Q 14.890625 38.140625 10.796875 36.28125 
z
" id="DejaVuSans-53"/>
      </defs>
      <g style="fill:#262626;" transform="translate(73.50125 139.386565)scale(0.11 -0.11)">
       <use xlink:href="#DejaVuSans-53"/>
      </g>
     </g>
    </g>
   </g>
   <g id="PathCollection_1">
    <defs>
     <path d="M 0 3 
C 0.795609 3 1.55874 2.683901 2.12132 2.12132 
C 2.683901 1.55874 3 0.795609 3 0 
C 3 -0.795609 2.683901 -1.55874 2.12132 -2.12132 
C 1.55874 -2.683901 0.795609 -3 0 -3 
C -0.795609 -3 -1.55874 -2.683901 -2.12132 -2.12132 
C -2.683901 -1.55874 -3 -0.795609 -3 0 
C -3 0.795609 -2.683901 1.55874 -2.12132 2.12132 
C -1.55874 2.683901 -0.795609 3 0 3 
z
" id="m166998a0de" style="stroke:#4c72b0;"/>
    </defs>
    <g clip-path="url(#p9991ee780b)">
     <use style="fill:#4c72b0;stroke:#4c72b0;" x="129.476161" xlink:href="#m166998a0de" y="363.610023"/>
    </g>
   </g>
   <g id="PathCollection_2">
    <g clip-path="url(#p9991ee780b)">
     <use style="fill:#4c72b0;stroke:#4c72b0;" x="131.635226" xlink:href="#m166998a0de" y="361.139369"/>
    </g>
   </g>
   <g id="PathCollection_3">
    <defs>
     <path d="M 0 3 
C 0.795609 3 1.55874 2.683901 2.12132 2.12132 
C 2.683901 1.55874 3 0.795609 3 0 
C 3 -0.795609 2.683901 -1.55874 2.12132 -2.12132 
C 1.55874 -2.683901 0.795609 -3 0 -3 
C -0.795609 -3 -1.55874 -2.683901 -2.12132 -2.12132 
C -2.683901 -1.55874 -3 -0.795609 -3 0 
C -3 0.795609 -2.683901 1.55874 -2.12132 2.12132 
C -1.55874 2.683901 -0.795609 3 0 3 
z
" id="mea5f25d329" style="stroke:#55a868;"/>
    </defs>
    <g clip-path="url(#p9991ee780b)">
     <use style="fill:#55a868;stroke:#55a868;" x="122.665662" xlink:href="#mea5f25d329" y="355.137293"/>
    </g>
   </g>
   <g id="PathCollection_4">
    <defs>
     <path d="M 0 3 
C 0.795609 3 1.55874 2.683901 2.12132 2.12132 
C 2.683901 1.55874 3 0.795609 3 0 
C 3 -0.795609 2.683901 -1.55874 2.12132 -2.12132 
C 1.55874 -2.683901 0.795609 -3 0 -3 
C -0.795609 -3 -1.55874 -2.683901 -2.12132 -2.12132 
C -2.683901 -1.55874 -3 -0.795609 -3 0 
C -3 0.795609 -2.683901 1.55874 -2.12132 2.12132 
C -1.55874 2.683901 -0.795609 3 0 3 
z
" id="m00af904bdd" style="stroke:#8172b3;"/>
    </defs>
    <g clip-path="url(#p9991ee780b)">
     <use style="fill:#8172b3;stroke:#8172b3;" x="384.313828" xlink:href="#m00af904bdd" y="483.358173"/>
    </g>
   </g>
   <g id="PathCollection_5">
    <defs>
     <path d="M 0 3 
C 0.795609 3 1.55874 2.683901 2.12132 2.12132 
C 2.683901 1.55874 3 0.795609 3 0 
C 3 -0.795609 2.683901 -1.55874 2.12132 -2.12132 
C 1.55874 -2.683901 0.795609 -3 0 -3 
C -0.795609 -3 -1.55874 -2.683901 -2.12132 -2.12132 
C -2.683901 -1.55874 -3 -0.795609 -3 0 
C -3 0.795609 -2.683901 1.55874 -2.12132 2.12132 
C -1.55874 2.683901 -0.795609 3 0 3 
z
" id="mb4d84a51a3" style="stroke:#c44e52;"/>
    </defs>
    <g clip-path="url(#p9991ee780b)">
     <use style="fill:#c44e52;stroke:#c44e52;" x="295.412207" xlink:href="#mb4d84a51a3" y="602.721319"/>
    </g>
   </g>
   <g id="PathCollection_6">
    <g clip-path="url(#p9991ee780b)">
     <use style="fill:#55a868;stroke:#55a868;" x="130.749041" xlink:href="#mea5f25d329" y="346.014325"/>
    </g>
   </g>
   <g id="PathCollection_7">
    <defs>
     <path d="M 0 3 
C 0.795609 3 1.55874 2.683901 2.12132 2.12132 
C 2.683901 1.55874 3 0.795609 3 0 
C 3 -0.795609 2.683901 -1.55874 2.12132 -2.12132 
C 1.55874 -2.683901 0.795609 -3 0 -3 
C -0.795609 -3 -1.55874 -2.683901 -2.12132 -2.12132 
C -2.683901 -1.55874 -3 -0.795609 -3 0 
C -3 0.795609 -2.683901 1.55874 -2.12132 2.12132 
C -1.55874 2.683901 -0.795609 3 0 3 
z
" id="m79ce1c0ea5" style="stroke:#64b5cd;"/>
    </defs>
    <g clip-path="url(#p9991ee780b)">
     <use style="fill:#64b5cd;stroke:#64b5cd;" x="330.351777" xlink:href="#m79ce1c0ea5" y="578.090526"/>
    </g>
   </g>
   <g id="PathCollection_8">
    <g clip-path="url(#p9991ee780b)">
     <use style="fill:#4c72b0;stroke:#4c72b0;" x="130.071428" xlink:href="#m166998a0de" y="365.019957"/>
    </g>
   </g>
   <g id="PathCollection_9">
    <g clip-path="url(#p9991ee780b)">
     <use style="fill:#8172b3;stroke:#8172b3;" x="488.518713" xlink:href="#m00af904bdd" y="315.73584"/>
    </g>
   </g>
   <g id="PathCollection_10">
    <g clip-path="url(#p9991ee780b)">
     <use style="fill:#c44e52;stroke:#c44e52;" x="302.907867" xlink:href="#mb4d84a51a3" y="582.898285"/>
    </g>
   </g>
   <g id="PathCollection_11">
    <g clip-path="url(#p9991ee780b)">
     <use style="fill:#4c72b0;stroke:#4c72b0;" x="139.640497" xlink:href="#m166998a0de" y="343.577906"/>
    </g>
   </g>
   <g id="PathCollection_12">
    <g clip-path="url(#p9991ee780b)">
     <use style="fill:#55a868;stroke:#55a868;" x="117.147122" xlink:href="#mea5f25d329" y="355.293777"/>
    </g>
   </g>
   <g id="PathCollection_13">
    <g clip-path="url(#p9991ee780b)">
     <use style="fill:#4c72b0;stroke:#4c72b0;" x="127.689282" xlink:href="#m166998a0de" y="372.833179"/>
    </g>
   </g>
   <g id="PathCollection_14">
    <g clip-path="url(#p9991ee780b)">
     <use style="fill:#55a868;stroke:#55a868;" x="139.76772" xlink:href="#mea5f25d329" y="345.275919"/>
    </g>
   </g>
   <g id="PathCollection_15">
    <g clip-path="url(#p9991ee780b)">
     <use style="fill:#55a868;stroke:#55a868;" x="131.430977" xlink:href="#mea5f25d329" y="356.795369"/>
    </g>
   </g>
   <g id="PathCollection_16">
    <g clip-path="url(#p9991ee780b)">
     <use style="fill:#8172b3;stroke:#8172b3;" x="622.636364" xlink:href="#m00af904bdd" y="111.109091"/>
    </g>
   </g>
   <g id="PathCollection_17">
    <g clip-path="url(#p9991ee780b)">
     <use style="fill:#64b5cd;stroke:#64b5cd;" x="319.713463" xlink:href="#m79ce1c0ea5" y="600.285455"/>
    </g>
   </g>
   <g id="PathCollection_18">
    <g clip-path="url(#p9991ee780b)">
     <use style="fill:#c44e52;stroke:#c44e52;" x="316.581773" xlink:href="#mb4d84a51a3" y="578.491733"/>
    </g>
   </g>
   <g id="PathCollection_19">
    <g clip-path="url(#p9991ee780b)">
     <use style="fill:#c44e52;stroke:#c44e52;" x="313.711144" xlink:href="#mb4d84a51a3" y="580.155048"/>
    </g>
   </g>
   <g id="PathCollection_20">
    <g clip-path="url(#p9991ee780b)">
     <use style="fill:#4c72b0;stroke:#4c72b0;" x="138.631061" xlink:href="#m166998a0de" y="363.518119"/>
    </g>
   </g>
   <g id="PathCollection_21">
    <g clip-path="url(#p9991ee780b)">
     <use style="fill:#c44e52;stroke:#c44e52;" x="297.679131" xlink:href="#mb4d84a51a3" y="604.552344"/>
    </g>
   </g>
   <g id="PathCollection_22">
    <g clip-path="url(#p9991ee780b)">
     <use style="fill:#64b5cd;stroke:#64b5cd;" x="315.04999" xlink:href="#m79ce1c0ea5" y="605.290909"/>
    </g>
   </g>
   <g id="PathCollection_23">
    <g clip-path="url(#p9991ee780b)">
     <use style="fill:#4c72b0;stroke:#4c72b0;" x="142.479328" xlink:href="#m166998a0de" y="360.086541"/>
    </g>
   </g>
   <g id="PathCollection_24">
    <g clip-path="url(#p9991ee780b)">
     <use style="fill:#4c72b0;stroke:#4c72b0;" x="136.683951" xlink:href="#m166998a0de" y="351.625421"/>
    </g>
   </g>
   <g id="PathCollection_25">
    <g clip-path="url(#p9991ee780b)">
     <use style="fill:#64b5cd;stroke:#64b5cd;" x="327.206135" xlink:href="#m79ce1c0ea5" y="593.335909"/>
    </g>
   </g>
   <g id="PathCollection_26">
    <g clip-path="url(#p9991ee780b)">
     <use style="fill:#64b5cd;stroke:#64b5cd;" x="338.587228" xlink:href="#m79ce1c0ea5" y="570.548088"/>
    </g>
   </g>
   <g id="PathCollection_27">
    <g clip-path="url(#p9991ee780b)">
     <use style="fill:#c44e52;stroke:#c44e52;" x="300.267943" xlink:href="#mb4d84a51a3" y="592.412337"/>
    </g>
   </g>
   <g id="PathCollection_28">
    <g clip-path="url(#p9991ee780b)">
     <use style="fill:#8172b3;stroke:#8172b3;" x="548.92014" xlink:href="#m00af904bdd" y="230.598082"/>
    </g>
   </g>
   <g id="PathCollection_29">
    <g clip-path="url(#p9991ee780b)">
     <use style="fill:#4c72b0;stroke:#4c72b0;" x="138.734018" xlink:href="#m166998a0de" y="359.383768"/>
    </g>
   </g>
   <g id="PathCollection_30">
    <g clip-path="url(#p9991ee780b)">
     <use style="fill:#c44e52;stroke:#c44e52;" x="304.2468" xlink:href="#mb4d84a51a3" y="593.42385"/>
    </g>
   </g>
   <g id="PathCollection_31">
    <g clip-path="url(#p9991ee780b)">
     <use style="fill:#55a868;stroke:#55a868;" x="123.616204" xlink:href="#mea5f25d329" y="362.5742"/>
    </g>
   </g>
   <g id="PathCollection_32">
    <g clip-path="url(#p9991ee780b)">
     <use style="fill:#64b5cd;stroke:#64b5cd;" x="333.342402" xlink:href="#m79ce1c0ea5" y="579.038201"/>
    </g>
   </g>
   <g id="PathCollection_33">
    <g clip-path="url(#p9991ee780b)">
     <use style="fill:#64b5cd;stroke:#64b5cd;" x="336.117361" xlink:href="#m79ce1c0ea5" y="573.624875"/>
    </g>
   </g>
   <g id="PathCollection_34">
    <g clip-path="url(#p9991ee780b)">
     <use style="fill:#55a868;stroke:#55a868;" x="125.256301" xlink:href="#mea5f25d329" y="363.144024"/>
    </g>
   </g>
   <g id="PathCollection_35">
    <g clip-path="url(#p9991ee780b)">
     <use style="fill:#55a868;stroke:#55a868;" x="115.363636" xlink:href="#mea5f25d329" y="361.904747"/>
    </g>
   </g>
   <g id="PathCollection_36">
    <g clip-path="url(#p9991ee780b)">
     <use style="fill:#c44e52;stroke:#c44e52;" x="302.107889" xlink:href="#mb4d84a51a3" y="599.346235"/>
    </g>
   </g>
   <g id="PathCollection_37">
    <g clip-path="url(#p9991ee780b)">
     <use style="fill:#8172b3;stroke:#8172b3;" x="563.234822" xlink:href="#m00af904bdd" y="202.690624"/>
    </g>
   </g>
   <g id="PathCollection_38">
    <g clip-path="url(#p9991ee780b)">
     <use style="fill:#64b5cd;stroke:#64b5cd;" x="341.701382" xlink:href="#m79ce1c0ea5" y="563.975971"/>
    </g>
   </g>
   <g id="PathCollection_39">
    <g clip-path="url(#p9991ee780b)">
     <use style="fill:#8172b3;stroke:#8172b3;" x="426.140096" xlink:href="#m00af904bdd" y="429.350605"/>
    </g>
   </g>
   <g id="PathCollection_40">
    <g clip-path="url(#p9991ee780b)">
     <use style="fill:#4c72b0;stroke:#4c72b0;" x="138.147415" xlink:href="#m166998a0de" y="347.98899"/>
    </g>
   </g>
   <g id="PathCollection_41">
    <g clip-path="url(#p9991ee780b)">
     <use style="fill:#55a868;stroke:#55a868;" x="128.561578" xlink:href="#mea5f25d329" y="364.461914"/>
    </g>
   </g>
   <g id="PathCollection_42">
    <g clip-path="url(#p9991ee780b)">
     <use style="fill:#8172b3;stroke:#8172b3;" x="552.699969" xlink:href="#m00af904bdd" y="216.347483"/>
    </g>
   </g>
   <g id="PathCollection_43">
    <g clip-path="url(#p9991ee780b)">
     <use style="fill:#c44e52;stroke:#c44e52;" x="316.018142" xlink:href="#mb4d84a51a3" y="570.363054"/>
    </g>
   </g>
   <g id="PathCollection_44">
    <g clip-path="url(#p9991ee780b)">
     <use style="fill:#c44e52;stroke:#c44e52;" x="300.57469" xlink:href="#mb4d84a51a3" y="598.069626"/>
    </g>
   </g>
   <g id="PathCollection_45">
    <g clip-path="url(#p9991ee780b)">
     <use style="fill:#55a868;stroke:#55a868;" x="121.076155" xlink:href="#mea5f25d329" y="374.672129"/>
    </g>
   </g>
   <g id="PathCollection_46">
    <g clip-path="url(#p9991ee780b)">
     <use style="fill:#8172b3;stroke:#8172b3;" x="460.295663" xlink:href="#m00af904bdd" y="376.216604"/>
    </g>
   </g>
   <g id="PathCollection_47">
    <g clip-path="url(#p9991ee780b)">
     <use style="fill:#8172b3;stroke:#8172b3;" x="444.835692" xlink:href="#m00af904bdd" y="377.680903"/>
    </g>
   </g>
   <g id="PathCollection_48">
    <g clip-path="url(#p9991ee780b)">
     <use style="fill:#64b5cd;stroke:#64b5cd;" x="323.756393" xlink:href="#m79ce1c0ea5" y="584.790862"/>
    </g>
   </g>
   <g id="patch_3">
    <path d="M 90 630 
L 90 86.4 
" style="fill:none;stroke:#ffffff;stroke-linecap:square;stroke-linejoin:miter;stroke-width:1.25;"/>
   </g>
   <g id="patch_4">
    <path d="M 648 630 
L 648 86.4 
" style="fill:none;stroke:#ffffff;stroke-linecap:square;stroke-linejoin:miter;stroke-width:1.25;"/>
   </g>
   <g id="patch_5">
    <path d="M 90 630 
L 648 630 
" style="fill:none;stroke:#ffffff;stroke-linecap:square;stroke-linejoin:miter;stroke-width:1.25;"/>
   </g>
   <g id="patch_6">
    <path d="M 90 86.4 
L 648 86.4 
" style="fill:none;stroke:#ffffff;stroke-linecap:square;stroke-linejoin:miter;stroke-width:1.25;"/>
   </g>
   <g id="legend_1">
    <g id="patch_7">
     <path d="M 590.695625 193.043437 
L 640.3 193.043437 
Q 642.5 193.043437 642.5 190.843437 
L 642.5 94.1 
Q 642.5 91.9 640.3 91.9 
L 590.695625 91.9 
Q 588.495625 91.9 588.495625 94.1 
L 588.495625 190.843437 
Q 588.495625 193.043437 590.695625 193.043437 
z
" style="fill:#eaeaf2;opacity:0.8;stroke:#cccccc;stroke-linejoin:miter;"/>
    </g>
    <g id="text_16">
     <!-- Classes -->
     <defs>
      <path d="M 64.40625 67.28125 
L 64.40625 56.890625 
Q 59.421875 61.53125 53.78125 63.8125 
Q 48.140625 66.109375 41.796875 66.109375 
Q 29.296875 66.109375 22.65625 58.46875 
Q 16.015625 50.828125 16.015625 36.375 
Q 16.015625 21.96875 22.65625 14.328125 
Q 29.296875 6.6875 41.796875 6.6875 
Q 48.140625 6.6875 53.78125 8.984375 
Q 59.421875 11.28125 64.40625 15.921875 
L 64.40625 5.609375 
Q 59.234375 2.09375 53.4375 0.328125 
Q 47.65625 -1.421875 41.21875 -1.421875 
Q 24.65625 -1.421875 15.125 8.703125 
Q 5.609375 18.84375 5.609375 36.375 
Q 5.609375 53.953125 15.125 64.078125 
Q 24.65625 74.21875 41.21875 74.21875 
Q 47.75 74.21875 53.53125 72.484375 
Q 59.328125 70.75 64.40625 67.28125 
z
" id="DejaVuSans-67"/>
      <path d="M 9.421875 75.984375 
L 18.40625 75.984375 
L 18.40625 0 
L 9.421875 0 
z
" id="DejaVuSans-108"/>
      <path d="M 34.28125 27.484375 
Q 23.390625 27.484375 19.1875 25 
Q 14.984375 22.515625 14.984375 16.5 
Q 14.984375 11.71875 18.140625 8.90625 
Q 21.296875 6.109375 26.703125 6.109375 
Q 34.1875 6.109375 38.703125 11.40625 
Q 43.21875 16.703125 43.21875 25.484375 
L 43.21875 27.484375 
z
M 52.203125 31.203125 
L 52.203125 0 
L 43.21875 0 
L 43.21875 8.296875 
Q 40.140625 3.328125 35.546875 0.953125 
Q 30.953125 -1.421875 24.3125 -1.421875 
Q 15.921875 -1.421875 10.953125 3.296875 
Q 6 8.015625 6 15.921875 
Q 6 25.140625 12.171875 29.828125 
Q 18.359375 34.515625 30.609375 34.515625 
L 43.21875 34.515625 
L 43.21875 35.40625 
Q 43.21875 41.609375 39.140625 45 
Q 35.0625 48.390625 27.6875 48.390625 
Q 23 48.390625 18.546875 47.265625 
Q 14.109375 46.140625 10.015625 43.890625 
L 10.015625 52.203125 
Q 14.9375 54.109375 19.578125 55.046875 
Q 24.21875 56 28.609375 56 
Q 40.484375 56 46.34375 49.84375 
Q 52.203125 43.703125 52.203125 31.203125 
z
" id="DejaVuSans-97"/>
      <path d="M 44.28125 53.078125 
L 44.28125 44.578125 
Q 40.484375 46.53125 36.375 47.5 
Q 32.28125 48.484375 27.875 48.484375 
Q 21.1875 48.484375 17.84375 46.4375 
Q 14.5 44.390625 14.5 40.28125 
Q 14.5 37.15625 16.890625 35.375 
Q 19.28125 33.59375 26.515625 31.984375 
L 29.59375 31.296875 
Q 39.15625 29.25 43.1875 25.515625 
Q 47.21875 21.78125 47.21875 15.09375 
Q 47.21875 7.46875 41.1875 3.015625 
Q 35.15625 -1.421875 24.609375 -1.421875 
Q 20.21875 -1.421875 15.453125 -0.5625 
Q 10.6875 0.296875 5.421875 2 
L 5.421875 11.28125 
Q 10.40625 8.6875 15.234375 7.390625 
Q 20.0625 6.109375 24.8125 6.109375 
Q 31.15625 6.109375 34.5625 8.28125 
Q 37.984375 10.453125 37.984375 14.40625 
Q 37.984375 18.0625 35.515625 20.015625 
Q 33.0625 21.96875 24.703125 23.78125 
L 21.578125 24.515625 
Q 13.234375 26.265625 9.515625 29.90625 
Q 5.8125 33.546875 5.8125 39.890625 
Q 5.8125 47.609375 11.28125 51.796875 
Q 16.75 56 26.8125 56 
Q 31.78125 56 36.171875 55.265625 
Q 40.578125 54.546875 44.28125 53.078125 
z
" id="DejaVuSans-115"/>
      <path d="M 56.203125 29.59375 
L 56.203125 25.203125 
L 14.890625 25.203125 
Q 15.484375 15.921875 20.484375 11.0625 
Q 25.484375 6.203125 34.421875 6.203125 
Q 39.59375 6.203125 44.453125 7.46875 
Q 49.3125 8.734375 54.109375 11.28125 
L 54.109375 2.78125 
Q 49.265625 0.734375 44.1875 -0.34375 
Q 39.109375 -1.421875 33.890625 -1.421875 
Q 20.796875 -1.421875 13.15625 6.1875 
Q 5.515625 13.8125 5.515625 26.8125 
Q 5.515625 40.234375 12.765625 48.109375 
Q 20.015625 56 32.328125 56 
Q 43.359375 56 49.78125 48.890625 
Q 56.203125 41.796875 56.203125 29.59375 
z
M 47.21875 32.234375 
Q 47.125 39.59375 43.09375 43.984375 
Q 39.0625 48.390625 32.421875 48.390625 
Q 24.90625 48.390625 20.390625 44.140625 
Q 15.875 39.890625 15.1875 32.171875 
z
" id="DejaVuSans-101"/>
     </defs>
     <g style="fill:#262626;" transform="translate(592.895625 105.418125)scale(0.12 -0.12)">
      <use xlink:href="#DejaVuSans-67"/>
      <use x="69.824219" xlink:href="#DejaVuSans-108"/>
      <use x="97.607422" xlink:href="#DejaVuSans-97"/>
      <use x="158.886719" xlink:href="#DejaVuSans-115"/>
      <use x="210.986328" xlink:href="#DejaVuSans-115"/>
      <use x="263.085938" xlink:href="#DejaVuSans-101"/>
      <use x="324.609375" xlink:href="#DejaVuSans-115"/>
     </g>
    </g>
    <g id="line2d_16">
     <path d="M 595.768281 117.922031 
L 617.768281 117.922031 
" style="fill:none;stroke:#4c72b0;stroke-linecap:round;stroke-width:1.5;"/>
    </g>
    <g id="line2d_17">
     <g>
      <use style="fill:#4c72b0;stroke:#4c72b0;" x="606.768281" xlink:href="#m166998a0de" y="117.922031"/>
     </g>
    </g>
    <g id="text_17">
     <!-- B -->
     <defs>
      <path d="M 19.671875 34.8125 
L 19.671875 8.109375 
L 35.5 8.109375 
Q 43.453125 8.109375 47.28125 11.40625 
Q 51.125 14.703125 51.125 21.484375 
Q 51.125 28.328125 47.28125 31.5625 
Q 43.453125 34.8125 35.5 34.8125 
z
M 19.671875 64.796875 
L 19.671875 42.828125 
L 34.28125 42.828125 
Q 41.5 42.828125 45.03125 45.53125 
Q 48.578125 48.25 48.578125 53.8125 
Q 48.578125 59.328125 45.03125 62.0625 
Q 41.5 64.796875 34.28125 64.796875 
z
M 9.8125 72.90625 
L 35.015625 72.90625 
Q 46.296875 72.90625 52.390625 68.21875 
Q 58.5 63.53125 58.5 54.890625 
Q 58.5 48.1875 55.375 44.234375 
Q 52.25 40.28125 46.1875 39.3125 
Q 53.46875 37.75 57.5 32.78125 
Q 61.53125 27.828125 61.53125 20.40625 
Q 61.53125 10.640625 54.890625 5.3125 
Q 48.25 0 35.984375 0 
L 9.8125 0 
z
" id="DejaVuSans-66"/>
     </defs>
     <g style="fill:#262626;" transform="translate(626.568281 121.772031)scale(0.11 -0.11)">
      <use xlink:href="#DejaVuSans-66"/>
     </g>
    </g>
    <g id="line2d_18">
     <path d="M 595.768281 134.067969 
L 617.768281 134.067969 
" style="fill:none;stroke:#55a868;stroke-linecap:round;stroke-width:1.5;"/>
    </g>
    <g id="line2d_19">
     <g>
      <use style="fill:#55a868;stroke:#55a868;" x="606.768281" xlink:href="#mea5f25d329" y="134.067969"/>
     </g>
    </g>
    <g id="text_18">
     <!-- D -->
     <defs>
      <path d="M 19.671875 64.796875 
L 19.671875 8.109375 
L 31.59375 8.109375 
Q 46.6875 8.109375 53.6875 14.9375 
Q 60.6875 21.78125 60.6875 36.53125 
Q 60.6875 51.171875 53.6875 57.984375 
Q 46.6875 64.796875 31.59375 64.796875 
z
M 9.8125 72.90625 
L 30.078125 72.90625 
Q 51.265625 72.90625 61.171875 64.09375 
Q 71.09375 55.28125 71.09375 36.53125 
Q 71.09375 17.671875 61.125 8.828125 
Q 51.171875 0 30.078125 0 
L 9.8125 0 
z
" id="DejaVuSans-68"/>
     </defs>
     <g style="fill:#262626;" transform="translate(626.568281 137.917969)scale(0.11 -0.11)">
      <use xlink:href="#DejaVuSans-68"/>
     </g>
    </g>
    <g id="line2d_20">
     <path d="M 595.768281 150.213906 
L 617.768281 150.213906 
" style="fill:none;stroke:#c44e52;stroke-linecap:round;stroke-width:1.5;"/>
    </g>
    <g id="line2d_21">
     <g>
      <use style="fill:#c44e52;stroke:#c44e52;" x="606.768281" xlink:href="#mb4d84a51a3" y="150.213906"/>
     </g>
    </g>
    <g id="text_19">
     <!-- P -->
     <defs>
      <path d="M 19.671875 64.796875 
L 19.671875 37.40625 
L 32.078125 37.40625 
Q 38.96875 37.40625 42.71875 40.96875 
Q 46.484375 44.53125 46.484375 51.125 
Q 46.484375 57.671875 42.71875 61.234375 
Q 38.96875 64.796875 32.078125 64.796875 
z
M 9.8125 72.90625 
L 32.078125 72.90625 
Q 44.34375 72.90625 50.609375 67.359375 
Q 56.890625 61.8125 56.890625 51.125 
Q 56.890625 40.328125 50.609375 34.8125 
Q 44.34375 29.296875 32.078125 29.296875 
L 19.671875 29.296875 
L 19.671875 0 
L 9.8125 0 
z
" id="DejaVuSans-80"/>
     </defs>
     <g style="fill:#262626;" transform="translate(626.568281 154.063906)scale(0.11 -0.11)">
      <use xlink:href="#DejaVuSans-80"/>
     </g>
    </g>
    <g id="line2d_22">
     <path d="M 595.768281 166.359844 
L 617.768281 166.359844 
" style="fill:none;stroke:#64b5cd;stroke-linecap:round;stroke-width:1.5;"/>
    </g>
    <g id="line2d_23">
     <g>
      <use style="fill:#64b5cd;stroke:#64b5cd;" x="606.768281" xlink:href="#m79ce1c0ea5" y="166.359844"/>
     </g>
    </g>
    <g id="text_20">
     <!-- O -->
     <defs>
      <path d="M 39.40625 66.21875 
Q 28.65625 66.21875 22.328125 58.203125 
Q 16.015625 50.203125 16.015625 36.375 
Q 16.015625 22.609375 22.328125 14.59375 
Q 28.65625 6.59375 39.40625 6.59375 
Q 50.140625 6.59375 56.421875 14.59375 
Q 62.703125 22.609375 62.703125 36.375 
Q 62.703125 50.203125 56.421875 58.203125 
Q 50.140625 66.21875 39.40625 66.21875 
z
M 39.40625 74.21875 
Q 54.734375 74.21875 63.90625 63.9375 
Q 73.09375 53.65625 73.09375 36.375 
Q 73.09375 19.140625 63.90625 8.859375 
Q 54.734375 -1.421875 39.40625 -1.421875 
Q 24.03125 -1.421875 14.8125 8.828125 
Q 5.609375 19.09375 5.609375 36.375 
Q 5.609375 53.65625 14.8125 63.9375 
Q 24.03125 74.21875 39.40625 74.21875 
z
" id="DejaVuSans-79"/>
     </defs>
     <g style="fill:#262626;" transform="translate(626.568281 170.209844)scale(0.11 -0.11)">
      <use xlink:href="#DejaVuSans-79"/>
     </g>
    </g>
    <g id="line2d_24">
     <path d="M 595.768281 182.505781 
L 617.768281 182.505781 
" style="fill:none;stroke:#8172b3;stroke-linecap:round;stroke-width:1.5;"/>
    </g>
    <g id="line2d_25">
     <g>
      <use style="fill:#8172b3;stroke:#8172b3;" x="606.768281" xlink:href="#m00af904bdd" y="182.505781"/>
     </g>
    </g>
    <g id="text_21">
     <!-- N -->
     <defs>
      <path d="M 9.8125 72.90625 
L 23.09375 72.90625 
L 55.421875 11.921875 
L 55.421875 72.90625 
L 64.984375 72.90625 
L 64.984375 0 
L 51.703125 0 
L 19.390625 60.984375 
L 19.390625 0 
L 9.8125 0 
z
" id="DejaVuSans-78"/>
     </defs>
     <g style="fill:#262626;" transform="translate(626.568281 186.355781)scale(0.11 -0.11)">
      <use xlink:href="#DejaVuSans-78"/>
     </g>
    </g>
   </g>
  </g>
 </g>
 <defs>
  <clipPath id="p9991ee780b">
   <rect height="543.6" width="558" x="90" y="86.4"/>
  </clipPath>
 </defs>
</svg>
