<?xml version="1.0" encoding="utf-8" standalone="no"?>
<!DOCTYPE svg PUBLIC "-//W3C//DTD SVG 1.1//EN"
  "http://www.w3.org/Graphics/SVG/1.1/DTD/svg11.dtd">
<!-- Created with matplotlib (https://matplotlib.org/) -->
<svg height="720pt" version="1.1" viewBox="0 0 720 720" width="720pt" xmlns="http://www.w3.org/2000/svg" xmlns:xlink="http://www.w3.org/1999/xlink">
 <defs>
  <style type="text/css">
*{stroke-linecap:butt;stroke-linejoin:round;}
  </style>
 </defs>
 <g id="figure_1">
  <g id="patch_1">
   <path d="M 0 720 
L 720 720 
L 720 0 
L 0 0 
z
" style="fill:#ffffff;"/>
  </g>
  <g id="patch_2">
   <path d="M 90 630 
L 648 630 
L 648 86.4 
L 90 86.4 
z
" style="fill:#eaeaf2;"/>
  </g>
  <g id="pane3d_1">
   <g id="patch_3">
    <path d="M 163.971523 509.883558 
L 323.674042 376.605155 
L 321.015164 121.932002 
L 152.408183 241.679906 
" style="fill:#f2f2f2;opacity:0.5;stroke:#f2f2f2;stroke-linejoin:miter;"/>
   </g>
  </g>
  <g id="pane3d_2">
   <g id="patch_4">
    <path d="M 323.674042 376.605155 
L 582.377109 451.116383 
L 593.200935 188.763664 
L 321.015164 121.932002 
" style="fill:#e6e6e6;opacity:0.5;stroke:#e6e6e6;stroke-linejoin:miter;"/>
   </g>
  </g>
  <g id="pane3d_3">
   <g id="patch_5">
    <path d="M 163.971523 509.883558 
L 436.162105 596.664023 
L 582.377109 451.116383 
L 323.674042 376.605155 
" style="fill:#ececec;opacity:0.5;stroke:#ececec;stroke-linejoin:miter;"/>
   </g>
  </g>
  <g id="axis3d_1">
   <g id="line2d_1">
    <path d="M 163.971523 509.883558 
L 436.162105 596.664023 
" style="fill:none;stroke:#ffffff;stroke-linecap:round;stroke-width:1.25;"/>
   </g>
   <g id="Line3DCollection_1">
    <path d="M 210.007444 524.560842 
L 367.550862 389.242484 
L 367.095248 133.246364 
" style="fill:none;stroke:#ffffff;"/>
    <path d="M 252.474609 538.100327 
L 407.982139 400.887433 
L 409.586903 143.679636 
" style="fill:none;stroke:#ffffff;"/>
    <path d="M 295.561154 551.837285 
L 448.959859 412.689768 
L 452.682367 154.261164 
" style="fill:none;stroke:#ffffff;"/>
    <path d="M 339.28073 565.776067 
L 490.495176 424.652701 
L 496.394603 164.994133 
" style="fill:none;stroke:#ffffff;"/>
    <path d="M 383.647391 579.921154 
L 532.599549 436.779532 
L 540.736948 175.881817 
" style="fill:none;stroke:#ffffff;"/>
    <path d="M 428.675609 594.27716 
L 575.284752 449.073654 
L 585.723124 186.927585 
" style="fill:none;stroke:#ffffff;"/>
   </g>
   <g id="xtick_1">
    <g id="line2d_2">
     <path clip-path="url(#p1bdffe2c50)" d="M 376.540541 350.854054 
" style="fill:none;stroke:#ffffff;stroke-linecap:round;"/>
    </g>
    <g id="line2d_3">
     <path d="M 211.36525 523.394585 
L 207.286741 526.897729 
" style="fill:none;stroke:#262626;stroke-linecap:round;stroke-width:1.25;"/>
    </g>
    <g id="text_1">
     <!-- −2 -->
     <defs>
      <path d="M 10.59375 35.5 
L 73.1875 35.5 
L 73.1875 27.203125 
L 10.59375 27.203125 
z
" id="DejaVuSans-8722"/>
      <path d="M 19.1875 8.296875 
L 53.609375 8.296875 
L 53.609375 0 
L 7.328125 0 
L 7.328125 8.296875 
Q 12.9375 14.109375 22.625 23.890625 
Q 32.328125 33.6875 34.8125 36.53125 
Q 39.546875 41.84375 41.421875 45.53125 
Q 43.3125 49.21875 43.3125 52.78125 
Q 43.3125 58.59375 39.234375 62.25 
Q 35.15625 65.921875 28.609375 65.921875 
Q 23.96875 65.921875 18.8125 64.3125 
Q 13.671875 62.703125 7.8125 59.421875 
L 7.8125 69.390625 
Q 13.765625 71.78125 18.9375 73 
Q 24.125 74.21875 28.421875 74.21875 
Q 39.75 74.21875 46.484375 68.546875 
Q 53.21875 62.890625 53.21875 53.421875 
Q 53.21875 48.921875 51.53125 44.890625 
Q 49.859375 40.875 45.40625 35.40625 
Q 44.1875 33.984375 37.640625 27.21875 
Q 31.109375 20.453125 19.1875 8.296875 
z
" id="DejaVuSans-50"/>
     </defs>
     <g style="fill:#262626;" transform="translate(195.431572 549.030447)scale(0.11 -0.11)">
      <use xlink:href="#DejaVuSans-8722"/>
      <use x="83.789062" xlink:href="#DejaVuSans-50"/>
     </g>
    </g>
   </g>
   <g id="xtick_2">
    <g id="line2d_4">
     <path clip-path="url(#p1bdffe2c50)" d="M 376.540541 350.854054 
" style="fill:none;stroke:#ffffff;stroke-linecap:round;"/>
    </g>
    <g id="line2d_5">
     <path d="M 253.815565 536.917128 
L 249.787634 540.471194 
" style="fill:none;stroke:#262626;stroke-linecap:round;stroke-width:1.25;"/>
    </g>
    <g id="text_2">
     <!-- 0 -->
     <defs>
      <path d="M 31.78125 66.40625 
Q 24.171875 66.40625 20.328125 58.90625 
Q 16.5 51.421875 16.5 36.375 
Q 16.5 21.390625 20.328125 13.890625 
Q 24.171875 6.390625 31.78125 6.390625 
Q 39.453125 6.390625 43.28125 13.890625 
Q 47.125 21.390625 47.125 36.375 
Q 47.125 51.421875 43.28125 58.90625 
Q 39.453125 66.40625 31.78125 66.40625 
z
M 31.78125 74.21875 
Q 44.046875 74.21875 50.515625 64.515625 
Q 56.984375 54.828125 56.984375 36.375 
Q 56.984375 17.96875 50.515625 8.265625 
Q 44.046875 -1.421875 31.78125 -1.421875 
Q 19.53125 -1.421875 13.0625 8.265625 
Q 6.59375 17.96875 6.59375 36.375 
Q 6.59375 54.828125 13.0625 64.515625 
Q 19.53125 74.21875 31.78125 74.21875 
z
" id="DejaVuSans-48"/>
     </defs>
     <g style="fill:#262626;" transform="translate(242.505321 562.700925)scale(0.11 -0.11)">
      <use xlink:href="#DejaVuSans-48"/>
     </g>
    </g>
   </g>
   <g id="xtick_3">
    <g id="line2d_6">
     <path clip-path="url(#p1bdffe2c50)" d="M 376.540541 350.854054 
" style="fill:none;stroke:#ffffff;stroke-linecap:round;"/>
    </g>
    <g id="line2d_7">
     <path d="M 296.884622 550.636771 
L 292.909185 554.242879 
" style="fill:none;stroke:#262626;stroke-linecap:round;stroke-width:1.25;"/>
    </g>
    <g id="text_3">
     <!-- 2 -->
     <g style="fill:#262626;" transform="translate(285.590246 576.570996)scale(0.11 -0.11)">
      <use xlink:href="#DejaVuSans-50"/>
     </g>
    </g>
   </g>
   <g id="xtick_4">
    <g id="line2d_8">
     <path clip-path="url(#p1bdffe2c50)" d="M 376.540541 350.854054 
" style="fill:none;stroke:#ffffff;stroke-linecap:round;"/>
    </g>
    <g id="line2d_9">
     <path d="M 340.58605 564.557856 
L 336.66509 568.217157 
" style="fill:none;stroke:#262626;stroke-linecap:round;stroke-width:1.25;"/>
    </g>
    <g id="text_4">
     <!-- 4 -->
     <defs>
      <path d="M 37.796875 64.3125 
L 12.890625 25.390625 
L 37.796875 25.390625 
z
M 35.203125 72.90625 
L 47.609375 72.90625 
L 47.609375 25.390625 
L 58.015625 25.390625 
L 58.015625 17.1875 
L 47.609375 17.1875 
L 47.609375 0 
L 37.796875 0 
L 37.796875 17.1875 
L 4.890625 17.1875 
L 4.890625 26.703125 
z
" id="DejaVuSans-52"/>
     </defs>
     <g style="fill:#262626;" transform="translate(329.308852 590.645064)scale(0.11 -0.11)">
      <use xlink:href="#DejaVuSans-52"/>
     </g>
    </g>
   </g>
   <g id="xtick_5">
    <g id="line2d_10">
     <path clip-path="url(#p1bdffe2c50)" d="M 376.540541 350.854054 
" style="fill:none;stroke:#ffffff;stroke-linecap:round;"/>
    </g>
    <g id="line2d_11">
     <path d="M 384.933879 578.684851 
L 381.06945 582.398531 
" style="fill:none;stroke:#262626;stroke-linecap:round;stroke-width:1.25;"/>
    </g>
    <g id="text_5">
     <!-- 6 -->
     <defs>
      <path d="M 33.015625 40.375 
Q 26.375 40.375 22.484375 35.828125 
Q 18.609375 31.296875 18.609375 23.390625 
Q 18.609375 15.53125 22.484375 10.953125 
Q 26.375 6.390625 33.015625 6.390625 
Q 39.65625 6.390625 43.53125 10.953125 
Q 47.40625 15.53125 47.40625 23.390625 
Q 47.40625 31.296875 43.53125 35.828125 
Q 39.65625 40.375 33.015625 40.375 
z
M 52.59375 71.296875 
L 52.59375 62.3125 
Q 48.875 64.0625 45.09375 64.984375 
Q 41.3125 65.921875 37.59375 65.921875 
Q 27.828125 65.921875 22.671875 59.328125 
Q 17.53125 52.734375 16.796875 39.40625 
Q 19.671875 43.65625 24.015625 45.921875 
Q 28.375 48.1875 33.59375 48.1875 
Q 44.578125 48.1875 50.953125 41.515625 
Q 57.328125 34.859375 57.328125 23.390625 
Q 57.328125 12.15625 50.6875 5.359375 
Q 44.046875 -1.421875 33.015625 -1.421875 
Q 20.359375 -1.421875 13.671875 8.265625 
Q 6.984375 17.96875 6.984375 36.375 
Q 6.984375 53.65625 15.1875 63.9375 
Q 23.390625 74.21875 37.203125 74.21875 
Q 40.921875 74.21875 44.703125 73.484375 
Q 48.484375 72.75 52.59375 71.296875 
z
" id="DejaVuSans-54"/>
     </defs>
     <g style="fill:#262626;" transform="translate(373.675223 604.927664)scale(0.11 -0.11)">
      <use xlink:href="#DejaVuSans-54"/>
     </g>
    </g>
   </g>
   <g id="xtick_6">
    <g id="line2d_12">
     <path clip-path="url(#p1bdffe2c50)" d="M 376.540541 350.854054 
" style="fill:none;stroke:#ffffff;stroke-linecap:round;"/>
    </g>
    <g id="line2d_13">
     <path d="M 429.942556 593.02236 
L 426.136789 596.791639 
" style="fill:none;stroke:#262626;stroke-linecap:round;stroke-width:1.25;"/>
    </g>
    <g id="text_6">
     <!-- 8 -->
     <defs>
      <path d="M 31.78125 34.625 
Q 24.75 34.625 20.71875 30.859375 
Q 16.703125 27.09375 16.703125 20.515625 
Q 16.703125 13.921875 20.71875 10.15625 
Q 24.75 6.390625 31.78125 6.390625 
Q 38.8125 6.390625 42.859375 10.171875 
Q 46.921875 13.96875 46.921875 20.515625 
Q 46.921875 27.09375 42.890625 30.859375 
Q 38.875 34.625 31.78125 34.625 
z
M 21.921875 38.8125 
Q 15.578125 40.375 12.03125 44.71875 
Q 8.5 49.078125 8.5 55.328125 
Q 8.5 64.0625 14.71875 69.140625 
Q 20.953125 74.21875 31.78125 74.21875 
Q 42.671875 74.21875 48.875 69.140625 
Q 55.078125 64.0625 55.078125 55.328125 
Q 55.078125 49.078125 51.53125 44.71875 
Q 48 40.375 41.703125 38.8125 
Q 48.828125 37.15625 52.796875 32.3125 
Q 56.78125 27.484375 56.78125 20.515625 
Q 56.78125 9.90625 50.3125 4.234375 
Q 43.84375 -1.421875 31.78125 -1.421875 
Q 19.734375 -1.421875 13.25 4.234375 
Q 6.78125 9.90625 6.78125 20.515625 
Q 6.78125 27.484375 10.78125 32.3125 
Q 14.796875 37.15625 21.921875 38.8125 
z
M 18.3125 54.390625 
Q 18.3125 48.734375 21.84375 45.5625 
Q 25.390625 42.390625 31.78125 42.390625 
Q 38.140625 42.390625 41.71875 45.5625 
Q 45.3125 48.734375 45.3125 54.390625 
Q 45.3125 60.0625 41.71875 63.234375 
Q 38.140625 66.40625 31.78125 66.40625 
Q 25.390625 66.40625 21.84375 63.234375 
Q 18.3125 60.0625 18.3125 54.390625 
z
" id="DejaVuSans-56"/>
     </defs>
     <g style="fill:#262626;" transform="translate(418.703864 619.423464)scale(0.11 -0.11)">
      <use xlink:href="#DejaVuSans-56"/>
     </g>
    </g>
   </g>
  </g>
  <g id="axis3d_2">
   <g id="line2d_14">
    <path d="M 582.377109 451.116383 
L 436.162105 596.664023 
" style="fill:none;stroke:#ffffff;stroke-linecap:round;stroke-width:1.25;"/>
   </g>
   <g id="Line3DCollection_2">
    <path d="M 158.883377 237.081099 
L 170.081791 504.784284 
L 441.774409 591.077336 
" style="fill:none;stroke:#ffffff;"/>
    <path d="M 178.164986 223.386931 
L 188.287562 489.59081 
L 458.487927 574.440103 
" style="fill:none;stroke:#ffffff;"/>
    <path d="M 197.115793 209.927706 
L 206.196797 474.644808 
L 474.916735 558.08628 
" style="fill:none;stroke:#ffffff;"/>
    <path d="M 215.744239 196.697427 
L 223.816681 459.940281 
L 491.068046 542.008687 
" style="fill:none;stroke:#ffffff;"/>
    <path d="M 234.058478 183.690304 
L 241.154172 445.471423 
L 506.948833 526.200384 
" style="fill:none;stroke:#ffffff;"/>
    <path d="M 252.066395 170.900737 
L 258.216003 431.232614 
L 522.565836 510.654661 
" style="fill:none;stroke:#ffffff;"/>
    <path d="M 269.77561 158.323313 
L 275.008698 417.218411 
L 537.925573 495.36503 
" style="fill:none;stroke:#ffffff;"/>
    <path d="M 287.193495 145.952798 
L 291.538575 403.42354 
L 553.034349 480.325215 
" style="fill:none;stroke:#ffffff;"/>
    <path d="M 304.32718 133.784127 
L 307.811755 389.842894 
L 567.898264 465.529142 
" style="fill:none;stroke:#ffffff;"/>
   </g>
   <g id="xtick_7">
    <g id="line2d_15">
     <path clip-path="url(#p1bdffe2c50)" d="M 376.540541 350.854054 
" style="fill:none;stroke:#ffffff;stroke-linecap:round;"/>
    </g>
    <g id="line2d_16">
     <path d="M 439.500354 590.355067 
L 446.327613 592.523492 
" style="fill:none;stroke:#262626;stroke-linecap:round;stroke-width:1.25;"/>
    </g>
    <g id="text_7">
     <!-- −3 -->
     <defs>
      <path d="M 40.578125 39.3125 
Q 47.65625 37.796875 51.625 33 
Q 55.609375 28.21875 55.609375 21.1875 
Q 55.609375 10.40625 48.1875 4.484375 
Q 40.765625 -1.421875 27.09375 -1.421875 
Q 22.515625 -1.421875 17.65625 -0.515625 
Q 12.796875 0.390625 7.625 2.203125 
L 7.625 11.71875 
Q 11.71875 9.328125 16.59375 8.109375 
Q 21.484375 6.890625 26.8125 6.890625 
Q 36.078125 6.890625 40.9375 10.546875 
Q 45.796875 14.203125 45.796875 21.1875 
Q 45.796875 27.640625 41.28125 31.265625 
Q 36.765625 34.90625 28.71875 34.90625 
L 20.21875 34.90625 
L 20.21875 43.015625 
L 29.109375 43.015625 
Q 36.375 43.015625 40.234375 45.921875 
Q 44.09375 48.828125 44.09375 54.296875 
Q 44.09375 59.90625 40.109375 62.90625 
Q 36.140625 65.921875 28.71875 65.921875 
Q 24.65625 65.921875 20.015625 65.03125 
Q 15.375 64.15625 9.8125 62.3125 
L 9.8125 71.09375 
Q 15.4375 72.65625 20.34375 73.4375 
Q 25.25 74.21875 29.59375 74.21875 
Q 40.828125 74.21875 47.359375 69.109375 
Q 53.90625 64.015625 53.90625 55.328125 
Q 53.90625 49.265625 50.4375 45.09375 
Q 46.96875 40.921875 40.578125 39.3125 
z
" id="DejaVuSans-51"/>
     </defs>
     <g style="fill:#262626;" transform="translate(444.921431 613.519865)scale(0.11 -0.11)">
      <use xlink:href="#DejaVuSans-8722"/>
      <use x="83.789062" xlink:href="#DejaVuSans-51"/>
     </g>
    </g>
   </g>
   <g id="xtick_8">
    <g id="line2d_17">
     <path clip-path="url(#p1bdffe2c50)" d="M 376.540541 350.854054 
" style="fill:none;stroke:#ffffff;stroke-linecap:round;"/>
    </g>
    <g id="line2d_18">
     <path d="M 456.22722 573.730188 
L 463.01436 575.86151 
" style="fill:none;stroke:#262626;stroke-linecap:round;stroke-width:1.25;"/>
    </g>
    <g id="text_8">
     <!-- −2 -->
     <g style="fill:#262626;" transform="translate(461.533498 596.766445)scale(0.11 -0.11)">
      <use xlink:href="#DejaVuSans-8722"/>
      <use x="83.789062" xlink:href="#DejaVuSans-50"/>
     </g>
    </g>
   </g>
   <g id="xtick_9">
    <g id="line2d_19">
     <path clip-path="url(#p1bdffe2c50)" d="M 376.540541 350.854054 
" style="fill:none;stroke:#ffffff;stroke-linecap:round;"/>
    </g>
    <g id="line2d_20">
     <path d="M 472.669254 557.388404 
L 479.416645 559.483568 
" style="fill:none;stroke:#262626;stroke-linecap:round;stroke-width:1.25;"/>
    </g>
    <g id="text_9">
     <!-- −1 -->
     <defs>
      <path d="M 12.40625 8.296875 
L 28.515625 8.296875 
L 28.515625 63.921875 
L 10.984375 60.40625 
L 10.984375 69.390625 
L 28.421875 72.90625 
L 38.28125 72.90625 
L 38.28125 8.296875 
L 54.390625 8.296875 
L 54.390625 0 
L 12.40625 0 
z
" id="DejaVuSans-49"/>
     </defs>
     <g style="fill:#262626;" transform="translate(477.862663 580.298333)scale(0.11 -0.11)">
      <use xlink:href="#DejaVuSans-8722"/>
      <use x="83.789062" xlink:href="#DejaVuSans-49"/>
     </g>
    </g>
   </g>
   <g id="xtick_10">
    <g id="line2d_21">
     <path clip-path="url(#p1bdffe2c50)" d="M 376.540541 350.854054 
" style="fill:none;stroke:#ffffff;stroke-linecap:round;"/>
    </g>
    <g id="line2d_22">
     <path d="M 488.833668 541.322547 
L 495.54168 543.382465 
" style="fill:none;stroke:#262626;stroke-linecap:round;stroke-width:1.25;"/>
    </g>
    <g id="text_10">
     <!-- 0 -->
     <g style="fill:#262626;" transform="translate(498.524921 564.108302)scale(0.11 -0.11)">
      <use xlink:href="#DejaVuSans-48"/>
     </g>
    </g>
   </g>
   <g id="xtick_11">
    <g id="line2d_23">
     <path clip-path="url(#p1bdffe2c50)" d="M 376.540541 350.854054 
" style="fill:none;stroke:#ffffff;stroke-linecap:round;"/>
    </g>
    <g id="line2d_24">
     <path d="M 504.727437 525.525686 
L 511.396436 527.55124 
" style="fill:none;stroke:#262626;stroke-linecap:round;stroke-width:1.25;"/>
    </g>
    <g id="text_11">
     <!-- 1 -->
     <g style="fill:#262626;" transform="translate(514.309541 548.189369)scale(0.11 -0.11)">
      <use xlink:href="#DejaVuSans-49"/>
     </g>
    </g>
   </g>
   <g id="xtick_12">
    <g id="line2d_25">
     <path clip-path="url(#p1bdffe2c50)" d="M 376.540541 350.854054 
" style="fill:none;stroke:#ffffff;stroke-linecap:round;"/>
    </g>
    <g id="line2d_26">
     <path d="M 520.3573 509.991122 
L 526.987651 511.983164 
" style="fill:none;stroke:#262626;stroke-linecap:round;stroke-width:1.25;"/>
    </g>
    <g id="text_12">
     <!-- 2 -->
     <g style="fill:#262626;" transform="translate(529.832046 532.534781)scale(0.11 -0.11)">
      <use xlink:href="#DejaVuSans-50"/>
     </g>
    </g>
   </g>
   <g id="xtick_13">
    <g id="line2d_27">
     <path clip-path="url(#p1bdffe2c50)" d="M 376.540541 350.854054 
" style="fill:none;stroke:#ffffff;stroke-linecap:round;"/>
    </g>
    <g id="line2d_28">
     <path d="M 535.729776 494.712375 
L 542.321843 496.671731 
" style="fill:none;stroke:#262626;stroke-linecap:round;stroke-width:1.25;"/>
    </g>
    <g id="text_13">
     <!-- 3 -->
     <g style="fill:#262626;" transform="translate(545.098913 517.138007)scale(0.11 -0.11)">
      <use xlink:href="#DejaVuSans-51"/>
     </g>
    </g>
   </g>
   <g id="xtick_14">
    <g id="line2d_29">
     <path clip-path="url(#p1bdffe2c50)" d="M 376.540541 350.854054 
" style="fill:none;stroke:#ffffff;stroke-linecap:round;"/>
    </g>
    <g id="line2d_30">
     <path d="M 550.851171 479.683178 
L 557.405315 481.610645 
" style="fill:none;stroke:#262626;stroke-linecap:round;stroke-width:1.25;"/>
    </g>
    <g id="text_14">
     <!-- 4 -->
     <g style="fill:#262626;" transform="translate(560.116404 501.992731)scale(0.11 -0.11)">
      <use xlink:href="#DejaVuSans-52"/>
     </g>
    </g>
   </g>
   <g id="xtick_15">
    <g id="line2d_31">
     <path clip-path="url(#p1bdffe2c50)" d="M 376.540541 350.854054 
" style="fill:none;stroke:#ffffff;stroke-linecap:round;"/>
    </g>
    <g id="line2d_32">
     <path d="M 565.727587 464.897466 
L 572.244166 466.793817 
" style="fill:none;stroke:#262626;stroke-linecap:round;stroke-width:1.25;"/>
    </g>
    <g id="text_15">
     <!-- 5 -->
     <defs>
      <path d="M 10.796875 72.90625 
L 49.515625 72.90625 
L 49.515625 64.59375 
L 19.828125 64.59375 
L 19.828125 46.734375 
Q 21.96875 47.46875 24.109375 47.828125 
Q 26.265625 48.1875 28.421875 48.1875 
Q 40.625 48.1875 47.75 41.5 
Q 54.890625 34.8125 54.890625 23.390625 
Q 54.890625 11.625 47.5625 5.09375 
Q 40.234375 -1.421875 26.90625 -1.421875 
Q 22.3125 -1.421875 17.546875 -0.640625 
Q 12.796875 0.140625 7.71875 1.703125 
L 7.71875 11.625 
Q 12.109375 9.234375 16.796875 8.0625 
Q 21.484375 6.890625 26.703125 6.890625 
Q 35.15625 6.890625 40.078125 11.328125 
Q 45.015625 15.765625 45.015625 23.390625 
Q 45.015625 31 40.078125 35.4375 
Q 35.15625 39.890625 26.703125 39.890625 
Q 22.75 39.890625 18.8125 39.015625 
Q 14.890625 38.140625 10.796875 36.28125 
z
" id="DejaVuSans-53"/>
     </defs>
     <g style="fill:#262626;" transform="translate(574.89058 487.09284)scale(0.11 -0.11)">
      <use xlink:href="#DejaVuSans-53"/>
     </g>
    </g>
   </g>
  </g>
  <g id="axis3d_3">
   <g id="line2d_33">
    <path d="M 582.377109 451.116383 
L 593.200935 188.763664 
" style="fill:none;stroke:#ffffff;stroke-linecap:round;stroke-width:1.25;"/>
   </g>
   <g id="Line3DCollection_3">
    <path d="M 583.035735 435.152307 
L 323.511919 361.076645 
L 163.269034 493.589819 
" style="fill:none;stroke:#ffffff;"/>
    <path d="M 584.816157 391.997639 
L 323.073877 319.120032 
L 161.369305 449.526916 
" style="fill:none;stroke:#ffffff;"/>
    <path d="M 586.627549 348.092332 
L 322.628538 276.464482 
L 159.435427 404.671972 
" style="fill:none;stroke:#ffffff;"/>
    <path d="M 588.470724 303.416628 
L 322.175718 233.092383 
L 157.466473 359.003437 
" style="fill:none;stroke:#ffffff;"/>
    <path d="M 590.346527 257.95007 
L 321.715227 188.985527 
L 155.461478 312.498974 
" style="fill:none;stroke:#ffffff;"/>
    <path d="M 592.255833 211.671472 
L 321.246868 144.125084 
L 153.419445 265.135418 
" style="fill:none;stroke:#ffffff;"/>
   </g>
   <g id="xtick_16">
    <g id="line2d_34">
     <path clip-path="url(#p1bdffe2c50)" d="M 376.540541 350.854054 
" style="fill:none;stroke:#ffffff;stroke-linecap:round;"/>
    </g>
    <g id="line2d_35">
     <path d="M 580.870184 434.534196 
L 587.371353 436.389819 
" style="fill:none;stroke:#262626;stroke-linecap:round;stroke-width:1.25;"/>
    </g>
    <g id="text_16">
     <!-- −1 -->
     <g style="fill:#262626;" transform="translate(591.199401 441.245312)scale(0.11 -0.11)">
      <use xlink:href="#DejaVuSans-8722"/>
      <use x="83.789062" xlink:href="#DejaVuSans-49"/>
     </g>
    </g>
   </g>
   <g id="xtick_17">
    <g id="line2d_36">
     <path clip-path="url(#p1bdffe2c50)" d="M 376.540541 350.854054 
" style="fill:none;stroke:#ffffff;stroke-linecap:round;"/>
    </g>
    <g id="line2d_37">
     <path d="M 582.631318 391.389309 
L 589.190431 393.21558 
" style="fill:none;stroke:#262626;stroke-linecap:round;stroke-width:1.25;"/>
    </g>
    <g id="text_17">
     <!-- 0 -->
     <g style="fill:#262626;" transform="translate(597.726484 398.126507)scale(0.11 -0.11)">
      <use xlink:href="#DejaVuSans-48"/>
     </g>
    </g>
   </g>
   <g id="xtick_18">
    <g id="line2d_38">
     <path clip-path="url(#p1bdffe2c50)" d="M 376.540541 350.854054 
" style="fill:none;stroke:#ffffff;stroke-linecap:round;"/>
    </g>
    <g id="line2d_39">
     <path d="M 584.423074 347.494217 
L 591.041174 349.289831 
" style="fill:none;stroke:#262626;stroke-linecap:round;stroke-width:1.25;"/>
    </g>
    <g id="text_18">
     <!-- 1 -->
     <g style="fill:#262626;" transform="translate(599.678063 354.258656)scale(0.11 -0.11)">
      <use xlink:href="#DejaVuSans-49"/>
     </g>
    </g>
   </g>
   <g id="xtick_19">
    <g id="line2d_40">
     <path clip-path="url(#p1bdffe2c50)" d="M 376.540541 350.854054 
" style="fill:none;stroke:#ffffff;stroke-linecap:round;"/>
    </g>
    <g id="line2d_41">
     <path d="M 586.246259 302.829182 
L 592.924414 304.592776 
" style="fill:none;stroke:#262626;stroke-linecap:round;stroke-width:1.25;"/>
    </g>
    <g id="text_19">
     <!-- 2 -->
     <g style="fill:#262626;" transform="translate(601.663841 309.622071)scale(0.11 -0.11)">
      <use xlink:href="#DejaVuSans-50"/>
     </g>
    </g>
   </g>
   <g id="xtick_20">
    <g id="line2d_42">
     <path clip-path="url(#p1bdffe2c50)" d="M 376.540541 350.854054 
" style="fill:none;stroke:#ffffff;stroke-linecap:round;"/>
    </g>
    <g id="line2d_43">
     <path d="M 588.101707 257.373767 
L 594.841015 259.10392 
" style="fill:none;stroke:#262626;stroke-linecap:round;stroke-width:1.25;"/>
    </g>
    <g id="text_20">
     <!-- 3 -->
     <g style="fill:#262626;" transform="translate(603.684726 264.196365)scale(0.11 -0.11)">
      <use xlink:href="#DejaVuSans-51"/>
     </g>
    </g>
   </g>
   <g id="xtick_21">
    <g id="line2d_44">
     <path clip-path="url(#p1bdffe2c50)" d="M 376.540541 350.854054 
" style="fill:none;stroke:#ffffff;stroke-linecap:round;"/>
    </g>
    <g id="line2d_45">
     <path d="M 589.990281 211.106805 
L 596.791872 212.802036 
" style="fill:none;stroke:#262626;stroke-linecap:round;stroke-width:1.25;"/>
    </g>
    <g id="text_21">
     <!-- 4 -->
     <g style="fill:#262626;" transform="translate(605.741655 217.960427)scale(0.11 -0.11)">
      <use xlink:href="#DejaVuSans-52"/>
     </g>
    </g>
   </g>
  </g>
  <g id="axes_1">
   <g id="Path3DCollection_1">
    <defs>
     <path d="M 0 2.236068 
C 0.593012 2.236068 1.161816 2.000462 1.581139 1.581139 
C 2.000462 1.161816 2.236068 0.593012 2.236068 0 
C 2.236068 -0.593012 2.000462 -1.161816 1.581139 -1.581139 
C 1.161816 -2.000462 0.593012 -2.236068 0 -2.236068 
C -0.593012 -2.236068 -1.161816 -2.000462 -1.581139 -1.581139 
C -2.000462 -1.161816 -2.236068 -0.593012 -2.236068 0 
C -2.236068 0.593012 -2.000462 1.161816 -1.581139 1.581139 
C -1.161816 2.000462 -0.593012 2.236068 0 2.236068 
z
" id="m45c5d5ea70" style="stroke:#55a868;"/>
    </defs>
    <g clip-path="url(#p1bdffe2c50)">
     <use style="fill:#55a868;stroke:#55a868;" x="263.549084" xlink:href="#m45c5d5ea70" y="398.461135"/>
    </g>
   </g>
   <g id="Path3DCollection_2">
    <g clip-path="url(#p1bdffe2c50)">
     <use style="fill:#55a868;stroke:#55a868;" x="272.158097" xlink:href="#m45c5d5ea70" y="396.040629"/>
    </g>
   </g>
   <g id="Path3DCollection_3">
    <g clip-path="url(#p1bdffe2c50)">
     <use style="fill:#55a868;stroke:#55a868;" x="266.026529" xlink:href="#m45c5d5ea70" y="398.508195"/>
    </g>
   </g>
   <g id="Path3DCollection_4">
    <g clip-path="url(#p1bdffe2c50)">
     <use style="fill:#55a868;stroke:#55a868;" x="276.366502" xlink:href="#m45c5d5ea70" y="396.730431"/>
    </g>
   </g>
   <g id="legend_1">
    <g id="patch_6">
     <path d="M 590.695625 193.043437 
L 640.3 193.043437 
Q 642.5 193.043437 642.5 190.843437 
L 642.5 94.1 
Q 642.5 91.9 640.3 91.9 
L 590.695625 91.9 
Q 588.495625 91.9 588.495625 94.1 
L 588.495625 190.843437 
Q 588.495625 193.043437 590.695625 193.043437 
z
" style="fill:#eaeaf2;opacity:0.8;stroke:#cccccc;stroke-linejoin:miter;"/>
    </g>
    <g id="text_22">
     <!-- Classes -->
     <defs>
      <path d="M 64.40625 67.28125 
L 64.40625 56.890625 
Q 59.421875 61.53125 53.78125 63.8125 
Q 48.140625 66.109375 41.796875 66.109375 
Q 29.296875 66.109375 22.65625 58.46875 
Q 16.015625 50.828125 16.015625 36.375 
Q 16.015625 21.96875 22.65625 14.328125 
Q 29.296875 6.6875 41.796875 6.6875 
Q 48.140625 6.6875 53.78125 8.984375 
Q 59.421875 11.28125 64.40625 15.921875 
L 64.40625 5.609375 
Q 59.234375 2.09375 53.4375 0.328125 
Q 47.65625 -1.421875 41.21875 -1.421875 
Q 24.65625 -1.421875 15.125 8.703125 
Q 5.609375 18.84375 5.609375 36.375 
Q 5.609375 53.953125 15.125 64.078125 
Q 24.65625 74.21875 41.21875 74.21875 
Q 47.75 74.21875 53.53125 72.484375 
Q 59.328125 70.75 64.40625 67.28125 
z
" id="DejaVuSans-67"/>
      <path d="M 9.421875 75.984375 
L 18.40625 75.984375 
L 18.40625 0 
L 9.421875 0 
z
" id="DejaVuSans-108"/>
      <path d="M 34.28125 27.484375 
Q 23.390625 27.484375 19.1875 25 
Q 14.984375 22.515625 14.984375 16.5 
Q 14.984375 11.71875 18.140625 8.90625 
Q 21.296875 6.109375 26.703125 6.109375 
Q 34.1875 6.109375 38.703125 11.40625 
Q 43.21875 16.703125 43.21875 25.484375 
L 43.21875 27.484375 
z
M 52.203125 31.203125 
L 52.203125 0 
L 43.21875 0 
L 43.21875 8.296875 
Q 40.140625 3.328125 35.546875 0.953125 
Q 30.953125 -1.421875 24.3125 -1.421875 
Q 15.921875 -1.421875 10.953125 3.296875 
Q 6 8.015625 6 15.921875 
Q 6 25.140625 12.171875 29.828125 
Q 18.359375 34.515625 30.609375 34.515625 
L 43.21875 34.515625 
L 43.21875 35.40625 
Q 43.21875 41.609375 39.140625 45 
Q 35.0625 48.390625 27.6875 48.390625 
Q 23 48.390625 18.546875 47.265625 
Q 14.109375 46.140625 10.015625 43.890625 
L 10.015625 52.203125 
Q 14.9375 54.109375 19.578125 55.046875 
Q 24.21875 56 28.609375 56 
Q 40.484375 56 46.34375 49.84375 
Q 52.203125 43.703125 52.203125 31.203125 
z
" id="DejaVuSans-97"/>
      <path d="M 44.28125 53.078125 
L 44.28125 44.578125 
Q 40.484375 46.53125 36.375 47.5 
Q 32.28125 48.484375 27.875 48.484375 
Q 21.1875 48.484375 17.84375 46.4375 
Q 14.5 44.390625 14.5 40.28125 
Q 14.5 37.15625 16.890625 35.375 
Q 19.28125 33.59375 26.515625 31.984375 
L 29.59375 31.296875 
Q 39.15625 29.25 43.1875 25.515625 
Q 47.21875 21.78125 47.21875 15.09375 
Q 47.21875 7.46875 41.1875 3.015625 
Q 35.15625 -1.421875 24.609375 -1.421875 
Q 20.21875 -1.421875 15.453125 -0.5625 
Q 10.6875 0.296875 5.421875 2 
L 5.421875 11.28125 
Q 10.40625 8.6875 15.234375 7.390625 
Q 20.0625 6.109375 24.8125 6.109375 
Q 31.15625 6.109375 34.5625 8.28125 
Q 37.984375 10.453125 37.984375 14.40625 
Q 37.984375 18.0625 35.515625 20.015625 
Q 33.0625 21.96875 24.703125 23.78125 
L 21.578125 24.515625 
Q 13.234375 26.265625 9.515625 29.90625 
Q 5.8125 33.546875 5.8125 39.890625 
Q 5.8125 47.609375 11.28125 51.796875 
Q 16.75 56 26.8125 56 
Q 31.78125 56 36.171875 55.265625 
Q 40.578125 54.546875 44.28125 53.078125 
z
" id="DejaVuSans-115"/>
      <path d="M 56.203125 29.59375 
L 56.203125 25.203125 
L 14.890625 25.203125 
Q 15.484375 15.921875 20.484375 11.0625 
Q 25.484375 6.203125 34.421875 6.203125 
Q 39.59375 6.203125 44.453125 7.46875 
Q 49.3125 8.734375 54.109375 11.28125 
L 54.109375 2.78125 
Q 49.265625 0.734375 44.1875 -0.34375 
Q 39.109375 -1.421875 33.890625 -1.421875 
Q 20.796875 -1.421875 13.15625 6.1875 
Q 5.515625 13.8125 5.515625 26.8125 
Q 5.515625 40.234375 12.765625 48.109375 
Q 20.015625 56 32.328125 56 
Q 43.359375 56 49.78125 48.890625 
Q 56.203125 41.796875 56.203125 29.59375 
z
M 47.21875 32.234375 
Q 47.125 39.59375 43.09375 43.984375 
Q 39.0625 48.390625 32.421875 48.390625 
Q 24.90625 48.390625 20.390625 44.140625 
Q 15.875 39.890625 15.1875 32.171875 
z
" id="DejaVuSans-101"/>
     </defs>
     <g style="fill:#262626;" transform="translate(592.895625 105.418125)scale(0.12 -0.12)">
      <use xlink:href="#DejaVuSans-67"/>
      <use x="69.824219" xlink:href="#DejaVuSans-108"/>
      <use x="97.607422" xlink:href="#DejaVuSans-97"/>
      <use x="158.886719" xlink:href="#DejaVuSans-115"/>
      <use x="210.986328" xlink:href="#DejaVuSans-115"/>
      <use x="263.085938" xlink:href="#DejaVuSans-101"/>
      <use x="324.609375" xlink:href="#DejaVuSans-115"/>
     </g>
    </g>
    <g id="line2d_46">
     <path d="M 595.768281 117.922031 
L 617.768281 117.922031 
" style="fill:none;stroke:#4c72b0;stroke-linecap:round;stroke-width:1.5;"/>
    </g>
    <g id="line2d_47">
     <defs>
      <path d="M 0 3 
C 0.795609 3 1.55874 2.683901 2.12132 2.12132 
C 2.683901 1.55874 3 0.795609 3 0 
C 3 -0.795609 2.683901 -1.55874 2.12132 -2.12132 
C 1.55874 -2.683901 0.795609 -3 0 -3 
C -0.795609 -3 -1.55874 -2.683901 -2.12132 -2.12132 
C -2.683901 -1.55874 -3 -0.795609 -3 0 
C -3 0.795609 -2.683901 1.55874 -2.12132 2.12132 
C -1.55874 2.683901 -0.795609 3 0 3 
z
" id="m22af08f4e9" style="stroke:#4c72b0;"/>
     </defs>
     <g>
      <use style="fill:#4c72b0;stroke:#4c72b0;" x="606.768281" xlink:href="#m22af08f4e9" y="117.922031"/>
     </g>
    </g>
    <g id="text_23">
     <!-- B -->
     <defs>
      <path d="M 19.671875 34.8125 
L 19.671875 8.109375 
L 35.5 8.109375 
Q 43.453125 8.109375 47.28125 11.40625 
Q 51.125 14.703125 51.125 21.484375 
Q 51.125 28.328125 47.28125 31.5625 
Q 43.453125 34.8125 35.5 34.8125 
z
M 19.671875 64.796875 
L 19.671875 42.828125 
L 34.28125 42.828125 
Q 41.5 42.828125 45.03125 45.53125 
Q 48.578125 48.25 48.578125 53.8125 
Q 48.578125 59.328125 45.03125 62.0625 
Q 41.5 64.796875 34.28125 64.796875 
z
M 9.8125 72.90625 
L 35.015625 72.90625 
Q 46.296875 72.90625 52.390625 68.21875 
Q 58.5 63.53125 58.5 54.890625 
Q 58.5 48.1875 55.375 44.234375 
Q 52.25 40.28125 46.1875 39.3125 
Q 53.46875 37.75 57.5 32.78125 
Q 61.53125 27.828125 61.53125 20.40625 
Q 61.53125 10.640625 54.890625 5.3125 
Q 48.25 0 35.984375 0 
L 9.8125 0 
z
" id="DejaVuSans-66"/>
     </defs>
     <g style="fill:#262626;" transform="translate(626.568281 121.772031)scale(0.11 -0.11)">
      <use xlink:href="#DejaVuSans-66"/>
     </g>
    </g>
    <g id="line2d_48">
     <path d="M 595.768281 134.067969 
L 617.768281 134.067969 
" style="fill:none;stroke:#55a868;stroke-linecap:round;stroke-width:1.5;"/>
    </g>
    <g id="line2d_49">
     <defs>
      <path d="M 0 3 
C 0.795609 3 1.55874 2.683901 2.12132 2.12132 
C 2.683901 1.55874 3 0.795609 3 0 
C 3 -0.795609 2.683901 -1.55874 2.12132 -2.12132 
C 1.55874 -2.683901 0.795609 -3 0 -3 
C -0.795609 -3 -1.55874 -2.683901 -2.12132 -2.12132 
C -2.683901 -1.55874 -3 -0.795609 -3 0 
C -3 0.795609 -2.683901 1.55874 -2.12132 2.12132 
C -1.55874 2.683901 -0.795609 3 0 3 
z
" id="m581f90053f" style="stroke:#55a868;"/>
     </defs>
     <g>
      <use style="fill:#55a868;stroke:#55a868;" x="606.768281" xlink:href="#m581f90053f" y="134.067969"/>
     </g>
    </g>
    <g id="text_24">
     <!-- D -->
     <defs>
      <path d="M 19.671875 64.796875 
L 19.671875 8.109375 
L 31.59375 8.109375 
Q 46.6875 8.109375 53.6875 14.9375 
Q 60.6875 21.78125 60.6875 36.53125 
Q 60.6875 51.171875 53.6875 57.984375 
Q 46.6875 64.796875 31.59375 64.796875 
z
M 9.8125 72.90625 
L 30.078125 72.90625 
Q 51.265625 72.90625 61.171875 64.09375 
Q 71.09375 55.28125 71.09375 36.53125 
Q 71.09375 17.671875 61.125 8.828125 
Q 51.171875 0 30.078125 0 
L 9.8125 0 
z
" id="DejaVuSans-68"/>
     </defs>
     <g style="fill:#262626;" transform="translate(626.568281 137.917969)scale(0.11 -0.11)">
      <use xlink:href="#DejaVuSans-68"/>
     </g>
    </g>
    <g id="line2d_50">
     <path d="M 595.768281 150.213906 
L 617.768281 150.213906 
" style="fill:none;stroke:#c44e52;stroke-linecap:round;stroke-width:1.5;"/>
    </g>
    <g id="line2d_51">
     <defs>
      <path d="M 0 3 
C 0.795609 3 1.55874 2.683901 2.12132 2.12132 
C 2.683901 1.55874 3 0.795609 3 0 
C 3 -0.795609 2.683901 -1.55874 2.12132 -2.12132 
C 1.55874 -2.683901 0.795609 -3 0 -3 
C -0.795609 -3 -1.55874 -2.683901 -2.12132 -2.12132 
C -2.683901 -1.55874 -3 -0.795609 -3 0 
C -3 0.795609 -2.683901 1.55874 -2.12132 2.12132 
C -1.55874 2.683901 -0.795609 3 0 3 
z
" id="m3ea03ececc" style="stroke:#c44e52;"/>
     </defs>
     <g>
      <use style="fill:#c44e52;stroke:#c44e52;" x="606.768281" xlink:href="#m3ea03ececc" y="150.213906"/>
     </g>
    </g>
    <g id="text_25">
     <!-- P -->
     <defs>
      <path d="M 19.671875 64.796875 
L 19.671875 37.40625 
L 32.078125 37.40625 
Q 38.96875 37.40625 42.71875 40.96875 
Q 46.484375 44.53125 46.484375 51.125 
Q 46.484375 57.671875 42.71875 61.234375 
Q 38.96875 64.796875 32.078125 64.796875 
z
M 9.8125 72.90625 
L 32.078125 72.90625 
Q 44.34375 72.90625 50.609375 67.359375 
Q 56.890625 61.8125 56.890625 51.125 
Q 56.890625 40.328125 50.609375 34.8125 
Q 44.34375 29.296875 32.078125 29.296875 
L 19.671875 29.296875 
L 19.671875 0 
L 9.8125 0 
z
" id="DejaVuSans-80"/>
     </defs>
     <g style="fill:#262626;" transform="translate(626.568281 154.063906)scale(0.11 -0.11)">
      <use xlink:href="#DejaVuSans-80"/>
     </g>
    </g>
    <g id="line2d_52">
     <path d="M 595.768281 166.359844 
L 617.768281 166.359844 
" style="fill:none;stroke:#64b5cd;stroke-linecap:round;stroke-width:1.5;"/>
    </g>
    <g id="line2d_53">
     <defs>
      <path d="M 0 3 
C 0.795609 3 1.55874 2.683901 2.12132 2.12132 
C 2.683901 1.55874 3 0.795609 3 0 
C 3 -0.795609 2.683901 -1.55874 2.12132 -2.12132 
C 1.55874 -2.683901 0.795609 -3 0 -3 
C -0.795609 -3 -1.55874 -2.683901 -2.12132 -2.12132 
C -2.683901 -1.55874 -3 -0.795609 -3 0 
C -3 0.795609 -2.683901 1.55874 -2.12132 2.12132 
C -1.55874 2.683901 -0.795609 3 0 3 
z
" id="mcabe5809ae" style="stroke:#64b5cd;"/>
     </defs>
     <g>
      <use style="fill:#64b5cd;stroke:#64b5cd;" x="606.768281" xlink:href="#mcabe5809ae" y="166.359844"/>
     </g>
    </g>
    <g id="text_26">
     <!-- O -->
     <defs>
      <path d="M 39.40625 66.21875 
Q 28.65625 66.21875 22.328125 58.203125 
Q 16.015625 50.203125 16.015625 36.375 
Q 16.015625 22.609375 22.328125 14.59375 
Q 28.65625 6.59375 39.40625 6.59375 
Q 50.140625 6.59375 56.421875 14.59375 
Q 62.703125 22.609375 62.703125 36.375 
Q 62.703125 50.203125 56.421875 58.203125 
Q 50.140625 66.21875 39.40625 66.21875 
z
M 39.40625 74.21875 
Q 54.734375 74.21875 63.90625 63.9375 
Q 73.09375 53.65625 73.09375 36.375 
Q 73.09375 19.140625 63.90625 8.859375 
Q 54.734375 -1.421875 39.40625 -1.421875 
Q 24.03125 -1.421875 14.8125 8.828125 
Q 5.609375 19.09375 5.609375 36.375 
Q 5.609375 53.65625 14.8125 63.9375 
Q 24.03125 74.21875 39.40625 74.21875 
z
" id="DejaVuSans-79"/>
     </defs>
     <g style="fill:#262626;" transform="translate(626.568281 170.209844)scale(0.11 -0.11)">
      <use xlink:href="#DejaVuSans-79"/>
     </g>
    </g>
    <g id="line2d_54">
     <path d="M 595.768281 182.505781 
L 617.768281 182.505781 
" style="fill:none;stroke:#8172b3;stroke-linecap:round;stroke-width:1.5;"/>
    </g>
    <g id="line2d_55">
     <defs>
      <path d="M 0 3 
C 0.795609 3 1.55874 2.683901 2.12132 2.12132 
C 2.683901 1.55874 3 0.795609 3 0 
C 3 -0.795609 2.683901 -1.55874 2.12132 -2.12132 
C 1.55874 -2.683901 0.795609 -3 0 -3 
C -0.795609 -3 -1.55874 -2.683901 -2.12132 -2.12132 
C -2.683901 -1.55874 -3 -0.795609 -3 0 
C -3 0.795609 -2.683901 1.55874 -2.12132 2.12132 
C -1.55874 2.683901 -0.795609 3 0 3 
z
" id="mfacf8513e0" style="stroke:#8172b3;"/>
     </defs>
     <g>
      <use style="fill:#8172b3;stroke:#8172b3;" x="606.768281" xlink:href="#mfacf8513e0" y="182.505781"/>
     </g>
    </g>
    <g id="text_27">
     <!-- N -->
     <defs>
      <path d="M 9.8125 72.90625 
L 23.09375 72.90625 
L 55.421875 11.921875 
L 55.421875 72.90625 
L 64.984375 72.90625 
L 64.984375 0 
L 51.703125 0 
L 19.390625 60.984375 
L 19.390625 0 
L 9.8125 0 
z
" id="DejaVuSans-78"/>
     </defs>
     <g style="fill:#262626;" transform="translate(626.568281 186.355781)scale(0.11 -0.11)">
      <use xlink:href="#DejaVuSans-78"/>
     </g>
    </g>
   </g>
   <g id="Path3DCollection_5">
    <g clip-path="url(#p1bdffe2c50)">
     <use style="fill:#55a868;stroke:#55a868;" x="269.45782" xlink:href="#m45c5d5ea70" y="400.406525"/>
    </g>
   </g>
   <g id="Path3DCollection_6">
    <g clip-path="url(#p1bdffe2c50)">
     <use style="fill:#55a868;stroke:#55a868;" x="264.33442" xlink:href="#m45c5d5ea70" y="399.887071"/>
    </g>
   </g>
   <g id="Path3DCollection_7">
    <g clip-path="url(#p1bdffe2c50)">
     <use style="fill:#55a868;stroke:#55a868;" x="260.702124" xlink:href="#m45c5d5ea70" y="391.69708"/>
    </g>
   </g>
   <g id="Path3DCollection_8">
    <defs>
     <path d="M 0 2.236068 
C 0.593012 2.236068 1.161816 2.000462 1.581139 1.581139 
C 2.000462 1.161816 2.236068 0.593012 2.236068 0 
C 2.236068 -0.593012 2.000462 -1.161816 1.581139 -1.581139 
C 1.161816 -2.000462 0.593012 -2.236068 0 -2.236068 
C -0.593012 -2.236068 -1.161816 -2.000462 -1.581139 -1.581139 
C -2.000462 -1.161816 -2.236068 -0.593012 -2.236068 0 
C -2.236068 0.593012 -2.000462 1.161816 -1.581139 1.581139 
C -1.161816 2.000462 -0.593012 2.236068 0 2.236068 
z
" id="m42265b75b4" style="stroke:#8172b3;"/>
    </defs>
    <g clip-path="url(#p1bdffe2c50)">
     <use style="fill:#8172b3;stroke:#8172b3;" x="557.69324" xlink:href="#m42265b75b4" y="422.873323"/>
    </g>
   </g>
   <g id="Path3DCollection_9">
    <defs>
     <path d="M 0 2.236068 
C 0.593012 2.236068 1.161816 2.000462 1.581139 1.581139 
C 2.000462 1.161816 2.236068 0.593012 2.236068 0 
C 2.236068 -0.593012 2.000462 -1.161816 1.581139 -1.581139 
C 1.161816 -2.000462 0.593012 -2.236068 0 -2.236068 
C -0.593012 -2.236068 -1.161816 -2.000462 -1.581139 -1.581139 
C -2.000462 -1.161816 -2.236068 -0.593012 -2.236068 0 
C -2.236068 0.593012 -2.000462 1.161816 -1.581139 1.581139 
C -1.161816 2.000462 -0.593012 2.236068 0 2.236068 
z
" id="m418ef6d3d8" style="stroke:#4c72b0;"/>
    </defs>
    <g clip-path="url(#p1bdffe2c50)">
     <use style="fill:#4c72b0;stroke:#4c72b0;" x="273.08129" xlink:href="#m418ef6d3d8" y="391.643356"/>
    </g>
   </g>
   <g id="Path3DCollection_10">
    <g clip-path="url(#p1bdffe2c50)">
     <use style="fill:#55a868;stroke:#55a868;" x="264.765755" xlink:href="#m45c5d5ea70" y="394.105291"/>
    </g>
   </g>
   <g id="Path3DCollection_11">
    <g clip-path="url(#p1bdffe2c50)">
     <use style="fill:#55a868;stroke:#55a868;" x="265.837718" xlink:href="#m45c5d5ea70" y="393.709521"/>
    </g>
   </g>
   <g id="Path3DCollection_12">
    <g clip-path="url(#p1bdffe2c50)">
     <use style="fill:#4c72b0;stroke:#4c72b0;" x="276.458587" xlink:href="#m418ef6d3d8" y="379.690148"/>
    </g>
   </g>
   <g id="Path3DCollection_13">
    <g clip-path="url(#p1bdffe2c50)">
     <use style="fill:#4c72b0;stroke:#4c72b0;" x="274.577925" xlink:href="#m418ef6d3d8" y="382.033345"/>
    </g>
   </g>
   <g id="Path3DCollection_14">
    <g clip-path="url(#p1bdffe2c50)">
     <use style="fill:#4c72b0;stroke:#4c72b0;" x="270.483799" xlink:href="#m418ef6d3d8" y="389.73872"/>
    </g>
   </g>
   <g id="Path3DCollection_15">
    <g clip-path="url(#p1bdffe2c50)">
     <use style="fill:#4c72b0;stroke:#4c72b0;" x="266.126195" xlink:href="#m418ef6d3d8" y="383.71218"/>
    </g>
   </g>
   <g id="Path3DCollection_16">
    <g clip-path="url(#p1bdffe2c50)">
     <use style="fill:#4c72b0;stroke:#4c72b0;" x="266.223332" xlink:href="#m418ef6d3d8" y="381.572798"/>
    </g>
   </g>
   <g id="Path3DCollection_17">
    <g clip-path="url(#p1bdffe2c50)">
     <use style="fill:#4c72b0;stroke:#4c72b0;" x="273.071548" xlink:href="#m418ef6d3d8" y="384.501297"/>
    </g>
   </g>
   <g id="Path3DCollection_18">
    <g clip-path="url(#p1bdffe2c50)">
     <use style="fill:#4c72b0;stroke:#4c72b0;" x="271.552928" xlink:href="#m418ef6d3d8" y="381.679143"/>
    </g>
   </g>
   <g id="Path3DCollection_19">
    <g clip-path="url(#p1bdffe2c50)">
     <use style="fill:#4c72b0;stroke:#4c72b0;" x="267.809858" xlink:href="#m418ef6d3d8" y="377.627725"/>
    </g>
   </g>
   <g id="Path3DCollection_20">
    <g clip-path="url(#p1bdffe2c50)">
     <use style="fill:#55a868;stroke:#55a868;" x="259.300117" xlink:href="#m45c5d5ea70" y="381.89794"/>
    </g>
   </g>
   <g id="Path3DCollection_21">
    <g clip-path="url(#p1bdffe2c50)">
     <use style="fill:#8172b3;stroke:#8172b3;" x="506.884549" xlink:href="#m42265b75b4" y="450.13128"/>
    </g>
   </g>
   <g id="Path3DCollection_22">
    <g clip-path="url(#p1bdffe2c50)">
     <use style="fill:#4c72b0;stroke:#4c72b0;" x="262.697612" xlink:href="#m418ef6d3d8" y="378.845011"/>
    </g>
   </g>
   <g id="Path3DCollection_23">
    <g clip-path="url(#p1bdffe2c50)">
     <use style="fill:#8172b3;stroke:#8172b3;" x="499.178324" xlink:href="#m42265b75b4" y="425.604417"/>
    </g>
   </g>
   <g id="Path3DCollection_24">
    <g clip-path="url(#p1bdffe2c50)">
     <use style="fill:#8172b3;stroke:#8172b3;" x="493.879694" xlink:href="#m42265b75b4" y="423.85999"/>
    </g>
   </g>
   <g id="Path3DCollection_25">
    <g clip-path="url(#p1bdffe2c50)">
     <use style="fill:#8172b3;stroke:#8172b3;" x="443.237973" xlink:href="#m42265b75b4" y="451.281742"/>
    </g>
   </g>
   <g id="Path3DCollection_26">
    <g clip-path="url(#p1bdffe2c50)">
     <use style="fill:#8172b3;stroke:#8172b3;" x="414.144867" xlink:href="#m42265b75b4" y="433.747753"/>
    </g>
   </g>
   <g id="Path3DCollection_27">
    <defs>
     <path d="M 0 2.236068 
C 0.593012 2.236068 1.161816 2.000462 1.581139 1.581139 
C 2.000462 1.161816 2.236068 0.593012 2.236068 0 
C 2.236068 -0.593012 2.000462 -1.161816 1.581139 -1.581139 
C 1.161816 -2.000462 0.593012 -2.236068 0 -2.236068 
C -0.593012 -2.236068 -1.161816 -2.000462 -1.581139 -1.581139 
C -2.000462 -1.161816 -2.236068 -0.593012 -2.236068 0 
C -2.236068 0.593012 -2.000462 1.161816 -1.581139 1.581139 
C -1.161816 2.000462 -0.593012 2.236068 0 2.236068 
z
" id="mfb002cbff2" style="stroke:#64b5cd;"/>
    </defs>
    <g clip-path="url(#p1bdffe2c50)">
     <use style="fill:#64b5cd;stroke:#64b5cd;" x="298.191606" xlink:href="#mfb002cbff2" y="514.331274"/>
    </g>
   </g>
   <g id="Path3DCollection_28">
    <g clip-path="url(#p1bdffe2c50)">
     <use style="fill:#64b5cd;stroke:#64b5cd;" x="296.901708" xlink:href="#mfb002cbff2" y="502.733712"/>
    </g>
   </g>
   <g id="Path3DCollection_29">
    <g clip-path="url(#p1bdffe2c50)">
     <use style="fill:#64b5cd;stroke:#64b5cd;" x="300.802329" xlink:href="#mfb002cbff2" y="497.385125"/>
    </g>
   </g>
   <g id="Path3DCollection_30">
    <g clip-path="url(#p1bdffe2c50)">
     <use style="fill:#64b5cd;stroke:#64b5cd;" x="291.847574" xlink:href="#mfb002cbff2" y="501.244087"/>
    </g>
   </g>
   <g id="Path3DCollection_31">
    <g clip-path="url(#p1bdffe2c50)">
     <use style="fill:#8172b3;stroke:#8172b3;" x="348.768579" xlink:href="#m42265b75b4" y="436.80354"/>
    </g>
   </g>
   <g id="Path3DCollection_32">
    <g clip-path="url(#p1bdffe2c50)">
     <use style="fill:#64b5cd;stroke:#64b5cd;" x="302.777399" xlink:href="#mfb002cbff2" y="492.423852"/>
    </g>
   </g>
   <g id="Path3DCollection_33">
    <g clip-path="url(#p1bdffe2c50)">
     <use style="fill:#64b5cd;stroke:#64b5cd;" x="306.078234" xlink:href="#mfb002cbff2" y="487.321855"/>
    </g>
   </g>
   <g id="Path3DCollection_34">
    <g clip-path="url(#p1bdffe2c50)">
     <use style="fill:#8172b3;stroke:#8172b3;" x="383.633467" xlink:href="#m42265b75b4" y="387.942201"/>
    </g>
   </g>
   <g id="Path3DCollection_35">
    <g clip-path="url(#p1bdffe2c50)">
     <use style="fill:#64b5cd;stroke:#64b5cd;" x="290.70943" xlink:href="#mfb002cbff2" y="489.417326"/>
    </g>
   </g>
   <g id="Path3DCollection_36">
    <defs>
     <path d="M 0 2.236068 
C 0.593012 2.236068 1.161816 2.000462 1.581139 1.581139 
C 2.000462 1.161816 2.236068 0.593012 2.236068 0 
C 2.236068 -0.593012 2.000462 -1.161816 1.581139 -1.581139 
C 1.161816 -2.000462 0.593012 -2.236068 0 -2.236068 
C -0.593012 -2.236068 -1.161816 -2.000462 -1.581139 -1.581139 
C -2.000462 -1.161816 -2.236068 -0.593012 -2.236068 0 
C -2.236068 0.593012 -2.000462 1.161816 -1.581139 1.581139 
C -1.161816 2.000462 -0.593012 2.236068 0 2.236068 
z
" id="mcb33bd2811" style="stroke:#c44e52;"/>
    </defs>
    <g clip-path="url(#p1bdffe2c50)">
     <use style="fill:#c44e52;stroke:#c44e52;" x="282.12154" xlink:href="#mcb33bd2811" y="466.270528"/>
    </g>
   </g>
   <g id="Path3DCollection_37">
    <g clip-path="url(#p1bdffe2c50)">
     <use style="fill:#c44e52;stroke:#c44e52;" x="291.838161" xlink:href="#mcb33bd2811" y="460.442552"/>
    </g>
   </g>
   <g id="Path3DCollection_38">
    <g clip-path="url(#p1bdffe2c50)">
     <use style="fill:#64b5cd;stroke:#64b5cd;" x="285.147108" xlink:href="#mfb002cbff2" y="488.724767"/>
    </g>
   </g>
   <g id="Path3DCollection_39">
    <g clip-path="url(#p1bdffe2c50)">
     <use style="fill:#c44e52;stroke:#c44e52;" x="279.538729" xlink:href="#mcb33bd2811" y="463.547284"/>
    </g>
   </g>
   <g id="Path3DCollection_40">
    <g clip-path="url(#p1bdffe2c50)">
     <use style="fill:#64b5cd;stroke:#64b5cd;" x="281.328279" xlink:href="#mfb002cbff2" y="480.503561"/>
    </g>
   </g>
   <g id="Path3DCollection_41">
    <g clip-path="url(#p1bdffe2c50)">
     <use style="fill:#c44e52;stroke:#c44e52;" x="287.759001" xlink:href="#mcb33bd2811" y="455.275905"/>
    </g>
   </g>
   <g id="Path3DCollection_42">
    <g clip-path="url(#p1bdffe2c50)">
     <use style="fill:#c44e52;stroke:#c44e52;" x="277.910087" xlink:href="#mcb33bd2811" y="459.298767"/>
    </g>
   </g>
   <g id="Path3DCollection_43">
    <g clip-path="url(#p1bdffe2c50)">
     <use style="fill:#c44e52;stroke:#c44e52;" x="272.646914" xlink:href="#mcb33bd2811" y="464.011333"/>
    </g>
   </g>
   <g id="Path3DCollection_44">
    <g clip-path="url(#p1bdffe2c50)">
     <use style="fill:#c44e52;stroke:#c44e52;" x="289.512579" xlink:href="#mcb33bd2811" y="450.701388"/>
    </g>
   </g>
   <g id="Path3DCollection_45">
    <g clip-path="url(#p1bdffe2c50)">
     <use style="fill:#c44e52;stroke:#c44e52;" x="276.346957" xlink:href="#mcb33bd2811" y="459.0962"/>
    </g>
   </g>
   <g id="Path3DCollection_46">
    <g clip-path="url(#p1bdffe2c50)">
     <use style="fill:#c44e52;stroke:#c44e52;" x="273.129248" xlink:href="#mcb33bd2811" y="463.134969"/>
    </g>
   </g>
   <g id="Path3DCollection_47">
    <g clip-path="url(#p1bdffe2c50)">
     <use style="fill:#c44e52;stroke:#c44e52;" x="276.606544" xlink:href="#mcb33bd2811" y="455.648631"/>
    </g>
   </g>
   <g id="Path3DCollection_48">
    <g clip-path="url(#p1bdffe2c50)">
     <use style="fill:#8172b3;stroke:#8172b3;" x="407.608735" xlink:href="#m42265b75b4" y="246.461231"/>
    </g>
   </g>
  </g>
 </g>
 <defs>
  <clipPath id="p1bdffe2c50">
   <rect height="543.6" width="558" x="90" y="86.4"/>
  </clipPath>
 </defs>
</svg>
