<?xml version="1.0" encoding="utf-8" standalone="no"?>
<!DOCTYPE svg PUBLIC "-//W3C//DTD SVG 1.1//EN"
  "http://www.w3.org/Graphics/SVG/1.1/DTD/svg11.dtd">
<!-- Created with matplotlib (https://matplotlib.org/) -->
<svg height="720pt" version="1.1" viewBox="0 0 720 720" width="720pt" xmlns="http://www.w3.org/2000/svg" xmlns:xlink="http://www.w3.org/1999/xlink">
 <defs>
  <style type="text/css">
*{stroke-linecap:butt;stroke-linejoin:round;}
  </style>
 </defs>
 <g id="figure_1">
  <g id="patch_1">
   <path d="M 0 720 
L 720 720 
L 720 0 
L 0 0 
z
" style="fill:#ffffff;"/>
  </g>
  <g id="axes_1">
   <g id="patch_2">
    <path d="M 90 630 
L 648 630 
L 648 86.4 
L 90 86.4 
z
" style="fill:#eaeaf2;"/>
   </g>
   <g id="matplotlib.axis_1">
    <g id="xtick_1">
     <g id="line2d_1">
      <path clip-path="url(#p3d52105879)" d="M 116.095482 630 
L 116.095482 86.4 
" style="fill:none;stroke:#ffffff;stroke-linecap:round;"/>
     </g>
     <g id="text_1">
      <!-- −0.5 -->
      <defs>
       <path d="M 10.59375 35.5 
L 73.1875 35.5 
L 73.1875 27.203125 
L 10.59375 27.203125 
z
" id="DejaVuSans-8722"/>
       <path d="M 31.78125 66.40625 
Q 24.171875 66.40625 20.328125 58.90625 
Q 16.5 51.421875 16.5 36.375 
Q 16.5 21.390625 20.328125 13.890625 
Q 24.171875 6.390625 31.78125 6.390625 
Q 39.453125 6.390625 43.28125 13.890625 
Q 47.125 21.390625 47.125 36.375 
Q 47.125 51.421875 43.28125 58.90625 
Q 39.453125 66.40625 31.78125 66.40625 
z
M 31.78125 74.21875 
Q 44.046875 74.21875 50.515625 64.515625 
Q 56.984375 54.828125 56.984375 36.375 
Q 56.984375 17.96875 50.515625 8.265625 
Q 44.046875 -1.421875 31.78125 -1.421875 
Q 19.53125 -1.421875 13.0625 8.265625 
Q 6.59375 17.96875 6.59375 36.375 
Q 6.59375 54.828125 13.0625 64.515625 
Q 19.53125 74.21875 31.78125 74.21875 
z
" id="DejaVuSans-48"/>
       <path d="M 10.6875 12.40625 
L 21 12.40625 
L 21 0 
L 10.6875 0 
z
" id="DejaVuSans-46"/>
       <path d="M 10.796875 72.90625 
L 49.515625 72.90625 
L 49.515625 64.59375 
L 19.828125 64.59375 
L 19.828125 46.734375 
Q 21.96875 47.46875 24.109375 47.828125 
Q 26.265625 48.1875 28.421875 48.1875 
Q 40.625 48.1875 47.75 41.5 
Q 54.890625 34.8125 54.890625 23.390625 
Q 54.890625 11.625 47.5625 5.09375 
Q 40.234375 -1.421875 26.90625 -1.421875 
Q 22.3125 -1.421875 17.546875 -0.640625 
Q 12.796875 0.140625 7.71875 1.703125 
L 7.71875 11.625 
Q 12.109375 9.234375 16.796875 8.0625 
Q 21.484375 6.890625 26.703125 6.890625 
Q 35.15625 6.890625 40.078125 11.328125 
Q 45.015625 15.765625 45.015625 23.390625 
Q 45.015625 31 40.078125 35.4375 
Q 35.15625 39.890625 26.703125 39.890625 
Q 22.75 39.890625 18.8125 39.015625 
Q 14.890625 38.140625 10.796875 36.28125 
z
" id="DejaVuSans-53"/>
      </defs>
      <g style="fill:#262626;" transform="translate(102.739935 647.858281)scale(0.11 -0.11)">
       <use xlink:href="#DejaVuSans-8722"/>
       <use x="83.789062" xlink:href="#DejaVuSans-48"/>
       <use x="147.412109" xlink:href="#DejaVuSans-46"/>
       <use x="179.199219" xlink:href="#DejaVuSans-53"/>
      </g>
     </g>
    </g>
    <g id="xtick_2">
     <g id="line2d_2">
      <path clip-path="url(#p3d52105879)" d="M 231.751923 630 
L 231.751923 86.4 
" style="fill:none;stroke:#ffffff;stroke-linecap:round;"/>
     </g>
     <g id="text_2">
      <!-- 0.0 -->
      <g style="fill:#262626;" transform="translate(223.005204 647.858281)scale(0.11 -0.11)">
       <use xlink:href="#DejaVuSans-48"/>
       <use x="63.623047" xlink:href="#DejaVuSans-46"/>
       <use x="95.410156" xlink:href="#DejaVuSans-48"/>
      </g>
     </g>
    </g>
    <g id="xtick_3">
     <g id="line2d_3">
      <path clip-path="url(#p3d52105879)" d="M 347.408364 630 
L 347.408364 86.4 
" style="fill:none;stroke:#ffffff;stroke-linecap:round;"/>
     </g>
     <g id="text_3">
      <!-- 0.5 -->
      <g style="fill:#262626;" transform="translate(338.661645 647.858281)scale(0.11 -0.11)">
       <use xlink:href="#DejaVuSans-48"/>
       <use x="63.623047" xlink:href="#DejaVuSans-46"/>
       <use x="95.410156" xlink:href="#DejaVuSans-53"/>
      </g>
     </g>
    </g>
    <g id="xtick_4">
     <g id="line2d_4">
      <path clip-path="url(#p3d52105879)" d="M 463.064805 630 
L 463.064805 86.4 
" style="fill:none;stroke:#ffffff;stroke-linecap:round;"/>
     </g>
     <g id="text_4">
      <!-- 1.0 -->
      <defs>
       <path d="M 12.40625 8.296875 
L 28.515625 8.296875 
L 28.515625 63.921875 
L 10.984375 60.40625 
L 10.984375 69.390625 
L 28.421875 72.90625 
L 38.28125 72.90625 
L 38.28125 8.296875 
L 54.390625 8.296875 
L 54.390625 0 
L 12.40625 0 
z
" id="DejaVuSans-49"/>
      </defs>
      <g style="fill:#262626;" transform="translate(454.318086 647.858281)scale(0.11 -0.11)">
       <use xlink:href="#DejaVuSans-49"/>
       <use x="63.623047" xlink:href="#DejaVuSans-46"/>
       <use x="95.410156" xlink:href="#DejaVuSans-48"/>
      </g>
     </g>
    </g>
    <g id="xtick_5">
     <g id="line2d_5">
      <path clip-path="url(#p3d52105879)" d="M 578.721246 630 
L 578.721246 86.4 
" style="fill:none;stroke:#ffffff;stroke-linecap:round;"/>
     </g>
     <g id="text_5">
      <!-- 1.5 -->
      <g style="fill:#262626;" transform="translate(569.974527 647.858281)scale(0.11 -0.11)">
       <use xlink:href="#DejaVuSans-49"/>
       <use x="63.623047" xlink:href="#DejaVuSans-46"/>
       <use x="95.410156" xlink:href="#DejaVuSans-53"/>
      </g>
     </g>
    </g>
   </g>
   <g id="matplotlib.axis_2">
    <g id="ytick_1">
     <g id="line2d_6">
      <path clip-path="url(#p3d52105879)" d="M 90 591.526366 
L 648 591.526366 
" style="fill:none;stroke:#ffffff;stroke-linecap:round;"/>
     </g>
     <g id="text_6">
      <!-- −0.6 -->
      <defs>
       <path d="M 33.015625 40.375 
Q 26.375 40.375 22.484375 35.828125 
Q 18.609375 31.296875 18.609375 23.390625 
Q 18.609375 15.53125 22.484375 10.953125 
Q 26.375 6.390625 33.015625 6.390625 
Q 39.65625 6.390625 43.53125 10.953125 
Q 47.40625 15.53125 47.40625 23.390625 
Q 47.40625 31.296875 43.53125 35.828125 
Q 39.65625 40.375 33.015625 40.375 
z
M 52.59375 71.296875 
L 52.59375 62.3125 
Q 48.875 64.0625 45.09375 64.984375 
Q 41.3125 65.921875 37.59375 65.921875 
Q 27.828125 65.921875 22.671875 59.328125 
Q 17.53125 52.734375 16.796875 39.40625 
Q 19.671875 43.65625 24.015625 45.921875 
Q 28.375 48.1875 33.59375 48.1875 
Q 44.578125 48.1875 50.953125 41.515625 
Q 57.328125 34.859375 57.328125 23.390625 
Q 57.328125 12.15625 50.6875 5.359375 
Q 44.046875 -1.421875 33.015625 -1.421875 
Q 20.359375 -1.421875 13.671875 8.265625 
Q 6.984375 17.96875 6.984375 36.375 
Q 6.984375 53.65625 15.1875 63.9375 
Q 23.390625 74.21875 37.203125 74.21875 
Q 40.921875 74.21875 44.703125 73.484375 
Q 48.484375 72.75 52.59375 71.296875 
z
" id="DejaVuSans-54"/>
      </defs>
      <g style="fill:#262626;" transform="translate(53.788906 595.705507)scale(0.11 -0.11)">
       <use xlink:href="#DejaVuSans-8722"/>
       <use x="83.789062" xlink:href="#DejaVuSans-48"/>
       <use x="147.412109" xlink:href="#DejaVuSans-46"/>
       <use x="179.199219" xlink:href="#DejaVuSans-54"/>
      </g>
     </g>
    </g>
    <g id="ytick_2">
     <g id="line2d_7">
      <path clip-path="url(#p3d52105879)" d="M 90 518.230967 
L 648 518.230967 
" style="fill:none;stroke:#ffffff;stroke-linecap:round;"/>
     </g>
     <g id="text_7">
      <!-- −0.4 -->
      <defs>
       <path d="M 37.796875 64.3125 
L 12.890625 25.390625 
L 37.796875 25.390625 
z
M 35.203125 72.90625 
L 47.609375 72.90625 
L 47.609375 25.390625 
L 58.015625 25.390625 
L 58.015625 17.1875 
L 47.609375 17.1875 
L 47.609375 0 
L 37.796875 0 
L 37.796875 17.1875 
L 4.890625 17.1875 
L 4.890625 26.703125 
z
" id="DejaVuSans-52"/>
      </defs>
      <g style="fill:#262626;" transform="translate(53.788906 522.410108)scale(0.11 -0.11)">
       <use xlink:href="#DejaVuSans-8722"/>
       <use x="83.789062" xlink:href="#DejaVuSans-48"/>
       <use x="147.412109" xlink:href="#DejaVuSans-46"/>
       <use x="179.199219" xlink:href="#DejaVuSans-52"/>
      </g>
     </g>
    </g>
    <g id="ytick_3">
     <g id="line2d_8">
      <path clip-path="url(#p3d52105879)" d="M 90 444.935568 
L 648 444.935568 
" style="fill:none;stroke:#ffffff;stroke-linecap:round;"/>
     </g>
     <g id="text_8">
      <!-- −0.2 -->
      <defs>
       <path d="M 19.1875 8.296875 
L 53.609375 8.296875 
L 53.609375 0 
L 7.328125 0 
L 7.328125 8.296875 
Q 12.9375 14.109375 22.625 23.890625 
Q 32.328125 33.6875 34.8125 36.53125 
Q 39.546875 41.84375 41.421875 45.53125 
Q 43.3125 49.21875 43.3125 52.78125 
Q 43.3125 58.59375 39.234375 62.25 
Q 35.15625 65.921875 28.609375 65.921875 
Q 23.96875 65.921875 18.8125 64.3125 
Q 13.671875 62.703125 7.8125 59.421875 
L 7.8125 69.390625 
Q 13.765625 71.78125 18.9375 73 
Q 24.125 74.21875 28.421875 74.21875 
Q 39.75 74.21875 46.484375 68.546875 
Q 53.21875 62.890625 53.21875 53.421875 
Q 53.21875 48.921875 51.53125 44.890625 
Q 49.859375 40.875 45.40625 35.40625 
Q 44.1875 33.984375 37.640625 27.21875 
Q 31.109375 20.453125 19.1875 8.296875 
z
" id="DejaVuSans-50"/>
      </defs>
      <g style="fill:#262626;" transform="translate(53.788906 449.114709)scale(0.11 -0.11)">
       <use xlink:href="#DejaVuSans-8722"/>
       <use x="83.789062" xlink:href="#DejaVuSans-48"/>
       <use x="147.412109" xlink:href="#DejaVuSans-46"/>
       <use x="179.199219" xlink:href="#DejaVuSans-50"/>
      </g>
     </g>
    </g>
    <g id="ytick_4">
     <g id="line2d_9">
      <path clip-path="url(#p3d52105879)" d="M 90 371.640169 
L 648 371.640169 
" style="fill:none;stroke:#ffffff;stroke-linecap:round;"/>
     </g>
     <g id="text_9">
      <!-- 0.0 -->
      <g style="fill:#262626;" transform="translate(63.006563 375.81931)scale(0.11 -0.11)">
       <use xlink:href="#DejaVuSans-48"/>
       <use x="63.623047" xlink:href="#DejaVuSans-46"/>
       <use x="95.410156" xlink:href="#DejaVuSans-48"/>
      </g>
     </g>
    </g>
    <g id="ytick_5">
     <g id="line2d_10">
      <path clip-path="url(#p3d52105879)" d="M 90 298.34477 
L 648 298.34477 
" style="fill:none;stroke:#ffffff;stroke-linecap:round;"/>
     </g>
     <g id="text_10">
      <!-- 0.2 -->
      <g style="fill:#262626;" transform="translate(63.006563 302.52391)scale(0.11 -0.11)">
       <use xlink:href="#DejaVuSans-48"/>
       <use x="63.623047" xlink:href="#DejaVuSans-46"/>
       <use x="95.410156" xlink:href="#DejaVuSans-50"/>
      </g>
     </g>
    </g>
    <g id="ytick_6">
     <g id="line2d_11">
      <path clip-path="url(#p3d52105879)" d="M 90 225.049371 
L 648 225.049371 
" style="fill:none;stroke:#ffffff;stroke-linecap:round;"/>
     </g>
     <g id="text_11">
      <!-- 0.4 -->
      <g style="fill:#262626;" transform="translate(63.006563 229.228511)scale(0.11 -0.11)">
       <use xlink:href="#DejaVuSans-48"/>
       <use x="63.623047" xlink:href="#DejaVuSans-46"/>
       <use x="95.410156" xlink:href="#DejaVuSans-52"/>
      </g>
     </g>
    </g>
    <g id="ytick_7">
     <g id="line2d_12">
      <path clip-path="url(#p3d52105879)" d="M 90 151.753971 
L 648 151.753971 
" style="fill:none;stroke:#ffffff;stroke-linecap:round;"/>
     </g>
     <g id="text_12">
      <!-- 0.6 -->
      <g style="fill:#262626;" transform="translate(63.006563 155.933112)scale(0.11 -0.11)">
       <use xlink:href="#DejaVuSans-48"/>
       <use x="63.623047" xlink:href="#DejaVuSans-46"/>
       <use x="95.410156" xlink:href="#DejaVuSans-54"/>
      </g>
     </g>
    </g>
   </g>
   <g id="PathCollection_1">
    <defs>
     <path d="M 0 3 
C 0.795609 3 1.55874 2.683901 2.12132 2.12132 
C 2.683901 1.55874 3 0.795609 3 0 
C 3 -0.795609 2.683901 -1.55874 2.12132 -2.12132 
C 1.55874 -2.683901 0.795609 -3 0 -3 
C -0.795609 -3 -1.55874 -2.683901 -2.12132 -2.12132 
C -2.683901 -1.55874 -3 -0.795609 -3 0 
C -3 0.795609 -2.683901 1.55874 -2.12132 2.12132 
C -1.55874 2.683901 -0.795609 3 0 3 
z
" id="m5947e987c2" style="stroke:#c44e52;"/>
    </defs>
    <g clip-path="url(#p3d52105879)">
     <use style="fill:#c44e52;stroke:#c44e52;" x="164.360998" xlink:href="#m5947e987c2" y="329.820422"/>
    </g>
   </g>
   <g id="PathCollection_2">
    <defs>
     <path d="M 0 3 
C 0.795609 3 1.55874 2.683901 2.12132 2.12132 
C 2.683901 1.55874 3 0.795609 3 0 
C 3 -0.795609 2.683901 -1.55874 2.12132 -2.12132 
C 1.55874 -2.683901 0.795609 -3 0 -3 
C -0.795609 -3 -1.55874 -2.683901 -2.12132 -2.12132 
C -2.683901 -1.55874 -3 -0.795609 -3 0 
C -3 0.795609 -2.683901 1.55874 -2.12132 2.12132 
C -1.55874 2.683901 -0.795609 3 0 3 
z
" id="mc575f59af8" style="stroke:#4c72b0;"/>
    </defs>
    <g clip-path="url(#p3d52105879)">
     <use style="fill:#4c72b0;stroke:#4c72b0;" x="160.888335" xlink:href="#mc575f59af8" y="423.820905"/>
    </g>
   </g>
   <g id="PathCollection_3">
    <g clip-path="url(#p3d52105879)">
     <use style="fill:#4c72b0;stroke:#4c72b0;" x="156.998217" xlink:href="#mc575f59af8" y="400.224096"/>
    </g>
   </g>
   <g id="PathCollection_4">
    <defs>
     <path d="M 0 3 
C 0.795609 3 1.55874 2.683901 2.12132 2.12132 
C 2.683901 1.55874 3 0.795609 3 0 
C 3 -0.795609 2.683901 -1.55874 2.12132 -2.12132 
C 1.55874 -2.683901 0.795609 -3 0 -3 
C -0.795609 -3 -1.55874 -2.683901 -2.12132 -2.12132 
C -2.683901 -1.55874 -3 -0.795609 -3 0 
C -3 0.795609 -2.683901 1.55874 -2.12132 2.12132 
C -1.55874 2.683901 -0.795609 3 0 3 
z
" id="m7e4df64777" style="stroke:#55a868;"/>
    </defs>
    <g clip-path="url(#p3d52105879)">
     <use style="fill:#55a868;stroke:#55a868;" x="190.305052" xlink:href="#m7e4df64777" y="286.389421"/>
    </g>
   </g>
   <g id="PathCollection_5">
    <g clip-path="url(#p3d52105879)">
     <use style="fill:#55a868;stroke:#55a868;" x="209.457891" xlink:href="#m7e4df64777" y="455.71856"/>
    </g>
   </g>
   <g id="PathCollection_6">
    <defs>
     <path d="M 0 3 
C 0.795609 3 1.55874 2.683901 2.12132 2.12132 
C 2.683901 1.55874 3 0.795609 3 0 
C 3 -0.795609 2.683901 -1.55874 2.12132 -2.12132 
C 1.55874 -2.683901 0.795609 -3 0 -3 
C -0.795609 -3 -1.55874 -2.683901 -2.12132 -2.12132 
C -2.683901 -1.55874 -3 -0.795609 -3 0 
C -3 0.795609 -2.683901 1.55874 -2.12132 2.12132 
C -1.55874 2.683901 -0.795609 3 0 3 
z
" id="m69841d97c7" style="stroke:#64b5cd;"/>
    </defs>
    <g clip-path="url(#p3d52105879)">
     <use style="fill:#64b5cd;stroke:#64b5cd;" x="185.566776" xlink:href="#m69841d97c7" y="448.120825"/>
    </g>
   </g>
   <g id="PathCollection_7">
    <g clip-path="url(#p3d52105879)">
     <use style="fill:#55a868;stroke:#55a868;" x="223.207476" xlink:href="#m7e4df64777" y="450.562594"/>
    </g>
   </g>
   <g id="PathCollection_8">
    <g clip-path="url(#p3d52105879)">
     <use style="fill:#64b5cd;stroke:#64b5cd;" x="158.938141" xlink:href="#m69841d97c7" y="365.541673"/>
    </g>
   </g>
   <g id="PathCollection_9">
    <g clip-path="url(#p3d52105879)">
     <use style="fill:#c44e52;stroke:#c44e52;" x="115.363636" xlink:href="#m5947e987c2" y="329.894144"/>
    </g>
   </g>
   <g id="PathCollection_10">
    <g clip-path="url(#p3d52105879)">
     <use style="fill:#64b5cd;stroke:#64b5cd;" x="134.871692" xlink:href="#m69841d97c7" y="489.70789"/>
    </g>
   </g>
   <g id="PathCollection_11">
    <g clip-path="url(#p3d52105879)">
     <use style="fill:#64b5cd;stroke:#64b5cd;" x="148.163904" xlink:href="#m69841d97c7" y="467.450671"/>
    </g>
   </g>
   <g id="PathCollection_12">
    <g clip-path="url(#p3d52105879)">
     <use style="fill:#64b5cd;stroke:#64b5cd;" x="188.909234" xlink:href="#m69841d97c7" y="498.68429"/>
    </g>
   </g>
   <g id="PathCollection_13">
    <g clip-path="url(#p3d52105879)">
     <use style="fill:#4c72b0;stroke:#4c72b0;" x="149.786496" xlink:href="#mc575f59af8" y="310.720289"/>
    </g>
   </g>
   <g id="PathCollection_14">
    <g clip-path="url(#p3d52105879)">
     <use style="fill:#c44e52;stroke:#c44e52;" x="172.630194" xlink:href="#m5947e987c2" y="224.093477"/>
    </g>
   </g>
   <g id="PathCollection_15">
    <defs>
     <path d="M 0 3 
C 0.795609 3 1.55874 2.683901 2.12132 2.12132 
C 2.683901 1.55874 3 0.795609 3 0 
C 3 -0.795609 2.683901 -1.55874 2.12132 -2.12132 
C 1.55874 -2.683901 0.795609 -3 0 -3 
C -0.795609 -3 -1.55874 -2.683901 -2.12132 -2.12132 
C -2.683901 -1.55874 -3 -0.795609 -3 0 
C -3 0.795609 -2.683901 1.55874 -2.12132 2.12132 
C -1.55874 2.683901 -0.795609 3 0 3 
z
" id="mc7b6425a15" style="stroke:#8172b3;"/>
    </defs>
    <g clip-path="url(#p3d52105879)">
     <use style="fill:#8172b3;stroke:#8172b3;" x="458.119653" xlink:href="#mc7b6425a15" y="111.109091"/>
    </g>
   </g>
   <g id="PathCollection_16">
    <g clip-path="url(#p3d52105879)">
     <use style="fill:#64b5cd;stroke:#64b5cd;" x="184.819468" xlink:href="#m69841d97c7" y="380.468153"/>
    </g>
   </g>
   <g id="PathCollection_17">
    <g clip-path="url(#p3d52105879)">
     <use style="fill:#8172b3;stroke:#8172b3;" x="360.785801" xlink:href="#mc7b6425a15" y="270.82005"/>
    </g>
   </g>
   <g id="PathCollection_18">
    <g clip-path="url(#p3d52105879)">
     <use style="fill:#64b5cd;stroke:#64b5cd;" x="210.364923" xlink:href="#m69841d97c7" y="462.58981"/>
    </g>
   </g>
   <g id="PathCollection_19">
    <g clip-path="url(#p3d52105879)">
     <use style="fill:#55a868;stroke:#55a868;" x="192.831302" xlink:href="#m7e4df64777" y="446.111621"/>
    </g>
   </g>
   <g id="PathCollection_20">
    <g clip-path="url(#p3d52105879)">
     <use style="fill:#c44e52;stroke:#c44e52;" x="207.340237" xlink:href="#m5947e987c2" y="412.080245"/>
    </g>
   </g>
   <g id="PathCollection_21">
    <g clip-path="url(#p3d52105879)">
     <use style="fill:#c44e52;stroke:#c44e52;" x="129.415073" xlink:href="#m5947e987c2" y="317.542382"/>
    </g>
   </g>
   <g id="PathCollection_22">
    <g clip-path="url(#p3d52105879)">
     <use style="fill:#4c72b0;stroke:#4c72b0;" x="189.328494" xlink:href="#mc575f59af8" y="343.948275"/>
    </g>
   </g>
   <g id="PathCollection_23">
    <g clip-path="url(#p3d52105879)">
     <use style="fill:#64b5cd;stroke:#64b5cd;" x="171.153579" xlink:href="#m69841d97c7" y="413.935985"/>
    </g>
   </g>
   <g id="PathCollection_24">
    <g clip-path="url(#p3d52105879)">
     <use style="fill:#55a868;stroke:#55a868;" x="187.927255" xlink:href="#m7e4df64777" y="279.737361"/>
    </g>
   </g>
   <g id="PathCollection_25">
    <g clip-path="url(#p3d52105879)">
     <use style="fill:#55a868;stroke:#55a868;" x="201.802744" xlink:href="#m7e4df64777" y="376.740116"/>
    </g>
   </g>
   <g id="PathCollection_26">
    <g clip-path="url(#p3d52105879)">
     <use style="fill:#4c72b0;stroke:#4c72b0;" x="136.919308" xlink:href="#mc575f59af8" y="435.364574"/>
    </g>
   </g>
   <g id="PathCollection_27">
    <g clip-path="url(#p3d52105879)">
     <use style="fill:#55a868;stroke:#55a868;" x="182.197591" xlink:href="#m7e4df64777" y="417.798942"/>
    </g>
   </g>
   <g id="PathCollection_28">
    <g clip-path="url(#p3d52105879)">
     <use style="fill:#4c72b0;stroke:#4c72b0;" x="188.996755" xlink:href="#mc575f59af8" y="244.365111"/>
    </g>
   </g>
   <g id="PathCollection_29">
    <g clip-path="url(#p3d52105879)">
     <use style="fill:#8172b3;stroke:#8172b3;" x="622.636364" xlink:href="#mc7b6425a15" y="605.290909"/>
    </g>
   </g>
   <g id="PathCollection_30">
    <g clip-path="url(#p3d52105879)">
     <use style="fill:#64b5cd;stroke:#64b5cd;" x="179.942442" xlink:href="#m69841d97c7" y="466.025744"/>
    </g>
   </g>
   <g id="PathCollection_31">
    <g clip-path="url(#p3d52105879)">
     <use style="fill:#8172b3;stroke:#8172b3;" x="365.887699" xlink:href="#mc7b6425a15" y="354.452584"/>
    </g>
   </g>
   <g id="PathCollection_32">
    <g clip-path="url(#p3d52105879)">
     <use style="fill:#55a868;stroke:#55a868;" x="191.242727" xlink:href="#m7e4df64777" y="472.853463"/>
    </g>
   </g>
   <g id="PathCollection_33">
    <g clip-path="url(#p3d52105879)">
     <use style="fill:#8172b3;stroke:#8172b3;" x="392.157813" xlink:href="#mc7b6425a15" y="368.107473"/>
    </g>
   </g>
   <g id="PathCollection_34">
    <g clip-path="url(#p3d52105879)">
     <use style="fill:#8172b3;stroke:#8172b3;" x="458.83863" xlink:href="#mc7b6425a15" y="373.370656"/>
    </g>
   </g>
   <g id="PathCollection_35">
    <g clip-path="url(#p3d52105879)">
     <use style="fill:#8172b3;stroke:#8172b3;" x="425.85384" xlink:href="#mc7b6425a15" y="319.029633"/>
    </g>
   </g>
   <g id="PathCollection_36">
    <g clip-path="url(#p3d52105879)">
     <use style="fill:#8172b3;stroke:#8172b3;" x="487.685157" xlink:href="#mc7b6425a15" y="321.579967"/>
    </g>
   </g>
   <g id="PathCollection_37">
    <g clip-path="url(#p3d52105879)">
     <use style="fill:#4c72b0;stroke:#4c72b0;" x="172.738632" xlink:href="#mc575f59af8" y="293.561078"/>
    </g>
   </g>
   <g id="PathCollection_38">
    <g clip-path="url(#p3d52105879)">
     <use style="fill:#c44e52;stroke:#c44e52;" x="172.329503" xlink:href="#m5947e987c2" y="377.691602"/>
    </g>
   </g>
   <g id="PathCollection_39">
    <g clip-path="url(#p3d52105879)">
     <use style="fill:#c44e52;stroke:#c44e52;" x="166.040083" xlink:href="#m5947e987c2" y="386.172198"/>
    </g>
   </g>
   <g id="PathCollection_40">
    <g clip-path="url(#p3d52105879)">
     <use style="fill:#64b5cd;stroke:#64b5cd;" x="191.344138" xlink:href="#m69841d97c7" y="404.572364"/>
    </g>
   </g>
   <g id="PathCollection_41">
    <g clip-path="url(#p3d52105879)">
     <use style="fill:#8172b3;stroke:#8172b3;" x="376.063839" xlink:href="#mc7b6425a15" y="210.206562"/>
    </g>
   </g>
   <g id="PathCollection_42">
    <g clip-path="url(#p3d52105879)">
     <use style="fill:#4c72b0;stroke:#4c72b0;" x="168.031367" xlink:href="#mc575f59af8" y="394.155292"/>
    </g>
   </g>
   <g id="PathCollection_43">
    <g clip-path="url(#p3d52105879)">
     <use style="fill:#c44e52;stroke:#c44e52;" x="156.777091" xlink:href="#m5947e987c2" y="269.650313"/>
    </g>
   </g>
   <g id="PathCollection_44">
    <g clip-path="url(#p3d52105879)">
     <use style="fill:#4c72b0;stroke:#4c72b0;" x="144.380098" xlink:href="#mc575f59af8" y="268.876202"/>
    </g>
   </g>
   <g id="PathCollection_45">
    <g clip-path="url(#p3d52105879)">
     <use style="fill:#8172b3;stroke:#8172b3;" x="506.755072" xlink:href="#mc7b6425a15" y="482.724093"/>
    </g>
   </g>
   <g id="PathCollection_46">
    <g clip-path="url(#p3d52105879)">
     <use style="fill:#c44e52;stroke:#c44e52;" x="144.255808" xlink:href="#m5947e987c2" y="334.160709"/>
    </g>
   </g>
   <g id="PathCollection_47">
    <g clip-path="url(#p3d52105879)">
     <use style="fill:#c44e52;stroke:#c44e52;" x="207.929857" xlink:href="#m5947e987c2" y="371.246126"/>
    </g>
   </g>
   <g id="patch_3">
    <path d="M 90 630 
L 90 86.4 
" style="fill:none;stroke:#ffffff;stroke-linecap:square;stroke-linejoin:miter;stroke-width:1.25;"/>
   </g>
   <g id="patch_4">
    <path d="M 648 630 
L 648 86.4 
" style="fill:none;stroke:#ffffff;stroke-linecap:square;stroke-linejoin:miter;stroke-width:1.25;"/>
   </g>
   <g id="patch_5">
    <path d="M 90 630 
L 648 630 
" style="fill:none;stroke:#ffffff;stroke-linecap:square;stroke-linejoin:miter;stroke-width:1.25;"/>
   </g>
   <g id="patch_6">
    <path d="M 90 86.4 
L 648 86.4 
" style="fill:none;stroke:#ffffff;stroke-linecap:square;stroke-linejoin:miter;stroke-width:1.25;"/>
   </g>
   <g id="legend_1">
    <g id="patch_7">
     <path d="M 590.695625 193.043437 
L 640.3 193.043437 
Q 642.5 193.043437 642.5 190.843437 
L 642.5 94.1 
Q 642.5 91.9 640.3 91.9 
L 590.695625 91.9 
Q 588.495625 91.9 588.495625 94.1 
L 588.495625 190.843437 
Q 588.495625 193.043437 590.695625 193.043437 
z
" style="fill:#eaeaf2;opacity:0.8;stroke:#cccccc;stroke-linejoin:miter;"/>
    </g>
    <g id="text_13">
     <!-- Classes -->
     <defs>
      <path d="M 64.40625 67.28125 
L 64.40625 56.890625 
Q 59.421875 61.53125 53.78125 63.8125 
Q 48.140625 66.109375 41.796875 66.109375 
Q 29.296875 66.109375 22.65625 58.46875 
Q 16.015625 50.828125 16.015625 36.375 
Q 16.015625 21.96875 22.65625 14.328125 
Q 29.296875 6.6875 41.796875 6.6875 
Q 48.140625 6.6875 53.78125 8.984375 
Q 59.421875 11.28125 64.40625 15.921875 
L 64.40625 5.609375 
Q 59.234375 2.09375 53.4375 0.328125 
Q 47.65625 -1.421875 41.21875 -1.421875 
Q 24.65625 -1.421875 15.125 8.703125 
Q 5.609375 18.84375 5.609375 36.375 
Q 5.609375 53.953125 15.125 64.078125 
Q 24.65625 74.21875 41.21875 74.21875 
Q 47.75 74.21875 53.53125 72.484375 
Q 59.328125 70.75 64.40625 67.28125 
z
" id="DejaVuSans-67"/>
      <path d="M 9.421875 75.984375 
L 18.40625 75.984375 
L 18.40625 0 
L 9.421875 0 
z
" id="DejaVuSans-108"/>
      <path d="M 34.28125 27.484375 
Q 23.390625 27.484375 19.1875 25 
Q 14.984375 22.515625 14.984375 16.5 
Q 14.984375 11.71875 18.140625 8.90625 
Q 21.296875 6.109375 26.703125 6.109375 
Q 34.1875 6.109375 38.703125 11.40625 
Q 43.21875 16.703125 43.21875 25.484375 
L 43.21875 27.484375 
z
M 52.203125 31.203125 
L 52.203125 0 
L 43.21875 0 
L 43.21875 8.296875 
Q 40.140625 3.328125 35.546875 0.953125 
Q 30.953125 -1.421875 24.3125 -1.421875 
Q 15.921875 -1.421875 10.953125 3.296875 
Q 6 8.015625 6 15.921875 
Q 6 25.140625 12.171875 29.828125 
Q 18.359375 34.515625 30.609375 34.515625 
L 43.21875 34.515625 
L 43.21875 35.40625 
Q 43.21875 41.609375 39.140625 45 
Q 35.0625 48.390625 27.6875 48.390625 
Q 23 48.390625 18.546875 47.265625 
Q 14.109375 46.140625 10.015625 43.890625 
L 10.015625 52.203125 
Q 14.9375 54.109375 19.578125 55.046875 
Q 24.21875 56 28.609375 56 
Q 40.484375 56 46.34375 49.84375 
Q 52.203125 43.703125 52.203125 31.203125 
z
" id="DejaVuSans-97"/>
      <path d="M 44.28125 53.078125 
L 44.28125 44.578125 
Q 40.484375 46.53125 36.375 47.5 
Q 32.28125 48.484375 27.875 48.484375 
Q 21.1875 48.484375 17.84375 46.4375 
Q 14.5 44.390625 14.5 40.28125 
Q 14.5 37.15625 16.890625 35.375 
Q 19.28125 33.59375 26.515625 31.984375 
L 29.59375 31.296875 
Q 39.15625 29.25 43.1875 25.515625 
Q 47.21875 21.78125 47.21875 15.09375 
Q 47.21875 7.46875 41.1875 3.015625 
Q 35.15625 -1.421875 24.609375 -1.421875 
Q 20.21875 -1.421875 15.453125 -0.5625 
Q 10.6875 0.296875 5.421875 2 
L 5.421875 11.28125 
Q 10.40625 8.6875 15.234375 7.390625 
Q 20.0625 6.109375 24.8125 6.109375 
Q 31.15625 6.109375 34.5625 8.28125 
Q 37.984375 10.453125 37.984375 14.40625 
Q 37.984375 18.0625 35.515625 20.015625 
Q 33.0625 21.96875 24.703125 23.78125 
L 21.578125 24.515625 
Q 13.234375 26.265625 9.515625 29.90625 
Q 5.8125 33.546875 5.8125 39.890625 
Q 5.8125 47.609375 11.28125 51.796875 
Q 16.75 56 26.8125 56 
Q 31.78125 56 36.171875 55.265625 
Q 40.578125 54.546875 44.28125 53.078125 
z
" id="DejaVuSans-115"/>
      <path d="M 56.203125 29.59375 
L 56.203125 25.203125 
L 14.890625 25.203125 
Q 15.484375 15.921875 20.484375 11.0625 
Q 25.484375 6.203125 34.421875 6.203125 
Q 39.59375 6.203125 44.453125 7.46875 
Q 49.3125 8.734375 54.109375 11.28125 
L 54.109375 2.78125 
Q 49.265625 0.734375 44.1875 -0.34375 
Q 39.109375 -1.421875 33.890625 -1.421875 
Q 20.796875 -1.421875 13.15625 6.1875 
Q 5.515625 13.8125 5.515625 26.8125 
Q 5.515625 40.234375 12.765625 48.109375 
Q 20.015625 56 32.328125 56 
Q 43.359375 56 49.78125 48.890625 
Q 56.203125 41.796875 56.203125 29.59375 
z
M 47.21875 32.234375 
Q 47.125 39.59375 43.09375 43.984375 
Q 39.0625 48.390625 32.421875 48.390625 
Q 24.90625 48.390625 20.390625 44.140625 
Q 15.875 39.890625 15.1875 32.171875 
z
" id="DejaVuSans-101"/>
     </defs>
     <g style="fill:#262626;" transform="translate(592.895625 105.418125)scale(0.12 -0.12)">
      <use xlink:href="#DejaVuSans-67"/>
      <use x="69.824219" xlink:href="#DejaVuSans-108"/>
      <use x="97.607422" xlink:href="#DejaVuSans-97"/>
      <use x="158.886719" xlink:href="#DejaVuSans-115"/>
      <use x="210.986328" xlink:href="#DejaVuSans-115"/>
      <use x="263.085938" xlink:href="#DejaVuSans-101"/>
      <use x="324.609375" xlink:href="#DejaVuSans-115"/>
     </g>
    </g>
    <g id="line2d_13">
     <path d="M 594.659688 117.922031 
L 616.659688 117.922031 
" style="fill:none;stroke:#4c72b0;stroke-linecap:round;stroke-width:1.5;"/>
    </g>
    <g id="line2d_14">
     <g>
      <use style="fill:#4c72b0;stroke:#4c72b0;" x="605.659688" xlink:href="#mc575f59af8" y="117.922031"/>
     </g>
    </g>
    <g id="text_14">
     <!-- E -->
     <defs>
      <path d="M 9.8125 72.90625 
L 55.90625 72.90625 
L 55.90625 64.59375 
L 19.671875 64.59375 
L 19.671875 43.015625 
L 54.390625 43.015625 
L 54.390625 34.71875 
L 19.671875 34.71875 
L 19.671875 8.296875 
L 56.78125 8.296875 
L 56.78125 0 
L 9.8125 0 
z
" id="DejaVuSans-69"/>
     </defs>
     <g style="fill:#262626;" transform="translate(625.459687 121.772031)scale(0.11 -0.11)">
      <use xlink:href="#DejaVuSans-69"/>
     </g>
    </g>
    <g id="line2d_15">
     <path d="M 594.659688 134.067969 
L 616.659688 134.067969 
" style="fill:none;stroke:#55a868;stroke-linecap:round;stroke-width:1.5;"/>
    </g>
    <g id="line2d_16">
     <g>
      <use style="fill:#55a868;stroke:#55a868;" x="605.659688" xlink:href="#m7e4df64777" y="134.067969"/>
     </g>
    </g>
    <g id="text_15">
     <!-- R -->
     <defs>
      <path d="M 44.390625 34.1875 
Q 47.5625 33.109375 50.5625 29.59375 
Q 53.5625 26.078125 56.59375 19.921875 
L 66.609375 0 
L 56 0 
L 46.6875 18.703125 
Q 43.0625 26.03125 39.671875 28.421875 
Q 36.28125 30.8125 30.421875 30.8125 
L 19.671875 30.8125 
L 19.671875 0 
L 9.8125 0 
L 9.8125 72.90625 
L 32.078125 72.90625 
Q 44.578125 72.90625 50.734375 67.671875 
Q 56.890625 62.453125 56.890625 51.90625 
Q 56.890625 45.015625 53.6875 40.46875 
Q 50.484375 35.9375 44.390625 34.1875 
z
M 19.671875 64.796875 
L 19.671875 38.921875 
L 32.078125 38.921875 
Q 39.203125 38.921875 42.84375 42.21875 
Q 46.484375 45.515625 46.484375 51.90625 
Q 46.484375 58.296875 42.84375 61.546875 
Q 39.203125 64.796875 32.078125 64.796875 
z
" id="DejaVuSans-82"/>
     </defs>
     <g style="fill:#262626;" transform="translate(625.459687 137.917969)scale(0.11 -0.11)">
      <use xlink:href="#DejaVuSans-82"/>
     </g>
    </g>
    <g id="line2d_17">
     <path d="M 594.659688 150.213906 
L 616.659688 150.213906 
" style="fill:none;stroke:#c44e52;stroke-linecap:round;stroke-width:1.5;"/>
    </g>
    <g id="line2d_18">
     <g>
      <use style="fill:#c44e52;stroke:#c44e52;" x="605.659688" xlink:href="#m5947e987c2" y="150.213906"/>
     </g>
    </g>
    <g id="text_16">
     <!-- S -->
     <defs>
      <path d="M 53.515625 70.515625 
L 53.515625 60.890625 
Q 47.90625 63.578125 42.921875 64.890625 
Q 37.9375 66.21875 33.296875 66.21875 
Q 25.25 66.21875 20.875 63.09375 
Q 16.5 59.96875 16.5 54.203125 
Q 16.5 49.359375 19.40625 46.890625 
Q 22.3125 44.4375 30.421875 42.921875 
L 36.375 41.703125 
Q 47.40625 39.59375 52.65625 34.296875 
Q 57.90625 29 57.90625 20.125 
Q 57.90625 9.515625 50.796875 4.046875 
Q 43.703125 -1.421875 29.984375 -1.421875 
Q 24.8125 -1.421875 18.96875 -0.25 
Q 13.140625 0.921875 6.890625 3.21875 
L 6.890625 13.375 
Q 12.890625 10.015625 18.65625 8.296875 
Q 24.421875 6.59375 29.984375 6.59375 
Q 38.421875 6.59375 43.015625 9.90625 
Q 47.609375 13.234375 47.609375 19.390625 
Q 47.609375 24.75 44.3125 27.78125 
Q 41.015625 30.8125 33.5 32.328125 
L 27.484375 33.5 
Q 16.453125 35.6875 11.515625 40.375 
Q 6.59375 45.0625 6.59375 53.421875 
Q 6.59375 63.09375 13.40625 68.65625 
Q 20.21875 74.21875 32.171875 74.21875 
Q 37.3125 74.21875 42.625 73.28125 
Q 47.953125 72.359375 53.515625 70.515625 
z
" id="DejaVuSans-83"/>
     </defs>
     <g style="fill:#262626;" transform="translate(625.459687 154.063906)scale(0.11 -0.11)">
      <use xlink:href="#DejaVuSans-83"/>
     </g>
    </g>
    <g id="line2d_19">
     <path d="M 594.659688 166.359844 
L 616.659688 166.359844 
" style="fill:none;stroke:#64b5cd;stroke-linecap:round;stroke-width:1.5;"/>
    </g>
    <g id="line2d_20">
     <g>
      <use style="fill:#64b5cd;stroke:#64b5cd;" x="605.659688" xlink:href="#m69841d97c7" y="166.359844"/>
     </g>
    </g>
    <g id="text_17">
     <!-- V -->
     <defs>
      <path d="M 28.609375 0 
L 0.78125 72.90625 
L 11.078125 72.90625 
L 34.1875 11.53125 
L 57.328125 72.90625 
L 67.578125 72.90625 
L 39.796875 0 
z
" id="DejaVuSans-86"/>
     </defs>
     <g style="fill:#262626;" transform="translate(625.459687 170.209844)scale(0.11 -0.11)">
      <use xlink:href="#DejaVuSans-86"/>
     </g>
    </g>
    <g id="line2d_21">
     <path d="M 594.659688 182.505781 
L 616.659688 182.505781 
" style="fill:none;stroke:#8172b3;stroke-linecap:round;stroke-width:1.5;"/>
    </g>
    <g id="line2d_22">
     <g>
      <use style="fill:#8172b3;stroke:#8172b3;" x="605.659688" xlink:href="#mc7b6425a15" y="182.505781"/>
     </g>
    </g>
    <g id="text_18">
     <!-- W -->
     <defs>
      <path d="M 3.328125 72.90625 
L 13.28125 72.90625 
L 28.609375 11.28125 
L 43.890625 72.90625 
L 54.984375 72.90625 
L 70.3125 11.28125 
L 85.59375 72.90625 
L 95.609375 72.90625 
L 77.296875 0 
L 64.890625 0 
L 49.515625 63.28125 
L 33.984375 0 
L 21.578125 0 
z
" id="DejaVuSans-87"/>
     </defs>
     <g style="fill:#262626;" transform="translate(625.459687 186.355781)scale(0.11 -0.11)">
      <use xlink:href="#DejaVuSans-87"/>
     </g>
    </g>
   </g>
  </g>
 </g>
 <defs>
  <clipPath id="p3d52105879">
   <rect height="543.6" width="558" x="90" y="86.4"/>
  </clipPath>
 </defs>
</svg>
