<?xml version="1.0" encoding="utf-8" standalone="no"?>
<!DOCTYPE svg PUBLIC "-//W3C//DTD SVG 1.1//EN"
  "http://www.w3.org/Graphics/SVG/1.1/DTD/svg11.dtd">
<!-- Created with matplotlib (https://matplotlib.org/) -->
<svg height="720pt" version="1.1" viewBox="0 0 720 720" width="720pt" xmlns="http://www.w3.org/2000/svg" xmlns:xlink="http://www.w3.org/1999/xlink">
 <defs>
  <style type="text/css">
*{stroke-linecap:butt;stroke-linejoin:round;}
  </style>
 </defs>
 <g id="figure_1">
  <g id="patch_1">
   <path d="M 0 720 
L 720 720 
L 720 0 
L 0 0 
z
" style="fill:#ffffff;"/>
  </g>
  <g id="patch_2">
   <path d="M 90 630 
L 648 630 
L 648 86.4 
L 90 86.4 
z
" style="fill:#eaeaf2;"/>
  </g>
  <g id="pane3d_1">
   <g id="patch_3">
    <path d="M 163.971523 509.883558 
L 323.674042 376.605155 
L 321.015164 121.932002 
L 152.408183 241.679906 
" style="fill:#f2f2f2;opacity:0.5;stroke:#f2f2f2;stroke-linejoin:miter;"/>
   </g>
  </g>
  <g id="pane3d_2">
   <g id="patch_4">
    <path d="M 323.674042 376.605155 
L 582.377109 451.116383 
L 593.200935 188.763664 
L 321.015164 121.932002 
" style="fill:#e6e6e6;opacity:0.5;stroke:#e6e6e6;stroke-linejoin:miter;"/>
   </g>
  </g>
  <g id="pane3d_3">
   <g id="patch_5">
    <path d="M 163.971523 509.883558 
L 436.162105 596.664023 
L 582.377109 451.116383 
L 323.674042 376.605155 
" style="fill:#ececec;opacity:0.5;stroke:#ececec;stroke-linejoin:miter;"/>
   </g>
  </g>
  <g id="axis3d_1">
   <g id="line2d_1">
    <path d="M 163.971523 509.883558 
L 436.162105 596.664023 
" style="fill:none;stroke:#ffffff;stroke-linecap:round;stroke-width:1.25;"/>
   </g>
   <g id="Line3DCollection_1">
    <path d="M 180.895307 515.27924 
L 339.809889 381.252575 
L 337.957314 126.091925 
" style="fill:none;stroke:#ffffff;"/>
    <path d="M 233.405152 532.020557 
L 389.832116 395.659893 
L 390.508377 138.995153 
" style="fill:none;stroke:#ffffff;"/>
    <path d="M 286.868369 549.06583 
L 440.696037 410.309636 
L 443.989073 152.126639 
" style="fill:none;stroke:#ffffff;"/>
    <path d="M 341.31116 566.423413 
L 492.423077 425.207972 
L 498.424291 165.492496 
" style="fill:none;stroke:#ffffff;"/>
    <path d="M 396.760696 584.10197 
L 545.035394 440.361284 
L 553.839814 179.099055 
" style="fill:none;stroke:#ffffff;"/>
   </g>
   <g id="xtick_1">
    <g id="line2d_2">
     <path clip-path="url(#p774426b72d)" d="M 376.540541 350.854054 
" style="fill:none;stroke:#ffffff;stroke-linecap:round;"/>
    </g>
    <g id="line2d_3">
     <path d="M 182.264443 514.124526 
L 178.151927 517.592974 
" style="fill:none;stroke:#262626;stroke-linecap:round;stroke-width:1.25;"/>
    </g>
    <g id="text_1">
     <!-- −0.5 -->
     <defs>
      <path d="M 10.59375 35.5 
L 73.1875 35.5 
L 73.1875 27.203125 
L 10.59375 27.203125 
z
" id="DejaVuSans-8722"/>
      <path d="M 31.78125 66.40625 
Q 24.171875 66.40625 20.328125 58.90625 
Q 16.5 51.421875 16.5 36.375 
Q 16.5 21.390625 20.328125 13.890625 
Q 24.171875 6.390625 31.78125 6.390625 
Q 39.453125 6.390625 43.28125 13.890625 
Q 47.125 21.390625 47.125 36.375 
Q 47.125 51.421875 43.28125 58.90625 
Q 39.453125 66.40625 31.78125 66.40625 
z
M 31.78125 74.21875 
Q 44.046875 74.21875 50.515625 64.515625 
Q 56.984375 54.828125 56.984375 36.375 
Q 56.984375 17.96875 50.515625 8.265625 
Q 44.046875 -1.421875 31.78125 -1.421875 
Q 19.53125 -1.421875 13.0625 8.265625 
Q 6.59375 17.96875 6.59375 36.375 
Q 6.59375 54.828125 13.0625 64.515625 
Q 19.53125 74.21875 31.78125 74.21875 
z
" id="DejaVuSans-48"/>
      <path d="M 10.6875 12.40625 
L 21 12.40625 
L 21 0 
L 10.6875 0 
z
" id="DejaVuSans-46"/>
      <path d="M 10.796875 72.90625 
L 49.515625 72.90625 
L 49.515625 64.59375 
L 19.828125 64.59375 
L 19.828125 46.734375 
Q 21.96875 47.46875 24.109375 47.828125 
Q 26.265625 48.1875 28.421875 48.1875 
Q 40.625 48.1875 47.75 41.5 
Q 54.890625 34.8125 54.890625 23.390625 
Q 54.890625 11.625 47.5625 5.09375 
Q 40.234375 -1.421875 26.90625 -1.421875 
Q 22.3125 -1.421875 17.546875 -0.640625 
Q 12.796875 0.140625 7.71875 1.703125 
L 7.71875 11.625 
Q 12.109375 9.234375 16.796875 8.0625 
Q 21.484375 6.890625 26.703125 6.890625 
Q 35.15625 6.890625 40.078125 11.328125 
Q 45.015625 15.765625 45.015625 23.390625 
Q 45.015625 31 40.078125 35.4375 
Q 35.15625 39.890625 26.703125 39.890625 
Q 22.75 39.890625 18.8125 39.015625 
Q 14.890625 38.140625 10.796875 36.28125 
z
" id="DejaVuSans-53"/>
     </defs>
     <g style="fill:#262626;" transform="translate(161.074 539.659166)scale(0.11 -0.11)">
      <use xlink:href="#DejaVuSans-8722"/>
      <use x="83.789062" xlink:href="#DejaVuSans-48"/>
      <use x="147.412109" xlink:href="#DejaVuSans-46"/>
      <use x="179.199219" xlink:href="#DejaVuSans-53"/>
     </g>
    </g>
   </g>
   <g id="xtick_2">
    <g id="line2d_4">
     <path clip-path="url(#p774426b72d)" d="M 376.540541 350.854054 
" style="fill:none;stroke:#ffffff;stroke-linecap:round;"/>
    </g>
    <g id="line2d_5">
     <path d="M 234.753722 530.84498 
L 230.702936 534.376135 
" style="fill:none;stroke:#262626;stroke-linecap:round;stroke-width:1.25;"/>
    </g>
    <g id="text_2">
     <!-- 0.0 -->
     <g style="fill:#262626;" transform="translate(218.189449 556.562308)scale(0.11 -0.11)">
      <use xlink:href="#DejaVuSans-48"/>
      <use x="63.623047" xlink:href="#DejaVuSans-46"/>
      <use x="95.410156" xlink:href="#DejaVuSans-48"/>
     </g>
    </g>
   </g>
   <g id="xtick_3">
    <g id="line2d_6">
     <path clip-path="url(#p774426b72d)" d="M 376.540541 350.854054 
" style="fill:none;stroke:#ffffff;stroke-linecap:round;"/>
    </g>
    <g id="line2d_7">
     <path d="M 288.195397 547.868819 
L 284.209273 551.464397 
" style="fill:none;stroke:#262626;stroke-linecap:round;stroke-width:1.25;"/>
    </g>
    <g id="text_3">
     <!-- 0.5 -->
     <g style="fill:#262626;" transform="translate(271.65039 573.772668)scale(0.11 -0.11)">
      <use xlink:href="#DejaVuSans-48"/>
      <use x="63.623047" xlink:href="#DejaVuSans-46"/>
      <use x="95.410156" xlink:href="#DejaVuSans-53"/>
     </g>
    </g>
   </g>
   <g id="xtick_4">
    <g id="line2d_8">
     <path clip-path="url(#p774426b72d)" d="M 376.540541 350.854054 
" style="fill:none;stroke:#ffffff;stroke-linecap:round;"/>
    </g>
    <g id="line2d_9">
     <path d="M 342.615627 565.204377 
L 338.697226 568.866158 
" style="fill:none;stroke:#262626;stroke-linecap:round;stroke-width:1.25;"/>
    </g>
    <g id="text_4">
     <!-- 1.0 -->
     <defs>
      <path d="M 12.40625 8.296875 
L 28.515625 8.296875 
L 28.515625 63.921875 
L 10.984375 60.40625 
L 10.984375 69.390625 
L 28.421875 72.90625 
L 38.28125 72.90625 
L 38.28125 8.296875 
L 54.390625 8.296875 
L 54.390625 0 
L 12.40625 0 
z
" id="DejaVuSans-49"/>
     </defs>
     <g style="fill:#262626;" transform="translate(326.091909 591.298699)scale(0.11 -0.11)">
      <use xlink:href="#DejaVuSans-49"/>
      <use x="63.623047" xlink:href="#DejaVuSans-46"/>
      <use x="95.410156" xlink:href="#DejaVuSans-48"/>
     </g>
    </g>
   </g>
   <g id="xtick_5">
    <g id="line2d_10">
     <path clip-path="url(#p774426b72d)" d="M 376.540541 350.854054 
" style="fill:none;stroke:#ffffff;stroke-linecap:round;"/>
    </g>
    <g id="line2d_11">
     <path d="M 398.041537 582.860295 
L 394.194059 586.590123 
" style="fill:none;stroke:#262626;stroke-linecap:round;stroke-width:1.25;"/>
    </g>
    <g id="text_5">
     <!-- 1.5 -->
     <g style="fill:#262626;" transform="translate(381.541233 609.149167)scale(0.11 -0.11)">
      <use xlink:href="#DejaVuSans-49"/>
      <use x="63.623047" xlink:href="#DejaVuSans-46"/>
      <use x="95.410156" xlink:href="#DejaVuSans-53"/>
     </g>
    </g>
   </g>
  </g>
  <g id="axis3d_2">
   <g id="line2d_12">
    <path d="M 582.377109 451.116383 
L 436.162105 596.664023 
" style="fill:none;stroke:#ffffff;stroke-linecap:round;stroke-width:1.25;"/>
   </g>
   <g id="Line3DCollection_2">
    <path d="M 168.331916 230.370566 
L 179.001113 497.340739 
L 449.964249 582.924876 
" style="fill:none;stroke:#ffffff;"/>
    <path d="M 191.360552 214.015188 
L 200.756216 479.185199 
L 469.927195 563.053046 
" style="fill:none;stroke:#ffffff;"/>
    <path d="M 213.916122 197.995791 
L 222.086869 461.383881 
L 489.482939 543.58656 
" style="fill:none;stroke:#ffffff;"/>
    <path d="M 236.013055 182.302126 
L 243.005373 443.926518 
L 508.643812 524.513141 
" style="fill:none;stroke:#ffffff;"/>
    <path d="M 257.665198 166.924359 
L 263.52356 426.803237 
L 527.421657 505.821004 
" style="fill:none;stroke:#ffffff;"/>
    <path d="M 278.885849 151.853047 
L 283.652811 410.004539 
L 545.827844 487.498827 
" style="fill:none;stroke:#ffffff;"/>
    <path d="M 299.687778 137.07912 
L 303.404082 393.521281 
L 563.873299 469.535736 
" style="fill:none;stroke:#ffffff;"/>
   </g>
   <g id="xtick_6">
    <g id="line2d_13">
     <path clip-path="url(#p774426b72d)" d="M 376.540541 350.854054 
" style="fill:none;stroke:#ffffff;stroke-linecap:round;"/>
    </g>
    <g id="line2d_14">
     <path d="M 447.696722 582.208674 
L 454.504362 584.358878 
" style="fill:none;stroke:#262626;stroke-linecap:round;stroke-width:1.25;"/>
    </g>
    <g id="text_6">
     <!-- −0.6 -->
     <defs>
      <path d="M 33.015625 40.375 
Q 26.375 40.375 22.484375 35.828125 
Q 18.609375 31.296875 18.609375 23.390625 
Q 18.609375 15.53125 22.484375 10.953125 
Q 26.375 6.390625 33.015625 6.390625 
Q 39.65625 6.390625 43.53125 10.953125 
Q 47.40625 15.53125 47.40625 23.390625 
Q 47.40625 31.296875 43.53125 35.828125 
Q 39.65625 40.375 33.015625 40.375 
z
M 52.59375 71.296875 
L 52.59375 62.3125 
Q 48.875 64.0625 45.09375 64.984375 
Q 41.3125 65.921875 37.59375 65.921875 
Q 27.828125 65.921875 22.671875 59.328125 
Q 17.53125 52.734375 16.796875 39.40625 
Q 19.671875 43.65625 24.015625 45.921875 
Q 28.375 48.1875 33.59375 48.1875 
Q 44.578125 48.1875 50.953125 41.515625 
Q 57.328125 34.859375 57.328125 23.390625 
Q 57.328125 12.15625 50.6875 5.359375 
Q 44.046875 -1.421875 33.015625 -1.421875 
Q 20.359375 -1.421875 13.671875 8.265625 
Q 6.984375 17.96875 6.984375 36.375 
Q 6.984375 53.65625 15.1875 63.9375 
Q 23.390625 74.21875 37.203125 74.21875 
Q 40.921875 74.21875 44.703125 73.484375 
Q 48.484375 72.75 52.59375 71.296875 
z
" id="DejaVuSans-54"/>
     </defs>
     <g style="fill:#262626;" transform="translate(447.814205 605.310482)scale(0.11 -0.11)">
      <use xlink:href="#DejaVuSans-8722"/>
      <use x="83.789062" xlink:href="#DejaVuSans-48"/>
      <use x="147.412109" xlink:href="#DejaVuSans-46"/>
      <use x="179.199219" xlink:href="#DejaVuSans-54"/>
     </g>
    </g>
   </g>
   <g id="xtick_7">
    <g id="line2d_15">
     <path clip-path="url(#p774426b72d)" d="M 376.540541 350.854054 
" style="fill:none;stroke:#ffffff;stroke-linecap:round;"/>
    </g>
    <g id="line2d_16">
     <path d="M 467.675687 562.351525 
L 474.435183 564.457637 
" style="fill:none;stroke:#262626;stroke-linecap:round;stroke-width:1.25;"/>
    </g>
    <g id="text_7">
     <!-- −0.4 -->
     <defs>
      <path d="M 37.796875 64.3125 
L 12.890625 25.390625 
L 37.796875 25.390625 
z
M 35.203125 72.90625 
L 47.609375 72.90625 
L 47.609375 25.390625 
L 58.015625 25.390625 
L 58.015625 17.1875 
L 47.609375 17.1875 
L 47.609375 0 
L 37.796875 0 
L 37.796875 17.1875 
L 4.890625 17.1875 
L 4.890625 26.703125 
z
" id="DejaVuSans-52"/>
     </defs>
     <g style="fill:#262626;" transform="translate(467.656034 585.299817)scale(0.11 -0.11)">
      <use xlink:href="#DejaVuSans-8722"/>
      <use x="83.789062" xlink:href="#DejaVuSans-48"/>
      <use x="147.412109" xlink:href="#DejaVuSans-46"/>
      <use x="179.199219" xlink:href="#DejaVuSans-52"/>
     </g>
    </g>
   </g>
   <g id="xtick_8">
    <g id="line2d_17">
     <path clip-path="url(#p774426b72d)" d="M 376.540541 350.854054 
" style="fill:none;stroke:#ffffff;stroke-linecap:round;"/>
    </g>
    <g id="line2d_18">
     <path d="M 487.24727 542.899273 
L 493.95916 544.962636 
" style="fill:none;stroke:#262626;stroke-linecap:round;stroke-width:1.25;"/>
    </g>
    <g id="text_8">
     <!-- −0.2 -->
     <defs>
      <path d="M 19.1875 8.296875 
L 53.609375 8.296875 
L 53.609375 0 
L 7.328125 0 
L 7.328125 8.296875 
Q 12.9375 14.109375 22.625 23.890625 
Q 32.328125 33.6875 34.8125 36.53125 
Q 39.546875 41.84375 41.421875 45.53125 
Q 43.3125 49.21875 43.3125 52.78125 
Q 43.3125 58.59375 39.234375 62.25 
Q 35.15625 65.921875 28.609375 65.921875 
Q 23.96875 65.921875 18.8125 64.3125 
Q 13.671875 62.703125 7.8125 59.421875 
L 7.8125 69.390625 
Q 13.765625 71.78125 18.9375 73 
Q 24.125 74.21875 28.421875 74.21875 
Q 39.75 74.21875 46.484375 68.546875 
Q 53.21875 62.890625 53.21875 53.421875 
Q 53.21875 48.921875 51.53125 44.890625 
Q 49.859375 40.875 45.40625 35.40625 
Q 44.1875 33.984375 37.640625 27.21875 
Q 31.109375 20.453125 19.1875 8.296875 
z
" id="DejaVuSans-50"/>
     </defs>
     <g style="fill:#262626;" transform="translate(487.093244 565.697213)scale(0.11 -0.11)">
      <use xlink:href="#DejaVuSans-8722"/>
      <use x="83.789062" xlink:href="#DejaVuSans-48"/>
      <use x="147.412109" xlink:href="#DejaVuSans-46"/>
      <use x="179.199219" xlink:href="#DejaVuSans-50"/>
     </g>
    </g>
   </g>
   <g id="xtick_9">
    <g id="line2d_19">
     <path clip-path="url(#p774426b72d)" d="M 376.540541 350.854054 
" style="fill:none;stroke:#ffffff;stroke-linecap:round;"/>
    </g>
    <g id="line2d_20">
     <path d="M 506.423807 523.839659 
L 513.088625 525.861562 
" style="fill:none;stroke:#262626;stroke-linecap:round;stroke-width:1.25;"/>
    </g>
    <g id="text_9">
     <!-- 0.0 -->
     <g style="fill:#262626;" transform="translate(510.746916 546.490315)scale(0.11 -0.11)">
      <use xlink:href="#DejaVuSans-48"/>
      <use x="63.623047" xlink:href="#DejaVuSans-46"/>
      <use x="95.410156" xlink:href="#DejaVuSans-48"/>
     </g>
    </g>
   </g>
   <g id="xtick_10">
    <g id="line2d_21">
     <path clip-path="url(#p774426b72d)" d="M 376.540541 350.854054 
" style="fill:none;stroke:#ffffff;stroke-linecap:round;"/>
    </g>
    <g id="line2d_22">
     <path d="M 525.217138 505.160915 
L 531.835416 507.142595 
" style="fill:none;stroke:#262626;stroke-linecap:round;stroke-width:1.25;"/>
    </g>
    <g id="text_10">
     <!-- 0.2 -->
     <g style="fill:#262626;" transform="translate(529.411156 527.667259)scale(0.11 -0.11)">
      <use xlink:href="#DejaVuSans-48"/>
      <use x="63.623047" xlink:href="#DejaVuSans-46"/>
      <use x="95.410156" xlink:href="#DejaVuSans-50"/>
     </g>
    </g>
   </g>
   <g id="xtick_11">
    <g id="line2d_23">
     <path clip-path="url(#p774426b72d)" d="M 376.540541 350.854054 
" style="fill:none;stroke:#ffffff;stroke-linecap:round;"/>
    </g>
    <g id="line2d_24">
     <path d="M 543.638636 486.851736 
L 550.210901 488.794381 
" style="fill:none;stroke:#262626;stroke-linecap:round;stroke-width:1.25;"/>
    </g>
    <g id="text_11">
     <!-- 0.4 -->
     <g style="fill:#262626;" transform="translate(547.706087 509.216654)scale(0.11 -0.11)">
      <use xlink:href="#DejaVuSans-48"/>
      <use x="63.623047" xlink:href="#DejaVuSans-46"/>
      <use x="95.410156" xlink:href="#DejaVuSans-52"/>
     </g>
    </g>
   </g>
   <g id="xtick_12">
    <g id="line2d_25">
     <path clip-path="url(#p774426b72d)" d="M 376.540541 350.854054 
" style="fill:none;stroke:#ffffff;stroke-linecap:round;"/>
    </g>
    <g id="line2d_26">
     <path d="M 561.699229 468.901263 
L 568.226004 470.806015 
" style="fill:none;stroke:#262626;stroke-linecap:round;stroke-width:1.25;"/>
    </g>
    <g id="text_12">
     <!-- 0.6 -->
     <g style="fill:#262626;" transform="translate(565.642565 491.127553)scale(0.11 -0.11)">
      <use xlink:href="#DejaVuSans-48"/>
      <use x="63.623047" xlink:href="#DejaVuSans-46"/>
      <use x="95.410156" xlink:href="#DejaVuSans-54"/>
     </g>
    </g>
   </g>
  </g>
  <g id="axis3d_3">
   <g id="line2d_27">
    <path d="M 582.377109 451.116383 
L 593.200935 188.763664 
" style="fill:none;stroke:#ffffff;stroke-linecap:round;stroke-width:1.25;"/>
   </g>
   <g id="Line3DCollection_3">
    <path d="M 582.631616 444.947518 
L 323.611389 370.604114 
L 163.700083 503.587708 
" style="fill:none;stroke:#ffffff;"/>
    <path d="M 583.751367 417.806502 
L 323.335812 344.208776 
L 162.505576 475.881951 
" style="fill:none;stroke:#ffffff;"/>
    <path d="M 584.883352 390.368946 
L 323.057351 317.537143 
L 161.297586 447.863457 
" style="fill:none;stroke:#ffffff;"/>
    <path d="M 586.027773 362.629963 
L 322.77596 290.584856 
L 160.075883 419.526901 
" style="fill:none;stroke:#ffffff;"/>
    <path d="M 587.184836 334.584557 
L 322.491592 263.34746 
L 158.840232 390.866837 
" style="fill:none;stroke:#ffffff;"/>
    <path d="M 588.354751 306.227624 
L 322.2042 235.820408 
L 157.590394 361.877692 
" style="fill:none;stroke:#ffffff;"/>
    <path d="M 589.537735 277.553944 
L 321.913735 207.999054 
L 156.326121 332.553766 
" style="fill:none;stroke:#ffffff;"/>
    <path d="M 590.734007 248.558179 
L 321.620148 179.878653 
L 155.047163 302.889227 
" style="fill:none;stroke:#ffffff;"/>
    <path d="M 591.943792 219.234873 
L 321.323388 151.454358 
L 153.753263 272.878103 
" style="fill:none;stroke:#ffffff;"/>
   </g>
   <g id="xtick_13">
    <g id="line2d_28">
     <path clip-path="url(#p774426b72d)" d="M 376.540541 350.854054 
" style="fill:none;stroke:#ffffff;stroke-linecap:round;"/>
    </g>
    <g id="line2d_29">
     <path d="M 580.470442 444.327222 
L 586.958463 446.189399 
" style="fill:none;stroke:#262626;stroke-linecap:round;stroke-width:1.25;"/>
    </g>
    <g id="text_13">
     <!-- −0.4 -->
     <g style="fill:#262626;" transform="translate(585.516647 451.032514)scale(0.11 -0.11)">
      <use xlink:href="#DejaVuSans-8722"/>
      <use x="83.789062" xlink:href="#DejaVuSans-48"/>
      <use x="147.412109" xlink:href="#DejaVuSans-46"/>
      <use x="179.199219" xlink:href="#DejaVuSans-52"/>
     </g>
    </g>
   </g>
   <g id="xtick_14">
    <g id="line2d_30">
     <path clip-path="url(#p774426b72d)" d="M 376.540541 350.854054 
" style="fill:none;stroke:#ffffff;stroke-linecap:round;"/>
    </g>
    <g id="line2d_31">
     <path d="M 581.578064 417.192291 
L 588.10252 419.03621 
" style="fill:none;stroke:#262626;stroke-linecap:round;stroke-width:1.25;"/>
    </g>
    <g id="text_14">
     <!-- −0.3 -->
     <defs>
      <path d="M 40.578125 39.3125 
Q 47.65625 37.796875 51.625 33 
Q 55.609375 28.21875 55.609375 21.1875 
Q 55.609375 10.40625 48.1875 4.484375 
Q 40.765625 -1.421875 27.09375 -1.421875 
Q 22.515625 -1.421875 17.65625 -0.515625 
Q 12.796875 0.390625 7.625 2.203125 
L 7.625 11.71875 
Q 11.71875 9.328125 16.59375 8.109375 
Q 21.484375 6.890625 26.8125 6.890625 
Q 36.078125 6.890625 40.9375 10.546875 
Q 45.796875 14.203125 45.796875 21.1875 
Q 45.796875 27.640625 41.28125 31.265625 
Q 36.765625 34.90625 28.71875 34.90625 
L 20.21875 34.90625 
L 20.21875 43.015625 
L 29.109375 43.015625 
Q 36.375 43.015625 40.234375 45.921875 
Q 44.09375 48.828125 44.09375 54.296875 
Q 44.09375 59.90625 40.109375 62.90625 
Q 36.140625 65.921875 28.71875 65.921875 
Q 24.65625 65.921875 20.015625 65.03125 
Q 15.375 64.15625 9.8125 62.3125 
L 9.8125 71.09375 
Q 15.4375 72.65625 20.34375 73.4375 
Q 25.25 74.21875 29.59375 74.21875 
Q 40.828125 74.21875 47.359375 69.109375 
Q 53.90625 64.015625 53.90625 55.328125 
Q 53.90625 49.265625 50.4375 45.09375 
Q 46.96875 40.921875 40.578125 39.3125 
z
" id="DejaVuSans-51"/>
     </defs>
     <g style="fill:#262626;" transform="translate(586.723095 423.913808)scale(0.11 -0.11)">
      <use xlink:href="#DejaVuSans-8722"/>
      <use x="83.789062" xlink:href="#DejaVuSans-48"/>
      <use x="147.412109" xlink:href="#DejaVuSans-46"/>
      <use x="179.199219" xlink:href="#DejaVuSans-51"/>
     </g>
    </g>
   </g>
   <g id="xtick_15">
    <g id="line2d_32">
     <path clip-path="url(#p774426b72d)" d="M 376.540541 350.854054 
" style="fill:none;stroke:#ffffff;stroke-linecap:round;"/>
    </g>
    <g id="line2d_33">
     <path d="M 582.697784 389.760989 
L 589.259085 391.586138 
" style="fill:none;stroke:#262626;stroke-linecap:round;stroke-width:1.25;"/>
    </g>
    <g id="text_15">
     <!-- −0.2 -->
     <g style="fill:#262626;" transform="translate(587.942708 396.499185)scale(0.11 -0.11)">
      <use xlink:href="#DejaVuSans-8722"/>
      <use x="83.789062" xlink:href="#DejaVuSans-48"/>
      <use x="147.412109" xlink:href="#DejaVuSans-46"/>
      <use x="179.199219" xlink:href="#DejaVuSans-50"/>
     </g>
    </g>
   </g>
   <g id="xtick_16">
    <g id="line2d_34">
     <path clip-path="url(#p774426b72d)" d="M 376.540541 350.854054 
" style="fill:none;stroke:#ffffff;stroke-linecap:round;"/>
    </g>
    <g id="line2d_35">
     <path d="M 583.829801 362.028435 
L 590.428366 363.834289 
" style="fill:none;stroke:#262626;stroke-linecap:round;stroke-width:1.25;"/>
    </g>
    <g id="text_16">
     <!-- −0.1 -->
     <g style="fill:#262626;" transform="translate(589.175703 368.783776)scale(0.11 -0.11)">
      <use xlink:href="#DejaVuSans-8722"/>
      <use x="83.789062" xlink:href="#DejaVuSans-48"/>
      <use x="147.412109" xlink:href="#DejaVuSans-46"/>
      <use x="179.199219" xlink:href="#DejaVuSans-49"/>
     </g>
    </g>
   </g>
   <g id="xtick_17">
    <g id="line2d_36">
     <path clip-path="url(#p774426b72d)" d="M 376.540541 350.854054 
" style="fill:none;stroke:#ffffff;stroke-linecap:round;"/>
    </g>
    <g id="line2d_37">
     <path d="M 584.974318 333.989639 
L 591.610572 335.775659 
" style="fill:none;stroke:#262626;stroke-linecap:round;stroke-width:1.25;"/>
    </g>
    <g id="text_17">
     <!-- 0.0 -->
     <g style="fill:#262626;" transform="translate(595.031128 340.762602)scale(0.11 -0.11)">
      <use xlink:href="#DejaVuSans-48"/>
      <use x="63.623047" xlink:href="#DejaVuSans-46"/>
      <use x="95.410156" xlink:href="#DejaVuSans-48"/>
     </g>
    </g>
   </g>
   <g id="xtick_18">
    <g id="line2d_38">
     <path clip-path="url(#p774426b72d)" d="M 376.540541 350.854054 
" style="fill:none;stroke:#ffffff;stroke-linecap:round;"/>
    </g>
    <g id="line2d_39">
     <path d="M 586.131545 305.639499 
L 592.805919 307.405132 
" style="fill:none;stroke:#262626;stroke-linecap:round;stroke-width:1.25;"/>
    </g>
    <g id="text_18">
     <!-- 0.1 -->
     <g style="fill:#262626;" transform="translate(596.291554 312.430576)scale(0.11 -0.11)">
      <use xlink:href="#DejaVuSans-48"/>
      <use x="63.623047" xlink:href="#DejaVuSans-46"/>
      <use x="95.410156" xlink:href="#DejaVuSans-49"/>
     </g>
    </g>
   </g>
   <g id="xtick_19">
    <g id="line2d_40">
     <path clip-path="url(#p774426b72d)" d="M 376.540541 350.854054 
" style="fill:none;stroke:#ffffff;stroke-linecap:round;"/>
    </g>
    <g id="line2d_41">
     <path d="M 587.301692 276.972801 
L 594.014629 278.717479 
" style="fill:none;stroke:#262626;stroke-linecap:round;stroke-width:1.25;"/>
    </g>
    <g id="text_19">
     <!-- 0.2 -->
     <g style="fill:#262626;" transform="translate(597.56604 283.782496)scale(0.11 -0.11)">
      <use xlink:href="#DejaVuSans-48"/>
      <use x="63.623047" xlink:href="#DejaVuSans-46"/>
      <use x="95.410156" xlink:href="#DejaVuSans-50"/>
     </g>
    </g>
   </g>
   <g id="xtick_20">
    <g id="line2d_42">
     <path clip-path="url(#p774426b72d)" d="M 376.540541 350.854054 
" style="fill:none;stroke:#ffffff;stroke-linecap:round;"/>
    </g>
    <g id="line2d_43">
     <path d="M 588.484979 247.984214 
L 595.236925 249.707352 
" style="fill:none;stroke:#262626;stroke-linecap:round;stroke-width:1.25;"/>
    </g>
    <g id="text_20">
     <!-- 0.3 -->
     <g style="fill:#262626;" transform="translate(598.854824 254.813044)scale(0.11 -0.11)">
      <use xlink:href="#DejaVuSans-48"/>
      <use x="63.623047" xlink:href="#DejaVuSans-46"/>
      <use x="95.410156" xlink:href="#DejaVuSans-51"/>
     </g>
    </g>
   </g>
   <g id="xtick_21">
    <g id="line2d_44">
     <path clip-path="url(#p774426b72d)" d="M 376.540541 350.854054 
" style="fill:none;stroke:#ffffff;stroke-linecap:round;"/>
    </g>
    <g id="line2d_45">
     <path d="M 589.681628 218.668284 
L 596.473038 220.369284 
" style="fill:none;stroke:#262626;stroke-linecap:round;stroke-width:1.25;"/>
    </g>
    <g id="text_21">
     <!-- 0.4 -->
     <g style="fill:#262626;" transform="translate(600.158147 225.516782)scale(0.11 -0.11)">
      <use xlink:href="#DejaVuSans-48"/>
      <use x="63.623047" xlink:href="#DejaVuSans-46"/>
      <use x="95.410156" xlink:href="#DejaVuSans-52"/>
     </g>
    </g>
   </g>
  </g>
  <g id="axes_1">
   <g id="Path3DCollection_1">
    <defs>
     <path d="M 0 2.236068 
C 0.593012 2.236068 1.161816 2.000462 1.581139 1.581139 
C 2.000462 1.161816 2.236068 0.593012 2.236068 0 
C 2.236068 -0.593012 2.000462 -1.161816 1.581139 -1.581139 
C 1.161816 -2.000462 0.593012 -2.236068 0 -2.236068 
C -0.593012 -2.236068 -1.161816 -2.000462 -1.581139 -1.581139 
C -2.000462 -1.161816 -2.236068 -0.593012 -2.236068 0 
C -2.236068 0.593012 -2.000462 1.161816 -1.581139 1.581139 
C -1.161816 2.000462 -0.593012 2.236068 0 2.236068 
z
" id="m39b3295360" style="stroke:#c44e52;"/>
    </defs>
    <g clip-path="url(#p774426b72d)">
     <use style="fill:#c44e52;stroke:#c44e52;" x="323.852038" xlink:href="#m39b3295360" y="319.324337"/>
    </g>
   </g>
   <g id="Path3DCollection_2">
    <defs>
     <path d="M 0 2.236068 
C 0.593012 2.236068 1.161816 2.000462 1.581139 1.581139 
C 2.000462 1.161816 2.236068 0.593012 2.236068 0 
C 2.236068 -0.593012 2.000462 -1.161816 1.581139 -1.581139 
C 1.161816 -2.000462 0.593012 -2.236068 0 -2.236068 
C -0.593012 -2.236068 -1.161816 -2.000462 -1.581139 -1.581139 
C -2.000462 -1.161816 -2.236068 -0.593012 -2.236068 0 
C -2.236068 0.593012 -2.000462 1.161816 -1.581139 1.581139 
C -1.161816 2.000462 -0.593012 2.236068 0 2.236068 
z
" id="m04e38d1a86" style="stroke:#4c72b0;"/>
    </defs>
    <g clip-path="url(#p774426b72d)">
     <use style="fill:#4c72b0;stroke:#4c72b0;" x="325.711807" xlink:href="#m04e38d1a86" y="335.635656"/>
    </g>
   </g>
   <g id="Path3DCollection_3">
    <g clip-path="url(#p774426b72d)">
     <use style="fill:#c44e52;stroke:#c44e52;" x="304.044096" xlink:href="#m39b3295360" y="317.545642"/>
    </g>
   </g>
   <g id="Path3DCollection_4">
    <g clip-path="url(#p774426b72d)">
     <use style="fill:#c44e52;stroke:#c44e52;" x="281.945792" xlink:href="#m39b3295360" y="418.357029"/>
    </g>
   </g>
   <g id="legend_1">
    <g id="patch_6">
     <path d="M 590.695625 193.043437 
L 640.3 193.043437 
Q 642.5 193.043437 642.5 190.843437 
L 642.5 94.1 
Q 642.5 91.9 640.3 91.9 
L 590.695625 91.9 
Q 588.495625 91.9 588.495625 94.1 
L 588.495625 190.843437 
Q 588.495625 193.043437 590.695625 193.043437 
z
" style="fill:#eaeaf2;opacity:0.8;stroke:#cccccc;stroke-linejoin:miter;"/>
    </g>
    <g id="text_22">
     <!-- Classes -->
     <defs>
      <path d="M 64.40625 67.28125 
L 64.40625 56.890625 
Q 59.421875 61.53125 53.78125 63.8125 
Q 48.140625 66.109375 41.796875 66.109375 
Q 29.296875 66.109375 22.65625 58.46875 
Q 16.015625 50.828125 16.015625 36.375 
Q 16.015625 21.96875 22.65625 14.328125 
Q 29.296875 6.6875 41.796875 6.6875 
Q 48.140625 6.6875 53.78125 8.984375 
Q 59.421875 11.28125 64.40625 15.921875 
L 64.40625 5.609375 
Q 59.234375 2.09375 53.4375 0.328125 
Q 47.65625 -1.421875 41.21875 -1.421875 
Q 24.65625 -1.421875 15.125 8.703125 
Q 5.609375 18.84375 5.609375 36.375 
Q 5.609375 53.953125 15.125 64.078125 
Q 24.65625 74.21875 41.21875 74.21875 
Q 47.75 74.21875 53.53125 72.484375 
Q 59.328125 70.75 64.40625 67.28125 
z
" id="DejaVuSans-67"/>
      <path d="M 9.421875 75.984375 
L 18.40625 75.984375 
L 18.40625 0 
L 9.421875 0 
z
" id="DejaVuSans-108"/>
      <path d="M 34.28125 27.484375 
Q 23.390625 27.484375 19.1875 25 
Q 14.984375 22.515625 14.984375 16.5 
Q 14.984375 11.71875 18.140625 8.90625 
Q 21.296875 6.109375 26.703125 6.109375 
Q 34.1875 6.109375 38.703125 11.40625 
Q 43.21875 16.703125 43.21875 25.484375 
L 43.21875 27.484375 
z
M 52.203125 31.203125 
L 52.203125 0 
L 43.21875 0 
L 43.21875 8.296875 
Q 40.140625 3.328125 35.546875 0.953125 
Q 30.953125 -1.421875 24.3125 -1.421875 
Q 15.921875 -1.421875 10.953125 3.296875 
Q 6 8.015625 6 15.921875 
Q 6 25.140625 12.171875 29.828125 
Q 18.359375 34.515625 30.609375 34.515625 
L 43.21875 34.515625 
L 43.21875 35.40625 
Q 43.21875 41.609375 39.140625 45 
Q 35.0625 48.390625 27.6875 48.390625 
Q 23 48.390625 18.546875 47.265625 
Q 14.109375 46.140625 10.015625 43.890625 
L 10.015625 52.203125 
Q 14.9375 54.109375 19.578125 55.046875 
Q 24.21875 56 28.609375 56 
Q 40.484375 56 46.34375 49.84375 
Q 52.203125 43.703125 52.203125 31.203125 
z
" id="DejaVuSans-97"/>
      <path d="M 44.28125 53.078125 
L 44.28125 44.578125 
Q 40.484375 46.53125 36.375 47.5 
Q 32.28125 48.484375 27.875 48.484375 
Q 21.1875 48.484375 17.84375 46.4375 
Q 14.5 44.390625 14.5 40.28125 
Q 14.5 37.15625 16.890625 35.375 
Q 19.28125 33.59375 26.515625 31.984375 
L 29.59375 31.296875 
Q 39.15625 29.25 43.1875 25.515625 
Q 47.21875 21.78125 47.21875 15.09375 
Q 47.21875 7.46875 41.1875 3.015625 
Q 35.15625 -1.421875 24.609375 -1.421875 
Q 20.21875 -1.421875 15.453125 -0.5625 
Q 10.6875 0.296875 5.421875 2 
L 5.421875 11.28125 
Q 10.40625 8.6875 15.234375 7.390625 
Q 20.0625 6.109375 24.8125 6.109375 
Q 31.15625 6.109375 34.5625 8.28125 
Q 37.984375 10.453125 37.984375 14.40625 
Q 37.984375 18.0625 35.515625 20.015625 
Q 33.0625 21.96875 24.703125 23.78125 
L 21.578125 24.515625 
Q 13.234375 26.265625 9.515625 29.90625 
Q 5.8125 33.546875 5.8125 39.890625 
Q 5.8125 47.609375 11.28125 51.796875 
Q 16.75 56 26.8125 56 
Q 31.78125 56 36.171875 55.265625 
Q 40.578125 54.546875 44.28125 53.078125 
z
" id="DejaVuSans-115"/>
      <path d="M 56.203125 29.59375 
L 56.203125 25.203125 
L 14.890625 25.203125 
Q 15.484375 15.921875 20.484375 11.0625 
Q 25.484375 6.203125 34.421875 6.203125 
Q 39.59375 6.203125 44.453125 7.46875 
Q 49.3125 8.734375 54.109375 11.28125 
L 54.109375 2.78125 
Q 49.265625 0.734375 44.1875 -0.34375 
Q 39.109375 -1.421875 33.890625 -1.421875 
Q 20.796875 -1.421875 13.15625 6.1875 
Q 5.515625 13.8125 5.515625 26.8125 
Q 5.515625 40.234375 12.765625 48.109375 
Q 20.015625 56 32.328125 56 
Q 43.359375 56 49.78125 48.890625 
Q 56.203125 41.796875 56.203125 29.59375 
z
M 47.21875 32.234375 
Q 47.125 39.59375 43.09375 43.984375 
Q 39.0625 48.390625 32.421875 48.390625 
Q 24.90625 48.390625 20.390625 44.140625 
Q 15.875 39.890625 15.1875 32.171875 
z
" id="DejaVuSans-101"/>
     </defs>
     <g style="fill:#262626;" transform="translate(592.895625 105.418125)scale(0.12 -0.12)">
      <use xlink:href="#DejaVuSans-67"/>
      <use x="69.824219" xlink:href="#DejaVuSans-108"/>
      <use x="97.607422" xlink:href="#DejaVuSans-97"/>
      <use x="158.886719" xlink:href="#DejaVuSans-115"/>
      <use x="210.986328" xlink:href="#DejaVuSans-115"/>
      <use x="263.085938" xlink:href="#DejaVuSans-101"/>
      <use x="324.609375" xlink:href="#DejaVuSans-115"/>
     </g>
    </g>
    <g id="line2d_46">
     <path d="M 594.659688 117.922031 
L 616.659688 117.922031 
" style="fill:none;stroke:#4c72b0;stroke-linecap:round;stroke-width:1.5;"/>
    </g>
    <g id="line2d_47">
     <defs>
      <path d="M 0 3 
C 0.795609 3 1.55874 2.683901 2.12132 2.12132 
C 2.683901 1.55874 3 0.795609 3 0 
C 3 -0.795609 2.683901 -1.55874 2.12132 -2.12132 
C 1.55874 -2.683901 0.795609 -3 0 -3 
C -0.795609 -3 -1.55874 -2.683901 -2.12132 -2.12132 
C -2.683901 -1.55874 -3 -0.795609 -3 0 
C -3 0.795609 -2.683901 1.55874 -2.12132 2.12132 
C -1.55874 2.683901 -0.795609 3 0 3 
z
" id="m1a8015524c" style="stroke:#4c72b0;"/>
     </defs>
     <g>
      <use style="fill:#4c72b0;stroke:#4c72b0;" x="605.659688" xlink:href="#m1a8015524c" y="117.922031"/>
     </g>
    </g>
    <g id="text_23">
     <!-- E -->
     <defs>
      <path d="M 9.8125 72.90625 
L 55.90625 72.90625 
L 55.90625 64.59375 
L 19.671875 64.59375 
L 19.671875 43.015625 
L 54.390625 43.015625 
L 54.390625 34.71875 
L 19.671875 34.71875 
L 19.671875 8.296875 
L 56.78125 8.296875 
L 56.78125 0 
L 9.8125 0 
z
" id="DejaVuSans-69"/>
     </defs>
     <g style="fill:#262626;" transform="translate(625.459687 121.772031)scale(0.11 -0.11)">
      <use xlink:href="#DejaVuSans-69"/>
     </g>
    </g>
    <g id="line2d_48">
     <path d="M 594.659688 134.067969 
L 616.659688 134.067969 
" style="fill:none;stroke:#55a868;stroke-linecap:round;stroke-width:1.5;"/>
    </g>
    <g id="line2d_49">
     <defs>
      <path d="M 0 3 
C 0.795609 3 1.55874 2.683901 2.12132 2.12132 
C 2.683901 1.55874 3 0.795609 3 0 
C 3 -0.795609 2.683901 -1.55874 2.12132 -2.12132 
C 1.55874 -2.683901 0.795609 -3 0 -3 
C -0.795609 -3 -1.55874 -2.683901 -2.12132 -2.12132 
C -2.683901 -1.55874 -3 -0.795609 -3 0 
C -3 0.795609 -2.683901 1.55874 -2.12132 2.12132 
C -1.55874 2.683901 -0.795609 3 0 3 
z
" id="mfbcaad332a" style="stroke:#55a868;"/>
     </defs>
     <g>
      <use style="fill:#55a868;stroke:#55a868;" x="605.659688" xlink:href="#mfbcaad332a" y="134.067969"/>
     </g>
    </g>
    <g id="text_24">
     <!-- R -->
     <defs>
      <path d="M 44.390625 34.1875 
Q 47.5625 33.109375 50.5625 29.59375 
Q 53.5625 26.078125 56.59375 19.921875 
L 66.609375 0 
L 56 0 
L 46.6875 18.703125 
Q 43.0625 26.03125 39.671875 28.421875 
Q 36.28125 30.8125 30.421875 30.8125 
L 19.671875 30.8125 
L 19.671875 0 
L 9.8125 0 
L 9.8125 72.90625 
L 32.078125 72.90625 
Q 44.578125 72.90625 50.734375 67.671875 
Q 56.890625 62.453125 56.890625 51.90625 
Q 56.890625 45.015625 53.6875 40.46875 
Q 50.484375 35.9375 44.390625 34.1875 
z
M 19.671875 64.796875 
L 19.671875 38.921875 
L 32.078125 38.921875 
Q 39.203125 38.921875 42.84375 42.21875 
Q 46.484375 45.515625 46.484375 51.90625 
Q 46.484375 58.296875 42.84375 61.546875 
Q 39.203125 64.796875 32.078125 64.796875 
z
" id="DejaVuSans-82"/>
     </defs>
     <g style="fill:#262626;" transform="translate(625.459687 137.917969)scale(0.11 -0.11)">
      <use xlink:href="#DejaVuSans-82"/>
     </g>
    </g>
    <g id="line2d_50">
     <path d="M 594.659688 150.213906 
L 616.659688 150.213906 
" style="fill:none;stroke:#c44e52;stroke-linecap:round;stroke-width:1.5;"/>
    </g>
    <g id="line2d_51">
     <defs>
      <path d="M 0 3 
C 0.795609 3 1.55874 2.683901 2.12132 2.12132 
C 2.683901 1.55874 3 0.795609 3 0 
C 3 -0.795609 2.683901 -1.55874 2.12132 -2.12132 
C 1.55874 -2.683901 0.795609 -3 0 -3 
C -0.795609 -3 -1.55874 -2.683901 -2.12132 -2.12132 
C -2.683901 -1.55874 -3 -0.795609 -3 0 
C -3 0.795609 -2.683901 1.55874 -2.12132 2.12132 
C -1.55874 2.683901 -0.795609 3 0 3 
z
" id="m570c4e44cd" style="stroke:#c44e52;"/>
     </defs>
     <g>
      <use style="fill:#c44e52;stroke:#c44e52;" x="605.659688" xlink:href="#m570c4e44cd" y="150.213906"/>
     </g>
    </g>
    <g id="text_25">
     <!-- S -->
     <defs>
      <path d="M 53.515625 70.515625 
L 53.515625 60.890625 
Q 47.90625 63.578125 42.921875 64.890625 
Q 37.9375 66.21875 33.296875 66.21875 
Q 25.25 66.21875 20.875 63.09375 
Q 16.5 59.96875 16.5 54.203125 
Q 16.5 49.359375 19.40625 46.890625 
Q 22.3125 44.4375 30.421875 42.921875 
L 36.375 41.703125 
Q 47.40625 39.59375 52.65625 34.296875 
Q 57.90625 29 57.90625 20.125 
Q 57.90625 9.515625 50.796875 4.046875 
Q 43.703125 -1.421875 29.984375 -1.421875 
Q 24.8125 -1.421875 18.96875 -0.25 
Q 13.140625 0.921875 6.890625 3.21875 
L 6.890625 13.375 
Q 12.890625 10.015625 18.65625 8.296875 
Q 24.421875 6.59375 29.984375 6.59375 
Q 38.421875 6.59375 43.015625 9.90625 
Q 47.609375 13.234375 47.609375 19.390625 
Q 47.609375 24.75 44.3125 27.78125 
Q 41.015625 30.8125 33.5 32.328125 
L 27.484375 33.5 
Q 16.453125 35.6875 11.515625 40.375 
Q 6.59375 45.0625 6.59375 53.421875 
Q 6.59375 63.09375 13.40625 68.65625 
Q 20.21875 74.21875 32.171875 74.21875 
Q 37.3125 74.21875 42.625 73.28125 
Q 47.953125 72.359375 53.515625 70.515625 
z
" id="DejaVuSans-83"/>
     </defs>
     <g style="fill:#262626;" transform="translate(625.459687 154.063906)scale(0.11 -0.11)">
      <use xlink:href="#DejaVuSans-83"/>
     </g>
    </g>
    <g id="line2d_52">
     <path d="M 594.659688 166.359844 
L 616.659688 166.359844 
" style="fill:none;stroke:#64b5cd;stroke-linecap:round;stroke-width:1.5;"/>
    </g>
    <g id="line2d_53">
     <defs>
      <path d="M 0 3 
C 0.795609 3 1.55874 2.683901 2.12132 2.12132 
C 2.683901 1.55874 3 0.795609 3 0 
C 3 -0.795609 2.683901 -1.55874 2.12132 -2.12132 
C 1.55874 -2.683901 0.795609 -3 0 -3 
C -0.795609 -3 -1.55874 -2.683901 -2.12132 -2.12132 
C -2.683901 -1.55874 -3 -0.795609 -3 0 
C -3 0.795609 -2.683901 1.55874 -2.12132 2.12132 
C -1.55874 2.683901 -0.795609 3 0 3 
z
" id="m3ffa7be8c8" style="stroke:#64b5cd;"/>
     </defs>
     <g>
      <use style="fill:#64b5cd;stroke:#64b5cd;" x="605.659688" xlink:href="#m3ffa7be8c8" y="166.359844"/>
     </g>
    </g>
    <g id="text_26">
     <!-- V -->
     <defs>
      <path d="M 28.609375 0 
L 0.78125 72.90625 
L 11.078125 72.90625 
L 34.1875 11.53125 
L 57.328125 72.90625 
L 67.578125 72.90625 
L 39.796875 0 
z
" id="DejaVuSans-86"/>
     </defs>
     <g style="fill:#262626;" transform="translate(625.459687 170.209844)scale(0.11 -0.11)">
      <use xlink:href="#DejaVuSans-86"/>
     </g>
    </g>
    <g id="line2d_54">
     <path d="M 594.659688 182.505781 
L 616.659688 182.505781 
" style="fill:none;stroke:#8172b3;stroke-linecap:round;stroke-width:1.5;"/>
    </g>
    <g id="line2d_55">
     <defs>
      <path d="M 0 3 
C 0.795609 3 1.55874 2.683901 2.12132 2.12132 
C 2.683901 1.55874 3 0.795609 3 0 
C 3 -0.795609 2.683901 -1.55874 2.12132 -2.12132 
C 1.55874 -2.683901 0.795609 -3 0 -3 
C -0.795609 -3 -1.55874 -2.683901 -2.12132 -2.12132 
C -2.683901 -1.55874 -3 -0.795609 -3 0 
C -3 0.795609 -2.683901 1.55874 -2.12132 2.12132 
C -1.55874 2.683901 -0.795609 3 0 3 
z
" id="m51b9a84a94" style="stroke:#8172b3;"/>
     </defs>
     <g>
      <use style="fill:#8172b3;stroke:#8172b3;" x="605.659688" xlink:href="#m51b9a84a94" y="182.505781"/>
     </g>
    </g>
    <g id="text_27">
     <!-- W -->
     <defs>
      <path d="M 3.328125 72.90625 
L 13.28125 72.90625 
L 28.609375 11.28125 
L 43.890625 72.90625 
L 54.984375 72.90625 
L 70.3125 11.28125 
L 85.59375 72.90625 
L 95.609375 72.90625 
L 77.296875 0 
L 64.890625 0 
L 49.515625 63.28125 
L 33.984375 0 
L 21.578125 0 
z
" id="DejaVuSans-87"/>
     </defs>
     <g style="fill:#262626;" transform="translate(625.459687 186.355781)scale(0.11 -0.11)">
      <use xlink:href="#DejaVuSans-87"/>
     </g>
    </g>
   </g>
   <g id="Path3DCollection_5">
    <g clip-path="url(#p774426b72d)">
     <use style="fill:#c44e52;stroke:#c44e52;" x="299.704616" xlink:href="#m39b3295360" y="420.915711"/>
    </g>
   </g>
   <g id="Path3DCollection_6">
    <defs>
     <path d="M 0 2.236068 
C 0.593012 2.236068 1.161816 2.000462 1.581139 1.581139 
C 2.000462 1.161816 2.236068 0.593012 2.236068 0 
C 2.236068 -0.593012 2.000462 -1.161816 1.581139 -1.581139 
C 1.161816 -2.000462 0.593012 -2.236068 0 -2.236068 
C -0.593012 -2.236068 -1.161816 -2.000462 -1.581139 -1.581139 
C -2.000462 -1.161816 -2.236068 -0.593012 -2.236068 0 
C -2.236068 0.593012 -2.000462 1.161816 -1.581139 1.581139 
C -1.161816 2.000462 -0.593012 2.236068 0 2.236068 
z
" id="m4a09054774" style="stroke:#64b5cd;"/>
    </defs>
    <g clip-path="url(#p774426b72d)">
     <use style="fill:#64b5cd;stroke:#64b5cd;" x="271.095338" xlink:href="#m4a09054774" y="424.146993"/>
    </g>
   </g>
   <g id="Path3DCollection_7">
    <g clip-path="url(#p774426b72d)">
     <use style="fill:#4c72b0;stroke:#4c72b0;" x="298.094978" xlink:href="#m04e38d1a86" y="275.539208"/>
    </g>
   </g>
   <g id="Path3DCollection_8">
    <g clip-path="url(#p774426b72d)">
     <use style="fill:#c44e52;stroke:#c44e52;" x="276.183735" xlink:href="#m39b3295360" y="391.58211"/>
    </g>
   </g>
   <g id="Path3DCollection_9">
    <g clip-path="url(#p774426b72d)">
     <use style="fill:#4c72b0;stroke:#4c72b0;" x="274.91969" xlink:href="#m04e38d1a86" y="399.330202"/>
    </g>
   </g>
   <g id="Path3DCollection_10">
    <defs>
     <path d="M 0 2.236068 
C 0.593012 2.236068 1.161816 2.000462 1.581139 1.581139 
C 2.000462 1.161816 2.236068 0.593012 2.236068 0 
C 2.236068 -0.593012 2.000462 -1.161816 1.581139 -1.581139 
C 1.161816 -2.000462 0.593012 -2.236068 0 -2.236068 
C -0.593012 -2.236068 -1.161816 -2.000462 -1.581139 -1.581139 
C -2.000462 -1.161816 -2.236068 -0.593012 -2.236068 0 
C -2.236068 0.593012 -2.000462 1.161816 -1.581139 1.581139 
C -1.161816 2.000462 -0.593012 2.236068 0 2.236068 
z
" id="mff0f7c6d40" style="stroke:#8172b3;"/>
    </defs>
    <g clip-path="url(#p774426b72d)">
     <use style="fill:#8172b3;stroke:#8172b3;" x="484.252835" xlink:href="#mff0f7c6d40" y="288.736231"/>
    </g>
   </g>
   <g id="Path3DCollection_11">
    <g clip-path="url(#p774426b72d)">
     <use style="fill:#4c72b0;stroke:#4c72b0;" x="298.234782" xlink:href="#m04e38d1a86" y="362.761146"/>
    </g>
   </g>
   <g id="Path3DCollection_12">
    <g clip-path="url(#p774426b72d)">
     <use style="fill:#4c72b0;stroke:#4c72b0;" x="304.173483" xlink:href="#m04e38d1a86" y="298.843583"/>
    </g>
   </g>
   <g id="Path3DCollection_13">
    <g clip-path="url(#p774426b72d)">
     <use style="fill:#64b5cd;stroke:#64b5cd;" x="286.110114" xlink:href="#m4a09054774" y="384.646009"/>
    </g>
   </g>
   <g id="Path3DCollection_14">
    <g clip-path="url(#p774426b72d)">
     <use style="fill:#8172b3;stroke:#8172b3;" x="420.025242" xlink:href="#mff0f7c6d40" y="319.62108"/>
    </g>
   </g>
   <g id="Path3DCollection_15">
    <g clip-path="url(#p774426b72d)">
     <use style="fill:#8172b3;stroke:#8172b3;" x="384.477321" xlink:href="#mff0f7c6d40" y="469.567899"/>
    </g>
   </g>
   <g id="Path3DCollection_16">
    <g clip-path="url(#p774426b72d)">
     <use style="fill:#c44e52;stroke:#c44e52;" x="290.261559" xlink:href="#m39b3295360" y="314.177962"/>
    </g>
   </g>
   <g id="Path3DCollection_17">
    <g clip-path="url(#p774426b72d)">
     <use style="fill:#4c72b0;stroke:#4c72b0;" x="267.648434" xlink:href="#m04e38d1a86" y="372.079632"/>
    </g>
   </g>
   <g id="Path3DCollection_18">
    <g clip-path="url(#p774426b72d)">
     <use style="fill:#64b5cd;stroke:#64b5cd;" x="282.182874" xlink:href="#m4a09054774" y="390.203947"/>
    </g>
   </g>
   <g id="Path3DCollection_19">
    <g clip-path="url(#p774426b72d)">
     <use style="fill:#8172b3;stroke:#8172b3;" x="441.180742" xlink:href="#mff0f7c6d40" y="462.118411"/>
    </g>
   </g>
   <g id="Path3DCollection_20">
    <g clip-path="url(#p774426b72d)">
     <use style="fill:#4c72b0;stroke:#4c72b0;" x="262.78179" xlink:href="#m04e38d1a86" y="385.703621"/>
    </g>
   </g>
   <g id="Path3DCollection_21">
    <defs>
     <path d="M 0 2.236068 
C 0.593012 2.236068 1.161816 2.000462 1.581139 1.581139 
C 2.000462 1.161816 2.236068 0.593012 2.236068 0 
C 2.236068 -0.593012 2.000462 -1.161816 1.581139 -1.581139 
C 1.161816 -2.000462 0.593012 -2.236068 0 -2.236068 
C -0.593012 -2.236068 -1.161816 -2.000462 -1.581139 -1.581139 
C -2.000462 -1.161816 -2.236068 -0.593012 -2.236068 0 
C -2.236068 0.593012 -2.000462 1.161816 -1.581139 1.581139 
C -1.161816 2.000462 -0.593012 2.236068 0 2.236068 
z
" id="m637558f017" style="stroke:#55a868;"/>
    </defs>
    <g clip-path="url(#p774426b72d)">
     <use style="fill:#55a868;stroke:#55a868;" x="314.554207" xlink:href="#m637558f017" y="266.338171"/>
    </g>
   </g>
   <g id="Path3DCollection_22">
    <g clip-path="url(#p774426b72d)">
     <use style="fill:#c44e52;stroke:#c44e52;" x="279.573404" xlink:href="#m39b3295360" y="293.40213"/>
    </g>
   </g>
   <g id="Path3DCollection_23">
    <g clip-path="url(#p774426b72d)">
     <use style="fill:#55a868;stroke:#55a868;" x="313.819479" xlink:href="#m637558f017" y="272.537599"/>
    </g>
   </g>
   <g id="Path3DCollection_24">
    <g clip-path="url(#p774426b72d)">
     <use style="fill:#8172b3;stroke:#8172b3;" x="413.43279" xlink:href="#mff0f7c6d40" y="424.243499"/>
    </g>
   </g>
   <g id="Path3DCollection_25">
    <g clip-path="url(#p774426b72d)">
     <use style="fill:#8172b3;stroke:#8172b3;" x="376.129411" xlink:href="#mff0f7c6d40" y="420.934857"/>
    </g>
   </g>
   <g id="Path3DCollection_26">
    <g clip-path="url(#p774426b72d)">
     <use style="fill:#c44e52;stroke:#c44e52;" x="287.246076" xlink:href="#m39b3295360" y="391.370697"/>
    </g>
   </g>
   <g id="Path3DCollection_27">
    <g clip-path="url(#p774426b72d)">
     <use style="fill:#c44e52;stroke:#c44e52;" x="277.095674" xlink:href="#m39b3295360" y="261.123435"/>
    </g>
   </g>
   <g id="Path3DCollection_28">
    <g clip-path="url(#p774426b72d)">
     <use style="fill:#4c72b0;stroke:#4c72b0;" x="288.331894" xlink:href="#m04e38d1a86" y="263.602004"/>
    </g>
   </g>
   <g id="Path3DCollection_29">
    <g clip-path="url(#p774426b72d)">
     <use style="fill:#64b5cd;stroke:#64b5cd;" x="244.537269" xlink:href="#m4a09054774" y="401.146444"/>
    </g>
   </g>
   <g id="Path3DCollection_30">
    <g clip-path="url(#p774426b72d)">
     <use style="fill:#4c72b0;stroke:#4c72b0;" x="247.922179" xlink:href="#m04e38d1a86" y="357.455294"/>
    </g>
   </g>
   <g id="Path3DCollection_31">
    <g clip-path="url(#p774426b72d)">
     <use style="fill:#8172b3;stroke:#8172b3;" x="396.768118" xlink:href="#mff0f7c6d40" y="307.596193"/>
    </g>
   </g>
   <g id="Path3DCollection_32">
    <g clip-path="url(#p774426b72d)">
     <use style="fill:#64b5cd;stroke:#64b5cd;" x="266.595564" xlink:href="#m4a09054774" y="378.539693"/>
    </g>
   </g>
   <g id="Path3DCollection_33">
    <g clip-path="url(#p774426b72d)">
     <use style="fill:#55a868;stroke:#55a868;" x="270.168707" xlink:href="#m637558f017" y="363.580952"/>
    </g>
   </g>
   <g id="Path3DCollection_34">
    <g clip-path="url(#p774426b72d)">
     <use style="fill:#55a868;stroke:#55a868;" x="275.17945" xlink:href="#m637558f017" y="377.053877"/>
    </g>
   </g>
   <g id="Path3DCollection_35">
    <g clip-path="url(#p774426b72d)">
     <use style="fill:#64b5cd;stroke:#64b5cd;" x="276.501987" xlink:href="#m4a09054774" y="264.329259"/>
    </g>
   </g>
   <g id="Path3DCollection_36">
    <g clip-path="url(#p774426b72d)">
     <use style="fill:#c44e52;stroke:#c44e52;" x="265.942456" xlink:href="#m39b3295360" y="204.129375"/>
    </g>
   </g>
   <g id="Path3DCollection_37">
    <g clip-path="url(#p774426b72d)">
     <use style="fill:#64b5cd;stroke:#64b5cd;" x="230.766052" xlink:href="#m4a09054774" y="361.49798"/>
    </g>
   </g>
   <g id="Path3DCollection_38">
    <g clip-path="url(#p774426b72d)">
     <use style="fill:#55a868;stroke:#55a868;" x="282.828597" xlink:href="#m637558f017" y="369.259046"/>
    </g>
   </g>
   <g id="Path3DCollection_39">
    <g clip-path="url(#p774426b72d)">
     <use style="fill:#64b5cd;stroke:#64b5cd;" x="258.224527" xlink:href="#m4a09054774" y="356.547117"/>
    </g>
   </g>
   <g id="Path3DCollection_40">
    <g clip-path="url(#p774426b72d)">
     <use style="fill:#55a868;stroke:#55a868;" x="261.497372" xlink:href="#m637558f017" y="363.584979"/>
    </g>
   </g>
   <g id="Path3DCollection_41">
    <g clip-path="url(#p774426b72d)">
     <use style="fill:#64b5cd;stroke:#64b5cd;" x="273.0911" xlink:href="#m4a09054774" y="353.839322"/>
    </g>
   </g>
   <g id="Path3DCollection_42">
    <g clip-path="url(#p774426b72d)">
     <use style="fill:#8172b3;stroke:#8172b3;" x="414.584419" xlink:href="#mff0f7c6d40" y="386.161797"/>
    </g>
   </g>
   <g id="Path3DCollection_43">
    <g clip-path="url(#p774426b72d)">
     <use style="fill:#55a868;stroke:#55a868;" x="292.600286" xlink:href="#m637558f017" y="247.504773"/>
    </g>
   </g>
   <g id="Path3DCollection_44">
    <g clip-path="url(#p774426b72d)">
     <use style="fill:#64b5cd;stroke:#64b5cd;" x="252.389056" xlink:href="#m4a09054774" y="351.785246"/>
    </g>
   </g>
   <g id="Path3DCollection_45">
    <g clip-path="url(#p774426b72d)">
     <use style="fill:#55a868;stroke:#55a868;" x="271.624557" xlink:href="#m637558f017" y="262.128895"/>
    </g>
   </g>
   <g id="Path3DCollection_46">
    <g clip-path="url(#p774426b72d)">
     <use style="fill:#8172b3;stroke:#8172b3;" x="407.673719" xlink:href="#mff0f7c6d40" y="344.601259"/>
    </g>
   </g>
   <g id="Path3DCollection_47">
    <g clip-path="url(#p774426b72d)">
     <use style="fill:#8172b3;stroke:#8172b3;" x="430.879884" xlink:href="#mff0f7c6d40" y="324.385535"/>
    </g>
   </g>
  </g>
 </g>
 <defs>
  <clipPath id="p774426b72d">
   <rect height="543.6" width="558" x="90" y="86.4"/>
  </clipPath>
 </defs>
</svg>
