<?xml version="1.0" encoding="utf-8" standalone="no"?>
<!DOCTYPE svg PUBLIC "-//W3C//DTD SVG 1.1//EN"
  "http://www.w3.org/Graphics/SVG/1.1/DTD/svg11.dtd">
<!-- Created with matplotlib (https://matplotlib.org/) -->
<svg height="720pt" version="1.1" viewBox="0 0 720 720" width="720pt" xmlns="http://www.w3.org/2000/svg" xmlns:xlink="http://www.w3.org/1999/xlink">
 <defs>
  <style type="text/css">
*{stroke-linecap:butt;stroke-linejoin:round;}
  </style>
 </defs>
 <g id="figure_1">
  <g id="patch_1">
   <path d="M 0 720 
L 720 720 
L 720 0 
L 0 0 
z
" style="fill:#ffffff;"/>
  </g>
  <g id="axes_1">
   <g id="patch_2">
    <path d="M 90 630 
L 648 630 
L 648 86.4 
L 90 86.4 
z
" style="fill:#eaeaf2;"/>
   </g>
   <g id="matplotlib.axis_1">
    <g id="xtick_1">
     <g id="line2d_1">
      <path clip-path="url(#p704668739e)" d="M 97.486239 630 
L 97.486239 86.4 
" style="fill:none;stroke:#ffffff;stroke-linecap:round;"/>
     </g>
     <g id="text_1">
      <!-- −0.5 -->
      <defs>
       <path d="M 52.828125 31.203125 
L 5.5625 31.203125 
L 5.5625 39.40625 
L 52.828125 39.40625 
z
" id="ArialMT-8722"/>
       <path d="M 4.15625 35.296875 
Q 4.15625 48 6.765625 55.734375 
Q 9.375 63.484375 14.515625 67.671875 
Q 19.671875 71.875 27.484375 71.875 
Q 33.25 71.875 37.59375 69.546875 
Q 41.9375 67.234375 44.765625 62.859375 
Q 47.609375 58.5 49.21875 52.21875 
Q 50.828125 45.953125 50.828125 35.296875 
Q 50.828125 22.703125 48.234375 14.96875 
Q 45.65625 7.234375 40.5 3 
Q 35.359375 -1.21875 27.484375 -1.21875 
Q 17.140625 -1.21875 11.234375 6.203125 
Q 4.15625 15.140625 4.15625 35.296875 
z
M 13.1875 35.296875 
Q 13.1875 17.671875 17.3125 11.828125 
Q 21.4375 6 27.484375 6 
Q 33.546875 6 37.671875 11.859375 
Q 41.796875 17.71875 41.796875 35.296875 
Q 41.796875 52.984375 37.671875 58.78125 
Q 33.546875 64.59375 27.390625 64.59375 
Q 21.34375 64.59375 17.71875 59.46875 
Q 13.1875 52.9375 13.1875 35.296875 
z
" id="ArialMT-48"/>
       <path d="M 9.078125 0 
L 9.078125 10.015625 
L 19.09375 10.015625 
L 19.09375 0 
z
" id="ArialMT-46"/>
       <path d="M 4.15625 18.75 
L 13.375 19.53125 
Q 14.40625 12.796875 18.140625 9.390625 
Q 21.875 6 27.15625 6 
Q 33.5 6 37.890625 10.78125 
Q 42.28125 15.578125 42.28125 23.484375 
Q 42.28125 31 38.0625 35.34375 
Q 33.84375 39.703125 27 39.703125 
Q 22.75 39.703125 19.328125 37.765625 
Q 15.921875 35.84375 13.96875 32.765625 
L 5.71875 33.84375 
L 12.640625 70.609375 
L 48.25 70.609375 
L 48.25 62.203125 
L 19.671875 62.203125 
L 15.828125 42.96875 
Q 22.265625 47.46875 29.34375 47.46875 
Q 38.71875 47.46875 45.15625 40.96875 
Q 51.609375 34.46875 51.609375 24.265625 
Q 51.609375 14.546875 45.953125 7.46875 
Q 39.0625 -1.21875 27.15625 -1.21875 
Q 17.390625 -1.21875 11.203125 4.25 
Q 5.03125 9.71875 4.15625 18.75 
z
" id="ArialMT-53"/>
      </defs>
      <g style="fill:#262626;" transform="translate(86.628895 647.373594)scale(0.11 -0.11)">
       <use xlink:href="#ArialMT-8722"/>
       <use x="58.398438" xlink:href="#ArialMT-48"/>
       <use x="114.013672" xlink:href="#ArialMT-46"/>
       <use x="141.796875" xlink:href="#ArialMT-53"/>
      </g>
     </g>
    </g>
    <g id="xtick_2">
     <g id="line2d_2">
      <path clip-path="url(#p704668739e)" d="M 195.94939 630 
L 195.94939 86.4 
" style="fill:none;stroke:#ffffff;stroke-linecap:round;"/>
     </g>
     <g id="text_2">
      <!-- 0.0 -->
      <g style="fill:#262626;" transform="translate(188.30439 647.373594)scale(0.11 -0.11)">
       <use xlink:href="#ArialMT-48"/>
       <use x="55.615234" xlink:href="#ArialMT-46"/>
       <use x="83.398438" xlink:href="#ArialMT-48"/>
      </g>
     </g>
    </g>
    <g id="xtick_3">
     <g id="line2d_3">
      <path clip-path="url(#p704668739e)" d="M 294.412541 630 
L 294.412541 86.4 
" style="fill:none;stroke:#ffffff;stroke-linecap:round;"/>
     </g>
     <g id="text_3">
      <!-- 0.5 -->
      <g style="fill:#262626;" transform="translate(286.767541 647.373594)scale(0.11 -0.11)">
       <use xlink:href="#ArialMT-48"/>
       <use x="55.615234" xlink:href="#ArialMT-46"/>
       <use x="83.398438" xlink:href="#ArialMT-53"/>
      </g>
     </g>
    </g>
    <g id="xtick_4">
     <g id="line2d_4">
      <path clip-path="url(#p704668739e)" d="M 392.875692 630 
L 392.875692 86.4 
" style="fill:none;stroke:#ffffff;stroke-linecap:round;"/>
     </g>
     <g id="text_4">
      <!-- 1.0 -->
      <defs>
       <path d="M 37.25 0 
L 28.46875 0 
L 28.46875 56 
Q 25.296875 52.984375 20.140625 49.953125 
Q 14.984375 46.921875 10.890625 45.40625 
L 10.890625 53.90625 
Q 18.265625 57.375 23.78125 62.296875 
Q 29.296875 67.234375 31.59375 71.875 
L 37.25 71.875 
z
" id="ArialMT-49"/>
      </defs>
      <g style="fill:#262626;" transform="translate(385.230692 647.373594)scale(0.11 -0.11)">
       <use xlink:href="#ArialMT-49"/>
       <use x="55.615234" xlink:href="#ArialMT-46"/>
       <use x="83.398438" xlink:href="#ArialMT-48"/>
      </g>
     </g>
    </g>
    <g id="xtick_5">
     <g id="line2d_5">
      <path clip-path="url(#p704668739e)" d="M 491.338843 630 
L 491.338843 86.4 
" style="fill:none;stroke:#ffffff;stroke-linecap:round;"/>
     </g>
     <g id="text_5">
      <!-- 1.5 -->
      <g style="fill:#262626;" transform="translate(483.693843 647.373594)scale(0.11 -0.11)">
       <use xlink:href="#ArialMT-49"/>
       <use x="55.615234" xlink:href="#ArialMT-46"/>
       <use x="83.398438" xlink:href="#ArialMT-53"/>
      </g>
     </g>
    </g>
    <g id="xtick_6">
     <g id="line2d_6">
      <path clip-path="url(#p704668739e)" d="M 589.801994 630 
L 589.801994 86.4 
" style="fill:none;stroke:#ffffff;stroke-linecap:round;"/>
     </g>
     <g id="text_6">
      <!-- 2.0 -->
      <defs>
       <path d="M 50.34375 8.453125 
L 50.34375 0 
L 3.03125 0 
Q 2.9375 3.171875 4.046875 6.109375 
Q 5.859375 10.9375 9.828125 15.625 
Q 13.8125 20.3125 21.34375 26.46875 
Q 33.015625 36.03125 37.109375 41.625 
Q 41.21875 47.21875 41.21875 52.203125 
Q 41.21875 57.421875 37.46875 61 
Q 33.734375 64.59375 27.734375 64.59375 
Q 21.390625 64.59375 17.578125 60.78125 
Q 13.765625 56.984375 13.71875 50.25 
L 4.6875 51.171875 
Q 5.609375 61.28125 11.65625 66.578125 
Q 17.71875 71.875 27.9375 71.875 
Q 38.234375 71.875 44.234375 66.15625 
Q 50.25 60.453125 50.25 52 
Q 50.25 47.703125 48.484375 43.546875 
Q 46.734375 39.40625 42.65625 34.8125 
Q 38.578125 30.21875 29.109375 22.21875 
Q 21.1875 15.578125 18.9375 13.203125 
Q 16.703125 10.84375 15.234375 8.453125 
z
" id="ArialMT-50"/>
      </defs>
      <g style="fill:#262626;" transform="translate(582.156994 647.373594)scale(0.11 -0.11)">
       <use xlink:href="#ArialMT-50"/>
       <use x="55.615234" xlink:href="#ArialMT-46"/>
       <use x="83.398438" xlink:href="#ArialMT-48"/>
      </g>
     </g>
    </g>
   </g>
   <g id="matplotlib.axis_2">
    <g id="ytick_1">
     <g id="line2d_7">
      <path clip-path="url(#p704668739e)" d="M 90 540.205322 
L 648 540.205322 
" style="fill:none;stroke:#ffffff;stroke-linecap:round;"/>
     </g>
     <g id="text_7">
      <!-- −0.2 -->
      <g style="fill:#262626;" transform="translate(58.785313 544.142119)scale(0.11 -0.11)">
       <use xlink:href="#ArialMT-8722"/>
       <use x="58.398438" xlink:href="#ArialMT-48"/>
       <use x="114.013672" xlink:href="#ArialMT-46"/>
       <use x="141.796875" xlink:href="#ArialMT-50"/>
      </g>
     </g>
    </g>
    <g id="ytick_2">
     <g id="line2d_8">
      <path clip-path="url(#p704668739e)" d="M 90 446.278766 
L 648 446.278766 
" style="fill:none;stroke:#ffffff;stroke-linecap:round;"/>
     </g>
     <g id="text_8">
      <!-- 0.0 -->
      <g style="fill:#262626;" transform="translate(65.21 450.215563)scale(0.11 -0.11)">
       <use xlink:href="#ArialMT-48"/>
       <use x="55.615234" xlink:href="#ArialMT-46"/>
       <use x="83.398438" xlink:href="#ArialMT-48"/>
      </g>
     </g>
    </g>
    <g id="ytick_3">
     <g id="line2d_9">
      <path clip-path="url(#p704668739e)" d="M 90 352.352211 
L 648 352.352211 
" style="fill:none;stroke:#ffffff;stroke-linecap:round;"/>
     </g>
     <g id="text_9">
      <!-- 0.2 -->
      <g style="fill:#262626;" transform="translate(65.21 356.289008)scale(0.11 -0.11)">
       <use xlink:href="#ArialMT-48"/>
       <use x="55.615234" xlink:href="#ArialMT-46"/>
       <use x="83.398438" xlink:href="#ArialMT-50"/>
      </g>
     </g>
    </g>
    <g id="ytick_4">
     <g id="line2d_10">
      <path clip-path="url(#p704668739e)" d="M 90 258.425655 
L 648 258.425655 
" style="fill:none;stroke:#ffffff;stroke-linecap:round;"/>
     </g>
     <g id="text_10">
      <!-- 0.4 -->
      <defs>
       <path d="M 32.328125 0 
L 32.328125 17.140625 
L 1.265625 17.140625 
L 1.265625 25.203125 
L 33.9375 71.578125 
L 41.109375 71.578125 
L 41.109375 25.203125 
L 50.78125 25.203125 
L 50.78125 17.140625 
L 41.109375 17.140625 
L 41.109375 0 
z
M 32.328125 25.203125 
L 32.328125 57.46875 
L 9.90625 25.203125 
z
" id="ArialMT-52"/>
      </defs>
      <g style="fill:#262626;" transform="translate(65.21 262.362452)scale(0.11 -0.11)">
       <use xlink:href="#ArialMT-48"/>
       <use x="55.615234" xlink:href="#ArialMT-46"/>
       <use x="83.398438" xlink:href="#ArialMT-52"/>
      </g>
     </g>
    </g>
    <g id="ytick_5">
     <g id="line2d_11">
      <path clip-path="url(#p704668739e)" d="M 90 164.499099 
L 648 164.499099 
" style="fill:none;stroke:#ffffff;stroke-linecap:round;"/>
     </g>
     <g id="text_11">
      <!-- 0.6 -->
      <defs>
       <path d="M 49.75 54.046875 
L 41.015625 53.375 
Q 39.84375 58.546875 37.703125 60.890625 
Q 34.125 64.65625 28.90625 64.65625 
Q 24.703125 64.65625 21.53125 62.3125 
Q 17.390625 59.28125 14.984375 53.46875 
Q 12.59375 47.65625 12.5 36.921875 
Q 15.671875 41.75 20.265625 44.09375 
Q 24.859375 46.4375 29.890625 46.4375 
Q 38.671875 46.4375 44.84375 39.96875 
Q 51.03125 33.5 51.03125 23.25 
Q 51.03125 16.5 48.125 10.71875 
Q 45.21875 4.9375 40.140625 1.859375 
Q 35.0625 -1.21875 28.609375 -1.21875 
Q 17.625 -1.21875 10.6875 6.859375 
Q 3.765625 14.9375 3.765625 33.5 
Q 3.765625 54.25 11.421875 63.671875 
Q 18.109375 71.875 29.4375 71.875 
Q 37.890625 71.875 43.28125 67.140625 
Q 48.6875 62.40625 49.75 54.046875 
z
M 13.875 23.1875 
Q 13.875 18.65625 15.796875 14.5 
Q 17.71875 10.359375 21.1875 8.171875 
Q 24.65625 6 28.46875 6 
Q 34.03125 6 38.03125 10.484375 
Q 42.046875 14.984375 42.046875 22.703125 
Q 42.046875 30.125 38.078125 34.390625 
Q 34.125 38.671875 28.125 38.671875 
Q 22.171875 38.671875 18.015625 34.390625 
Q 13.875 30.125 13.875 23.1875 
z
" id="ArialMT-54"/>
      </defs>
      <g style="fill:#262626;" transform="translate(65.21 168.435896)scale(0.11 -0.11)">
       <use xlink:href="#ArialMT-48"/>
       <use x="55.615234" xlink:href="#ArialMT-46"/>
       <use x="83.398438" xlink:href="#ArialMT-54"/>
      </g>
     </g>
    </g>
   </g>
   <g id="PathCollection_1">
    <defs>
     <path d="M 0 3 
C 0.795609 3 1.55874 2.683901 2.12132 2.12132 
C 2.683901 1.55874 3 0.795609 3 0 
C 3 -0.795609 2.683901 -1.55874 2.12132 -2.12132 
C 1.55874 -2.683901 0.795609 -3 0 -3 
C -0.795609 -3 -1.55874 -2.683901 -2.12132 -2.12132 
C -2.683901 -1.55874 -3 -0.795609 -3 0 
C -3 0.795609 -2.683901 1.55874 -2.12132 2.12132 
C -1.55874 2.683901 -0.795609 3 0 3 
z
" id="m3d92b695ce" style="stroke:#64b5cd;"/>
    </defs>
    <g clip-path="url(#p704668739e)">
     <use style="fill:#64b5cd;stroke:#64b5cd;" x="127.148853" xlink:href="#m3d92b695ce" y="384.494136"/>
    </g>
   </g>
   <g id="PathCollection_2">
    <g clip-path="url(#p704668739e)">
     <use style="fill:#64b5cd;stroke:#64b5cd;" x="136.503905" xlink:href="#m3d92b695ce" y="499.635143"/>
    </g>
   </g>
   <g id="PathCollection_3">
    <g clip-path="url(#p704668739e)">
     <use style="fill:#64b5cd;stroke:#64b5cd;" x="155.460084" xlink:href="#m3d92b695ce" y="465.464111"/>
    </g>
   </g>
   <g id="PathCollection_4">
    <g clip-path="url(#p704668739e)">
     <use style="fill:#64b5cd;stroke:#64b5cd;" x="123.003381" xlink:href="#m3d92b695ce" y="446.744321"/>
    </g>
   </g>
   <g id="PathCollection_5">
    <g clip-path="url(#p704668739e)">
     <use style="fill:#64b5cd;stroke:#64b5cd;" x="155.583749" xlink:href="#m3d92b695ce" y="475.195777"/>
    </g>
   </g>
   <g id="PathCollection_6">
    <g clip-path="url(#p704668739e)">
     <use style="fill:#64b5cd;stroke:#64b5cd;" x="165.178116" xlink:href="#m3d92b695ce" y="496.634543"/>
    </g>
   </g>
   <g id="PathCollection_7">
    <g clip-path="url(#p704668739e)">
     <use style="fill:#64b5cd;stroke:#64b5cd;" x="160.940981" xlink:href="#m3d92b695ce" y="503.863827"/>
    </g>
   </g>
   <g id="PathCollection_8">
    <g clip-path="url(#p704668739e)">
     <use style="fill:#64b5cd;stroke:#64b5cd;" x="155.119886" xlink:href="#m3d92b695ce" y="475.460972"/>
    </g>
   </g>
   <g id="PathCollection_9">
    <g clip-path="url(#p704668739e)">
     <use style="fill:#64b5cd;stroke:#64b5cd;" x="148.886649" xlink:href="#m3d92b695ce" y="506.71935"/>
    </g>
   </g>
   <g id="PathCollection_10">
    <g clip-path="url(#p704668739e)">
     <use style="fill:#64b5cd;stroke:#64b5cd;" x="166.51004" xlink:href="#m3d92b695ce" y="470.747873"/>
    </g>
   </g>
   <g id="PathCollection_11">
    <g clip-path="url(#p704668739e)">
     <use style="fill:#64b5cd;stroke:#64b5cd;" x="155.992374" xlink:href="#m3d92b695ce" y="439.123774"/>
    </g>
   </g>
   <g id="PathCollection_12">
    <g clip-path="url(#p704668739e)">
     <use style="fill:#64b5cd;stroke:#64b5cd;" x="146.197614" xlink:href="#m3d92b695ce" y="467.428468"/>
    </g>
   </g>
   <g id="PathCollection_13">
    <g clip-path="url(#p704668739e)">
     <use style="fill:#64b5cd;stroke:#64b5cd;" x="119.723576" xlink:href="#m3d92b695ce" y="464.557711"/>
    </g>
   </g>
   <g id="PathCollection_14">
    <g clip-path="url(#p704668739e)">
     <use style="fill:#64b5cd;stroke:#64b5cd;" x="154.44182" xlink:href="#m3d92b695ce" y="456.124487"/>
    </g>
   </g>
   <g id="PathCollection_15">
    <g clip-path="url(#p704668739e)">
     <use style="fill:#64b5cd;stroke:#64b5cd;" x="138.168374" xlink:href="#m3d92b695ce" y="442.637067"/>
    </g>
   </g>
   <g id="PathCollection_16">
    <g clip-path="url(#p704668739e)">
     <use style="fill:#64b5cd;stroke:#64b5cd;" x="121.933114" xlink:href="#m3d92b695ce" y="455.961215"/>
    </g>
   </g>
   <g id="PathCollection_17">
    <g clip-path="url(#p704668739e)">
     <use style="fill:#64b5cd;stroke:#64b5cd;" x="134.150563" xlink:href="#m3d92b695ce" y="444.071631"/>
    </g>
   </g>
   <g id="PathCollection_18">
    <g clip-path="url(#p704668739e)">
     <use style="fill:#64b5cd;stroke:#64b5cd;" x="145.109784" xlink:href="#m3d92b695ce" y="428.227623"/>
    </g>
   </g>
   <g id="PathCollection_19">
    <g clip-path="url(#p704668739e)">
     <use style="fill:#64b5cd;stroke:#64b5cd;" x="115.363636" xlink:href="#m3d92b695ce" y="390.218705"/>
    </g>
   </g>
   <g id="PathCollection_20">
    <g clip-path="url(#p704668739e)">
     <use style="fill:#64b5cd;stroke:#64b5cd;" x="148.38378" xlink:href="#m3d92b695ce" y="434.552438"/>
    </g>
   </g>
   <g id="PathCollection_21">
    <defs>
     <path d="M 0 3 
C 0.795609 3 1.55874 2.683901 2.12132 2.12132 
C 2.683901 1.55874 3 0.795609 3 0 
C 3 -0.795609 2.683901 -1.55874 2.12132 -2.12132 
C 1.55874 -2.683901 0.795609 -3 0 -3 
C -0.795609 -3 -1.55874 -2.683901 -2.12132 -2.12132 
C -2.683901 -1.55874 -3 -0.795609 -3 0 
C -3 0.795609 -2.683901 1.55874 -2.12132 2.12132 
C -1.55874 2.683901 -0.795609 3 0 3 
z
" id="m323e0aea5d" style="stroke:#c44e52;"/>
    </defs>
    <g clip-path="url(#p704668739e)">
     <use style="fill:#c44e52;stroke:#c44e52;" x="127.477435" xlink:href="#m323e0aea5d" y="389.207795"/>
    </g>
   </g>
   <g id="PathCollection_22">
    <g clip-path="url(#p704668739e)">
     <use style="fill:#c44e52;stroke:#c44e52;" x="145.603574" xlink:href="#m323e0aea5d" y="511.790171"/>
    </g>
   </g>
   <g id="PathCollection_23">
    <g clip-path="url(#p704668739e)">
     <use style="fill:#c44e52;stroke:#c44e52;" x="158.913105" xlink:href="#m323e0aea5d" y="415.705468"/>
    </g>
   </g>
   <g id="PathCollection_24">
    <g clip-path="url(#p704668739e)">
     <use style="fill:#c44e52;stroke:#c44e52;" x="130.595926" xlink:href="#m323e0aea5d" y="444.746457"/>
    </g>
   </g>
   <g id="PathCollection_25">
    <g clip-path="url(#p704668739e)">
     <use style="fill:#c44e52;stroke:#c44e52;" x="163.055061" xlink:href="#m323e0aea5d" y="462.611582"/>
    </g>
   </g>
   <g id="PathCollection_26">
    <g clip-path="url(#p704668739e)">
     <use style="fill:#c44e52;stroke:#c44e52;" x="140.077172" xlink:href="#m323e0aea5d" y="494.15913"/>
    </g>
   </g>
   <g id="PathCollection_27">
    <g clip-path="url(#p704668739e)">
     <use style="fill:#c44e52;stroke:#c44e52;" x="149.861556" xlink:href="#m323e0aea5d" y="473.496463"/>
    </g>
   </g>
   <g id="PathCollection_28">
    <g clip-path="url(#p704668739e)">
     <use style="fill:#c44e52;stroke:#c44e52;" x="154.309267" xlink:href="#m323e0aea5d" y="488.040569"/>
    </g>
   </g>
   <g id="PathCollection_29">
    <g clip-path="url(#p704668739e)">
     <use style="fill:#c44e52;stroke:#c44e52;" x="146.356262" xlink:href="#m323e0aea5d" y="472.312482"/>
    </g>
   </g>
   <g id="PathCollection_30">
    <g clip-path="url(#p704668739e)">
     <use style="fill:#c44e52;stroke:#c44e52;" x="134.204539" xlink:href="#m323e0aea5d" y="476.723369"/>
    </g>
   </g>
   <g id="PathCollection_31">
    <g clip-path="url(#p704668739e)">
     <use style="fill:#c44e52;stroke:#c44e52;" x="124.529052" xlink:href="#m323e0aea5d" y="503.336771"/>
    </g>
   </g>
   <g id="PathCollection_32">
    <g clip-path="url(#p704668739e)">
     <use style="fill:#c44e52;stroke:#c44e52;" x="154.475511" xlink:href="#m323e0aea5d" y="451.783194"/>
    </g>
   </g>
   <g id="PathCollection_33">
    <g clip-path="url(#p704668739e)">
     <use style="fill:#c44e52;stroke:#c44e52;" x="135.509394" xlink:href="#m323e0aea5d" y="456.539853"/>
    </g>
   </g>
   <g id="PathCollection_34">
    <g clip-path="url(#p704668739e)">
     <use style="fill:#c44e52;stroke:#c44e52;" x="161.769433" xlink:href="#m323e0aea5d" y="458.287649"/>
    </g>
   </g>
   <g id="PathCollection_35">
    <g clip-path="url(#p704668739e)">
     <use style="fill:#c44e52;stroke:#c44e52;" x="150.364565" xlink:href="#m323e0aea5d" y="411.315691"/>
    </g>
   </g>
   <g id="PathCollection_36">
    <g clip-path="url(#p704668739e)">
     <use style="fill:#c44e52;stroke:#c44e52;" x="140.186307" xlink:href="#m323e0aea5d" y="441.264256"/>
    </g>
   </g>
   <g id="PathCollection_37">
    <g clip-path="url(#p704668739e)">
     <use style="fill:#c44e52;stroke:#c44e52;" x="138.332947" xlink:href="#m323e0aea5d" y="475.958818"/>
    </g>
   </g>
   <g id="PathCollection_38">
    <g clip-path="url(#p704668739e)">
     <use style="fill:#c44e52;stroke:#c44e52;" x="126.186382" xlink:href="#m323e0aea5d" y="430.269348"/>
    </g>
   </g>
   <g id="PathCollection_39">
    <g clip-path="url(#p704668739e)">
     <use style="fill:#c44e52;stroke:#c44e52;" x="142.795159" xlink:href="#m323e0aea5d" y="451.111848"/>
    </g>
   </g>
   <g id="PathCollection_40">
    <g clip-path="url(#p704668739e)">
     <use style="fill:#c44e52;stroke:#c44e52;" x="151.956147" xlink:href="#m323e0aea5d" y="429.672475"/>
    </g>
   </g>
   <g id="PathCollection_41">
    <defs>
     <path d="M 0 3 
C 0.795609 3 1.55874 2.683901 2.12132 2.12132 
C 2.683901 1.55874 3 0.795609 3 0 
C 3 -0.795609 2.683901 -1.55874 2.12132 -2.12132 
C 1.55874 -2.683901 0.795609 -3 0 -3 
C -0.795609 -3 -1.55874 -2.683901 -2.12132 -2.12132 
C -2.683901 -1.55874 -3 -0.795609 -3 0 
C -3 0.795609 -2.683901 1.55874 -2.12132 2.12132 
C -1.55874 2.683901 -0.795609 3 0 3 
z
" id="m20aff35a22" style="stroke:#8172b3;"/>
    </defs>
    <g clip-path="url(#p704668739e)">
     <use style="fill:#8172b3;stroke:#8172b3;" x="149.18919" xlink:href="#m20aff35a22" y="351.869128"/>
    </g>
   </g>
   <g id="PathCollection_42">
    <g clip-path="url(#p704668739e)">
     <use style="fill:#8172b3;stroke:#8172b3;" x="188.068053" xlink:href="#m20aff35a22" y="413.315838"/>
    </g>
   </g>
   <g id="PathCollection_43">
    <g clip-path="url(#p704668739e)">
     <use style="fill:#8172b3;stroke:#8172b3;" x="176.443751" xlink:href="#m20aff35a22" y="375.386655"/>
    </g>
   </g>
   <g id="PathCollection_44">
    <g clip-path="url(#p704668739e)">
     <use style="fill:#8172b3;stroke:#8172b3;" x="166.555975" xlink:href="#m20aff35a22" y="363.712126"/>
    </g>
   </g>
   <g id="PathCollection_45">
    <g clip-path="url(#p704668739e)">
     <use style="fill:#8172b3;stroke:#8172b3;" x="178.267262" xlink:href="#m20aff35a22" y="401.833672"/>
    </g>
   </g>
   <g id="PathCollection_46">
    <g clip-path="url(#p704668739e)">
     <use style="fill:#8172b3;stroke:#8172b3;" x="166.613718" xlink:href="#m20aff35a22" y="386.857136"/>
    </g>
   </g>
   <g id="PathCollection_47">
    <g clip-path="url(#p704668739e)">
     <use style="fill:#8172b3;stroke:#8172b3;" x="196.24887" xlink:href="#m20aff35a22" y="385.181262"/>
    </g>
   </g>
   <g id="PathCollection_48">
    <g clip-path="url(#p704668739e)">
     <use style="fill:#8172b3;stroke:#8172b3;" x="209.968021" xlink:href="#m20aff35a22" y="451.666762"/>
    </g>
   </g>
   <g id="PathCollection_49">
    <g clip-path="url(#p704668739e)">
     <use style="fill:#8172b3;stroke:#8172b3;" x="188.852079" xlink:href="#m20aff35a22" y="361.909951"/>
    </g>
   </g>
   <g id="PathCollection_50">
    <g clip-path="url(#p704668739e)">
     <use style="fill:#8172b3;stroke:#8172b3;" x="168.003054" xlink:href="#m20aff35a22" y="389.093246"/>
    </g>
   </g>
   <g id="PathCollection_51">
    <g clip-path="url(#p704668739e)">
     <use style="fill:#8172b3;stroke:#8172b3;" x="148.359327" xlink:href="#m20aff35a22" y="351.354209"/>
    </g>
   </g>
   <g id="PathCollection_52">
    <g clip-path="url(#p704668739e)">
     <use style="fill:#8172b3;stroke:#8172b3;" x="189.421109" xlink:href="#m20aff35a22" y="353.257956"/>
    </g>
   </g>
   <g id="PathCollection_53">
    <g clip-path="url(#p704668739e)">
     <use style="fill:#8172b3;stroke:#8172b3;" x="155.954996" xlink:href="#m20aff35a22" y="405.082591"/>
    </g>
   </g>
   <g id="PathCollection_54">
    <g clip-path="url(#p704668739e)">
     <use style="fill:#8172b3;stroke:#8172b3;" x="154.121659" xlink:href="#m20aff35a22" y="362.765489"/>
    </g>
   </g>
   <g id="PathCollection_55">
    <g clip-path="url(#p704668739e)">
     <use style="fill:#8172b3;stroke:#8172b3;" x="164.306204" xlink:href="#m20aff35a22" y="359.82554"/>
    </g>
   </g>
   <g id="PathCollection_56">
    <g clip-path="url(#p704668739e)">
     <use style="fill:#8172b3;stroke:#8172b3;" x="163.883065" xlink:href="#m20aff35a22" y="379.804452"/>
    </g>
   </g>
   <g id="PathCollection_57">
    <g clip-path="url(#p704668739e)">
     <use style="fill:#8172b3;stroke:#8172b3;" x="156.205501" xlink:href="#m20aff35a22" y="380.238146"/>
    </g>
   </g>
   <g id="PathCollection_58">
    <g clip-path="url(#p704668739e)">
     <use style="fill:#8172b3;stroke:#8172b3;" x="151.861473" xlink:href="#m20aff35a22" y="377.13083"/>
    </g>
   </g>
   <g id="PathCollection_59">
    <g clip-path="url(#p704668739e)">
     <use style="fill:#8172b3;stroke:#8172b3;" x="149.265032" xlink:href="#m20aff35a22" y="378.457325"/>
    </g>
   </g>
   <g id="PathCollection_60">
    <g clip-path="url(#p704668739e)">
     <use style="fill:#8172b3;stroke:#8172b3;" x="156.246612" xlink:href="#m20aff35a22" y="345.547337"/>
    </g>
   </g>
   <g id="PathCollection_61">
    <defs>
     <path d="M 0 3 
C 0.795609 3 1.55874 2.683901 2.12132 2.12132 
C 2.683901 1.55874 3 0.795609 3 0 
C 3 -0.795609 2.683901 -1.55874 2.12132 -2.12132 
C 1.55874 -2.683901 0.795609 -3 0 -3 
C -0.795609 -3 -1.55874 -2.683901 -2.12132 -2.12132 
C -2.683901 -1.55874 -3 -0.795609 -3 0 
C -3 0.795609 -2.683901 1.55874 -2.12132 2.12132 
C -1.55874 2.683901 -0.795609 3 0 3 
z
" id="m0293331e3c" style="stroke:#4c72b0;"/>
    </defs>
    <g clip-path="url(#p704668739e)">
     <use style="fill:#4c72b0;stroke:#4c72b0;" x="161.681957" xlink:href="#m0293331e3c" y="440.233478"/>
    </g>
   </g>
   <g id="PathCollection_62">
    <g clip-path="url(#p704668739e)">
     <use style="fill:#4c72b0;stroke:#4c72b0;" x="153.762218" xlink:href="#m0293331e3c" y="401.255308"/>
    </g>
   </g>
   <g id="PathCollection_63">
    <g clip-path="url(#p704668739e)">
     <use style="fill:#4c72b0;stroke:#4c72b0;" x="159.892911" xlink:href="#m0293331e3c" y="478.889329"/>
    </g>
   </g>
   <g id="PathCollection_64">
    <g clip-path="url(#p704668739e)">
     <use style="fill:#4c72b0;stroke:#4c72b0;" x="159.490459" xlink:href="#m0293331e3c" y="511.878788"/>
    </g>
   </g>
   <g id="PathCollection_65">
    <g clip-path="url(#p704668739e)">
     <use style="fill:#4c72b0;stroke:#4c72b0;" x="115.93383" xlink:href="#m0293331e3c" y="473.306989"/>
    </g>
   </g>
   <g id="PathCollection_66">
    <g clip-path="url(#p704668739e)">
     <use style="fill:#4c72b0;stroke:#4c72b0;" x="146.045857" xlink:href="#m0293331e3c" y="485.318819"/>
    </g>
   </g>
   <g id="PathCollection_67">
    <g clip-path="url(#p704668739e)">
     <use style="fill:#4c72b0;stroke:#4c72b0;" x="142.100011" xlink:href="#m0293331e3c" y="423.381091"/>
    </g>
   </g>
   <g id="PathCollection_68">
    <g clip-path="url(#p704668739e)">
     <use style="fill:#4c72b0;stroke:#4c72b0;" x="129.424127" xlink:href="#m0293331e3c" y="433.288323"/>
    </g>
   </g>
   <g id="PathCollection_69">
    <g clip-path="url(#p704668739e)">
     <use style="fill:#4c72b0;stroke:#4c72b0;" x="130.912536" xlink:href="#m0293331e3c" y="399.247552"/>
    </g>
   </g>
   <g id="PathCollection_70">
    <g clip-path="url(#p704668739e)">
     <use style="fill:#4c72b0;stroke:#4c72b0;" x="153.765391" xlink:href="#m0293331e3c" y="491.636312"/>
    </g>
   </g>
   <g id="PathCollection_71">
    <g clip-path="url(#p704668739e)">
     <use style="fill:#4c72b0;stroke:#4c72b0;" x="170.951155" xlink:href="#m0293331e3c" y="425.766947"/>
    </g>
   </g>
   <g id="PathCollection_72">
    <g clip-path="url(#p704668739e)">
     <use style="fill:#4c72b0;stroke:#4c72b0;" x="136.408708" xlink:href="#m0293331e3c" y="519.752055"/>
    </g>
   </g>
   <g id="PathCollection_73">
    <g clip-path="url(#p704668739e)">
     <use style="fill:#4c72b0;stroke:#4c72b0;" x="151.03703" xlink:href="#m0293331e3c" y="459.470393"/>
    </g>
   </g>
   <g id="PathCollection_74">
    <g clip-path="url(#p704668739e)">
     <use style="fill:#4c72b0;stroke:#4c72b0;" x="120.034233" xlink:href="#m0293331e3c" y="401.584069"/>
    </g>
   </g>
   <g id="PathCollection_75">
    <g clip-path="url(#p704668739e)">
     <use style="fill:#4c72b0;stroke:#4c72b0;" x="141.423323" xlink:href="#m0293331e3c" y="444.290496"/>
    </g>
   </g>
   <g id="PathCollection_76">
    <g clip-path="url(#p704668739e)">
     <use style="fill:#4c72b0;stroke:#4c72b0;" x="158.549131" xlink:href="#m0293331e3c" y="499.11573"/>
    </g>
   </g>
   <g id="PathCollection_77">
    <g clip-path="url(#p704668739e)">
     <use style="fill:#4c72b0;stroke:#4c72b0;" x="141.844238" xlink:href="#m0293331e3c" y="450.367801"/>
    </g>
   </g>
   <g id="PathCollection_78">
    <g clip-path="url(#p704668739e)">
     <use style="fill:#4c72b0;stroke:#4c72b0;" x="126.846353" xlink:href="#m0293331e3c" y="410.59635"/>
    </g>
   </g>
   <g id="PathCollection_79">
    <g clip-path="url(#p704668739e)">
     <use style="fill:#4c72b0;stroke:#4c72b0;" x="148.85454" xlink:href="#m0293331e3c" y="464.573269"/>
    </g>
   </g>
   <g id="PathCollection_80">
    <g clip-path="url(#p704668739e)">
     <use style="fill:#4c72b0;stroke:#4c72b0;" x="140.706857" xlink:href="#m0293331e3c" y="442.078742"/>
    </g>
   </g>
   <g id="PathCollection_81">
    <defs>
     <path d="M 0 3 
C 0.795609 3 1.55874 2.683901 2.12132 2.12132 
C 2.683901 1.55874 3 0.795609 3 0 
C 3 -0.795609 2.683901 -1.55874 2.12132 -2.12132 
C 1.55874 -2.683901 0.795609 -3 0 -3 
C -0.795609 -3 -1.55874 -2.683901 -2.12132 -2.12132 
C -2.683901 -1.55874 -3 -0.795609 -3 0 
C -3 0.795609 -2.683901 1.55874 -2.12132 2.12132 
C -1.55874 2.683901 -0.795609 3 0 3 
z
" id="m211f56aa29" style="stroke:#55a868;"/>
    </defs>
    <g clip-path="url(#p704668739e)">
     <use style="fill:#55a868;stroke:#55a868;" x="472.135201" xlink:href="#m211f56aa29" y="544.074002"/>
    </g>
   </g>
   <g id="PathCollection_82">
    <g clip-path="url(#p704668739e)">
     <use style="fill:#55a868;stroke:#55a868;" x="247.150903" xlink:href="#m211f56aa29" y="508.396504"/>
    </g>
   </g>
   <g id="PathCollection_83">
    <g clip-path="url(#p704668739e)">
     <use style="fill:#55a868;stroke:#55a868;" x="438.087531" xlink:href="#m211f56aa29" y="515.369169"/>
    </g>
   </g>
   <g id="PathCollection_84">
    <g clip-path="url(#p704668739e)">
     <use style="fill:#55a868;stroke:#55a868;" x="274.149222" xlink:href="#m211f56aa29" y="518.565406"/>
    </g>
   </g>
   <g id="PathCollection_85">
    <g clip-path="url(#p704668739e)">
     <use style="fill:#55a868;stroke:#55a868;" x="591.492402" xlink:href="#m211f56aa29" y="185.120263"/>
    </g>
   </g>
   <g id="PathCollection_86">
    <g clip-path="url(#p704668739e)">
     <use style="fill:#55a868;stroke:#55a868;" x="319.227125" xlink:href="#m211f56aa29" y="605.290909"/>
    </g>
   </g>
   <g id="PathCollection_87">
    <g clip-path="url(#p704668739e)">
     <use style="fill:#55a868;stroke:#55a868;" x="587.65061" xlink:href="#m211f56aa29" y="530.982174"/>
    </g>
   </g>
   <g id="PathCollection_88">
    <g clip-path="url(#p704668739e)">
     <use style="fill:#55a868;stroke:#55a868;" x="141.740189" xlink:href="#m211f56aa29" y="445.7028"/>
    </g>
   </g>
   <g id="PathCollection_89">
    <g clip-path="url(#p704668739e)">
     <use style="fill:#55a868;stroke:#55a868;" x="419.735706" xlink:href="#m211f56aa29" y="444.976062"/>
    </g>
   </g>
   <g id="PathCollection_90">
    <g clip-path="url(#p704668739e)">
     <use style="fill:#55a868;stroke:#55a868;" x="299.391973" xlink:href="#m211f56aa29" y="492.367598"/>
    </g>
   </g>
   <g id="PathCollection_91">
    <g clip-path="url(#p704668739e)">
     <use style="fill:#55a868;stroke:#55a868;" x="622.636364" xlink:href="#m211f56aa29" y="111.109091"/>
    </g>
   </g>
   <g id="PathCollection_92">
    <g clip-path="url(#p704668739e)">
     <use style="fill:#55a868;stroke:#55a868;" x="314.662875" xlink:href="#m211f56aa29" y="603.422566"/>
    </g>
   </g>
   <g id="PathCollection_93">
    <g clip-path="url(#p704668739e)">
     <use style="fill:#55a868;stroke:#55a868;" x="381.299335" xlink:href="#m211f56aa29" y="403.019072"/>
    </g>
   </g>
   <g id="PathCollection_94">
    <g clip-path="url(#p704668739e)">
     <use style="fill:#55a868;stroke:#55a868;" x="309.666998" xlink:href="#m211f56aa29" y="580.772536"/>
    </g>
   </g>
   <g id="PathCollection_95">
    <g clip-path="url(#p704668739e)">
     <use style="fill:#55a868;stroke:#55a868;" x="513.788711" xlink:href="#m211f56aa29" y="517.94506"/>
    </g>
   </g>
   <g id="PathCollection_96">
    <g clip-path="url(#p704668739e)">
     <use style="fill:#55a868;stroke:#55a868;" x="395.873327" xlink:href="#m211f56aa29" y="571.703488"/>
    </g>
   </g>
   <g id="PathCollection_97">
    <g clip-path="url(#p704668739e)">
     <use style="fill:#55a868;stroke:#55a868;" x="359.965279" xlink:href="#m211f56aa29" y="557.196812"/>
    </g>
   </g>
   <g id="PathCollection_98">
    <g clip-path="url(#p704668739e)">
     <use style="fill:#55a868;stroke:#55a868;" x="245.905319" xlink:href="#m211f56aa29" y="529.074515"/>
    </g>
   </g>
   <g id="PathCollection_99">
    <g clip-path="url(#p704668739e)">
     <use style="fill:#55a868;stroke:#55a868;" x="300.582126" xlink:href="#m211f56aa29" y="504.734591"/>
    </g>
   </g>
   <g id="PathCollection_100">
    <g clip-path="url(#p704668739e)">
     <use style="fill:#55a868;stroke:#55a868;" x="341.938893" xlink:href="#m211f56aa29" y="541.535974"/>
    </g>
   </g>
   <g id="patch_3">
    <path d="M 90 630 
L 90 86.4 
" style="fill:none;stroke:#ffffff;stroke-linecap:square;stroke-linejoin:miter;stroke-width:1.25;"/>
   </g>
   <g id="patch_4">
    <path d="M 648 630 
L 648 86.4 
" style="fill:none;stroke:#ffffff;stroke-linecap:square;stroke-linejoin:miter;stroke-width:1.25;"/>
   </g>
   <g id="patch_5">
    <path d="M 90 630 
L 648 630 
" style="fill:none;stroke:#ffffff;stroke-linecap:square;stroke-linejoin:miter;stroke-width:1.25;"/>
   </g>
   <g id="patch_6">
    <path d="M 90 86.4 
L 648 86.4 
" style="fill:none;stroke:#ffffff;stroke-linecap:square;stroke-linejoin:miter;stroke-width:1.25;"/>
   </g>
   <g id="legend_1">
    <g id="patch_7">
     <path d="M 593.22125 189.473594 
L 640.3 189.473594 
Q 642.5 189.473594 642.5 187.273594 
L 642.5 94.1 
Q 642.5 91.9 640.3 91.9 
L 593.22125 91.9 
Q 591.02125 91.9 591.02125 94.1 
L 591.02125 187.273594 
Q 591.02125 189.473594 593.22125 189.473594 
z
" style="fill:#eaeaf2;opacity:0.8;stroke:#cccccc;stroke-linejoin:miter;"/>
    </g>
    <g id="text_12">
     <!-- Classes -->
     <defs>
      <path d="M 58.796875 25.09375 
L 68.265625 22.703125 
Q 65.28125 11.03125 57.546875 4.90625 
Q 49.8125 -1.21875 38.625 -1.21875 
Q 27.046875 -1.21875 19.796875 3.484375 
Q 12.546875 8.203125 8.765625 17.140625 
Q 4.984375 26.078125 4.984375 36.328125 
Q 4.984375 47.515625 9.25 55.828125 
Q 13.53125 64.15625 21.40625 68.46875 
Q 29.296875 72.796875 38.765625 72.796875 
Q 49.515625 72.796875 56.828125 67.328125 
Q 64.15625 61.859375 67.046875 51.953125 
L 57.71875 49.75 
Q 55.21875 57.5625 50.484375 61.125 
Q 45.75 64.703125 38.578125 64.703125 
Q 30.328125 64.703125 24.78125 60.734375 
Q 19.234375 56.78125 16.984375 50.109375 
Q 14.75 43.453125 14.75 36.375 
Q 14.75 27.25 17.40625 20.4375 
Q 20.0625 13.625 25.671875 10.25 
Q 31.296875 6.890625 37.84375 6.890625 
Q 45.796875 6.890625 51.3125 11.46875 
Q 56.84375 16.0625 58.796875 25.09375 
z
" id="ArialMT-67"/>
      <path d="M 6.390625 0 
L 6.390625 71.578125 
L 15.1875 71.578125 
L 15.1875 0 
z
" id="ArialMT-108"/>
      <path d="M 40.4375 6.390625 
Q 35.546875 2.25 31.03125 0.53125 
Q 26.515625 -1.171875 21.34375 -1.171875 
Q 12.796875 -1.171875 8.203125 3 
Q 3.609375 7.171875 3.609375 13.671875 
Q 3.609375 17.484375 5.34375 20.625 
Q 7.078125 23.78125 9.890625 25.6875 
Q 12.703125 27.59375 16.21875 28.5625 
Q 18.796875 29.25 24.03125 29.890625 
Q 34.671875 31.15625 39.703125 32.90625 
Q 39.75 34.71875 39.75 35.203125 
Q 39.75 40.578125 37.25 42.78125 
Q 33.890625 45.75 27.25 45.75 
Q 21.046875 45.75 18.09375 43.578125 
Q 15.140625 41.40625 13.71875 35.890625 
L 5.125 37.0625 
Q 6.296875 42.578125 8.984375 45.96875 
Q 11.671875 49.359375 16.75 51.1875 
Q 21.828125 53.03125 28.515625 53.03125 
Q 35.15625 53.03125 39.296875 51.46875 
Q 43.453125 49.90625 45.40625 47.53125 
Q 47.359375 45.171875 48.140625 41.546875 
Q 48.578125 39.3125 48.578125 33.453125 
L 48.578125 21.734375 
Q 48.578125 9.46875 49.140625 6.21875 
Q 49.703125 2.984375 51.375 0 
L 42.1875 0 
Q 40.828125 2.734375 40.4375 6.390625 
z
M 39.703125 26.03125 
Q 34.90625 24.078125 25.34375 22.703125 
Q 19.921875 21.921875 17.671875 20.9375 
Q 15.4375 19.96875 14.203125 18.09375 
Q 12.984375 16.21875 12.984375 13.921875 
Q 12.984375 10.40625 15.640625 8.0625 
Q 18.3125 5.71875 23.4375 5.71875 
Q 28.515625 5.71875 32.46875 7.9375 
Q 36.421875 10.15625 38.28125 14.015625 
Q 39.703125 17 39.703125 22.796875 
z
" id="ArialMT-97"/>
      <path d="M 3.078125 15.484375 
L 11.765625 16.84375 
Q 12.5 11.625 15.84375 8.84375 
Q 19.1875 6.0625 25.203125 6.0625 
Q 31.25 6.0625 34.171875 8.515625 
Q 37.109375 10.984375 37.109375 14.3125 
Q 37.109375 17.28125 34.515625 19 
Q 32.71875 20.171875 25.53125 21.96875 
Q 15.875 24.421875 12.140625 26.203125 
Q 8.40625 27.984375 6.46875 31.125 
Q 4.546875 34.28125 4.546875 38.09375 
Q 4.546875 41.546875 6.125 44.5 
Q 7.71875 47.46875 10.453125 49.421875 
Q 12.5 50.921875 16.03125 51.96875 
Q 19.578125 53.03125 23.640625 53.03125 
Q 29.734375 53.03125 34.34375 51.265625 
Q 38.96875 49.515625 41.15625 46.5 
Q 43.359375 43.5 44.1875 38.484375 
L 35.59375 37.3125 
Q 35.015625 41.3125 32.203125 43.546875 
Q 29.390625 45.796875 24.265625 45.796875 
Q 18.21875 45.796875 15.625 43.796875 
Q 13.03125 41.796875 13.03125 39.109375 
Q 13.03125 37.40625 14.109375 36.03125 
Q 15.1875 34.625 17.484375 33.6875 
Q 18.796875 33.203125 25.25 31.453125 
Q 34.578125 28.953125 38.25 27.359375 
Q 41.9375 25.78125 44.03125 22.75 
Q 46.140625 19.734375 46.140625 15.234375 
Q 46.140625 10.84375 43.578125 6.953125 
Q 41.015625 3.078125 36.171875 0.953125 
Q 31.34375 -1.171875 25.25 -1.171875 
Q 15.140625 -1.171875 9.84375 3.03125 
Q 4.546875 7.234375 3.078125 15.484375 
z
" id="ArialMT-115"/>
      <path d="M 42.09375 16.703125 
L 51.171875 15.578125 
Q 49.03125 7.625 43.21875 3.21875 
Q 37.40625 -1.171875 28.375 -1.171875 
Q 17 -1.171875 10.328125 5.828125 
Q 3.65625 12.84375 3.65625 25.484375 
Q 3.65625 38.578125 10.390625 45.796875 
Q 17.140625 53.03125 27.875 53.03125 
Q 38.28125 53.03125 44.875 45.953125 
Q 51.46875 38.875 51.46875 26.03125 
Q 51.46875 25.25 51.421875 23.6875 
L 12.75 23.6875 
Q 13.234375 15.140625 17.578125 10.59375 
Q 21.921875 6.0625 28.421875 6.0625 
Q 33.25 6.0625 36.671875 8.59375 
Q 40.09375 11.140625 42.09375 16.703125 
z
M 13.234375 30.90625 
L 42.1875 30.90625 
Q 41.609375 37.453125 38.875 40.71875 
Q 34.671875 45.796875 27.984375 45.796875 
Q 21.921875 45.796875 17.796875 41.75 
Q 13.671875 37.703125 13.234375 30.90625 
z
" id="ArialMT-101"/>
     </defs>
     <g style="fill:#262626;" transform="translate(595.42125 104.889375)scale(0.12 -0.12)">
      <use xlink:href="#ArialMT-67"/>
      <use x="72.216797" xlink:href="#ArialMT-108"/>
      <use x="94.433594" xlink:href="#ArialMT-97"/>
      <use x="150.048828" xlink:href="#ArialMT-115"/>
      <use x="200.048828" xlink:href="#ArialMT-115"/>
      <use x="250.048828" xlink:href="#ArialMT-101"/>
      <use x="305.664062" xlink:href="#ArialMT-115"/>
     </g>
    </g>
    <g id="line2d_12">
     <path d="M 596.169141 116.797969 
L 618.169141 116.797969 
" style="fill:none;stroke:#4c72b0;stroke-linecap:round;stroke-width:1.5;"/>
    </g>
    <g id="line2d_13">
     <g>
      <use style="fill:#4c72b0;stroke:#4c72b0;" x="607.169141" xlink:href="#m0293331e3c" y="116.797969"/>
     </g>
    </g>
    <g id="text_13">
     <!-- E -->
     <defs>
      <path d="M 7.90625 0 
L 7.90625 71.578125 
L 59.671875 71.578125 
L 59.671875 63.140625 
L 17.390625 63.140625 
L 17.390625 41.21875 
L 56.984375 41.21875 
L 56.984375 32.8125 
L 17.390625 32.8125 
L 17.390625 8.453125 
L 61.328125 8.453125 
L 61.328125 0 
z
" id="ArialMT-69"/>
     </defs>
     <g style="fill:#262626;" transform="translate(626.969141 120.647969)scale(0.11 -0.11)">
      <use xlink:href="#ArialMT-69"/>
     </g>
    </g>
    <g id="line2d_14">
     <path d="M 596.169141 132.357813 
L 618.169141 132.357813 
" style="fill:none;stroke:#55a868;stroke-linecap:round;stroke-width:1.5;"/>
    </g>
    <g id="line2d_15">
     <g>
      <use style="fill:#55a868;stroke:#55a868;" x="607.169141" xlink:href="#m211f56aa29" y="132.357813"/>
     </g>
    </g>
    <g id="text_14">
     <!-- R -->
     <defs>
      <path d="M 7.859375 0 
L 7.859375 71.578125 
L 39.59375 71.578125 
Q 49.171875 71.578125 54.140625 69.640625 
Q 59.125 67.71875 62.109375 62.828125 
Q 65.09375 57.953125 65.09375 52.046875 
Q 65.09375 44.4375 60.15625 39.203125 
Q 55.21875 33.984375 44.921875 32.5625 
Q 48.6875 30.765625 50.640625 29 
Q 54.78125 25.203125 58.5 19.484375 
L 70.953125 0 
L 59.03125 0 
L 49.5625 14.890625 
Q 45.40625 21.34375 42.71875 24.75 
Q 40.046875 28.171875 37.921875 29.53125 
Q 35.796875 30.90625 33.59375 31.453125 
Q 31.984375 31.78125 28.328125 31.78125 
L 17.328125 31.78125 
L 17.328125 0 
z
M 17.328125 39.984375 
L 37.703125 39.984375 
Q 44.1875 39.984375 47.84375 41.328125 
Q 51.515625 42.671875 53.421875 45.625 
Q 55.328125 48.578125 55.328125 52.046875 
Q 55.328125 57.125 51.640625 60.390625 
Q 47.953125 63.671875 39.984375 63.671875 
L 17.328125 63.671875 
z
" id="ArialMT-82"/>
     </defs>
     <g style="fill:#262626;" transform="translate(626.969141 136.207813)scale(0.11 -0.11)">
      <use xlink:href="#ArialMT-82"/>
     </g>
    </g>
    <g id="line2d_16">
     <path d="M 596.169141 147.917656 
L 618.169141 147.917656 
" style="fill:none;stroke:#c44e52;stroke-linecap:round;stroke-width:1.5;"/>
    </g>
    <g id="line2d_17">
     <g>
      <use style="fill:#c44e52;stroke:#c44e52;" x="607.169141" xlink:href="#m323e0aea5d" y="147.917656"/>
     </g>
    </g>
    <g id="text_15">
     <!-- S -->
     <defs>
      <path d="M 4.5 23 
L 13.421875 23.78125 
Q 14.0625 18.40625 16.375 14.96875 
Q 18.703125 11.53125 23.578125 9.40625 
Q 28.46875 7.28125 34.578125 7.28125 
Q 39.984375 7.28125 44.140625 8.890625 
Q 48.296875 10.5 50.3125 13.296875 
Q 52.34375 16.109375 52.34375 19.4375 
Q 52.34375 22.796875 50.390625 25.3125 
Q 48.4375 27.828125 43.953125 29.546875 
Q 41.0625 30.671875 31.203125 33.03125 
Q 21.34375 35.40625 17.390625 37.5 
Q 12.25 40.1875 9.734375 44.15625 
Q 7.234375 48.140625 7.234375 53.078125 
Q 7.234375 58.5 10.296875 63.203125 
Q 13.375 67.921875 19.28125 70.359375 
Q 25.203125 72.796875 32.421875 72.796875 
Q 40.375 72.796875 46.453125 70.234375 
Q 52.546875 67.671875 55.8125 62.6875 
Q 59.078125 57.71875 59.328125 51.421875 
L 50.25 50.734375 
Q 49.515625 57.515625 45.28125 60.984375 
Q 41.0625 64.453125 32.8125 64.453125 
Q 24.21875 64.453125 20.28125 61.296875 
Q 16.359375 58.15625 16.359375 53.71875 
Q 16.359375 49.859375 19.140625 47.359375 
Q 21.875 44.875 33.421875 42.265625 
Q 44.96875 39.65625 49.265625 37.703125 
Q 55.515625 34.8125 58.484375 30.390625 
Q 61.46875 25.984375 61.46875 20.21875 
Q 61.46875 14.5 58.203125 9.4375 
Q 54.9375 4.390625 48.796875 1.578125 
Q 42.671875 -1.21875 35.015625 -1.21875 
Q 25.296875 -1.21875 18.71875 1.609375 
Q 12.15625 4.4375 8.421875 10.125 
Q 4.6875 15.828125 4.5 23 
z
" id="ArialMT-83"/>
     </defs>
     <g style="fill:#262626;" transform="translate(626.969141 151.767656)scale(0.11 -0.11)">
      <use xlink:href="#ArialMT-83"/>
     </g>
    </g>
    <g id="line2d_18">
     <path d="M 596.169141 163.4775 
L 618.169141 163.4775 
" style="fill:none;stroke:#64b5cd;stroke-linecap:round;stroke-width:1.5;"/>
    </g>
    <g id="line2d_19">
     <g>
      <use style="fill:#64b5cd;stroke:#64b5cd;" x="607.169141" xlink:href="#m3d92b695ce" y="163.4775"/>
     </g>
    </g>
    <g id="text_16">
     <!-- V -->
     <defs>
      <path d="M 28.171875 0 
L 0.4375 71.578125 
L 10.6875 71.578125 
L 29.296875 19.578125 
Q 31.546875 13.328125 33.0625 7.859375 
Q 34.71875 13.71875 36.921875 19.578125 
L 56.25 71.578125 
L 65.921875 71.578125 
L 37.890625 0 
z
" id="ArialMT-86"/>
     </defs>
     <g style="fill:#262626;" transform="translate(626.969141 167.3275)scale(0.11 -0.11)">
      <use xlink:href="#ArialMT-86"/>
     </g>
    </g>
    <g id="line2d_20">
     <path d="M 596.169141 179.037344 
L 618.169141 179.037344 
" style="fill:none;stroke:#8172b3;stroke-linecap:round;stroke-width:1.5;"/>
    </g>
    <g id="line2d_21">
     <g>
      <use style="fill:#8172b3;stroke:#8172b3;" x="607.169141" xlink:href="#m20aff35a22" y="179.037344"/>
     </g>
    </g>
    <g id="text_17">
     <!-- W -->
     <defs>
      <path d="M 20.21875 0 
L 1.21875 71.578125 
L 10.9375 71.578125 
L 21.828125 24.65625 
Q 23.578125 17.28125 24.859375 10.015625 
Q 27.59375 21.484375 28.078125 23.25 
L 41.703125 71.578125 
L 53.125 71.578125 
L 63.375 35.359375 
Q 67.234375 21.875 68.953125 10.015625 
Q 70.3125 16.796875 72.515625 25.59375 
L 83.734375 71.578125 
L 93.265625 71.578125 
L 73.640625 0 
L 64.5 0 
L 49.421875 54.546875 
Q 47.515625 61.375 47.171875 62.9375 
Q 46.046875 58.015625 45.0625 54.546875 
L 29.890625 0 
z
" id="ArialMT-87"/>
     </defs>
     <g style="fill:#262626;" transform="translate(626.969141 182.887344)scale(0.11 -0.11)">
      <use xlink:href="#ArialMT-87"/>
     </g>
    </g>
   </g>
  </g>
 </g>
 <defs>
  <clipPath id="p704668739e">
   <rect height="543.6" width="558" x="90" y="86.4"/>
  </clipPath>
 </defs>
</svg>
