<?xml version="1.0" encoding="utf-8" standalone="no"?>
<!DOCTYPE svg PUBLIC "-//W3C//DTD SVG 1.1//EN"
  "http://www.w3.org/Graphics/SVG/1.1/DTD/svg11.dtd">
<!-- Created with matplotlib (https://matplotlib.org/) -->
<svg height="720pt" version="1.1" viewBox="0 0 720 720" width="720pt" xmlns="http://www.w3.org/2000/svg" xmlns:xlink="http://www.w3.org/1999/xlink">
 <defs>
  <style type="text/css">
*{stroke-linecap:butt;stroke-linejoin:round;}
  </style>
 </defs>
 <g id="figure_1">
  <g id="patch_1">
   <path d="M 0 720 
L 720 720 
L 720 0 
L 0 0 
z
" style="fill:#ffffff;"/>
  </g>
  <g id="patch_2">
   <path d="M 90 630 
L 648 630 
L 648 86.4 
L 90 86.4 
z
" style="fill:#eaeaf2;"/>
  </g>
  <g id="pane3d_1">
   <g id="patch_3">
    <path d="M 163.971523 509.883558 
L 323.674042 376.605155 
L 321.015164 121.932002 
L 152.408183 241.679906 
" style="fill:#f2f2f2;opacity:0.5;stroke:#f2f2f2;stroke-linejoin:miter;"/>
   </g>
  </g>
  <g id="pane3d_2">
   <g id="patch_4">
    <path d="M 323.674042 376.605155 
L 582.377109 451.116383 
L 593.200935 188.763664 
L 321.015164 121.932002 
" style="fill:#e6e6e6;opacity:0.5;stroke:#e6e6e6;stroke-linejoin:miter;"/>
   </g>
  </g>
  <g id="pane3d_3">
   <g id="patch_5">
    <path d="M 163.971523 509.883558 
L 436.162105 596.664023 
L 582.377109 451.116383 
L 323.674042 376.605155 
" style="fill:#ececec;opacity:0.5;stroke:#ececec;stroke-linejoin:miter;"/>
   </g>
  </g>
  <g id="axis3d_1">
   <g id="line2d_1">
    <path d="M 163.971523 509.883558 
L 436.162105 596.664023 
" style="fill:none;stroke:#ffffff;stroke-linecap:round;stroke-width:1.25;"/>
   </g>
   <g id="Line3DCollection_1">
    <path d="M 181.584117 515.498848 
L 340.466487 381.441687 
L 338.64682 126.261224 
" style="fill:none;stroke:#ffffff;"/>
    <path d="M 233.779758 532.13999 
L 390.188743 395.762608 
L 390.883192 139.087184 
" style="fill:none;stroke:#ffffff;"/>
    <path d="M 286.917232 549.081409 
L 440.742494 410.323016 
L 444.037942 152.138638 
" style="fill:none;stroke:#ffffff;"/>
    <path d="M 341.022264 566.331307 
L 492.148775 425.128968 
L 498.135503 165.421588 
" style="fill:none;stroke:#ffffff;"/>
    <path d="M 396.121522 583.898187 
L 544.429334 440.186727 
L 553.201184 178.942247 
" style="fill:none;stroke:#ffffff;"/>
   </g>
   <g id="xtick_1">
    <g id="line2d_2">
     <path clip-path="url(#p5a8c399cad)" d="M 376.540541 350.854054 
" style="fill:none;stroke:#ffffff;stroke-linecap:round;"/>
    </g>
    <g id="line2d_3">
     <path d="M 182.952988 514.343862 
L 178.84127 517.813128 
" style="fill:none;stroke:#262626;stroke-linecap:round;stroke-width:1.25;"/>
    </g>
    <g id="text_1">
     <!-- −0.5 -->
     <defs>
      <path d="M 52.828125 31.203125 
L 5.5625 31.203125 
L 5.5625 39.40625 
L 52.828125 39.40625 
z
" id="ArialMT-8722"/>
      <path d="M 4.15625 35.296875 
Q 4.15625 48 6.765625 55.734375 
Q 9.375 63.484375 14.515625 67.671875 
Q 19.671875 71.875 27.484375 71.875 
Q 33.25 71.875 37.59375 69.546875 
Q 41.9375 67.234375 44.765625 62.859375 
Q 47.609375 58.5 49.21875 52.21875 
Q 50.828125 45.953125 50.828125 35.296875 
Q 50.828125 22.703125 48.234375 14.96875 
Q 45.65625 7.234375 40.5 3 
Q 35.359375 -1.21875 27.484375 -1.21875 
Q 17.140625 -1.21875 11.234375 6.203125 
Q 4.15625 15.140625 4.15625 35.296875 
z
M 13.1875 35.296875 
Q 13.1875 17.671875 17.3125 11.828125 
Q 21.4375 6 27.484375 6 
Q 33.546875 6 37.671875 11.859375 
Q 41.796875 17.71875 41.796875 35.296875 
Q 41.796875 52.984375 37.671875 58.78125 
Q 33.546875 64.59375 27.390625 64.59375 
Q 21.34375 64.59375 17.71875 59.46875 
Q 13.1875 52.9375 13.1875 35.296875 
z
" id="ArialMT-48"/>
      <path d="M 9.078125 0 
L 9.078125 10.015625 
L 19.09375 10.015625 
L 19.09375 0 
z
" id="ArialMT-46"/>
      <path d="M 4.15625 18.75 
L 13.375 19.53125 
Q 14.40625 12.796875 18.140625 9.390625 
Q 21.875 6 27.15625 6 
Q 33.5 6 37.890625 10.78125 
Q 42.28125 15.578125 42.28125 23.484375 
Q 42.28125 31 38.0625 35.34375 
Q 33.84375 39.703125 27 39.703125 
Q 22.75 39.703125 19.328125 37.765625 
Q 15.921875 35.84375 13.96875 32.765625 
L 5.71875 33.84375 
L 12.640625 70.609375 
L 48.25 70.609375 
L 48.25 62.203125 
L 19.671875 62.203125 
L 15.828125 42.96875 
Q 22.265625 47.46875 29.34375 47.46875 
Q 38.71875 47.46875 45.15625 40.96875 
Q 51.609375 34.46875 51.609375 24.265625 
Q 51.609375 14.546875 45.953125 7.46875 
Q 39.0625 -1.21875 27.15625 -1.21875 
Q 17.390625 -1.21875 11.203125 4.25 
Q 5.03125 9.71875 4.15625 18.75 
z
" id="ArialMT-53"/>
     </defs>
     <g style="fill:#262626;" transform="translate(164.260965 539.396208)scale(0.11 -0.11)">
      <use xlink:href="#ArialMT-8722"/>
      <use x="58.398438" xlink:href="#ArialMT-48"/>
      <use x="114.013672" xlink:href="#ArialMT-46"/>
      <use x="141.796875" xlink:href="#ArialMT-53"/>
     </g>
    </g>
   </g>
   <g id="xtick_2">
    <g id="line2d_4">
     <path clip-path="url(#p5a8c399cad)" d="M 376.540541 350.854054 
" style="fill:none;stroke:#ffffff;stroke-linecap:round;"/>
    </g>
    <g id="line2d_5">
     <path d="M 235.128179 530.964263 
L 231.077841 534.495867 
" style="fill:none;stroke:#262626;stroke-linecap:round;stroke-width:1.25;"/>
    </g>
    <g id="text_2">
     <!-- 0.0 -->
     <g style="fill:#262626;" transform="translate(219.665754 556.198209)scale(0.11 -0.11)">
      <use xlink:href="#ArialMT-48"/>
      <use x="55.615234" xlink:href="#ArialMT-46"/>
      <use x="83.398438" xlink:href="#ArialMT-48"/>
     </g>
    </g>
   </g>
   <g id="xtick_3">
    <g id="line2d_6">
     <path clip-path="url(#p5a8c399cad)" d="M 376.540541 350.854054 
" style="fill:none;stroke:#ffffff;stroke-linecap:round;"/>
    </g>
    <g id="line2d_7">
     <path d="M 288.24424 547.884378 
L 284.258176 551.480016 
" style="fill:none;stroke:#262626;stroke-linecap:round;stroke-width:1.25;"/>
    </g>
    <g id="text_3">
     <!-- 0.5 -->
     <g style="fill:#262626;" transform="translate(272.800971 573.30371)scale(0.11 -0.11)">
      <use xlink:href="#ArialMT-48"/>
      <use x="55.615234" xlink:href="#ArialMT-46"/>
      <use x="83.398438" xlink:href="#ArialMT-53"/>
     </g>
    </g>
   </g>
   <g id="xtick_4">
    <g id="line2d_8">
     <path clip-path="url(#p5a8c399cad)" d="M 376.540541 350.854054 
" style="fill:none;stroke:#ffffff;stroke-linecap:round;"/>
    </g>
    <g id="line2d_9">
     <path d="M 342.326852 565.112388 
L 338.408087 568.773816 
" style="fill:none;stroke:#262626;stroke-linecap:round;stroke-width:1.25;"/>
    </g>
    <g id="text_4">
     <!-- 1.0 -->
     <defs>
      <path d="M 37.25 0 
L 28.46875 0 
L 28.46875 56 
Q 25.296875 52.984375 20.140625 49.953125 
Q 14.984375 46.921875 10.890625 45.40625 
L 10.890625 53.90625 
Q 18.265625 57.375 23.78125 62.296875 
Q 29.296875 67.234375 31.59375 71.875 
L 37.25 71.875 
z
" id="ArialMT-49"/>
     </defs>
     <g style="fill:#262626;" transform="translate(326.904736 590.72101)scale(0.11 -0.11)">
      <use xlink:href="#ArialMT-49"/>
      <use x="55.615234" xlink:href="#ArialMT-46"/>
      <use x="83.398438" xlink:href="#ArialMT-48"/>
     </g>
    </g>
   </g>
   <g id="xtick_5">
    <g id="line2d_10">
     <path clip-path="url(#p5a8c399cad)" d="M 376.540541 350.854054 
" style="fill:none;stroke:#ffffff;stroke-linecap:round;"/>
    </g>
    <g id="line2d_11">
     <path d="M 397.40264 582.656774 
L 393.554333 586.385815 
" style="fill:none;stroke:#262626;stroke-linecap:round;stroke-width:1.25;"/>
    </g>
    <g id="text_5">
     <!-- 1.5 -->
     <g style="fill:#262626;" transform="translate(382.003775 608.458713)scale(0.11 -0.11)">
      <use xlink:href="#ArialMT-49"/>
      <use x="55.615234" xlink:href="#ArialMT-46"/>
      <use x="83.398438" xlink:href="#ArialMT-53"/>
     </g>
    </g>
   </g>
  </g>
  <g id="axis3d_2">
   <g id="line2d_12">
    <path d="M 582.377109 451.116383 
L 436.162105 596.664023 
" style="fill:none;stroke:#ffffff;stroke-linecap:round;stroke-width:1.25;"/>
   </g>
   <g id="Line3DCollection_2">
    <path d="M 186.249496 217.645158 
L 195.925814 483.216371 
L 465.496292 567.463725 
" style="fill:none;stroke:#ffffff;"/>
    <path d="M 217.270121 195.613716 
L 225.260624 458.73525 
L 492.39111 540.691663 
" style="fill:none;stroke:#ffffff;"/>
    <path d="M 247.428537 174.194632 
L 253.820446 434.900889 
L 518.543573 514.658566 
" style="fill:none;stroke:#ffffff;"/>
    <path d="M 276.760197 153.362726 
L 281.635592 411.687992 
L 543.984 489.334255 
" style="fill:none;stroke:#ffffff;"/>
    <path d="M 305.298639 133.094179 
L 308.734811 389.072565 
L 568.741079 464.690174 
" style="fill:none;stroke:#ffffff;"/>
   </g>
   <g id="xtick_6">
    <g id="line2d_13">
     <path clip-path="url(#p5a8c399cad)" d="M 376.540541 350.854054 
" style="fill:none;stroke:#ffffff;stroke-linecap:round;"/>
    </g>
    <g id="line2d_14">
     <path d="M 463.241215 566.758959 
L 470.011437 568.874818 
" style="fill:none;stroke:#262626;stroke-linecap:round;stroke-width:1.25;"/>
    </g>
    <g id="text_6">
     <!-- 0.0 -->
     <g style="fill:#262626;" transform="translate(468.96255 589.256635)scale(0.11 -0.11)">
      <use xlink:href="#ArialMT-48"/>
      <use x="55.615234" xlink:href="#ArialMT-46"/>
      <use x="83.398438" xlink:href="#ArialMT-48"/>
     </g>
    </g>
   </g>
   <g id="xtick_7">
    <g id="line2d_15">
     <path clip-path="url(#p5a8c399cad)" d="M 376.540541 350.854054 
" style="fill:none;stroke:#ffffff;stroke-linecap:round;"/>
    </g>
    <g id="line2d_16">
     <path d="M 490.15781 540.00648 
L 496.862582 542.063523 
" style="fill:none;stroke:#262626;stroke-linecap:round;stroke-width:1.25;"/>
    </g>
    <g id="text_7">
     <!-- 0.5 -->
     <g style="fill:#262626;" transform="translate(495.694345 562.297376)scale(0.11 -0.11)">
      <use xlink:href="#ArialMT-48"/>
      <use x="55.615234" xlink:href="#ArialMT-46"/>
      <use x="83.398438" xlink:href="#ArialMT-53"/>
     </g>
    </g>
   </g>
   <g id="xtick_8">
    <g id="line2d_17">
     <path clip-path="url(#p5a8c399cad)" d="M 376.540541 350.854054 
" style="fill:none;stroke:#ffffff;stroke-linecap:round;"/>
    </g>
    <g id="line2d_18">
     <path d="M 516.331715 513.992161 
L 522.972048 515.992808 
" style="fill:none;stroke:#262626;stroke-linecap:round;stroke-width:1.25;"/>
    </g>
    <g id="text_8">
     <!-- 1.0 -->
     <g style="fill:#262626;" transform="translate(521.68849 536.082044)scale(0.11 -0.11)">
      <use xlink:href="#ArialMT-49"/>
      <use x="55.615234" xlink:href="#ArialMT-46"/>
      <use x="83.398438" xlink:href="#ArialMT-48"/>
     </g>
    </g>
   </g>
   <g id="xtick_9">
    <g id="line2d_19">
     <path clip-path="url(#p5a8c399cad)" d="M 376.540541 350.854054 
" style="fill:none;stroke:#ffffff;stroke-linecap:round;"/>
    </g>
    <g id="line2d_20">
     <path d="M 541.793253 488.685868 
L 548.370144 490.632406 
" style="fill:none;stroke:#262626;stroke-linecap:round;stroke-width:1.25;"/>
    </g>
    <g id="text_9">
     <!-- 1.5 -->
     <g style="fill:#262626;" transform="translate(546.975103 510.580264)scale(0.11 -0.11)">
      <use xlink:href="#ArialMT-49"/>
      <use x="55.615234" xlink:href="#ArialMT-46"/>
      <use x="83.398438" xlink:href="#ArialMT-53"/>
     </g>
    </g>
   </g>
   <g id="xtick_10">
    <g id="line2d_21">
     <path clip-path="url(#p5a8c399cad)" d="M 376.540541 350.854054 
" style="fill:none;stroke:#ffffff;stroke-linecap:round;"/>
    </g>
    <g id="line2d_22">
     <path d="M 566.571113 464.059083 
L 573.085554 465.953678 
" style="fill:none;stroke:#262626;stroke-linecap:round;stroke-width:1.25;"/>
    </g>
    <g id="text_10">
     <!-- 2.0 -->
     <defs>
      <path d="M 50.34375 8.453125 
L 50.34375 0 
L 3.03125 0 
Q 2.9375 3.171875 4.046875 6.109375 
Q 5.859375 10.9375 9.828125 15.625 
Q 13.8125 20.3125 21.34375 26.46875 
Q 33.015625 36.03125 37.109375 41.625 
Q 41.21875 47.21875 41.21875 52.203125 
Q 41.21875 57.421875 37.46875 61 
Q 33.734375 64.59375 27.734375 64.59375 
Q 21.390625 64.59375 17.578125 60.78125 
Q 13.765625 56.984375 13.71875 50.25 
L 4.6875 51.171875 
Q 5.609375 61.28125 11.65625 66.578125 
Q 17.71875 71.875 27.9375 71.875 
Q 38.234375 71.875 44.234375 66.15625 
Q 50.25 60.453125 50.25 52 
Q 50.25 47.703125 48.484375 43.546875 
Q 46.734375 39.40625 42.65625 34.8125 
Q 38.578125 30.21875 29.109375 22.21875 
Q 21.1875 15.578125 18.9375 13.203125 
Q 16.703125 10.84375 15.234375 8.453125 
z
" id="ArialMT-50"/>
     </defs>
     <g style="fill:#262626;" transform="translate(571.582683 485.763296)scale(0.11 -0.11)">
      <use xlink:href="#ArialMT-50"/>
      <use x="55.615234" xlink:href="#ArialMT-46"/>
      <use x="83.398438" xlink:href="#ArialMT-48"/>
     </g>
    </g>
   </g>
  </g>
  <g id="axis3d_3">
   <g id="line2d_23">
    <path d="M 582.377109 451.116383 
L 593.200935 188.763664 
" style="fill:none;stroke:#ffffff;stroke-linecap:round;stroke-width:1.25;"/>
   </g>
   <g id="Line3DCollection_3">
    <path d="M 583.584657 421.847292 
L 323.376833 348.137794 
L 162.683443 480.007445 
" style="fill:none;stroke:#ffffff;"/>
    <path d="M 585.134793 384.274407 
L 322.995516 311.614385 
L 161.029204 441.638509 
" style="fill:none;stroke:#ffffff;"/>
    <path d="M 586.708316 346.134663 
L 322.608689 274.563262 
L 159.349173 402.671358 
" style="fill:none;stroke:#ffffff;"/>
    <path d="M 588.305759 307.415133 
L 322.216232 236.972904 
L 157.642743 363.091893 
" style="fill:none;stroke:#ffffff;"/>
    <path d="M 589.927671 268.102497 
L 321.818022 198.831454 
L 155.909286 322.885566 
" style="fill:none;stroke:#ffffff;"/>
    <path d="M 591.57462 228.183021 
L 321.413931 160.126702 
L 154.148156 282.037367 
" style="fill:none;stroke:#ffffff;"/>
   </g>
   <g id="xtick_11">
    <g id="line2d_24">
     <path clip-path="url(#p5a8c399cad)" d="M 376.540541 350.854054 
" style="fill:none;stroke:#ffffff;stroke-linecap:round;"/>
    </g>
    <g id="line2d_25">
     <path d="M 581.41316 421.232169 
L 587.93219 423.078825 
" style="fill:none;stroke:#262626;stroke-linecap:round;stroke-width:1.25;"/>
    </g>
    <g id="text_11">
     <!-- −0.4 -->
     <defs>
      <path d="M 32.328125 0 
L 32.328125 17.140625 
L 1.265625 17.140625 
L 1.265625 25.203125 
L 33.9375 71.578125 
L 41.109375 71.578125 
L 41.109375 25.203125 
L 50.78125 25.203125 
L 50.78125 17.140625 
L 41.109375 17.140625 
L 41.109375 0 
z
M 32.328125 25.203125 
L 32.328125 57.46875 
L 9.90625 25.203125 
z
" id="ArialMT-52"/>
     </defs>
     <g style="fill:#262626;" transform="translate(589.041682 427.466566)scale(0.11 -0.11)">
      <use xlink:href="#ArialMT-8722"/>
      <use x="58.398438" xlink:href="#ArialMT-48"/>
      <use x="114.013672" xlink:href="#ArialMT-46"/>
      <use x="141.796875" xlink:href="#ArialMT-52"/>
     </g>
    </g>
   </g>
   <g id="xtick_12">
    <g id="line2d_26">
     <path clip-path="url(#p5a8c399cad)" d="M 376.540541 350.854054 
" style="fill:none;stroke:#ffffff;stroke-linecap:round;"/>
    </g>
    <g id="line2d_27">
     <path d="M 582.9465 383.667854 
L 589.515987 385.488791 
" style="fill:none;stroke:#262626;stroke-linecap:round;stroke-width:1.25;"/>
    </g>
    <g id="text_12">
     <!-- −0.2 -->
     <g style="fill:#262626;" transform="translate(590.711814 389.925105)scale(0.11 -0.11)">
      <use xlink:href="#ArialMT-8722"/>
      <use x="58.398438" xlink:href="#ArialMT-48"/>
      <use x="114.013672" xlink:href="#ArialMT-46"/>
      <use x="141.796875" xlink:href="#ArialMT-50"/>
     </g>
    </g>
   </g>
   <g id="xtick_13">
    <g id="line2d_28">
     <path clip-path="url(#p5a8c399cad)" d="M 376.540541 350.854054 
" style="fill:none;stroke:#ffffff;stroke-linecap:round;"/>
    </g>
    <g id="line2d_29">
     <path d="M 584.502966 345.537009 
L 591.123696 347.331237 
" style="fill:none;stroke:#262626;stroke-linecap:round;stroke-width:1.25;"/>
    </g>
    <g id="text_13">
     <!-- 0.0 -->
     <g style="fill:#262626;" transform="translate(595.619455 351.817992)scale(0.11 -0.11)">
      <use xlink:href="#ArialMT-48"/>
      <use x="55.615234" xlink:href="#ArialMT-46"/>
      <use x="83.398438" xlink:href="#ArialMT-48"/>
     </g>
    </g>
   </g>
   <g id="xtick_14">
    <g id="line2d_30">
     <path clip-path="url(#p5a8c399cad)" d="M 376.540541 350.854054 
" style="fill:none;stroke:#ffffff;stroke-linecap:round;"/>
    </g>
    <g id="line2d_31">
     <path d="M 586.083083 306.826721 
L 592.755861 308.593215 
" style="fill:none;stroke:#262626;stroke-linecap:round;stroke-width:1.25;"/>
    </g>
    <g id="text_14">
     <!-- 0.2 -->
     <g style="fill:#262626;" transform="translate(597.34049 313.132346)scale(0.11 -0.11)">
      <use xlink:href="#ArialMT-48"/>
      <use x="55.615234" xlink:href="#ArialMT-46"/>
      <use x="83.398438" xlink:href="#ArialMT-50"/>
     </g>
    </g>
   </g>
   <g id="xtick_15">
    <g id="line2d_32">
     <path clip-path="url(#p5a8c399cad)" d="M 376.540541 350.854054 
" style="fill:none;stroke:#ffffff;stroke-linecap:round;"/>
    </g>
    <g id="line2d_33">
     <path d="M 587.687397 267.523681 
L 594.413047 269.261376 
" style="fill:none;stroke:#262626;stroke-linecap:round;stroke-width:1.25;"/>
    </g>
    <g id="text_15">
     <!-- 0.4 -->
     <g style="fill:#262626;" transform="translate(599.087853 273.854891)scale(0.11 -0.11)">
      <use xlink:href="#ArialMT-48"/>
      <use x="55.615234" xlink:href="#ArialMT-46"/>
      <use x="83.398438" xlink:href="#ArialMT-52"/>
     </g>
    </g>
   </g>
   <g id="xtick_16">
    <g id="line2d_34">
     <path clip-path="url(#p5a8c399cad)" d="M 376.540541 350.854054 
" style="fill:none;stroke:#ffffff;stroke-linecap:round;"/>
    </g>
    <g id="line2d_35">
     <path d="M 589.316466 227.614168 
L 596.095831 229.321961 
" style="fill:none;stroke:#262626;stroke-linecap:round;stroke-width:1.25;"/>
    </g>
    <g id="text_16">
     <!-- 0.6 -->
     <defs>
      <path d="M 49.75 54.046875 
L 41.015625 53.375 
Q 39.84375 58.546875 37.703125 60.890625 
Q 34.125 64.65625 28.90625 64.65625 
Q 24.703125 64.65625 21.53125 62.3125 
Q 17.390625 59.28125 14.984375 53.46875 
Q 12.59375 47.65625 12.5 36.921875 
Q 15.671875 41.75 20.265625 44.09375 
Q 24.859375 46.4375 29.890625 46.4375 
Q 38.671875 46.4375 44.84375 39.96875 
Q 51.03125 33.5 51.03125 23.25 
Q 51.03125 16.5 48.125 10.71875 
Q 45.21875 4.9375 40.140625 1.859375 
Q 35.0625 -1.21875 28.609375 -1.21875 
Q 17.625 -1.21875 10.6875 6.859375 
Q 3.765625 14.9375 3.765625 33.5 
Q 3.765625 54.25 11.421875 63.671875 
Q 18.109375 71.875 29.4375 71.875 
Q 37.890625 71.875 43.28125 67.140625 
Q 48.6875 62.40625 49.75 54.046875 
z
M 13.875 23.1875 
Q 13.875 18.65625 15.796875 14.5 
Q 17.71875 10.359375 21.1875 8.171875 
Q 24.65625 6 28.46875 6 
Q 34.03125 6 38.03125 10.484375 
Q 42.046875 14.984375 42.046875 22.703125 
Q 42.046875 30.125 38.078125 34.390625 
Q 34.125 38.671875 28.125 38.671875 
Q 22.171875 38.671875 18.015625 34.390625 
Q 13.875 30.125 13.875 23.1875 
z
" id="ArialMT-54"/>
     </defs>
     <g style="fill:#262626;" transform="translate(600.862153 233.971943)scale(0.11 -0.11)">
      <use xlink:href="#ArialMT-48"/>
      <use x="55.615234" xlink:href="#ArialMT-46"/>
      <use x="83.398438" xlink:href="#ArialMT-54"/>
     </g>
    </g>
   </g>
  </g>
  <g id="axes_1">
   <g id="Path3DCollection_1">
    <defs>
     <path d="M 0 2.236068 
C 0.593012 2.236068 1.161816 2.000462 1.581139 1.581139 
C 2.000462 1.161816 2.236068 0.593012 2.236068 0 
C 2.236068 -0.593012 2.000462 -1.161816 1.581139 -1.581139 
C 1.161816 -2.000462 0.593012 -2.236068 0 -2.236068 
C -0.593012 -2.236068 -1.161816 -2.000462 -1.581139 -1.581139 
C -2.000462 -1.161816 -2.236068 -0.593012 -2.236068 0 
C -2.236068 0.593012 -2.000462 1.161816 -1.581139 1.581139 
C -1.161816 2.000462 -0.593012 2.236068 0 2.236068 
z
" id="C0_0_4129909cd7"/>
    </defs>
    <g clip-path="url(#p5a8c399cad)">
     <use style="fill:#64b5cd;fill-opacity:0.559929;stroke:#64b5cd;stroke-opacity:0.559929;" x="227.417218" xlink:href="#C0_0_4129909cd7" y="449.540091"/>
    </g>
    <g clip-path="url(#p5a8c399cad)">
     <use style="fill:#55a868;fill-opacity:0.605377;stroke:#55a868;stroke-opacity:0.605377;" x="253.678804" xlink:href="#C0_0_4129909cd7" y="450.151424"/>
    </g>
    <g clip-path="url(#p5a8c399cad)">
     <use style="fill:#c44e52;fill-opacity:0.648463;stroke:#c44e52;stroke-opacity:0.648463;" x="224.191886" xlink:href="#C0_0_4129909cd7" y="424.114366"/>
    </g>
    <g clip-path="url(#p5a8c399cad)">
     <use style="fill:#8172b3;fill-opacity:0.797008;stroke:#8172b3;stroke-opacity:0.797008;" x="327.039825" xlink:href="#C0_0_4129909cd7" y="353.897183"/>
    </g>
    <g clip-path="url(#p5a8c399cad)">
     <use style="fill:#4c72b0;fill-opacity:0.581017;stroke:#4c72b0;stroke-opacity:0.581017;" x="220.567065" xlink:href="#C0_0_4129909cd7" y="430.003071"/>
    </g>
    <g clip-path="url(#p5a8c399cad)">
     <use style="fill:#64b5cd;fill-opacity:0.535025;stroke:#64b5cd;stroke-opacity:0.535025;" x="224.926287" xlink:href="#C0_0_4129909cd7" y="449.484534"/>
    </g>
    <g clip-path="url(#p5a8c399cad)">
     <use style="fill:#55a868;fill-opacity:0.576293;stroke:#55a868;stroke-opacity:0.576293;" x="250.209256" xlink:href="#C0_0_4129909cd7" y="443.672806"/>
    </g>
    <g clip-path="url(#p5a8c399cad)">
     <use style="fill:#c44e52;fill-opacity:0.646952;stroke:#c44e52;stroke-opacity:0.646952;" x="224.310329" xlink:href="#C0_0_4129909cd7" y="367.329011"/>
    </g>
    <g clip-path="url(#p5a8c399cad)">
     <use style="fill:#8172b3;fill-opacity:0.766377;stroke:#8172b3;stroke-opacity:0.766377;" x="320.117034" xlink:href="#C0_0_4129909cd7" y="422.549433"/>
    </g>
    <g clip-path="url(#p5a8c399cad)">
     <use style="fill:#4c72b0;fill-opacity:0.622099;stroke:#4c72b0;stroke-opacity:0.622099;" x="225.181164" xlink:href="#C0_0_4129909cd7" y="421.104174"/>
    </g>
    <g clip-path="url(#p5a8c399cad)">
     <use style="fill:#64b5cd;fill-opacity:0.624076;stroke:#64b5cd;stroke-opacity:0.624076;" x="236.921339" xlink:href="#C0_0_4129909cd7" y="371.885736"/>
    </g>
    <g clip-path="url(#p5a8c399cad)">
     <use style="fill:#55a868;fill-opacity:0.606399;stroke:#55a868;stroke-opacity:0.606399;" x="263.848933" xlink:href="#C0_0_4129909cd7" y="438.755359"/>
    </g>
    <g clip-path="url(#p5a8c399cad)">
     <use style="fill:#c44e52;fill-opacity:0.65233;stroke:#c44e52;stroke-opacity:0.65233;" x="243.962361" xlink:href="#C0_0_4129909cd7" y="441.94349"/>
    </g>
    <g clip-path="url(#p5a8c399cad)">
     <use style="fill:#8172b3;fill-opacity:0.881334;stroke:#8172b3;stroke-opacity:0.881334;" x="368.523737" xlink:href="#C0_0_4129909cd7" y="442.190738"/>
    </g>
    <g clip-path="url(#p5a8c399cad)">
     <use style="fill:#4c72b0;fill-opacity:0.605452;stroke:#4c72b0;stroke-opacity:0.605452;" x="228.234438" xlink:href="#C0_0_4129909cd7" y="434.301777"/>
    </g>
    <g clip-path="url(#p5a8c399cad)">
     <use style="fill:#64b5cd;fill-opacity:0.589831;stroke:#64b5cd;stroke-opacity:0.589831;" x="259.479119" xlink:href="#C0_0_4129909cd7" y="440.94884"/>
    </g>
    <g clip-path="url(#p5a8c399cad)">
     <use style="fill:#55a868;fill-opacity:0.632493;stroke:#55a868;stroke-opacity:0.632493;" x="259.659596" xlink:href="#C0_0_4129909cd7" y="378.007532"/>
    </g>
    <g clip-path="url(#p5a8c399cad)">
     <use style="fill:#c44e52;fill-opacity:0.679578;stroke:#c44e52;stroke-opacity:0.679578;" x="225.455224" xlink:href="#C0_0_4129909cd7" y="384.445361"/>
    </g>
    <g clip-path="url(#p5a8c399cad)">
     <use style="fill:#8172b3;stroke:#8172b3;" x="361.5154" xlink:href="#C0_0_4129909cd7" y="291.228402"/>
    </g>
    <g clip-path="url(#p5a8c399cad)">
     <use style="fill:#4c72b0;fill-opacity:0.743872;stroke:#4c72b0;stroke-opacity:0.743872;" x="204.837026" xlink:href="#C0_0_4129909cd7" y="313.262898"/>
    </g>
    <g clip-path="url(#p5a8c399cad)">
     <use style="fill:#64b5cd;fill-opacity:0.638283;stroke:#64b5cd;stroke-opacity:0.638283;" x="241.390181" xlink:href="#C0_0_4129909cd7" y="423.519446"/>
    </g>
    <g clip-path="url(#p5a8c399cad)">
     <use style="fill:#55a868;fill-opacity:0.589282;stroke:#55a868;stroke-opacity:0.589282;" x="253.524898" xlink:href="#C0_0_4129909cd7" y="393.098317"/>
    </g>
    <g clip-path="url(#p5a8c399cad)">
     <use style="fill:#c44e52;fill-opacity:0.729745;stroke:#c44e52;stroke-opacity:0.729745;" x="215.00543" xlink:href="#C0_0_4129909cd7" y="360.725534"/>
    </g>
    <g clip-path="url(#p5a8c399cad)">
     <use style="fill:#8172b3;fill-opacity:0.834;stroke:#8172b3;stroke-opacity:0.834;" x="343.997215" xlink:href="#C0_0_4129909cd7" y="421.239004"/>
    </g>
    <g clip-path="url(#p5a8c399cad)">
     <use style="fill:#4c72b0;fill-opacity:0.690162;stroke:#4c72b0;stroke-opacity:0.690162;" x="233.312398" xlink:href="#C0_0_4129909cd7" y="405.812019"/>
    </g>
    <g clip-path="url(#p5a8c399cad)">
     <use style="fill:#64b5cd;fill-opacity:0.651344;stroke:#64b5cd;stroke-opacity:0.651344;" x="238.069896" xlink:href="#C0_0_4129909cd7" y="408.562594"/>
    </g>
    <g clip-path="url(#p5a8c399cad)">
     <use style="fill:#55a868;fill-opacity:0.699024;stroke:#55a868;stroke-opacity:0.699024;" x="246.831849" xlink:href="#C0_0_4129909cd7" y="335.372927"/>
    </g>
    <g clip-path="url(#p5a8c399cad)">
     <use style="fill:#c44e52;fill-opacity:0.643897;stroke:#c44e52;stroke-opacity:0.643897;" x="220.665899" xlink:href="#C0_0_4129909cd7" y="347.612085"/>
    </g>
    <g clip-path="url(#p5a8c399cad)">
     <use style="fill:#8172b3;fill-opacity:0.776983;stroke:#8172b3;stroke-opacity:0.776983;" x="328.369064" xlink:href="#C0_0_4129909cd7" y="450.386326"/>
    </g>
    <g clip-path="url(#p5a8c399cad)">
     <use style="fill:#4c72b0;fill-opacity:0.633279;stroke:#4c72b0;stroke-opacity:0.633279;" x="228.774783" xlink:href="#C0_0_4129909cd7" y="424.796486"/>
    </g>
    <g clip-path="url(#p5a8c399cad)">
     <use style="fill:#64b5cd;fill-opacity:0.565741;stroke:#64b5cd;stroke-opacity:0.565741;" x="247.685309" xlink:href="#C0_0_4129909cd7" y="438.948992"/>
    </g>
    <g clip-path="url(#p5a8c399cad)">
     <use style="fill:#55a868;fill-opacity:0.715011;stroke:#55a868;stroke-opacity:0.715011;" x="234.286766" xlink:href="#C0_0_4129909cd7" y="286.181787"/>
    </g>
    <g clip-path="url(#p5a8c399cad)">
     <use style="fill:#c44e52;fill-opacity:0.771074;stroke:#c44e52;stroke-opacity:0.771074;" x="221.192954" xlink:href="#C0_0_4129909cd7" y="335.919266"/>
    </g>
    <g clip-path="url(#p5a8c399cad)">
     <use style="fill:#8172b3;fill-opacity:0.855383;stroke:#8172b3;stroke-opacity:0.855383;" x="331.952179" xlink:href="#C0_0_4129909cd7" y="319.688753"/>
    </g>
    <g clip-path="url(#p5a8c399cad)">
     <use style="fill:#4c72b0;fill-opacity:0.775794;stroke:#4c72b0;stroke-opacity:0.775794;" x="226.288827" xlink:href="#C0_0_4129909cd7" y="351.553694"/>
    </g>
    <g clip-path="url(#p5a8c399cad)">
     <use style="fill:#64b5cd;fill-opacity:0.597012;stroke:#64b5cd;stroke-opacity:0.597012;" x="242.873984" xlink:href="#C0_0_4129909cd7" y="443.204964"/>
    </g>
    <g clip-path="url(#p5a8c399cad)">
     <use style="fill:#55a868;fill-opacity:0.59326;stroke:#55a868;stroke-opacity:0.59326;" x="250.241821" xlink:href="#C0_0_4129909cd7" y="432.742147"/>
    </g>
    <g clip-path="url(#p5a8c399cad)">
     <use style="fill:#c44e52;fill-opacity:0.693485;stroke:#c44e52;stroke-opacity:0.693485;" x="236.897275" xlink:href="#C0_0_4129909cd7" y="438.272315"/>
    </g>
    <g clip-path="url(#p5a8c399cad)">
     <use style="fill:#8172b3;fill-opacity:0.778482;stroke:#8172b3;stroke-opacity:0.778482;" x="375.309905" xlink:href="#C0_0_4129909cd7" y="419.713567"/>
    </g>
    <g clip-path="url(#p5a8c399cad)">
     <use style="fill:#4c72b0;fill-opacity:0.706798;stroke:#4c72b0;stroke-opacity:0.706798;" x="217.449303" xlink:href="#C0_0_4129909cd7" y="338.345123"/>
    </g>
    <g clip-path="url(#p5a8c399cad)">
     <use style="fill:#64b5cd;fill-opacity:0.561092;stroke:#64b5cd;stroke-opacity:0.561092;" x="248.647134" xlink:href="#C0_0_4129909cd7" y="459.688372"/>
    </g>
    <g clip-path="url(#p5a8c399cad)">
     <use style="fill:#55a868;fill-opacity:0.3;stroke:#55a868;stroke-opacity:0.3;" x="344.436051" xlink:href="#C0_0_4129909cd7" y="266.45157"/>
    </g>
    <g clip-path="url(#p5a8c399cad)">
     <use style="fill:#c44e52;fill-opacity:0.664048;stroke:#c44e52;stroke-opacity:0.664048;" x="223.064245" xlink:href="#C0_0_4129909cd7" y="431.493538"/>
    </g>
    <g clip-path="url(#p5a8c399cad)">
     <use style="fill:#8172b3;fill-opacity:0.654527;stroke:#8172b3;stroke-opacity:0.654527;" x="475.333394" xlink:href="#C0_0_4129909cd7" y="518.550343"/>
    </g>
    <g clip-path="url(#p5a8c399cad)">
     <use style="fill:#4c72b0;fill-opacity:0.671977;stroke:#4c72b0;stroke-opacity:0.671977;" x="224.673947" xlink:href="#C0_0_4129909cd7" y="355.637278"/>
    </g>
    <g clip-path="url(#p5a8c399cad)">
     <use style="fill:#64b5cd;fill-opacity:0.619157;stroke:#64b5cd;stroke-opacity:0.619157;" x="231.053303" xlink:href="#C0_0_4129909cd7" y="436.363785"/>
    </g>
    <g clip-path="url(#p5a8c399cad)">
     <use style="fill:#55a868;fill-opacity:0.702978;stroke:#55a868;stroke-opacity:0.702978;" x="245.00956" xlink:href="#C0_0_4129909cd7" y="345.212378"/>
    </g>
    <g clip-path="url(#p5a8c399cad)">
     <use style="fill:#c44e52;fill-opacity:0.599341;stroke:#c44e52;stroke-opacity:0.599341;" x="226.037345" xlink:href="#C0_0_4129909cd7" y="332.135327"/>
    </g>
    <g clip-path="url(#p5a8c399cad)">
     <use style="fill:#8172b3;fill-opacity:0.694115;stroke:#8172b3;stroke-opacity:0.694115;" x="412.175458" xlink:href="#C0_0_4129909cd7" y="457.619408"/>
    </g>
    <g clip-path="url(#p5a8c399cad)">
     <use style="fill:#4c72b0;fill-opacity:0.695033;stroke:#4c72b0;stroke-opacity:0.695033;" x="233.960249" xlink:href="#C0_0_4129909cd7" y="354.161946"/>
    </g>
   </g>
   <g id="legend_1">
    <g id="patch_6">
     <path d="M 593.22125 189.473594 
L 640.3 189.473594 
Q 642.5 189.473594 642.5 187.273594 
L 642.5 94.1 
Q 642.5 91.9 640.3 91.9 
L 593.22125 91.9 
Q 591.02125 91.9 591.02125 94.1 
L 591.02125 187.273594 
Q 591.02125 189.473594 593.22125 189.473594 
z
" style="fill:#eaeaf2;opacity:0.8;stroke:#cccccc;stroke-linejoin:miter;"/>
    </g>
    <g id="text_17">
     <!-- Classes -->
     <defs>
      <path d="M 58.796875 25.09375 
L 68.265625 22.703125 
Q 65.28125 11.03125 57.546875 4.90625 
Q 49.8125 -1.21875 38.625 -1.21875 
Q 27.046875 -1.21875 19.796875 3.484375 
Q 12.546875 8.203125 8.765625 17.140625 
Q 4.984375 26.078125 4.984375 36.328125 
Q 4.984375 47.515625 9.25 55.828125 
Q 13.53125 64.15625 21.40625 68.46875 
Q 29.296875 72.796875 38.765625 72.796875 
Q 49.515625 72.796875 56.828125 67.328125 
Q 64.15625 61.859375 67.046875 51.953125 
L 57.71875 49.75 
Q 55.21875 57.5625 50.484375 61.125 
Q 45.75 64.703125 38.578125 64.703125 
Q 30.328125 64.703125 24.78125 60.734375 
Q 19.234375 56.78125 16.984375 50.109375 
Q 14.75 43.453125 14.75 36.375 
Q 14.75 27.25 17.40625 20.4375 
Q 20.0625 13.625 25.671875 10.25 
Q 31.296875 6.890625 37.84375 6.890625 
Q 45.796875 6.890625 51.3125 11.46875 
Q 56.84375 16.0625 58.796875 25.09375 
z
" id="ArialMT-67"/>
      <path d="M 6.390625 0 
L 6.390625 71.578125 
L 15.1875 71.578125 
L 15.1875 0 
z
" id="ArialMT-108"/>
      <path d="M 40.4375 6.390625 
Q 35.546875 2.25 31.03125 0.53125 
Q 26.515625 -1.171875 21.34375 -1.171875 
Q 12.796875 -1.171875 8.203125 3 
Q 3.609375 7.171875 3.609375 13.671875 
Q 3.609375 17.484375 5.34375 20.625 
Q 7.078125 23.78125 9.890625 25.6875 
Q 12.703125 27.59375 16.21875 28.5625 
Q 18.796875 29.25 24.03125 29.890625 
Q 34.671875 31.15625 39.703125 32.90625 
Q 39.75 34.71875 39.75 35.203125 
Q 39.75 40.578125 37.25 42.78125 
Q 33.890625 45.75 27.25 45.75 
Q 21.046875 45.75 18.09375 43.578125 
Q 15.140625 41.40625 13.71875 35.890625 
L 5.125 37.0625 
Q 6.296875 42.578125 8.984375 45.96875 
Q 11.671875 49.359375 16.75 51.1875 
Q 21.828125 53.03125 28.515625 53.03125 
Q 35.15625 53.03125 39.296875 51.46875 
Q 43.453125 49.90625 45.40625 47.53125 
Q 47.359375 45.171875 48.140625 41.546875 
Q 48.578125 39.3125 48.578125 33.453125 
L 48.578125 21.734375 
Q 48.578125 9.46875 49.140625 6.21875 
Q 49.703125 2.984375 51.375 0 
L 42.1875 0 
Q 40.828125 2.734375 40.4375 6.390625 
z
M 39.703125 26.03125 
Q 34.90625 24.078125 25.34375 22.703125 
Q 19.921875 21.921875 17.671875 20.9375 
Q 15.4375 19.96875 14.203125 18.09375 
Q 12.984375 16.21875 12.984375 13.921875 
Q 12.984375 10.40625 15.640625 8.0625 
Q 18.3125 5.71875 23.4375 5.71875 
Q 28.515625 5.71875 32.46875 7.9375 
Q 36.421875 10.15625 38.28125 14.015625 
Q 39.703125 17 39.703125 22.796875 
z
" id="ArialMT-97"/>
      <path d="M 3.078125 15.484375 
L 11.765625 16.84375 
Q 12.5 11.625 15.84375 8.84375 
Q 19.1875 6.0625 25.203125 6.0625 
Q 31.25 6.0625 34.171875 8.515625 
Q 37.109375 10.984375 37.109375 14.3125 
Q 37.109375 17.28125 34.515625 19 
Q 32.71875 20.171875 25.53125 21.96875 
Q 15.875 24.421875 12.140625 26.203125 
Q 8.40625 27.984375 6.46875 31.125 
Q 4.546875 34.28125 4.546875 38.09375 
Q 4.546875 41.546875 6.125 44.5 
Q 7.71875 47.46875 10.453125 49.421875 
Q 12.5 50.921875 16.03125 51.96875 
Q 19.578125 53.03125 23.640625 53.03125 
Q 29.734375 53.03125 34.34375 51.265625 
Q 38.96875 49.515625 41.15625 46.5 
Q 43.359375 43.5 44.1875 38.484375 
L 35.59375 37.3125 
Q 35.015625 41.3125 32.203125 43.546875 
Q 29.390625 45.796875 24.265625 45.796875 
Q 18.21875 45.796875 15.625 43.796875 
Q 13.03125 41.796875 13.03125 39.109375 
Q 13.03125 37.40625 14.109375 36.03125 
Q 15.1875 34.625 17.484375 33.6875 
Q 18.796875 33.203125 25.25 31.453125 
Q 34.578125 28.953125 38.25 27.359375 
Q 41.9375 25.78125 44.03125 22.75 
Q 46.140625 19.734375 46.140625 15.234375 
Q 46.140625 10.84375 43.578125 6.953125 
Q 41.015625 3.078125 36.171875 0.953125 
Q 31.34375 -1.171875 25.25 -1.171875 
Q 15.140625 -1.171875 9.84375 3.03125 
Q 4.546875 7.234375 3.078125 15.484375 
z
" id="ArialMT-115"/>
      <path d="M 42.09375 16.703125 
L 51.171875 15.578125 
Q 49.03125 7.625 43.21875 3.21875 
Q 37.40625 -1.171875 28.375 -1.171875 
Q 17 -1.171875 10.328125 5.828125 
Q 3.65625 12.84375 3.65625 25.484375 
Q 3.65625 38.578125 10.390625 45.796875 
Q 17.140625 53.03125 27.875 53.03125 
Q 38.28125 53.03125 44.875 45.953125 
Q 51.46875 38.875 51.46875 26.03125 
Q 51.46875 25.25 51.421875 23.6875 
L 12.75 23.6875 
Q 13.234375 15.140625 17.578125 10.59375 
Q 21.921875 6.0625 28.421875 6.0625 
Q 33.25 6.0625 36.671875 8.59375 
Q 40.09375 11.140625 42.09375 16.703125 
z
M 13.234375 30.90625 
L 42.1875 30.90625 
Q 41.609375 37.453125 38.875 40.71875 
Q 34.671875 45.796875 27.984375 45.796875 
Q 21.921875 45.796875 17.796875 41.75 
Q 13.671875 37.703125 13.234375 30.90625 
z
" id="ArialMT-101"/>
     </defs>
     <g style="fill:#262626;" transform="translate(595.42125 104.889375)scale(0.12 -0.12)">
      <use xlink:href="#ArialMT-67"/>
      <use x="72.216797" xlink:href="#ArialMT-108"/>
      <use x="94.433594" xlink:href="#ArialMT-97"/>
      <use x="150.048828" xlink:href="#ArialMT-115"/>
      <use x="200.048828" xlink:href="#ArialMT-115"/>
      <use x="250.048828" xlink:href="#ArialMT-101"/>
      <use x="305.664062" xlink:href="#ArialMT-115"/>
     </g>
    </g>
    <g id="line2d_36">
     <path d="M 596.169141 116.797969 
L 618.169141 116.797969 
" style="fill:none;stroke:#4c72b0;stroke-linecap:round;stroke-width:1.5;"/>
    </g>
    <g id="line2d_37">
     <defs>
      <path d="M 0 3 
C 0.795609 3 1.55874 2.683901 2.12132 2.12132 
C 2.683901 1.55874 3 0.795609 3 0 
C 3 -0.795609 2.683901 -1.55874 2.12132 -2.12132 
C 1.55874 -2.683901 0.795609 -3 0 -3 
C -0.795609 -3 -1.55874 -2.683901 -2.12132 -2.12132 
C -2.683901 -1.55874 -3 -0.795609 -3 0 
C -3 0.795609 -2.683901 1.55874 -2.12132 2.12132 
C -1.55874 2.683901 -0.795609 3 0 3 
z
" id="me9b5a76e74" style="stroke:#4c72b0;"/>
     </defs>
     <g>
      <use style="fill:#4c72b0;stroke:#4c72b0;" x="607.169141" xlink:href="#me9b5a76e74" y="116.797969"/>
     </g>
    </g>
    <g id="text_18">
     <!-- E -->
     <defs>
      <path d="M 7.90625 0 
L 7.90625 71.578125 
L 59.671875 71.578125 
L 59.671875 63.140625 
L 17.390625 63.140625 
L 17.390625 41.21875 
L 56.984375 41.21875 
L 56.984375 32.8125 
L 17.390625 32.8125 
L 17.390625 8.453125 
L 61.328125 8.453125 
L 61.328125 0 
z
" id="ArialMT-69"/>
     </defs>
     <g style="fill:#262626;" transform="translate(626.969141 120.647969)scale(0.11 -0.11)">
      <use xlink:href="#ArialMT-69"/>
     </g>
    </g>
    <g id="line2d_38">
     <path d="M 596.169141 132.357813 
L 618.169141 132.357813 
" style="fill:none;stroke:#55a868;stroke-linecap:round;stroke-width:1.5;"/>
    </g>
    <g id="line2d_39">
     <defs>
      <path d="M 0 3 
C 0.795609 3 1.55874 2.683901 2.12132 2.12132 
C 2.683901 1.55874 3 0.795609 3 0 
C 3 -0.795609 2.683901 -1.55874 2.12132 -2.12132 
C 1.55874 -2.683901 0.795609 -3 0 -3 
C -0.795609 -3 -1.55874 -2.683901 -2.12132 -2.12132 
C -2.683901 -1.55874 -3 -0.795609 -3 0 
C -3 0.795609 -2.683901 1.55874 -2.12132 2.12132 
C -1.55874 2.683901 -0.795609 3 0 3 
z
" id="m20e8d009cd" style="stroke:#55a868;"/>
     </defs>
     <g>
      <use style="fill:#55a868;stroke:#55a868;" x="607.169141" xlink:href="#m20e8d009cd" y="132.357813"/>
     </g>
    </g>
    <g id="text_19">
     <!-- R -->
     <defs>
      <path d="M 7.859375 0 
L 7.859375 71.578125 
L 39.59375 71.578125 
Q 49.171875 71.578125 54.140625 69.640625 
Q 59.125 67.71875 62.109375 62.828125 
Q 65.09375 57.953125 65.09375 52.046875 
Q 65.09375 44.4375 60.15625 39.203125 
Q 55.21875 33.984375 44.921875 32.5625 
Q 48.6875 30.765625 50.640625 29 
Q 54.78125 25.203125 58.5 19.484375 
L 70.953125 0 
L 59.03125 0 
L 49.5625 14.890625 
Q 45.40625 21.34375 42.71875 24.75 
Q 40.046875 28.171875 37.921875 29.53125 
Q 35.796875 30.90625 33.59375 31.453125 
Q 31.984375 31.78125 28.328125 31.78125 
L 17.328125 31.78125 
L 17.328125 0 
z
M 17.328125 39.984375 
L 37.703125 39.984375 
Q 44.1875 39.984375 47.84375 41.328125 
Q 51.515625 42.671875 53.421875 45.625 
Q 55.328125 48.578125 55.328125 52.046875 
Q 55.328125 57.125 51.640625 60.390625 
Q 47.953125 63.671875 39.984375 63.671875 
L 17.328125 63.671875 
z
" id="ArialMT-82"/>
     </defs>
     <g style="fill:#262626;" transform="translate(626.969141 136.207813)scale(0.11 -0.11)">
      <use xlink:href="#ArialMT-82"/>
     </g>
    </g>
    <g id="line2d_40">
     <path d="M 596.169141 147.917656 
L 618.169141 147.917656 
" style="fill:none;stroke:#c44e52;stroke-linecap:round;stroke-width:1.5;"/>
    </g>
    <g id="line2d_41">
     <defs>
      <path d="M 0 3 
C 0.795609 3 1.55874 2.683901 2.12132 2.12132 
C 2.683901 1.55874 3 0.795609 3 0 
C 3 -0.795609 2.683901 -1.55874 2.12132 -2.12132 
C 1.55874 -2.683901 0.795609 -3 0 -3 
C -0.795609 -3 -1.55874 -2.683901 -2.12132 -2.12132 
C -2.683901 -1.55874 -3 -0.795609 -3 0 
C -3 0.795609 -2.683901 1.55874 -2.12132 2.12132 
C -1.55874 2.683901 -0.795609 3 0 3 
z
" id="m21a0d9e97e" style="stroke:#c44e52;"/>
     </defs>
     <g>
      <use style="fill:#c44e52;stroke:#c44e52;" x="607.169141" xlink:href="#m21a0d9e97e" y="147.917656"/>
     </g>
    </g>
    <g id="text_20">
     <!-- S -->
     <defs>
      <path d="M 4.5 23 
L 13.421875 23.78125 
Q 14.0625 18.40625 16.375 14.96875 
Q 18.703125 11.53125 23.578125 9.40625 
Q 28.46875 7.28125 34.578125 7.28125 
Q 39.984375 7.28125 44.140625 8.890625 
Q 48.296875 10.5 50.3125 13.296875 
Q 52.34375 16.109375 52.34375 19.4375 
Q 52.34375 22.796875 50.390625 25.3125 
Q 48.4375 27.828125 43.953125 29.546875 
Q 41.0625 30.671875 31.203125 33.03125 
Q 21.34375 35.40625 17.390625 37.5 
Q 12.25 40.1875 9.734375 44.15625 
Q 7.234375 48.140625 7.234375 53.078125 
Q 7.234375 58.5 10.296875 63.203125 
Q 13.375 67.921875 19.28125 70.359375 
Q 25.203125 72.796875 32.421875 72.796875 
Q 40.375 72.796875 46.453125 70.234375 
Q 52.546875 67.671875 55.8125 62.6875 
Q 59.078125 57.71875 59.328125 51.421875 
L 50.25 50.734375 
Q 49.515625 57.515625 45.28125 60.984375 
Q 41.0625 64.453125 32.8125 64.453125 
Q 24.21875 64.453125 20.28125 61.296875 
Q 16.359375 58.15625 16.359375 53.71875 
Q 16.359375 49.859375 19.140625 47.359375 
Q 21.875 44.875 33.421875 42.265625 
Q 44.96875 39.65625 49.265625 37.703125 
Q 55.515625 34.8125 58.484375 30.390625 
Q 61.46875 25.984375 61.46875 20.21875 
Q 61.46875 14.5 58.203125 9.4375 
Q 54.9375 4.390625 48.796875 1.578125 
Q 42.671875 -1.21875 35.015625 -1.21875 
Q 25.296875 -1.21875 18.71875 1.609375 
Q 12.15625 4.4375 8.421875 10.125 
Q 4.6875 15.828125 4.5 23 
z
" id="ArialMT-83"/>
     </defs>
     <g style="fill:#262626;" transform="translate(626.969141 151.767656)scale(0.11 -0.11)">
      <use xlink:href="#ArialMT-83"/>
     </g>
    </g>
    <g id="line2d_42">
     <path d="M 596.169141 163.4775 
L 618.169141 163.4775 
" style="fill:none;stroke:#64b5cd;stroke-linecap:round;stroke-width:1.5;"/>
    </g>
    <g id="line2d_43">
     <defs>
      <path d="M 0 3 
C 0.795609 3 1.55874 2.683901 2.12132 2.12132 
C 2.683901 1.55874 3 0.795609 3 0 
C 3 -0.795609 2.683901 -1.55874 2.12132 -2.12132 
C 1.55874 -2.683901 0.795609 -3 0 -3 
C -0.795609 -3 -1.55874 -2.683901 -2.12132 -2.12132 
C -2.683901 -1.55874 -3 -0.795609 -3 0 
C -3 0.795609 -2.683901 1.55874 -2.12132 2.12132 
C -1.55874 2.683901 -0.795609 3 0 3 
z
" id="m349056eab6" style="stroke:#64b5cd;"/>
     </defs>
     <g>
      <use style="fill:#64b5cd;stroke:#64b5cd;" x="607.169141" xlink:href="#m349056eab6" y="163.4775"/>
     </g>
    </g>
    <g id="text_21">
     <!-- V -->
     <defs>
      <path d="M 28.171875 0 
L 0.4375 71.578125 
L 10.6875 71.578125 
L 29.296875 19.578125 
Q 31.546875 13.328125 33.0625 7.859375 
Q 34.71875 13.71875 36.921875 19.578125 
L 56.25 71.578125 
L 65.921875 71.578125 
L 37.890625 0 
z
" id="ArialMT-86"/>
     </defs>
     <g style="fill:#262626;" transform="translate(626.969141 167.3275)scale(0.11 -0.11)">
      <use xlink:href="#ArialMT-86"/>
     </g>
    </g>
    <g id="line2d_44">
     <path d="M 596.169141 179.037344 
L 618.169141 179.037344 
" style="fill:none;stroke:#8172b3;stroke-linecap:round;stroke-width:1.5;"/>
    </g>
    <g id="line2d_45">
     <defs>
      <path d="M 0 3 
C 0.795609 3 1.55874 2.683901 2.12132 2.12132 
C 2.683901 1.55874 3 0.795609 3 0 
C 3 -0.795609 2.683901 -1.55874 2.12132 -2.12132 
C 1.55874 -2.683901 0.795609 -3 0 -3 
C -0.795609 -3 -1.55874 -2.683901 -2.12132 -2.12132 
C -2.683901 -1.55874 -3 -0.795609 -3 0 
C -3 0.795609 -2.683901 1.55874 -2.12132 2.12132 
C -1.55874 2.683901 -0.795609 3 0 3 
z
" id="m46579e28db" style="stroke:#8172b3;"/>
     </defs>
     <g>
      <use style="fill:#8172b3;stroke:#8172b3;" x="607.169141" xlink:href="#m46579e28db" y="179.037344"/>
     </g>
    </g>
    <g id="text_22">
     <!-- W -->
     <defs>
      <path d="M 20.21875 0 
L 1.21875 71.578125 
L 10.9375 71.578125 
L 21.828125 24.65625 
Q 23.578125 17.28125 24.859375 10.015625 
Q 27.59375 21.484375 28.078125 23.25 
L 41.703125 71.578125 
L 53.125 71.578125 
L 63.375 35.359375 
Q 67.234375 21.875 68.953125 10.015625 
Q 70.3125 16.796875 72.515625 25.59375 
L 83.734375 71.578125 
L 93.265625 71.578125 
L 73.640625 0 
L 64.5 0 
L 49.421875 54.546875 
Q 47.515625 61.375 47.171875 62.9375 
Q 46.046875 58.015625 45.0625 54.546875 
L 29.890625 0 
z
" id="ArialMT-87"/>
     </defs>
     <g style="fill:#262626;" transform="translate(626.969141 182.887344)scale(0.11 -0.11)">
      <use xlink:href="#ArialMT-87"/>
     </g>
    </g>
   </g>
  </g>
 </g>
 <defs>
  <clipPath id="p5a8c399cad">
   <rect height="543.6" width="558" x="90" y="86.4"/>
  </clipPath>
 </defs>
</svg>
