<?xml version="1.0" encoding="utf-8" standalone="no"?>
<!DOCTYPE svg PUBLIC "-//W3C//DTD SVG 1.1//EN"
  "http://www.w3.org/Graphics/SVG/1.1/DTD/svg11.dtd">
<!-- Created with matplotlib (https://matplotlib.org/) -->
<svg height="720pt" version="1.1" viewBox="0 0 720 720" width="720pt" xmlns="http://www.w3.org/2000/svg" xmlns:xlink="http://www.w3.org/1999/xlink">
 <defs>
  <style type="text/css">
*{stroke-linecap:butt;stroke-linejoin:round;}
  </style>
 </defs>
 <g id="figure_1">
  <g id="patch_1">
   <path d="M 0 720 
L 720 720 
L 720 0 
L 0 0 
z
" style="fill:#ffffff;"/>
  </g>
  <g id="patch_2">
   <path d="M 90 630 
L 648 630 
L 648 86.4 
L 90 86.4 
z
" style="fill:#eaeaf2;"/>
  </g>
  <g id="pane3d_1">
   <g id="patch_3">
    <path d="M 163.971523 509.883558 
L 323.674042 376.605155 
L 321.015164 121.932002 
L 152.408183 241.679906 
" style="fill:#f2f2f2;opacity:0.5;stroke:#f2f2f2;stroke-linejoin:miter;"/>
   </g>
  </g>
  <g id="pane3d_2">
   <g id="patch_4">
    <path d="M 323.674042 376.605155 
L 582.377109 451.116383 
L 593.200935 188.763664 
L 321.015164 121.932002 
" style="fill:#e6e6e6;opacity:0.5;stroke:#e6e6e6;stroke-linejoin:miter;"/>
   </g>
  </g>
  <g id="pane3d_3">
   <g id="patch_5">
    <path d="M 163.971523 509.883558 
L 436.162105 596.664023 
L 582.377109 451.116383 
L 323.674042 376.605155 
" style="fill:#ececec;opacity:0.5;stroke:#ececec;stroke-linejoin:miter;"/>
   </g>
  </g>
  <g id="axis3d_1">
   <g id="line2d_1">
    <path d="M 163.971523 509.883558 
L 436.162105 596.664023 
" style="fill:none;stroke:#ffffff;stroke-linecap:round;stroke-width:1.25;"/>
   </g>
   <g id="Line3DCollection_1">
    <path d="M 196.022418 520.102102 
L 354.227009 385.40497 
L 353.098744 129.809706 
" style="fill:none;stroke:#ffffff;"/>
    <path d="M 242.819982 535.022216 
L 398.794077 398.241103 
L 399.928078 141.308037 
" style="fill:none;stroke:#ffffff;"/>
    <path d="M 290.372058 550.182885 
L 444.027042 411.269026 
L 447.493046 152.986994 
" style="fill:none;stroke:#ffffff;"/>
    <path d="M 338.69704 565.589973 
L 489.940942 424.493071 
L 495.811119 164.850866 
" style="fill:none;stroke:#ffffff;"/>
    <path d="M 387.813927 581.249539 
L 536.551268 437.9177 
L 544.900328 176.904081 
" style="fill:none;stroke:#ffffff;"/>
   </g>
   <g id="xtick_1">
    <g id="line2d_2">
     <path clip-path="url(#pd2a3a28b6c)" d="M 376.540541 350.854054 
" style="fill:none;stroke:#ffffff;stroke-linecap:round;"/>
    </g>
    <g id="line2d_3">
     <path d="M 197.385689 518.941398 
L 193.290776 522.427852 
" style="fill:none;stroke:#262626;stroke-linecap:round;stroke-width:1.25;"/>
    </g>
    <g id="text_1">
     <!-- −0.4 -->
     <defs>
      <path d="M 10.59375 35.5 
L 73.1875 35.5 
L 73.1875 27.203125 
L 10.59375 27.203125 
z
" id="DejaVuSans-8722"/>
      <path d="M 31.78125 66.40625 
Q 24.171875 66.40625 20.328125 58.90625 
Q 16.5 51.421875 16.5 36.375 
Q 16.5 21.390625 20.328125 13.890625 
Q 24.171875 6.390625 31.78125 6.390625 
Q 39.453125 6.390625 43.28125 13.890625 
Q 47.125 21.390625 47.125 36.375 
Q 47.125 51.421875 43.28125 58.90625 
Q 39.453125 66.40625 31.78125 66.40625 
z
M 31.78125 74.21875 
Q 44.046875 74.21875 50.515625 64.515625 
Q 56.984375 54.828125 56.984375 36.375 
Q 56.984375 17.96875 50.515625 8.265625 
Q 44.046875 -1.421875 31.78125 -1.421875 
Q 19.53125 -1.421875 13.0625 8.265625 
Q 6.59375 17.96875 6.59375 36.375 
Q 6.59375 54.828125 13.0625 64.515625 
Q 19.53125 74.21875 31.78125 74.21875 
z
" id="DejaVuSans-48"/>
      <path d="M 10.6875 12.40625 
L 21 12.40625 
L 21 0 
L 10.6875 0 
z
" id="DejaVuSans-46"/>
      <path d="M 37.796875 64.3125 
L 12.890625 25.390625 
L 37.796875 25.390625 
z
M 35.203125 72.90625 
L 47.609375 72.90625 
L 47.609375 25.390625 
L 58.015625 25.390625 
L 58.015625 17.1875 
L 47.609375 17.1875 
L 47.609375 0 
L 37.796875 0 
L 37.796875 17.1875 
L 4.890625 17.1875 
L 4.890625 26.703125 
z
" id="DejaVuSans-52"/>
     </defs>
     <g style="fill:#262626;" transform="translate(176.200081 544.528615)scale(0.11 -0.11)">
      <use xlink:href="#DejaVuSans-8722"/>
      <use x="83.789062" xlink:href="#DejaVuSans-48"/>
      <use x="147.412109" xlink:href="#DejaVuSans-46"/>
      <use x="179.199219" xlink:href="#DejaVuSans-52"/>
     </g>
    </g>
   </g>
   <g id="xtick_2">
    <g id="line2d_4">
     <path clip-path="url(#pd2a3a28b6c)" d="M 376.540541 350.854054 
" style="fill:none;stroke:#ffffff;stroke-linecap:round;"/>
    </g>
    <g id="line2d_5">
     <path d="M 244.164803 533.842879 
L 240.125272 537.385336 
" style="fill:none;stroke:#262626;stroke-linecap:round;stroke-width:1.25;"/>
    </g>
    <g id="text_2">
     <!-- −0.2 -->
     <defs>
      <path d="M 19.1875 8.296875 
L 53.609375 8.296875 
L 53.609375 0 
L 7.328125 0 
L 7.328125 8.296875 
Q 12.9375 14.109375 22.625 23.890625 
Q 32.328125 33.6875 34.8125 36.53125 
Q 39.546875 41.84375 41.421875 45.53125 
Q 43.3125 49.21875 43.3125 52.78125 
Q 43.3125 58.59375 39.234375 62.25 
Q 35.15625 65.921875 28.609375 65.921875 
Q 23.96875 65.921875 18.8125 64.3125 
Q 13.671875 62.703125 7.8125 59.421875 
L 7.8125 69.390625 
Q 13.765625 71.78125 18.9375 73 
Q 24.125 74.21875 28.421875 74.21875 
Q 39.75 74.21875 46.484375 68.546875 
Q 53.21875 62.890625 53.21875 53.421875 
Q 53.21875 48.921875 51.53125 44.890625 
Q 49.859375 40.875 45.40625 35.40625 
Q 44.1875 33.984375 37.640625 27.21875 
Q 31.109375 20.453125 19.1875 8.296875 
z
" id="DejaVuSans-50"/>
     </defs>
     <g style="fill:#262626;" transform="translate(222.994976 559.593015)scale(0.11 -0.11)">
      <use xlink:href="#DejaVuSans-8722"/>
      <use x="83.789062" xlink:href="#DejaVuSans-48"/>
      <use x="147.412109" xlink:href="#DejaVuSans-46"/>
      <use x="179.199219" xlink:href="#DejaVuSans-50"/>
     </g>
    </g>
   </g>
   <g id="xtick_3">
    <g id="line2d_6">
     <path clip-path="url(#pd2a3a28b6c)" d="M 376.540541 350.854054 
" style="fill:none;stroke:#ffffff;stroke-linecap:round;"/>
    </g>
    <g id="line2d_7">
     <path d="M 291.697653 548.984463 
L 287.71583 552.584283 
" style="fill:none;stroke:#262626;stroke-linecap:round;stroke-width:1.25;"/>
    </g>
    <g id="text_3">
     <!-- 0.0 -->
     <g style="fill:#262626;" transform="translate(275.153965 574.900552)scale(0.11 -0.11)">
      <use xlink:href="#DejaVuSans-48"/>
      <use x="63.623047" xlink:href="#DejaVuSans-46"/>
      <use x="95.410156" xlink:href="#DejaVuSans-48"/>
     </g>
    </g>
   </g>
   <g id="xtick_4">
    <g id="line2d_8">
     <path clip-path="url(#pd2a3a28b6c)" d="M 376.540541 350.854054 
" style="fill:none;stroke:#ffffff;stroke-linecap:round;"/>
    </g>
    <g id="line2d_9">
     <path d="M 340.002604 564.371999 
L 336.080909 568.030587 
" style="fill:none;stroke:#262626;stroke-linecap:round;stroke-width:1.25;"/>
    </g>
    <g id="text_4">
     <!-- 0.2 -->
     <g style="fill:#262626;" transform="translate(323.477826 590.457163)scale(0.11 -0.11)">
      <use xlink:href="#DejaVuSans-48"/>
      <use x="63.623047" xlink:href="#DejaVuSans-46"/>
      <use x="95.410156" xlink:href="#DejaVuSans-50"/>
     </g>
    </g>
   </g>
   <g id="xtick_5">
    <g id="line2d_10">
     <path clip-path="url(#pd2a3a28b6c)" d="M 376.540541 350.854054 
" style="fill:none;stroke:#ffffff;stroke-linecap:round;"/>
    </g>
    <g id="line2d_11">
     <path d="M 389.098624 580.011531 
L 385.23957 583.730337 
" style="fill:none;stroke:#262626;stroke-linecap:round;stroke-width:1.25;"/>
    </g>
    <g id="text_5">
     <!-- 0.4 -->
     <g style="fill:#262626;" transform="translate(372.594424 606.268974)scale(0.11 -0.11)">
      <use xlink:href="#DejaVuSans-48"/>
      <use x="63.623047" xlink:href="#DejaVuSans-46"/>
      <use x="95.410156" xlink:href="#DejaVuSans-52"/>
     </g>
    </g>
   </g>
  </g>
  <g id="axis3d_2">
   <g id="line2d_12">
    <path d="M 582.377109 451.116383 
L 436.162105 596.664023 
" style="fill:none;stroke:#ffffff;stroke-linecap:round;stroke-width:1.25;"/>
   </g>
   <g id="Line3DCollection_2">
    <path d="M 158.171945 237.586372 
L 169.410364 505.344618 
L 441.157772 591.691158 
" style="fill:none;stroke:#ffffff;"/>
    <path d="M 195.866424 210.815032 
L 205.015612 475.630556 
L 473.833571 559.1645 
" style="fill:none;stroke:#ffffff;"/>
    <path d="M 232.307305 184.934021 
L 239.495759 446.855438 
L 505.430261 527.712025 
" style="fill:none;stroke:#ffffff;"/>
    <path d="M 267.556102 159.899651 
L 272.903303 418.975451 
L 536.00043 497.281387 
" style="fill:none;stroke:#ffffff;"/>
    <path d="M 301.670367 135.671047 
L 305.287529 391.949466 
L 565.593302 467.823584 
" style="fill:none;stroke:#ffffff;"/>
   </g>
   <g id="xtick_6">
    <g id="line2d_13">
     <path clip-path="url(#pd2a3a28b6c)" d="M 376.540541 350.854054 
" style="fill:none;stroke:#ffffff;stroke-linecap:round;"/>
    </g>
    <g id="line2d_14">
     <path d="M 438.883226 590.968432 
L 445.71196 593.138231 
" style="fill:none;stroke:#262626;stroke-linecap:round;stroke-width:1.25;"/>
    </g>
    <g id="text_6">
     <!-- −0.4 -->
     <g style="fill:#262626;" transform="translate(439.061195 614.137973)scale(0.11 -0.11)">
      <use xlink:href="#DejaVuSans-8722"/>
      <use x="83.789062" xlink:href="#DejaVuSans-48"/>
      <use x="147.412109" xlink:href="#DejaVuSans-46"/>
      <use x="179.199219" xlink:href="#DejaVuSans-52"/>
     </g>
    </g>
   </g>
   <g id="xtick_7">
    <g id="line2d_15">
     <path clip-path="url(#pd2a3a28b6c)" d="M 376.540541 350.854054 
" style="fill:none;stroke:#ffffff;stroke-linecap:round;"/>
    </g>
    <g id="line2d_16">
     <path d="M 471.585215 558.465834 
L 478.335237 560.563372 
" style="fill:none;stroke:#262626;stroke-linecap:round;stroke-width:1.25;"/>
    </g>
    <g id="text_7">
     <!-- −0.2 -->
     <g style="fill:#262626;" transform="translate(471.538722 581.38409)scale(0.11 -0.11)">
      <use xlink:href="#DejaVuSans-8722"/>
      <use x="83.789062" xlink:href="#DejaVuSans-48"/>
      <use x="147.412109" xlink:href="#DejaVuSans-46"/>
      <use x="179.199219" xlink:href="#DejaVuSans-50"/>
     </g>
    </g>
   </g>
   <g id="xtick_8">
    <g id="line2d_17">
     <path clip-path="url(#pd2a3a28b6c)" d="M 376.540541 350.854054 
" style="fill:none;stroke:#ffffff;stroke-linecap:round;"/>
    </g>
    <g id="line2d_18">
     <path d="M 503.207619 527.036238 
L 509.880361 529.065065 
" style="fill:none;stroke:#262626;stroke-linecap:round;stroke-width:1.25;"/>
    </g>
    <g id="text_8">
     <!-- 0.0 -->
     <g style="fill:#262626;" transform="translate(507.552817 549.711593)scale(0.11 -0.11)">
      <use xlink:href="#DejaVuSans-48"/>
      <use x="63.623047" xlink:href="#DejaVuSans-46"/>
      <use x="95.410156" xlink:href="#DejaVuSans-48"/>
     </g>
    </g>
   </g>
   <g id="xtick_9">
    <g id="line2d_19">
     <path clip-path="url(#pd2a3a28b6c)" d="M 376.540541 350.854054 
" style="fill:none;stroke:#ffffff;stroke-linecap:round;"/>
    </g>
    <g id="line2d_20">
     <path d="M 533.803031 496.627372 
L 540.399911 498.59081 
" style="fill:none;stroke:#262626;stroke-linecap:round;stroke-width:1.25;"/>
    </g>
    <g id="text_9">
     <!-- 0.2 -->
     <g style="fill:#262626;" transform="translate(537.938062 519.067796)scale(0.11 -0.11)">
      <use xlink:href="#DejaVuSans-48"/>
      <use x="63.623047" xlink:href="#DejaVuSans-46"/>
      <use x="95.410156" xlink:href="#DejaVuSans-50"/>
     </g>
    </g>
   </g>
   <g id="xtick_10">
    <g id="line2d_21">
     <path clip-path="url(#pd2a3a28b6c)" d="M 376.540541 350.854054 
" style="fill:none;stroke:#ffffff;stroke-linecap:round;"/>
    </g>
    <g id="line2d_22">
     <path d="M 563.420681 467.190307 
L 569.943101 469.091466 
" style="fill:none;stroke:#262626;stroke-linecap:round;stroke-width:1.25;"/>
    </g>
    <g id="text_10">
     <!-- 0.4 -->
     <g style="fill:#262626;" transform="translate(567.352185 489.403385)scale(0.11 -0.11)">
      <use xlink:href="#DejaVuSans-48"/>
      <use x="63.623047" xlink:href="#DejaVuSans-46"/>
      <use x="95.410156" xlink:href="#DejaVuSans-52"/>
     </g>
    </g>
   </g>
  </g>
  <g id="axis3d_3">
   <g id="line2d_23">
    <path d="M 582.377109 451.116383 
L 593.200935 188.763664 
" style="fill:none;stroke:#ffffff;stroke-linecap:round;stroke-width:1.25;"/>
   </g>
   <g id="Line3DCollection_3">
    <path d="M 582.629591 444.996612 
L 323.611888 370.65187 
L 163.702244 503.637815 
" style="fill:none;stroke:#ffffff;"/>
    <path d="M 583.982342 412.208039 
L 323.278984 338.765607 
L 162.259129 470.165769 
" style="fill:none;stroke:#ffffff;"/>
    <path d="M 585.352968 378.986179 
L 322.941866 306.475696 
L 160.796311 436.236721 
" style="fill:none;stroke:#ffffff;"/>
    <path d="M 586.741828 345.322386 
L 322.600453 273.774425 
L 159.313384 401.841248 
" style="fill:none;stroke:#ffffff;"/>
    <path d="M 588.149286 311.207784 
L 322.254663 240.653882 
L 157.809929 366.969664 
" style="fill:none;stroke:#ffffff;"/>
    <path d="M 589.57572 276.633255 
L 321.904411 207.105952 
L 156.285518 331.612016 
" style="fill:none;stroke:#ffffff;"/>
    <path d="M 591.021514 241.589436 
L 321.549609 173.122309 
L 154.73971 295.758069 
" style="fill:none;stroke:#ffffff;"/>
    <path d="M 592.487068 206.066707 
L 321.19017 138.694408 
L 153.172051 259.3973 
" style="fill:none;stroke:#ffffff;"/>
   </g>
   <g id="xtick_11">
    <g id="line2d_24">
     <path clip-path="url(#pd2a3a28b6c)" d="M 376.540541 350.854054 
" style="fill:none;stroke:#ffffff;stroke-linecap:round;"/>
    </g>
    <g id="line2d_25">
     <path d="M 580.468438 444.376306 
L 586.956393 446.238516 
" style="fill:none;stroke:#262626;stroke-linecap:round;stroke-width:1.25;"/>
    </g>
    <g id="text_11">
     <!-- −0.3 -->
     <defs>
      <path d="M 40.578125 39.3125 
Q 47.65625 37.796875 51.625 33 
Q 55.609375 28.21875 55.609375 21.1875 
Q 55.609375 10.40625 48.1875 4.484375 
Q 40.765625 -1.421875 27.09375 -1.421875 
Q 22.515625 -1.421875 17.65625 -0.515625 
Q 12.796875 0.390625 7.625 2.203125 
L 7.625 11.71875 
Q 11.71875 9.328125 16.59375 8.109375 
Q 21.484375 6.890625 26.8125 6.890625 
Q 36.078125 6.890625 40.9375 10.546875 
Q 45.796875 14.203125 45.796875 21.1875 
Q 45.796875 27.640625 41.28125 31.265625 
Q 36.765625 34.90625 28.71875 34.90625 
L 20.21875 34.90625 
L 20.21875 43.015625 
L 29.109375 43.015625 
Q 36.375 43.015625 40.234375 45.921875 
Q 44.09375 48.828125 44.09375 54.296875 
Q 44.09375 59.90625 40.109375 62.90625 
Q 36.140625 65.921875 28.71875 65.921875 
Q 24.65625 65.921875 20.015625 65.03125 
Q 15.375 64.15625 9.8125 62.3125 
L 9.8125 71.09375 
Q 15.4375 72.65625 20.34375 73.4375 
Q 25.25 74.21875 29.59375 74.21875 
Q 40.828125 74.21875 47.359375 69.109375 
Q 53.90625 64.015625 53.90625 55.328125 
Q 53.90625 49.265625 50.4375 45.09375 
Q 46.96875 40.921875 40.578125 39.3125 
z
" id="DejaVuSans-51"/>
     </defs>
     <g style="fill:#262626;" transform="translate(585.514465 451.081569)scale(0.11 -0.11)">
      <use xlink:href="#DejaVuSans-8722"/>
      <use x="83.789062" xlink:href="#DejaVuSans-48"/>
      <use x="147.412109" xlink:href="#DejaVuSans-46"/>
      <use x="179.199219" xlink:href="#DejaVuSans-51"/>
     </g>
    </g>
   </g>
   <g id="xtick_12">
    <g id="line2d_26">
     <path clip-path="url(#pd2a3a28b6c)" d="M 376.540541 350.854054 
" style="fill:none;stroke:#ffffff;stroke-linecap:round;"/>
    </g>
    <g id="line2d_27">
     <path d="M 581.806536 411.595095 
L 588.338509 413.43521 
" style="fill:none;stroke:#262626;stroke-linecap:round;stroke-width:1.25;"/>
    </g>
    <g id="text_12">
     <!-- −0.2 -->
     <g style="fill:#262626;" transform="translate(586.971951 418.319993)scale(0.11 -0.11)">
      <use xlink:href="#DejaVuSans-8722"/>
      <use x="83.789062" xlink:href="#DejaVuSans-48"/>
      <use x="147.412109" xlink:href="#DejaVuSans-46"/>
      <use x="179.199219" xlink:href="#DejaVuSans-50"/>
     </g>
    </g>
   </g>
   <g id="xtick_13">
    <g id="line2d_28">
     <path clip-path="url(#pd2a3a28b6c)" d="M 376.540541 350.854054 
" style="fill:none;stroke:#ffffff;stroke-linecap:round;"/>
    </g>
    <g id="line2d_29">
     <path d="M 583.162311 378.380848 
L 589.738902 380.198117 
" style="fill:none;stroke:#262626;stroke-linecap:round;stroke-width:1.25;"/>
    </g>
    <g id="text_13">
     <!-- −0.1 -->
     <defs>
      <path d="M 12.40625 8.296875 
L 28.515625 8.296875 
L 28.515625 63.921875 
L 10.984375 60.40625 
L 10.984375 69.390625 
L 28.421875 72.90625 
L 38.28125 72.90625 
L 38.28125 8.296875 
L 54.390625 8.296875 
L 54.390625 0 
L 12.40625 0 
z
" id="DejaVuSans-49"/>
     </defs>
     <g style="fill:#262626;" transform="translate(588.448673 385.126044)scale(0.11 -0.11)">
      <use xlink:href="#DejaVuSans-8722"/>
      <use x="83.789062" xlink:href="#DejaVuSans-48"/>
      <use x="147.412109" xlink:href="#DejaVuSans-46"/>
      <use x="179.199219" xlink:href="#DejaVuSans-49"/>
     </g>
    </g>
   </g>
   <g id="xtick_14">
    <g id="line2d_30">
     <path clip-path="url(#pd2a3a28b6c)" d="M 376.540541 350.854054 
" style="fill:none;stroke:#ffffff;stroke-linecap:round;"/>
    </g>
    <g id="line2d_31">
     <path d="M 584.536114 344.724925 
L 591.157936 346.518577 
" style="fill:none;stroke:#262626;stroke-linecap:round;stroke-width:1.25;"/>
    </g>
    <g id="text_14">
     <!-- 0.0 -->
     <g style="fill:#262626;" transform="translate(594.553841 351.491106)scale(0.11 -0.11)">
      <use xlink:href="#DejaVuSans-48"/>
      <use x="63.623047" xlink:href="#DejaVuSans-46"/>
      <use x="95.410156" xlink:href="#DejaVuSans-48"/>
     </g>
    </g>
   </g>
   <g id="xtick_15">
    <g id="line2d_32">
     <path clip-path="url(#pd2a3a28b6c)" d="M 376.540541 350.854054 
" style="fill:none;stroke:#ffffff;stroke-linecap:round;"/>
    </g>
    <g id="line2d_33">
     <path d="M 585.928308 310.618458 
L 592.595987 312.387695 
" style="fill:none;stroke:#262626;stroke-linecap:round;stroke-width:1.25;"/>
    </g>
    <g id="text_15">
     <!-- 0.1 -->
     <g style="fill:#262626;" transform="translate(596.070194 317.406332)scale(0.11 -0.11)">
      <use xlink:href="#DejaVuSans-48"/>
      <use x="63.623047" xlink:href="#DejaVuSans-46"/>
      <use x="95.410156" xlink:href="#DejaVuSans-49"/>
     </g>
    </g>
   </g>
   <g id="xtick_16">
    <g id="line2d_34">
     <path clip-path="url(#pd2a3a28b6c)" d="M 376.540541 350.854054 
" style="fill:none;stroke:#ffffff;stroke-linecap:round;"/>
    </g>
    <g id="line2d_35">
     <path d="M 587.339265 276.052339 
L 594.053439 277.796337 
" style="fill:none;stroke:#262626;stroke-linecap:round;stroke-width:1.25;"/>
    </g>
    <g id="text_16">
     <!-- 0.2 -->
     <g style="fill:#262626;" transform="translate(597.606963 282.862636)scale(0.11 -0.11)">
      <use xlink:href="#DejaVuSans-48"/>
      <use x="63.623047" xlink:href="#DejaVuSans-46"/>
      <use x="95.410156" xlink:href="#DejaVuSans-50"/>
     </g>
    </g>
   </g>
   <g id="xtick_17">
    <g id="line2d_36">
     <path clip-path="url(#pd2a3a28b6c)" d="M 376.540541 350.854054 
" style="fill:none;stroke:#ffffff;stroke-linecap:round;"/>
    </g>
    <g id="line2d_37">
     <path d="M 588.769366 241.017213 
L 595.530688 242.735122 
" style="fill:none;stroke:#262626;stroke-linecap:round;stroke-width:1.25;"/>
    </g>
    <g id="text_17">
     <!-- 0.3 -->
     <g style="fill:#262626;" transform="translate(599.164563 247.850688)scale(0.11 -0.11)">
      <use xlink:href="#DejaVuSans-48"/>
      <use x="63.623047" xlink:href="#DejaVuSans-46"/>
      <use x="95.410156" xlink:href="#DejaVuSans-51"/>
     </g>
    </g>
   </g>
   <g id="xtick_18">
    <g id="line2d_38">
     <path clip-path="url(#pd2a3a28b6c)" d="M 376.540541 350.854054 
" style="fill:none;stroke:#ffffff;stroke-linecap:round;"/>
    </g>
    <g id="line2d_39">
     <path d="M 590.219004 205.503469 
L 597.02814 207.19441 
" style="fill:none;stroke:#262626;stroke-linecap:round;stroke-width:1.25;"/>
    </g>
    <g id="text_18">
     <!-- 0.4 -->
     <g style="fill:#262626;" transform="translate(600.743421 212.360902)scale(0.11 -0.11)">
      <use xlink:href="#DejaVuSans-48"/>
      <use x="63.623047" xlink:href="#DejaVuSans-46"/>
      <use x="95.410156" xlink:href="#DejaVuSans-52"/>
     </g>
    </g>
   </g>
  </g>
  <g id="axes_1">
   <g id="Path3DCollection_1">
    <defs>
     <path d="M 0 2.236068 
C 0.593012 2.236068 1.161816 2.000462 1.581139 1.581139 
C 2.000462 1.161816 2.236068 0.593012 2.236068 0 
C 2.236068 -0.593012 2.000462 -1.161816 1.581139 -1.581139 
C 1.161816 -2.000462 0.593012 -2.236068 0 -2.236068 
C -0.593012 -2.236068 -1.161816 -2.000462 -1.581139 -1.581139 
C -2.000462 -1.161816 -2.236068 -0.593012 -2.236068 0 
C -2.236068 0.593012 -2.000462 1.161816 -1.581139 1.581139 
C -1.161816 2.000462 -0.593012 2.236068 0 2.236068 
z
" id="mb02f87eaa7" style="stroke:#64b5cd;"/>
    </defs>
    <g clip-path="url(#pd2a3a28b6c)">
     <use style="fill:#64b5cd;stroke:#64b5cd;" x="434.412514" xlink:href="#mb02f87eaa7" y="364.597788"/>
    </g>
   </g>
   <g id="Path3DCollection_2">
    <defs>
     <path d="M 0 2.236068 
C 0.593012 2.236068 1.161816 2.000462 1.581139 1.581139 
C 2.000462 1.161816 2.236068 0.593012 2.236068 0 
C 2.236068 -0.593012 2.000462 -1.161816 1.581139 -1.581139 
C 1.161816 -2.000462 0.593012 -2.236068 0 -2.236068 
C -0.593012 -2.236068 -1.161816 -2.000462 -1.581139 -1.581139 
C -2.000462 -1.161816 -2.236068 -0.593012 -2.236068 0 
C -2.236068 0.593012 -2.000462 1.161816 -1.581139 1.581139 
C -1.161816 2.000462 -0.593012 2.236068 0 2.236068 
z
" id="mbeec482311" style="stroke:#4c72b0;"/>
    </defs>
    <g clip-path="url(#pd2a3a28b6c)">
     <use style="fill:#4c72b0;stroke:#4c72b0;" x="373.171503" xlink:href="#mbeec482311" y="274.218044"/>
    </g>
   </g>
   <g id="Path3DCollection_3">
    <defs>
     <path d="M 0 2.236068 
C 0.593012 2.236068 1.161816 2.000462 1.581139 1.581139 
C 2.000462 1.161816 2.236068 0.593012 2.236068 0 
C 2.236068 -0.593012 2.000462 -1.161816 1.581139 -1.581139 
C 1.161816 -2.000462 0.593012 -2.236068 0 -2.236068 
C -0.593012 -2.236068 -1.161816 -2.000462 -1.581139 -1.581139 
C -2.000462 -1.161816 -2.236068 -0.593012 -2.236068 0 
C -2.236068 0.593012 -2.000462 1.161816 -1.581139 1.581139 
C -1.161816 2.000462 -0.593012 2.236068 0 2.236068 
z
" id="m84f63667fe" style="stroke:#8172b3;"/>
    </defs>
    <g clip-path="url(#pd2a3a28b6c)">
     <use style="fill:#8172b3;stroke:#8172b3;" x="277.844944" xlink:href="#m84f63667fe" y="388.303414"/>
    </g>
   </g>
   <g id="Path3DCollection_4">
    <g clip-path="url(#pd2a3a28b6c)">
     <use style="fill:#8172b3;stroke:#8172b3;" x="287.322721" xlink:href="#m84f63667fe" y="419.426703"/>
    </g>
   </g>
   <g id="legend_1">
    <g id="patch_6">
     <path d="M 570.633906 193.043437 
L 640.3 193.043437 
Q 642.5 193.043437 642.5 190.843437 
L 642.5 94.1 
Q 642.5 91.9 640.3 91.9 
L 570.633906 91.9 
Q 568.433906 91.9 568.433906 94.1 
L 568.433906 190.843437 
Q 568.433906 193.043437 570.633906 193.043437 
z
" style="fill:#eaeaf2;opacity:0.8;stroke:#cccccc;stroke-linejoin:miter;"/>
    </g>
    <g id="text_19">
     <!-- Classes -->
     <defs>
      <path d="M 64.40625 67.28125 
L 64.40625 56.890625 
Q 59.421875 61.53125 53.78125 63.8125 
Q 48.140625 66.109375 41.796875 66.109375 
Q 29.296875 66.109375 22.65625 58.46875 
Q 16.015625 50.828125 16.015625 36.375 
Q 16.015625 21.96875 22.65625 14.328125 
Q 29.296875 6.6875 41.796875 6.6875 
Q 48.140625 6.6875 53.78125 8.984375 
Q 59.421875 11.28125 64.40625 15.921875 
L 64.40625 5.609375 
Q 59.234375 2.09375 53.4375 0.328125 
Q 47.65625 -1.421875 41.21875 -1.421875 
Q 24.65625 -1.421875 15.125 8.703125 
Q 5.609375 18.84375 5.609375 36.375 
Q 5.609375 53.953125 15.125 64.078125 
Q 24.65625 74.21875 41.21875 74.21875 
Q 47.75 74.21875 53.53125 72.484375 
Q 59.328125 70.75 64.40625 67.28125 
z
" id="DejaVuSans-67"/>
      <path d="M 9.421875 75.984375 
L 18.40625 75.984375 
L 18.40625 0 
L 9.421875 0 
z
" id="DejaVuSans-108"/>
      <path d="M 34.28125 27.484375 
Q 23.390625 27.484375 19.1875 25 
Q 14.984375 22.515625 14.984375 16.5 
Q 14.984375 11.71875 18.140625 8.90625 
Q 21.296875 6.109375 26.703125 6.109375 
Q 34.1875 6.109375 38.703125 11.40625 
Q 43.21875 16.703125 43.21875 25.484375 
L 43.21875 27.484375 
z
M 52.203125 31.203125 
L 52.203125 0 
L 43.21875 0 
L 43.21875 8.296875 
Q 40.140625 3.328125 35.546875 0.953125 
Q 30.953125 -1.421875 24.3125 -1.421875 
Q 15.921875 -1.421875 10.953125 3.296875 
Q 6 8.015625 6 15.921875 
Q 6 25.140625 12.171875 29.828125 
Q 18.359375 34.515625 30.609375 34.515625 
L 43.21875 34.515625 
L 43.21875 35.40625 
Q 43.21875 41.609375 39.140625 45 
Q 35.0625 48.390625 27.6875 48.390625 
Q 23 48.390625 18.546875 47.265625 
Q 14.109375 46.140625 10.015625 43.890625 
L 10.015625 52.203125 
Q 14.9375 54.109375 19.578125 55.046875 
Q 24.21875 56 28.609375 56 
Q 40.484375 56 46.34375 49.84375 
Q 52.203125 43.703125 52.203125 31.203125 
z
" id="DejaVuSans-97"/>
      <path d="M 44.28125 53.078125 
L 44.28125 44.578125 
Q 40.484375 46.53125 36.375 47.5 
Q 32.28125 48.484375 27.875 48.484375 
Q 21.1875 48.484375 17.84375 46.4375 
Q 14.5 44.390625 14.5 40.28125 
Q 14.5 37.15625 16.890625 35.375 
Q 19.28125 33.59375 26.515625 31.984375 
L 29.59375 31.296875 
Q 39.15625 29.25 43.1875 25.515625 
Q 47.21875 21.78125 47.21875 15.09375 
Q 47.21875 7.46875 41.1875 3.015625 
Q 35.15625 -1.421875 24.609375 -1.421875 
Q 20.21875 -1.421875 15.453125 -0.5625 
Q 10.6875 0.296875 5.421875 2 
L 5.421875 11.28125 
Q 10.40625 8.6875 15.234375 7.390625 
Q 20.0625 6.109375 24.8125 6.109375 
Q 31.15625 6.109375 34.5625 8.28125 
Q 37.984375 10.453125 37.984375 14.40625 
Q 37.984375 18.0625 35.515625 20.015625 
Q 33.0625 21.96875 24.703125 23.78125 
L 21.578125 24.515625 
Q 13.234375 26.265625 9.515625 29.90625 
Q 5.8125 33.546875 5.8125 39.890625 
Q 5.8125 47.609375 11.28125 51.796875 
Q 16.75 56 26.8125 56 
Q 31.78125 56 36.171875 55.265625 
Q 40.578125 54.546875 44.28125 53.078125 
z
" id="DejaVuSans-115"/>
      <path d="M 56.203125 29.59375 
L 56.203125 25.203125 
L 14.890625 25.203125 
Q 15.484375 15.921875 20.484375 11.0625 
Q 25.484375 6.203125 34.421875 6.203125 
Q 39.59375 6.203125 44.453125 7.46875 
Q 49.3125 8.734375 54.109375 11.28125 
L 54.109375 2.78125 
Q 49.265625 0.734375 44.1875 -0.34375 
Q 39.109375 -1.421875 33.890625 -1.421875 
Q 20.796875 -1.421875 13.15625 6.1875 
Q 5.515625 13.8125 5.515625 26.8125 
Q 5.515625 40.234375 12.765625 48.109375 
Q 20.015625 56 32.328125 56 
Q 43.359375 56 49.78125 48.890625 
Q 56.203125 41.796875 56.203125 29.59375 
z
M 47.21875 32.234375 
Q 47.125 39.59375 43.09375 43.984375 
Q 39.0625 48.390625 32.421875 48.390625 
Q 24.90625 48.390625 20.390625 44.140625 
Q 15.875 39.890625 15.1875 32.171875 
z
" id="DejaVuSans-101"/>
     </defs>
     <g style="fill:#262626;" transform="translate(582.864766 105.418125)scale(0.12 -0.12)">
      <use xlink:href="#DejaVuSans-67"/>
      <use x="69.824219" xlink:href="#DejaVuSans-108"/>
      <use x="97.607422" xlink:href="#DejaVuSans-97"/>
      <use x="158.886719" xlink:href="#DejaVuSans-115"/>
      <use x="210.986328" xlink:href="#DejaVuSans-115"/>
      <use x="263.085938" xlink:href="#DejaVuSans-101"/>
      <use x="324.609375" xlink:href="#DejaVuSans-115"/>
     </g>
    </g>
    <g id="line2d_40">
     <path d="M 572.833906 117.922031 
L 594.833906 117.922031 
" style="fill:none;stroke:#4c72b0;stroke-linecap:round;stroke-width:1.5;"/>
    </g>
    <g id="line2d_41">
     <defs>
      <path d="M 0 3 
C 0.795609 3 1.55874 2.683901 2.12132 2.12132 
C 2.683901 1.55874 3 0.795609 3 0 
C 3 -0.795609 2.683901 -1.55874 2.12132 -2.12132 
C 1.55874 -2.683901 0.795609 -3 0 -3 
C -0.795609 -3 -1.55874 -2.683901 -2.12132 -2.12132 
C -2.683901 -1.55874 -3 -0.795609 -3 0 
C -3 0.795609 -2.683901 1.55874 -2.12132 2.12132 
C -1.55874 2.683901 -0.795609 3 0 3 
z
" id="md8f3300ae4" style="stroke:#4c72b0;"/>
     </defs>
     <g>
      <use style="fill:#4c72b0;stroke:#4c72b0;" x="583.833906" xlink:href="#md8f3300ae4" y="117.922031"/>
     </g>
    </g>
    <g id="text_20">
     <!-- fru -->
     <defs>
      <path d="M 37.109375 75.984375 
L 37.109375 68.5 
L 28.515625 68.5 
Q 23.6875 68.5 21.796875 66.546875 
Q 19.921875 64.59375 19.921875 59.515625 
L 19.921875 54.6875 
L 34.71875 54.6875 
L 34.71875 47.703125 
L 19.921875 47.703125 
L 19.921875 0 
L 10.890625 0 
L 10.890625 47.703125 
L 2.296875 47.703125 
L 2.296875 54.6875 
L 10.890625 54.6875 
L 10.890625 58.5 
Q 10.890625 67.625 15.140625 71.796875 
Q 19.390625 75.984375 28.609375 75.984375 
z
" id="DejaVuSans-102"/>
      <path d="M 41.109375 46.296875 
Q 39.59375 47.171875 37.8125 47.578125 
Q 36.03125 48 33.890625 48 
Q 26.265625 48 22.1875 43.046875 
Q 18.109375 38.09375 18.109375 28.8125 
L 18.109375 0 
L 9.078125 0 
L 9.078125 54.6875 
L 18.109375 54.6875 
L 18.109375 46.1875 
Q 20.953125 51.171875 25.484375 53.578125 
Q 30.03125 56 36.53125 56 
Q 37.453125 56 38.578125 55.875 
Q 39.703125 55.765625 41.0625 55.515625 
z
" id="DejaVuSans-114"/>
      <path d="M 8.5 21.578125 
L 8.5 54.6875 
L 17.484375 54.6875 
L 17.484375 21.921875 
Q 17.484375 14.15625 20.5 10.265625 
Q 23.53125 6.390625 29.59375 6.390625 
Q 36.859375 6.390625 41.078125 11.03125 
Q 45.3125 15.671875 45.3125 23.6875 
L 45.3125 54.6875 
L 54.296875 54.6875 
L 54.296875 0 
L 45.3125 0 
L 45.3125 8.40625 
Q 42.046875 3.421875 37.71875 1 
Q 33.40625 -1.421875 27.6875 -1.421875 
Q 18.265625 -1.421875 13.375 4.4375 
Q 8.5 10.296875 8.5 21.578125 
z
M 31.109375 56 
z
" id="DejaVuSans-117"/>
     </defs>
     <g style="fill:#262626;" transform="translate(603.633906 121.772031)scale(0.11 -0.11)">
      <use xlink:href="#DejaVuSans-102"/>
      <use x="35.205078" xlink:href="#DejaVuSans-114"/>
      <use x="76.318359" xlink:href="#DejaVuSans-117"/>
     </g>
    </g>
    <g id="line2d_42">
     <path d="M 572.833906 134.067969 
L 594.833906 134.067969 
" style="fill:none;stroke:#55a868;stroke-linecap:round;stroke-width:1.5;"/>
    </g>
    <g id="line2d_43">
     <defs>
      <path d="M 0 3 
C 0.795609 3 1.55874 2.683901 2.12132 2.12132 
C 2.683901 1.55874 3 0.795609 3 0 
C 3 -0.795609 2.683901 -1.55874 2.12132 -2.12132 
C 1.55874 -2.683901 0.795609 -3 0 -3 
C -0.795609 -3 -1.55874 -2.683901 -2.12132 -2.12132 
C -2.683901 -1.55874 -3 -0.795609 -3 0 
C -3 0.795609 -2.683901 1.55874 -2.12132 2.12132 
C -1.55874 2.683901 -0.795609 3 0 3 
z
" id="m08d33ccfa2" style="stroke:#55a868;"/>
     </defs>
     <g>
      <use style="fill:#55a868;stroke:#55a868;" x="583.833906" xlink:href="#m08d33ccfa2" y="134.067969"/>
     </g>
    </g>
    <g id="text_21">
     <!-- glu -->
     <defs>
      <path d="M 45.40625 27.984375 
Q 45.40625 37.75 41.375 43.109375 
Q 37.359375 48.484375 30.078125 48.484375 
Q 22.859375 48.484375 18.828125 43.109375 
Q 14.796875 37.75 14.796875 27.984375 
Q 14.796875 18.265625 18.828125 12.890625 
Q 22.859375 7.515625 30.078125 7.515625 
Q 37.359375 7.515625 41.375 12.890625 
Q 45.40625 18.265625 45.40625 27.984375 
z
M 54.390625 6.78125 
Q 54.390625 -7.171875 48.1875 -13.984375 
Q 42 -20.796875 29.203125 -20.796875 
Q 24.46875 -20.796875 20.265625 -20.09375 
Q 16.0625 -19.390625 12.109375 -17.921875 
L 12.109375 -9.1875 
Q 16.0625 -11.328125 19.921875 -12.34375 
Q 23.78125 -13.375 27.78125 -13.375 
Q 36.625 -13.375 41.015625 -8.765625 
Q 45.40625 -4.15625 45.40625 5.171875 
L 45.40625 9.625 
Q 42.625 4.78125 38.28125 2.390625 
Q 33.9375 0 27.875 0 
Q 17.828125 0 11.671875 7.65625 
Q 5.515625 15.328125 5.515625 27.984375 
Q 5.515625 40.671875 11.671875 48.328125 
Q 17.828125 56 27.875 56 
Q 33.9375 56 38.28125 53.609375 
Q 42.625 51.21875 45.40625 46.390625 
L 45.40625 54.6875 
L 54.390625 54.6875 
z
" id="DejaVuSans-103"/>
     </defs>
     <g style="fill:#262626;" transform="translate(603.633906 137.917969)scale(0.11 -0.11)">
      <use xlink:href="#DejaVuSans-103"/>
      <use x="63.476562" xlink:href="#DejaVuSans-108"/>
      <use x="91.259766" xlink:href="#DejaVuSans-117"/>
     </g>
    </g>
    <g id="line2d_44">
     <path d="M 572.833906 150.213906 
L 594.833906 150.213906 
" style="fill:none;stroke:#c44e52;stroke-linecap:round;stroke-width:1.5;"/>
    </g>
    <g id="line2d_45">
     <defs>
      <path d="M 0 3 
C 0.795609 3 1.55874 2.683901 2.12132 2.12132 
C 2.683901 1.55874 3 0.795609 3 0 
C 3 -0.795609 2.683901 -1.55874 2.12132 -2.12132 
C 1.55874 -2.683901 0.795609 -3 0 -3 
C -0.795609 -3 -1.55874 -2.683901 -2.12132 -2.12132 
C -2.683901 -1.55874 -3 -0.795609 -3 0 
C -3 0.795609 -2.683901 1.55874 -2.12132 2.12132 
C -1.55874 2.683901 -0.795609 3 0 3 
z
" id="m2d9dc7047b" style="stroke:#c44e52;"/>
     </defs>
     <g>
      <use style="fill:#c44e52;stroke:#c44e52;" x="583.833906" xlink:href="#m2d9dc7047b" y="150.213906"/>
     </g>
    </g>
    <g id="text_22">
     <!-- man -->
     <defs>
      <path d="M 52 44.1875 
Q 55.375 50.25 60.0625 53.125 
Q 64.75 56 71.09375 56 
Q 79.640625 56 84.28125 50.015625 
Q 88.921875 44.046875 88.921875 33.015625 
L 88.921875 0 
L 79.890625 0 
L 79.890625 32.71875 
Q 79.890625 40.578125 77.09375 44.375 
Q 74.3125 48.1875 68.609375 48.1875 
Q 61.625 48.1875 57.5625 43.546875 
Q 53.515625 38.921875 53.515625 30.90625 
L 53.515625 0 
L 44.484375 0 
L 44.484375 32.71875 
Q 44.484375 40.625 41.703125 44.40625 
Q 38.921875 48.1875 33.109375 48.1875 
Q 26.21875 48.1875 22.15625 43.53125 
Q 18.109375 38.875 18.109375 30.90625 
L 18.109375 0 
L 9.078125 0 
L 9.078125 54.6875 
L 18.109375 54.6875 
L 18.109375 46.1875 
Q 21.1875 51.21875 25.484375 53.609375 
Q 29.78125 56 35.6875 56 
Q 41.65625 56 45.828125 52.96875 
Q 50 49.953125 52 44.1875 
z
" id="DejaVuSans-109"/>
      <path d="M 54.890625 33.015625 
L 54.890625 0 
L 45.90625 0 
L 45.90625 32.71875 
Q 45.90625 40.484375 42.875 44.328125 
Q 39.84375 48.1875 33.796875 48.1875 
Q 26.515625 48.1875 22.3125 43.546875 
Q 18.109375 38.921875 18.109375 30.90625 
L 18.109375 0 
L 9.078125 0 
L 9.078125 54.6875 
L 18.109375 54.6875 
L 18.109375 46.1875 
Q 21.34375 51.125 25.703125 53.5625 
Q 30.078125 56 35.796875 56 
Q 45.21875 56 50.046875 50.171875 
Q 54.890625 44.34375 54.890625 33.015625 
z
" id="DejaVuSans-110"/>
     </defs>
     <g style="fill:#262626;" transform="translate(603.633906 154.063906)scale(0.11 -0.11)">
      <use xlink:href="#DejaVuSans-109"/>
      <use x="97.412109" xlink:href="#DejaVuSans-97"/>
      <use x="158.691406" xlink:href="#DejaVuSans-110"/>
     </g>
    </g>
    <g id="line2d_46">
     <path d="M 572.833906 166.359844 
L 594.833906 166.359844 
" style="fill:none;stroke:#64b5cd;stroke-linecap:round;stroke-width:1.5;"/>
    </g>
    <g id="line2d_47">
     <defs>
      <path d="M 0 3 
C 0.795609 3 1.55874 2.683901 2.12132 2.12132 
C 2.683901 1.55874 3 0.795609 3 0 
C 3 -0.795609 2.683901 -1.55874 2.12132 -2.12132 
C 1.55874 -2.683901 0.795609 -3 0 -3 
C -0.795609 -3 -1.55874 -2.683901 -2.12132 -2.12132 
C -2.683901 -1.55874 -3 -0.795609 -3 0 
C -3 0.795609 -2.683901 1.55874 -2.12132 2.12132 
C -1.55874 2.683901 -0.795609 3 0 3 
z
" id="m8d1c6e0c09" style="stroke:#64b5cd;"/>
     </defs>
     <g>
      <use style="fill:#64b5cd;stroke:#64b5cd;" x="583.833906" xlink:href="#m8d1c6e0c09" y="166.359844"/>
     </g>
    </g>
    <g id="text_23">
     <!-- mal -->
     <g style="fill:#262626;" transform="translate(603.633906 170.209844)scale(0.11 -0.11)">
      <use xlink:href="#DejaVuSans-109"/>
      <use x="97.412109" xlink:href="#DejaVuSans-97"/>
      <use x="158.691406" xlink:href="#DejaVuSans-108"/>
     </g>
    </g>
    <g id="line2d_48">
     <path d="M 572.833906 182.505781 
L 594.833906 182.505781 
" style="fill:none;stroke:#8172b3;stroke-linecap:round;stroke-width:1.5;"/>
    </g>
    <g id="line2d_49">
     <defs>
      <path d="M 0 3 
C 0.795609 3 1.55874 2.683901 2.12132 2.12132 
C 2.683901 1.55874 3 0.795609 3 0 
C 3 -0.795609 2.683901 -1.55874 2.12132 -2.12132 
C 1.55874 -2.683901 0.795609 -3 0 -3 
C -0.795609 -3 -1.55874 -2.683901 -2.12132 -2.12132 
C -2.683901 -1.55874 -3 -0.795609 -3 0 
C -3 0.795609 -2.683901 1.55874 -2.12132 2.12132 
C -1.55874 2.683901 -0.795609 3 0 3 
z
" id="m144a41a4c9" style="stroke:#8172b3;"/>
     </defs>
     <g>
      <use style="fill:#8172b3;stroke:#8172b3;" x="583.833906" xlink:href="#m144a41a4c9" y="182.505781"/>
     </g>
    </g>
    <g id="text_24">
     <!-- gluam -->
     <g style="fill:#262626;" transform="translate(603.633906 186.355781)scale(0.11 -0.11)">
      <use xlink:href="#DejaVuSans-103"/>
      <use x="63.476562" xlink:href="#DejaVuSans-108"/>
      <use x="91.259766" xlink:href="#DejaVuSans-117"/>
      <use x="154.638672" xlink:href="#DejaVuSans-97"/>
      <use x="215.917969" xlink:href="#DejaVuSans-109"/>
     </g>
    </g>
   </g>
   <g id="Path3DCollection_5">
    <g clip-path="url(#pd2a3a28b6c)">
     <use style="fill:#8172b3;stroke:#8172b3;" x="288.21799" xlink:href="#m84f63667fe" y="443.976468"/>
    </g>
   </g>
   <g id="Path3DCollection_6">
    <defs>
     <path d="M 0 2.236068 
C 0.593012 2.236068 1.161816 2.000462 1.581139 1.581139 
C 2.000462 1.161816 2.236068 0.593012 2.236068 0 
C 2.236068 -0.593012 2.000462 -1.161816 1.581139 -1.581139 
C 1.161816 -2.000462 0.593012 -2.236068 0 -2.236068 
C -0.593012 -2.236068 -1.161816 -2.000462 -1.581139 -1.581139 
C -2.000462 -1.161816 -2.236068 -0.593012 -2.236068 0 
C -2.236068 0.593012 -2.000462 1.161816 -1.581139 1.581139 
C -1.161816 2.000462 -0.593012 2.236068 0 2.236068 
z
" id="m1db67915ef" style="stroke:#55a868;"/>
    </defs>
    <g clip-path="url(#pd2a3a28b6c)">
     <use style="fill:#55a868;stroke:#55a868;" x="459.475986" xlink:href="#m1db67915ef" y="417.173809"/>
    </g>
   </g>
   <g id="Path3DCollection_7">
    <g clip-path="url(#pd2a3a28b6c)">
     <use style="fill:#64b5cd;stroke:#64b5cd;" x="393.755282" xlink:href="#mb02f87eaa7" y="349.484666"/>
    </g>
   </g>
   <g id="Path3DCollection_8">
    <g clip-path="url(#pd2a3a28b6c)">
     <use style="fill:#8172b3;stroke:#8172b3;" x="340.754339" xlink:href="#m84f63667fe" y="405.959395"/>
    </g>
   </g>
   <g id="Path3DCollection_9">
    <g clip-path="url(#pd2a3a28b6c)">
     <use style="fill:#4c72b0;stroke:#4c72b0;" x="396.99634" xlink:href="#mbeec482311" y="167.470497"/>
    </g>
   </g>
   <g id="Path3DCollection_10">
    <defs>
     <path d="M 0 2.236068 
C 0.593012 2.236068 1.161816 2.000462 1.581139 1.581139 
C 2.000462 1.161816 2.236068 0.593012 2.236068 0 
C 2.236068 -0.593012 2.000462 -1.161816 1.581139 -1.581139 
C 1.161816 -2.000462 0.593012 -2.236068 0 -2.236068 
C -0.593012 -2.236068 -1.161816 -2.000462 -1.581139 -1.581139 
C -2.000462 -1.161816 -2.236068 -0.593012 -2.236068 0 
C -2.236068 0.593012 -2.000462 1.161816 -1.581139 1.581139 
C -1.161816 2.000462 -0.593012 2.236068 0 2.236068 
z
" id="m214873ef89" style="stroke:#c44e52;"/>
    </defs>
    <g clip-path="url(#pd2a3a28b6c)">
     <use style="fill:#c44e52;stroke:#c44e52;" x="293.848185" xlink:href="#m214873ef89" y="433.952"/>
    </g>
   </g>
   <g id="Path3DCollection_11">
    <g clip-path="url(#pd2a3a28b6c)">
     <use style="fill:#c44e52;stroke:#c44e52;" x="391.989443" xlink:href="#m214873ef89" y="303.20271"/>
    </g>
   </g>
   <g id="Path3DCollection_12">
    <g clip-path="url(#pd2a3a28b6c)">
     <use style="fill:#55a868;stroke:#55a868;" x="289.197237" xlink:href="#m1db67915ef" y="287.366262"/>
    </g>
   </g>
   <g id="Path3DCollection_13">
    <g clip-path="url(#pd2a3a28b6c)">
     <use style="fill:#55a868;stroke:#55a868;" x="281.718891" xlink:href="#m1db67915ef" y="431.165326"/>
    </g>
   </g>
   <g id="Path3DCollection_14">
    <g clip-path="url(#pd2a3a28b6c)">
     <use style="fill:#55a868;stroke:#55a868;" x="421.204571" xlink:href="#m1db67915ef" y="447.575077"/>
    </g>
   </g>
   <g id="Path3DCollection_15">
    <g clip-path="url(#pd2a3a28b6c)">
     <use style="fill:#4c72b0;stroke:#4c72b0;" x="293.751102" xlink:href="#mbeec482311" y="348.291665"/>
    </g>
   </g>
   <g id="Path3DCollection_16">
    <g clip-path="url(#pd2a3a28b6c)">
     <use style="fill:#55a868;stroke:#55a868;" x="296.859229" xlink:href="#m1db67915ef" y="361.446507"/>
    </g>
   </g>
   <g id="Path3DCollection_17">
    <g clip-path="url(#pd2a3a28b6c)">
     <use style="fill:#8172b3;stroke:#8172b3;" x="446.748865" xlink:href="#m84f63667fe" y="366.497093"/>
    </g>
   </g>
   <g id="Path3DCollection_18">
    <g clip-path="url(#pd2a3a28b6c)">
     <use style="fill:#8172b3;stroke:#8172b3;" x="426.249774" xlink:href="#m84f63667fe" y="457.588671"/>
    </g>
   </g>
   <g id="Path3DCollection_19">
    <g clip-path="url(#pd2a3a28b6c)">
     <use style="fill:#8172b3;stroke:#8172b3;" x="439.74691" xlink:href="#m84f63667fe" y="412.225635"/>
    </g>
   </g>
   <g id="Path3DCollection_20">
    <g clip-path="url(#pd2a3a28b6c)">
     <use style="fill:#c44e52;stroke:#c44e52;" x="412.8688" xlink:href="#m214873ef89" y="355.666248"/>
    </g>
   </g>
   <g id="Path3DCollection_21">
    <g clip-path="url(#pd2a3a28b6c)">
     <use style="fill:#55a868;stroke:#55a868;" x="279.95222" xlink:href="#m1db67915ef" y="357.662438"/>
    </g>
   </g>
   <g id="Path3DCollection_22">
    <g clip-path="url(#pd2a3a28b6c)">
     <use style="fill:#c44e52;stroke:#c44e52;" x="309.148348" xlink:href="#m214873ef89" y="450.539047"/>
    </g>
   </g>
   <g id="Path3DCollection_23">
    <g clip-path="url(#pd2a3a28b6c)">
     <use style="fill:#c44e52;stroke:#c44e52;" x="451.096235" xlink:href="#m214873ef89" y="407.92673"/>
    </g>
   </g>
   <g id="Path3DCollection_24">
    <g clip-path="url(#pd2a3a28b6c)">
     <use style="fill:#c44e52;stroke:#c44e52;" x="300.63285" xlink:href="#m214873ef89" y="460.753276"/>
    </g>
   </g>
   <g id="Path3DCollection_25">
    <g clip-path="url(#pd2a3a28b6c)">
     <use style="fill:#55a868;stroke:#55a868;" x="450.613133" xlink:href="#m1db67915ef" y="424.315297"/>
    </g>
   </g>
   <g id="Path3DCollection_26">
    <g clip-path="url(#pd2a3a28b6c)">
     <use style="fill:#c44e52;stroke:#c44e52;" x="452.143301" xlink:href="#m214873ef89" y="451.042669"/>
    </g>
   </g>
   <g id="Path3DCollection_27">
    <g clip-path="url(#pd2a3a28b6c)">
     <use style="fill:#64b5cd;stroke:#64b5cd;" x="396.770353" xlink:href="#mb02f87eaa7" y="365.080824"/>
    </g>
   </g>
   <g id="Path3DCollection_28">
    <g clip-path="url(#pd2a3a28b6c)">
     <use style="fill:#64b5cd;stroke:#64b5cd;" x="416.297881" xlink:href="#mb02f87eaa7" y="421.219768"/>
    </g>
   </g>
   <g id="Path3DCollection_29">
    <g clip-path="url(#pd2a3a28b6c)">
     <use style="fill:#4c72b0;stroke:#4c72b0;" x="285.690514" xlink:href="#mbeec482311" y="386.561843"/>
    </g>
   </g>
   <g id="Path3DCollection_30">
    <g clip-path="url(#pd2a3a28b6c)">
     <use style="fill:#55a868;stroke:#55a868;" x="292.012561" xlink:href="#m1db67915ef" y="446.190236"/>
    </g>
   </g>
   <g id="Path3DCollection_31">
    <g clip-path="url(#pd2a3a28b6c)">
     <use style="fill:#c44e52;stroke:#c44e52;" x="420.298405" xlink:href="#m214873ef89" y="410.259073"/>
    </g>
   </g>
   <g id="Path3DCollection_32">
    <g clip-path="url(#pd2a3a28b6c)">
     <use style="fill:#4c72b0;stroke:#4c72b0;" x="404.777568" xlink:href="#mbeec482311" y="259.891292"/>
    </g>
   </g>
   <g id="Path3DCollection_33">
    <g clip-path="url(#pd2a3a28b6c)">
     <use style="fill:#c44e52;stroke:#c44e52;" x="461.207613" xlink:href="#m214873ef89" y="316.524001"/>
    </g>
   </g>
   <g id="Path3DCollection_34">
    <g clip-path="url(#pd2a3a28b6c)">
     <use style="fill:#8172b3;stroke:#8172b3;" x="390.943656" xlink:href="#m84f63667fe" y="272.810962"/>
    </g>
   </g>
   <g id="Path3DCollection_35">
    <g clip-path="url(#pd2a3a28b6c)">
     <use style="fill:#4c72b0;stroke:#4c72b0;" x="411.106866" xlink:href="#mbeec482311" y="334.790728"/>
    </g>
   </g>
   <g id="Path3DCollection_36">
    <g clip-path="url(#pd2a3a28b6c)">
     <use style="fill:#4c72b0;stroke:#4c72b0;" x="292.758124" xlink:href="#mbeec482311" y="396.918763"/>
    </g>
   </g>
   <g id="Path3DCollection_37">
    <g clip-path="url(#pd2a3a28b6c)">
     <use style="fill:#55a868;stroke:#55a868;" x="266.540336" xlink:href="#m1db67915ef" y="271.069342"/>
    </g>
   </g>
   <g id="Path3DCollection_38">
    <g clip-path="url(#pd2a3a28b6c)">
     <use style="fill:#8172b3;stroke:#8172b3;" x="423.644002" xlink:href="#m84f63667fe" y="392.682793"/>
    </g>
   </g>
   <g id="Path3DCollection_39">
    <g clip-path="url(#pd2a3a28b6c)">
     <use style="fill:#55a868;stroke:#55a868;" x="265.572103" xlink:href="#m1db67915ef" y="349.905011"/>
    </g>
   </g>
   <g id="Path3DCollection_40">
    <g clip-path="url(#pd2a3a28b6c)">
     <use style="fill:#8172b3;stroke:#8172b3;" x="392.791729" xlink:href="#m84f63667fe" y="422.247869"/>
    </g>
   </g>
   <g id="Path3DCollection_41">
    <g clip-path="url(#pd2a3a28b6c)">
     <use style="fill:#64b5cd;stroke:#64b5cd;" x="460.646821" xlink:href="#mb02f87eaa7" y="395.98579"/>
    </g>
   </g>
   <g id="Path3DCollection_42">
    <g clip-path="url(#pd2a3a28b6c)">
     <use style="fill:#4c72b0;stroke:#4c72b0;" x="370.386197" xlink:href="#mbeec482311" y="431.372793"/>
    </g>
   </g>
   <g id="Path3DCollection_43">
    <g clip-path="url(#pd2a3a28b6c)">
     <use style="fill:#64b5cd;stroke:#64b5cd;" x="321.741333" xlink:href="#mb02f87eaa7" y="412.808532"/>
    </g>
   </g>
   <g id="Path3DCollection_44">
    <g clip-path="url(#pd2a3a28b6c)">
     <use style="fill:#64b5cd;stroke:#64b5cd;" x="381.993291" xlink:href="#mb02f87eaa7" y="327.61356"/>
    </g>
   </g>
   <g id="Path3DCollection_45">
    <g clip-path="url(#pd2a3a28b6c)">
     <use style="fill:#4c72b0;stroke:#4c72b0;" x="333.973659" xlink:href="#mbeec482311" y="475.265126"/>
    </g>
   </g>
   <g id="Path3DCollection_46">
    <g clip-path="url(#pd2a3a28b6c)">
     <use style="fill:#c44e52;stroke:#c44e52;" x="264.124681" xlink:href="#m214873ef89" y="309.527749"/>
    </g>
   </g>
   <g id="Path3DCollection_47">
    <g clip-path="url(#pd2a3a28b6c)">
     <use style="fill:#64b5cd;stroke:#64b5cd;" x="297.732923" xlink:href="#mb02f87eaa7" y="348.236455"/>
    </g>
   </g>
   <g id="Path3DCollection_48">
    <g clip-path="url(#pd2a3a28b6c)">
     <use style="fill:#64b5cd;stroke:#64b5cd;" x="304.78068" xlink:href="#mb02f87eaa7" y="350.44128"/>
    </g>
   </g>
   <g id="Path3DCollection_49">
    <g clip-path="url(#pd2a3a28b6c)">
     <use style="fill:#4c72b0;stroke:#4c72b0;" x="433.226191" xlink:href="#mbeec482311" y="406.469119"/>
    </g>
   </g>
  </g>
 </g>
 <defs>
  <clipPath id="pd2a3a28b6c">
   <rect height="543.6" width="558" x="90" y="86.4"/>
  </clipPath>
 </defs>
</svg>
