<?xml version="1.0" encoding="utf-8" standalone="no"?>
<!DOCTYPE svg PUBLIC "-//W3C//DTD SVG 1.1//EN"
  "http://www.w3.org/Graphics/SVG/1.1/DTD/svg11.dtd">
<!-- Created with matplotlib (https://matplotlib.org/) -->
<svg height="720pt" version="1.1" viewBox="0 0 720 720" width="720pt" xmlns="http://www.w3.org/2000/svg" xmlns:xlink="http://www.w3.org/1999/xlink">
 <defs>
  <style type="text/css">
*{stroke-linecap:butt;stroke-linejoin:round;}
  </style>
 </defs>
 <g id="figure_1">
  <g id="patch_1">
   <path d="M 0 720 
L 720 720 
L 720 0 
L 0 0 
z
" style="fill:#ffffff;"/>
  </g>
  <g id="patch_2">
   <path d="M 90 630 
L 648 630 
L 648 86.4 
L 90 86.4 
z
" style="fill:#eaeaf2;"/>
  </g>
  <g id="pane3d_1">
   <g id="patch_3">
    <path d="M 163.971523 509.883558 
L 323.674042 376.605155 
L 321.015164 121.932002 
L 152.408183 241.679906 
" style="fill:#f2f2f2;opacity:0.5;stroke:#f2f2f2;stroke-linejoin:miter;"/>
   </g>
  </g>
  <g id="pane3d_2">
   <g id="patch_4">
    <path d="M 323.674042 376.605155 
L 582.377109 451.116383 
L 593.200935 188.763664 
L 321.015164 121.932002 
" style="fill:#e6e6e6;opacity:0.5;stroke:#e6e6e6;stroke-linejoin:miter;"/>
   </g>
  </g>
  <g id="pane3d_3">
   <g id="patch_5">
    <path d="M 163.971523 509.883558 
L 436.162105 596.664023 
L 582.377109 451.116383 
L 323.674042 376.605155 
" style="fill:#ececec;opacity:0.5;stroke:#ececec;stroke-linejoin:miter;"/>
   </g>
  </g>
  <g id="axis3d_1">
   <g id="line2d_1">
    <path d="M 163.971523 509.883558 
L 436.162105 596.664023 
" style="fill:none;stroke:#ffffff;stroke-linecap:round;stroke-width:1.25;"/>
   </g>
   <g id="Line3DCollection_1">
    <path d="M 179.770781 514.920716 
L 338.737928 380.94383 
L 336.831645 125.815532 
" style="fill:none;stroke:#ffffff;"/>
    <path d="M 229.798623 530.870714 
L 386.398516 394.670954 
L 386.89978 138.109109 
" style="fill:none;stroke:#ffffff;"/>
    <path d="M 280.691638 547.09655 
L 434.823034 408.618103 
L 437.811585 150.609838 
" style="fill:none;stroke:#ffffff;"/>
    <path d="M 332.472464 563.605439 
L 484.029996 422.79061 
L 489.588565 163.322999 
" style="fill:none;stroke:#ffffff;"/>
    <path d="M 385.164536 580.404854 
L 534.038521 437.193983 
L 542.252962 176.254054 
" style="fill:none;stroke:#ffffff;"/>
   </g>
   <g id="xtick_1">
    <g id="line2d_2">
     <path clip-path="url(#p9267c4a747)" d="M 376.540541 350.854054 
" style="fill:none;stroke:#ffffff;stroke-linecap:round;"/>
    </g>
    <g id="line2d_3">
     <path d="M 181.140351 513.766447 
L 177.026532 517.233558 
" style="fill:none;stroke:#262626;stroke-linecap:round;stroke-width:1.25;"/>
    </g>
    <g id="text_1">
     <!-- −0.2 -->
     <defs>
      <path d="M 52.828125 31.203125 
L 5.5625 31.203125 
L 5.5625 39.40625 
L 52.828125 39.40625 
z
" id="ArialMT-8722"/>
      <path d="M 4.15625 35.296875 
Q 4.15625 48 6.765625 55.734375 
Q 9.375 63.484375 14.515625 67.671875 
Q 19.671875 71.875 27.484375 71.875 
Q 33.25 71.875 37.59375 69.546875 
Q 41.9375 67.234375 44.765625 62.859375 
Q 47.609375 58.5 49.21875 52.21875 
Q 50.828125 45.953125 50.828125 35.296875 
Q 50.828125 22.703125 48.234375 14.96875 
Q 45.65625 7.234375 40.5 3 
Q 35.359375 -1.21875 27.484375 -1.21875 
Q 17.140625 -1.21875 11.234375 6.203125 
Q 4.15625 15.140625 4.15625 35.296875 
z
M 13.1875 35.296875 
Q 13.1875 17.671875 17.3125 11.828125 
Q 21.4375 6 27.484375 6 
Q 33.546875 6 37.671875 11.859375 
Q 41.796875 17.71875 41.796875 35.296875 
Q 41.796875 52.984375 37.671875 58.78125 
Q 33.546875 64.59375 27.390625 64.59375 
Q 21.34375 64.59375 17.71875 59.46875 
Q 13.1875 52.9375 13.1875 35.296875 
z
" id="ArialMT-48"/>
      <path d="M 9.078125 0 
L 9.078125 10.015625 
L 19.09375 10.015625 
L 19.09375 0 
z
" id="ArialMT-46"/>
      <path d="M 50.34375 8.453125 
L 50.34375 0 
L 3.03125 0 
Q 2.9375 3.171875 4.046875 6.109375 
Q 5.859375 10.9375 9.828125 15.625 
Q 13.8125 20.3125 21.34375 26.46875 
Q 33.015625 36.03125 37.109375 41.625 
Q 41.21875 47.21875 41.21875 52.203125 
Q 41.21875 57.421875 37.46875 61 
Q 33.734375 64.59375 27.734375 64.59375 
Q 21.390625 64.59375 17.578125 60.78125 
Q 13.765625 56.984375 13.71875 50.25 
L 4.6875 51.171875 
Q 5.609375 61.28125 11.65625 66.578125 
Q 17.71875 71.875 27.9375 71.875 
Q 38.234375 71.875 44.234375 66.15625 
Q 50.25 60.453125 50.25 52 
Q 50.25 47.703125 48.484375 43.546875 
Q 46.734375 39.40625 42.65625 34.8125 
Q 38.578125 30.21875 29.109375 22.21875 
Q 21.1875 15.578125 18.9375 13.203125 
Q 16.703125 10.84375 15.234375 8.453125 
z
" id="ArialMT-50"/>
     </defs>
     <g style="fill:#262626;" transform="translate(162.447757 538.812493)scale(0.11 -0.11)">
      <use xlink:href="#ArialMT-8722"/>
      <use x="58.398438" xlink:href="#ArialMT-48"/>
      <use x="114.013672" xlink:href="#ArialMT-46"/>
      <use x="141.796875" xlink:href="#ArialMT-50"/>
     </g>
    </g>
   </g>
   <g id="xtick_2">
    <g id="line2d_4">
     <path clip-path="url(#p9267c4a747)" d="M 376.540541 350.854054 
" style="fill:none;stroke:#ffffff;stroke-linecap:round;"/>
    </g>
    <g id="line2d_5">
     <path d="M 231.148625 529.696577 
L 227.093543 533.223406 
" style="fill:none;stroke:#262626;stroke-linecap:round;stroke-width:1.25;"/>
    </g>
    <g id="text_2">
     <!-- −0.1 -->
     <defs>
      <path d="M 37.25 0 
L 28.46875 0 
L 28.46875 56 
Q 25.296875 52.984375 20.140625 49.953125 
Q 14.984375 46.921875 10.890625 45.40625 
L 10.890625 53.90625 
Q 18.265625 57.375 23.78125 62.296875 
Q 29.296875 67.234375 31.59375 71.875 
L 37.25 71.875 
z
" id="ArialMT-49"/>
     </defs>
     <g style="fill:#262626;" transform="translate(212.472485 554.916653)scale(0.11 -0.11)">
      <use xlink:href="#ArialMT-8722"/>
      <use x="58.398438" xlink:href="#ArialMT-48"/>
      <use x="114.013672" xlink:href="#ArialMT-46"/>
      <use x="141.796875" xlink:href="#ArialMT-49"/>
     </g>
    </g>
   </g>
   <g id="xtick_3">
    <g id="line2d_6">
     <path clip-path="url(#p9267c4a747)" d="M 376.540541 350.854054 
" style="fill:none;stroke:#ffffff;stroke-linecap:round;"/>
    </g>
    <g id="line2d_7">
     <path d="M 282.021186 545.902025 
L 278.027498 549.49013 
" style="fill:none;stroke:#262626;stroke-linecap:round;stroke-width:1.25;"/>
    </g>
    <g id="text_3">
     <!-- 0.0 -->
     <g style="fill:#262626;" transform="translate(266.575589 571.29961)scale(0.11 -0.11)">
      <use xlink:href="#ArialMT-48"/>
      <use x="55.615234" xlink:href="#ArialMT-46"/>
      <use x="83.398438" xlink:href="#ArialMT-48"/>
     </g>
    </g>
   </g>
   <g id="xtick_4">
    <g id="line2d_8">
     <path clip-path="url(#p9267c4a747)" d="M 376.540541 350.854054 
" style="fill:none;stroke:#ffffff;stroke-linecap:round;"/>
    </g>
    <g id="line2d_9">
     <path d="M 333.780636 562.389992 
L 329.851112 566.040984 
" style="fill:none;stroke:#262626;stroke-linecap:round;stroke-width:1.25;"/>
    </g>
    <g id="text_4">
     <!-- 0.1 -->
     <g style="fill:#262626;" transform="translate(318.355067 587.968666)scale(0.11 -0.11)">
      <use xlink:href="#ArialMT-48"/>
      <use x="55.615234" xlink:href="#ArialMT-46"/>
      <use x="83.398438" xlink:href="#ArialMT-49"/>
     </g>
    </g>
   </g>
   <g id="xtick_5">
    <g id="line2d_10">
     <path clip-path="url(#p9267c4a747)" d="M 376.540541 350.854054 
" style="fill:none;stroke:#ffffff;stroke-linecap:round;"/>
    </g>
    <g id="line2d_11">
     <path d="M 386.450373 579.16793 
L 382.5879 582.883476 
" style="fill:none;stroke:#262626;stroke-linecap:round;stroke-width:1.25;"/>
    </g>
    <g id="text_5">
     <!-- 0.2 -->
     <g style="fill:#262626;" transform="translate(371.046746 604.931383)scale(0.11 -0.11)">
      <use xlink:href="#ArialMT-48"/>
      <use x="55.615234" xlink:href="#ArialMT-46"/>
      <use x="83.398438" xlink:href="#ArialMT-50"/>
     </g>
    </g>
   </g>
  </g>
  <g id="axis3d_2">
   <g id="line2d_12">
    <path d="M 582.377109 451.116383 
L 436.162105 596.664023 
" style="fill:none;stroke:#ffffff;stroke-linecap:round;stroke-width:1.25;"/>
   </g>
   <g id="Line3DCollection_2">
    <path d="M 158.887839 237.07793 
L 170.086002 504.78077 
L 441.778277 591.073486 
" style="fill:none;stroke:#ffffff;"/>
    <path d="M 178.833231 222.912331 
L 188.918812 489.064006 
L 459.067206 573.863468 
" style="fill:none;stroke:#ffffff;"/>
    <path d="M 198.424755 208.998056 
L 207.434395 473.611981 
L 476.051573 556.956622 
" style="fill:none;stroke:#ffffff;"/>
    <path d="M 217.671748 195.328473 
L 225.6407 458.418061 
L 492.739355 540.345007 
" style="fill:none;stroke:#ffffff;"/>
    <path d="M 236.583217 181.897186 
L 243.545412 443.475833 
L 509.138253 524.020958 
" style="fill:none;stroke:#ffffff;"/>
    <path d="M 255.167861 168.698016 
L 261.155963 428.779095 
L 525.255704 507.97707 
" style="fill:none;stroke:#ffffff;"/>
    <path d="M 273.434079 155.724999 
L 278.479543 414.321846 
L 541.098893 492.206194 
" style="fill:none;stroke:#ffffff;"/>
    <path d="M 291.389986 142.97237 
L 295.523111 400.098279 
L 556.67476 476.701419 
" style="fill:none;stroke:#ffffff;"/>
    <path d="M 309.043421 130.434563 
L 312.2934 386.102775 
L 571.990015 461.456067 
" style="fill:none;stroke:#ffffff;"/>
   </g>
   <g id="xtick_6">
    <g id="line2d_13">
     <path clip-path="url(#p9267c4a747)" d="M 376.540541 350.854054 
" style="fill:none;stroke:#ffffff;stroke-linecap:round;"/>
    </g>
    <g id="line2d_14">
     <path d="M 439.504225 590.35122 
L 446.331475 592.519636 
" style="fill:none;stroke:#262626;stroke-linecap:round;stroke-width:1.25;"/>
    </g>
    <g id="text_6">
     <!-- −0.20 -->
     <g style="fill:#262626;" transform="translate(439.117619 613.031301)scale(0.11 -0.11)">
      <use xlink:href="#ArialMT-8722"/>
      <use x="58.398438" xlink:href="#ArialMT-48"/>
      <use x="114.013672" xlink:href="#ArialMT-46"/>
      <use x="141.796875" xlink:href="#ArialMT-50"/>
      <use x="197.412109" xlink:href="#ArialMT-48"/>
     </g>
    </g>
   </g>
   <g id="xtick_7">
    <g id="line2d_15">
     <path clip-path="url(#p9267c4a747)" d="M 376.540541 350.854054 
" style="fill:none;stroke:#ffffff;stroke-linecap:round;"/>
    </g>
    <g id="line2d_16">
     <path d="M 456.806964 573.153979 
L 463.592708 575.284021 
" style="fill:none;stroke:#262626;stroke-linecap:round;stroke-width:1.25;"/>
    </g>
    <g id="text_7">
     <!-- −0.15 -->
     <defs>
      <path d="M 4.15625 18.75 
L 13.375 19.53125 
Q 14.40625 12.796875 18.140625 9.390625 
Q 21.875 6 27.15625 6 
Q 33.5 6 37.890625 10.78125 
Q 42.28125 15.578125 42.28125 23.484375 
Q 42.28125 31 38.0625 35.34375 
Q 33.84375 39.703125 27 39.703125 
Q 22.75 39.703125 19.328125 37.765625 
Q 15.921875 35.84375 13.96875 32.765625 
L 5.71875 33.84375 
L 12.640625 70.609375 
L 48.25 70.609375 
L 48.25 62.203125 
L 19.671875 62.203125 
L 15.828125 42.96875 
Q 22.265625 47.46875 29.34375 47.46875 
Q 38.71875 47.46875 45.15625 40.96875 
Q 51.609375 34.46875 51.609375 24.265625 
Q 51.609375 14.546875 45.953125 7.46875 
Q 39.0625 -1.21875 27.15625 -1.21875 
Q 17.390625 -1.21875 11.203125 4.25 
Q 5.03125 9.71875 4.15625 18.75 
z
" id="ArialMT-53"/>
     </defs>
     <g style="fill:#262626;" transform="translate(456.301606 595.701093)scale(0.11 -0.11)">
      <use xlink:href="#ArialMT-8722"/>
      <use x="58.398438" xlink:href="#ArialMT-48"/>
      <use x="114.013672" xlink:href="#ArialMT-46"/>
      <use x="141.796875" xlink:href="#ArialMT-49"/>
      <use x="197.412109" xlink:href="#ArialMT-53"/>
     </g>
    </g>
   </g>
   <g id="xtick_8">
    <g id="line2d_17">
     <path clip-path="url(#p9267c4a747)" d="M 376.540541 350.854054 
" style="fill:none;stroke:#ffffff;stroke-linecap:round;"/>
    </g>
    <g id="line2d_18">
     <path d="M 473.805009 556.259574 
L 480.549644 558.352251 
" style="fill:none;stroke:#262626;stroke-linecap:round;stroke-width:1.25;"/>
    </g>
    <g id="text_8">
     <!-- −0.10 -->
     <g style="fill:#262626;" transform="translate(473.182965 578.676089)scale(0.11 -0.11)">
      <use xlink:href="#ArialMT-8722"/>
      <use x="58.398438" xlink:href="#ArialMT-48"/>
      <use x="114.013672" xlink:href="#ArialMT-46"/>
      <use x="141.796875" xlink:href="#ArialMT-49"/>
      <use x="197.412109" xlink:href="#ArialMT-48"/>
     </g>
    </g>
   </g>
   <g id="xtick_9">
    <g id="line2d_19">
     <path clip-path="url(#p9267c4a747)" d="M 376.540541 350.854054 
" style="fill:none;stroke:#ffffff;stroke-linecap:round;"/>
    </g>
    <g id="line2d_20">
     <path d="M 490.506338 539.660076 
L 497.210258 541.716364 
" style="fill:none;stroke:#262626;stroke-linecap:round;stroke-width:1.25;"/>
    </g>
    <g id="text_9">
     <!-- −0.05 -->
     <g style="fill:#262626;" transform="translate(489.769621 561.948296)scale(0.11 -0.11)">
      <use xlink:href="#ArialMT-8722"/>
      <use x="58.398438" xlink:href="#ArialMT-48"/>
      <use x="114.013672" xlink:href="#ArialMT-46"/>
      <use x="141.796875" xlink:href="#ArialMT-48"/>
      <use x="197.412109" xlink:href="#ArialMT-53"/>
     </g>
    </g>
   </g>
   <g id="xtick_10">
    <g id="line2d_21">
     <path clip-path="url(#p9267c4a747)" d="M 376.540541 350.854054 
" style="fill:none;stroke:#ffffff;stroke-linecap:round;"/>
    </g>
    <g id="line2d_22">
     <path d="M 506.918653 523.34783 
L 513.582251 525.368669 
" style="fill:none;stroke:#262626;stroke-linecap:round;stroke-width:1.25;"/>
    </g>
    <g id="text_10">
     <!-- 0.00 -->
     <g style="fill:#262626;" transform="translate(509.281567 545.509998)scale(0.11 -0.11)">
      <use xlink:href="#ArialMT-48"/>
      <use x="55.615234" xlink:href="#ArialMT-46"/>
      <use x="83.398438" xlink:href="#ArialMT-48"/>
      <use x="139.013672" xlink:href="#ArialMT-48"/>
     </g>
    </g>
   </g>
   <g id="xtick_11">
    <g id="line2d_23">
     <path clip-path="url(#p9267c4a747)" d="M 376.540541 350.854054 
" style="fill:none;stroke:#ffffff;stroke-linecap:round;"/>
    </g>
    <g id="line2d_24">
     <path d="M 523.049392 507.315444 
L 529.673059 509.301742 
" style="fill:none;stroke:#262626;stroke-linecap:round;stroke-width:1.25;"/>
    </g>
    <g id="text_11">
     <!-- 0.05 -->
     <g style="fill:#262626;" transform="translate(525.301505 529.353744)scale(0.11 -0.11)">
      <use xlink:href="#ArialMT-48"/>
      <use x="55.615234" xlink:href="#ArialMT-46"/>
      <use x="83.398438" xlink:href="#ArialMT-48"/>
      <use x="139.013672" xlink:href="#ArialMT-53"/>
     </g>
    </g>
   </g>
   <g id="xtick_12">
    <g id="line2d_25">
     <path clip-path="url(#p9267c4a747)" d="M 376.540541 350.854054 
" style="fill:none;stroke:#ffffff;stroke-linecap:round;"/>
    </g>
    <g id="line2d_26">
     <path d="M 538.905739 491.555776 
L 545.489863 493.508413 
" style="fill:none;stroke:#262626;stroke-linecap:round;stroke-width:1.25;"/>
    </g>
    <g id="text_12">
     <!-- 0.10 -->
     <g style="fill:#262626;" transform="translate(541.048914 513.472339)scale(0.11 -0.11)">
      <use xlink:href="#ArialMT-48"/>
      <use x="55.615234" xlink:href="#ArialMT-46"/>
      <use x="83.398438" xlink:href="#ArialMT-49"/>
      <use x="139.013672" xlink:href="#ArialMT-48"/>
     </g>
    </g>
   </g>
   <g id="xtick_13">
    <g id="line2d_27">
     <path clip-path="url(#p9267c4a747)" d="M 376.540541 350.854054 
" style="fill:none;stroke:#ffffff;stroke-linecap:round;"/>
    </g>
    <g id="line2d_28">
     <path d="M 554.494636 476.061927 
L 561.039603 477.981751 
" style="fill:none;stroke:#262626;stroke-linecap:round;stroke-width:1.25;"/>
    </g>
    <g id="text_13">
     <!-- 0.15 -->
     <g style="fill:#262626;" transform="translate(556.53069 497.858827)scale(0.11 -0.11)">
      <use xlink:href="#ArialMT-48"/>
      <use x="55.615234" xlink:href="#ArialMT-46"/>
      <use x="83.398438" xlink:href="#ArialMT-49"/>
      <use x="139.013672" xlink:href="#ArialMT-53"/>
     </g>
    </g>
   </g>
   <g id="xtick_14">
    <g id="line2d_29">
     <path clip-path="url(#p9267c4a747)" d="M 376.540541 350.854054 
" style="fill:none;stroke:#ffffff;stroke-linecap:round;"/>
    </g>
    <g id="line2d_30">
     <path d="M 569.822794 460.827228 
L 576.328987 462.715058 
" style="fill:none;stroke:#262626;stroke-linecap:round;stroke-width:1.25;"/>
    </g>
    <g id="text_14">
     <!-- 0.20 -->
     <g style="fill:#262626;" transform="translate(571.753498 482.506487)scale(0.11 -0.11)">
      <use xlink:href="#ArialMT-48"/>
      <use x="55.615234" xlink:href="#ArialMT-46"/>
      <use x="83.398438" xlink:href="#ArialMT-50"/>
      <use x="139.013672" xlink:href="#ArialMT-48"/>
     </g>
    </g>
   </g>
  </g>
  <g id="axis3d_3">
   <g id="line2d_31">
    <path d="M 582.377109 451.116383 
L 593.200935 188.763664 
" style="fill:none;stroke:#ffffff;stroke-linecap:round;stroke-width:1.25;"/>
   </g>
   <g id="Line3DCollection_3">
    <path d="M 583.000295 436.011316 
L 323.520642 361.912112 
L 163.306838 494.466653 
" style="fill:none;stroke:#ffffff;"/>
    <path d="M 584.24639 405.807907 
L 323.214024 332.543627 
L 161.977369 463.630549 
" style="fill:none;stroke:#ffffff;"/>
    <path d="M 585.507619 375.237696 
L 322.90384 302.833486 
L 160.631219 432.407518 
" style="fill:none;stroke:#ffffff;"/>
    <path d="M 586.784257 344.293962 
L 322.590026 272.775694 
L 159.26807 400.790232 
" style="fill:none;stroke:#ffffff;"/>
    <path d="M 588.07659 312.969816 
L 322.272518 242.364111 
L 157.8876 368.771177 
" style="fill:none;stroke:#ffffff;"/>
    <path d="M 589.384909 281.258199 
L 321.951251 211.592455 
L 156.489475 336.342645 
" style="fill:none;stroke:#ffffff;"/>
    <path d="M 590.709513 249.151878 
L 321.626158 180.454293 
L 155.073355 303.496732 
" style="fill:none;stroke:#ffffff;"/>
    <path d="M 592.050706 216.643437 
L 321.297169 148.943037 
L 153.638891 270.225325 
" style="fill:none;stroke:#ffffff;"/>
   </g>
   <g id="xtick_15">
    <g id="line2d_32">
     <path clip-path="url(#p9267c4a747)" d="M 376.540541 350.854054 
" style="fill:none;stroke:#ffffff;stroke-linecap:round;"/>
    </g>
    <g id="line2d_33">
     <path d="M 580.835128 435.393012 
L 587.335144 437.249212 
" style="fill:none;stroke:#262626;stroke-linecap:round;stroke-width:1.25;"/>
    </g>
    <g id="text_15">
     <!-- −0.15 -->
     <g style="fill:#262626;" transform="translate(585.35356 441.618929)scale(0.11 -0.11)">
      <use xlink:href="#ArialMT-8722"/>
      <use x="58.398438" xlink:href="#ArialMT-48"/>
      <use x="114.013672" xlink:href="#ArialMT-46"/>
      <use x="141.796875" xlink:href="#ArialMT-49"/>
      <use x="197.412109" xlink:href="#ArialMT-53"/>
     </g>
    </g>
   </g>
   <g id="xtick_16">
    <g id="line2d_34">
     <path clip-path="url(#p9267c4a747)" d="M 376.540541 350.854054 
" style="fill:none;stroke:#ffffff;stroke-linecap:round;"/>
    </g>
    <g id="line2d_35">
     <path d="M 582.067724 405.196418 
L 588.608291 407.032167 
" style="fill:none;stroke:#262626;stroke-linecap:round;stroke-width:1.25;"/>
    </g>
    <g id="text_16">
     <!-- −0.10 -->
     <g style="fill:#262626;" transform="translate(586.696128 411.440507)scale(0.11 -0.11)">
      <use xlink:href="#ArialMT-8722"/>
      <use x="58.398438" xlink:href="#ArialMT-48"/>
      <use x="114.013672" xlink:href="#ArialMT-46"/>
      <use x="141.796875" xlink:href="#ArialMT-49"/>
      <use x="197.412109" xlink:href="#ArialMT-48"/>
     </g>
    </g>
   </g>
   <g id="xtick_17">
    <g id="line2d_36">
     <path clip-path="url(#p9267c4a747)" d="M 376.540541 350.854054 
" style="fill:none;stroke:#ffffff;stroke-linecap:round;"/>
    </g>
    <g id="line2d_37">
     <path d="M 583.315285 374.633234 
L 589.896911 376.447897 
" style="fill:none;stroke:#262626;stroke-linecap:round;stroke-width:1.25;"/>
    </g>
    <g id="text_17">
     <!-- −0.05 -->
     <g style="fill:#262626;" transform="translate(588.05498 380.896059)scale(0.11 -0.11)">
      <use xlink:href="#ArialMT-8722"/>
      <use x="58.398438" xlink:href="#ArialMT-48"/>
      <use x="114.013672" xlink:href="#ArialMT-46"/>
      <use x="141.796875" xlink:href="#ArialMT-48"/>
      <use x="197.412109" xlink:href="#ArialMT-53"/>
     </g>
    </g>
   </g>
   <g id="xtick_18">
    <g id="line2d_38">
     <path clip-path="url(#p9267c4a747)" d="M 376.540541 350.854054 
" style="fill:none;stroke:#ffffff;stroke-linecap:round;"/>
    </g>
    <g id="line2d_39">
     <path d="M 584.578084 343.696743 
L 591.201287 345.489667 
" style="fill:none;stroke:#262626;stroke-linecap:round;stroke-width:1.25;"/>
    </g>
    <g id="text_18">
     <!-- 0.00 -->
     <g style="fill:#262626;" transform="translate(592.642757 349.978885)scale(0.11 -0.11)">
      <use xlink:href="#ArialMT-48"/>
      <use x="55.615234" xlink:href="#ArialMT-46"/>
      <use x="83.398438" xlink:href="#ArialMT-48"/>
      <use x="139.013672" xlink:href="#ArialMT-48"/>
     </g>
    </g>
   </g>
   <g id="xtick_19">
    <g id="line2d_40">
     <path clip-path="url(#p9267c4a747)" d="M 376.540541 350.854054 
" style="fill:none;stroke:#ffffff;stroke-linecap:round;"/>
    </g>
    <g id="line2d_41">
     <path d="M 585.856401 312.380065 
L 592.521711 314.150576 
" style="fill:none;stroke:#262626;stroke-linecap:round;stroke-width:1.25;"/>
    </g>
    <g id="text_19">
     <!-- 0.05 -->
     <g style="fill:#262626;" transform="translate(594.035078 318.682121)scale(0.11 -0.11)">
      <use xlink:href="#ArialMT-48"/>
      <use x="55.615234" xlink:href="#ArialMT-46"/>
      <use x="83.398438" xlink:href="#ArialMT-48"/>
      <use x="139.013672" xlink:href="#ArialMT-53"/>
     </g>
    </g>
   </g>
   <g id="xtick_20">
    <g id="line2d_42">
     <path clip-path="url(#p9267c4a747)" d="M 376.540541 350.854054 
" style="fill:none;stroke:#ffffff;stroke-linecap:round;"/>
    </g>
    <g id="line2d_43">
     <path d="M 587.150525 280.676148 
L 593.858479 282.423552 
" style="fill:none;stroke:#262626;stroke-linecap:round;stroke-width:1.25;"/>
    </g>
    <g id="text_20">
     <!-- 0.10 -->
     <g style="fill:#262626;" transform="translate(595.444598 286.998733)scale(0.11 -0.11)">
      <use xlink:href="#ArialMT-48"/>
      <use x="55.615234" xlink:href="#ArialMT-46"/>
      <use x="83.398438" xlink:href="#ArialMT-49"/>
      <use x="139.013672" xlink:href="#ArialMT-48"/>
     </g>
    </g>
   </g>
   <g id="xtick_21">
    <g id="line2d_44">
     <path clip-path="url(#p9267c4a747)" d="M 376.540541 350.854054 
" style="fill:none;stroke:#ffffff;stroke-linecap:round;"/>
    </g>
    <g id="line2d_45">
     <path d="M 588.460751 248.577764 
L 595.211898 250.301347 
" style="fill:none;stroke:#262626;stroke-linecap:round;stroke-width:1.25;"/>
    </g>
    <g id="text_21">
     <!-- 0.15 -->
     <g style="fill:#262626;" transform="translate(596.871639 254.921512)scale(0.11 -0.11)">
      <use xlink:href="#ArialMT-48"/>
      <use x="55.615234" xlink:href="#ArialMT-46"/>
      <use x="83.398438" xlink:href="#ArialMT-49"/>
      <use x="139.013672" xlink:href="#ArialMT-53"/>
     </g>
    </g>
   </g>
   <g id="xtick_22">
    <g id="line2d_46">
     <path clip-path="url(#p9267c4a747)" d="M 376.540541 350.854054 
" style="fill:none;stroke:#ffffff;stroke-linecap:round;"/>
    </g>
    <g id="line2d_47">
     <path d="M 589.787381 216.077505 
L 596.582279 217.776531 
" style="fill:none;stroke:#262626;stroke-linecap:round;stroke-width:1.25;"/>
    </g>
    <g id="text_22">
     <!-- 0.20 -->
     <g style="fill:#262626;" transform="translate(598.31653 222.443069)scale(0.11 -0.11)">
      <use xlink:href="#ArialMT-48"/>
      <use x="55.615234" xlink:href="#ArialMT-46"/>
      <use x="83.398438" xlink:href="#ArialMT-50"/>
      <use x="139.013672" xlink:href="#ArialMT-48"/>
     </g>
    </g>
   </g>
  </g>
  <g id="axes_1">
   <g id="Path3DCollection_1">
    <defs>
     <path d="M 0 2.236068 
C 0.593012 2.236068 1.161816 2.000462 1.581139 1.581139 
C 2.000462 1.161816 2.236068 0.593012 2.236068 0 
C 2.236068 -0.593012 2.000462 -1.161816 1.581139 -1.581139 
C 1.161816 -2.000462 0.593012 -2.236068 0 -2.236068 
C -0.593012 -2.236068 -1.161816 -2.000462 -1.581139 -1.581139 
C -2.000462 -1.161816 -2.236068 -0.593012 -2.236068 0 
C -2.236068 0.593012 -2.000462 1.161816 -1.581139 1.581139 
C -1.161816 2.000462 -0.593012 2.236068 0 2.236068 
z
" id="mf859d3f611" style="stroke:#c44e52;"/>
    </defs>
    <g clip-path="url(#p9267c4a747)">
     <use style="fill:#c44e52;stroke:#c44e52;" x="431.195408" xlink:href="#mf859d3f611" y="362.8421"/>
    </g>
   </g>
   <g id="Path3DCollection_2">
    <defs>
     <path d="M 0 2.236068 
C 0.593012 2.236068 1.161816 2.000462 1.581139 1.581139 
C 2.000462 1.161816 2.236068 0.593012 2.236068 0 
C 2.236068 -0.593012 2.000462 -1.161816 1.581139 -1.581139 
C 1.161816 -2.000462 0.593012 -2.236068 0 -2.236068 
C -0.593012 -2.236068 -1.161816 -2.000462 -1.581139 -1.581139 
C -2.000462 -1.161816 -2.236068 -0.593012 -2.236068 0 
C -2.236068 0.593012 -2.000462 1.161816 -1.581139 1.581139 
C -1.161816 2.000462 -0.593012 2.236068 0 2.236068 
z
" id="ma08ea95263" style="stroke:#64b5cd;"/>
    </defs>
    <g clip-path="url(#p9267c4a747)">
     <use style="fill:#64b5cd;stroke:#64b5cd;" x="409.807189" xlink:href="#ma08ea95263" y="309.572742"/>
    </g>
   </g>
   <g id="Path3DCollection_3">
    <g clip-path="url(#p9267c4a747)">
     <use style="fill:#c44e52;stroke:#c44e52;" x="404.167986" xlink:href="#mf859d3f611" y="352.076347"/>
    </g>
   </g>
   <g id="Path3DCollection_4">
    <defs>
     <path d="M 0 2.236068 
C 0.593012 2.236068 1.161816 2.000462 1.581139 1.581139 
C 2.000462 1.161816 2.236068 0.593012 2.236068 0 
C 2.236068 -0.593012 2.000462 -1.161816 1.581139 -1.581139 
C 1.161816 -2.000462 0.593012 -2.236068 0 -2.236068 
C -0.593012 -2.236068 -1.161816 -2.000462 -1.581139 -1.581139 
C -2.000462 -1.161816 -2.236068 -0.593012 -2.236068 0 
C -2.236068 0.593012 -2.000462 1.161816 -1.581139 1.581139 
C -1.161816 2.000462 -0.593012 2.236068 0 2.236068 
z
" id="m14f4b9a94f" style="stroke:#8172b3;"/>
    </defs>
    <g clip-path="url(#p9267c4a747)">
     <use style="fill:#8172b3;stroke:#8172b3;" x="352.131464" xlink:href="#m14f4b9a94f" y="337.033837"/>
    </g>
   </g>
   <g id="legend_1">
    <g id="patch_6">
     <path d="M 576.360781 189.731406 
L 640.3 189.731406 
Q 642.5 189.731406 642.5 187.531406 
L 642.5 94.1 
Q 642.5 91.9 640.3 91.9 
L 576.360781 91.9 
Q 574.160781 91.9 574.160781 94.1 
L 574.160781 187.531406 
Q 574.160781 189.731406 576.360781 189.731406 
z
" style="fill:#eaeaf2;opacity:0.8;stroke:#cccccc;stroke-linejoin:miter;"/>
    </g>
    <g id="text_23">
     <!-- Classes -->
     <defs>
      <path d="M 58.796875 25.09375 
L 68.265625 22.703125 
Q 65.28125 11.03125 57.546875 4.90625 
Q 49.8125 -1.21875 38.625 -1.21875 
Q 27.046875 -1.21875 19.796875 3.484375 
Q 12.546875 8.203125 8.765625 17.140625 
Q 4.984375 26.078125 4.984375 36.328125 
Q 4.984375 47.515625 9.25 55.828125 
Q 13.53125 64.15625 21.40625 68.46875 
Q 29.296875 72.796875 38.765625 72.796875 
Q 49.515625 72.796875 56.828125 67.328125 
Q 64.15625 61.859375 67.046875 51.953125 
L 57.71875 49.75 
Q 55.21875 57.5625 50.484375 61.125 
Q 45.75 64.703125 38.578125 64.703125 
Q 30.328125 64.703125 24.78125 60.734375 
Q 19.234375 56.78125 16.984375 50.109375 
Q 14.75 43.453125 14.75 36.375 
Q 14.75 27.25 17.40625 20.4375 
Q 20.0625 13.625 25.671875 10.25 
Q 31.296875 6.890625 37.84375 6.890625 
Q 45.796875 6.890625 51.3125 11.46875 
Q 56.84375 16.0625 58.796875 25.09375 
z
" id="ArialMT-67"/>
      <path d="M 6.390625 0 
L 6.390625 71.578125 
L 15.1875 71.578125 
L 15.1875 0 
z
" id="ArialMT-108"/>
      <path d="M 40.4375 6.390625 
Q 35.546875 2.25 31.03125 0.53125 
Q 26.515625 -1.171875 21.34375 -1.171875 
Q 12.796875 -1.171875 8.203125 3 
Q 3.609375 7.171875 3.609375 13.671875 
Q 3.609375 17.484375 5.34375 20.625 
Q 7.078125 23.78125 9.890625 25.6875 
Q 12.703125 27.59375 16.21875 28.5625 
Q 18.796875 29.25 24.03125 29.890625 
Q 34.671875 31.15625 39.703125 32.90625 
Q 39.75 34.71875 39.75 35.203125 
Q 39.75 40.578125 37.25 42.78125 
Q 33.890625 45.75 27.25 45.75 
Q 21.046875 45.75 18.09375 43.578125 
Q 15.140625 41.40625 13.71875 35.890625 
L 5.125 37.0625 
Q 6.296875 42.578125 8.984375 45.96875 
Q 11.671875 49.359375 16.75 51.1875 
Q 21.828125 53.03125 28.515625 53.03125 
Q 35.15625 53.03125 39.296875 51.46875 
Q 43.453125 49.90625 45.40625 47.53125 
Q 47.359375 45.171875 48.140625 41.546875 
Q 48.578125 39.3125 48.578125 33.453125 
L 48.578125 21.734375 
Q 48.578125 9.46875 49.140625 6.21875 
Q 49.703125 2.984375 51.375 0 
L 42.1875 0 
Q 40.828125 2.734375 40.4375 6.390625 
z
M 39.703125 26.03125 
Q 34.90625 24.078125 25.34375 22.703125 
Q 19.921875 21.921875 17.671875 20.9375 
Q 15.4375 19.96875 14.203125 18.09375 
Q 12.984375 16.21875 12.984375 13.921875 
Q 12.984375 10.40625 15.640625 8.0625 
Q 18.3125 5.71875 23.4375 5.71875 
Q 28.515625 5.71875 32.46875 7.9375 
Q 36.421875 10.15625 38.28125 14.015625 
Q 39.703125 17 39.703125 22.796875 
z
" id="ArialMT-97"/>
      <path d="M 3.078125 15.484375 
L 11.765625 16.84375 
Q 12.5 11.625 15.84375 8.84375 
Q 19.1875 6.0625 25.203125 6.0625 
Q 31.25 6.0625 34.171875 8.515625 
Q 37.109375 10.984375 37.109375 14.3125 
Q 37.109375 17.28125 34.515625 19 
Q 32.71875 20.171875 25.53125 21.96875 
Q 15.875 24.421875 12.140625 26.203125 
Q 8.40625 27.984375 6.46875 31.125 
Q 4.546875 34.28125 4.546875 38.09375 
Q 4.546875 41.546875 6.125 44.5 
Q 7.71875 47.46875 10.453125 49.421875 
Q 12.5 50.921875 16.03125 51.96875 
Q 19.578125 53.03125 23.640625 53.03125 
Q 29.734375 53.03125 34.34375 51.265625 
Q 38.96875 49.515625 41.15625 46.5 
Q 43.359375 43.5 44.1875 38.484375 
L 35.59375 37.3125 
Q 35.015625 41.3125 32.203125 43.546875 
Q 29.390625 45.796875 24.265625 45.796875 
Q 18.21875 45.796875 15.625 43.796875 
Q 13.03125 41.796875 13.03125 39.109375 
Q 13.03125 37.40625 14.109375 36.03125 
Q 15.1875 34.625 17.484375 33.6875 
Q 18.796875 33.203125 25.25 31.453125 
Q 34.578125 28.953125 38.25 27.359375 
Q 41.9375 25.78125 44.03125 22.75 
Q 46.140625 19.734375 46.140625 15.234375 
Q 46.140625 10.84375 43.578125 6.953125 
Q 41.015625 3.078125 36.171875 0.953125 
Q 31.34375 -1.171875 25.25 -1.171875 
Q 15.140625 -1.171875 9.84375 3.03125 
Q 4.546875 7.234375 3.078125 15.484375 
z
" id="ArialMT-115"/>
      <path d="M 42.09375 16.703125 
L 51.171875 15.578125 
Q 49.03125 7.625 43.21875 3.21875 
Q 37.40625 -1.171875 28.375 -1.171875 
Q 17 -1.171875 10.328125 5.828125 
Q 3.65625 12.84375 3.65625 25.484375 
Q 3.65625 38.578125 10.390625 45.796875 
Q 17.140625 53.03125 27.875 53.03125 
Q 38.28125 53.03125 44.875 45.953125 
Q 51.46875 38.875 51.46875 26.03125 
Q 51.46875 25.25 51.421875 23.6875 
L 12.75 23.6875 
Q 13.234375 15.140625 17.578125 10.59375 
Q 21.921875 6.0625 28.421875 6.0625 
Q 33.25 6.0625 36.671875 8.59375 
Q 40.09375 11.140625 42.09375 16.703125 
z
M 13.234375 30.90625 
L 42.1875 30.90625 
Q 41.609375 37.453125 38.875 40.71875 
Q 34.671875 45.796875 27.984375 45.796875 
Q 21.921875 45.796875 17.796875 41.75 
Q 13.671875 37.703125 13.234375 30.90625 
z
" id="ArialMT-101"/>
     </defs>
     <g style="fill:#262626;" transform="translate(586.991016 104.889375)scale(0.12 -0.12)">
      <use xlink:href="#ArialMT-67"/>
      <use x="72.216797" xlink:href="#ArialMT-108"/>
      <use x="94.433594" xlink:href="#ArialMT-97"/>
      <use x="150.048828" xlink:href="#ArialMT-115"/>
      <use x="200.048828" xlink:href="#ArialMT-115"/>
      <use x="250.048828" xlink:href="#ArialMT-101"/>
      <use x="305.664062" xlink:href="#ArialMT-115"/>
     </g>
    </g>
    <g id="line2d_48">
     <path d="M 578.560781 116.797969 
L 600.560781 116.797969 
" style="fill:none;stroke:#4c72b0;stroke-linecap:round;stroke-width:1.5;"/>
    </g>
    <g id="line2d_49">
     <defs>
      <path d="M 0 3 
C 0.795609 3 1.55874 2.683901 2.12132 2.12132 
C 2.683901 1.55874 3 0.795609 3 0 
C 3 -0.795609 2.683901 -1.55874 2.12132 -2.12132 
C 1.55874 -2.683901 0.795609 -3 0 -3 
C -0.795609 -3 -1.55874 -2.683901 -2.12132 -2.12132 
C -2.683901 -1.55874 -3 -0.795609 -3 0 
C -3 0.795609 -2.683901 1.55874 -2.12132 2.12132 
C -1.55874 2.683901 -0.795609 3 0 3 
z
" id="me5d87e3ddc" style="stroke:#4c72b0;"/>
     </defs>
     <g>
      <use style="fill:#4c72b0;stroke:#4c72b0;" x="589.560781" xlink:href="#me5d87e3ddc" y="116.797969"/>
     </g>
    </g>
    <g id="text_24">
     <!-- man -->
     <defs>
      <path d="M 6.59375 0 
L 6.59375 51.859375 
L 14.453125 51.859375 
L 14.453125 44.578125 
Q 16.890625 48.390625 20.9375 50.703125 
Q 25 53.03125 30.171875 53.03125 
Q 35.9375 53.03125 39.625 50.640625 
Q 43.3125 48.25 44.828125 43.953125 
Q 50.984375 53.03125 60.84375 53.03125 
Q 68.5625 53.03125 72.703125 48.75 
Q 76.859375 44.484375 76.859375 35.59375 
L 76.859375 0 
L 68.109375 0 
L 68.109375 32.671875 
Q 68.109375 37.9375 67.25 40.25 
Q 66.40625 42.578125 64.15625 43.984375 
Q 61.921875 45.40625 58.890625 45.40625 
Q 53.421875 45.40625 49.796875 41.765625 
Q 46.1875 38.140625 46.1875 30.125 
L 46.1875 0 
L 37.40625 0 
L 37.40625 33.6875 
Q 37.40625 39.546875 35.25 42.46875 
Q 33.109375 45.40625 28.21875 45.40625 
Q 24.515625 45.40625 21.359375 43.453125 
Q 18.21875 41.5 16.796875 37.734375 
Q 15.375 33.984375 15.375 26.90625 
L 15.375 0 
z
" id="ArialMT-109"/>
      <path d="M 6.59375 0 
L 6.59375 51.859375 
L 14.5 51.859375 
L 14.5 44.484375 
Q 20.21875 53.03125 31 53.03125 
Q 35.6875 53.03125 39.625 51.34375 
Q 43.5625 49.65625 45.515625 46.921875 
Q 47.46875 44.1875 48.25 40.4375 
Q 48.734375 37.984375 48.734375 31.890625 
L 48.734375 0 
L 39.9375 0 
L 39.9375 31.546875 
Q 39.9375 36.921875 38.90625 39.578125 
Q 37.890625 42.234375 35.28125 43.8125 
Q 32.671875 45.40625 29.15625 45.40625 
Q 23.53125 45.40625 19.453125 41.84375 
Q 15.375 38.28125 15.375 28.328125 
L 15.375 0 
z
" id="ArialMT-110"/>
     </defs>
     <g style="fill:#262626;" transform="translate(609.360781 120.647969)scale(0.11 -0.11)">
      <use xlink:href="#ArialMT-109"/>
      <use x="83.300781" xlink:href="#ArialMT-97"/>
      <use x="138.916016" xlink:href="#ArialMT-110"/>
     </g>
    </g>
    <g id="line2d_50">
     <path d="M 578.560781 132.357813 
L 600.560781 132.357813 
" style="fill:none;stroke:#55a868;stroke-linecap:round;stroke-width:1.5;"/>
    </g>
    <g id="line2d_51">
     <defs>
      <path d="M 0 3 
C 0.795609 3 1.55874 2.683901 2.12132 2.12132 
C 2.683901 1.55874 3 0.795609 3 0 
C 3 -0.795609 2.683901 -1.55874 2.12132 -2.12132 
C 1.55874 -2.683901 0.795609 -3 0 -3 
C -0.795609 -3 -1.55874 -2.683901 -2.12132 -2.12132 
C -2.683901 -1.55874 -3 -0.795609 -3 0 
C -3 0.795609 -2.683901 1.55874 -2.12132 2.12132 
C -1.55874 2.683901 -0.795609 3 0 3 
z
" id="m3f28a9de85" style="stroke:#55a868;"/>
     </defs>
     <g>
      <use style="fill:#55a868;stroke:#55a868;" x="589.560781" xlink:href="#m3f28a9de85" y="132.357813"/>
     </g>
    </g>
    <g id="text_25">
     <!-- fru -->
     <defs>
      <path d="M 8.6875 0 
L 8.6875 45.015625 
L 0.921875 45.015625 
L 0.921875 51.859375 
L 8.6875 51.859375 
L 8.6875 57.375 
Q 8.6875 62.59375 9.625 65.140625 
Q 10.890625 68.5625 14.078125 70.671875 
Q 17.28125 72.796875 23.046875 72.796875 
Q 26.765625 72.796875 31.25 71.921875 
L 29.9375 64.265625 
Q 27.203125 64.75 24.75 64.75 
Q 20.75 64.75 19.09375 63.03125 
Q 17.4375 61.328125 17.4375 56.640625 
L 17.4375 51.859375 
L 27.546875 51.859375 
L 27.546875 45.015625 
L 17.4375 45.015625 
L 17.4375 0 
z
" id="ArialMT-102"/>
      <path d="M 6.5 0 
L 6.5 51.859375 
L 14.40625 51.859375 
L 14.40625 44 
Q 17.4375 49.515625 20 51.265625 
Q 22.5625 53.03125 25.640625 53.03125 
Q 30.078125 53.03125 34.671875 50.203125 
L 31.640625 42.046875 
Q 28.421875 43.953125 25.203125 43.953125 
Q 22.3125 43.953125 20.015625 42.21875 
Q 17.71875 40.484375 16.75 37.40625 
Q 15.28125 32.71875 15.28125 27.15625 
L 15.28125 0 
z
" id="ArialMT-114"/>
      <path d="M 40.578125 0 
L 40.578125 7.625 
Q 34.515625 -1.171875 24.125 -1.171875 
Q 19.53125 -1.171875 15.546875 0.578125 
Q 11.578125 2.34375 9.640625 5 
Q 7.71875 7.671875 6.9375 11.53125 
Q 6.390625 14.109375 6.390625 19.734375 
L 6.390625 51.859375 
L 15.1875 51.859375 
L 15.1875 23.09375 
Q 15.1875 16.21875 15.71875 13.8125 
Q 16.546875 10.359375 19.234375 8.375 
Q 21.921875 6.390625 25.875 6.390625 
Q 29.828125 6.390625 33.296875 8.421875 
Q 36.765625 10.453125 38.203125 13.9375 
Q 39.65625 17.4375 39.65625 24.078125 
L 39.65625 51.859375 
L 48.4375 51.859375 
L 48.4375 0 
z
" id="ArialMT-117"/>
     </defs>
     <g style="fill:#262626;" transform="translate(609.360781 136.207813)scale(0.11 -0.11)">
      <use xlink:href="#ArialMT-102"/>
      <use x="27.783203" xlink:href="#ArialMT-114"/>
      <use x="61.083984" xlink:href="#ArialMT-117"/>
     </g>
    </g>
    <g id="line2d_52">
     <path d="M 578.560781 147.917656 
L 600.560781 147.917656 
" style="fill:none;stroke:#c44e52;stroke-linecap:round;stroke-width:1.5;"/>
    </g>
    <g id="line2d_53">
     <defs>
      <path d="M 0 3 
C 0.795609 3 1.55874 2.683901 2.12132 2.12132 
C 2.683901 1.55874 3 0.795609 3 0 
C 3 -0.795609 2.683901 -1.55874 2.12132 -2.12132 
C 1.55874 -2.683901 0.795609 -3 0 -3 
C -0.795609 -3 -1.55874 -2.683901 -2.12132 -2.12132 
C -2.683901 -1.55874 -3 -0.795609 -3 0 
C -3 0.795609 -2.683901 1.55874 -2.12132 2.12132 
C -1.55874 2.683901 -0.795609 3 0 3 
z
" id="m31e9ba3921" style="stroke:#c44e52;"/>
     </defs>
     <g>
      <use style="fill:#c44e52;stroke:#c44e52;" x="589.560781" xlink:href="#m31e9ba3921" y="147.917656"/>
     </g>
    </g>
    <g id="text_26">
     <!-- glu -->
     <defs>
      <path d="M 4.984375 -4.296875 
L 13.53125 -5.5625 
Q 14.0625 -9.515625 16.5 -11.328125 
Q 19.78125 -13.765625 25.4375 -13.765625 
Q 31.546875 -13.765625 34.859375 -11.328125 
Q 38.1875 -8.890625 39.359375 -4.5 
Q 40.046875 -1.8125 39.984375 6.78125 
Q 34.234375 0 25.640625 0 
Q 14.9375 0 9.078125 7.71875 
Q 3.21875 15.4375 3.21875 26.21875 
Q 3.21875 33.640625 5.90625 39.90625 
Q 8.59375 46.1875 13.6875 49.609375 
Q 18.796875 53.03125 25.6875 53.03125 
Q 34.859375 53.03125 40.828125 45.609375 
L 40.828125 51.859375 
L 48.921875 51.859375 
L 48.921875 7.03125 
Q 48.921875 -5.078125 46.453125 -10.125 
Q 44 -15.1875 38.640625 -18.109375 
Q 33.296875 -21.046875 25.484375 -21.046875 
Q 16.21875 -21.046875 10.5 -16.875 
Q 4.78125 -12.703125 4.984375 -4.296875 
z
M 12.25 26.859375 
Q 12.25 16.65625 16.296875 11.96875 
Q 20.359375 7.28125 26.46875 7.28125 
Q 32.515625 7.28125 36.609375 11.9375 
Q 40.71875 16.609375 40.71875 26.5625 
Q 40.71875 36.078125 36.5 40.90625 
Q 32.28125 45.75 26.3125 45.75 
Q 20.453125 45.75 16.34375 40.984375 
Q 12.25 36.234375 12.25 26.859375 
z
" id="ArialMT-103"/>
     </defs>
     <g style="fill:#262626;" transform="translate(609.360781 151.767656)scale(0.11 -0.11)">
      <use xlink:href="#ArialMT-103"/>
      <use x="55.615234" xlink:href="#ArialMT-108"/>
      <use x="77.832031" xlink:href="#ArialMT-117"/>
     </g>
    </g>
    <g id="line2d_54">
     <path d="M 578.560781 163.606406 
L 600.560781 163.606406 
" style="fill:none;stroke:#64b5cd;stroke-linecap:round;stroke-width:1.5;"/>
    </g>
    <g id="line2d_55">
     <defs>
      <path d="M 0 3 
C 0.795609 3 1.55874 2.683901 2.12132 2.12132 
C 2.683901 1.55874 3 0.795609 3 0 
C 3 -0.795609 2.683901 -1.55874 2.12132 -2.12132 
C 1.55874 -2.683901 0.795609 -3 0 -3 
C -0.795609 -3 -1.55874 -2.683901 -2.12132 -2.12132 
C -2.683901 -1.55874 -3 -0.795609 -3 0 
C -3 0.795609 -2.683901 1.55874 -2.12132 2.12132 
C -1.55874 2.683901 -0.795609 3 0 3 
z
" id="m21c38c2153" style="stroke:#64b5cd;"/>
     </defs>
     <g>
      <use style="fill:#64b5cd;stroke:#64b5cd;" x="589.560781" xlink:href="#m21c38c2153" y="163.606406"/>
     </g>
    </g>
    <g id="text_27">
     <!-- mal -->
     <g style="fill:#262626;" transform="translate(609.360781 167.456406)scale(0.11 -0.11)">
      <use xlink:href="#ArialMT-109"/>
      <use x="83.300781" xlink:href="#ArialMT-97"/>
      <use x="138.916016" xlink:href="#ArialMT-108"/>
     </g>
    </g>
    <g id="line2d_56">
     <path d="M 578.560781 179.16625 
L 600.560781 179.16625 
" style="fill:none;stroke:#8172b3;stroke-linecap:round;stroke-width:1.5;"/>
    </g>
    <g id="line2d_57">
     <defs>
      <path d="M 0 3 
C 0.795609 3 1.55874 2.683901 2.12132 2.12132 
C 2.683901 1.55874 3 0.795609 3 0 
C 3 -0.795609 2.683901 -1.55874 2.12132 -2.12132 
C 1.55874 -2.683901 0.795609 -3 0 -3 
C -0.795609 -3 -1.55874 -2.683901 -2.12132 -2.12132 
C -2.683901 -1.55874 -3 -0.795609 -3 0 
C -3 0.795609 -2.683901 1.55874 -2.12132 2.12132 
C -1.55874 2.683901 -0.795609 3 0 3 
z
" id="m0c071fbe7a" style="stroke:#8172b3;"/>
     </defs>
     <g>
      <use style="fill:#8172b3;stroke:#8172b3;" x="589.560781" xlink:href="#m0c071fbe7a" y="179.16625"/>
     </g>
    </g>
    <g id="text_28">
     <!-- gluhcl -->
     <defs>
      <path d="M 6.59375 0 
L 6.59375 71.578125 
L 15.375 71.578125 
L 15.375 45.90625 
Q 21.53125 53.03125 30.90625 53.03125 
Q 36.671875 53.03125 40.921875 50.75 
Q 45.171875 48.484375 47 44.484375 
Q 48.828125 40.484375 48.828125 32.859375 
L 48.828125 0 
L 40.046875 0 
L 40.046875 32.859375 
Q 40.046875 39.453125 37.1875 42.453125 
Q 34.328125 45.453125 29.109375 45.453125 
Q 25.203125 45.453125 21.75 43.421875 
Q 18.3125 41.40625 16.84375 37.9375 
Q 15.375 34.46875 15.375 28.375 
L 15.375 0 
z
" id="ArialMT-104"/>
      <path d="M 40.4375 19 
L 49.078125 17.875 
Q 47.65625 8.9375 41.8125 3.875 
Q 35.984375 -1.171875 27.484375 -1.171875 
Q 16.84375 -1.171875 10.375 5.78125 
Q 3.90625 12.75 3.90625 25.734375 
Q 3.90625 34.125 6.6875 40.421875 
Q 9.46875 46.734375 15.15625 49.875 
Q 20.84375 53.03125 27.546875 53.03125 
Q 35.984375 53.03125 41.359375 48.75 
Q 46.734375 44.484375 48.25 36.625 
L 39.703125 35.296875 
Q 38.484375 40.53125 35.375 43.15625 
Q 32.28125 45.796875 27.875 45.796875 
Q 21.234375 45.796875 17.078125 41.03125 
Q 12.9375 36.28125 12.9375 25.984375 
Q 12.9375 15.53125 16.9375 10.796875 
Q 20.953125 6.0625 27.390625 6.0625 
Q 32.5625 6.0625 36.03125 9.234375 
Q 39.5 12.40625 40.4375 19 
z
" id="ArialMT-99"/>
     </defs>
     <g style="fill:#262626;" transform="translate(609.360781 183.01625)scale(0.11 -0.11)">
      <use xlink:href="#ArialMT-103"/>
      <use x="55.615234" xlink:href="#ArialMT-108"/>
      <use x="77.832031" xlink:href="#ArialMT-117"/>
      <use x="133.447266" xlink:href="#ArialMT-104"/>
      <use x="189.0625" xlink:href="#ArialMT-99"/>
      <use x="239.0625" xlink:href="#ArialMT-108"/>
     </g>
    </g>
   </g>
   <g id="Path3DCollection_5">
    <g clip-path="url(#p9267c4a747)">
     <use style="fill:#8172b3;stroke:#8172b3;" x="335.123329" xlink:href="#m14f4b9a94f" y="413.018407"/>
    </g>
   </g>
   <g id="Path3DCollection_6">
    <g clip-path="url(#p9267c4a747)">
     <use style="fill:#8172b3;stroke:#8172b3;" x="299.28776" xlink:href="#m14f4b9a94f" y="373.198132"/>
    </g>
   </g>
   <g id="Path3DCollection_7">
    <defs>
     <path d="M 0 2.236068 
C 0.593012 2.236068 1.161816 2.000462 1.581139 1.581139 
C 2.000462 1.161816 2.236068 0.593012 2.236068 0 
C 2.236068 -0.593012 2.000462 -1.161816 1.581139 -1.581139 
C 1.161816 -2.000462 0.593012 -2.236068 0 -2.236068 
C -0.593012 -2.236068 -1.161816 -2.000462 -1.581139 -1.581139 
C -2.000462 -1.161816 -2.236068 -0.593012 -2.236068 0 
C -2.236068 0.593012 -2.000462 1.161816 -1.581139 1.581139 
C -1.161816 2.000462 -0.593012 2.236068 0 2.236068 
z
" id="m831363aa46" style="stroke:#55a868;"/>
    </defs>
    <g clip-path="url(#p9267c4a747)">
     <use style="fill:#55a868;stroke:#55a868;" x="429.219919" xlink:href="#m831363aa46" y="290.295305"/>
    </g>
   </g>
   <g id="Path3DCollection_8">
    <g clip-path="url(#p9267c4a747)">
     <use style="fill:#c44e52;stroke:#c44e52;" x="347.245785" xlink:href="#mf859d3f611" y="319.209622"/>
    </g>
   </g>
   <g id="Path3DCollection_9">
    <g clip-path="url(#p9267c4a747)">
     <use style="fill:#8172b3;stroke:#8172b3;" x="310.328377" xlink:href="#m14f4b9a94f" y="363.277085"/>
    </g>
   </g>
   <g id="Path3DCollection_10">
    <g clip-path="url(#p9267c4a747)">
     <use style="fill:#64b5cd;stroke:#64b5cd;" x="394.549868" xlink:href="#ma08ea95263" y="356.610966"/>
    </g>
   </g>
   <g id="Path3DCollection_11">
    <g clip-path="url(#p9267c4a747)">
     <use style="fill:#8172b3;stroke:#8172b3;" x="353.575669" xlink:href="#m14f4b9a94f" y="279.767974"/>
    </g>
   </g>
   <g id="Path3DCollection_12">
    <g clip-path="url(#p9267c4a747)">
     <use style="fill:#c44e52;stroke:#c44e52;" x="441.525185" xlink:href="#mf859d3f611" y="281.545988"/>
    </g>
   </g>
   <g id="Path3DCollection_13">
    <g clip-path="url(#p9267c4a747)">
     <use style="fill:#8172b3;stroke:#8172b3;" x="256.840648" xlink:href="#m14f4b9a94f" y="376.35424"/>
    </g>
   </g>
   <g id="Path3DCollection_14">
    <g clip-path="url(#p9267c4a747)">
     <use style="fill:#8172b3;stroke:#8172b3;" x="246.582321" xlink:href="#m14f4b9a94f" y="403.375362"/>
    </g>
   </g>
   <g id="Path3DCollection_15">
    <defs>
     <path d="M 0 2.236068 
C 0.593012 2.236068 1.161816 2.000462 1.581139 1.581139 
C 2.000462 1.161816 2.236068 0.593012 2.236068 0 
C 2.236068 -0.593012 2.000462 -1.161816 1.581139 -1.581139 
C 1.161816 -2.000462 0.593012 -2.236068 0 -2.236068 
C -0.593012 -2.236068 -1.161816 -2.000462 -1.581139 -1.581139 
C -2.000462 -1.161816 -2.236068 -0.593012 -2.236068 0 
C -2.236068 0.593012 -2.000462 1.161816 -1.581139 1.581139 
C -1.161816 2.000462 -0.593012 2.236068 0 2.236068 
z
" id="mf125b8472a" style="stroke:#4c72b0;"/>
    </defs>
    <g clip-path="url(#p9267c4a747)">
     <use style="fill:#4c72b0;stroke:#4c72b0;" x="399.59803" xlink:href="#mf125b8472a" y="310.628965"/>
    </g>
   </g>
   <g id="Path3DCollection_16">
    <g clip-path="url(#p9267c4a747)">
     <use style="fill:#4c72b0;stroke:#4c72b0;" x="465.834154" xlink:href="#mf125b8472a" y="373.598885"/>
    </g>
   </g>
   <g id="Path3DCollection_17">
    <g clip-path="url(#p9267c4a747)">
     <use style="fill:#55a868;stroke:#55a868;" x="414.331795" xlink:href="#m831363aa46" y="302.976368"/>
    </g>
   </g>
   <g id="Path3DCollection_18">
    <g clip-path="url(#p9267c4a747)">
     <use style="fill:#c44e52;stroke:#c44e52;" x="378.867221" xlink:href="#mf859d3f611" y="347.867054"/>
    </g>
   </g>
   <g id="Path3DCollection_19">
    <g clip-path="url(#p9267c4a747)">
     <use style="fill:#8172b3;stroke:#8172b3;" x="316.009872" xlink:href="#m14f4b9a94f" y="360.788729"/>
    </g>
   </g>
   <g id="Path3DCollection_20">
    <g clip-path="url(#p9267c4a747)">
     <use style="fill:#8172b3;stroke:#8172b3;" x="253.274915" xlink:href="#m14f4b9a94f" y="377.588247"/>
    </g>
   </g>
   <g id="Path3DCollection_21">
    <g clip-path="url(#p9267c4a747)">
     <use style="fill:#8172b3;stroke:#8172b3;" x="366.852083" xlink:href="#m14f4b9a94f" y="368.460727"/>
    </g>
   </g>
   <g id="Path3DCollection_22">
    <g clip-path="url(#p9267c4a747)">
     <use style="fill:#55a868;stroke:#55a868;" x="374.624569" xlink:href="#m831363aa46" y="426.951222"/>
    </g>
   </g>
   <g id="Path3DCollection_23">
    <g clip-path="url(#p9267c4a747)">
     <use style="fill:#8172b3;stroke:#8172b3;" x="262.896917" xlink:href="#m14f4b9a94f" y="334.98037"/>
    </g>
   </g>
   <g id="Path3DCollection_24">
    <g clip-path="url(#p9267c4a747)">
     <use style="fill:#8172b3;stroke:#8172b3;" x="309.885232" xlink:href="#m14f4b9a94f" y="355.510991"/>
    </g>
   </g>
   <g id="Path3DCollection_25">
    <g clip-path="url(#p9267c4a747)">
     <use style="fill:#55a868;stroke:#55a868;" x="400.148196" xlink:href="#m831363aa46" y="367.207963"/>
    </g>
   </g>
   <g id="Path3DCollection_26">
    <g clip-path="url(#p9267c4a747)">
     <use style="fill:#8172b3;stroke:#8172b3;" x="280.157902" xlink:href="#m14f4b9a94f" y="380.65859"/>
    </g>
   </g>
   <g id="Path3DCollection_27">
    <g clip-path="url(#p9267c4a747)">
     <use style="fill:#4c72b0;stroke:#4c72b0;" x="415.797603" xlink:href="#mf125b8472a" y="307.968814"/>
    </g>
   </g>
   <g id="Path3DCollection_28">
    <g clip-path="url(#p9267c4a747)">
     <use style="fill:#8172b3;stroke:#8172b3;" x="347.401169" xlink:href="#m14f4b9a94f" y="282.909184"/>
    </g>
   </g>
   <g id="Path3DCollection_29">
    <g clip-path="url(#p9267c4a747)">
     <use style="fill:#8172b3;stroke:#8172b3;" x="272.222477" xlink:href="#m14f4b9a94f" y="293.503113"/>
    </g>
   </g>
   <g id="Path3DCollection_30">
    <g clip-path="url(#p9267c4a747)">
     <use style="fill:#8172b3;stroke:#8172b3;" x="321.510287" xlink:href="#m14f4b9a94f" y="351.110543"/>
    </g>
   </g>
   <g id="Path3DCollection_31">
    <g clip-path="url(#p9267c4a747)">
     <use style="fill:#8172b3;stroke:#8172b3;" x="323.099663" xlink:href="#m14f4b9a94f" y="386.271136"/>
    </g>
   </g>
   <g id="Path3DCollection_32">
    <g clip-path="url(#p9267c4a747)">
     <use style="fill:#c44e52;stroke:#c44e52;" x="274.020847" xlink:href="#mf859d3f611" y="414.080374"/>
    </g>
   </g>
   <g id="Path3DCollection_33">
    <g clip-path="url(#p9267c4a747)">
     <use style="fill:#4c72b0;stroke:#4c72b0;" x="309.710875" xlink:href="#mf125b8472a" y="382.898139"/>
    </g>
   </g>
   <g id="Path3DCollection_34">
    <g clip-path="url(#p9267c4a747)">
     <use style="fill:#55a868;stroke:#55a868;" x="400.754534" xlink:href="#m831363aa46" y="310.239591"/>
    </g>
   </g>
   <g id="Path3DCollection_35">
    <g clip-path="url(#p9267c4a747)">
     <use style="fill:#4c72b0;stroke:#4c72b0;" x="390.922773" xlink:href="#mf125b8472a" y="307.503342"/>
    </g>
   </g>
   <g id="Path3DCollection_36">
    <g clip-path="url(#p9267c4a747)">
     <use style="fill:#4c72b0;stroke:#4c72b0;" x="383.140883" xlink:href="#mf125b8472a" y="228.577705"/>
    </g>
   </g>
   <g id="Path3DCollection_37">
    <g clip-path="url(#p9267c4a747)">
     <use style="fill:#55a868;stroke:#55a868;" x="431.016276" xlink:href="#m831363aa46" y="487.672376"/>
    </g>
   </g>
   <g id="Path3DCollection_38">
    <g clip-path="url(#p9267c4a747)">
     <use style="fill:#c44e52;stroke:#c44e52;" x="426.289151" xlink:href="#mf859d3f611" y="308.115016"/>
    </g>
   </g>
   <g id="Path3DCollection_39">
    <g clip-path="url(#p9267c4a747)">
     <use style="fill:#55a868;stroke:#55a868;" x="413.672492" xlink:href="#m831363aa46" y="366.357167"/>
    </g>
   </g>
   <g id="Path3DCollection_40">
    <g clip-path="url(#p9267c4a747)">
     <use style="fill:#55a868;stroke:#55a868;" x="396.727622" xlink:href="#m831363aa46" y="367.426091"/>
    </g>
   </g>
   <g id="Path3DCollection_41">
    <g clip-path="url(#p9267c4a747)">
     <use style="fill:#c44e52;stroke:#c44e52;" x="394.193595" xlink:href="#mf859d3f611" y="367.753406"/>
    </g>
   </g>
   <g id="Path3DCollection_42">
    <g clip-path="url(#p9267c4a747)">
     <use style="fill:#64b5cd;stroke:#64b5cd;" x="324.150203" xlink:href="#ma08ea95263" y="444.856153"/>
    </g>
   </g>
   <g id="Path3DCollection_43">
    <g clip-path="url(#p9267c4a747)">
     <use style="fill:#64b5cd;stroke:#64b5cd;" x="389.558651" xlink:href="#ma08ea95263" y="405.81612"/>
    </g>
   </g>
   <g id="Path3DCollection_44">
    <g clip-path="url(#p9267c4a747)">
     <use style="fill:#55a868;stroke:#55a868;" x="484.491359" xlink:href="#m831363aa46" y="424.7815"/>
    </g>
   </g>
   <g id="Path3DCollection_45">
    <g clip-path="url(#p9267c4a747)">
     <use style="fill:#8172b3;stroke:#8172b3;" x="280.612682" xlink:href="#m14f4b9a94f" y="375.238969"/>
    </g>
   </g>
   <g id="Path3DCollection_46">
    <g clip-path="url(#p9267c4a747)">
     <use style="fill:#4c72b0;stroke:#4c72b0;" x="278.968024" xlink:href="#mf125b8472a" y="459.950511"/>
    </g>
   </g>
   <g id="Path3DCollection_47">
    <g clip-path="url(#p9267c4a747)">
     <use style="fill:#64b5cd;stroke:#64b5cd;" x="396.74502" xlink:href="#ma08ea95263" y="366.778593"/>
    </g>
   </g>
   <g id="Path3DCollection_48">
    <g clip-path="url(#p9267c4a747)">
     <use style="fill:#4c72b0;stroke:#4c72b0;" x="342.125407" xlink:href="#mf125b8472a" y="444.925127"/>
    </g>
   </g>
   <g id="Path3DCollection_49">
    <g clip-path="url(#p9267c4a747)">
     <use style="fill:#c44e52;stroke:#c44e52;" x="352.661005" xlink:href="#mf859d3f611" y="368.228731"/>
    </g>
   </g>
   <g id="Path3DCollection_50">
    <g clip-path="url(#p9267c4a747)">
     <use style="fill:#55a868;stroke:#55a868;" x="436.135179" xlink:href="#m831363aa46" y="355.176674"/>
    </g>
   </g>
   <g id="Path3DCollection_51">
    <g clip-path="url(#p9267c4a747)">
     <use style="fill:#c44e52;stroke:#c44e52;" x="383.898469" xlink:href="#mf859d3f611" y="391.642205"/>
    </g>
   </g>
   <g id="Path3DCollection_52">
    <g clip-path="url(#p9267c4a747)">
     <use style="fill:#c44e52;stroke:#c44e52;" x="354.882136" xlink:href="#mf859d3f611" y="374.501603"/>
    </g>
   </g>
   <g id="Path3DCollection_53">
    <g clip-path="url(#p9267c4a747)">
     <use style="fill:#8172b3;stroke:#8172b3;" x="239.708994" xlink:href="#m14f4b9a94f" y="372.659041"/>
    </g>
   </g>
   <g id="Path3DCollection_54">
    <g clip-path="url(#p9267c4a747)">
     <use style="fill:#64b5cd;stroke:#64b5cd;" x="360.998443" xlink:href="#ma08ea95263" y="383.890127"/>
    </g>
   </g>
   <g id="Path3DCollection_55">
    <g clip-path="url(#p9267c4a747)">
     <use style="fill:#4c72b0;stroke:#4c72b0;" x="438.038608" xlink:href="#mf125b8472a" y="402.970624"/>
    </g>
   </g>
   <g id="Path3DCollection_56">
    <g clip-path="url(#p9267c4a747)">
     <use style="fill:#55a868;stroke:#55a868;" x="428.211047" xlink:href="#m831363aa46" y="338.474872"/>
    </g>
   </g>
   <g id="Path3DCollection_57">
    <g clip-path="url(#p9267c4a747)">
     <use style="fill:#55a868;stroke:#55a868;" x="395.623996" xlink:href="#m831363aa46" y="459.427053"/>
    </g>
   </g>
   <g id="Path3DCollection_58">
    <g clip-path="url(#p9267c4a747)">
     <use style="fill:#64b5cd;stroke:#64b5cd;" x="380.1957" xlink:href="#ma08ea95263" y="350.678609"/>
    </g>
   </g>
   <g id="Path3DCollection_59">
    <g clip-path="url(#p9267c4a747)">
     <use style="fill:#64b5cd;stroke:#64b5cd;" x="308.981523" xlink:href="#ma08ea95263" y="349.840524"/>
    </g>
   </g>
   <g id="Path3DCollection_60">
    <g clip-path="url(#p9267c4a747)">
     <use style="fill:#64b5cd;stroke:#64b5cd;" x="455.960433" xlink:href="#ma08ea95263" y="479.64605"/>
    </g>
   </g>
   <g id="Path3DCollection_61">
    <g clip-path="url(#p9267c4a747)">
     <use style="fill:#64b5cd;stroke:#64b5cd;" x="435.857243" xlink:href="#ma08ea95263" y="436.392743"/>
    </g>
   </g>
   <g id="Path3DCollection_62">
    <g clip-path="url(#p9267c4a747)">
     <use style="fill:#4c72b0;stroke:#4c72b0;" x="339.633876" xlink:href="#mf125b8472a" y="358.553254"/>
    </g>
   </g>
   <g id="Path3DCollection_63">
    <g clip-path="url(#p9267c4a747)">
     <use style="fill:#55a868;stroke:#55a868;" x="270.43182" xlink:href="#m831363aa46" y="369.655002"/>
    </g>
   </g>
   <g id="Path3DCollection_64">
    <g clip-path="url(#p9267c4a747)">
     <use style="fill:#4c72b0;stroke:#4c72b0;" x="309.558529" xlink:href="#mf125b8472a" y="415.674325"/>
    </g>
   </g>
   <g id="Path3DCollection_65">
    <g clip-path="url(#p9267c4a747)">
     <use style="fill:#55a868;stroke:#55a868;" x="436.584565" xlink:href="#m831363aa46" y="363.730591"/>
    </g>
   </g>
   <g id="Path3DCollection_66">
    <g clip-path="url(#p9267c4a747)">
     <use style="fill:#c44e52;stroke:#c44e52;" x="307.896167" xlink:href="#mf859d3f611" y="379.447483"/>
    </g>
   </g>
   <g id="Path3DCollection_67">
    <g clip-path="url(#p9267c4a747)">
     <use style="fill:#55a868;stroke:#55a868;" x="336.443262" xlink:href="#m831363aa46" y="383.209152"/>
    </g>
   </g>
   <g id="Path3DCollection_68">
    <g clip-path="url(#p9267c4a747)">
     <use style="fill:#64b5cd;stroke:#64b5cd;" x="339.14409" xlink:href="#ma08ea95263" y="368.017091"/>
    </g>
   </g>
   <g id="Path3DCollection_69">
    <g clip-path="url(#p9267c4a747)">
     <use style="fill:#c44e52;stroke:#c44e52;" x="333.39382" xlink:href="#mf859d3f611" y="434.733582"/>
    </g>
   </g>
   <g id="Path3DCollection_70">
    <g clip-path="url(#p9267c4a747)">
     <use style="fill:#4c72b0;stroke:#4c72b0;" x="396.807051" xlink:href="#mf125b8472a" y="364.045946"/>
    </g>
   </g>
   <g id="Path3DCollection_71">
    <g clip-path="url(#p9267c4a747)">
     <use style="fill:#55a868;stroke:#55a868;" x="342.274521" xlink:href="#m831363aa46" y="436.669258"/>
    </g>
   </g>
   <g id="Path3DCollection_72">
    <g clip-path="url(#p9267c4a747)">
     <use style="fill:#c44e52;stroke:#c44e52;" x="262.930519" xlink:href="#mf859d3f611" y="356.397949"/>
    </g>
   </g>
   <g id="Path3DCollection_73">
    <g clip-path="url(#p9267c4a747)">
     <use style="fill:#64b5cd;stroke:#64b5cd;" x="392.073512" xlink:href="#ma08ea95263" y="368.564969"/>
    </g>
   </g>
   <g id="Path3DCollection_74">
    <g clip-path="url(#p9267c4a747)">
     <use style="fill:#4c72b0;stroke:#4c72b0;" x="274.530948" xlink:href="#mf125b8472a" y="364.135131"/>
    </g>
   </g>
   <g id="Path3DCollection_75">
    <g clip-path="url(#p9267c4a747)">
     <use style="fill:#4c72b0;stroke:#4c72b0;" x="312.729539" xlink:href="#mf125b8472a" y="396.31851"/>
    </g>
   </g>
   <g id="Path3DCollection_76">
    <g clip-path="url(#p9267c4a747)">
     <use style="fill:#64b5cd;stroke:#64b5cd;" x="405.470619" xlink:href="#ma08ea95263" y="350.010591"/>
    </g>
   </g>
   <g id="Path3DCollection_77">
    <g clip-path="url(#p9267c4a747)">
     <use style="fill:#4c72b0;stroke:#4c72b0;" x="377.786641" xlink:href="#mf125b8472a" y="415.239822"/>
    </g>
   </g>
   <g id="Path3DCollection_78">
    <g clip-path="url(#p9267c4a747)">
     <use style="fill:#c44e52;stroke:#c44e52;" x="377.771198" xlink:href="#mf859d3f611" y="368.28739"/>
    </g>
   </g>
   <g id="Path3DCollection_79">
    <g clip-path="url(#p9267c4a747)">
     <use style="fill:#c44e52;stroke:#c44e52;" x="316.636268" xlink:href="#mf859d3f611" y="374.946467"/>
    </g>
   </g>
   <g id="Path3DCollection_80">
    <g clip-path="url(#p9267c4a747)">
     <use style="fill:#4c72b0;stroke:#4c72b0;" x="320.469607" xlink:href="#mf125b8472a" y="371.062341"/>
    </g>
   </g>
   <g id="Path3DCollection_81">
    <g clip-path="url(#p9267c4a747)">
     <use style="fill:#64b5cd;stroke:#64b5cd;" x="410.82778" xlink:href="#ma08ea95263" y="450.050478"/>
    </g>
   </g>
   <g id="Path3DCollection_82">
    <g clip-path="url(#p9267c4a747)">
     <use style="fill:#55a868;stroke:#55a868;" x="308.449813" xlink:href="#m831363aa46" y="366.156563"/>
    </g>
   </g>
   <g id="Path3DCollection_83">
    <g clip-path="url(#p9267c4a747)">
     <use style="fill:#55a868;stroke:#55a868;" x="290.528947" xlink:href="#m831363aa46" y="378.928233"/>
    </g>
   </g>
   <g id="Path3DCollection_84">
    <g clip-path="url(#p9267c4a747)">
     <use style="fill:#c44e52;stroke:#c44e52;" x="365.084893" xlink:href="#mf859d3f611" y="427.202061"/>
    </g>
   </g>
   <g id="Path3DCollection_85">
    <g clip-path="url(#p9267c4a747)">
     <use style="fill:#64b5cd;stroke:#64b5cd;" x="376.168761" xlink:href="#ma08ea95263" y="341.862821"/>
    </g>
   </g>
   <g id="Path3DCollection_86">
    <g clip-path="url(#p9267c4a747)">
     <use style="fill:#64b5cd;stroke:#64b5cd;" x="345.881473" xlink:href="#ma08ea95263" y="408.425549"/>
    </g>
   </g>
   <g id="Path3DCollection_87">
    <g clip-path="url(#p9267c4a747)">
     <use style="fill:#4c72b0;stroke:#4c72b0;" x="366.005683" xlink:href="#mf125b8472a" y="425.761554"/>
    </g>
   </g>
   <g id="Path3DCollection_88">
    <g clip-path="url(#p9267c4a747)">
     <use style="fill:#55a868;stroke:#55a868;" x="396.36255" xlink:href="#m831363aa46" y="384.033198"/>
    </g>
   </g>
   <g id="Path3DCollection_89">
    <g clip-path="url(#p9267c4a747)">
     <use style="fill:#64b5cd;stroke:#64b5cd;" x="365.911696" xlink:href="#ma08ea95263" y="335.322216"/>
    </g>
   </g>
   <g id="Path3DCollection_90">
    <g clip-path="url(#p9267c4a747)">
     <use style="fill:#64b5cd;stroke:#64b5cd;" x="299.343243" xlink:href="#ma08ea95263" y="328.492067"/>
    </g>
   </g>
   <g id="Path3DCollection_91">
    <g clip-path="url(#p9267c4a747)">
     <use style="fill:#c44e52;stroke:#c44e52;" x="382.480702" xlink:href="#mf859d3f611" y="450.058"/>
    </g>
   </g>
   <g id="Path3DCollection_92">
    <g clip-path="url(#p9267c4a747)">
     <use style="fill:#4c72b0;stroke:#4c72b0;" x="264.464683" xlink:href="#mf125b8472a" y="352.978526"/>
    </g>
   </g>
   <g id="Path3DCollection_93">
    <g clip-path="url(#p9267c4a747)">
     <use style="fill:#4c72b0;stroke:#4c72b0;" x="331.83981" xlink:href="#mf125b8472a" y="436.700726"/>
    </g>
   </g>
   <g id="Path3DCollection_94">
    <g clip-path="url(#p9267c4a747)">
     <use style="fill:#c44e52;stroke:#c44e52;" x="483.760307" xlink:href="#mf859d3f611" y="326.007038"/>
    </g>
   </g>
   <g id="Path3DCollection_95">
    <g clip-path="url(#p9267c4a747)">
     <use style="fill:#64b5cd;stroke:#64b5cd;" x="279.151684" xlink:href="#ma08ea95263" y="263.801621"/>
    </g>
   </g>
  </g>
 </g>
 <defs>
  <clipPath id="p9267c4a747">
   <rect height="543.6" width="558" x="90" y="86.4"/>
  </clipPath>
 </defs>
</svg>
