<?xml version="1.0" encoding="utf-8" standalone="no"?>
<!DOCTYPE svg PUBLIC "-//W3C//DTD SVG 1.1//EN"
  "http://www.w3.org/Graphics/SVG/1.1/DTD/svg11.dtd">
<!-- Created with matplotlib (https://matplotlib.org/) -->
<svg height="720pt" version="1.1" viewBox="0 0 720 720" width="720pt" xmlns="http://www.w3.org/2000/svg" xmlns:xlink="http://www.w3.org/1999/xlink">
 <defs>
  <style type="text/css">
*{stroke-linecap:butt;stroke-linejoin:round;}
  </style>
 </defs>
 <g id="figure_1">
  <g id="patch_1">
   <path d="M 0 720 
L 720 720 
L 720 0 
L 0 0 
z
" style="fill:#ffffff;"/>
  </g>
  <g id="axes_1">
   <g id="patch_2">
    <path d="M 90 630 
L 648 630 
L 648 86.4 
L 90 86.4 
z
" style="fill:#eaeaf2;"/>
   </g>
   <g id="matplotlib.axis_1">
    <g id="xtick_1">
     <g id="line2d_1">
      <path clip-path="url(#p6c3e808373)" d="M 98.545018 630 
L 98.545018 86.4 
" style="fill:none;stroke:#ffffff;stroke-linecap:round;"/>
     </g>
     <g id="text_1">
      <!-- −2 -->
      <defs>
       <path d="M 10.59375 35.5 
L 73.1875 35.5 
L 73.1875 27.203125 
L 10.59375 27.203125 
z
" id="DejaVuSans-8722"/>
       <path d="M 19.1875 8.296875 
L 53.609375 8.296875 
L 53.609375 0 
L 7.328125 0 
L 7.328125 8.296875 
Q 12.9375 14.109375 22.625 23.890625 
Q 32.328125 33.6875 34.8125 36.53125 
Q 39.546875 41.84375 41.421875 45.53125 
Q 43.3125 49.21875 43.3125 52.78125 
Q 43.3125 58.59375 39.234375 62.25 
Q 35.15625 65.921875 28.609375 65.921875 
Q 23.96875 65.921875 18.8125 64.3125 
Q 13.671875 62.703125 7.8125 59.421875 
L 7.8125 69.390625 
Q 13.765625 71.78125 18.9375 73 
Q 24.125 74.21875 28.421875 74.21875 
Q 39.75 74.21875 46.484375 68.546875 
Q 53.21875 62.890625 53.21875 53.421875 
Q 53.21875 48.921875 51.53125 44.890625 
Q 49.859375 40.875 45.40625 35.40625 
Q 44.1875 33.984375 37.640625 27.21875 
Q 31.109375 20.453125 19.1875 8.296875 
z
" id="DejaVuSans-50"/>
      </defs>
      <g style="fill:#262626;" transform="translate(90.436814 647.858281)scale(0.11 -0.11)">
       <use xlink:href="#DejaVuSans-8722"/>
       <use x="83.789062" xlink:href="#DejaVuSans-50"/>
      </g>
     </g>
    </g>
    <g id="xtick_2">
     <g id="line2d_2">
      <path clip-path="url(#p6c3e808373)" d="M 203.068618 630 
L 203.068618 86.4 
" style="fill:none;stroke:#ffffff;stroke-linecap:round;"/>
     </g>
     <g id="text_2">
      <!-- 0 -->
      <defs>
       <path d="M 31.78125 66.40625 
Q 24.171875 66.40625 20.328125 58.90625 
Q 16.5 51.421875 16.5 36.375 
Q 16.5 21.390625 20.328125 13.890625 
Q 24.171875 6.390625 31.78125 6.390625 
Q 39.453125 6.390625 43.28125 13.890625 
Q 47.125 21.390625 47.125 36.375 
Q 47.125 51.421875 43.28125 58.90625 
Q 39.453125 66.40625 31.78125 66.40625 
z
M 31.78125 74.21875 
Q 44.046875 74.21875 50.515625 64.515625 
Q 56.984375 54.828125 56.984375 36.375 
Q 56.984375 17.96875 50.515625 8.265625 
Q 44.046875 -1.421875 31.78125 -1.421875 
Q 19.53125 -1.421875 13.0625 8.265625 
Q 6.59375 17.96875 6.59375 36.375 
Q 6.59375 54.828125 13.0625 64.515625 
Q 19.53125 74.21875 31.78125 74.21875 
z
" id="DejaVuSans-48"/>
      </defs>
      <g style="fill:#262626;" transform="translate(199.569243 647.858281)scale(0.11 -0.11)">
       <use xlink:href="#DejaVuSans-48"/>
      </g>
     </g>
    </g>
    <g id="xtick_3">
     <g id="line2d_3">
      <path clip-path="url(#p6c3e808373)" d="M 307.592219 630 
L 307.592219 86.4 
" style="fill:none;stroke:#ffffff;stroke-linecap:round;"/>
     </g>
     <g id="text_3">
      <!-- 2 -->
      <g style="fill:#262626;" transform="translate(304.092844 647.858281)scale(0.11 -0.11)">
       <use xlink:href="#DejaVuSans-50"/>
      </g>
     </g>
    </g>
    <g id="xtick_4">
     <g id="line2d_4">
      <path clip-path="url(#p6c3e808373)" d="M 412.11582 630 
L 412.11582 86.4 
" style="fill:none;stroke:#ffffff;stroke-linecap:round;"/>
     </g>
     <g id="text_4">
      <!-- 4 -->
      <defs>
       <path d="M 37.796875 64.3125 
L 12.890625 25.390625 
L 37.796875 25.390625 
z
M 35.203125 72.90625 
L 47.609375 72.90625 
L 47.609375 25.390625 
L 58.015625 25.390625 
L 58.015625 17.1875 
L 47.609375 17.1875 
L 47.609375 0 
L 37.796875 0 
L 37.796875 17.1875 
L 4.890625 17.1875 
L 4.890625 26.703125 
z
" id="DejaVuSans-52"/>
      </defs>
      <g style="fill:#262626;" transform="translate(408.616445 647.858281)scale(0.11 -0.11)">
       <use xlink:href="#DejaVuSans-52"/>
      </g>
     </g>
    </g>
    <g id="xtick_5">
     <g id="line2d_5">
      <path clip-path="url(#p6c3e808373)" d="M 516.63942 630 
L 516.63942 86.4 
" style="fill:none;stroke:#ffffff;stroke-linecap:round;"/>
     </g>
     <g id="text_5">
      <!-- 6 -->
      <defs>
       <path d="M 33.015625 40.375 
Q 26.375 40.375 22.484375 35.828125 
Q 18.609375 31.296875 18.609375 23.390625 
Q 18.609375 15.53125 22.484375 10.953125 
Q 26.375 6.390625 33.015625 6.390625 
Q 39.65625 6.390625 43.53125 10.953125 
Q 47.40625 15.53125 47.40625 23.390625 
Q 47.40625 31.296875 43.53125 35.828125 
Q 39.65625 40.375 33.015625 40.375 
z
M 52.59375 71.296875 
L 52.59375 62.3125 
Q 48.875 64.0625 45.09375 64.984375 
Q 41.3125 65.921875 37.59375 65.921875 
Q 27.828125 65.921875 22.671875 59.328125 
Q 17.53125 52.734375 16.796875 39.40625 
Q 19.671875 43.65625 24.015625 45.921875 
Q 28.375 48.1875 33.59375 48.1875 
Q 44.578125 48.1875 50.953125 41.515625 
Q 57.328125 34.859375 57.328125 23.390625 
Q 57.328125 12.15625 50.6875 5.359375 
Q 44.046875 -1.421875 33.015625 -1.421875 
Q 20.359375 -1.421875 13.671875 8.265625 
Q 6.984375 17.96875 6.984375 36.375 
Q 6.984375 53.65625 15.1875 63.9375 
Q 23.390625 74.21875 37.203125 74.21875 
Q 40.921875 74.21875 44.703125 73.484375 
Q 48.484375 72.75 52.59375 71.296875 
z
" id="DejaVuSans-54"/>
      </defs>
      <g style="fill:#262626;" transform="translate(513.140045 647.858281)scale(0.11 -0.11)">
       <use xlink:href="#DejaVuSans-54"/>
      </g>
     </g>
    </g>
    <g id="xtick_6">
     <g id="line2d_6">
      <path clip-path="url(#p6c3e808373)" d="M 621.163021 630 
L 621.163021 86.4 
" style="fill:none;stroke:#ffffff;stroke-linecap:round;"/>
     </g>
     <g id="text_6">
      <!-- 8 -->
      <defs>
       <path d="M 31.78125 34.625 
Q 24.75 34.625 20.71875 30.859375 
Q 16.703125 27.09375 16.703125 20.515625 
Q 16.703125 13.921875 20.71875 10.15625 
Q 24.75 6.390625 31.78125 6.390625 
Q 38.8125 6.390625 42.859375 10.171875 
Q 46.921875 13.96875 46.921875 20.515625 
Q 46.921875 27.09375 42.890625 30.859375 
Q 38.875 34.625 31.78125 34.625 
z
M 21.921875 38.8125 
Q 15.578125 40.375 12.03125 44.71875 
Q 8.5 49.078125 8.5 55.328125 
Q 8.5 64.0625 14.71875 69.140625 
Q 20.953125 74.21875 31.78125 74.21875 
Q 42.671875 74.21875 48.875 69.140625 
Q 55.078125 64.0625 55.078125 55.328125 
Q 55.078125 49.078125 51.53125 44.71875 
Q 48 40.375 41.703125 38.8125 
Q 48.828125 37.15625 52.796875 32.3125 
Q 56.78125 27.484375 56.78125 20.515625 
Q 56.78125 9.90625 50.3125 4.234375 
Q 43.84375 -1.421875 31.78125 -1.421875 
Q 19.734375 -1.421875 13.25 4.234375 
Q 6.78125 9.90625 6.78125 20.515625 
Q 6.78125 27.484375 10.78125 32.3125 
Q 14.796875 37.15625 21.921875 38.8125 
z
M 18.3125 54.390625 
Q 18.3125 48.734375 21.84375 45.5625 
Q 25.390625 42.390625 31.78125 42.390625 
Q 38.140625 42.390625 41.71875 45.5625 
Q 45.3125 48.734375 45.3125 54.390625 
Q 45.3125 60.0625 41.71875 63.234375 
Q 38.140625 66.40625 31.78125 66.40625 
Q 25.390625 66.40625 21.84375 63.234375 
Q 18.3125 60.0625 18.3125 54.390625 
z
" id="DejaVuSans-56"/>
      </defs>
      <g style="fill:#262626;" transform="translate(617.663646 647.858281)scale(0.11 -0.11)">
       <use xlink:href="#DejaVuSans-56"/>
      </g>
     </g>
    </g>
   </g>
   <g id="matplotlib.axis_2">
    <g id="ytick_1">
     <g id="line2d_7">
      <path clip-path="url(#p6c3e808373)" d="M 90 565.421832 
L 648 565.421832 
" style="fill:none;stroke:#ffffff;stroke-linecap:round;"/>
     </g>
     <g id="text_7">
      <!-- −2 -->
      <g style="fill:#262626;" transform="translate(64.283594 569.600972)scale(0.11 -0.11)">
       <use xlink:href="#DejaVuSans-8722"/>
       <use x="83.789062" xlink:href="#DejaVuSans-50"/>
      </g>
     </g>
    </g>
    <g id="ytick_2">
     <g id="line2d_8">
      <path clip-path="url(#p6c3e808373)" d="M 90 464.470646 
L 648 464.470646 
" style="fill:none;stroke:#ffffff;stroke-linecap:round;"/>
     </g>
     <g id="text_8">
      <!-- 0 -->
      <g style="fill:#262626;" transform="translate(73.50125 468.649786)scale(0.11 -0.11)">
       <use xlink:href="#DejaVuSans-48"/>
      </g>
     </g>
    </g>
    <g id="ytick_3">
     <g id="line2d_9">
      <path clip-path="url(#p6c3e808373)" d="M 90 363.51946 
L 648 363.51946 
" style="fill:none;stroke:#ffffff;stroke-linecap:round;"/>
     </g>
     <g id="text_9">
      <!-- 2 -->
      <g style="fill:#262626;" transform="translate(73.50125 367.6986)scale(0.11 -0.11)">
       <use xlink:href="#DejaVuSans-50"/>
      </g>
     </g>
    </g>
    <g id="ytick_4">
     <g id="line2d_10">
      <path clip-path="url(#p6c3e808373)" d="M 90 262.568274 
L 648 262.568274 
" style="fill:none;stroke:#ffffff;stroke-linecap:round;"/>
     </g>
     <g id="text_10">
      <!-- 4 -->
      <g style="fill:#262626;" transform="translate(73.50125 266.747415)scale(0.11 -0.11)">
       <use xlink:href="#DejaVuSans-52"/>
      </g>
     </g>
    </g>
    <g id="ytick_5">
     <g id="line2d_11">
      <path clip-path="url(#p6c3e808373)" d="M 90 161.617088 
L 648 161.617088 
" style="fill:none;stroke:#ffffff;stroke-linecap:round;"/>
     </g>
     <g id="text_11">
      <!-- 6 -->
      <g style="fill:#262626;" transform="translate(73.50125 165.796229)scale(0.11 -0.11)">
       <use xlink:href="#DejaVuSans-54"/>
      </g>
     </g>
    </g>
   </g>
   <g id="PathCollection_1">
    <defs>
     <path d="M 0 3 
C 0.795609 3 1.55874 2.683901 2.12132 2.12132 
C 2.683901 1.55874 3 0.795609 3 0 
C 3 -0.795609 2.683901 -1.55874 2.12132 -2.12132 
C 1.55874 -2.683901 0.795609 -3 0 -3 
C -0.795609 -3 -1.55874 -2.683901 -2.12132 -2.12132 
C -2.683901 -1.55874 -3 -0.795609 -3 0 
C -3 0.795609 -2.683901 1.55874 -2.12132 2.12132 
C -1.55874 2.683901 -0.795609 3 0 3 
z
" id="maaef3c4c26" style="stroke:#c44e52;"/>
    </defs>
    <g clip-path="url(#p6c3e808373)">
     <use style="fill:#c44e52;stroke:#c44e52;" x="131.543742" xlink:href="#maaef3c4c26" y="454.639387"/>
    </g>
   </g>
   <g id="PathCollection_2">
    <g clip-path="url(#p6c3e808373)">
     <use style="fill:#c44e52;stroke:#c44e52;" x="134.372815" xlink:href="#maaef3c4c26" y="458.7233"/>
    </g>
   </g>
   <g id="PathCollection_3">
    <g clip-path="url(#p6c3e808373)">
     <use style="fill:#c44e52;stroke:#c44e52;" x="136.348147" xlink:href="#maaef3c4c26" y="448.882958"/>
    </g>
   </g>
   <g id="PathCollection_4">
    <defs>
     <path d="M 0 3 
C 0.795609 3 1.55874 2.683901 2.12132 2.12132 
C 2.683901 1.55874 3 0.795609 3 0 
C 3 -0.795609 2.683901 -1.55874 2.12132 -2.12132 
C 1.55874 -2.683901 0.795609 -3 0 -3 
C -0.795609 -3 -1.55874 -2.683901 -2.12132 -2.12132 
C -2.683901 -1.55874 -3 -0.795609 -3 0 
C -3 0.795609 -2.683901 1.55874 -2.12132 2.12132 
C -1.55874 2.683901 -0.795609 3 0 3 
z
" id="m5413fbf2d2" style="stroke:#55a868;"/>
    </defs>
    <g clip-path="url(#p6c3e808373)">
     <use style="fill:#55a868;stroke:#55a868;" x="163.398597" xlink:href="#m5413fbf2d2" y="460.253296"/>
    </g>
   </g>
   <g id="PathCollection_5">
    <defs>
     <path d="M 0 3 
C 0.795609 3 1.55874 2.683901 2.12132 2.12132 
C 2.683901 1.55874 3 0.795609 3 0 
C 3 -0.795609 2.683901 -1.55874 2.12132 -2.12132 
C 1.55874 -2.683901 0.795609 -3 0 -3 
C -0.795609 -3 -1.55874 -2.683901 -2.12132 -2.12132 
C -2.683901 -1.55874 -3 -0.795609 -3 0 
C -3 0.795609 -2.683901 1.55874 -2.12132 2.12132 
C -1.55874 2.683901 -0.795609 3 0 3 
z
" id="m358a8c109f" style="stroke:#4c72b0;"/>
    </defs>
    <g clip-path="url(#p6c3e808373)">
     <use style="fill:#4c72b0;stroke:#4c72b0;" x="128.850302" xlink:href="#m358a8c109f" y="470.123313"/>
    </g>
   </g>
   <g id="PathCollection_6">
    <g clip-path="url(#p6c3e808373)">
     <use style="fill:#4c72b0;stroke:#4c72b0;" x="185.135629" xlink:href="#m358a8c109f" y="451.090917"/>
    </g>
   </g>
   <g id="PathCollection_7">
    <g clip-path="url(#p6c3e808373)">
     <use style="fill:#4c72b0;stroke:#4c72b0;" x="133.112155" xlink:href="#m358a8c109f" y="461.094183"/>
    </g>
   </g>
   <g id="PathCollection_8">
    <g clip-path="url(#p6c3e808373)">
     <use style="fill:#55a868;stroke:#55a868;" x="169.402049" xlink:href="#m5413fbf2d2" y="464.078055"/>
    </g>
   </g>
   <g id="PathCollection_9">
    <g clip-path="url(#p6c3e808373)">
     <use style="fill:#4c72b0;stroke:#4c72b0;" x="132.668022" xlink:href="#m358a8c109f" y="457.156746"/>
    </g>
   </g>
   <g id="PathCollection_10">
    <g clip-path="url(#p6c3e808373)">
     <use style="fill:#55a868;stroke:#55a868;" x="404.551112" xlink:href="#m5413fbf2d2" y="572.028742"/>
    </g>
   </g>
   <g id="PathCollection_11">
    <g clip-path="url(#p6c3e808373)">
     <use style="fill:#55a868;stroke:#55a868;" x="622.636364" xlink:href="#m5413fbf2d2" y="111.109091"/>
    </g>
   </g>
   <g id="PathCollection_12">
    <g clip-path="url(#p6c3e808373)">
     <use style="fill:#55a868;stroke:#55a868;" x="417.982294" xlink:href="#m5413fbf2d2" y="602.665818"/>
    </g>
   </g>
   <g id="PathCollection_13">
    <g clip-path="url(#p6c3e808373)">
     <use style="fill:#55a868;stroke:#55a868;" x="484.305021" xlink:href="#m5413fbf2d2" y="373.847992"/>
    </g>
   </g>
   <g id="PathCollection_14">
    <g clip-path="url(#p6c3e808373)">
     <use style="fill:#c44e52;stroke:#c44e52;" x="136.622827" xlink:href="#maaef3c4c26" y="447.688109"/>
    </g>
   </g>
   <g id="PathCollection_15">
    <g clip-path="url(#p6c3e808373)">
     <use style="fill:#4c72b0;stroke:#4c72b0;" x="147.053999" xlink:href="#m358a8c109f" y="441.909332"/>
    </g>
   </g>
   <g id="PathCollection_16">
    <g clip-path="url(#p6c3e808373)">
     <use style="fill:#c44e52;stroke:#c44e52;" x="133.014914" xlink:href="#maaef3c4c26" y="464.379952"/>
    </g>
   </g>
   <g id="PathCollection_17">
    <g clip-path="url(#p6c3e808373)">
     <use style="fill:#c44e52;stroke:#c44e52;" x="122.911885" xlink:href="#maaef3c4c26" y="457.689395"/>
    </g>
   </g>
   <g id="PathCollection_18">
    <g clip-path="url(#p6c3e808373)">
     <use style="fill:#55a868;stroke:#55a868;" x="166.528156" xlink:href="#m5413fbf2d2" y="465.355472"/>
    </g>
   </g>
   <g id="PathCollection_19">
    <g clip-path="url(#p6c3e808373)">
     <use style="fill:#4c72b0;stroke:#4c72b0;" x="127.456205" xlink:href="#m358a8c109f" y="458.114235"/>
    </g>
   </g>
   <g id="PathCollection_20">
    <g clip-path="url(#p6c3e808373)">
     <use style="fill:#c44e52;stroke:#c44e52;" x="139.41348" xlink:href="#maaef3c4c26" y="436.903548"/>
    </g>
   </g>
   <g id="PathCollection_21">
    <g clip-path="url(#p6c3e808373)">
     <use style="fill:#4c72b0;stroke:#4c72b0;" x="138.90362" xlink:href="#m358a8c109f" y="455.219045"/>
    </g>
   </g>
   <g id="PathCollection_22">
    <g clip-path="url(#p6c3e808373)">
     <use style="fill:#4c72b0;stroke:#4c72b0;" x="137.309175" xlink:href="#m358a8c109f" y="455.675418"/>
    </g>
   </g>
   <g id="PathCollection_23">
    <g clip-path="url(#p6c3e808373)">
     <use style="fill:#55a868;stroke:#55a868;" x="406.578397" xlink:href="#m5413fbf2d2" y="578.034484"/>
    </g>
   </g>
   <g id="PathCollection_24">
    <g clip-path="url(#p6c3e808373)">
     <use style="fill:#4c72b0;stroke:#4c72b0;" x="171.12473" xlink:href="#m358a8c109f" y="441.201996"/>
    </g>
   </g>
   <g id="PathCollection_25">
    <g clip-path="url(#p6c3e808373)">
     <use style="fill:#4c72b0;stroke:#4c72b0;" x="135.759475" xlink:href="#m358a8c109f" y="462.879659"/>
    </g>
   </g>
   <g id="PathCollection_26">
    <g clip-path="url(#p6c3e808373)">
     <use style="fill:#4c72b0;stroke:#4c72b0;" x="136.032685" xlink:href="#m358a8c109f" y="451.388453"/>
    </g>
   </g>
   <g id="PathCollection_27">
    <g clip-path="url(#p6c3e808373)">
     <use style="fill:#55a868;stroke:#55a868;" x="157.105423" xlink:href="#m5413fbf2d2" y="486.031912"/>
    </g>
   </g>
   <g id="PathCollection_28">
    <g clip-path="url(#p6c3e808373)">
     <use style="fill:#4c72b0;stroke:#4c72b0;" x="137.068237" xlink:href="#m358a8c109f" y="464.506607"/>
    </g>
   </g>
   <g id="PathCollection_29">
    <g clip-path="url(#p6c3e808373)">
     <use style="fill:#4c72b0;stroke:#4c72b0;" x="135.87538" xlink:href="#m358a8c109f" y="455.036851"/>
    </g>
   </g>
   <g id="PathCollection_30">
    <g clip-path="url(#p6c3e808373)">
     <use style="fill:#c44e52;stroke:#c44e52;" x="136.056793" xlink:href="#maaef3c4c26" y="465.355477"/>
    </g>
   </g>
   <g id="PathCollection_31">
    <g clip-path="url(#p6c3e808373)">
     <use style="fill:#c44e52;stroke:#c44e52;" x="138.97005" xlink:href="#maaef3c4c26" y="458.667069"/>
    </g>
   </g>
   <g id="PathCollection_32">
    <g clip-path="url(#p6c3e808373)">
     <use style="fill:#55a868;stroke:#55a868;" x="398.848243" xlink:href="#m5413fbf2d2" y="594.604242"/>
    </g>
   </g>
   <g id="PathCollection_33">
    <g clip-path="url(#p6c3e808373)">
     <use style="fill:#c44e52;stroke:#c44e52;" x="121.162912" xlink:href="#maaef3c4c26" y="460.158993"/>
    </g>
   </g>
   <g id="PathCollection_34">
    <g clip-path="url(#p6c3e808373)">
     <use style="fill:#55a868;stroke:#55a868;" x="530.322569" xlink:href="#m5413fbf2d2" y="316.605045"/>
    </g>
   </g>
   <g id="PathCollection_35">
    <g clip-path="url(#p6c3e808373)">
     <use style="fill:#55a868;stroke:#55a868;" x="435.710247" xlink:href="#m5413fbf2d2" y="572.118659"/>
    </g>
   </g>
   <g id="PathCollection_36">
    <g clip-path="url(#p6c3e808373)">
     <use style="fill:#c44e52;stroke:#c44e52;" x="127.14379" xlink:href="#maaef3c4c26" y="451.837642"/>
    </g>
   </g>
   <g id="PathCollection_37">
    <g clip-path="url(#p6c3e808373)">
     <use style="fill:#4c72b0;stroke:#4c72b0;" x="144.529353" xlink:href="#m358a8c109f" y="464.171595"/>
    </g>
   </g>
   <g id="PathCollection_38">
    <g clip-path="url(#p6c3e808373)">
     <use style="fill:#4c72b0;stroke:#4c72b0;" x="144.444618" xlink:href="#m358a8c109f" y="464.947454"/>
    </g>
   </g>
   <g id="PathCollection_39">
    <g clip-path="url(#p6c3e808373)">
     <use style="fill:#4c72b0;stroke:#4c72b0;" x="180.488057" xlink:href="#m358a8c109f" y="438.516158"/>
    </g>
   </g>
   <g id="PathCollection_40">
    <g clip-path="url(#p6c3e808373)">
     <use style="fill:#4c72b0;stroke:#4c72b0;" x="139.572678" xlink:href="#m358a8c109f" y="470.897285"/>
    </g>
   </g>
   <g id="PathCollection_41">
    <g clip-path="url(#p6c3e808373)">
     <use style="fill:#55a868;stroke:#55a868;" x="434.696467" xlink:href="#m5413fbf2d2" y="560.527051"/>
    </g>
   </g>
   <g id="PathCollection_42">
    <g clip-path="url(#p6c3e808373)">
     <use style="fill:#c44e52;stroke:#c44e52;" x="138.40251" xlink:href="#maaef3c4c26" y="441.686726"/>
    </g>
   </g>
   <g id="PathCollection_43">
    <g clip-path="url(#p6c3e808373)">
     <use style="fill:#c44e52;stroke:#c44e52;" x="135.852803" xlink:href="#maaef3c4c26" y="449.215824"/>
    </g>
   </g>
   <g id="PathCollection_44">
    <g clip-path="url(#p6c3e808373)">
     <use style="fill:#4c72b0;stroke:#4c72b0;" x="135.323832" xlink:href="#m358a8c109f" y="459.976161"/>
    </g>
   </g>
   <g id="PathCollection_45">
    <g clip-path="url(#p6c3e808373)">
     <use style="fill:#55a868;stroke:#55a868;" x="404.626842" xlink:href="#m5413fbf2d2" y="580.554087"/>
    </g>
   </g>
   <g id="PathCollection_46">
    <g clip-path="url(#p6c3e808373)">
     <use style="fill:#55a868;stroke:#55a868;" x="166.652793" xlink:href="#m5413fbf2d2" y="469.839135"/>
    </g>
   </g>
   <g id="PathCollection_47">
    <g clip-path="url(#p6c3e808373)">
     <use style="fill:#4c72b0;stroke:#4c72b0;" x="176.693654" xlink:href="#m358a8c109f" y="424.47991"/>
    </g>
   </g>
   <g id="PathCollection_48">
    <g clip-path="url(#p6c3e808373)">
     <use style="fill:#55a868;stroke:#55a868;" x="156.594739" xlink:href="#m5413fbf2d2" y="471.220917"/>
    </g>
   </g>
   <g id="PathCollection_49">
    <g clip-path="url(#p6c3e808373)">
     <use style="fill:#c44e52;stroke:#c44e52;" x="135.58172" xlink:href="#maaef3c4c26" y="451.32003"/>
    </g>
   </g>
   <g id="PathCollection_50">
    <g clip-path="url(#p6c3e808373)">
     <use style="fill:#c44e52;stroke:#c44e52;" x="128.002199" xlink:href="#maaef3c4c26" y="468.210257"/>
    </g>
   </g>
   <g id="PathCollection_51">
    <g clip-path="url(#p6c3e808373)">
     <use style="fill:#c44e52;stroke:#c44e52;" x="132.439813" xlink:href="#maaef3c4c26" y="470.357923"/>
    </g>
   </g>
   <g id="PathCollection_52">
    <g clip-path="url(#p6c3e808373)">
     <use style="fill:#4c72b0;stroke:#4c72b0;" x="133.037502" xlink:href="#m358a8c109f" y="462.160008"/>
    </g>
   </g>
   <g id="PathCollection_53">
    <g clip-path="url(#p6c3e808373)">
     <use style="fill:#55a868;stroke:#55a868;" x="159.487679" xlink:href="#m5413fbf2d2" y="476.945756"/>
    </g>
   </g>
   <g id="PathCollection_54">
    <g clip-path="url(#p6c3e808373)">
     <use style="fill:#4c72b0;stroke:#4c72b0;" x="138.91776" xlink:href="#m358a8c109f" y="448.933916"/>
    </g>
   </g>
   <g id="PathCollection_55">
    <g clip-path="url(#p6c3e808373)">
     <use style="fill:#4c72b0;stroke:#4c72b0;" x="126.720009" xlink:href="#m358a8c109f" y="473.318725"/>
    </g>
   </g>
   <g id="PathCollection_56">
    <g clip-path="url(#p6c3e808373)">
     <use style="fill:#55a868;stroke:#55a868;" x="164.813279" xlink:href="#m5413fbf2d2" y="453.177165"/>
    </g>
   </g>
   <g id="PathCollection_57">
    <g clip-path="url(#p6c3e808373)">
     <use style="fill:#c44e52;stroke:#c44e52;" x="141.1397" xlink:href="#maaef3c4c26" y="442.433359"/>
    </g>
   </g>
   <g id="PathCollection_58">
    <g clip-path="url(#p6c3e808373)">
     <use style="fill:#4c72b0;stroke:#4c72b0;" x="140.843147" xlink:href="#m358a8c109f" y="465.383072"/>
    </g>
   </g>
   <g id="PathCollection_59">
    <g clip-path="url(#p6c3e808373)">
     <use style="fill:#4c72b0;stroke:#4c72b0;" x="137.751695" xlink:href="#m358a8c109f" y="442.01748"/>
    </g>
   </g>
   <g id="PathCollection_60">
    <g clip-path="url(#p6c3e808373)">
     <use style="fill:#55a868;stroke:#55a868;" x="574.255219" xlink:href="#m5413fbf2d2" y="217.279791"/>
    </g>
   </g>
   <g id="PathCollection_61">
    <g clip-path="url(#p6c3e808373)">
     <use style="fill:#c44e52;stroke:#c44e52;" x="126.186306" xlink:href="#maaef3c4c26" y="466.960763"/>
    </g>
   </g>
   <g id="PathCollection_62">
    <g clip-path="url(#p6c3e808373)">
     <use style="fill:#55a868;stroke:#55a868;" x="163.258078" xlink:href="#m5413fbf2d2" y="456.591698"/>
    </g>
   </g>
   <g id="PathCollection_63">
    <g clip-path="url(#p6c3e808373)">
     <use style="fill:#4c72b0;stroke:#4c72b0;" x="144.122459" xlink:href="#m358a8c109f" y="461.076431"/>
    </g>
   </g>
   <g id="PathCollection_64">
    <g clip-path="url(#p6c3e808373)">
     <use style="fill:#4c72b0;stroke:#4c72b0;" x="138.746167" xlink:href="#m358a8c109f" y="455.402198"/>
    </g>
   </g>
   <g id="PathCollection_65">
    <g clip-path="url(#p6c3e808373)">
     <use style="fill:#c44e52;stroke:#c44e52;" x="118.760163" xlink:href="#maaef3c4c26" y="458.642703"/>
    </g>
   </g>
   <g id="PathCollection_66">
    <g clip-path="url(#p6c3e808373)">
     <use style="fill:#4c72b0;stroke:#4c72b0;" x="138.73942" xlink:href="#m358a8c109f" y="468.19849"/>
    </g>
   </g>
   <g id="PathCollection_67">
    <g clip-path="url(#p6c3e808373)">
     <use style="fill:#55a868;stroke:#55a868;" x="437.113454" xlink:href="#m5413fbf2d2" y="578.719571"/>
    </g>
   </g>
   <g id="PathCollection_68">
    <g clip-path="url(#p6c3e808373)">
     <use style="fill:#c44e52;stroke:#c44e52;" x="126.591029" xlink:href="#maaef3c4c26" y="460.096259"/>
    </g>
   </g>
   <g id="PathCollection_69">
    <g clip-path="url(#p6c3e808373)">
     <use style="fill:#55a868;stroke:#55a868;" x="161.973067" xlink:href="#m5413fbf2d2" y="475.325912"/>
    </g>
   </g>
   <g id="PathCollection_70">
    <g clip-path="url(#p6c3e808373)">
     <use style="fill:#55a868;stroke:#55a868;" x="573.684471" xlink:href="#m5413fbf2d2" y="229.729487"/>
    </g>
   </g>
   <g id="PathCollection_71">
    <g clip-path="url(#p6c3e808373)">
     <use style="fill:#55a868;stroke:#55a868;" x="395.811374" xlink:href="#m5413fbf2d2" y="587.21684"/>
    </g>
   </g>
   <g id="PathCollection_72">
    <g clip-path="url(#p6c3e808373)">
     <use style="fill:#c44e52;stroke:#c44e52;" x="129.196926" xlink:href="#maaef3c4c26" y="446.642295"/>
    </g>
   </g>
   <g id="PathCollection_73">
    <g clip-path="url(#p6c3e808373)">
     <use style="fill:#55a868;stroke:#55a868;" x="583.111929" xlink:href="#m5413fbf2d2" y="203.345034"/>
    </g>
   </g>
   <g id="PathCollection_74">
    <g clip-path="url(#p6c3e808373)">
     <use style="fill:#c44e52;stroke:#c44e52;" x="134.697421" xlink:href="#maaef3c4c26" y="463.775573"/>
    </g>
   </g>
   <g id="PathCollection_75">
    <g clip-path="url(#p6c3e808373)">
     <use style="fill:#c44e52;stroke:#c44e52;" x="132.379658" xlink:href="#maaef3c4c26" y="454.190079"/>
    </g>
   </g>
   <g id="PathCollection_76">
    <g clip-path="url(#p6c3e808373)">
     <use style="fill:#4c72b0;stroke:#4c72b0;" x="141.828202" xlink:href="#m358a8c109f" y="459.880101"/>
    </g>
   </g>
   <g id="PathCollection_77">
    <g clip-path="url(#p6c3e808373)">
     <use style="fill:#55a868;stroke:#55a868;" x="392.583361" xlink:href="#m5413fbf2d2" y="605.270949"/>
    </g>
   </g>
   <g id="PathCollection_78">
    <g clip-path="url(#p6c3e808373)">
     <use style="fill:#55a868;stroke:#55a868;" x="424.764982" xlink:href="#m5413fbf2d2" y="584.710579"/>
    </g>
   </g>
   <g id="PathCollection_79">
    <g clip-path="url(#p6c3e808373)">
     <use style="fill:#55a868;stroke:#55a868;" x="394.677151" xlink:href="#m5413fbf2d2" y="595.264884"/>
    </g>
   </g>
   <g id="PathCollection_80">
    <g clip-path="url(#p6c3e808373)">
     <use style="fill:#4c72b0;stroke:#4c72b0;" x="205.513836" xlink:href="#m358a8c109f" y="451.499546"/>
    </g>
   </g>
   <g id="PathCollection_81">
    <g clip-path="url(#p6c3e808373)">
     <use style="fill:#4c72b0;stroke:#4c72b0;" x="161.893328" xlink:href="#m358a8c109f" y="444.25688"/>
    </g>
   </g>
   <g id="PathCollection_82">
    <g clip-path="url(#p6c3e808373)">
     <use style="fill:#4c72b0;stroke:#4c72b0;" x="166.666903" xlink:href="#m358a8c109f" y="426.220073"/>
    </g>
   </g>
   <g id="PathCollection_83">
    <g clip-path="url(#p6c3e808373)">
     <use style="fill:#c44e52;stroke:#c44e52;" x="128.961585" xlink:href="#maaef3c4c26" y="464.300306"/>
    </g>
   </g>
   <g id="PathCollection_84">
    <g clip-path="url(#p6c3e808373)">
     <use style="fill:#4c72b0;stroke:#4c72b0;" x="139.678676" xlink:href="#m358a8c109f" y="456.50226"/>
    </g>
   </g>
   <g id="PathCollection_85">
    <g clip-path="url(#p6c3e808373)">
     <use style="fill:#4c72b0;stroke:#4c72b0;" x="137.553162" xlink:href="#m358a8c109f" y="448.154642"/>
    </g>
   </g>
   <g id="PathCollection_86">
    <g clip-path="url(#p6c3e808373)">
     <use style="fill:#c44e52;stroke:#c44e52;" x="141.239936" xlink:href="#maaef3c4c26" y="452.635525"/>
    </g>
   </g>
   <g id="PathCollection_87">
    <g clip-path="url(#p6c3e808373)">
     <use style="fill:#c44e52;stroke:#c44e52;" x="133.892633" xlink:href="#maaef3c4c26" y="448.357286"/>
    </g>
   </g>
   <g id="PathCollection_88">
    <g clip-path="url(#p6c3e808373)">
     <use style="fill:#4c72b0;stroke:#4c72b0;" x="142.551178" xlink:href="#m358a8c109f" y="464.474108"/>
    </g>
   </g>
   <g id="PathCollection_89">
    <g clip-path="url(#p6c3e808373)">
     <use style="fill:#c44e52;stroke:#c44e52;" x="137.712069" xlink:href="#maaef3c4c26" y="460.077023"/>
    </g>
   </g>
   <g id="PathCollection_90">
    <g clip-path="url(#p6c3e808373)">
     <use style="fill:#c44e52;stroke:#c44e52;" x="127.102181" xlink:href="#maaef3c4c26" y="460.279858"/>
    </g>
   </g>
   <g id="PathCollection_91">
    <g clip-path="url(#p6c3e808373)">
     <use style="fill:#55a868;stroke:#55a868;" x="162.591339" xlink:href="#m5413fbf2d2" y="461.268976"/>
    </g>
   </g>
   <g id="PathCollection_92">
    <g clip-path="url(#p6c3e808373)">
     <use style="fill:#4c72b0;stroke:#4c72b0;" x="171.136553" xlink:href="#m358a8c109f" y="432.137034"/>
    </g>
   </g>
   <g id="PathCollection_93">
    <g clip-path="url(#p6c3e808373)">
     <use style="fill:#c44e52;stroke:#c44e52;" x="129.767356" xlink:href="#maaef3c4c26" y="461.653853"/>
    </g>
   </g>
   <g id="PathCollection_94">
    <g clip-path="url(#p6c3e808373)">
     <use style="fill:#c44e52;stroke:#c44e52;" x="118.096487" xlink:href="#maaef3c4c26" y="456.789889"/>
    </g>
   </g>
   <g id="PathCollection_95">
    <g clip-path="url(#p6c3e808373)">
     <use style="fill:#55a868;stroke:#55a868;" x="158.890788" xlink:href="#m5413fbf2d2" y="475.697113"/>
    </g>
   </g>
   <g id="PathCollection_96">
    <g clip-path="url(#p6c3e808373)">
     <use style="fill:#4c72b0;stroke:#4c72b0;" x="146.429703" xlink:href="#m358a8c109f" y="455.171587"/>
    </g>
   </g>
   <g id="PathCollection_97">
    <g clip-path="url(#p6c3e808373)">
     <use style="fill:#c44e52;stroke:#c44e52;" x="138.431402" xlink:href="#maaef3c4c26" y="442.670742"/>
    </g>
   </g>
   <g id="PathCollection_98">
    <g clip-path="url(#p6c3e808373)">
     <use style="fill:#c44e52;stroke:#c44e52;" x="131.831438" xlink:href="#maaef3c4c26" y="458.110271"/>
    </g>
   </g>
   <g id="PathCollection_99">
    <g clip-path="url(#p6c3e808373)">
     <use style="fill:#55a868;stroke:#55a868;" x="158.365037" xlink:href="#m5413fbf2d2" y="479.802587"/>
    </g>
   </g>
   <g id="PathCollection_100">
    <g clip-path="url(#p6c3e808373)">
     <use style="fill:#c44e52;stroke:#c44e52;" x="137.734629" xlink:href="#maaef3c4c26" y="454.926207"/>
    </g>
   </g>
   <g id="PathCollection_101">
    <g clip-path="url(#p6c3e808373)">
     <use style="fill:#55a868;stroke:#55a868;" x="168.70978" xlink:href="#m5413fbf2d2" y="456.199056"/>
    </g>
   </g>
   <g id="PathCollection_102">
    <g clip-path="url(#p6c3e808373)">
     <use style="fill:#55a868;stroke:#55a868;" x="455.506447" xlink:href="#m5413fbf2d2" y="480.804752"/>
    </g>
   </g>
   <g id="PathCollection_103">
    <g clip-path="url(#p6c3e808373)">
     <use style="fill:#55a868;stroke:#55a868;" x="423.093396" xlink:href="#m5413fbf2d2" y="597.807865"/>
    </g>
   </g>
   <g id="PathCollection_104">
    <g clip-path="url(#p6c3e808373)">
     <use style="fill:#4c72b0;stroke:#4c72b0;" x="145.151944" xlink:href="#m358a8c109f" y="460.082279"/>
    </g>
   </g>
   <g id="PathCollection_105">
    <g clip-path="url(#p6c3e808373)">
     <use style="fill:#4c72b0;stroke:#4c72b0;" x="168.228451" xlink:href="#m358a8c109f" y="431.548065"/>
    </g>
   </g>
   <g id="PathCollection_106">
    <g clip-path="url(#p6c3e808373)">
     <use style="fill:#55a868;stroke:#55a868;" x="431.70139" xlink:href="#m5413fbf2d2" y="578.0168"/>
    </g>
   </g>
   <g id="PathCollection_107">
    <g clip-path="url(#p6c3e808373)">
     <use style="fill:#c44e52;stroke:#c44e52;" x="141.422598" xlink:href="#maaef3c4c26" y="441.400522"/>
    </g>
   </g>
   <g id="PathCollection_108">
    <g clip-path="url(#p6c3e808373)">
     <use style="fill:#55a868;stroke:#55a868;" x="436.311387" xlink:href="#m5413fbf2d2" y="568.30886"/>
    </g>
   </g>
   <g id="PathCollection_109">
    <g clip-path="url(#p6c3e808373)">
     <use style="fill:#c44e52;stroke:#c44e52;" x="142.511514" xlink:href="#maaef3c4c26" y="446.869726"/>
    </g>
   </g>
   <g id="PathCollection_110">
    <g clip-path="url(#p6c3e808373)">
     <use style="fill:#c44e52;stroke:#c44e52;" x="115.363636" xlink:href="#maaef3c4c26" y="455.779866"/>
    </g>
   </g>
   <g id="PathCollection_111">
    <g clip-path="url(#p6c3e808373)">
     <use style="fill:#c44e52;stroke:#c44e52;" x="131.203033" xlink:href="#maaef3c4c26" y="454.822336"/>
    </g>
   </g>
   <g id="PathCollection_112">
    <g clip-path="url(#p6c3e808373)">
     <use style="fill:#c44e52;stroke:#c44e52;" x="126.906405" xlink:href="#maaef3c4c26" y="457.929375"/>
    </g>
   </g>
   <g id="PathCollection_113">
    <g clip-path="url(#p6c3e808373)">
     <use style="fill:#c44e52;stroke:#c44e52;" x="129.808694" xlink:href="#maaef3c4c26" y="455.309154"/>
    </g>
   </g>
   <g id="PathCollection_114">
    <g clip-path="url(#p6c3e808373)">
     <use style="fill:#4c72b0;stroke:#4c72b0;" x="142.645397" xlink:href="#m358a8c109f" y="454.559674"/>
    </g>
   </g>
   <g id="PathCollection_115">
    <g clip-path="url(#p6c3e808373)">
     <use style="fill:#4c72b0;stroke:#4c72b0;" x="169.324298" xlink:href="#m358a8c109f" y="442.625056"/>
    </g>
   </g>
   <g id="PathCollection_116">
    <g clip-path="url(#p6c3e808373)">
     <use style="fill:#55a868;stroke:#55a868;" x="483.782589" xlink:href="#m5413fbf2d2" y="423.267724"/>
    </g>
   </g>
   <g id="PathCollection_117">
    <g clip-path="url(#p6c3e808373)">
     <use style="fill:#55a868;stroke:#55a868;" x="158.820816" xlink:href="#m5413fbf2d2" y="472.304656"/>
    </g>
   </g>
   <g id="PathCollection_118">
    <g clip-path="url(#p6c3e808373)">
     <use style="fill:#55a868;stroke:#55a868;" x="397.144508" xlink:href="#m5413fbf2d2" y="599.613546"/>
    </g>
   </g>
   <g id="PathCollection_119">
    <g clip-path="url(#p6c3e808373)">
     <use style="fill:#55a868;stroke:#55a868;" x="159.144337" xlink:href="#m5413fbf2d2" y="468.986205"/>
    </g>
   </g>
   <g id="PathCollection_120">
    <g clip-path="url(#p6c3e808373)">
     <use style="fill:#4c72b0;stroke:#4c72b0;" x="133.101227" xlink:href="#m358a8c109f" y="466.147907"/>
    </g>
   </g>
   <g id="PathCollection_121">
    <g clip-path="url(#p6c3e808373)">
     <use style="fill:#4c72b0;stroke:#4c72b0;" x="137.974149" xlink:href="#m358a8c109f" y="455.086949"/>
    </g>
   </g>
   <g id="PathCollection_122">
    <g clip-path="url(#p6c3e808373)">
     <use style="fill:#55a868;stroke:#55a868;" x="429.645747" xlink:href="#m5413fbf2d2" y="589.997248"/>
    </g>
   </g>
   <g id="PathCollection_123">
    <g clip-path="url(#p6c3e808373)">
     <use style="fill:#c44e52;stroke:#c44e52;" x="136.255784" xlink:href="#maaef3c4c26" y="453.613196"/>
    </g>
   </g>
   <g id="PathCollection_124">
    <g clip-path="url(#p6c3e808373)">
     <use style="fill:#55a868;stroke:#55a868;" x="510.495622" xlink:href="#m5413fbf2d2" y="371.506351"/>
    </g>
   </g>
   <g id="PathCollection_125">
    <g clip-path="url(#p6c3e808373)">
     <use style="fill:#c44e52;stroke:#c44e52;" x="128.085141" xlink:href="#maaef3c4c26" y="466.510877"/>
    </g>
   </g>
   <g id="PathCollection_126">
    <g clip-path="url(#p6c3e808373)">
     <use style="fill:#4c72b0;stroke:#4c72b0;" x="140.845933" xlink:href="#m358a8c109f" y="449.121171"/>
    </g>
   </g>
   <g id="PathCollection_127">
    <g clip-path="url(#p6c3e808373)">
     <use style="fill:#c44e52;stroke:#c44e52;" x="146.944384" xlink:href="#maaef3c4c26" y="437.175147"/>
    </g>
   </g>
   <g id="PathCollection_128">
    <g clip-path="url(#p6c3e808373)">
     <use style="fill:#4c72b0;stroke:#4c72b0;" x="131.68074" xlink:href="#m358a8c109f" y="445.434936"/>
    </g>
   </g>
   <g id="PathCollection_129">
    <g clip-path="url(#p6c3e808373)">
     <use style="fill:#c44e52;stroke:#c44e52;" x="136.141031" xlink:href="#maaef3c4c26" y="449.233013"/>
    </g>
   </g>
   <g id="PathCollection_130">
    <g clip-path="url(#p6c3e808373)">
     <use style="fill:#c44e52;stroke:#c44e52;" x="138.358891" xlink:href="#maaef3c4c26" y="446.525733"/>
    </g>
   </g>
   <g id="PathCollection_131">
    <g clip-path="url(#p6c3e808373)">
     <use style="fill:#55a868;stroke:#55a868;" x="151.081614" xlink:href="#m5413fbf2d2" y="473.472244"/>
    </g>
   </g>
   <g id="PathCollection_132">
    <g clip-path="url(#p6c3e808373)">
     <use style="fill:#c44e52;stroke:#c44e52;" x="133.17563" xlink:href="#maaef3c4c26" y="457.379972"/>
    </g>
   </g>
   <g id="PathCollection_133">
    <g clip-path="url(#p6c3e808373)">
     <use style="fill:#c44e52;stroke:#c44e52;" x="123.599272" xlink:href="#maaef3c4c26" y="451.295548"/>
    </g>
   </g>
   <g id="PathCollection_134">
    <g clip-path="url(#p6c3e808373)">
     <use style="fill:#55a868;stroke:#55a868;" x="167.55445" xlink:href="#m5413fbf2d2" y="468.695377"/>
    </g>
   </g>
   <g id="PathCollection_135">
    <g clip-path="url(#p6c3e808373)">
     <use style="fill:#55a868;stroke:#55a868;" x="395.104699" xlink:href="#m5413fbf2d2" y="599.069022"/>
    </g>
   </g>
   <g id="PathCollection_136">
    <g clip-path="url(#p6c3e808373)">
     <use style="fill:#4c72b0;stroke:#4c72b0;" x="133.789355" xlink:href="#m358a8c109f" y="444.360728"/>
    </g>
   </g>
   <g id="PathCollection_137">
    <g clip-path="url(#p6c3e808373)">
     <use style="fill:#55a868;stroke:#55a868;" x="393.984749" xlink:href="#m5413fbf2d2" y="605.290909"/>
    </g>
   </g>
   <g id="PathCollection_138">
    <g clip-path="url(#p6c3e808373)">
     <use style="fill:#55a868;stroke:#55a868;" x="158.975307" xlink:href="#m5413fbf2d2" y="472.849436"/>
    </g>
   </g>
   <g id="PathCollection_139">
    <g clip-path="url(#p6c3e808373)">
     <use style="fill:#c44e52;stroke:#c44e52;" x="122.645704" xlink:href="#maaef3c4c26" y="483.122169"/>
    </g>
   </g>
   <g id="PathCollection_140">
    <g clip-path="url(#p6c3e808373)">
     <use style="fill:#55a868;stroke:#55a868;" x="149.516488" xlink:href="#m5413fbf2d2" y="478.607282"/>
    </g>
   </g>
   <g id="PathCollection_141">
    <g clip-path="url(#p6c3e808373)">
     <use style="fill:#c44e52;stroke:#c44e52;" x="144.972666" xlink:href="#maaef3c4c26" y="436.325789"/>
    </g>
   </g>
   <g id="PathCollection_142">
    <g clip-path="url(#p6c3e808373)">
     <use style="fill:#c44e52;stroke:#c44e52;" x="120.999942" xlink:href="#maaef3c4c26" y="457.167854"/>
    </g>
   </g>
   <g id="PathCollection_143">
    <g clip-path="url(#p6c3e808373)">
     <use style="fill:#4c72b0;stroke:#4c72b0;" x="139.964012" xlink:href="#m358a8c109f" y="455.258164"/>
    </g>
   </g>
   <g id="PathCollection_144">
    <g clip-path="url(#p6c3e808373)">
     <use style="fill:#4c72b0;stroke:#4c72b0;" x="143.794528" xlink:href="#m358a8c109f" y="463.639646"/>
    </g>
   </g>
   <g id="patch_3">
    <path d="M 90 630 
L 90 86.4 
" style="fill:none;stroke:#ffffff;stroke-linecap:square;stroke-linejoin:miter;stroke-width:1.25;"/>
   </g>
   <g id="patch_4">
    <path d="M 648 630 
L 648 86.4 
" style="fill:none;stroke:#ffffff;stroke-linecap:square;stroke-linejoin:miter;stroke-width:1.25;"/>
   </g>
   <g id="patch_5">
    <path d="M 90 630 
L 648 630 
" style="fill:none;stroke:#ffffff;stroke-linecap:square;stroke-linejoin:miter;stroke-width:1.25;"/>
   </g>
   <g id="patch_6">
    <path d="M 90 86.4 
L 648 86.4 
" style="fill:none;stroke:#ffffff;stroke-linecap:square;stroke-linejoin:miter;stroke-width:1.25;"/>
   </g>
   <g id="legend_1">
    <g id="patch_7">
     <path d="M 589.748125 160.751562 
L 640.3 160.751562 
Q 642.5 160.751562 642.5 158.551562 
L 642.5 94.1 
Q 642.5 91.9 640.3 91.9 
L 589.748125 91.9 
Q 587.548125 91.9 587.548125 94.1 
L 587.548125 158.551562 
Q 587.548125 160.751562 589.748125 160.751562 
z
" style="fill:#eaeaf2;opacity:0.8;stroke:#cccccc;stroke-linejoin:miter;"/>
    </g>
    <g id="text_12">
     <!-- Classes -->
     <defs>
      <path d="M 64.40625 67.28125 
L 64.40625 56.890625 
Q 59.421875 61.53125 53.78125 63.8125 
Q 48.140625 66.109375 41.796875 66.109375 
Q 29.296875 66.109375 22.65625 58.46875 
Q 16.015625 50.828125 16.015625 36.375 
Q 16.015625 21.96875 22.65625 14.328125 
Q 29.296875 6.6875 41.796875 6.6875 
Q 48.140625 6.6875 53.78125 8.984375 
Q 59.421875 11.28125 64.40625 15.921875 
L 64.40625 5.609375 
Q 59.234375 2.09375 53.4375 0.328125 
Q 47.65625 -1.421875 41.21875 -1.421875 
Q 24.65625 -1.421875 15.125 8.703125 
Q 5.609375 18.84375 5.609375 36.375 
Q 5.609375 53.953125 15.125 64.078125 
Q 24.65625 74.21875 41.21875 74.21875 
Q 47.75 74.21875 53.53125 72.484375 
Q 59.328125 70.75 64.40625 67.28125 
z
" id="DejaVuSans-67"/>
      <path d="M 9.421875 75.984375 
L 18.40625 75.984375 
L 18.40625 0 
L 9.421875 0 
z
" id="DejaVuSans-108"/>
      <path d="M 34.28125 27.484375 
Q 23.390625 27.484375 19.1875 25 
Q 14.984375 22.515625 14.984375 16.5 
Q 14.984375 11.71875 18.140625 8.90625 
Q 21.296875 6.109375 26.703125 6.109375 
Q 34.1875 6.109375 38.703125 11.40625 
Q 43.21875 16.703125 43.21875 25.484375 
L 43.21875 27.484375 
z
M 52.203125 31.203125 
L 52.203125 0 
L 43.21875 0 
L 43.21875 8.296875 
Q 40.140625 3.328125 35.546875 0.953125 
Q 30.953125 -1.421875 24.3125 -1.421875 
Q 15.921875 -1.421875 10.953125 3.296875 
Q 6 8.015625 6 15.921875 
Q 6 25.140625 12.171875 29.828125 
Q 18.359375 34.515625 30.609375 34.515625 
L 43.21875 34.515625 
L 43.21875 35.40625 
Q 43.21875 41.609375 39.140625 45 
Q 35.0625 48.390625 27.6875 48.390625 
Q 23 48.390625 18.546875 47.265625 
Q 14.109375 46.140625 10.015625 43.890625 
L 10.015625 52.203125 
Q 14.9375 54.109375 19.578125 55.046875 
Q 24.21875 56 28.609375 56 
Q 40.484375 56 46.34375 49.84375 
Q 52.203125 43.703125 52.203125 31.203125 
z
" id="DejaVuSans-97"/>
      <path d="M 44.28125 53.078125 
L 44.28125 44.578125 
Q 40.484375 46.53125 36.375 47.5 
Q 32.28125 48.484375 27.875 48.484375 
Q 21.1875 48.484375 17.84375 46.4375 
Q 14.5 44.390625 14.5 40.28125 
Q 14.5 37.15625 16.890625 35.375 
Q 19.28125 33.59375 26.515625 31.984375 
L 29.59375 31.296875 
Q 39.15625 29.25 43.1875 25.515625 
Q 47.21875 21.78125 47.21875 15.09375 
Q 47.21875 7.46875 41.1875 3.015625 
Q 35.15625 -1.421875 24.609375 -1.421875 
Q 20.21875 -1.421875 15.453125 -0.5625 
Q 10.6875 0.296875 5.421875 2 
L 5.421875 11.28125 
Q 10.40625 8.6875 15.234375 7.390625 
Q 20.0625 6.109375 24.8125 6.109375 
Q 31.15625 6.109375 34.5625 8.28125 
Q 37.984375 10.453125 37.984375 14.40625 
Q 37.984375 18.0625 35.515625 20.015625 
Q 33.0625 21.96875 24.703125 23.78125 
L 21.578125 24.515625 
Q 13.234375 26.265625 9.515625 29.90625 
Q 5.8125 33.546875 5.8125 39.890625 
Q 5.8125 47.609375 11.28125 51.796875 
Q 16.75 56 26.8125 56 
Q 31.78125 56 36.171875 55.265625 
Q 40.578125 54.546875 44.28125 53.078125 
z
" id="DejaVuSans-115"/>
      <path d="M 56.203125 29.59375 
L 56.203125 25.203125 
L 14.890625 25.203125 
Q 15.484375 15.921875 20.484375 11.0625 
Q 25.484375 6.203125 34.421875 6.203125 
Q 39.59375 6.203125 44.453125 7.46875 
Q 49.3125 8.734375 54.109375 11.28125 
L 54.109375 2.78125 
Q 49.265625 0.734375 44.1875 -0.34375 
Q 39.109375 -1.421875 33.890625 -1.421875 
Q 20.796875 -1.421875 13.15625 6.1875 
Q 5.515625 13.8125 5.515625 26.8125 
Q 5.515625 40.234375 12.765625 48.109375 
Q 20.015625 56 32.328125 56 
Q 43.359375 56 49.78125 48.890625 
Q 56.203125 41.796875 56.203125 29.59375 
z
M 47.21875 32.234375 
Q 47.125 39.59375 43.09375 43.984375 
Q 39.0625 48.390625 32.421875 48.390625 
Q 24.90625 48.390625 20.390625 44.140625 
Q 15.875 39.890625 15.1875 32.171875 
z
" id="DejaVuSans-101"/>
     </defs>
     <g style="fill:#262626;" transform="translate(592.421875 105.418125)scale(0.12 -0.12)">
      <use xlink:href="#DejaVuSans-67"/>
      <use x="69.824219" xlink:href="#DejaVuSans-108"/>
      <use x="97.607422" xlink:href="#DejaVuSans-97"/>
      <use x="158.886719" xlink:href="#DejaVuSans-115"/>
      <use x="210.986328" xlink:href="#DejaVuSans-115"/>
      <use x="263.085938" xlink:href="#DejaVuSans-101"/>
      <use x="324.609375" xlink:href="#DejaVuSans-115"/>
     </g>
    </g>
    <g id="line2d_12">
     <path d="M 591.948125 117.922031 
L 613.948125 117.922031 
" style="fill:none;stroke:#4c72b0;stroke-linecap:round;stroke-width:1.5;"/>
    </g>
    <g id="line2d_13">
     <g>
      <use style="fill:#4c72b0;stroke:#4c72b0;" x="602.948125" xlink:href="#m358a8c109f" y="117.922031"/>
     </g>
    </g>
    <g id="text_13">
     <!-- AA -->
     <defs>
      <path d="M 34.1875 63.1875 
L 20.796875 26.90625 
L 47.609375 26.90625 
z
M 28.609375 72.90625 
L 39.796875 72.90625 
L 67.578125 0 
L 57.328125 0 
L 50.6875 18.703125 
L 17.828125 18.703125 
L 11.1875 0 
L 0.78125 0 
z
" id="DejaVuSans-65"/>
     </defs>
     <g style="fill:#262626;" transform="translate(622.748125 121.772031)scale(0.11 -0.11)">
      <use xlink:href="#DejaVuSans-65"/>
      <use x="71.158203" xlink:href="#DejaVuSans-65"/>
     </g>
    </g>
    <g id="line2d_14">
     <path d="M 591.948125 134.067969 
L 613.948125 134.067969 
" style="fill:none;stroke:#55a868;stroke-linecap:round;stroke-width:1.5;"/>
    </g>
    <g id="line2d_15">
     <g>
      <use style="fill:#55a868;stroke:#55a868;" x="602.948125" xlink:href="#m5413fbf2d2" y="134.067969"/>
     </g>
    </g>
    <g id="text_14">
     <!-- FA -->
     <defs>
      <path d="M 9.8125 72.90625 
L 51.703125 72.90625 
L 51.703125 64.59375 
L 19.671875 64.59375 
L 19.671875 43.109375 
L 48.578125 43.109375 
L 48.578125 34.8125 
L 19.671875 34.8125 
L 19.671875 0 
L 9.8125 0 
z
" id="DejaVuSans-70"/>
     </defs>
     <g style="fill:#262626;" transform="translate(622.748125 137.917969)scale(0.11 -0.11)">
      <use xlink:href="#DejaVuSans-70"/>
      <use x="48.394531" xlink:href="#DejaVuSans-65"/>
     </g>
    </g>
    <g id="line2d_16">
     <path d="M 591.948125 150.213906 
L 613.948125 150.213906 
" style="fill:none;stroke:#c44e52;stroke-linecap:round;stroke-width:1.5;"/>
    </g>
    <g id="line2d_17">
     <g>
      <use style="fill:#c44e52;stroke:#c44e52;" x="602.948125" xlink:href="#maaef3c4c26" y="150.213906"/>
     </g>
    </g>
    <g id="text_15">
     <!-- S -->
     <defs>
      <path d="M 53.515625 70.515625 
L 53.515625 60.890625 
Q 47.90625 63.578125 42.921875 64.890625 
Q 37.9375 66.21875 33.296875 66.21875 
Q 25.25 66.21875 20.875 63.09375 
Q 16.5 59.96875 16.5 54.203125 
Q 16.5 49.359375 19.40625 46.890625 
Q 22.3125 44.4375 30.421875 42.921875 
L 36.375 41.703125 
Q 47.40625 39.59375 52.65625 34.296875 
Q 57.90625 29 57.90625 20.125 
Q 57.90625 9.515625 50.796875 4.046875 
Q 43.703125 -1.421875 29.984375 -1.421875 
Q 24.8125 -1.421875 18.96875 -0.25 
Q 13.140625 0.921875 6.890625 3.21875 
L 6.890625 13.375 
Q 12.890625 10.015625 18.65625 8.296875 
Q 24.421875 6.59375 29.984375 6.59375 
Q 38.421875 6.59375 43.015625 9.90625 
Q 47.609375 13.234375 47.609375 19.390625 
Q 47.609375 24.75 44.3125 27.78125 
Q 41.015625 30.8125 33.5 32.328125 
L 27.484375 33.5 
Q 16.453125 35.6875 11.515625 40.375 
Q 6.59375 45.0625 6.59375 53.421875 
Q 6.59375 63.09375 13.40625 68.65625 
Q 20.21875 74.21875 32.171875 74.21875 
Q 37.3125 74.21875 42.625 73.28125 
Q 47.953125 72.359375 53.515625 70.515625 
z
" id="DejaVuSans-83"/>
     </defs>
     <g style="fill:#262626;" transform="translate(622.748125 154.063906)scale(0.11 -0.11)">
      <use xlink:href="#DejaVuSans-83"/>
     </g>
    </g>
   </g>
  </g>
 </g>
 <defs>
  <clipPath id="p6c3e808373">
   <rect height="543.6" width="558" x="90" y="86.4"/>
  </clipPath>
 </defs>
</svg>
