<?xml version="1.0" encoding="utf-8" standalone="no"?>
<!DOCTYPE svg PUBLIC "-//W3C//DTD SVG 1.1//EN"
  "http://www.w3.org/Graphics/SVG/1.1/DTD/svg11.dtd">
<!-- Created with matplotlib (https://matplotlib.org/) -->
<svg height="720pt" version="1.1" viewBox="0 0 720 720" width="720pt" xmlns="http://www.w3.org/2000/svg" xmlns:xlink="http://www.w3.org/1999/xlink">
 <defs>
  <style type="text/css">
*{stroke-linecap:butt;stroke-linejoin:round;}
  </style>
 </defs>
 <g id="figure_1">
  <g id="patch_1">
   <path d="M 0 720 
L 720 720 
L 720 0 
L 0 0 
z
" style="fill:#ffffff;"/>
  </g>
  <g id="axes_1">
   <g id="patch_2">
    <path d="M 90 630 
L 648 630 
L 648 86.4 
L 90 86.4 
z
" style="fill:#eaeaf2;"/>
   </g>
   <g id="matplotlib.axis_1">
    <g id="xtick_1">
     <g id="line2d_1">
      <path clip-path="url(#pa4899578a7)" d="M 97.871473 630 
L 97.871473 86.4 
" style="fill:none;stroke:#ffffff;stroke-linecap:round;"/>
     </g>
     <g id="text_1">
      <!-- 0 -->
      <defs>
       <path d="M 4.15625 35.296875 
Q 4.15625 48 6.765625 55.734375 
Q 9.375 63.484375 14.515625 67.671875 
Q 19.671875 71.875 27.484375 71.875 
Q 33.25 71.875 37.59375 69.546875 
Q 41.9375 67.234375 44.765625 62.859375 
Q 47.609375 58.5 49.21875 52.21875 
Q 50.828125 45.953125 50.828125 35.296875 
Q 50.828125 22.703125 48.234375 14.96875 
Q 45.65625 7.234375 40.5 3 
Q 35.359375 -1.21875 27.484375 -1.21875 
Q 17.140625 -1.21875 11.234375 6.203125 
Q 4.15625 15.140625 4.15625 35.296875 
z
M 13.1875 35.296875 
Q 13.1875 17.671875 17.3125 11.828125 
Q 21.4375 6 27.484375 6 
Q 33.546875 6 37.671875 11.859375 
Q 41.796875 17.71875 41.796875 35.296875 
Q 41.796875 52.984375 37.671875 58.78125 
Q 33.546875 64.59375 27.390625 64.59375 
Q 21.34375 64.59375 17.71875 59.46875 
Q 13.1875 52.9375 13.1875 35.296875 
z
" id="ArialMT-48"/>
      </defs>
      <g style="fill:#262626;" transform="translate(94.812958 647.373594)scale(0.11 -0.11)">
       <use xlink:href="#ArialMT-48"/>
      </g>
     </g>
    </g>
    <g id="xtick_2">
     <g id="line2d_2">
      <path clip-path="url(#pa4899578a7)" d="M 185.332288 630 
L 185.332288 86.4 
" style="fill:none;stroke:#ffffff;stroke-linecap:round;"/>
     </g>
     <g id="text_2">
      <!-- 5 -->
      <defs>
       <path d="M 4.15625 18.75 
L 13.375 19.53125 
Q 14.40625 12.796875 18.140625 9.390625 
Q 21.875 6 27.15625 6 
Q 33.5 6 37.890625 10.78125 
Q 42.28125 15.578125 42.28125 23.484375 
Q 42.28125 31 38.0625 35.34375 
Q 33.84375 39.703125 27 39.703125 
Q 22.75 39.703125 19.328125 37.765625 
Q 15.921875 35.84375 13.96875 32.765625 
L 5.71875 33.84375 
L 12.640625 70.609375 
L 48.25 70.609375 
L 48.25 62.203125 
L 19.671875 62.203125 
L 15.828125 42.96875 
Q 22.265625 47.46875 29.34375 47.46875 
Q 38.71875 47.46875 45.15625 40.96875 
Q 51.609375 34.46875 51.609375 24.265625 
Q 51.609375 14.546875 45.953125 7.46875 
Q 39.0625 -1.21875 27.15625 -1.21875 
Q 17.390625 -1.21875 11.203125 4.25 
Q 5.03125 9.71875 4.15625 18.75 
z
" id="ArialMT-53"/>
      </defs>
      <g style="fill:#262626;" transform="translate(182.273773 647.373594)scale(0.11 -0.11)">
       <use xlink:href="#ArialMT-53"/>
      </g>
     </g>
    </g>
    <g id="xtick_3">
     <g id="line2d_3">
      <path clip-path="url(#pa4899578a7)" d="M 272.793103 630 
L 272.793103 86.4 
" style="fill:none;stroke:#ffffff;stroke-linecap:round;"/>
     </g>
     <g id="text_3">
      <!-- 10 -->
      <defs>
       <path d="M 37.25 0 
L 28.46875 0 
L 28.46875 56 
Q 25.296875 52.984375 20.140625 49.953125 
Q 14.984375 46.921875 10.890625 45.40625 
L 10.890625 53.90625 
Q 18.265625 57.375 23.78125 62.296875 
Q 29.296875 67.234375 31.59375 71.875 
L 37.25 71.875 
z
" id="ArialMT-49"/>
      </defs>
      <g style="fill:#262626;" transform="translate(266.676072 647.373594)scale(0.11 -0.11)">
       <use xlink:href="#ArialMT-49"/>
       <use x="55.615234" xlink:href="#ArialMT-48"/>
      </g>
     </g>
    </g>
    <g id="xtick_4">
     <g id="line2d_4">
      <path clip-path="url(#pa4899578a7)" d="M 360.253918 630 
L 360.253918 86.4 
" style="fill:none;stroke:#ffffff;stroke-linecap:round;"/>
     </g>
     <g id="text_4">
      <!-- 15 -->
      <g style="fill:#262626;" transform="translate(354.136887 647.373594)scale(0.11 -0.11)">
       <use xlink:href="#ArialMT-49"/>
       <use x="55.615234" xlink:href="#ArialMT-53"/>
      </g>
     </g>
    </g>
    <g id="xtick_5">
     <g id="line2d_5">
      <path clip-path="url(#pa4899578a7)" d="M 447.714734 630 
L 447.714734 86.4 
" style="fill:none;stroke:#ffffff;stroke-linecap:round;"/>
     </g>
     <g id="text_5">
      <!-- 20 -->
      <defs>
       <path d="M 50.34375 8.453125 
L 50.34375 0 
L 3.03125 0 
Q 2.9375 3.171875 4.046875 6.109375 
Q 5.859375 10.9375 9.828125 15.625 
Q 13.8125 20.3125 21.34375 26.46875 
Q 33.015625 36.03125 37.109375 41.625 
Q 41.21875 47.21875 41.21875 52.203125 
Q 41.21875 57.421875 37.46875 61 
Q 33.734375 64.59375 27.734375 64.59375 
Q 21.390625 64.59375 17.578125 60.78125 
Q 13.765625 56.984375 13.71875 50.25 
L 4.6875 51.171875 
Q 5.609375 61.28125 11.65625 66.578125 
Q 17.71875 71.875 27.9375 71.875 
Q 38.234375 71.875 44.234375 66.15625 
Q 50.25 60.453125 50.25 52 
Q 50.25 47.703125 48.484375 43.546875 
Q 46.734375 39.40625 42.65625 34.8125 
Q 38.578125 30.21875 29.109375 22.21875 
Q 21.1875 15.578125 18.9375 13.203125 
Q 16.703125 10.84375 15.234375 8.453125 
z
" id="ArialMT-50"/>
      </defs>
      <g style="fill:#262626;" transform="translate(441.597702 647.373594)scale(0.11 -0.11)">
       <use xlink:href="#ArialMT-50"/>
       <use x="55.615234" xlink:href="#ArialMT-48"/>
      </g>
     </g>
    </g>
    <g id="xtick_6">
     <g id="line2d_6">
      <path clip-path="url(#pa4899578a7)" d="M 535.175549 630 
L 535.175549 86.4 
" style="fill:none;stroke:#ffffff;stroke-linecap:round;"/>
     </g>
     <g id="text_6">
      <!-- 25 -->
      <g style="fill:#262626;" transform="translate(529.058517 647.373594)scale(0.11 -0.11)">
       <use xlink:href="#ArialMT-50"/>
       <use x="55.615234" xlink:href="#ArialMT-53"/>
      </g>
     </g>
    </g>
    <g id="xtick_7">
     <g id="line2d_7">
      <path clip-path="url(#pa4899578a7)" d="M 622.636364 630 
L 622.636364 86.4 
" style="fill:none;stroke:#ffffff;stroke-linecap:round;"/>
     </g>
     <g id="text_7">
      <!-- 30 -->
      <defs>
       <path d="M 4.203125 18.890625 
L 12.984375 20.0625 
Q 14.5 12.59375 18.140625 9.296875 
Q 21.78125 6 27 6 
Q 33.203125 6 37.46875 10.296875 
Q 41.75 14.59375 41.75 20.953125 
Q 41.75 27 37.796875 30.921875 
Q 33.84375 34.859375 27.734375 34.859375 
Q 25.25 34.859375 21.53125 33.890625 
L 22.515625 41.609375 
Q 23.390625 41.5 23.921875 41.5 
Q 29.546875 41.5 34.03125 44.421875 
Q 38.53125 47.359375 38.53125 53.46875 
Q 38.53125 58.296875 35.25 61.46875 
Q 31.984375 64.65625 26.8125 64.65625 
Q 21.6875 64.65625 18.265625 61.421875 
Q 14.84375 58.203125 13.875 51.765625 
L 5.078125 53.328125 
Q 6.6875 62.15625 12.390625 67.015625 
Q 18.109375 71.875 26.609375 71.875 
Q 32.46875 71.875 37.390625 69.359375 
Q 42.328125 66.84375 44.9375 62.5 
Q 47.5625 58.15625 47.5625 53.265625 
Q 47.5625 48.640625 45.0625 44.828125 
Q 42.578125 41.015625 37.703125 38.765625 
Q 44.046875 37.3125 47.5625 32.6875 
Q 51.078125 28.078125 51.078125 21.140625 
Q 51.078125 11.765625 44.234375 5.25 
Q 37.40625 -1.265625 26.953125 -1.265625 
Q 17.53125 -1.265625 11.296875 4.34375 
Q 5.078125 9.96875 4.203125 18.890625 
z
" id="ArialMT-51"/>
      </defs>
      <g style="fill:#262626;" transform="translate(616.519332 647.373594)scale(0.11 -0.11)">
       <use xlink:href="#ArialMT-51"/>
       <use x="55.615234" xlink:href="#ArialMT-48"/>
      </g>
     </g>
    </g>
   </g>
   <g id="matplotlib.axis_2">
    <g id="ytick_1">
     <g id="line2d_8">
      <path clip-path="url(#pa4899578a7)" d="M 90 594.174345 
L 648 594.174345 
" style="fill:none;stroke:#ffffff;stroke-linecap:round;"/>
     </g>
     <g id="text_8">
      <!-- 0.55 -->
      <defs>
       <path d="M 9.078125 0 
L 9.078125 10.015625 
L 19.09375 10.015625 
L 19.09375 0 
z
" id="ArialMT-46"/>
      </defs>
      <g style="fill:#262626;" transform="translate(59.092969 598.111142)scale(0.11 -0.11)">
       <use xlink:href="#ArialMT-48"/>
       <use x="55.615234" xlink:href="#ArialMT-46"/>
       <use x="83.398438" xlink:href="#ArialMT-53"/>
       <use x="139.013672" xlink:href="#ArialMT-53"/>
      </g>
     </g>
    </g>
    <g id="ytick_2">
     <g id="line2d_9">
      <path clip-path="url(#pa4899578a7)" d="M 90 525.79063 
L 648 525.79063 
" style="fill:none;stroke:#ffffff;stroke-linecap:round;"/>
     </g>
     <g id="text_9">
      <!-- 0.60 -->
      <defs>
       <path d="M 49.75 54.046875 
L 41.015625 53.375 
Q 39.84375 58.546875 37.703125 60.890625 
Q 34.125 64.65625 28.90625 64.65625 
Q 24.703125 64.65625 21.53125 62.3125 
Q 17.390625 59.28125 14.984375 53.46875 
Q 12.59375 47.65625 12.5 36.921875 
Q 15.671875 41.75 20.265625 44.09375 
Q 24.859375 46.4375 29.890625 46.4375 
Q 38.671875 46.4375 44.84375 39.96875 
Q 51.03125 33.5 51.03125 23.25 
Q 51.03125 16.5 48.125 10.71875 
Q 45.21875 4.9375 40.140625 1.859375 
Q 35.0625 -1.21875 28.609375 -1.21875 
Q 17.625 -1.21875 10.6875 6.859375 
Q 3.765625 14.9375 3.765625 33.5 
Q 3.765625 54.25 11.421875 63.671875 
Q 18.109375 71.875 29.4375 71.875 
Q 37.890625 71.875 43.28125 67.140625 
Q 48.6875 62.40625 49.75 54.046875 
z
M 13.875 23.1875 
Q 13.875 18.65625 15.796875 14.5 
Q 17.71875 10.359375 21.1875 8.171875 
Q 24.65625 6 28.46875 6 
Q 34.03125 6 38.03125 10.484375 
Q 42.046875 14.984375 42.046875 22.703125 
Q 42.046875 30.125 38.078125 34.390625 
Q 34.125 38.671875 28.125 38.671875 
Q 22.171875 38.671875 18.015625 34.390625 
Q 13.875 30.125 13.875 23.1875 
z
" id="ArialMT-54"/>
      </defs>
      <g style="fill:#262626;" transform="translate(59.092969 529.727427)scale(0.11 -0.11)">
       <use xlink:href="#ArialMT-48"/>
       <use x="55.615234" xlink:href="#ArialMT-46"/>
       <use x="83.398438" xlink:href="#ArialMT-54"/>
       <use x="139.013672" xlink:href="#ArialMT-48"/>
      </g>
     </g>
    </g>
    <g id="ytick_3">
     <g id="line2d_10">
      <path clip-path="url(#pa4899578a7)" d="M 90 457.406916 
L 648 457.406916 
" style="fill:none;stroke:#ffffff;stroke-linecap:round;"/>
     </g>
     <g id="text_10">
      <!-- 0.65 -->
      <g style="fill:#262626;" transform="translate(59.092969 461.343713)scale(0.11 -0.11)">
       <use xlink:href="#ArialMT-48"/>
       <use x="55.615234" xlink:href="#ArialMT-46"/>
       <use x="83.398438" xlink:href="#ArialMT-54"/>
       <use x="139.013672" xlink:href="#ArialMT-53"/>
      </g>
     </g>
    </g>
    <g id="ytick_4">
     <g id="line2d_11">
      <path clip-path="url(#pa4899578a7)" d="M 90 389.023201 
L 648 389.023201 
" style="fill:none;stroke:#ffffff;stroke-linecap:round;"/>
     </g>
     <g id="text_11">
      <!-- 0.70 -->
      <defs>
       <path d="M 4.734375 62.203125 
L 4.734375 70.65625 
L 51.078125 70.65625 
L 51.078125 63.8125 
Q 44.234375 56.546875 37.515625 44.484375 
Q 30.8125 32.421875 27.15625 19.671875 
Q 24.515625 10.6875 23.78125 0 
L 14.75 0 
Q 14.890625 8.453125 18.0625 20.40625 
Q 21.234375 32.375 27.171875 43.484375 
Q 33.109375 54.59375 39.796875 62.203125 
z
" id="ArialMT-55"/>
      </defs>
      <g style="fill:#262626;" transform="translate(59.092969 392.959998)scale(0.11 -0.11)">
       <use xlink:href="#ArialMT-48"/>
       <use x="55.615234" xlink:href="#ArialMT-46"/>
       <use x="83.398438" xlink:href="#ArialMT-55"/>
       <use x="139.013672" xlink:href="#ArialMT-48"/>
      </g>
     </g>
    </g>
    <g id="ytick_5">
     <g id="line2d_12">
      <path clip-path="url(#pa4899578a7)" d="M 90 320.639487 
L 648 320.639487 
" style="fill:none;stroke:#ffffff;stroke-linecap:round;"/>
     </g>
     <g id="text_12">
      <!-- 0.75 -->
      <g style="fill:#262626;" transform="translate(59.092969 324.576284)scale(0.11 -0.11)">
       <use xlink:href="#ArialMT-48"/>
       <use x="55.615234" xlink:href="#ArialMT-46"/>
       <use x="83.398438" xlink:href="#ArialMT-55"/>
       <use x="139.013672" xlink:href="#ArialMT-53"/>
      </g>
     </g>
    </g>
    <g id="ytick_6">
     <g id="line2d_13">
      <path clip-path="url(#pa4899578a7)" d="M 90 252.255772 
L 648 252.255772 
" style="fill:none;stroke:#ffffff;stroke-linecap:round;"/>
     </g>
     <g id="text_13">
      <!-- 0.80 -->
      <defs>
       <path d="M 17.671875 38.8125 
Q 12.203125 40.828125 9.5625 44.53125 
Q 6.9375 48.25 6.9375 53.421875 
Q 6.9375 61.234375 12.546875 66.546875 
Q 18.171875 71.875 27.484375 71.875 
Q 36.859375 71.875 42.578125 66.421875 
Q 48.296875 60.984375 48.296875 53.171875 
Q 48.296875 48.1875 45.671875 44.5 
Q 43.0625 40.828125 37.75 38.8125 
Q 44.34375 36.671875 47.78125 31.875 
Q 51.21875 27.09375 51.21875 20.453125 
Q 51.21875 11.28125 44.71875 5.03125 
Q 38.234375 -1.21875 27.640625 -1.21875 
Q 17.046875 -1.21875 10.546875 5.046875 
Q 4.046875 11.328125 4.046875 20.703125 
Q 4.046875 27.6875 7.59375 32.390625 
Q 11.140625 37.109375 17.671875 38.8125 
z
M 15.921875 53.71875 
Q 15.921875 48.640625 19.1875 45.40625 
Q 22.46875 42.1875 27.6875 42.1875 
Q 32.765625 42.1875 36.015625 45.375 
Q 39.265625 48.578125 39.265625 53.21875 
Q 39.265625 58.0625 35.90625 61.359375 
Q 32.5625 64.65625 27.59375 64.65625 
Q 22.5625 64.65625 19.234375 61.421875 
Q 15.921875 58.203125 15.921875 53.71875 
z
M 13.09375 20.65625 
Q 13.09375 16.890625 14.875 13.375 
Q 16.65625 9.859375 20.171875 7.921875 
Q 23.6875 6 27.734375 6 
Q 34.03125 6 38.125 10.046875 
Q 42.234375 14.109375 42.234375 20.359375 
Q 42.234375 26.703125 38.015625 30.859375 
Q 33.796875 35.015625 27.4375 35.015625 
Q 21.234375 35.015625 17.15625 30.90625 
Q 13.09375 26.8125 13.09375 20.65625 
z
" id="ArialMT-56"/>
      </defs>
      <g style="fill:#262626;" transform="translate(59.092969 256.192569)scale(0.11 -0.11)">
       <use xlink:href="#ArialMT-48"/>
       <use x="55.615234" xlink:href="#ArialMT-46"/>
       <use x="83.398438" xlink:href="#ArialMT-56"/>
       <use x="139.013672" xlink:href="#ArialMT-48"/>
      </g>
     </g>
    </g>
    <g id="ytick_7">
     <g id="line2d_14">
      <path clip-path="url(#pa4899578a7)" d="M 90 183.872058 
L 648 183.872058 
" style="fill:none;stroke:#ffffff;stroke-linecap:round;"/>
     </g>
     <g id="text_14">
      <!-- 0.85 -->
      <g style="fill:#262626;" transform="translate(59.092969 187.808855)scale(0.11 -0.11)">
       <use xlink:href="#ArialMT-48"/>
       <use x="55.615234" xlink:href="#ArialMT-46"/>
       <use x="83.398438" xlink:href="#ArialMT-56"/>
       <use x="139.013672" xlink:href="#ArialMT-53"/>
      </g>
     </g>
    </g>
    <g id="ytick_8">
     <g id="line2d_15">
      <path clip-path="url(#pa4899578a7)" d="M 90 115.488344 
L 648 115.488344 
" style="fill:none;stroke:#ffffff;stroke-linecap:round;"/>
     </g>
     <g id="text_15">
      <!-- 0.90 -->
      <defs>
       <path d="M 5.46875 16.546875 
L 13.921875 17.328125 
Q 14.984375 11.375 18.015625 8.6875 
Q 21.046875 6 25.78125 6 
Q 29.828125 6 32.875 7.859375 
Q 35.9375 9.71875 37.890625 12.8125 
Q 39.84375 15.921875 41.15625 21.1875 
Q 42.484375 26.46875 42.484375 31.9375 
Q 42.484375 32.515625 42.4375 33.6875 
Q 39.796875 29.5 35.234375 26.875 
Q 30.671875 24.265625 25.34375 24.265625 
Q 16.453125 24.265625 10.296875 30.703125 
Q 4.15625 37.15625 4.15625 47.703125 
Q 4.15625 58.59375 10.578125 65.234375 
Q 17 71.875 26.65625 71.875 
Q 33.640625 71.875 39.421875 68.109375 
Q 45.21875 64.359375 48.21875 57.390625 
Q 51.21875 50.4375 51.21875 37.25 
Q 51.21875 23.53125 48.234375 15.40625 
Q 45.265625 7.28125 39.375 3.03125 
Q 33.5 -1.21875 25.59375 -1.21875 
Q 17.1875 -1.21875 11.859375 3.4375 
Q 6.546875 8.109375 5.46875 16.546875 
z
M 41.453125 48.140625 
Q 41.453125 55.71875 37.421875 60.15625 
Q 33.40625 64.59375 27.734375 64.59375 
Q 21.875 64.59375 17.53125 59.8125 
Q 13.1875 55.03125 13.1875 47.40625 
Q 13.1875 40.578125 17.3125 36.296875 
Q 21.4375 32.03125 27.484375 32.03125 
Q 33.59375 32.03125 37.515625 36.296875 
Q 41.453125 40.578125 41.453125 48.140625 
z
" id="ArialMT-57"/>
      </defs>
      <g style="fill:#262626;" transform="translate(59.092969 119.42514)scale(0.11 -0.11)">
       <use xlink:href="#ArialMT-48"/>
       <use x="55.615234" xlink:href="#ArialMT-46"/>
       <use x="83.398438" xlink:href="#ArialMT-57"/>
       <use x="139.013672" xlink:href="#ArialMT-48"/>
      </g>
     </g>
    </g>
    <g id="text_16">
     <!-- Average_accuracy -->
     <defs>
      <path d="M -0.140625 0 
L 27.34375 71.578125 
L 37.546875 71.578125 
L 66.84375 0 
L 56.0625 0 
L 47.703125 21.6875 
L 17.78125 21.6875 
L 9.90625 0 
z
M 20.515625 29.390625 
L 44.78125 29.390625 
L 37.3125 49.21875 
Q 33.890625 58.25 32.234375 64.0625 
Q 30.859375 57.171875 28.375 50.390625 
z
" id="ArialMT-65"/>
      <path d="M 21 0 
L 1.265625 51.859375 
L 10.546875 51.859375 
L 21.6875 20.796875 
Q 23.484375 15.765625 25 10.359375 
Q 26.171875 14.453125 28.265625 20.21875 
L 39.796875 51.859375 
L 48.828125 51.859375 
L 29.203125 0 
z
" id="ArialMT-118"/>
      <path d="M 42.09375 16.703125 
L 51.171875 15.578125 
Q 49.03125 7.625 43.21875 3.21875 
Q 37.40625 -1.171875 28.375 -1.171875 
Q 17 -1.171875 10.328125 5.828125 
Q 3.65625 12.84375 3.65625 25.484375 
Q 3.65625 38.578125 10.390625 45.796875 
Q 17.140625 53.03125 27.875 53.03125 
Q 38.28125 53.03125 44.875 45.953125 
Q 51.46875 38.875 51.46875 26.03125 
Q 51.46875 25.25 51.421875 23.6875 
L 12.75 23.6875 
Q 13.234375 15.140625 17.578125 10.59375 
Q 21.921875 6.0625 28.421875 6.0625 
Q 33.25 6.0625 36.671875 8.59375 
Q 40.09375 11.140625 42.09375 16.703125 
z
M 13.234375 30.90625 
L 42.1875 30.90625 
Q 41.609375 37.453125 38.875 40.71875 
Q 34.671875 45.796875 27.984375 45.796875 
Q 21.921875 45.796875 17.796875 41.75 
Q 13.671875 37.703125 13.234375 30.90625 
z
" id="ArialMT-101"/>
      <path d="M 6.5 0 
L 6.5 51.859375 
L 14.40625 51.859375 
L 14.40625 44 
Q 17.4375 49.515625 20 51.265625 
Q 22.5625 53.03125 25.640625 53.03125 
Q 30.078125 53.03125 34.671875 50.203125 
L 31.640625 42.046875 
Q 28.421875 43.953125 25.203125 43.953125 
Q 22.3125 43.953125 20.015625 42.21875 
Q 17.71875 40.484375 16.75 37.40625 
Q 15.28125 32.71875 15.28125 27.15625 
L 15.28125 0 
z
" id="ArialMT-114"/>
      <path d="M 40.4375 6.390625 
Q 35.546875 2.25 31.03125 0.53125 
Q 26.515625 -1.171875 21.34375 -1.171875 
Q 12.796875 -1.171875 8.203125 3 
Q 3.609375 7.171875 3.609375 13.671875 
Q 3.609375 17.484375 5.34375 20.625 
Q 7.078125 23.78125 9.890625 25.6875 
Q 12.703125 27.59375 16.21875 28.5625 
Q 18.796875 29.25 24.03125 29.890625 
Q 34.671875 31.15625 39.703125 32.90625 
Q 39.75 34.71875 39.75 35.203125 
Q 39.75 40.578125 37.25 42.78125 
Q 33.890625 45.75 27.25 45.75 
Q 21.046875 45.75 18.09375 43.578125 
Q 15.140625 41.40625 13.71875 35.890625 
L 5.125 37.0625 
Q 6.296875 42.578125 8.984375 45.96875 
Q 11.671875 49.359375 16.75 51.1875 
Q 21.828125 53.03125 28.515625 53.03125 
Q 35.15625 53.03125 39.296875 51.46875 
Q 43.453125 49.90625 45.40625 47.53125 
Q 47.359375 45.171875 48.140625 41.546875 
Q 48.578125 39.3125 48.578125 33.453125 
L 48.578125 21.734375 
Q 48.578125 9.46875 49.140625 6.21875 
Q 49.703125 2.984375 51.375 0 
L 42.1875 0 
Q 40.828125 2.734375 40.4375 6.390625 
z
M 39.703125 26.03125 
Q 34.90625 24.078125 25.34375 22.703125 
Q 19.921875 21.921875 17.671875 20.9375 
Q 15.4375 19.96875 14.203125 18.09375 
Q 12.984375 16.21875 12.984375 13.921875 
Q 12.984375 10.40625 15.640625 8.0625 
Q 18.3125 5.71875 23.4375 5.71875 
Q 28.515625 5.71875 32.46875 7.9375 
Q 36.421875 10.15625 38.28125 14.015625 
Q 39.703125 17 39.703125 22.796875 
z
" id="ArialMT-97"/>
      <path d="M 4.984375 -4.296875 
L 13.53125 -5.5625 
Q 14.0625 -9.515625 16.5 -11.328125 
Q 19.78125 -13.765625 25.4375 -13.765625 
Q 31.546875 -13.765625 34.859375 -11.328125 
Q 38.1875 -8.890625 39.359375 -4.5 
Q 40.046875 -1.8125 39.984375 6.78125 
Q 34.234375 0 25.640625 0 
Q 14.9375 0 9.078125 7.71875 
Q 3.21875 15.4375 3.21875 26.21875 
Q 3.21875 33.640625 5.90625 39.90625 
Q 8.59375 46.1875 13.6875 49.609375 
Q 18.796875 53.03125 25.6875 53.03125 
Q 34.859375 53.03125 40.828125 45.609375 
L 40.828125 51.859375 
L 48.921875 51.859375 
L 48.921875 7.03125 
Q 48.921875 -5.078125 46.453125 -10.125 
Q 44 -15.1875 38.640625 -18.109375 
Q 33.296875 -21.046875 25.484375 -21.046875 
Q 16.21875 -21.046875 10.5 -16.875 
Q 4.78125 -12.703125 4.984375 -4.296875 
z
M 12.25 26.859375 
Q 12.25 16.65625 16.296875 11.96875 
Q 20.359375 7.28125 26.46875 7.28125 
Q 32.515625 7.28125 36.609375 11.9375 
Q 40.71875 16.609375 40.71875 26.5625 
Q 40.71875 36.078125 36.5 40.90625 
Q 32.28125 45.75 26.3125 45.75 
Q 20.453125 45.75 16.34375 40.984375 
Q 12.25 36.234375 12.25 26.859375 
z
" id="ArialMT-103"/>
      <path d="M -1.515625 -19.875 
L -1.515625 -13.53125 
L 56.734375 -13.53125 
L 56.734375 -19.875 
z
" id="ArialMT-95"/>
      <path d="M 40.4375 19 
L 49.078125 17.875 
Q 47.65625 8.9375 41.8125 3.875 
Q 35.984375 -1.171875 27.484375 -1.171875 
Q 16.84375 -1.171875 10.375 5.78125 
Q 3.90625 12.75 3.90625 25.734375 
Q 3.90625 34.125 6.6875 40.421875 
Q 9.46875 46.734375 15.15625 49.875 
Q 20.84375 53.03125 27.546875 53.03125 
Q 35.984375 53.03125 41.359375 48.75 
Q 46.734375 44.484375 48.25 36.625 
L 39.703125 35.296875 
Q 38.484375 40.53125 35.375 43.15625 
Q 32.28125 45.796875 27.875 45.796875 
Q 21.234375 45.796875 17.078125 41.03125 
Q 12.9375 36.28125 12.9375 25.984375 
Q 12.9375 15.53125 16.9375 10.796875 
Q 20.953125 6.0625 27.390625 6.0625 
Q 32.5625 6.0625 36.03125 9.234375 
Q 39.5 12.40625 40.4375 19 
z
" id="ArialMT-99"/>
      <path d="M 40.578125 0 
L 40.578125 7.625 
Q 34.515625 -1.171875 24.125 -1.171875 
Q 19.53125 -1.171875 15.546875 0.578125 
Q 11.578125 2.34375 9.640625 5 
Q 7.71875 7.671875 6.9375 11.53125 
Q 6.390625 14.109375 6.390625 19.734375 
L 6.390625 51.859375 
L 15.1875 51.859375 
L 15.1875 23.09375 
Q 15.1875 16.21875 15.71875 13.8125 
Q 16.546875 10.359375 19.234375 8.375 
Q 21.921875 6.390625 25.875 6.390625 
Q 29.828125 6.390625 33.296875 8.421875 
Q 36.765625 10.453125 38.203125 13.9375 
Q 39.65625 17.4375 39.65625 24.078125 
L 39.65625 51.859375 
L 48.4375 51.859375 
L 48.4375 0 
z
" id="ArialMT-117"/>
      <path d="M 6.203125 -19.96875 
L 5.21875 -11.71875 
Q 8.109375 -12.5 10.25 -12.5 
Q 13.1875 -12.5 14.9375 -11.515625 
Q 16.703125 -10.546875 17.828125 -8.796875 
Q 18.65625 -7.46875 20.515625 -2.25 
Q 20.75 -1.515625 21.296875 -0.09375 
L 1.609375 51.859375 
L 11.078125 51.859375 
L 21.875 21.828125 
Q 23.96875 16.109375 25.640625 9.8125 
Q 27.15625 15.875 29.25 21.625 
L 40.328125 51.859375 
L 49.125 51.859375 
L 29.390625 -0.875 
Q 26.21875 -9.421875 24.46875 -12.640625 
Q 22.125 -17 19.09375 -19.015625 
Q 16.0625 -21.046875 11.859375 -21.046875 
Q 9.328125 -21.046875 6.203125 -19.96875 
z
" id="ArialMT-121"/>
     </defs>
     <g style="fill:#262626;" transform="translate(52.567344 407.785312)rotate(-90)scale(0.12 -0.12)">
      <use xlink:href="#ArialMT-65"/>
      <use x="64.949219" xlink:href="#ArialMT-118"/>
      <use x="114.949219" xlink:href="#ArialMT-101"/>
      <use x="170.564453" xlink:href="#ArialMT-114"/>
      <use x="203.865234" xlink:href="#ArialMT-97"/>
      <use x="259.480469" xlink:href="#ArialMT-103"/>
      <use x="315.095703" xlink:href="#ArialMT-101"/>
      <use x="370.710938" xlink:href="#ArialMT-95"/>
      <use x="426.326172" xlink:href="#ArialMT-97"/>
      <use x="481.941406" xlink:href="#ArialMT-99"/>
      <use x="531.941406" xlink:href="#ArialMT-99"/>
      <use x="581.941406" xlink:href="#ArialMT-117"/>
      <use x="637.556641" xlink:href="#ArialMT-114"/>
      <use x="670.857422" xlink:href="#ArialMT-97"/>
      <use x="726.472656" xlink:href="#ArialMT-99"/>
      <use x="776.472656" xlink:href="#ArialMT-121"/>
     </g>
    </g>
   </g>
   <g id="PathCollection_1">
    <defs>
     <path d="M 0 3 
C 0.795609 3 1.55874 2.683901 2.12132 2.12132 
C 2.683901 1.55874 3 0.795609 3 0 
C 3 -0.795609 2.683901 -1.55874 2.12132 -2.12132 
C 1.55874 -2.683901 0.795609 -3 0 -3 
C -0.795609 -3 -1.55874 -2.683901 -2.12132 -2.12132 
C -2.683901 -1.55874 -3 -0.795609 -3 0 
C -3 0.795609 -2.683901 1.55874 -2.12132 2.12132 
C -1.55874 2.683901 -0.795609 3 0 3 
z
" id="m3d992657f7" style="stroke:#ffffff;stroke-width:0.75;"/>
    </defs>
    <g clip-path="url(#pa4899578a7)">
     <use style="fill:#4c72b0;stroke:#ffffff;stroke-width:0.75;" x="115.363636" xlink:href="#m3d992657f7" y="605.290909"/>
     <use style="fill:#4c72b0;stroke:#ffffff;stroke-width:0.75;" x="115.363636" xlink:href="#m3d992657f7" y="539.265254"/>
     <use style="fill:#4c72b0;stroke:#ffffff;stroke-width:0.75;" x="115.363636" xlink:href="#m3d992657f7" y="577.667931"/>
     <use style="fill:#4c72b0;stroke:#ffffff;stroke-width:0.75;" x="115.363636" xlink:href="#m3d992657f7" y="595.858673"/>
     <use style="fill:#4c72b0;stroke:#ffffff;stroke-width:0.75;" x="115.363636" xlink:href="#m3d992657f7" y="501.873173"/>
     <use style="fill:#4c72b0;stroke:#ffffff;stroke-width:0.75;" x="115.363636" xlink:href="#m3d992657f7" y="577.331065"/>
     <use style="fill:#4c72b0;stroke:#ffffff;stroke-width:0.75;" x="115.363636" xlink:href="#m3d992657f7" y="481.324373"/>
     <use style="fill:#4c72b0;stroke:#ffffff;stroke-width:0.75;" x="115.363636" xlink:href="#m3d992657f7" y="548.023759"/>
     <use style="fill:#4c72b0;stroke:#ffffff;stroke-width:0.75;" x="115.363636" xlink:href="#m3d992657f7" y="529.833017"/>
     <use style="fill:#4c72b0;stroke:#ffffff;stroke-width:0.75;" x="115.363636" xlink:href="#m3d992657f7" y="567.898829"/>
     <use style="fill:#4c72b0;stroke:#ffffff;stroke-width:0.75;" x="115.363636" xlink:href="#m3d992657f7" y="566.888232"/>
     <use style="fill:#4c72b0;stroke:#ffffff;stroke-width:0.75;" x="115.363636" xlink:href="#m3d992657f7" y="576.9942"/>
     <use style="fill:#4c72b0;stroke:#ffffff;stroke-width:0.75;" x="115.363636" xlink:href="#m3d992657f7" y="585.078974"/>
     <use style="fill:#4c72b0;stroke:#ffffff;stroke-width:0.75;" x="115.363636" xlink:href="#m3d992657f7" y="556.782264"/>
     <use style="fill:#4c72b0;stroke:#ffffff;stroke-width:0.75;" x="115.363636" xlink:href="#m3d992657f7" y="537.580926"/>
     <use style="fill:#4c72b0;stroke:#ffffff;stroke-width:0.75;" x="132.855799" xlink:href="#m3d992657f7" y="453.701394"/>
     <use style="fill:#4c72b0;stroke:#ffffff;stroke-width:0.75;" x="132.855799" xlink:href="#m3d992657f7" y="519.72705"/>
     <use style="fill:#4c72b0;stroke:#ffffff;stroke-width:0.75;" x="132.855799" xlink:href="#m3d992657f7" y="586.763302"/>
     <use style="fill:#4c72b0;stroke:#ffffff;stroke-width:0.75;" x="132.855799" xlink:href="#m3d992657f7" y="473.239598"/>
     <use style="fill:#4c72b0;stroke:#ffffff;stroke-width:0.75;" x="132.855799" xlink:href="#m3d992657f7" y="594.848076"/>
     <use style="fill:#4c72b0;stroke:#ffffff;stroke-width:0.75;" x="132.855799" xlink:href="#m3d992657f7" y="463.133631"/>
     <use style="fill:#4c72b0;stroke:#ffffff;stroke-width:0.75;" x="132.855799" xlink:href="#m3d992657f7" y="510.294813"/>
     <use style="fill:#4c72b0;stroke:#ffffff;stroke-width:0.75;" x="132.855799" xlink:href="#m3d992657f7" y="576.657334"/>
     <use style="fill:#4c72b0;stroke:#ffffff;stroke-width:0.75;" x="132.855799" xlink:href="#m3d992657f7" y="454.375125"/>
     <use style="fill:#4c72b0;stroke:#ffffff;stroke-width:0.75;" x="132.855799" xlink:href="#m3d992657f7" y="492.440937"/>
     <use style="fill:#4c72b0;stroke:#ffffff;stroke-width:0.75;" x="132.855799" xlink:href="#m3d992657f7" y="463.470496"/>
     <use style="fill:#4c72b0;stroke:#ffffff;stroke-width:0.75;" x="132.855799" xlink:href="#m3d992657f7" y="424.730954"/>
     <use style="fill:#4c72b0;stroke:#ffffff;stroke-width:0.75;" x="132.855799" xlink:href="#m3d992657f7" y="547.013162"/>
     <use style="fill:#4c72b0;stroke:#ffffff;stroke-width:0.75;" x="132.855799" xlink:href="#m3d992657f7" y="462.796765"/>
     <use style="fill:#4c72b0;stroke:#ffffff;stroke-width:0.75;" x="132.855799" xlink:href="#m3d992657f7" y="444.606023"/>
     <use style="fill:#4c72b0;stroke:#ffffff;stroke-width:0.75;" x="150.347962" xlink:href="#m3d992657f7" y="405.866481"/>
     <use style="fill:#4c72b0;stroke:#ffffff;stroke-width:0.75;" x="150.347962" xlink:href="#m3d992657f7" y="397.107975"/>
     <use style="fill:#4c72b0;stroke:#ffffff;stroke-width:0.75;" x="150.347962" xlink:href="#m3d992657f7" y="577.667931"/>
     <use style="fill:#4c72b0;stroke:#ffffff;stroke-width:0.75;" x="150.347962" xlink:href="#m3d992657f7" y="425.067819"/>
     <use style="fill:#4c72b0;stroke:#ffffff;stroke-width:0.75;" x="150.347962" xlink:href="#m3d992657f7" y="338.493363"/>
     <use style="fill:#4c72b0;stroke:#ffffff;stroke-width:0.75;" x="150.347962" xlink:href="#m3d992657f7" y="396.434244"/>
     <use style="fill:#4c72b0;stroke:#ffffff;stroke-width:0.75;" x="150.347962" xlink:href="#m3d992657f7" y="413.951255"/>
     <use style="fill:#4c72b0;stroke:#ffffff;stroke-width:0.75;" x="150.347962" xlink:href="#m3d992657f7" y="548.360625"/>
     <use style="fill:#4c72b0;stroke:#ffffff;stroke-width:0.75;" x="150.347962" xlink:href="#m3d992657f7" y="405.19275"/>
     <use style="fill:#4c72b0;stroke:#ffffff;stroke-width:0.75;" x="150.347962" xlink:href="#m3d992657f7" y="397.107975"/>
     <use style="fill:#4c72b0;stroke:#ffffff;stroke-width:0.75;" x="150.347962" xlink:href="#m3d992657f7" y="435.173787"/>
     <use style="fill:#4c72b0;stroke:#ffffff;stroke-width:0.75;" x="150.347962" xlink:href="#m3d992657f7" y="415.972448"/>
     <use style="fill:#4c72b0;stroke:#ffffff;stroke-width:0.75;" x="150.347962" xlink:href="#m3d992657f7" y="576.9942"/>
     <use style="fill:#4c72b0;stroke:#ffffff;stroke-width:0.75;" x="150.347962" xlink:href="#m3d992657f7" y="415.635583"/>
     <use style="fill:#4c72b0;stroke:#ffffff;stroke-width:0.75;" x="150.347962" xlink:href="#m3d992657f7" y="368.4744"/>
     <use style="fill:#4c72b0;stroke:#ffffff;stroke-width:0.75;" x="185.332288" xlink:href="#m3d992657f7" y="377.232906"/>
     <use style="fill:#4c72b0;stroke:#ffffff;stroke-width:0.75;" x="185.332288" xlink:href="#m3d992657f7" y="349.609927"/>
     <use style="fill:#4c72b0;stroke:#ffffff;stroke-width:0.75;" x="185.332288" xlink:href="#m3d992657f7" y="425.404685"/>
     <use style="fill:#4c72b0;stroke:#ffffff;stroke-width:0.75;" x="185.332288" xlink:href="#m3d992657f7" y="368.137535"/>
     <use style="fill:#4c72b0;stroke:#ffffff;stroke-width:0.75;" x="185.332288" xlink:href="#m3d992657f7" y="281.563079"/>
     <use style="fill:#4c72b0;stroke:#ffffff;stroke-width:0.75;" x="185.332288" xlink:href="#m3d992657f7" y="301.438148"/>
     <use style="fill:#4c72b0;stroke:#ffffff;stroke-width:0.75;" x="185.332288" xlink:href="#m3d992657f7" y="301.775014"/>
     <use style="fill:#4c72b0;stroke:#ffffff;stroke-width:0.75;" x="185.332288" xlink:href="#m3d992657f7" y="416.309314"/>
     <use style="fill:#4c72b0;stroke:#ffffff;stroke-width:0.75;" x="185.332288" xlink:href="#m3d992657f7" y="368.4744"/>
     <use style="fill:#4c72b0;stroke:#ffffff;stroke-width:0.75;" x="185.332288" xlink:href="#m3d992657f7" y="378.243503"/>
     <use style="fill:#4c72b0;stroke:#ffffff;stroke-width:0.75;" x="185.332288" xlink:href="#m3d992657f7" y="359.042164"/>
     <use style="fill:#4c72b0;stroke:#ffffff;stroke-width:0.75;" x="185.332288" xlink:href="#m3d992657f7" y="339.840825"/>
     <use style="fill:#4c72b0;stroke:#ffffff;stroke-width:0.75;" x="185.332288" xlink:href="#m3d992657f7" y="397.444841"/>
     <use style="fill:#4c72b0;stroke:#ffffff;stroke-width:0.75;" x="185.332288" xlink:href="#m3d992657f7" y="397.444841"/>
     <use style="fill:#4c72b0;stroke:#ffffff;stroke-width:0.75;" x="185.332288" xlink:href="#m3d992657f7" y="349.273062"/>
     <use style="fill:#4c72b0;stroke:#ffffff;stroke-width:0.75;" x="272.793103" xlink:href="#m3d992657f7" y="216.884886"/>
     <use style="fill:#4c72b0;stroke:#ffffff;stroke-width:0.75;" x="272.793103" xlink:href="#m3d992657f7" y="282.910541"/>
     <use style="fill:#4c72b0;stroke:#ffffff;stroke-width:0.75;" x="272.793103" xlink:href="#m3d992657f7" y="367.800669"/>
     <use style="fill:#4c72b0;stroke:#ffffff;stroke-width:0.75;" x="272.793103" xlink:href="#m3d992657f7" y="292.005912"/>
     <use style="fill:#4c72b0;stroke:#ffffff;stroke-width:0.75;" x="272.793103" xlink:href="#m3d992657f7" y="206.778918"/>
     <use style="fill:#4c72b0;stroke:#ffffff;stroke-width:0.75;" x="272.793103" xlink:href="#m3d992657f7" y="226.317122"/>
     <use style="fill:#4c72b0;stroke:#ffffff;stroke-width:0.75;" x="272.793103" xlink:href="#m3d992657f7" y="321.313218"/>
     <use style="fill:#4c72b0;stroke:#ffffff;stroke-width:0.75;" x="272.793103" xlink:href="#m3d992657f7" y="396.434244"/>
     <use style="fill:#4c72b0;stroke:#ffffff;stroke-width:0.75;" x="272.793103" xlink:href="#m3d992657f7" y="254.613832"/>
     <use style="fill:#4c72b0;stroke:#ffffff;stroke-width:0.75;" x="272.793103" xlink:href="#m3d992657f7" y="243.497267"/>
     <use style="fill:#4c72b0;stroke:#ffffff;stroke-width:0.75;" x="272.793103" xlink:href="#m3d992657f7" y="262.36174"/>
     <use style="fill:#4c72b0;stroke:#ffffff;stroke-width:0.75;" x="272.793103" xlink:href="#m3d992657f7" y="273.141439"/>
     <use style="fill:#4c72b0;stroke:#ffffff;stroke-width:0.75;" x="272.793103" xlink:href="#m3d992657f7" y="377.906637"/>
     <use style="fill:#4c72b0;stroke:#ffffff;stroke-width:0.75;" x="272.793103" xlink:href="#m3d992657f7" y="234.065031"/>
     <use style="fill:#4c72b0;stroke:#ffffff;stroke-width:0.75;" x="272.793103" xlink:href="#m3d992657f7" y="245.181595"/>
     <use style="fill:#4c72b0;stroke:#ffffff;stroke-width:0.75;" x="360.253918" xlink:href="#m3d992657f7" y="130.984161"/>
     <use style="fill:#4c72b0;stroke:#ffffff;stroke-width:0.75;" x="360.253918" xlink:href="#m3d992657f7" y="159.617736"/>
     <use style="fill:#4c72b0;stroke:#ffffff;stroke-width:0.75;" x="360.253918" xlink:href="#m3d992657f7" y="206.105187"/>
     <use style="fill:#4c72b0;stroke:#ffffff;stroke-width:0.75;" x="360.253918" xlink:href="#m3d992657f7" y="149.848634"/>
     <use style="fill:#4c72b0;stroke:#ffffff;stroke-width:0.75;" x="360.253918" xlink:href="#m3d992657f7" y="159.28087"/>
     <use style="fill:#4c72b0;stroke:#ffffff;stroke-width:0.75;" x="360.253918" xlink:href="#m3d992657f7" y="150.522365"/>
     <use style="fill:#4c72b0;stroke:#ffffff;stroke-width:0.75;" x="360.253918" xlink:href="#m3d992657f7" y="130.647295"/>
     <use style="fill:#4c72b0;stroke:#ffffff;stroke-width:0.75;" x="360.253918" xlink:href="#m3d992657f7" y="245.181595"/>
     <use style="fill:#4c72b0;stroke:#ffffff;stroke-width:0.75;" x="360.253918" xlink:href="#m3d992657f7" y="226.317122"/>
     <use style="fill:#4c72b0;stroke:#ffffff;stroke-width:0.75;" x="360.253918" xlink:href="#m3d992657f7" y="111.109091"/>
     <use style="fill:#4c72b0;stroke:#ffffff;stroke-width:0.75;" x="360.253918" xlink:href="#m3d992657f7" y="130.310429"/>
     <use style="fill:#4c72b0;stroke:#ffffff;stroke-width:0.75;" x="360.253918" xlink:href="#m3d992657f7" y="158.270273"/>
     <use style="fill:#4c72b0;stroke:#ffffff;stroke-width:0.75;" x="360.253918" xlink:href="#m3d992657f7" y="216.211154"/>
     <use style="fill:#4c72b0;stroke:#ffffff;stroke-width:0.75;" x="360.253918" xlink:href="#m3d992657f7" y="196.67295"/>
     <use style="fill:#4c72b0;stroke:#ffffff;stroke-width:0.75;" x="360.253918" xlink:href="#m3d992657f7" y="140.079532"/>
     <use style="fill:#4c72b0;stroke:#ffffff;stroke-width:0.75;" x="447.714734" xlink:href="#m3d992657f7" y="149.848634"/>
     <use style="fill:#4c72b0;stroke:#ffffff;stroke-width:0.75;" x="447.714734" xlink:href="#m3d992657f7" y="158.270273"/>
     <use style="fill:#4c72b0;stroke:#ffffff;stroke-width:0.75;" x="447.714734" xlink:href="#m3d992657f7" y="225.306525"/>
     <use style="fill:#4c72b0;stroke:#ffffff;stroke-width:0.75;" x="447.714734" xlink:href="#m3d992657f7" y="169.386838"/>
     <use style="fill:#4c72b0;stroke:#ffffff;stroke-width:0.75;" x="447.714734" xlink:href="#m3d992657f7" y="130.310429"/>
     <use style="fill:#4c72b0;stroke:#ffffff;stroke-width:0.75;" x="447.714734" xlink:href="#m3d992657f7" y="149.174902"/>
     <use style="fill:#4c72b0;stroke:#ffffff;stroke-width:0.75;" x="447.714734" xlink:href="#m3d992657f7" y="168.376241"/>
     <use style="fill:#4c72b0;stroke:#ffffff;stroke-width:0.75;" x="447.714734" xlink:href="#m3d992657f7" y="225.306525"/>
     <use style="fill:#4c72b0;stroke:#ffffff;stroke-width:0.75;" x="447.714734" xlink:href="#m3d992657f7" y="149.174902"/>
     <use style="fill:#4c72b0;stroke:#ffffff;stroke-width:0.75;" x="447.714734" xlink:href="#m3d992657f7" y="158.944004"/>
     <use style="fill:#4c72b0;stroke:#ffffff;stroke-width:0.75;" x="447.714734" xlink:href="#m3d992657f7" y="141.090128"/>
     <use style="fill:#4c72b0;stroke:#ffffff;stroke-width:0.75;" x="447.714734" xlink:href="#m3d992657f7" y="177.471612"/>
     <use style="fill:#4c72b0;stroke:#ffffff;stroke-width:0.75;" x="447.714734" xlink:href="#m3d992657f7" y="234.401896"/>
     <use style="fill:#4c72b0;stroke:#ffffff;stroke-width:0.75;" x="447.714734" xlink:href="#m3d992657f7" y="129.973564"/>
     <use style="fill:#4c72b0;stroke:#ffffff;stroke-width:0.75;" x="447.714734" xlink:href="#m3d992657f7" y="121.551924"/>
     <use style="fill:#4c72b0;stroke:#ffffff;stroke-width:0.75;" x="622.636364" xlink:href="#m3d992657f7" y="178.482209"/>
     <use style="fill:#4c72b0;stroke:#ffffff;stroke-width:0.75;" x="622.636364" xlink:href="#m3d992657f7" y="178.145343"/>
     <use style="fill:#4c72b0;stroke:#ffffff;stroke-width:0.75;" x="622.636364" xlink:href="#m3d992657f7" y="235.749359"/>
     <use style="fill:#4c72b0;stroke:#ffffff;stroke-width:0.75;" x="622.636364" xlink:href="#m3d992657f7" y="149.511768"/>
     <use style="fill:#4c72b0;stroke:#ffffff;stroke-width:0.75;" x="622.636364" xlink:href="#m3d992657f7" y="178.819074"/>
     <use style="fill:#4c72b0;stroke:#ffffff;stroke-width:0.75;" x="622.636364" xlink:href="#m3d992657f7" y="215.537423"/>
     <use style="fill:#4c72b0;stroke:#ffffff;stroke-width:0.75;" x="622.636364" xlink:href="#m3d992657f7" y="169.049972"/>
     <use style="fill:#4c72b0;stroke:#ffffff;stroke-width:0.75;" x="622.636364" xlink:href="#m3d992657f7" y="264.382934"/>
     <use style="fill:#4c72b0;stroke:#ffffff;stroke-width:0.75;" x="622.636364" xlink:href="#m3d992657f7" y="178.482209"/>
     <use style="fill:#4c72b0;stroke:#ffffff;stroke-width:0.75;" x="622.636364" xlink:href="#m3d992657f7" y="130.984161"/>
     <use style="fill:#4c72b0;stroke:#ffffff;stroke-width:0.75;" x="622.636364" xlink:href="#m3d992657f7" y="206.442052"/>
     <use style="fill:#4c72b0;stroke:#ffffff;stroke-width:0.75;" x="622.636364" xlink:href="#m3d992657f7" y="178.145343"/>
     <use style="fill:#4c72b0;stroke:#ffffff;stroke-width:0.75;" x="622.636364" xlink:href="#m3d992657f7" y="225.643391"/>
     <use style="fill:#4c72b0;stroke:#ffffff;stroke-width:0.75;" x="622.636364" xlink:href="#m3d992657f7" y="216.211154"/>
     <use style="fill:#4c72b0;stroke:#ffffff;stroke-width:0.75;" x="622.636364" xlink:href="#m3d992657f7" y="140.416397"/>
    </g>
   </g>
   <g id="patch_3">
    <path d="M 90 630 
L 90 86.4 
" style="fill:none;stroke:#ffffff;stroke-linecap:square;stroke-linejoin:miter;stroke-width:1.25;"/>
   </g>
   <g id="patch_4">
    <path d="M 648 630 
L 648 86.4 
" style="fill:none;stroke:#ffffff;stroke-linecap:square;stroke-linejoin:miter;stroke-width:1.25;"/>
   </g>
   <g id="patch_5">
    <path d="M 90 630 
L 648 630 
" style="fill:none;stroke:#ffffff;stroke-linecap:square;stroke-linejoin:miter;stroke-width:1.25;"/>
   </g>
   <g id="patch_6">
    <path d="M 90 86.4 
L 648 86.4 
" style="fill:none;stroke:#ffffff;stroke-linecap:square;stroke-linejoin:miter;stroke-width:1.25;"/>
   </g>
  </g>
 </g>
 <defs>
  <clipPath id="pa4899578a7">
   <rect height="543.6" width="558" x="90" y="86.4"/>
  </clipPath>
 </defs>
</svg>
