<?xml version="1.0" encoding="utf-8" standalone="no"?>
<!DOCTYPE svg PUBLIC "-//W3C//DTD SVG 1.1//EN"
  "http://www.w3.org/Graphics/SVG/1.1/DTD/svg11.dtd">
<!-- Created with matplotlib (https://matplotlib.org/) -->
<svg height="720pt" version="1.1" viewBox="0 0 720 720" width="720pt" xmlns="http://www.w3.org/2000/svg" xmlns:xlink="http://www.w3.org/1999/xlink">
 <defs>
  <style type="text/css">
*{stroke-linecap:butt;stroke-linejoin:round;}
  </style>
 </defs>
 <g id="figure_1">
  <g id="patch_1">
   <path d="M 0 720 
L 720 720 
L 720 0 
L 0 0 
z
" style="fill:#ffffff;"/>
  </g>
  <g id="patch_2">
   <path d="M 90 630 
L 648 630 
L 648 86.4 
L 90 86.4 
z
" style="fill:#eaeaf2;"/>
  </g>
  <g id="pane3d_1">
   <g id="patch_3">
    <path d="M 163.971523 509.883558 
L 323.674042 376.605155 
L 321.015164 121.932002 
L 152.408183 241.679906 
" style="fill:#f2f2f2;opacity:0.5;stroke:#f2f2f2;stroke-linejoin:miter;"/>
   </g>
  </g>
  <g id="pane3d_2">
   <g id="patch_4">
    <path d="M 323.674042 376.605155 
L 582.377109 451.116383 
L 593.200935 188.763664 
L 321.015164 121.932002 
" style="fill:#e6e6e6;opacity:0.5;stroke:#e6e6e6;stroke-linejoin:miter;"/>
   </g>
  </g>
  <g id="pane3d_3">
   <g id="patch_5">
    <path d="M 163.971523 509.883558 
L 436.162105 596.664023 
L 582.377109 451.116383 
L 323.674042 376.605155 
" style="fill:#ececec;opacity:0.5;stroke:#ececec;stroke-linejoin:miter;"/>
   </g>
  </g>
  <g id="axis3d_1">
   <g id="line2d_1">
    <path d="M 163.971523 509.883558 
L 436.162105 596.664023 
" style="fill:none;stroke:#ffffff;stroke-linecap:round;stroke-width:1.25;"/>
   </g>
   <g id="Line3DCollection_1">
    <path d="M 173.241041 512.838888 
L 332.512825 379.150887 
L 330.295049 124.210556 
" style="fill:none;stroke:#ffffff;"/>
    <path d="M 220.784408 527.99678 
L 377.815186 392.198797 
L 377.879903 135.894396 
" style="fill:none;stroke:#ffffff;"/>
    <path d="M 269.109696 543.403966 
L 423.808197 405.445628 
L 426.227334 147.765476 
" style="fill:none;stroke:#ffffff;"/>
    <path d="M 318.236353 559.066647 
L 470.507775 418.895963 
L 475.355819 159.828334 
" style="fill:none;stroke:#ffffff;"/>
    <path d="M 368.184481 574.991231 
L 517.930326 432.554527 
L 525.284442 172.087656 
" style="fill:none;stroke:#ffffff;"/>
    <path d="M 418.974858 591.184343 
L 566.09277 446.426194 
L 576.032908 184.548279 
" style="fill:none;stroke:#ffffff;"/>
   </g>
   <g id="xtick_1">
    <g id="line2d_2">
     <path clip-path="url(#p37b76348d2)" d="M 376.540541 350.854054 
" style="fill:none;stroke:#ffffff;stroke-linecap:round;"/>
    </g>
    <g id="line2d_3">
     <path d="M 174.613127 511.6872 
L 170.491759 515.146554 
" style="fill:none;stroke:#262626;stroke-linecap:round;stroke-width:1.25;"/>
    </g>
    <g id="text_1">
     <!-- −0.5 -->
     <defs>
      <path d="M 52.828125 31.203125 
L 5.5625 31.203125 
L 5.5625 39.40625 
L 52.828125 39.40625 
z
" id="ArialMT-8722"/>
      <path d="M 4.15625 35.296875 
Q 4.15625 48 6.765625 55.734375 
Q 9.375 63.484375 14.515625 67.671875 
Q 19.671875 71.875 27.484375 71.875 
Q 33.25 71.875 37.59375 69.546875 
Q 41.9375 67.234375 44.765625 62.859375 
Q 47.609375 58.5 49.21875 52.21875 
Q 50.828125 45.953125 50.828125 35.296875 
Q 50.828125 22.703125 48.234375 14.96875 
Q 45.65625 7.234375 40.5 3 
Q 35.359375 -1.21875 27.484375 -1.21875 
Q 17.140625 -1.21875 11.234375 6.203125 
Q 4.15625 15.140625 4.15625 35.296875 
z
M 13.1875 35.296875 
Q 13.1875 17.671875 17.3125 11.828125 
Q 21.4375 6 27.484375 6 
Q 33.546875 6 37.671875 11.859375 
Q 41.796875 17.71875 41.796875 35.296875 
Q 41.796875 52.984375 37.671875 58.78125 
Q 33.546875 64.59375 27.390625 64.59375 
Q 21.34375 64.59375 17.71875 59.46875 
Q 13.1875 52.9375 13.1875 35.296875 
z
" id="ArialMT-48"/>
      <path d="M 9.078125 0 
L 9.078125 10.015625 
L 19.09375 10.015625 
L 19.09375 0 
z
" id="ArialMT-46"/>
      <path d="M 4.15625 18.75 
L 13.375 19.53125 
Q 14.40625 12.796875 18.140625 9.390625 
Q 21.875 6 27.15625 6 
Q 33.5 6 37.890625 10.78125 
Q 42.28125 15.578125 42.28125 23.484375 
Q 42.28125 31 38.0625 35.34375 
Q 33.84375 39.703125 27 39.703125 
Q 22.75 39.703125 19.328125 37.765625 
Q 15.921875 35.84375 13.96875 32.765625 
L 5.71875 33.84375 
L 12.640625 70.609375 
L 48.25 70.609375 
L 48.25 62.203125 
L 19.671875 62.203125 
L 15.828125 42.96875 
Q 22.265625 47.46875 29.34375 47.46875 
Q 38.71875 47.46875 45.15625 40.96875 
Q 51.609375 34.46875 51.609375 24.265625 
Q 51.609375 14.546875 45.953125 7.46875 
Q 39.0625 -1.21875 27.15625 -1.21875 
Q 17.390625 -1.21875 11.203125 4.25 
Q 5.03125 9.71875 4.15625 18.75 
z
" id="ArialMT-53"/>
     </defs>
     <g style="fill:#262626;" transform="translate(155.918489 536.710565)scale(0.11 -0.11)">
      <use xlink:href="#ArialMT-8722"/>
      <use x="58.398438" xlink:href="#ArialMT-48"/>
      <use x="114.013672" xlink:href="#ArialMT-46"/>
      <use x="141.796875" xlink:href="#ArialMT-53"/>
     </g>
    </g>
   </g>
   <g id="xtick_2">
    <g id="line2d_4">
     <path clip-path="url(#p37b76348d2)" d="M 376.540541 350.854054 
" style="fill:none;stroke:#ffffff;stroke-linecap:round;"/>
    </g>
    <g id="line2d_5">
     <path d="M 222.137975 526.826235 
L 218.072191 530.342267 
" style="fill:none;stroke:#262626;stroke-linecap:round;stroke-width:1.25;"/>
    </g>
    <g id="text_2">
     <!-- 0.0 -->
     <g style="fill:#262626;" transform="translate(206.671109 552.01492)scale(0.11 -0.11)">
      <use xlink:href="#ArialMT-48"/>
      <use x="55.615234" xlink:href="#ArialMT-46"/>
      <use x="83.398438" xlink:href="#ArialMT-48"/>
     </g>
    </g>
   </g>
   <g id="xtick_3">
    <g id="line2d_6">
     <path clip-path="url(#p37b76348d2)" d="M 376.540541 350.854054 
" style="fill:none;stroke:#ffffff;stroke-linecap:round;"/>
    </g>
    <g id="line2d_7">
     <path d="M 270.443947 542.214097 
L 266.436142 545.788211 
" style="fill:none;stroke:#262626;stroke-linecap:round;stroke-width:1.25;"/>
    </g>
    <g id="text_3">
     <!-- 0.5 -->
     <g style="fill:#262626;" transform="translate(254.994079 567.571244)scale(0.11 -0.11)">
      <use xlink:href="#ArialMT-48"/>
      <use x="55.615234" xlink:href="#ArialMT-46"/>
      <use x="83.398438" xlink:href="#ArialMT-53"/>
     </g>
    </g>
   </g>
   <g id="xtick_4">
    <g id="line2d_8">
     <path clip-path="url(#p37b76348d2)" d="M 376.540541 350.854054 
" style="fill:none;stroke:#ffffff;stroke-linecap:round;"/>
    </g>
    <g id="line2d_9">
     <path d="M 319.550459 557.856971 
L 315.603124 561.490619 
" style="fill:none;stroke:#262626;stroke-linecap:round;stroke-width:1.25;"/>
    </g>
    <g id="text_4">
     <!-- 1.0 -->
     <defs>
      <path d="M 37.25 0 
L 28.46875 0 
L 28.46875 56 
Q 25.296875 52.984375 20.140625 49.953125 
Q 14.984375 46.921875 10.890625 45.40625 
L 10.890625 53.90625 
Q 18.265625 57.375 23.78125 62.296875 
Q 29.296875 67.234375 31.59375 71.875 
L 37.25 71.875 
z
" id="ArialMT-49"/>
     </defs>
     <g style="fill:#262626;" transform="translate(304.119232 583.38581)scale(0.11 -0.11)">
      <use xlink:href="#ArialMT-49"/>
      <use x="55.615234" xlink:href="#ArialMT-46"/>
      <use x="83.398438" xlink:href="#ArialMT-48"/>
     </g>
    </g>
   </g>
   <g id="xtick_5">
    <g id="line2d_10">
     <path clip-path="url(#p37b76348d2)" d="M 376.540541 350.854054 
" style="fill:none;stroke:#ffffff;stroke-linecap:round;"/>
    </g>
    <g id="line2d_11">
     <path d="M 369.47758 573.761249 
L 365.593306 577.455931 
" style="fill:none;stroke:#262626;stroke-linecap:round;stroke-width:1.25;"/>
    </g>
    <g id="text_5">
     <!-- 1.5 -->
     <g style="fill:#262626;" transform="translate(354.06671 599.465101)scale(0.11 -0.11)">
      <use xlink:href="#ArialMT-49"/>
      <use x="55.615234" xlink:href="#ArialMT-46"/>
      <use x="83.398438" xlink:href="#ArialMT-53"/>
     </g>
    </g>
   </g>
   <g id="xtick_6">
    <g id="line2d_12">
     <path clip-path="url(#p37b76348d2)" d="M 376.540541 350.854054 
" style="fill:none;stroke:#ffffff;stroke-linecap:round;"/>
    </g>
    <g id="line2d_13">
     <path d="M 420.246051 589.93354 
L 416.427536 593.690806 
" style="fill:none;stroke:#262626;stroke-linecap:round;stroke-width:1.25;"/>
    </g>
    <g id="text_6">
     <!-- 2.0 -->
     <defs>
      <path d="M 50.34375 8.453125 
L 50.34375 0 
L 3.03125 0 
Q 2.9375 3.171875 4.046875 6.109375 
Q 5.859375 10.9375 9.828125 15.625 
Q 13.8125 20.3125 21.34375 26.46875 
Q 33.015625 36.03125 37.109375 41.625 
Q 41.21875 47.21875 41.21875 52.203125 
Q 41.21875 57.421875 37.46875 61 
Q 33.734375 64.59375 27.734375 64.59375 
Q 21.390625 64.59375 17.578125 60.78125 
Q 13.765625 56.984375 13.71875 50.25 
L 4.6875 51.171875 
Q 5.609375 61.28125 11.65625 66.578125 
Q 17.71875 71.875 27.9375 71.875 
Q 38.234375 71.875 44.234375 66.15625 
Q 50.25 60.453125 50.25 52 
Q 50.25 47.703125 48.484375 43.546875 
Q 46.734375 39.40625 42.65625 34.8125 
Q 38.578125 30.21875 29.109375 22.21875 
Q 21.1875 15.578125 18.9375 13.203125 
Q 16.703125 10.84375 15.234375 8.453125 
z
" id="ArialMT-50"/>
     </defs>
     <g style="fill:#262626;" transform="translate(404.857336 615.815823)scale(0.11 -0.11)">
      <use xlink:href="#ArialMT-50"/>
      <use x="55.615234" xlink:href="#ArialMT-46"/>
      <use x="83.398438" xlink:href="#ArialMT-48"/>
     </g>
    </g>
   </g>
  </g>
  <g id="axis3d_2">
   <g id="line2d_14">
    <path d="M 582.377109 451.116383 
L 436.162105 596.664023 
" style="fill:none;stroke:#ffffff;stroke-linecap:round;stroke-width:1.25;"/>
   </g>
   <g id="Line3DCollection_2">
    <path d="M 185.260699 218.347421 
L 194.991444 483.996141 
L 464.639096 568.317009 
" style="fill:none;stroke:#ffffff;"/>
    <path d="M 219.728305 193.867867 
L 227.587017 456.793779 
L 494.522581 538.56992 
" style="fill:none;stroke:#ffffff;"/>
    <path d="M 253.133551 170.142822 
L 259.22754 430.388444 
L 523.491363 509.733359 
" style="fill:none;stroke:#ffffff;"/>
    <path d="M 285.524806 147.137933 
L 289.954382 404.745615 
L 551.586806 481.766151 
" style="fill:none;stroke:#ffffff;"/>
    <path d="M 316.94755 124.820899 
L 319.806556 379.832733 
L 578.847817 454.629566 
" style="fill:none;stroke:#ffffff;"/>
   </g>
   <g id="xtick_7">
    <g id="line2d_15">
     <path clip-path="url(#p37b76348d2)" d="M 376.540541 350.854054 
" style="fill:none;stroke:#ffffff;stroke-linecap:round;"/>
    </g>
    <g id="line2d_16">
     <path d="M 462.383329 567.611614 
L 469.155623 569.729362 
" style="fill:none;stroke:#262626;stroke-linecap:round;stroke-width:1.25;"/>
    </g>
    <g id="text_7">
     <!-- −0.2 -->
     <g style="fill:#262626;" transform="translate(464.898209 590.115881)scale(0.11 -0.11)">
      <use xlink:href="#ArialMT-8722"/>
      <use x="58.398438" xlink:href="#ArialMT-48"/>
      <use x="114.013672" xlink:href="#ArialMT-46"/>
      <use x="141.796875" xlink:href="#ArialMT-50"/>
     </g>
    </g>
   </g>
   <g id="xtick_8">
    <g id="line2d_17">
     <path clip-path="url(#p37b76348d2)" d="M 376.540541 350.854054 
" style="fill:none;stroke:#ffffff;stroke-linecap:round;"/>
    </g>
    <g id="line2d_18">
     <path d="M 492.291019 537.886277 
L 498.990569 539.938695 
" style="fill:none;stroke:#262626;stroke-linecap:round;stroke-width:1.25;"/>
    </g>
    <g id="text_8">
     <!-- 0.0 -->
     <g style="fill:#262626;" transform="translate(497.812905 560.160789)scale(0.11 -0.11)">
      <use xlink:href="#ArialMT-48"/>
      <use x="55.615234" xlink:href="#ArialMT-46"/>
      <use x="83.398438" xlink:href="#ArialMT-48"/>
     </g>
    </g>
   </g>
   <g id="xtick_9">
    <g id="line2d_19">
     <path clip-path="url(#p37b76348d2)" d="M 376.540541 350.854054 
" style="fill:none;stroke:#ffffff;stroke-linecap:round;"/>
    </g>
    <g id="line2d_20">
     <path d="M 521.283591 509.070478 
L 527.911644 511.060543 
" style="fill:none;stroke:#262626;stroke-linecap:round;stroke-width:1.25;"/>
    </g>
    <g id="text_9">
     <!-- 0.2 -->
     <g style="fill:#262626;" transform="translate(526.60635 531.122337)scale(0.11 -0.11)">
      <use xlink:href="#ArialMT-48"/>
      <use x="55.615234" xlink:href="#ArialMT-46"/>
      <use x="83.398438" xlink:href="#ArialMT-50"/>
     </g>
    </g>
   </g>
   <g id="xtick_10">
    <g id="line2d_21">
     <path clip-path="url(#p37b76348d2)" d="M 376.540541 350.854054 
" style="fill:none;stroke:#ffffff;stroke-linecap:round;"/>
    </g>
    <g id="line2d_22">
     <path d="M 549.402415 481.1231 
L 555.960204 483.053611 
" style="fill:none;stroke:#262626;stroke-linecap:round;stroke-width:1.25;"/>
    </g>
    <g id="text_10">
     <!-- 0.4 -->
     <defs>
      <path d="M 32.328125 0 
L 32.328125 17.140625 
L 1.265625 17.140625 
L 1.265625 25.203125 
L 33.9375 71.578125 
L 41.109375 71.578125 
L 41.109375 25.203125 
L 50.78125 25.203125 
L 50.78125 17.140625 
L 41.109375 17.140625 
L 41.109375 0 
z
M 32.328125 25.203125 
L 32.328125 57.46875 
L 9.90625 25.203125 
z
" id="ArialMT-52"/>
     </defs>
     <g style="fill:#262626;" transform="translate(554.531979 502.959086)scale(0.11 -0.11)">
      <use xlink:href="#ArialMT-48"/>
      <use x="55.615234" xlink:href="#ArialMT-46"/>
      <use x="83.398438" xlink:href="#ArialMT-52"/>
     </g>
    </g>
   </g>
   <g id="xtick_11">
    <g id="line2d_23">
     <path clip-path="url(#p37b76348d2)" d="M 376.540541 350.854054 
" style="fill:none;stroke:#ffffff;stroke-linecap:round;"/>
    </g>
    <g id="line2d_24">
     <path d="M 576.686403 454.005469 
L 583.175146 455.87906 
" style="fill:none;stroke:#262626;stroke-linecap:round;stroke-width:1.25;"/>
    </g>
    <g id="text_11">
     <!-- 0.6 -->
     <defs>
      <path d="M 49.75 54.046875 
L 41.015625 53.375 
Q 39.84375 58.546875 37.703125 60.890625 
Q 34.125 64.65625 28.90625 64.65625 
Q 24.703125 64.65625 21.53125 62.3125 
Q 17.390625 59.28125 14.984375 53.46875 
Q 12.59375 47.65625 12.5 36.921875 
Q 15.671875 41.75 20.265625 44.09375 
Q 24.859375 46.4375 29.890625 46.4375 
Q 38.671875 46.4375 44.84375 39.96875 
Q 51.03125 33.5 51.03125 23.25 
Q 51.03125 16.5 48.125 10.71875 
Q 45.21875 4.9375 40.140625 1.859375 
Q 35.0625 -1.21875 28.609375 -1.21875 
Q 17.625 -1.21875 10.6875 6.859375 
Q 3.765625 14.9375 3.765625 33.5 
Q 3.765625 54.25 11.421875 63.671875 
Q 18.109375 71.875 29.4375 71.875 
Q 37.890625 71.875 43.28125 67.140625 
Q 48.6875 62.40625 49.75 54.046875 
z
M 13.875 23.1875 
Q 13.875 18.65625 15.796875 14.5 
Q 17.71875 10.359375 21.1875 8.171875 
Q 24.65625 6 28.46875 6 
Q 34.03125 6 38.03125 10.484375 
Q 42.046875 14.984375 42.046875 22.703125 
Q 42.046875 30.125 38.078125 34.390625 
Q 34.125 38.671875 28.125 38.671875 
Q 22.171875 38.671875 18.015625 34.390625 
Q 13.875 30.125 13.875 23.1875 
z
" id="ArialMT-54"/>
     </defs>
     <g style="fill:#262626;" transform="translate(581.628442 475.632056)scale(0.11 -0.11)">
      <use xlink:href="#ArialMT-48"/>
      <use x="55.615234" xlink:href="#ArialMT-46"/>
      <use x="83.398438" xlink:href="#ArialMT-54"/>
     </g>
    </g>
   </g>
  </g>
  <g id="axis3d_3">
   <g id="line2d_25">
    <path d="M 582.377109 451.116383 
L 593.200935 188.763664 
" style="fill:none;stroke:#ffffff;stroke-linecap:round;stroke-width:1.25;"/>
   </g>
   <g id="Line3DCollection_3">
    <path d="M 584.217949 406.497271 
L 323.221021 333.21377 
L 162.007719 464.334489 
" style="fill:none;stroke:#ffffff;"/>
    <path d="M 586.187438 358.75992 
L 322.736711 286.825558 
L 159.9054 415.572668 
" style="fill:none;stroke:#ffffff;"/>
    <path d="M 588.19464 310.108476 
L 322.243523 239.586919 
L 157.761471 365.845704 
" style="fill:none;stroke:#ffffff;"/>
    <path d="M 590.240648 260.516428 
L 321.74121 191.474251 
L 155.574682 315.124656 
" style="fill:none;stroke:#ffffff;"/>
    <path d="M 592.326598 209.956234 
L 321.229516 142.463069 
L 153.343736 263.379415 
" style="fill:none;stroke:#ffffff;"/>
   </g>
   <g id="xtick_12">
    <g id="line2d_26">
     <path clip-path="url(#p37b76348d2)" d="M 376.540541 350.854054 
" style="fill:none;stroke:#ffffff;stroke-linecap:round;"/>
    </g>
    <g id="line2d_27">
     <path d="M 582.039592 405.885625 
L 588.579233 407.721845 
" style="fill:none;stroke:#262626;stroke-linecap:round;stroke-width:1.25;"/>
    </g>
    <g id="text_12">
     <!-- −0.1 -->
     <g style="fill:#262626;" transform="translate(589.724001 412.129296)scale(0.11 -0.11)">
      <use xlink:href="#ArialMT-8722"/>
      <use x="58.398438" xlink:href="#ArialMT-48"/>
      <use x="114.013672" xlink:href="#ArialMT-46"/>
      <use x="141.796875" xlink:href="#ArialMT-49"/>
     </g>
    </g>
   </g>
   <g id="xtick_13">
    <g id="line2d_28">
     <path clip-path="url(#p37b76348d2)" d="M 376.540541 350.854054 
" style="fill:none;stroke:#ffffff;stroke-linecap:round;"/>
    </g>
    <g id="line2d_29">
     <path d="M 583.987736 358.159299 
L 590.5915 359.962435 
" style="fill:none;stroke:#262626;stroke-linecap:round;stroke-width:1.25;"/>
    </g>
    <g id="text_13">
     <!-- 0.0 -->
     <g style="fill:#262626;" transform="translate(595.058271 364.432366)scale(0.11 -0.11)">
      <use xlink:href="#ArialMT-48"/>
      <use x="55.615234" xlink:href="#ArialMT-46"/>
      <use x="83.398438" xlink:href="#ArialMT-48"/>
     </g>
    </g>
   </g>
   <g id="xtick_14">
    <g id="line2d_30">
     <path clip-path="url(#p37b76348d2)" d="M 376.540541 350.854054 
" style="fill:none;stroke:#ffffff;stroke-linecap:round;"/>
    </g>
    <g id="line2d_31">
     <path d="M 585.97317 309.519414 
L 592.642327 311.287857 
" style="fill:none;stroke:#262626;stroke-linecap:round;stroke-width:1.25;"/>
    </g>
    <g id="text_14">
     <!-- 0.1 -->
     <g style="fill:#262626;" transform="translate(597.220775 315.823307)scale(0.11 -0.11)">
      <use xlink:href="#ArialMT-48"/>
      <use x="55.615234" xlink:href="#ArialMT-46"/>
      <use x="83.398438" xlink:href="#ArialMT-49"/>
     </g>
    </g>
   </g>
   <g id="xtick_15">
    <g id="line2d_32">
     <path clip-path="url(#p37b76348d2)" d="M 376.540541 350.854054 
" style="fill:none;stroke:#ffffff;stroke-linecap:round;"/>
    </g>
    <g id="line2d_33">
     <path d="M 587.996976 259.939489 
L 594.732832 261.671552 
" style="fill:none;stroke:#262626;stroke-linecap:round;stroke-width:1.25;"/>
    </g>
    <g id="text_15">
     <!-- 0.2 -->
     <g style="fill:#262626;" transform="translate(599.425033 266.275702)scale(0.11 -0.11)">
      <use xlink:href="#ArialMT-48"/>
      <use x="55.615234" xlink:href="#ArialMT-46"/>
      <use x="83.398438" xlink:href="#ArialMT-50"/>
     </g>
    </g>
   </g>
   <g id="xtick_16">
    <g id="line2d_34">
     <path clip-path="url(#p37b76348d2)" d="M 376.540541 350.854054 
" style="fill:none;stroke:#ffffff;stroke-linecap:round;"/>
    </g>
    <g id="line2d_35">
     <path d="M 590.060277 209.392004 
L 596.864178 211.085924 
" style="fill:none;stroke:#262626;stroke-linecap:round;stroke-width:1.25;"/>
    </g>
    <g id="text_16">
     <!-- 0.3 -->
     <defs>
      <path d="M 4.203125 18.890625 
L 12.984375 20.0625 
Q 14.5 12.59375 18.140625 9.296875 
Q 21.78125 6 27 6 
Q 33.203125 6 37.46875 10.296875 
Q 41.75 14.59375 41.75 20.953125 
Q 41.75 27 37.796875 30.921875 
Q 33.84375 34.859375 27.734375 34.859375 
Q 25.25 34.859375 21.53125 33.890625 
L 22.515625 41.609375 
Q 23.390625 41.5 23.921875 41.5 
Q 29.546875 41.5 34.03125 44.421875 
Q 38.53125 47.359375 38.53125 53.46875 
Q 38.53125 58.296875 35.25 61.46875 
Q 31.984375 64.65625 26.8125 64.65625 
Q 21.6875 64.65625 18.265625 61.421875 
Q 14.84375 58.203125 13.875 51.765625 
L 5.078125 53.328125 
Q 6.6875 62.15625 12.390625 67.015625 
Q 18.109375 71.875 26.609375 71.875 
Q 32.46875 71.875 37.390625 69.359375 
Q 42.328125 66.84375 44.9375 62.5 
Q 47.5625 58.15625 47.5625 53.265625 
Q 47.5625 48.640625 45.0625 44.828125 
Q 42.578125 41.015625 37.703125 38.765625 
Q 44.046875 37.3125 47.5625 32.6875 
Q 51.078125 28.078125 51.078125 21.140625 
Q 51.078125 11.765625 44.234375 5.25 
Q 37.40625 -1.265625 26.953125 -1.265625 
Q 17.53125 -1.265625 11.296875 4.34375 
Q 5.078125 9.96875 4.203125 18.890625 
z
" id="ArialMT-51"/>
     </defs>
     <g style="fill:#262626;" transform="translate(601.672266 215.762104)scale(0.11 -0.11)">
      <use xlink:href="#ArialMT-48"/>
      <use x="55.615234" xlink:href="#ArialMT-46"/>
      <use x="83.398438" xlink:href="#ArialMT-51"/>
     </g>
    </g>
   </g>
  </g>
  <g id="axes_1">
   <g id="Path3DCollection_1">
    <defs>
     <path d="M 0 2.236068 
C 0.593012 2.236068 1.161816 2.000462 1.581139 1.581139 
C 2.000462 1.161816 2.236068 0.593012 2.236068 0 
C 2.236068 -0.593012 2.000462 -1.161816 1.581139 -1.581139 
C 1.161816 -2.000462 0.593012 -2.236068 0 -2.236068 
C -0.593012 -2.236068 -1.161816 -2.000462 -1.581139 -1.581139 
C -2.000462 -1.161816 -2.236068 -0.593012 -2.236068 0 
C -2.236068 0.593012 -2.000462 1.161816 -1.581139 1.581139 
C -1.161816 2.000462 -0.593012 2.236068 0 2.236068 
z
" id="m4922dce0ba" style="stroke:#4c72b0;"/>
    </defs>
    <g clip-path="url(#p37b76348d2)">
     <use style="fill:#4c72b0;stroke:#4c72b0;" x="266.440552" xlink:href="#m4922dce0ba" y="432.771208"/>
    </g>
   </g>
   <g id="Path3DCollection_2">
    <defs>
     <path d="M 0 2.236068 
C 0.593012 2.236068 1.161816 2.000462 1.581139 1.581139 
C 2.000462 1.161816 2.236068 0.593012 2.236068 0 
C 2.236068 -0.593012 2.000462 -1.161816 1.581139 -1.581139 
C 1.161816 -2.000462 0.593012 -2.236068 0 -2.236068 
C -0.593012 -2.236068 -1.161816 -2.000462 -1.581139 -1.581139 
C -2.000462 -1.161816 -2.236068 -0.593012 -2.236068 0 
C -2.236068 0.593012 -2.000462 1.161816 -1.581139 1.581139 
C -1.161816 2.000462 -0.593012 2.236068 0 2.236068 
z
" id="m97d562b825" style="stroke:#8172b3;"/>
    </defs>
    <g clip-path="url(#p37b76348d2)">
     <use style="fill:#8172b3;stroke:#8172b3;" x="295.83005" xlink:href="#m97d562b825" y="378.661484"/>
    </g>
   </g>
   <g id="Path3DCollection_3">
    <defs>
     <path d="M 0 2.236068 
C 0.593012 2.236068 1.161816 2.000462 1.581139 1.581139 
C 2.000462 1.161816 2.236068 0.593012 2.236068 0 
C 2.236068 -0.593012 2.000462 -1.161816 1.581139 -1.581139 
C 1.161816 -2.000462 0.593012 -2.236068 0 -2.236068 
C -0.593012 -2.236068 -1.161816 -2.000462 -1.581139 -1.581139 
C -2.000462 -1.161816 -2.236068 -0.593012 -2.236068 0 
C -2.236068 0.593012 -2.000462 1.161816 -1.581139 1.581139 
C -1.161816 2.000462 -0.593012 2.236068 0 2.236068 
z
" id="mcca098a255" style="stroke:#c44e52;"/>
    </defs>
    <g clip-path="url(#p37b76348d2)">
     <use style="fill:#c44e52;stroke:#c44e52;" x="269.176064" xlink:href="#mcca098a255" y="379.785988"/>
    </g>
   </g>
   <g id="Path3DCollection_4">
    <defs>
     <path d="M 0 2.236068 
C 0.593012 2.236068 1.161816 2.000462 1.581139 1.581139 
C 2.000462 1.161816 2.236068 0.593012 2.236068 0 
C 2.236068 -0.593012 2.000462 -1.161816 1.581139 -1.581139 
C 1.161816 -2.000462 0.593012 -2.236068 0 -2.236068 
C -0.593012 -2.236068 -1.161816 -2.000462 -1.581139 -1.581139 
C -2.000462 -1.161816 -2.236068 -0.593012 -2.236068 0 
C -2.236068 0.593012 -2.000462 1.161816 -1.581139 1.581139 
C -1.161816 2.000462 -0.593012 2.236068 0 2.236068 
z
" id="m63f940eab5" style="stroke:#64b5cd;"/>
    </defs>
    <g clip-path="url(#p37b76348d2)">
     <use style="fill:#64b5cd;stroke:#64b5cd;" x="270.45661" xlink:href="#m63f940eab5" y="368.007507"/>
    </g>
   </g>
   <g id="legend_1">
    <g id="patch_6">
     <path d="M 593.22125 189.473594 
L 640.3 189.473594 
Q 642.5 189.473594 642.5 187.273594 
L 642.5 94.1 
Q 642.5 91.9 640.3 91.9 
L 593.22125 91.9 
Q 591.02125 91.9 591.02125 94.1 
L 591.02125 187.273594 
Q 591.02125 189.473594 593.22125 189.473594 
z
" style="fill:#eaeaf2;opacity:0.8;stroke:#cccccc;stroke-linejoin:miter;"/>
    </g>
    <g id="text_17">
     <!-- Classes -->
     <defs>
      <path d="M 58.796875 25.09375 
L 68.265625 22.703125 
Q 65.28125 11.03125 57.546875 4.90625 
Q 49.8125 -1.21875 38.625 -1.21875 
Q 27.046875 -1.21875 19.796875 3.484375 
Q 12.546875 8.203125 8.765625 17.140625 
Q 4.984375 26.078125 4.984375 36.328125 
Q 4.984375 47.515625 9.25 55.828125 
Q 13.53125 64.15625 21.40625 68.46875 
Q 29.296875 72.796875 38.765625 72.796875 
Q 49.515625 72.796875 56.828125 67.328125 
Q 64.15625 61.859375 67.046875 51.953125 
L 57.71875 49.75 
Q 55.21875 57.5625 50.484375 61.125 
Q 45.75 64.703125 38.578125 64.703125 
Q 30.328125 64.703125 24.78125 60.734375 
Q 19.234375 56.78125 16.984375 50.109375 
Q 14.75 43.453125 14.75 36.375 
Q 14.75 27.25 17.40625 20.4375 
Q 20.0625 13.625 25.671875 10.25 
Q 31.296875 6.890625 37.84375 6.890625 
Q 45.796875 6.890625 51.3125 11.46875 
Q 56.84375 16.0625 58.796875 25.09375 
z
" id="ArialMT-67"/>
      <path d="M 6.390625 0 
L 6.390625 71.578125 
L 15.1875 71.578125 
L 15.1875 0 
z
" id="ArialMT-108"/>
      <path d="M 40.4375 6.390625 
Q 35.546875 2.25 31.03125 0.53125 
Q 26.515625 -1.171875 21.34375 -1.171875 
Q 12.796875 -1.171875 8.203125 3 
Q 3.609375 7.171875 3.609375 13.671875 
Q 3.609375 17.484375 5.34375 20.625 
Q 7.078125 23.78125 9.890625 25.6875 
Q 12.703125 27.59375 16.21875 28.5625 
Q 18.796875 29.25 24.03125 29.890625 
Q 34.671875 31.15625 39.703125 32.90625 
Q 39.75 34.71875 39.75 35.203125 
Q 39.75 40.578125 37.25 42.78125 
Q 33.890625 45.75 27.25 45.75 
Q 21.046875 45.75 18.09375 43.578125 
Q 15.140625 41.40625 13.71875 35.890625 
L 5.125 37.0625 
Q 6.296875 42.578125 8.984375 45.96875 
Q 11.671875 49.359375 16.75 51.1875 
Q 21.828125 53.03125 28.515625 53.03125 
Q 35.15625 53.03125 39.296875 51.46875 
Q 43.453125 49.90625 45.40625 47.53125 
Q 47.359375 45.171875 48.140625 41.546875 
Q 48.578125 39.3125 48.578125 33.453125 
L 48.578125 21.734375 
Q 48.578125 9.46875 49.140625 6.21875 
Q 49.703125 2.984375 51.375 0 
L 42.1875 0 
Q 40.828125 2.734375 40.4375 6.390625 
z
M 39.703125 26.03125 
Q 34.90625 24.078125 25.34375 22.703125 
Q 19.921875 21.921875 17.671875 20.9375 
Q 15.4375 19.96875 14.203125 18.09375 
Q 12.984375 16.21875 12.984375 13.921875 
Q 12.984375 10.40625 15.640625 8.0625 
Q 18.3125 5.71875 23.4375 5.71875 
Q 28.515625 5.71875 32.46875 7.9375 
Q 36.421875 10.15625 38.28125 14.015625 
Q 39.703125 17 39.703125 22.796875 
z
" id="ArialMT-97"/>
      <path d="M 3.078125 15.484375 
L 11.765625 16.84375 
Q 12.5 11.625 15.84375 8.84375 
Q 19.1875 6.0625 25.203125 6.0625 
Q 31.25 6.0625 34.171875 8.515625 
Q 37.109375 10.984375 37.109375 14.3125 
Q 37.109375 17.28125 34.515625 19 
Q 32.71875 20.171875 25.53125 21.96875 
Q 15.875 24.421875 12.140625 26.203125 
Q 8.40625 27.984375 6.46875 31.125 
Q 4.546875 34.28125 4.546875 38.09375 
Q 4.546875 41.546875 6.125 44.5 
Q 7.71875 47.46875 10.453125 49.421875 
Q 12.5 50.921875 16.03125 51.96875 
Q 19.578125 53.03125 23.640625 53.03125 
Q 29.734375 53.03125 34.34375 51.265625 
Q 38.96875 49.515625 41.15625 46.5 
Q 43.359375 43.5 44.1875 38.484375 
L 35.59375 37.3125 
Q 35.015625 41.3125 32.203125 43.546875 
Q 29.390625 45.796875 24.265625 45.796875 
Q 18.21875 45.796875 15.625 43.796875 
Q 13.03125 41.796875 13.03125 39.109375 
Q 13.03125 37.40625 14.109375 36.03125 
Q 15.1875 34.625 17.484375 33.6875 
Q 18.796875 33.203125 25.25 31.453125 
Q 34.578125 28.953125 38.25 27.359375 
Q 41.9375 25.78125 44.03125 22.75 
Q 46.140625 19.734375 46.140625 15.234375 
Q 46.140625 10.84375 43.578125 6.953125 
Q 41.015625 3.078125 36.171875 0.953125 
Q 31.34375 -1.171875 25.25 -1.171875 
Q 15.140625 -1.171875 9.84375 3.03125 
Q 4.546875 7.234375 3.078125 15.484375 
z
" id="ArialMT-115"/>
      <path d="M 42.09375 16.703125 
L 51.171875 15.578125 
Q 49.03125 7.625 43.21875 3.21875 
Q 37.40625 -1.171875 28.375 -1.171875 
Q 17 -1.171875 10.328125 5.828125 
Q 3.65625 12.84375 3.65625 25.484375 
Q 3.65625 38.578125 10.390625 45.796875 
Q 17.140625 53.03125 27.875 53.03125 
Q 38.28125 53.03125 44.875 45.953125 
Q 51.46875 38.875 51.46875 26.03125 
Q 51.46875 25.25 51.421875 23.6875 
L 12.75 23.6875 
Q 13.234375 15.140625 17.578125 10.59375 
Q 21.921875 6.0625 28.421875 6.0625 
Q 33.25 6.0625 36.671875 8.59375 
Q 40.09375 11.140625 42.09375 16.703125 
z
M 13.234375 30.90625 
L 42.1875 30.90625 
Q 41.609375 37.453125 38.875 40.71875 
Q 34.671875 45.796875 27.984375 45.796875 
Q 21.921875 45.796875 17.796875 41.75 
Q 13.671875 37.703125 13.234375 30.90625 
z
" id="ArialMT-101"/>
     </defs>
     <g style="fill:#262626;" transform="translate(595.42125 104.889375)scale(0.12 -0.12)">
      <use xlink:href="#ArialMT-67"/>
      <use x="72.216797" xlink:href="#ArialMT-108"/>
      <use x="94.433594" xlink:href="#ArialMT-97"/>
      <use x="150.048828" xlink:href="#ArialMT-115"/>
      <use x="200.048828" xlink:href="#ArialMT-115"/>
      <use x="250.048828" xlink:href="#ArialMT-101"/>
      <use x="305.664062" xlink:href="#ArialMT-115"/>
     </g>
    </g>
    <g id="line2d_36">
     <path d="M 596.169141 116.797969 
L 618.169141 116.797969 
" style="fill:none;stroke:#4c72b0;stroke-linecap:round;stroke-width:1.5;"/>
    </g>
    <g id="line2d_37">
     <defs>
      <path d="M 0 3 
C 0.795609 3 1.55874 2.683901 2.12132 2.12132 
C 2.683901 1.55874 3 0.795609 3 0 
C 3 -0.795609 2.683901 -1.55874 2.12132 -2.12132 
C 1.55874 -2.683901 0.795609 -3 0 -3 
C -0.795609 -3 -1.55874 -2.683901 -2.12132 -2.12132 
C -2.683901 -1.55874 -3 -0.795609 -3 0 
C -3 0.795609 -2.683901 1.55874 -2.12132 2.12132 
C -1.55874 2.683901 -0.795609 3 0 3 
z
" id="ma07ea2fc45" style="stroke:#4c72b0;"/>
     </defs>
     <g>
      <use style="fill:#4c72b0;stroke:#4c72b0;" x="607.169141" xlink:href="#ma07ea2fc45" y="116.797969"/>
     </g>
    </g>
    <g id="text_18">
     <!-- E -->
     <defs>
      <path d="M 7.90625 0 
L 7.90625 71.578125 
L 59.671875 71.578125 
L 59.671875 63.140625 
L 17.390625 63.140625 
L 17.390625 41.21875 
L 56.984375 41.21875 
L 56.984375 32.8125 
L 17.390625 32.8125 
L 17.390625 8.453125 
L 61.328125 8.453125 
L 61.328125 0 
z
" id="ArialMT-69"/>
     </defs>
     <g style="fill:#262626;" transform="translate(626.969141 120.647969)scale(0.11 -0.11)">
      <use xlink:href="#ArialMT-69"/>
     </g>
    </g>
    <g id="line2d_38">
     <path d="M 596.169141 132.357813 
L 618.169141 132.357813 
" style="fill:none;stroke:#55a868;stroke-linecap:round;stroke-width:1.5;"/>
    </g>
    <g id="line2d_39">
     <defs>
      <path d="M 0 3 
C 0.795609 3 1.55874 2.683901 2.12132 2.12132 
C 2.683901 1.55874 3 0.795609 3 0 
C 3 -0.795609 2.683901 -1.55874 2.12132 -2.12132 
C 1.55874 -2.683901 0.795609 -3 0 -3 
C -0.795609 -3 -1.55874 -2.683901 -2.12132 -2.12132 
C -2.683901 -1.55874 -3 -0.795609 -3 0 
C -3 0.795609 -2.683901 1.55874 -2.12132 2.12132 
C -1.55874 2.683901 -0.795609 3 0 3 
z
" id="m126a5555b5" style="stroke:#55a868;"/>
     </defs>
     <g>
      <use style="fill:#55a868;stroke:#55a868;" x="607.169141" xlink:href="#m126a5555b5" y="132.357813"/>
     </g>
    </g>
    <g id="text_19">
     <!-- R -->
     <defs>
      <path d="M 7.859375 0 
L 7.859375 71.578125 
L 39.59375 71.578125 
Q 49.171875 71.578125 54.140625 69.640625 
Q 59.125 67.71875 62.109375 62.828125 
Q 65.09375 57.953125 65.09375 52.046875 
Q 65.09375 44.4375 60.15625 39.203125 
Q 55.21875 33.984375 44.921875 32.5625 
Q 48.6875 30.765625 50.640625 29 
Q 54.78125 25.203125 58.5 19.484375 
L 70.953125 0 
L 59.03125 0 
L 49.5625 14.890625 
Q 45.40625 21.34375 42.71875 24.75 
Q 40.046875 28.171875 37.921875 29.53125 
Q 35.796875 30.90625 33.59375 31.453125 
Q 31.984375 31.78125 28.328125 31.78125 
L 17.328125 31.78125 
L 17.328125 0 
z
M 17.328125 39.984375 
L 37.703125 39.984375 
Q 44.1875 39.984375 47.84375 41.328125 
Q 51.515625 42.671875 53.421875 45.625 
Q 55.328125 48.578125 55.328125 52.046875 
Q 55.328125 57.125 51.640625 60.390625 
Q 47.953125 63.671875 39.984375 63.671875 
L 17.328125 63.671875 
z
" id="ArialMT-82"/>
     </defs>
     <g style="fill:#262626;" transform="translate(626.969141 136.207813)scale(0.11 -0.11)">
      <use xlink:href="#ArialMT-82"/>
     </g>
    </g>
    <g id="line2d_40">
     <path d="M 596.169141 147.917656 
L 618.169141 147.917656 
" style="fill:none;stroke:#c44e52;stroke-linecap:round;stroke-width:1.5;"/>
    </g>
    <g id="line2d_41">
     <defs>
      <path d="M 0 3 
C 0.795609 3 1.55874 2.683901 2.12132 2.12132 
C 2.683901 1.55874 3 0.795609 3 0 
C 3 -0.795609 2.683901 -1.55874 2.12132 -2.12132 
C 1.55874 -2.683901 0.795609 -3 0 -3 
C -0.795609 -3 -1.55874 -2.683901 -2.12132 -2.12132 
C -2.683901 -1.55874 -3 -0.795609 -3 0 
C -3 0.795609 -2.683901 1.55874 -2.12132 2.12132 
C -1.55874 2.683901 -0.795609 3 0 3 
z
" id="m064790555c" style="stroke:#c44e52;"/>
     </defs>
     <g>
      <use style="fill:#c44e52;stroke:#c44e52;" x="607.169141" xlink:href="#m064790555c" y="147.917656"/>
     </g>
    </g>
    <g id="text_20">
     <!-- S -->
     <defs>
      <path d="M 4.5 23 
L 13.421875 23.78125 
Q 14.0625 18.40625 16.375 14.96875 
Q 18.703125 11.53125 23.578125 9.40625 
Q 28.46875 7.28125 34.578125 7.28125 
Q 39.984375 7.28125 44.140625 8.890625 
Q 48.296875 10.5 50.3125 13.296875 
Q 52.34375 16.109375 52.34375 19.4375 
Q 52.34375 22.796875 50.390625 25.3125 
Q 48.4375 27.828125 43.953125 29.546875 
Q 41.0625 30.671875 31.203125 33.03125 
Q 21.34375 35.40625 17.390625 37.5 
Q 12.25 40.1875 9.734375 44.15625 
Q 7.234375 48.140625 7.234375 53.078125 
Q 7.234375 58.5 10.296875 63.203125 
Q 13.375 67.921875 19.28125 70.359375 
Q 25.203125 72.796875 32.421875 72.796875 
Q 40.375 72.796875 46.453125 70.234375 
Q 52.546875 67.671875 55.8125 62.6875 
Q 59.078125 57.71875 59.328125 51.421875 
L 50.25 50.734375 
Q 49.515625 57.515625 45.28125 60.984375 
Q 41.0625 64.453125 32.8125 64.453125 
Q 24.21875 64.453125 20.28125 61.296875 
Q 16.359375 58.15625 16.359375 53.71875 
Q 16.359375 49.859375 19.140625 47.359375 
Q 21.875 44.875 33.421875 42.265625 
Q 44.96875 39.65625 49.265625 37.703125 
Q 55.515625 34.8125 58.484375 30.390625 
Q 61.46875 25.984375 61.46875 20.21875 
Q 61.46875 14.5 58.203125 9.4375 
Q 54.9375 4.390625 48.796875 1.578125 
Q 42.671875 -1.21875 35.015625 -1.21875 
Q 25.296875 -1.21875 18.71875 1.609375 
Q 12.15625 4.4375 8.421875 10.125 
Q 4.6875 15.828125 4.5 23 
z
" id="ArialMT-83"/>
     </defs>
     <g style="fill:#262626;" transform="translate(626.969141 151.767656)scale(0.11 -0.11)">
      <use xlink:href="#ArialMT-83"/>
     </g>
    </g>
    <g id="line2d_42">
     <path d="M 596.169141 163.4775 
L 618.169141 163.4775 
" style="fill:none;stroke:#64b5cd;stroke-linecap:round;stroke-width:1.5;"/>
    </g>
    <g id="line2d_43">
     <defs>
      <path d="M 0 3 
C 0.795609 3 1.55874 2.683901 2.12132 2.12132 
C 2.683901 1.55874 3 0.795609 3 0 
C 3 -0.795609 2.683901 -1.55874 2.12132 -2.12132 
C 1.55874 -2.683901 0.795609 -3 0 -3 
C -0.795609 -3 -1.55874 -2.683901 -2.12132 -2.12132 
C -2.683901 -1.55874 -3 -0.795609 -3 0 
C -3 0.795609 -2.683901 1.55874 -2.12132 2.12132 
C -1.55874 2.683901 -0.795609 3 0 3 
z
" id="m47974e6e41" style="stroke:#64b5cd;"/>
     </defs>
     <g>
      <use style="fill:#64b5cd;stroke:#64b5cd;" x="607.169141" xlink:href="#m47974e6e41" y="163.4775"/>
     </g>
    </g>
    <g id="text_21">
     <!-- V -->
     <defs>
      <path d="M 28.171875 0 
L 0.4375 71.578125 
L 10.6875 71.578125 
L 29.296875 19.578125 
Q 31.546875 13.328125 33.0625 7.859375 
Q 34.71875 13.71875 36.921875 19.578125 
L 56.25 71.578125 
L 65.921875 71.578125 
L 37.890625 0 
z
" id="ArialMT-86"/>
     </defs>
     <g style="fill:#262626;" transform="translate(626.969141 167.3275)scale(0.11 -0.11)">
      <use xlink:href="#ArialMT-86"/>
     </g>
    </g>
    <g id="line2d_44">
     <path d="M 596.169141 179.037344 
L 618.169141 179.037344 
" style="fill:none;stroke:#8172b3;stroke-linecap:round;stroke-width:1.5;"/>
    </g>
    <g id="line2d_45">
     <defs>
      <path d="M 0 3 
C 0.795609 3 1.55874 2.683901 2.12132 2.12132 
C 2.683901 1.55874 3 0.795609 3 0 
C 3 -0.795609 2.683901 -1.55874 2.12132 -2.12132 
C 1.55874 -2.683901 0.795609 -3 0 -3 
C -0.795609 -3 -1.55874 -2.683901 -2.12132 -2.12132 
C -2.683901 -1.55874 -3 -0.795609 -3 0 
C -3 0.795609 -2.683901 1.55874 -2.12132 2.12132 
C -1.55874 2.683901 -0.795609 3 0 3 
z
" id="m6030fddf19" style="stroke:#8172b3;"/>
     </defs>
     <g>
      <use style="fill:#8172b3;stroke:#8172b3;" x="607.169141" xlink:href="#m6030fddf19" y="179.037344"/>
     </g>
    </g>
    <g id="text_22">
     <!-- W -->
     <defs>
      <path d="M 20.21875 0 
L 1.21875 71.578125 
L 10.9375 71.578125 
L 21.828125 24.65625 
Q 23.578125 17.28125 24.859375 10.015625 
Q 27.59375 21.484375 28.078125 23.25 
L 41.703125 71.578125 
L 53.125 71.578125 
L 63.375 35.359375 
Q 67.234375 21.875 68.953125 10.015625 
Q 70.3125 16.796875 72.515625 25.59375 
L 83.734375 71.578125 
L 93.265625 71.578125 
L 73.640625 0 
L 64.5 0 
L 49.421875 54.546875 
Q 47.515625 61.375 47.171875 62.9375 
Q 46.046875 58.015625 45.0625 54.546875 
L 29.890625 0 
z
" id="ArialMT-87"/>
     </defs>
     <g style="fill:#262626;" transform="translate(626.969141 182.887344)scale(0.11 -0.11)">
      <use xlink:href="#ArialMT-87"/>
     </g>
    </g>
   </g>
   <g id="Path3DCollection_5">
    <g clip-path="url(#p37b76348d2)">
     <use style="fill:#8172b3;stroke:#8172b3;" x="291.890842" xlink:href="#m97d562b825" y="341.202864"/>
    </g>
   </g>
   <g id="Path3DCollection_6">
    <g clip-path="url(#p37b76348d2)">
     <use style="fill:#4c72b0;stroke:#4c72b0;" x="276.476519" xlink:href="#m4922dce0ba" y="393.1702"/>
    </g>
   </g>
   <g id="Path3DCollection_7">
    <g clip-path="url(#p37b76348d2)">
     <use style="fill:#64b5cd;stroke:#64b5cd;" x="248.029403" xlink:href="#m63f940eab5" y="421.144943"/>
    </g>
   </g>
   <g id="Path3DCollection_8">
    <defs>
     <path d="M 0 2.236068 
C 0.593012 2.236068 1.161816 2.000462 1.581139 1.581139 
C 2.000462 1.161816 2.236068 0.593012 2.236068 0 
C 2.236068 -0.593012 2.000462 -1.161816 1.581139 -1.581139 
C 1.161816 -2.000462 0.593012 -2.236068 0 -2.236068 
C -0.593012 -2.236068 -1.161816 -2.000462 -1.581139 -1.581139 
C -2.000462 -1.161816 -2.236068 -0.593012 -2.236068 0 
C -2.236068 0.593012 -2.000462 1.161816 -1.581139 1.581139 
C -1.161816 2.000462 -0.593012 2.236068 0 2.236068 
z
" id="meb88206fdb" style="stroke:#55a868;"/>
    </defs>
    <g clip-path="url(#p37b76348d2)">
     <use style="fill:#55a868;stroke:#55a868;" x="559.045533" xlink:href="#meb88206fdb" y="385.418773"/>
    </g>
   </g>
   <g id="Path3DCollection_9">
    <g clip-path="url(#p37b76348d2)">
     <use style="fill:#c44e52;stroke:#c44e52;" x="273.488696" xlink:href="#mcca098a255" y="395.600209"/>
    </g>
   </g>
   <g id="Path3DCollection_10">
    <g clip-path="url(#p37b76348d2)">
     <use style="fill:#4c72b0;stroke:#4c72b0;" x="263.479287" xlink:href="#m4922dce0ba" y="389.884866"/>
    </g>
   </g>
   <g id="Path3DCollection_11">
    <g clip-path="url(#p37b76348d2)">
     <use style="fill:#4c72b0;stroke:#4c72b0;" x="254.3733" xlink:href="#m4922dce0ba" y="388.598875"/>
    </g>
   </g>
   <g id="Path3DCollection_12">
    <g clip-path="url(#p37b76348d2)">
     <use style="fill:#8172b3;stroke:#8172b3;" x="295.677438" xlink:href="#m97d562b825" y="351.168138"/>
    </g>
   </g>
   <g id="Path3DCollection_13">
    <g clip-path="url(#p37b76348d2)">
     <use style="fill:#4c72b0;stroke:#4c72b0;" x="252.486795" xlink:href="#m4922dce0ba" y="454.242135"/>
    </g>
   </g>
   <g id="Path3DCollection_14">
    <g clip-path="url(#p37b76348d2)">
     <use style="fill:#55a868;stroke:#55a868;" x="258.036894" xlink:href="#meb88206fdb" y="396.415608"/>
    </g>
   </g>
   <g id="Path3DCollection_15">
    <g clip-path="url(#p37b76348d2)">
     <use style="fill:#64b5cd;stroke:#64b5cd;" x="254.718539" xlink:href="#m63f940eab5" y="427.760887"/>
    </g>
   </g>
   <g id="Path3DCollection_16">
    <g clip-path="url(#p37b76348d2)">
     <use style="fill:#8172b3;stroke:#8172b3;" x="288.775254" xlink:href="#m97d562b825" y="362.060338"/>
    </g>
   </g>
   <g id="Path3DCollection_17">
    <g clip-path="url(#p37b76348d2)">
     <use style="fill:#8172b3;stroke:#8172b3;" x="288.105791" xlink:href="#m97d562b825" y="337.100751"/>
    </g>
   </g>
   <g id="Path3DCollection_18">
    <g clip-path="url(#p37b76348d2)">
     <use style="fill:#8172b3;stroke:#8172b3;" x="306.182689" xlink:href="#m97d562b825" y="322.72724"/>
    </g>
   </g>
   <g id="Path3DCollection_19">
    <g clip-path="url(#p37b76348d2)">
     <use style="fill:#c44e52;stroke:#c44e52;" x="250.671083" xlink:href="#mcca098a255" y="380.278132"/>
    </g>
   </g>
   <g id="Path3DCollection_20">
    <g clip-path="url(#p37b76348d2)">
     <use style="fill:#4c72b0;stroke:#4c72b0;" x="266.010282" xlink:href="#m4922dce0ba" y="379.164941"/>
    </g>
   </g>
   <g id="Path3DCollection_21">
    <g clip-path="url(#p37b76348d2)">
     <use style="fill:#8172b3;stroke:#8172b3;" x="303.299726" xlink:href="#m97d562b825" y="321.170815"/>
    </g>
   </g>
   <g id="Path3DCollection_22">
    <g clip-path="url(#p37b76348d2)">
     <use style="fill:#64b5cd;stroke:#64b5cd;" x="251.508222" xlink:href="#m63f940eab5" y="402.498877"/>
    </g>
   </g>
   <g id="Path3DCollection_23">
    <g clip-path="url(#p37b76348d2)">
     <use style="fill:#c44e52;stroke:#c44e52;" x="258.541775" xlink:href="#mcca098a255" y="390.581881"/>
    </g>
   </g>
   <g id="Path3DCollection_24">
    <g clip-path="url(#p37b76348d2)">
     <use style="fill:#8172b3;stroke:#8172b3;" x="288.591278" xlink:href="#m97d562b825" y="298.664777"/>
    </g>
   </g>
   <g id="Path3DCollection_25">
    <g clip-path="url(#p37b76348d2)">
     <use style="fill:#55a868;stroke:#55a868;" x="285.58816" xlink:href="#meb88206fdb" y="481.899053"/>
    </g>
   </g>
   <g id="Path3DCollection_26">
    <g clip-path="url(#p37b76348d2)">
     <use style="fill:#4c72b0;stroke:#4c72b0;" x="235.158755" xlink:href="#m4922dce0ba" y="355.171159"/>
    </g>
   </g>
   <g id="Path3DCollection_27">
    <g clip-path="url(#p37b76348d2)">
     <use style="fill:#4c72b0;stroke:#4c72b0;" x="245.138109" xlink:href="#m4922dce0ba" y="399.490848"/>
    </g>
   </g>
   <g id="Path3DCollection_28">
    <g clip-path="url(#p37b76348d2)">
     <use style="fill:#c44e52;stroke:#c44e52;" x="247.515791" xlink:href="#mcca098a255" y="363.970327"/>
    </g>
   </g>
   <g id="Path3DCollection_29">
    <g clip-path="url(#p37b76348d2)">
     <use style="fill:#c44e52;stroke:#c44e52;" x="240.959019" xlink:href="#mcca098a255" y="357.873409"/>
    </g>
   </g>
   <g id="Path3DCollection_30">
    <g clip-path="url(#p37b76348d2)">
     <use style="fill:#c44e52;stroke:#c44e52;" x="248.478045" xlink:href="#mcca098a255" y="363.454992"/>
    </g>
   </g>
   <g id="Path3DCollection_31">
    <g clip-path="url(#p37b76348d2)">
     <use style="fill:#64b5cd;stroke:#64b5cd;" x="237.330891" xlink:href="#m63f940eab5" y="388.431469"/>
    </g>
   </g>
   <g id="Path3DCollection_32">
    <g clip-path="url(#p37b76348d2)">
     <use style="fill:#8172b3;stroke:#8172b3;" x="289.004744" xlink:href="#m97d562b825" y="296.822535"/>
    </g>
   </g>
   <g id="Path3DCollection_33">
    <g clip-path="url(#p37b76348d2)">
     <use style="fill:#c44e52;stroke:#c44e52;" x="244.232411" xlink:href="#mcca098a255" y="368.920885"/>
    </g>
   </g>
   <g id="Path3DCollection_34">
    <g clip-path="url(#p37b76348d2)">
     <use style="fill:#64b5cd;stroke:#64b5cd;" x="258.08272" xlink:href="#m63f940eab5" y="348.020388"/>
    </g>
   </g>
   <g id="Path3DCollection_35">
    <g clip-path="url(#p37b76348d2)">
     <use style="fill:#55a868;stroke:#55a868;" x="317.805185" xlink:href="#meb88206fdb" y="444.918379"/>
    </g>
   </g>
   <g id="Path3DCollection_36">
    <g clip-path="url(#p37b76348d2)">
     <use style="fill:#64b5cd;stroke:#64b5cd;" x="234.043238" xlink:href="#m63f940eab5" y="360.625727"/>
    </g>
   </g>
   <g id="Path3DCollection_37">
    <g clip-path="url(#p37b76348d2)">
     <use style="fill:#c44e52;stroke:#c44e52;" x="234.677257" xlink:href="#mcca098a255" y="378.08835"/>
    </g>
   </g>
   <g id="Path3DCollection_38">
    <g clip-path="url(#p37b76348d2)">
     <use style="fill:#4c72b0;stroke:#4c72b0;" x="244.322651" xlink:href="#m4922dce0ba" y="334.144169"/>
    </g>
   </g>
   <g id="Path3DCollection_39">
    <g clip-path="url(#p37b76348d2)">
     <use style="fill:#55a868;stroke:#55a868;" x="294.54571" xlink:href="#meb88206fdb" y="452.309665"/>
    </g>
   </g>
   <g id="Path3DCollection_40">
    <g clip-path="url(#p37b76348d2)">
     <use style="fill:#64b5cd;stroke:#64b5cd;" x="248.533653" xlink:href="#m63f940eab5" y="359.457983"/>
    </g>
   </g>
   <g id="Path3DCollection_41">
    <g clip-path="url(#p37b76348d2)">
     <use style="fill:#64b5cd;stroke:#64b5cd;" x="244.387762" xlink:href="#m63f940eab5" y="363.196616"/>
    </g>
   </g>
   <g id="Path3DCollection_42">
    <g clip-path="url(#p37b76348d2)">
     <use style="fill:#4c72b0;stroke:#4c72b0;" x="240.38041" xlink:href="#m4922dce0ba" y="370.538948"/>
    </g>
   </g>
   <g id="Path3DCollection_43">
    <g clip-path="url(#p37b76348d2)">
     <use style="fill:#c44e52;stroke:#c44e52;" x="236.882517" xlink:href="#mcca098a255" y="329.003781"/>
    </g>
   </g>
   <g id="Path3DCollection_44">
    <g clip-path="url(#p37b76348d2)">
     <use style="fill:#55a868;stroke:#55a868;" x="395.56253" xlink:href="#meb88206fdb" y="417.805032"/>
    </g>
   </g>
   <g id="Path3DCollection_45">
    <g clip-path="url(#p37b76348d2)">
     <use style="fill:#64b5cd;stroke:#64b5cd;" x="248.345739" xlink:href="#m63f940eab5" y="310.955589"/>
    </g>
   </g>
   <g id="Path3DCollection_46">
    <g clip-path="url(#p37b76348d2)">
     <use style="fill:#55a868;stroke:#55a868;" x="379.73774" xlink:href="#meb88206fdb" y="498.124791"/>
    </g>
   </g>
   <g id="Path3DCollection_47">
    <g clip-path="url(#p37b76348d2)">
     <use style="fill:#8172b3;stroke:#8172b3;" x="286.112516" xlink:href="#m97d562b825" y="281.570779"/>
    </g>
   </g>
   <g id="Path3DCollection_48">
    <g clip-path="url(#p37b76348d2)">
     <use style="fill:#55a868;stroke:#55a868;" x="383.647592" xlink:href="#meb88206fdb" y="529.303164"/>
    </g>
   </g>
   <g id="Path3DCollection_49">
    <g clip-path="url(#p37b76348d2)">
     <use style="fill:#55a868;stroke:#55a868;" x="289.1934" xlink:href="#meb88206fdb" y="479.084175"/>
    </g>
   </g>
   <g id="Path3DCollection_50">
    <g clip-path="url(#p37b76348d2)">
     <use style="fill:#55a868;stroke:#55a868;" x="452.877477" xlink:href="#meb88206fdb" y="303.213964"/>
    </g>
   </g>
  </g>
 </g>
 <defs>
  <clipPath id="p37b76348d2">
   <rect height="543.6" width="558" x="90" y="86.4"/>
  </clipPath>
 </defs>
</svg>
