<?xml version="1.0" encoding="utf-8" standalone="no"?>
<!DOCTYPE svg PUBLIC "-//W3C//DTD SVG 1.1//EN"
  "http://www.w3.org/Graphics/SVG/1.1/DTD/svg11.dtd">
<!-- Created with matplotlib (https://matplotlib.org/) -->
<svg height="720pt" version="1.1" viewBox="0 0 720 720" width="720pt" xmlns="http://www.w3.org/2000/svg" xmlns:xlink="http://www.w3.org/1999/xlink">
 <defs>
  <style type="text/css">
*{stroke-linecap:butt;stroke-linejoin:round;}
  </style>
 </defs>
 <g id="figure_1">
  <g id="patch_1">
   <path d="M 0 720 
L 720 720 
L 720 0 
L 0 0 
z
" style="fill:#ffffff;"/>
  </g>
  <g id="patch_2">
   <path d="M 90 630 
L 648 630 
L 648 86.4 
L 90 86.4 
z
" style="fill:#eaeaf2;"/>
  </g>
  <g id="pane3d_1">
   <g id="patch_3">
    <path d="M 163.971523 509.883558 
L 323.674042 376.605155 
L 321.015164 121.932002 
L 152.408183 241.679906 
" style="fill:#f2f2f2;opacity:0.5;stroke:#f2f2f2;stroke-linejoin:miter;"/>
   </g>
  </g>
  <g id="pane3d_2">
   <g id="patch_4">
    <path d="M 323.674042 376.605155 
L 582.377109 451.116383 
L 593.200935 188.763664 
L 321.015164 121.932002 
" style="fill:#e6e6e6;opacity:0.5;stroke:#e6e6e6;stroke-linejoin:miter;"/>
   </g>
  </g>
  <g id="pane3d_3">
   <g id="patch_5">
    <path d="M 163.971523 509.883558 
L 436.162105 596.664023 
L 582.377109 451.116383 
L 323.674042 376.605155 
" style="fill:#ececec;opacity:0.5;stroke:#ececec;stroke-linejoin:miter;"/>
   </g>
  </g>
  <g id="axis3d_1">
   <g id="line2d_1">
    <path d="M 163.971523 509.883558 
L 436.162105 596.664023 
" style="fill:none;stroke:#ffffff;stroke-linecap:round;stroke-width:1.25;"/>
   </g>
   <g id="Line3DCollection_1">
    <path d="M 210.007444 524.560842 
L 367.550862 389.242484 
L 367.095248 133.246364 
" style="fill:none;stroke:#ffffff;"/>
    <path d="M 252.474609 538.100327 
L 407.982139 400.887433 
L 409.586903 143.679636 
" style="fill:none;stroke:#ffffff;"/>
    <path d="M 295.561154 551.837285 
L 448.959859 412.689768 
L 452.682367 154.261164 
" style="fill:none;stroke:#ffffff;"/>
    <path d="M 339.28073 565.776067 
L 490.495176 424.652701 
L 496.394603 164.994133 
" style="fill:none;stroke:#ffffff;"/>
    <path d="M 383.647391 579.921154 
L 532.599549 436.779532 
L 540.736948 175.881817 
" style="fill:none;stroke:#ffffff;"/>
    <path d="M 428.675609 594.27716 
L 575.284752 449.073654 
L 585.723124 186.927585 
" style="fill:none;stroke:#ffffff;"/>
   </g>
   <g id="xtick_1">
    <g id="line2d_2">
     <path clip-path="url(#p76f5bf3ea8)" d="M 376.540541 350.854054 
" style="fill:none;stroke:#ffffff;stroke-linecap:round;"/>
    </g>
    <g id="line2d_3">
     <path d="M 211.36525 523.394585 
L 207.286741 526.897729 
" style="fill:none;stroke:#262626;stroke-linecap:round;stroke-width:1.25;"/>
    </g>
    <g id="text_1">
     <!-- −2 -->
     <defs>
      <path d="M 52.828125 31.203125 
L 5.5625 31.203125 
L 5.5625 39.40625 
L 52.828125 39.40625 
z
" id="ArialMT-8722"/>
      <path d="M 50.34375 8.453125 
L 50.34375 0 
L 3.03125 0 
Q 2.9375 3.171875 4.046875 6.109375 
Q 5.859375 10.9375 9.828125 15.625 
Q 13.8125 20.3125 21.34375 26.46875 
Q 33.015625 36.03125 37.109375 41.625 
Q 41.21875 47.21875 41.21875 52.203125 
Q 41.21875 57.421875 37.46875 61 
Q 33.734375 64.59375 27.734375 64.59375 
Q 21.390625 64.59375 17.578125 60.78125 
Q 13.765625 56.984375 13.71875 50.25 
L 4.6875 51.171875 
Q 5.609375 61.28125 11.65625 66.578125 
Q 17.71875 71.875 27.9375 71.875 
Q 38.234375 71.875 44.234375 66.15625 
Q 50.25 60.453125 50.25 52 
Q 50.25 47.703125 48.484375 43.546875 
Q 46.734375 39.40625 42.65625 34.8125 
Q 38.578125 30.21875 29.109375 22.21875 
Q 21.1875 15.578125 18.9375 13.203125 
Q 16.703125 10.84375 15.234375 8.453125 
z
" id="ArialMT-50"/>
     </defs>
     <g style="fill:#262626;" transform="translate(197.268915 548.54576)scale(0.11 -0.11)">
      <use xlink:href="#ArialMT-8722"/>
      <use x="58.398438" xlink:href="#ArialMT-50"/>
     </g>
    </g>
   </g>
   <g id="xtick_2">
    <g id="line2d_4">
     <path clip-path="url(#p76f5bf3ea8)" d="M 376.540541 350.854054 
" style="fill:none;stroke:#ffffff;stroke-linecap:round;"/>
    </g>
    <g id="line2d_5">
     <path d="M 253.815565 536.917128 
L 249.787634 540.471194 
" style="fill:none;stroke:#262626;stroke-linecap:round;stroke-width:1.25;"/>
    </g>
    <g id="text_2">
     <!-- 0 -->
     <defs>
      <path d="M 4.15625 35.296875 
Q 4.15625 48 6.765625 55.734375 
Q 9.375 63.484375 14.515625 67.671875 
Q 19.671875 71.875 27.484375 71.875 
Q 33.25 71.875 37.59375 69.546875 
Q 41.9375 67.234375 44.765625 62.859375 
Q 47.609375 58.5 49.21875 52.21875 
Q 50.828125 45.953125 50.828125 35.296875 
Q 50.828125 22.703125 48.234375 14.96875 
Q 45.65625 7.234375 40.5 3 
Q 35.359375 -1.21875 27.484375 -1.21875 
Q 17.140625 -1.21875 11.234375 6.203125 
Q 4.15625 15.140625 4.15625 35.296875 
z
M 13.1875 35.296875 
Q 13.1875 17.671875 17.3125 11.828125 
Q 21.4375 6 27.484375 6 
Q 33.546875 6 37.671875 11.859375 
Q 41.796875 17.71875 41.796875 35.296875 
Q 41.796875 52.984375 37.671875 58.78125 
Q 33.546875 64.59375 27.390625 64.59375 
Q 21.34375 64.59375 17.71875 59.46875 
Q 13.1875 52.9375 13.1875 35.296875 
z
" id="ArialMT-48"/>
     </defs>
     <g style="fill:#262626;" transform="translate(242.94618 562.216237)scale(0.11 -0.11)">
      <use xlink:href="#ArialMT-48"/>
     </g>
    </g>
   </g>
   <g id="xtick_3">
    <g id="line2d_6">
     <path clip-path="url(#p76f5bf3ea8)" d="M 376.540541 350.854054 
" style="fill:none;stroke:#ffffff;stroke-linecap:round;"/>
    </g>
    <g id="line2d_7">
     <path d="M 296.884622 550.636771 
L 292.909185 554.242879 
" style="fill:none;stroke:#262626;stroke-linecap:round;stroke-width:1.25;"/>
    </g>
    <g id="text_3">
     <!-- 2 -->
     <g style="fill:#262626;" transform="translate(286.031105 576.086308)scale(0.11 -0.11)">
      <use xlink:href="#ArialMT-50"/>
     </g>
    </g>
   </g>
   <g id="xtick_4">
    <g id="line2d_8">
     <path clip-path="url(#p76f5bf3ea8)" d="M 376.540541 350.854054 
" style="fill:none;stroke:#ffffff;stroke-linecap:round;"/>
    </g>
    <g id="line2d_9">
     <path d="M 340.58605 564.557856 
L 336.66509 568.217157 
" style="fill:none;stroke:#262626;stroke-linecap:round;stroke-width:1.25;"/>
    </g>
    <g id="text_4">
     <!-- 4 -->
     <defs>
      <path d="M 32.328125 0 
L 32.328125 17.140625 
L 1.265625 17.140625 
L 1.265625 25.203125 
L 33.9375 71.578125 
L 41.109375 71.578125 
L 41.109375 25.203125 
L 50.78125 25.203125 
L 50.78125 17.140625 
L 41.109375 17.140625 
L 41.109375 0 
z
M 32.328125 25.203125 
L 32.328125 57.46875 
L 9.90625 25.203125 
z
" id="ArialMT-52"/>
     </defs>
     <g style="fill:#262626;" transform="translate(329.749711 590.160377)scale(0.11 -0.11)">
      <use xlink:href="#ArialMT-52"/>
     </g>
    </g>
   </g>
   <g id="xtick_5">
    <g id="line2d_10">
     <path clip-path="url(#p76f5bf3ea8)" d="M 376.540541 350.854054 
" style="fill:none;stroke:#ffffff;stroke-linecap:round;"/>
    </g>
    <g id="line2d_11">
     <path d="M 384.933879 578.684851 
L 381.06945 582.398531 
" style="fill:none;stroke:#262626;stroke-linecap:round;stroke-width:1.25;"/>
    </g>
    <g id="text_5">
     <!-- 6 -->
     <defs>
      <path d="M 49.75 54.046875 
L 41.015625 53.375 
Q 39.84375 58.546875 37.703125 60.890625 
Q 34.125 64.65625 28.90625 64.65625 
Q 24.703125 64.65625 21.53125 62.3125 
Q 17.390625 59.28125 14.984375 53.46875 
Q 12.59375 47.65625 12.5 36.921875 
Q 15.671875 41.75 20.265625 44.09375 
Q 24.859375 46.4375 29.890625 46.4375 
Q 38.671875 46.4375 44.84375 39.96875 
Q 51.03125 33.5 51.03125 23.25 
Q 51.03125 16.5 48.125 10.71875 
Q 45.21875 4.9375 40.140625 1.859375 
Q 35.0625 -1.21875 28.609375 -1.21875 
Q 17.625 -1.21875 10.6875 6.859375 
Q 3.765625 14.9375 3.765625 33.5 
Q 3.765625 54.25 11.421875 63.671875 
Q 18.109375 71.875 29.4375 71.875 
Q 37.890625 71.875 43.28125 67.140625 
Q 48.6875 62.40625 49.75 54.046875 
z
M 13.875 23.1875 
Q 13.875 18.65625 15.796875 14.5 
Q 17.71875 10.359375 21.1875 8.171875 
Q 24.65625 6 28.46875 6 
Q 34.03125 6 38.03125 10.484375 
Q 42.046875 14.984375 42.046875 22.703125 
Q 42.046875 30.125 38.078125 34.390625 
Q 34.125 38.671875 28.125 38.671875 
Q 22.171875 38.671875 18.015625 34.390625 
Q 13.875 30.125 13.875 23.1875 
z
" id="ArialMT-54"/>
     </defs>
     <g style="fill:#262626;" transform="translate(374.116083 604.442976)scale(0.11 -0.11)">
      <use xlink:href="#ArialMT-54"/>
     </g>
    </g>
   </g>
   <g id="xtick_6">
    <g id="line2d_12">
     <path clip-path="url(#p76f5bf3ea8)" d="M 376.540541 350.854054 
" style="fill:none;stroke:#ffffff;stroke-linecap:round;"/>
    </g>
    <g id="line2d_13">
     <path d="M 429.942556 593.02236 
L 426.136789 596.791639 
" style="fill:none;stroke:#262626;stroke-linecap:round;stroke-width:1.25;"/>
    </g>
    <g id="text_6">
     <!-- 8 -->
     <defs>
      <path d="M 17.671875 38.8125 
Q 12.203125 40.828125 9.5625 44.53125 
Q 6.9375 48.25 6.9375 53.421875 
Q 6.9375 61.234375 12.546875 66.546875 
Q 18.171875 71.875 27.484375 71.875 
Q 36.859375 71.875 42.578125 66.421875 
Q 48.296875 60.984375 48.296875 53.171875 
Q 48.296875 48.1875 45.671875 44.5 
Q 43.0625 40.828125 37.75 38.8125 
Q 44.34375 36.671875 47.78125 31.875 
Q 51.21875 27.09375 51.21875 20.453125 
Q 51.21875 11.28125 44.71875 5.03125 
Q 38.234375 -1.21875 27.640625 -1.21875 
Q 17.046875 -1.21875 10.546875 5.046875 
Q 4.046875 11.328125 4.046875 20.703125 
Q 4.046875 27.6875 7.59375 32.390625 
Q 11.140625 37.109375 17.671875 38.8125 
z
M 15.921875 53.71875 
Q 15.921875 48.640625 19.1875 45.40625 
Q 22.46875 42.1875 27.6875 42.1875 
Q 32.765625 42.1875 36.015625 45.375 
Q 39.265625 48.578125 39.265625 53.21875 
Q 39.265625 58.0625 35.90625 61.359375 
Q 32.5625 64.65625 27.59375 64.65625 
Q 22.5625 64.65625 19.234375 61.421875 
Q 15.921875 58.203125 15.921875 53.71875 
z
M 13.09375 20.65625 
Q 13.09375 16.890625 14.875 13.375 
Q 16.65625 9.859375 20.171875 7.921875 
Q 23.6875 6 27.734375 6 
Q 34.03125 6 38.125 10.046875 
Q 42.234375 14.109375 42.234375 20.359375 
Q 42.234375 26.703125 38.015625 30.859375 
Q 33.796875 35.015625 27.4375 35.015625 
Q 21.234375 35.015625 17.15625 30.90625 
Q 13.09375 26.8125 13.09375 20.65625 
z
" id="ArialMT-56"/>
     </defs>
     <g style="fill:#262626;" transform="translate(419.144723 618.938776)scale(0.11 -0.11)">
      <use xlink:href="#ArialMT-56"/>
     </g>
    </g>
   </g>
  </g>
  <g id="axis3d_2">
   <g id="line2d_14">
    <path d="M 582.377109 451.116383 
L 436.162105 596.664023 
" style="fill:none;stroke:#ffffff;stroke-linecap:round;stroke-width:1.25;"/>
   </g>
   <g id="Line3DCollection_2">
    <path d="M 158.883377 237.081099 
L 170.081791 504.784284 
L 441.774409 591.077336 
" style="fill:none;stroke:#ffffff;"/>
    <path d="M 178.164986 223.386931 
L 188.287562 489.59081 
L 458.487927 574.440103 
" style="fill:none;stroke:#ffffff;"/>
    <path d="M 197.115793 209.927706 
L 206.196797 474.644808 
L 474.916735 558.08628 
" style="fill:none;stroke:#ffffff;"/>
    <path d="M 215.744239 196.697427 
L 223.816681 459.940281 
L 491.068046 542.008687 
" style="fill:none;stroke:#ffffff;"/>
    <path d="M 234.058478 183.690304 
L 241.154172 445.471423 
L 506.948833 526.200384 
" style="fill:none;stroke:#ffffff;"/>
    <path d="M 252.066395 170.900737 
L 258.216003 431.232614 
L 522.565836 510.654661 
" style="fill:none;stroke:#ffffff;"/>
    <path d="M 269.77561 158.323313 
L 275.008698 417.218411 
L 537.925573 495.36503 
" style="fill:none;stroke:#ffffff;"/>
    <path d="M 287.193495 145.952798 
L 291.538575 403.42354 
L 553.034349 480.325215 
" style="fill:none;stroke:#ffffff;"/>
    <path d="M 304.32718 133.784127 
L 307.811755 389.842894 
L 567.898264 465.529142 
" style="fill:none;stroke:#ffffff;"/>
   </g>
   <g id="xtick_7">
    <g id="line2d_15">
     <path clip-path="url(#p76f5bf3ea8)" d="M 376.540541 350.854054 
" style="fill:none;stroke:#ffffff;stroke-linecap:round;"/>
    </g>
    <g id="line2d_16">
     <path d="M 439.500354 590.355067 
L 446.327613 592.523492 
" style="fill:none;stroke:#262626;stroke-linecap:round;stroke-width:1.25;"/>
    </g>
    <g id="text_7">
     <!-- −3 -->
     <defs>
      <path d="M 4.203125 18.890625 
L 12.984375 20.0625 
Q 14.5 12.59375 18.140625 9.296875 
Q 21.78125 6 27 6 
Q 33.203125 6 37.46875 10.296875 
Q 41.75 14.59375 41.75 20.953125 
Q 41.75 27 37.796875 30.921875 
Q 33.84375 34.859375 27.734375 34.859375 
Q 25.25 34.859375 21.53125 33.890625 
L 22.515625 41.609375 
Q 23.390625 41.5 23.921875 41.5 
Q 29.546875 41.5 34.03125 44.421875 
Q 38.53125 47.359375 38.53125 53.46875 
Q 38.53125 58.296875 35.25 61.46875 
Q 31.984375 64.65625 26.8125 64.65625 
Q 21.6875 64.65625 18.265625 61.421875 
Q 14.84375 58.203125 13.875 51.765625 
L 5.078125 53.328125 
Q 6.6875 62.15625 12.390625 67.015625 
Q 18.109375 71.875 26.609375 71.875 
Q 32.46875 71.875 37.390625 69.359375 
Q 42.328125 66.84375 44.9375 62.5 
Q 47.5625 58.15625 47.5625 53.265625 
Q 47.5625 48.640625 45.0625 44.828125 
Q 42.578125 41.015625 37.703125 38.765625 
Q 44.046875 37.3125 47.5625 32.6875 
Q 51.078125 28.078125 51.078125 21.140625 
Q 51.078125 11.765625 44.234375 5.25 
Q 37.40625 -1.265625 26.953125 -1.265625 
Q 17.53125 -1.265625 11.296875 4.34375 
Q 5.078125 9.96875 4.203125 18.890625 
z
" id="ArialMT-51"/>
     </defs>
     <g style="fill:#262626;" transform="translate(446.758775 613.035178)scale(0.11 -0.11)">
      <use xlink:href="#ArialMT-8722"/>
      <use x="58.398438" xlink:href="#ArialMT-51"/>
     </g>
    </g>
   </g>
   <g id="xtick_8">
    <g id="line2d_17">
     <path clip-path="url(#p76f5bf3ea8)" d="M 376.540541 350.854054 
" style="fill:none;stroke:#ffffff;stroke-linecap:round;"/>
    </g>
    <g id="line2d_18">
     <path d="M 456.22722 573.730188 
L 463.01436 575.86151 
" style="fill:none;stroke:#262626;stroke-linecap:round;stroke-width:1.25;"/>
    </g>
    <g id="text_8">
     <!-- −2 -->
     <g style="fill:#262626;" transform="translate(463.370841 596.281757)scale(0.11 -0.11)">
      <use xlink:href="#ArialMT-8722"/>
      <use x="58.398438" xlink:href="#ArialMT-50"/>
     </g>
    </g>
   </g>
   <g id="xtick_9">
    <g id="line2d_19">
     <path clip-path="url(#p76f5bf3ea8)" d="M 376.540541 350.854054 
" style="fill:none;stroke:#ffffff;stroke-linecap:round;"/>
    </g>
    <g id="line2d_20">
     <path d="M 472.669254 557.388404 
L 479.416645 559.483568 
" style="fill:none;stroke:#262626;stroke-linecap:round;stroke-width:1.25;"/>
    </g>
    <g id="text_9">
     <!-- −1 -->
     <defs>
      <path d="M 37.25 0 
L 28.46875 0 
L 28.46875 56 
Q 25.296875 52.984375 20.140625 49.953125 
Q 14.984375 46.921875 10.890625 45.40625 
L 10.890625 53.90625 
Q 18.265625 57.375 23.78125 62.296875 
Q 29.296875 67.234375 31.59375 71.875 
L 37.25 71.875 
z
" id="ArialMT-49"/>
     </defs>
     <g style="fill:#262626;" transform="translate(479.700007 579.813645)scale(0.11 -0.11)">
      <use xlink:href="#ArialMT-8722"/>
      <use x="58.398438" xlink:href="#ArialMT-49"/>
     </g>
    </g>
   </g>
   <g id="xtick_10">
    <g id="line2d_21">
     <path clip-path="url(#p76f5bf3ea8)" d="M 376.540541 350.854054 
" style="fill:none;stroke:#ffffff;stroke-linecap:round;"/>
    </g>
    <g id="line2d_22">
     <path d="M 488.833668 541.322547 
L 495.54168 543.382465 
" style="fill:none;stroke:#262626;stroke-linecap:round;stroke-width:1.25;"/>
    </g>
    <g id="text_10">
     <!-- 0 -->
     <g style="fill:#262626;" transform="translate(498.96578 563.623615)scale(0.11 -0.11)">
      <use xlink:href="#ArialMT-48"/>
     </g>
    </g>
   </g>
   <g id="xtick_11">
    <g id="line2d_23">
     <path clip-path="url(#p76f5bf3ea8)" d="M 376.540541 350.854054 
" style="fill:none;stroke:#ffffff;stroke-linecap:round;"/>
    </g>
    <g id="line2d_24">
     <path d="M 504.727437 525.525686 
L 511.396436 527.55124 
" style="fill:none;stroke:#262626;stroke-linecap:round;stroke-width:1.25;"/>
    </g>
    <g id="text_11">
     <!-- 1 -->
     <g style="fill:#262626;" transform="translate(514.7504 547.704682)scale(0.11 -0.11)">
      <use xlink:href="#ArialMT-49"/>
     </g>
    </g>
   </g>
   <g id="xtick_12">
    <g id="line2d_25">
     <path clip-path="url(#p76f5bf3ea8)" d="M 376.540541 350.854054 
" style="fill:none;stroke:#ffffff;stroke-linecap:round;"/>
    </g>
    <g id="line2d_26">
     <path d="M 520.3573 509.991122 
L 526.987651 511.983164 
" style="fill:none;stroke:#262626;stroke-linecap:round;stroke-width:1.25;"/>
    </g>
    <g id="text_12">
     <!-- 2 -->
     <g style="fill:#262626;" transform="translate(530.272906 532.050094)scale(0.11 -0.11)">
      <use xlink:href="#ArialMT-50"/>
     </g>
    </g>
   </g>
   <g id="xtick_13">
    <g id="line2d_27">
     <path clip-path="url(#p76f5bf3ea8)" d="M 376.540541 350.854054 
" style="fill:none;stroke:#ffffff;stroke-linecap:round;"/>
    </g>
    <g id="line2d_28">
     <path d="M 535.729776 494.712375 
L 542.321843 496.671731 
" style="fill:none;stroke:#262626;stroke-linecap:round;stroke-width:1.25;"/>
    </g>
    <g id="text_13">
     <!-- 3 -->
     <g style="fill:#262626;" transform="translate(545.539772 516.65332)scale(0.11 -0.11)">
      <use xlink:href="#ArialMT-51"/>
     </g>
    </g>
   </g>
   <g id="xtick_14">
    <g id="line2d_29">
     <path clip-path="url(#p76f5bf3ea8)" d="M 376.540541 350.854054 
" style="fill:none;stroke:#ffffff;stroke-linecap:round;"/>
    </g>
    <g id="line2d_30">
     <path d="M 550.851171 479.683178 
L 557.405315 481.610645 
" style="fill:none;stroke:#262626;stroke-linecap:round;stroke-width:1.25;"/>
    </g>
    <g id="text_14">
     <!-- 4 -->
     <g style="fill:#262626;" transform="translate(560.557263 501.508043)scale(0.11 -0.11)">
      <use xlink:href="#ArialMT-52"/>
     </g>
    </g>
   </g>
   <g id="xtick_15">
    <g id="line2d_31">
     <path clip-path="url(#p76f5bf3ea8)" d="M 376.540541 350.854054 
" style="fill:none;stroke:#ffffff;stroke-linecap:round;"/>
    </g>
    <g id="line2d_32">
     <path d="M 565.727587 464.897466 
L 572.244166 466.793817 
" style="fill:none;stroke:#262626;stroke-linecap:round;stroke-width:1.25;"/>
    </g>
    <g id="text_15">
     <!-- 5 -->
     <defs>
      <path d="M 4.15625 18.75 
L 13.375 19.53125 
Q 14.40625 12.796875 18.140625 9.390625 
Q 21.875 6 27.15625 6 
Q 33.5 6 37.890625 10.78125 
Q 42.28125 15.578125 42.28125 23.484375 
Q 42.28125 31 38.0625 35.34375 
Q 33.84375 39.703125 27 39.703125 
Q 22.75 39.703125 19.328125 37.765625 
Q 15.921875 35.84375 13.96875 32.765625 
L 5.71875 33.84375 
L 12.640625 70.609375 
L 48.25 70.609375 
L 48.25 62.203125 
L 19.671875 62.203125 
L 15.828125 42.96875 
Q 22.265625 47.46875 29.34375 47.46875 
Q 38.71875 47.46875 45.15625 40.96875 
Q 51.609375 34.46875 51.609375 24.265625 
Q 51.609375 14.546875 45.953125 7.46875 
Q 39.0625 -1.21875 27.15625 -1.21875 
Q 17.390625 -1.21875 11.203125 4.25 
Q 5.03125 9.71875 4.15625 18.75 
z
" id="ArialMT-53"/>
     </defs>
     <g style="fill:#262626;" transform="translate(575.331439 486.608152)scale(0.11 -0.11)">
      <use xlink:href="#ArialMT-53"/>
     </g>
    </g>
   </g>
  </g>
  <g id="axis3d_3">
   <g id="line2d_33">
    <path d="M 582.377109 451.116383 
L 593.200935 188.763664 
" style="fill:none;stroke:#ffffff;stroke-linecap:round;stroke-width:1.25;"/>
   </g>
   <g id="Line3DCollection_3">
    <path d="M 583.035735 435.152307 
L 323.511919 361.076645 
L 163.269034 493.589819 
" style="fill:none;stroke:#ffffff;"/>
    <path d="M 584.816157 391.997639 
L 323.073877 319.120032 
L 161.369305 449.526916 
" style="fill:none;stroke:#ffffff;"/>
    <path d="M 586.627549 348.092332 
L 322.628538 276.464482 
L 159.435427 404.671972 
" style="fill:none;stroke:#ffffff;"/>
    <path d="M 588.470724 303.416628 
L 322.175718 233.092383 
L 157.466473 359.003437 
" style="fill:none;stroke:#ffffff;"/>
    <path d="M 590.346527 257.95007 
L 321.715227 188.985527 
L 155.461478 312.498974 
" style="fill:none;stroke:#ffffff;"/>
    <path d="M 592.255833 211.671472 
L 321.246868 144.125084 
L 153.419445 265.135418 
" style="fill:none;stroke:#ffffff;"/>
   </g>
   <g id="xtick_16">
    <g id="line2d_34">
     <path clip-path="url(#p76f5bf3ea8)" d="M 376.540541 350.854054 
" style="fill:none;stroke:#ffffff;stroke-linecap:round;"/>
    </g>
    <g id="line2d_35">
     <path d="M 580.870184 434.534196 
L 587.371353 436.389819 
" style="fill:none;stroke:#262626;stroke-linecap:round;stroke-width:1.25;"/>
    </g>
    <g id="text_16">
     <!-- −1 -->
     <g style="fill:#262626;" transform="translate(593.036744 440.760625)scale(0.11 -0.11)">
      <use xlink:href="#ArialMT-8722"/>
      <use x="58.398438" xlink:href="#ArialMT-49"/>
     </g>
    </g>
   </g>
   <g id="xtick_17">
    <g id="line2d_36">
     <path clip-path="url(#p76f5bf3ea8)" d="M 376.540541 350.854054 
" style="fill:none;stroke:#ffffff;stroke-linecap:round;"/>
    </g>
    <g id="line2d_37">
     <path d="M 582.631318 391.389309 
L 589.190431 393.21558 
" style="fill:none;stroke:#262626;stroke-linecap:round;stroke-width:1.25;"/>
    </g>
    <g id="text_17">
     <!-- 0 -->
     <g style="fill:#262626;" transform="translate(598.167344 397.641819)scale(0.11 -0.11)">
      <use xlink:href="#ArialMT-48"/>
     </g>
    </g>
   </g>
   <g id="xtick_18">
    <g id="line2d_38">
     <path clip-path="url(#p76f5bf3ea8)" d="M 376.540541 350.854054 
" style="fill:none;stroke:#ffffff;stroke-linecap:round;"/>
    </g>
    <g id="line2d_39">
     <path d="M 584.423074 347.494217 
L 591.041174 349.289831 
" style="fill:none;stroke:#262626;stroke-linecap:round;stroke-width:1.25;"/>
    </g>
    <g id="text_18">
     <!-- 1 -->
     <g style="fill:#262626;" transform="translate(600.118923 353.773969)scale(0.11 -0.11)">
      <use xlink:href="#ArialMT-49"/>
     </g>
    </g>
   </g>
   <g id="xtick_19">
    <g id="line2d_40">
     <path clip-path="url(#p76f5bf3ea8)" d="M 376.540541 350.854054 
" style="fill:none;stroke:#ffffff;stroke-linecap:round;"/>
    </g>
    <g id="line2d_41">
     <path d="M 586.246259 302.829182 
L 592.924414 304.592776 
" style="fill:none;stroke:#262626;stroke-linecap:round;stroke-width:1.25;"/>
    </g>
    <g id="text_19">
     <!-- 2 -->
     <g style="fill:#262626;" transform="translate(602.104701 309.137383)scale(0.11 -0.11)">
      <use xlink:href="#ArialMT-50"/>
     </g>
    </g>
   </g>
   <g id="xtick_20">
    <g id="line2d_42">
     <path clip-path="url(#p76f5bf3ea8)" d="M 376.540541 350.854054 
" style="fill:none;stroke:#ffffff;stroke-linecap:round;"/>
    </g>
    <g id="line2d_43">
     <path d="M 588.101707 257.373767 
L 594.841015 259.10392 
" style="fill:none;stroke:#262626;stroke-linecap:round;stroke-width:1.25;"/>
    </g>
    <g id="text_20">
     <!-- 3 -->
     <g style="fill:#262626;" transform="translate(604.125585 263.711678)scale(0.11 -0.11)">
      <use xlink:href="#ArialMT-51"/>
     </g>
    </g>
   </g>
   <g id="xtick_21">
    <g id="line2d_44">
     <path clip-path="url(#p76f5bf3ea8)" d="M 376.540541 350.854054 
" style="fill:none;stroke:#ffffff;stroke-linecap:round;"/>
    </g>
    <g id="line2d_45">
     <path d="M 589.990281 211.106805 
L 596.791872 212.802036 
" style="fill:none;stroke:#262626;stroke-linecap:round;stroke-width:1.25;"/>
    </g>
    <g id="text_21">
     <!-- 4 -->
     <g style="fill:#262626;" transform="translate(606.182515 217.47574)scale(0.11 -0.11)">
      <use xlink:href="#ArialMT-52"/>
     </g>
    </g>
   </g>
  </g>
  <g id="axes_1">
   <g id="Path3DCollection_1">
    <defs>
     <path d="M 0 2.236068 
C 0.593012 2.236068 1.161816 2.000462 1.581139 1.581139 
C 2.000462 1.161816 2.236068 0.593012 2.236068 0 
C 2.236068 -0.593012 2.000462 -1.161816 1.581139 -1.581139 
C 1.161816 -2.000462 0.593012 -2.236068 0 -2.236068 
C -0.593012 -2.236068 -1.161816 -2.000462 -1.581139 -1.581139 
C -2.000462 -1.161816 -2.236068 -0.593012 -2.236068 0 
C -2.236068 0.593012 -2.000462 1.161816 -1.581139 1.581139 
C -1.161816 2.000462 -0.593012 2.236068 0 2.236068 
z
" id="m5dee9954e5" style="stroke:#55a868;"/>
    </defs>
    <g clip-path="url(#p76f5bf3ea8)">
     <use style="fill:#55a868;stroke:#55a868;" x="263.549084" xlink:href="#m5dee9954e5" y="398.461135"/>
    </g>
   </g>
   <g id="Path3DCollection_2">
    <g clip-path="url(#p76f5bf3ea8)">
     <use style="fill:#55a868;stroke:#55a868;" x="272.158097" xlink:href="#m5dee9954e5" y="396.040629"/>
    </g>
   </g>
   <g id="Path3DCollection_3">
    <g clip-path="url(#p76f5bf3ea8)">
     <use style="fill:#55a868;stroke:#55a868;" x="266.026529" xlink:href="#m5dee9954e5" y="398.508195"/>
    </g>
   </g>
   <g id="Path3DCollection_4">
    <g clip-path="url(#p76f5bf3ea8)">
     <use style="fill:#55a868;stroke:#55a868;" x="276.366502" xlink:href="#m5dee9954e5" y="396.730431"/>
    </g>
   </g>
   <g id="legend_1">
    <g id="patch_6">
     <path d="M 593.22125 189.473594 
L 640.3 189.473594 
Q 642.5 189.473594 642.5 187.273594 
L 642.5 94.1 
Q 642.5 91.9 640.3 91.9 
L 593.22125 91.9 
Q 591.02125 91.9 591.02125 94.1 
L 591.02125 187.273594 
Q 591.02125 189.473594 593.22125 189.473594 
z
" style="fill:#eaeaf2;opacity:0.8;stroke:#cccccc;stroke-linejoin:miter;"/>
    </g>
    <g id="text_22">
     <!-- Classes -->
     <defs>
      <path d="M 58.796875 25.09375 
L 68.265625 22.703125 
Q 65.28125 11.03125 57.546875 4.90625 
Q 49.8125 -1.21875 38.625 -1.21875 
Q 27.046875 -1.21875 19.796875 3.484375 
Q 12.546875 8.203125 8.765625 17.140625 
Q 4.984375 26.078125 4.984375 36.328125 
Q 4.984375 47.515625 9.25 55.828125 
Q 13.53125 64.15625 21.40625 68.46875 
Q 29.296875 72.796875 38.765625 72.796875 
Q 49.515625 72.796875 56.828125 67.328125 
Q 64.15625 61.859375 67.046875 51.953125 
L 57.71875 49.75 
Q 55.21875 57.5625 50.484375 61.125 
Q 45.75 64.703125 38.578125 64.703125 
Q 30.328125 64.703125 24.78125 60.734375 
Q 19.234375 56.78125 16.984375 50.109375 
Q 14.75 43.453125 14.75 36.375 
Q 14.75 27.25 17.40625 20.4375 
Q 20.0625 13.625 25.671875 10.25 
Q 31.296875 6.890625 37.84375 6.890625 
Q 45.796875 6.890625 51.3125 11.46875 
Q 56.84375 16.0625 58.796875 25.09375 
z
" id="ArialMT-67"/>
      <path d="M 6.390625 0 
L 6.390625 71.578125 
L 15.1875 71.578125 
L 15.1875 0 
z
" id="ArialMT-108"/>
      <path d="M 40.4375 6.390625 
Q 35.546875 2.25 31.03125 0.53125 
Q 26.515625 -1.171875 21.34375 -1.171875 
Q 12.796875 -1.171875 8.203125 3 
Q 3.609375 7.171875 3.609375 13.671875 
Q 3.609375 17.484375 5.34375 20.625 
Q 7.078125 23.78125 9.890625 25.6875 
Q 12.703125 27.59375 16.21875 28.5625 
Q 18.796875 29.25 24.03125 29.890625 
Q 34.671875 31.15625 39.703125 32.90625 
Q 39.75 34.71875 39.75 35.203125 
Q 39.75 40.578125 37.25 42.78125 
Q 33.890625 45.75 27.25 45.75 
Q 21.046875 45.75 18.09375 43.578125 
Q 15.140625 41.40625 13.71875 35.890625 
L 5.125 37.0625 
Q 6.296875 42.578125 8.984375 45.96875 
Q 11.671875 49.359375 16.75 51.1875 
Q 21.828125 53.03125 28.515625 53.03125 
Q 35.15625 53.03125 39.296875 51.46875 
Q 43.453125 49.90625 45.40625 47.53125 
Q 47.359375 45.171875 48.140625 41.546875 
Q 48.578125 39.3125 48.578125 33.453125 
L 48.578125 21.734375 
Q 48.578125 9.46875 49.140625 6.21875 
Q 49.703125 2.984375 51.375 0 
L 42.1875 0 
Q 40.828125 2.734375 40.4375 6.390625 
z
M 39.703125 26.03125 
Q 34.90625 24.078125 25.34375 22.703125 
Q 19.921875 21.921875 17.671875 20.9375 
Q 15.4375 19.96875 14.203125 18.09375 
Q 12.984375 16.21875 12.984375 13.921875 
Q 12.984375 10.40625 15.640625 8.0625 
Q 18.3125 5.71875 23.4375 5.71875 
Q 28.515625 5.71875 32.46875 7.9375 
Q 36.421875 10.15625 38.28125 14.015625 
Q 39.703125 17 39.703125 22.796875 
z
" id="ArialMT-97"/>
      <path d="M 3.078125 15.484375 
L 11.765625 16.84375 
Q 12.5 11.625 15.84375 8.84375 
Q 19.1875 6.0625 25.203125 6.0625 
Q 31.25 6.0625 34.171875 8.515625 
Q 37.109375 10.984375 37.109375 14.3125 
Q 37.109375 17.28125 34.515625 19 
Q 32.71875 20.171875 25.53125 21.96875 
Q 15.875 24.421875 12.140625 26.203125 
Q 8.40625 27.984375 6.46875 31.125 
Q 4.546875 34.28125 4.546875 38.09375 
Q 4.546875 41.546875 6.125 44.5 
Q 7.71875 47.46875 10.453125 49.421875 
Q 12.5 50.921875 16.03125 51.96875 
Q 19.578125 53.03125 23.640625 53.03125 
Q 29.734375 53.03125 34.34375 51.265625 
Q 38.96875 49.515625 41.15625 46.5 
Q 43.359375 43.5 44.1875 38.484375 
L 35.59375 37.3125 
Q 35.015625 41.3125 32.203125 43.546875 
Q 29.390625 45.796875 24.265625 45.796875 
Q 18.21875 45.796875 15.625 43.796875 
Q 13.03125 41.796875 13.03125 39.109375 
Q 13.03125 37.40625 14.109375 36.03125 
Q 15.1875 34.625 17.484375 33.6875 
Q 18.796875 33.203125 25.25 31.453125 
Q 34.578125 28.953125 38.25 27.359375 
Q 41.9375 25.78125 44.03125 22.75 
Q 46.140625 19.734375 46.140625 15.234375 
Q 46.140625 10.84375 43.578125 6.953125 
Q 41.015625 3.078125 36.171875 0.953125 
Q 31.34375 -1.171875 25.25 -1.171875 
Q 15.140625 -1.171875 9.84375 3.03125 
Q 4.546875 7.234375 3.078125 15.484375 
z
" id="ArialMT-115"/>
      <path d="M 42.09375 16.703125 
L 51.171875 15.578125 
Q 49.03125 7.625 43.21875 3.21875 
Q 37.40625 -1.171875 28.375 -1.171875 
Q 17 -1.171875 10.328125 5.828125 
Q 3.65625 12.84375 3.65625 25.484375 
Q 3.65625 38.578125 10.390625 45.796875 
Q 17.140625 53.03125 27.875 53.03125 
Q 38.28125 53.03125 44.875 45.953125 
Q 51.46875 38.875 51.46875 26.03125 
Q 51.46875 25.25 51.421875 23.6875 
L 12.75 23.6875 
Q 13.234375 15.140625 17.578125 10.59375 
Q 21.921875 6.0625 28.421875 6.0625 
Q 33.25 6.0625 36.671875 8.59375 
Q 40.09375 11.140625 42.09375 16.703125 
z
M 13.234375 30.90625 
L 42.1875 30.90625 
Q 41.609375 37.453125 38.875 40.71875 
Q 34.671875 45.796875 27.984375 45.796875 
Q 21.921875 45.796875 17.796875 41.75 
Q 13.671875 37.703125 13.234375 30.90625 
z
" id="ArialMT-101"/>
     </defs>
     <g style="fill:#262626;" transform="translate(595.42125 104.889375)scale(0.12 -0.12)">
      <use xlink:href="#ArialMT-67"/>
      <use x="72.216797" xlink:href="#ArialMT-108"/>
      <use x="94.433594" xlink:href="#ArialMT-97"/>
      <use x="150.048828" xlink:href="#ArialMT-115"/>
      <use x="200.048828" xlink:href="#ArialMT-115"/>
      <use x="250.048828" xlink:href="#ArialMT-101"/>
      <use x="305.664062" xlink:href="#ArialMT-115"/>
     </g>
    </g>
    <g id="line2d_46">
     <path d="M 597.082656 116.797969 
L 619.082656 116.797969 
" style="fill:none;stroke:#4c72b0;stroke-linecap:round;stroke-width:1.5;"/>
    </g>
    <g id="line2d_47">
     <defs>
      <path d="M 0 3 
C 0.795609 3 1.55874 2.683901 2.12132 2.12132 
C 2.683901 1.55874 3 0.795609 3 0 
C 3 -0.795609 2.683901 -1.55874 2.12132 -2.12132 
C 1.55874 -2.683901 0.795609 -3 0 -3 
C -0.795609 -3 -1.55874 -2.683901 -2.12132 -2.12132 
C -2.683901 -1.55874 -3 -0.795609 -3 0 
C -3 0.795609 -2.683901 1.55874 -2.12132 2.12132 
C -1.55874 2.683901 -0.795609 3 0 3 
z
" id="m32fe37c89e" style="stroke:#4c72b0;"/>
     </defs>
     <g>
      <use style="fill:#4c72b0;stroke:#4c72b0;" x="608.082656" xlink:href="#m32fe37c89e" y="116.797969"/>
     </g>
    </g>
    <g id="text_23">
     <!-- B -->
     <defs>
      <path d="M 7.328125 0 
L 7.328125 71.578125 
L 34.1875 71.578125 
Q 42.390625 71.578125 47.34375 69.40625 
Q 52.296875 67.234375 55.09375 62.71875 
Q 57.90625 58.203125 57.90625 53.265625 
Q 57.90625 48.6875 55.421875 44.625 
Q 52.9375 40.578125 47.90625 38.09375 
Q 54.390625 36.1875 57.875 31.59375 
Q 61.375 27 61.375 20.75 
Q 61.375 15.71875 59.25 11.390625 
Q 57.125 7.078125 54 4.734375 
Q 50.875 2.390625 46.15625 1.1875 
Q 41.453125 0 34.625 0 
z
M 16.796875 41.5 
L 32.28125 41.5 
Q 38.578125 41.5 41.3125 42.328125 
Q 44.921875 43.40625 46.75 45.890625 
Q 48.578125 48.390625 48.578125 52.15625 
Q 48.578125 55.71875 46.875 58.421875 
Q 45.171875 61.140625 41.984375 62.140625 
Q 38.8125 63.140625 31.109375 63.140625 
L 16.796875 63.140625 
z
M 16.796875 8.453125 
L 34.625 8.453125 
Q 39.203125 8.453125 41.0625 8.796875 
Q 44.34375 9.375 46.53125 10.734375 
Q 48.734375 12.109375 50.140625 14.71875 
Q 51.5625 17.328125 51.5625 20.75 
Q 51.5625 24.75 49.515625 27.703125 
Q 47.46875 30.671875 43.828125 31.859375 
Q 40.1875 33.0625 33.34375 33.0625 
L 16.796875 33.0625 
z
" id="ArialMT-66"/>
     </defs>
     <g style="fill:#262626;" transform="translate(627.882656 120.647969)scale(0.11 -0.11)">
      <use xlink:href="#ArialMT-66"/>
     </g>
    </g>
    <g id="line2d_48">
     <path d="M 597.082656 132.357813 
L 619.082656 132.357813 
" style="fill:none;stroke:#55a868;stroke-linecap:round;stroke-width:1.5;"/>
    </g>
    <g id="line2d_49">
     <defs>
      <path d="M 0 3 
C 0.795609 3 1.55874 2.683901 2.12132 2.12132 
C 2.683901 1.55874 3 0.795609 3 0 
C 3 -0.795609 2.683901 -1.55874 2.12132 -2.12132 
C 1.55874 -2.683901 0.795609 -3 0 -3 
C -0.795609 -3 -1.55874 -2.683901 -2.12132 -2.12132 
C -2.683901 -1.55874 -3 -0.795609 -3 0 
C -3 0.795609 -2.683901 1.55874 -2.12132 2.12132 
C -1.55874 2.683901 -0.795609 3 0 3 
z
" id="m96fbe5fa76" style="stroke:#55a868;"/>
     </defs>
     <g>
      <use style="fill:#55a868;stroke:#55a868;" x="608.082656" xlink:href="#m96fbe5fa76" y="132.357813"/>
     </g>
    </g>
    <g id="text_24">
     <!-- D -->
     <defs>
      <path d="M 7.71875 0 
L 7.71875 71.578125 
L 32.375 71.578125 
Q 40.71875 71.578125 45.125 70.5625 
Q 51.265625 69.140625 55.609375 65.4375 
Q 61.28125 60.640625 64.078125 53.1875 
Q 66.890625 45.75 66.890625 36.1875 
Q 66.890625 28.03125 64.984375 21.734375 
Q 63.09375 15.4375 60.109375 11.296875 
Q 57.125 7.171875 53.578125 4.796875 
Q 50.046875 2.4375 45.046875 1.21875 
Q 40.046875 0 33.546875 0 
z
M 17.1875 8.453125 
L 32.46875 8.453125 
Q 39.546875 8.453125 43.578125 9.765625 
Q 47.609375 11.078125 50 13.484375 
Q 53.375 16.84375 55.25 22.53125 
Q 57.125 28.21875 57.125 36.328125 
Q 57.125 47.5625 53.4375 53.59375 
Q 49.75 59.625 44.484375 61.671875 
Q 40.671875 63.140625 32.234375 63.140625 
L 17.1875 63.140625 
z
" id="ArialMT-68"/>
     </defs>
     <g style="fill:#262626;" transform="translate(627.882656 136.207813)scale(0.11 -0.11)">
      <use xlink:href="#ArialMT-68"/>
     </g>
    </g>
    <g id="line2d_50">
     <path d="M 597.082656 147.917656 
L 619.082656 147.917656 
" style="fill:none;stroke:#c44e52;stroke-linecap:round;stroke-width:1.5;"/>
    </g>
    <g id="line2d_51">
     <defs>
      <path d="M 0 3 
C 0.795609 3 1.55874 2.683901 2.12132 2.12132 
C 2.683901 1.55874 3 0.795609 3 0 
C 3 -0.795609 2.683901 -1.55874 2.12132 -2.12132 
C 1.55874 -2.683901 0.795609 -3 0 -3 
C -0.795609 -3 -1.55874 -2.683901 -2.12132 -2.12132 
C -2.683901 -1.55874 -3 -0.795609 -3 0 
C -3 0.795609 -2.683901 1.55874 -2.12132 2.12132 
C -1.55874 2.683901 -0.795609 3 0 3 
z
" id="mde4ce4d7b1" style="stroke:#c44e52;"/>
     </defs>
     <g>
      <use style="fill:#c44e52;stroke:#c44e52;" x="608.082656" xlink:href="#mde4ce4d7b1" y="147.917656"/>
     </g>
    </g>
    <g id="text_25">
     <!-- P -->
     <defs>
      <path d="M 7.71875 0 
L 7.71875 71.578125 
L 34.71875 71.578125 
Q 41.84375 71.578125 45.609375 70.90625 
Q 50.875 70.015625 54.4375 67.546875 
Q 58.015625 65.09375 60.1875 60.640625 
Q 62.359375 56.203125 62.359375 50.875 
Q 62.359375 41.75 56.546875 35.421875 
Q 50.734375 29.109375 35.546875 29.109375 
L 17.1875 29.109375 
L 17.1875 0 
z
M 17.1875 37.546875 
L 35.6875 37.546875 
Q 44.875 37.546875 48.734375 40.96875 
Q 52.59375 44.390625 52.59375 50.59375 
Q 52.59375 55.078125 50.3125 58.265625 
Q 48.046875 61.46875 44.34375 62.5 
Q 41.9375 63.140625 35.5 63.140625 
L 17.1875 63.140625 
z
" id="ArialMT-80"/>
     </defs>
     <g style="fill:#262626;" transform="translate(627.882656 151.767656)scale(0.11 -0.11)">
      <use xlink:href="#ArialMT-80"/>
     </g>
    </g>
    <g id="line2d_52">
     <path d="M 597.082656 163.4775 
L 619.082656 163.4775 
" style="fill:none;stroke:#64b5cd;stroke-linecap:round;stroke-width:1.5;"/>
    </g>
    <g id="line2d_53">
     <defs>
      <path d="M 0 3 
C 0.795609 3 1.55874 2.683901 2.12132 2.12132 
C 2.683901 1.55874 3 0.795609 3 0 
C 3 -0.795609 2.683901 -1.55874 2.12132 -2.12132 
C 1.55874 -2.683901 0.795609 -3 0 -3 
C -0.795609 -3 -1.55874 -2.683901 -2.12132 -2.12132 
C -2.683901 -1.55874 -3 -0.795609 -3 0 
C -3 0.795609 -2.683901 1.55874 -2.12132 2.12132 
C -1.55874 2.683901 -0.795609 3 0 3 
z
" id="mecec9700bf" style="stroke:#64b5cd;"/>
     </defs>
     <g>
      <use style="fill:#64b5cd;stroke:#64b5cd;" x="608.082656" xlink:href="#mecec9700bf" y="163.4775"/>
     </g>
    </g>
    <g id="text_26">
     <!-- O -->
     <defs>
      <path d="M 4.828125 34.859375 
Q 4.828125 52.6875 14.390625 62.765625 
Q 23.96875 72.859375 39.109375 72.859375 
Q 49.03125 72.859375 56.984375 68.109375 
Q 64.9375 63.375 69.109375 54.90625 
Q 73.296875 46.4375 73.296875 35.6875 
Q 73.296875 24.8125 68.890625 16.21875 
Q 64.5 7.625 56.4375 3.203125 
Q 48.390625 -1.21875 39.0625 -1.21875 
Q 28.953125 -1.21875 20.984375 3.65625 
Q 13.03125 8.546875 8.921875 16.984375 
Q 4.828125 25.4375 4.828125 34.859375 
z
M 14.59375 34.71875 
Q 14.59375 21.78125 21.546875 14.328125 
Q 28.515625 6.890625 39.015625 6.890625 
Q 49.703125 6.890625 56.609375 14.40625 
Q 63.53125 21.921875 63.53125 35.75 
Q 63.53125 44.484375 60.578125 51 
Q 57.625 57.515625 51.921875 61.109375 
Q 46.234375 64.703125 39.15625 64.703125 
Q 29.109375 64.703125 21.84375 57.78125 
Q 14.59375 50.875 14.59375 34.71875 
z
" id="ArialMT-79"/>
     </defs>
     <g style="fill:#262626;" transform="translate(627.882656 167.3275)scale(0.11 -0.11)">
      <use xlink:href="#ArialMT-79"/>
     </g>
    </g>
    <g id="line2d_54">
     <path d="M 597.082656 179.037344 
L 619.082656 179.037344 
" style="fill:none;stroke:#8172b3;stroke-linecap:round;stroke-width:1.5;"/>
    </g>
    <g id="line2d_55">
     <defs>
      <path d="M 0 3 
C 0.795609 3 1.55874 2.683901 2.12132 2.12132 
C 2.683901 1.55874 3 0.795609 3 0 
C 3 -0.795609 2.683901 -1.55874 2.12132 -2.12132 
C 1.55874 -2.683901 0.795609 -3 0 -3 
C -0.795609 -3 -1.55874 -2.683901 -2.12132 -2.12132 
C -2.683901 -1.55874 -3 -0.795609 -3 0 
C -3 0.795609 -2.683901 1.55874 -2.12132 2.12132 
C -1.55874 2.683901 -0.795609 3 0 3 
z
" id="mb7e121f9cd" style="stroke:#8172b3;"/>
     </defs>
     <g>
      <use style="fill:#8172b3;stroke:#8172b3;" x="608.082656" xlink:href="#mb7e121f9cd" y="179.037344"/>
     </g>
    </g>
    <g id="text_27">
     <!-- N -->
     <defs>
      <path d="M 7.625 0 
L 7.625 71.578125 
L 17.328125 71.578125 
L 54.9375 15.375 
L 54.9375 71.578125 
L 64.015625 71.578125 
L 64.015625 0 
L 54.296875 0 
L 16.703125 56.25 
L 16.703125 0 
z
" id="ArialMT-78"/>
     </defs>
     <g style="fill:#262626;" transform="translate(627.882656 182.887344)scale(0.11 -0.11)">
      <use xlink:href="#ArialMT-78"/>
     </g>
    </g>
   </g>
   <g id="Path3DCollection_5">
    <g clip-path="url(#p76f5bf3ea8)">
     <use style="fill:#55a868;stroke:#55a868;" x="269.45782" xlink:href="#m5dee9954e5" y="400.406525"/>
    </g>
   </g>
   <g id="Path3DCollection_6">
    <g clip-path="url(#p76f5bf3ea8)">
     <use style="fill:#55a868;stroke:#55a868;" x="264.33442" xlink:href="#m5dee9954e5" y="399.887071"/>
    </g>
   </g>
   <g id="Path3DCollection_7">
    <g clip-path="url(#p76f5bf3ea8)">
     <use style="fill:#55a868;stroke:#55a868;" x="260.702124" xlink:href="#m5dee9954e5" y="391.69708"/>
    </g>
   </g>
   <g id="Path3DCollection_8">
    <defs>
     <path d="M 0 2.236068 
C 0.593012 2.236068 1.161816 2.000462 1.581139 1.581139 
C 2.000462 1.161816 2.236068 0.593012 2.236068 0 
C 2.236068 -0.593012 2.000462 -1.161816 1.581139 -1.581139 
C 1.161816 -2.000462 0.593012 -2.236068 0 -2.236068 
C -0.593012 -2.236068 -1.161816 -2.000462 -1.581139 -1.581139 
C -2.000462 -1.161816 -2.236068 -0.593012 -2.236068 0 
C -2.236068 0.593012 -2.000462 1.161816 -1.581139 1.581139 
C -1.161816 2.000462 -0.593012 2.236068 0 2.236068 
z
" id="mc9f5c45602" style="stroke:#8172b3;"/>
    </defs>
    <g clip-path="url(#p76f5bf3ea8)">
     <use style="fill:#8172b3;stroke:#8172b3;" x="557.69324" xlink:href="#mc9f5c45602" y="422.873323"/>
    </g>
   </g>
   <g id="Path3DCollection_9">
    <defs>
     <path d="M 0 2.236068 
C 0.593012 2.236068 1.161816 2.000462 1.581139 1.581139 
C 2.000462 1.161816 2.236068 0.593012 2.236068 0 
C 2.236068 -0.593012 2.000462 -1.161816 1.581139 -1.581139 
C 1.161816 -2.000462 0.593012 -2.236068 0 -2.236068 
C -0.593012 -2.236068 -1.161816 -2.000462 -1.581139 -1.581139 
C -2.000462 -1.161816 -2.236068 -0.593012 -2.236068 0 
C -2.236068 0.593012 -2.000462 1.161816 -1.581139 1.581139 
C -1.161816 2.000462 -0.593012 2.236068 0 2.236068 
z
" id="m1daf1e306e" style="stroke:#4c72b0;"/>
    </defs>
    <g clip-path="url(#p76f5bf3ea8)">
     <use style="fill:#4c72b0;stroke:#4c72b0;" x="273.08129" xlink:href="#m1daf1e306e" y="391.643356"/>
    </g>
   </g>
   <g id="Path3DCollection_10">
    <g clip-path="url(#p76f5bf3ea8)">
     <use style="fill:#55a868;stroke:#55a868;" x="264.765755" xlink:href="#m5dee9954e5" y="394.105291"/>
    </g>
   </g>
   <g id="Path3DCollection_11">
    <g clip-path="url(#p76f5bf3ea8)">
     <use style="fill:#55a868;stroke:#55a868;" x="265.837718" xlink:href="#m5dee9954e5" y="393.709521"/>
    </g>
   </g>
   <g id="Path3DCollection_12">
    <g clip-path="url(#p76f5bf3ea8)">
     <use style="fill:#4c72b0;stroke:#4c72b0;" x="276.458587" xlink:href="#m1daf1e306e" y="379.690148"/>
    </g>
   </g>
   <g id="Path3DCollection_13">
    <g clip-path="url(#p76f5bf3ea8)">
     <use style="fill:#4c72b0;stroke:#4c72b0;" x="274.577925" xlink:href="#m1daf1e306e" y="382.033345"/>
    </g>
   </g>
   <g id="Path3DCollection_14">
    <g clip-path="url(#p76f5bf3ea8)">
     <use style="fill:#4c72b0;stroke:#4c72b0;" x="270.483799" xlink:href="#m1daf1e306e" y="389.73872"/>
    </g>
   </g>
   <g id="Path3DCollection_15">
    <g clip-path="url(#p76f5bf3ea8)">
     <use style="fill:#4c72b0;stroke:#4c72b0;" x="266.126195" xlink:href="#m1daf1e306e" y="383.71218"/>
    </g>
   </g>
   <g id="Path3DCollection_16">
    <g clip-path="url(#p76f5bf3ea8)">
     <use style="fill:#4c72b0;stroke:#4c72b0;" x="266.223332" xlink:href="#m1daf1e306e" y="381.572798"/>
    </g>
   </g>
   <g id="Path3DCollection_17">
    <g clip-path="url(#p76f5bf3ea8)">
     <use style="fill:#4c72b0;stroke:#4c72b0;" x="273.071548" xlink:href="#m1daf1e306e" y="384.501297"/>
    </g>
   </g>
   <g id="Path3DCollection_18">
    <g clip-path="url(#p76f5bf3ea8)">
     <use style="fill:#4c72b0;stroke:#4c72b0;" x="271.552928" xlink:href="#m1daf1e306e" y="381.679143"/>
    </g>
   </g>
   <g id="Path3DCollection_19">
    <g clip-path="url(#p76f5bf3ea8)">
     <use style="fill:#4c72b0;stroke:#4c72b0;" x="267.809858" xlink:href="#m1daf1e306e" y="377.627725"/>
    </g>
   </g>
   <g id="Path3DCollection_20">
    <g clip-path="url(#p76f5bf3ea8)">
     <use style="fill:#55a868;stroke:#55a868;" x="259.300117" xlink:href="#m5dee9954e5" y="381.89794"/>
    </g>
   </g>
   <g id="Path3DCollection_21">
    <g clip-path="url(#p76f5bf3ea8)">
     <use style="fill:#8172b3;stroke:#8172b3;" x="506.884549" xlink:href="#mc9f5c45602" y="450.13128"/>
    </g>
   </g>
   <g id="Path3DCollection_22">
    <g clip-path="url(#p76f5bf3ea8)">
     <use style="fill:#4c72b0;stroke:#4c72b0;" x="262.697612" xlink:href="#m1daf1e306e" y="378.845011"/>
    </g>
   </g>
   <g id="Path3DCollection_23">
    <g clip-path="url(#p76f5bf3ea8)">
     <use style="fill:#8172b3;stroke:#8172b3;" x="499.178324" xlink:href="#mc9f5c45602" y="425.604417"/>
    </g>
   </g>
   <g id="Path3DCollection_24">
    <g clip-path="url(#p76f5bf3ea8)">
     <use style="fill:#8172b3;stroke:#8172b3;" x="493.879694" xlink:href="#mc9f5c45602" y="423.85999"/>
    </g>
   </g>
   <g id="Path3DCollection_25">
    <g clip-path="url(#p76f5bf3ea8)">
     <use style="fill:#8172b3;stroke:#8172b3;" x="443.237973" xlink:href="#mc9f5c45602" y="451.281742"/>
    </g>
   </g>
   <g id="Path3DCollection_26">
    <g clip-path="url(#p76f5bf3ea8)">
     <use style="fill:#8172b3;stroke:#8172b3;" x="414.144867" xlink:href="#mc9f5c45602" y="433.747753"/>
    </g>
   </g>
   <g id="Path3DCollection_27">
    <defs>
     <path d="M 0 2.236068 
C 0.593012 2.236068 1.161816 2.000462 1.581139 1.581139 
C 2.000462 1.161816 2.236068 0.593012 2.236068 0 
C 2.236068 -0.593012 2.000462 -1.161816 1.581139 -1.581139 
C 1.161816 -2.000462 0.593012 -2.236068 0 -2.236068 
C -0.593012 -2.236068 -1.161816 -2.000462 -1.581139 -1.581139 
C -2.000462 -1.161816 -2.236068 -0.593012 -2.236068 0 
C -2.236068 0.593012 -2.000462 1.161816 -1.581139 1.581139 
C -1.161816 2.000462 -0.593012 2.236068 0 2.236068 
z
" id="m01fe1a4153" style="stroke:#64b5cd;"/>
    </defs>
    <g clip-path="url(#p76f5bf3ea8)">
     <use style="fill:#64b5cd;stroke:#64b5cd;" x="298.191606" xlink:href="#m01fe1a4153" y="514.331274"/>
    </g>
   </g>
   <g id="Path3DCollection_28">
    <g clip-path="url(#p76f5bf3ea8)">
     <use style="fill:#64b5cd;stroke:#64b5cd;" x="296.901708" xlink:href="#m01fe1a4153" y="502.733712"/>
    </g>
   </g>
   <g id="Path3DCollection_29">
    <g clip-path="url(#p76f5bf3ea8)">
     <use style="fill:#64b5cd;stroke:#64b5cd;" x="300.802329" xlink:href="#m01fe1a4153" y="497.385125"/>
    </g>
   </g>
   <g id="Path3DCollection_30">
    <g clip-path="url(#p76f5bf3ea8)">
     <use style="fill:#64b5cd;stroke:#64b5cd;" x="291.847574" xlink:href="#m01fe1a4153" y="501.244087"/>
    </g>
   </g>
   <g id="Path3DCollection_31">
    <g clip-path="url(#p76f5bf3ea8)">
     <use style="fill:#8172b3;stroke:#8172b3;" x="348.768579" xlink:href="#mc9f5c45602" y="436.80354"/>
    </g>
   </g>
   <g id="Path3DCollection_32">
    <g clip-path="url(#p76f5bf3ea8)">
     <use style="fill:#64b5cd;stroke:#64b5cd;" x="302.777399" xlink:href="#m01fe1a4153" y="492.423852"/>
    </g>
   </g>
   <g id="Path3DCollection_33">
    <g clip-path="url(#p76f5bf3ea8)">
     <use style="fill:#64b5cd;stroke:#64b5cd;" x="306.078234" xlink:href="#m01fe1a4153" y="487.321855"/>
    </g>
   </g>
   <g id="Path3DCollection_34">
    <g clip-path="url(#p76f5bf3ea8)">
     <use style="fill:#8172b3;stroke:#8172b3;" x="383.633467" xlink:href="#mc9f5c45602" y="387.942201"/>
    </g>
   </g>
   <g id="Path3DCollection_35">
    <g clip-path="url(#p76f5bf3ea8)">
     <use style="fill:#64b5cd;stroke:#64b5cd;" x="290.70943" xlink:href="#m01fe1a4153" y="489.417326"/>
    </g>
   </g>
   <g id="Path3DCollection_36">
    <defs>
     <path d="M 0 2.236068 
C 0.593012 2.236068 1.161816 2.000462 1.581139 1.581139 
C 2.000462 1.161816 2.236068 0.593012 2.236068 0 
C 2.236068 -0.593012 2.000462 -1.161816 1.581139 -1.581139 
C 1.161816 -2.000462 0.593012 -2.236068 0 -2.236068 
C -0.593012 -2.236068 -1.161816 -2.000462 -1.581139 -1.581139 
C -2.000462 -1.161816 -2.236068 -0.593012 -2.236068 0 
C -2.236068 0.593012 -2.000462 1.161816 -1.581139 1.581139 
C -1.161816 2.000462 -0.593012 2.236068 0 2.236068 
z
" id="m1630daaadf" style="stroke:#c44e52;"/>
    </defs>
    <g clip-path="url(#p76f5bf3ea8)">
     <use style="fill:#c44e52;stroke:#c44e52;" x="282.12154" xlink:href="#m1630daaadf" y="466.270528"/>
    </g>
   </g>
   <g id="Path3DCollection_37">
    <g clip-path="url(#p76f5bf3ea8)">
     <use style="fill:#c44e52;stroke:#c44e52;" x="291.838161" xlink:href="#m1630daaadf" y="460.442552"/>
    </g>
   </g>
   <g id="Path3DCollection_38">
    <g clip-path="url(#p76f5bf3ea8)">
     <use style="fill:#64b5cd;stroke:#64b5cd;" x="285.147108" xlink:href="#m01fe1a4153" y="488.724767"/>
    </g>
   </g>
   <g id="Path3DCollection_39">
    <g clip-path="url(#p76f5bf3ea8)">
     <use style="fill:#c44e52;stroke:#c44e52;" x="279.538729" xlink:href="#m1630daaadf" y="463.547284"/>
    </g>
   </g>
   <g id="Path3DCollection_40">
    <g clip-path="url(#p76f5bf3ea8)">
     <use style="fill:#64b5cd;stroke:#64b5cd;" x="281.328279" xlink:href="#m01fe1a4153" y="480.503561"/>
    </g>
   </g>
   <g id="Path3DCollection_41">
    <g clip-path="url(#p76f5bf3ea8)">
     <use style="fill:#c44e52;stroke:#c44e52;" x="287.759001" xlink:href="#m1630daaadf" y="455.275905"/>
    </g>
   </g>
   <g id="Path3DCollection_42">
    <g clip-path="url(#p76f5bf3ea8)">
     <use style="fill:#c44e52;stroke:#c44e52;" x="277.910087" xlink:href="#m1630daaadf" y="459.298767"/>
    </g>
   </g>
   <g id="Path3DCollection_43">
    <g clip-path="url(#p76f5bf3ea8)">
     <use style="fill:#c44e52;stroke:#c44e52;" x="272.646914" xlink:href="#m1630daaadf" y="464.011333"/>
    </g>
   </g>
   <g id="Path3DCollection_44">
    <g clip-path="url(#p76f5bf3ea8)">
     <use style="fill:#c44e52;stroke:#c44e52;" x="289.512579" xlink:href="#m1630daaadf" y="450.701388"/>
    </g>
   </g>
   <g id="Path3DCollection_45">
    <g clip-path="url(#p76f5bf3ea8)">
     <use style="fill:#c44e52;stroke:#c44e52;" x="276.346957" xlink:href="#m1630daaadf" y="459.0962"/>
    </g>
   </g>
   <g id="Path3DCollection_46">
    <g clip-path="url(#p76f5bf3ea8)">
     <use style="fill:#c44e52;stroke:#c44e52;" x="273.129248" xlink:href="#m1630daaadf" y="463.134969"/>
    </g>
   </g>
   <g id="Path3DCollection_47">
    <g clip-path="url(#p76f5bf3ea8)">
     <use style="fill:#c44e52;stroke:#c44e52;" x="276.606544" xlink:href="#m1630daaadf" y="455.648631"/>
    </g>
   </g>
   <g id="Path3DCollection_48">
    <g clip-path="url(#p76f5bf3ea8)">
     <use style="fill:#8172b3;stroke:#8172b3;" x="407.608735" xlink:href="#mc9f5c45602" y="246.461231"/>
    </g>
   </g>
  </g>
 </g>
 <defs>
  <clipPath id="p76f5bf3ea8">
   <rect height="543.6" width="558" x="90" y="86.4"/>
  </clipPath>
 </defs>
</svg>
