<?xml version="1.0" encoding="utf-8" standalone="no"?>
<!DOCTYPE svg PUBLIC "-//W3C//DTD SVG 1.1//EN"
  "http://www.w3.org/Graphics/SVG/1.1/DTD/svg11.dtd">
<!-- Created with matplotlib (https://matplotlib.org/) -->
<svg height="720pt" version="1.1" viewBox="0 0 720 720" width="720pt" xmlns="http://www.w3.org/2000/svg" xmlns:xlink="http://www.w3.org/1999/xlink">
 <defs>
  <style type="text/css">
*{stroke-linecap:butt;stroke-linejoin:round;}
  </style>
 </defs>
 <g id="figure_1">
  <g id="patch_1">
   <path d="M 0 720 
L 720 720 
L 720 0 
L 0 0 
z
" style="fill:#ffffff;"/>
  </g>
  <g id="axes_1">
   <g id="patch_2">
    <path d="M 90 630 
L 648 630 
L 648 86.4 
L 90 86.4 
z
" style="fill:#eaeaf2;"/>
   </g>
   <g id="matplotlib.axis_1">
    <g id="xtick_1">
     <g id="text_1">
      <!-- CCPent -->
      <defs>
       <path d="M 58.796875 25.09375 
L 68.265625 22.703125 
Q 65.28125 11.03125 57.546875 4.90625 
Q 49.8125 -1.21875 38.625 -1.21875 
Q 27.046875 -1.21875 19.796875 3.484375 
Q 12.546875 8.203125 8.765625 17.140625 
Q 4.984375 26.078125 4.984375 36.328125 
Q 4.984375 47.515625 9.25 55.828125 
Q 13.53125 64.15625 21.40625 68.46875 
Q 29.296875 72.796875 38.765625 72.796875 
Q 49.515625 72.796875 56.828125 67.328125 
Q 64.15625 61.859375 67.046875 51.953125 
L 57.71875 49.75 
Q 55.21875 57.5625 50.484375 61.125 
Q 45.75 64.703125 38.578125 64.703125 
Q 30.328125 64.703125 24.78125 60.734375 
Q 19.234375 56.78125 16.984375 50.109375 
Q 14.75 43.453125 14.75 36.375 
Q 14.75 27.25 17.40625 20.4375 
Q 20.0625 13.625 25.671875 10.25 
Q 31.296875 6.890625 37.84375 6.890625 
Q 45.796875 6.890625 51.3125 11.46875 
Q 56.84375 16.0625 58.796875 25.09375 
z
" id="ArialMT-67"/>
       <path d="M 7.71875 0 
L 7.71875 71.578125 
L 34.71875 71.578125 
Q 41.84375 71.578125 45.609375 70.90625 
Q 50.875 70.015625 54.4375 67.546875 
Q 58.015625 65.09375 60.1875 60.640625 
Q 62.359375 56.203125 62.359375 50.875 
Q 62.359375 41.75 56.546875 35.421875 
Q 50.734375 29.109375 35.546875 29.109375 
L 17.1875 29.109375 
L 17.1875 0 
z
M 17.1875 37.546875 
L 35.6875 37.546875 
Q 44.875 37.546875 48.734375 40.96875 
Q 52.59375 44.390625 52.59375 50.59375 
Q 52.59375 55.078125 50.3125 58.265625 
Q 48.046875 61.46875 44.34375 62.5 
Q 41.9375 63.140625 35.5 63.140625 
L 17.1875 63.140625 
z
" id="ArialMT-80"/>
       <path d="M 42.09375 16.703125 
L 51.171875 15.578125 
Q 49.03125 7.625 43.21875 3.21875 
Q 37.40625 -1.171875 28.375 -1.171875 
Q 17 -1.171875 10.328125 5.828125 
Q 3.65625 12.84375 3.65625 25.484375 
Q 3.65625 38.578125 10.390625 45.796875 
Q 17.140625 53.03125 27.875 53.03125 
Q 38.28125 53.03125 44.875 45.953125 
Q 51.46875 38.875 51.46875 26.03125 
Q 51.46875 25.25 51.421875 23.6875 
L 12.75 23.6875 
Q 13.234375 15.140625 17.578125 10.59375 
Q 21.921875 6.0625 28.421875 6.0625 
Q 33.25 6.0625 36.671875 8.59375 
Q 40.09375 11.140625 42.09375 16.703125 
z
M 13.234375 30.90625 
L 42.1875 30.90625 
Q 41.609375 37.453125 38.875 40.71875 
Q 34.671875 45.796875 27.984375 45.796875 
Q 21.921875 45.796875 17.796875 41.75 
Q 13.671875 37.703125 13.234375 30.90625 
z
" id="ArialMT-101"/>
       <path d="M 6.59375 0 
L 6.59375 51.859375 
L 14.5 51.859375 
L 14.5 44.484375 
Q 20.21875 53.03125 31 53.03125 
Q 35.6875 53.03125 39.625 51.34375 
Q 43.5625 49.65625 45.515625 46.921875 
Q 47.46875 44.1875 48.25 40.4375 
Q 48.734375 37.984375 48.734375 31.890625 
L 48.734375 0 
L 39.9375 0 
L 39.9375 31.546875 
Q 39.9375 36.921875 38.90625 39.578125 
Q 37.890625 42.234375 35.28125 43.8125 
Q 32.671875 45.40625 29.15625 45.40625 
Q 23.53125 45.40625 19.453125 41.84375 
Q 15.375 38.28125 15.375 28.328125 
L 15.375 0 
z
" id="ArialMT-110"/>
       <path d="M 25.78125 7.859375 
L 27.046875 0.09375 
Q 23.34375 -0.6875 20.40625 -0.6875 
Q 15.625 -0.6875 12.984375 0.828125 
Q 10.359375 2.34375 9.28125 4.8125 
Q 8.203125 7.28125 8.203125 15.1875 
L 8.203125 45.015625 
L 1.765625 45.015625 
L 1.765625 51.859375 
L 8.203125 51.859375 
L 8.203125 64.703125 
L 16.9375 69.96875 
L 16.9375 51.859375 
L 25.78125 51.859375 
L 25.78125 45.015625 
L 16.9375 45.015625 
L 16.9375 14.703125 
Q 16.9375 10.9375 17.40625 9.859375 
Q 17.875 8.796875 18.921875 8.15625 
Q 19.96875 7.515625 21.921875 7.515625 
Q 23.390625 7.515625 25.78125 7.859375 
z
" id="ArialMT-116"/>
      </defs>
      <g style="fill:#262626;" transform="translate(98.908889 678.015469)rotate(-90)scale(0.11 -0.11)">
       <use xlink:href="#ArialMT-67"/>
       <use x="72.216797" xlink:href="#ArialMT-67"/>
       <use x="144.433594" xlink:href="#ArialMT-80"/>
       <use x="211.132812" xlink:href="#ArialMT-101"/>
       <use x="266.748047" xlink:href="#ArialMT-110"/>
       <use x="322.363281" xlink:href="#ArialMT-116"/>
      </g>
     </g>
    </g>
    <g id="xtick_2">
     <g id="text_2">
      <!-- QLKEIA -->
      <defs>
       <path d="M 61.96875 7.671875 
Q 68.5625 3.125 74.125 1.03125 
L 71.34375 -5.5625 
Q 63.625 -2.78125 55.953125 3.21875 
Q 48 -1.21875 38.375 -1.21875 
Q 28.65625 -1.21875 20.75 3.46875 
Q 12.84375 8.15625 8.5625 16.640625 
Q 4.296875 25.140625 4.296875 35.796875 
Q 4.296875 46.390625 8.59375 55.078125 
Q 12.890625 63.765625 20.828125 68.3125 
Q 28.765625 72.859375 38.578125 72.859375 
Q 48.484375 72.859375 56.4375 68.140625 
Q 64.40625 63.421875 68.578125 54.953125 
Q 72.75 46.484375 72.75 35.84375 
Q 72.75 27 70.0625 19.9375 
Q 67.390625 12.890625 61.96875 7.671875 
z
M 41.109375 19.78125 
Q 49.3125 17.484375 54.640625 12.9375 
Q 62.984375 20.5625 62.984375 35.84375 
Q 62.984375 44.53125 60.03125 51.015625 
Q 57.078125 57.515625 51.390625 61.109375 
Q 45.703125 64.703125 38.625 64.703125 
Q 28.03125 64.703125 21.046875 57.453125 
Q 14.0625 50.203125 14.0625 35.796875 
Q 14.0625 21.828125 20.96875 14.359375 
Q 27.875 6.890625 38.625 6.890625 
Q 43.703125 6.890625 48.1875 8.796875 
Q 43.75 11.671875 38.8125 12.890625 
z
" id="ArialMT-81"/>
       <path d="M 7.328125 0 
L 7.328125 71.578125 
L 16.796875 71.578125 
L 16.796875 8.453125 
L 52.046875 8.453125 
L 52.046875 0 
z
" id="ArialMT-76"/>
       <path d="M 7.328125 0 
L 7.328125 71.578125 
L 16.796875 71.578125 
L 16.796875 36.078125 
L 52.34375 71.578125 
L 65.1875 71.578125 
L 35.15625 42.578125 
L 66.5 0 
L 54 0 
L 28.515625 36.234375 
L 16.796875 24.8125 
L 16.796875 0 
z
" id="ArialMT-75"/>
       <path d="M 7.90625 0 
L 7.90625 71.578125 
L 59.671875 71.578125 
L 59.671875 63.140625 
L 17.390625 63.140625 
L 17.390625 41.21875 
L 56.984375 41.21875 
L 56.984375 32.8125 
L 17.390625 32.8125 
L 17.390625 8.453125 
L 61.328125 8.453125 
L 61.328125 0 
z
" id="ArialMT-69"/>
       <path d="M 9.328125 0 
L 9.328125 71.578125 
L 18.796875 71.578125 
L 18.796875 0 
z
" id="ArialMT-73"/>
       <path d="M -0.140625 0 
L 27.34375 71.578125 
L 37.546875 71.578125 
L 66.84375 0 
L 56.0625 0 
L 47.703125 21.6875 
L 17.78125 21.6875 
L 9.90625 0 
z
M 20.515625 29.390625 
L 44.78125 29.390625 
L 37.3125 49.21875 
Q 33.890625 58.25 32.234375 64.0625 
Q 30.859375 57.171875 28.375 50.390625 
z
" id="ArialMT-65"/>
      </defs>
      <g style="fill:#262626;" transform="translate(111.039324 679.240937)rotate(-90)scale(0.11 -0.11)">
       <use xlink:href="#ArialMT-81"/>
       <use x="77.783203" xlink:href="#ArialMT-76"/>
       <use x="133.398438" xlink:href="#ArialMT-75"/>
       <use x="200.097656" xlink:href="#ArialMT-69"/>
       <use x="266.796875" xlink:href="#ArialMT-73"/>
       <use x="294.580078" xlink:href="#ArialMT-65"/>
      </g>
     </g>
    </g>
    <g id="xtick_3">
     <g id="text_3">
      <!-- CCHex2-I24K -->
      <defs>
       <path d="M 8.015625 0 
L 8.015625 71.578125 
L 17.484375 71.578125 
L 17.484375 42.1875 
L 54.6875 42.1875 
L 54.6875 71.578125 
L 64.15625 71.578125 
L 64.15625 0 
L 54.6875 0 
L 54.6875 33.734375 
L 17.484375 33.734375 
L 17.484375 0 
z
" id="ArialMT-72"/>
       <path d="M 0.734375 0 
L 19.671875 26.953125 
L 2.15625 51.859375 
L 13.140625 51.859375 
L 21.09375 39.703125 
Q 23.34375 36.234375 24.703125 33.890625 
Q 26.859375 37.109375 28.65625 39.59375 
L 37.40625 51.859375 
L 47.90625 51.859375 
L 29.984375 27.4375 
L 49.265625 0 
L 38.484375 0 
L 27.828125 16.109375 
L 25 20.453125 
L 11.375 0 
z
" id="ArialMT-120"/>
       <path d="M 50.34375 8.453125 
L 50.34375 0 
L 3.03125 0 
Q 2.9375 3.171875 4.046875 6.109375 
Q 5.859375 10.9375 9.828125 15.625 
Q 13.8125 20.3125 21.34375 26.46875 
Q 33.015625 36.03125 37.109375 41.625 
Q 41.21875 47.21875 41.21875 52.203125 
Q 41.21875 57.421875 37.46875 61 
Q 33.734375 64.59375 27.734375 64.59375 
Q 21.390625 64.59375 17.578125 60.78125 
Q 13.765625 56.984375 13.71875 50.25 
L 4.6875 51.171875 
Q 5.609375 61.28125 11.65625 66.578125 
Q 17.71875 71.875 27.9375 71.875 
Q 38.234375 71.875 44.234375 66.15625 
Q 50.25 60.453125 50.25 52 
Q 50.25 47.703125 48.484375 43.546875 
Q 46.734375 39.40625 42.65625 34.8125 
Q 38.578125 30.21875 29.109375 22.21875 
Q 21.1875 15.578125 18.9375 13.203125 
Q 16.703125 10.84375 15.234375 8.453125 
z
" id="ArialMT-50"/>
       <path d="M 3.171875 21.484375 
L 3.171875 30.328125 
L 30.171875 30.328125 
L 30.171875 21.484375 
z
" id="ArialMT-45"/>
       <path d="M 32.328125 0 
L 32.328125 17.140625 
L 1.265625 17.140625 
L 1.265625 25.203125 
L 33.9375 71.578125 
L 41.109375 71.578125 
L 41.109375 25.203125 
L 50.78125 25.203125 
L 50.78125 17.140625 
L 41.109375 17.140625 
L 41.109375 0 
z
M 32.328125 25.203125 
L 32.328125 57.46875 
L 9.90625 25.203125 
z
" id="ArialMT-52"/>
      </defs>
      <g style="fill:#262626;" transform="translate(123.169759 707.35625)rotate(-90)scale(0.11 -0.11)">
       <use xlink:href="#ArialMT-67"/>
       <use x="72.216797" xlink:href="#ArialMT-67"/>
       <use x="144.433594" xlink:href="#ArialMT-72"/>
       <use x="216.650391" xlink:href="#ArialMT-101"/>
       <use x="272.265625" xlink:href="#ArialMT-120"/>
       <use x="322.265625" xlink:href="#ArialMT-50"/>
       <use x="377.880859" xlink:href="#ArialMT-45"/>
       <use x="411.181641" xlink:href="#ArialMT-73"/>
       <use x="438.964844" xlink:href="#ArialMT-50"/>
       <use x="494.580078" xlink:href="#ArialMT-52"/>
       <use x="550.195312" xlink:href="#ArialMT-75"/>
      </g>
     </g>
    </g>
    <g id="xtick_4">
     <g id="text_4">
      <!-- CCHept-I24N -->
      <defs>
       <path d="M 6.59375 -19.875 
L 6.59375 51.859375 
L 14.59375 51.859375 
L 14.59375 45.125 
Q 17.4375 49.078125 21 51.046875 
Q 24.5625 53.03125 29.640625 53.03125 
Q 36.28125 53.03125 41.359375 49.609375 
Q 46.4375 46.1875 49.015625 39.953125 
Q 51.609375 33.734375 51.609375 26.3125 
Q 51.609375 18.359375 48.75 11.984375 
Q 45.90625 5.609375 40.453125 2.21875 
Q 35.015625 -1.171875 29 -1.171875 
Q 24.609375 -1.171875 21.109375 0.6875 
Q 17.625 2.546875 15.375 5.375 
L 15.375 -19.875 
z
M 14.546875 25.640625 
Q 14.546875 15.625 18.59375 10.84375 
Q 22.65625 6.0625 28.421875 6.0625 
Q 34.28125 6.0625 38.453125 11.015625 
Q 42.625 15.96875 42.625 26.375 
Q 42.625 36.28125 38.546875 41.203125 
Q 34.46875 46.140625 28.8125 46.140625 
Q 23.1875 46.140625 18.859375 40.890625 
Q 14.546875 35.640625 14.546875 25.640625 
z
" id="ArialMT-112"/>
       <path d="M 7.625 0 
L 7.625 71.578125 
L 17.328125 71.578125 
L 54.9375 15.375 
L 54.9375 71.578125 
L 64.015625 71.578125 
L 64.015625 0 
L 54.296875 0 
L 16.703125 56.25 
L 16.703125 0 
z
" id="ArialMT-78"/>
      </defs>
      <g style="fill:#262626;" transform="translate(135.367225 705.518906)rotate(-90)scale(0.11 -0.11)">
       <use xlink:href="#ArialMT-67"/>
       <use x="72.216797" xlink:href="#ArialMT-67"/>
       <use x="144.433594" xlink:href="#ArialMT-72"/>
       <use x="216.650391" xlink:href="#ArialMT-101"/>
       <use x="272.265625" xlink:href="#ArialMT-112"/>
       <use x="327.880859" xlink:href="#ArialMT-116"/>
       <use x="355.664062" xlink:href="#ArialMT-45"/>
       <use x="388.964844" xlink:href="#ArialMT-73"/>
       <use x="416.748047" xlink:href="#ArialMT-50"/>
       <use x="472.363281" xlink:href="#ArialMT-52"/>
       <use x="527.978516" xlink:href="#ArialMT-78"/>
      </g>
     </g>
    </g>
    <g id="xtick_5">
     <g id="text_5">
      <!-- CCHept-L28W -->
      <defs>
       <path d="M 17.671875 38.8125 
Q 12.203125 40.828125 9.5625 44.53125 
Q 6.9375 48.25 6.9375 53.421875 
Q 6.9375 61.234375 12.546875 66.546875 
Q 18.171875 71.875 27.484375 71.875 
Q 36.859375 71.875 42.578125 66.421875 
Q 48.296875 60.984375 48.296875 53.171875 
Q 48.296875 48.1875 45.671875 44.5 
Q 43.0625 40.828125 37.75 38.8125 
Q 44.34375 36.671875 47.78125 31.875 
Q 51.21875 27.09375 51.21875 20.453125 
Q 51.21875 11.28125 44.71875 5.03125 
Q 38.234375 -1.21875 27.640625 -1.21875 
Q 17.046875 -1.21875 10.546875 5.046875 
Q 4.046875 11.328125 4.046875 20.703125 
Q 4.046875 27.6875 7.59375 32.390625 
Q 11.140625 37.109375 17.671875 38.8125 
z
M 15.921875 53.71875 
Q 15.921875 48.640625 19.1875 45.40625 
Q 22.46875 42.1875 27.6875 42.1875 
Q 32.765625 42.1875 36.015625 45.375 
Q 39.265625 48.578125 39.265625 53.21875 
Q 39.265625 58.0625 35.90625 61.359375 
Q 32.5625 64.65625 27.59375 64.65625 
Q 22.5625 64.65625 19.234375 61.421875 
Q 15.921875 58.203125 15.921875 53.71875 
z
M 13.09375 20.65625 
Q 13.09375 16.890625 14.875 13.375 
Q 16.65625 9.859375 20.171875 7.921875 
Q 23.6875 6 27.734375 6 
Q 34.03125 6 38.125 10.046875 
Q 42.234375 14.109375 42.234375 20.359375 
Q 42.234375 26.703125 38.015625 30.859375 
Q 33.796875 35.015625 27.4375 35.015625 
Q 21.234375 35.015625 17.15625 30.90625 
Q 13.09375 26.8125 13.09375 20.65625 
z
" id="ArialMT-56"/>
       <path d="M 20.21875 0 
L 1.21875 71.578125 
L 10.9375 71.578125 
L 21.828125 24.65625 
Q 23.578125 17.28125 24.859375 10.015625 
Q 27.59375 21.484375 28.078125 23.25 
L 41.703125 71.578125 
L 53.125 71.578125 
L 63.375 35.359375 
Q 67.234375 21.875 68.953125 10.015625 
Q 70.3125 16.796875 72.515625 25.59375 
L 83.734375 71.578125 
L 93.265625 71.578125 
L 73.640625 0 
L 64.5 0 
L 49.421875 54.546875 
Q 47.515625 61.375 47.171875 62.9375 
Q 46.046875 58.015625 45.0625 54.546875 
L 29.890625 0 
z
" id="ArialMT-87"/>
      </defs>
      <g style="fill:#262626;" transform="translate(147.49766 711.018906)rotate(-90)scale(0.11 -0.11)">
       <use xlink:href="#ArialMT-67"/>
       <use x="72.216797" xlink:href="#ArialMT-67"/>
       <use x="144.433594" xlink:href="#ArialMT-72"/>
       <use x="216.650391" xlink:href="#ArialMT-101"/>
       <use x="272.265625" xlink:href="#ArialMT-112"/>
       <use x="327.880859" xlink:href="#ArialMT-116"/>
       <use x="355.664062" xlink:href="#ArialMT-45"/>
       <use x="388.964844" xlink:href="#ArialMT-76"/>
       <use x="444.580078" xlink:href="#ArialMT-50"/>
       <use x="500.195312" xlink:href="#ArialMT-56"/>
       <use x="555.810547" xlink:href="#ArialMT-87"/>
      </g>
     </g>
    </g>
    <g id="xtick_6">
     <g id="text_6">
      <!-- GRP22 -->
      <defs>
       <path d="M 41.21875 28.078125 
L 41.21875 36.46875 
L 71.53125 36.53125 
L 71.53125 9.96875 
Q 64.546875 4.390625 57.125 1.578125 
Q 49.703125 -1.21875 41.890625 -1.21875 
Q 31.34375 -1.21875 22.71875 3.296875 
Q 14.109375 7.8125 9.71875 16.359375 
Q 5.328125 24.90625 5.328125 35.453125 
Q 5.328125 45.90625 9.6875 54.953125 
Q 14.0625 64.015625 22.265625 68.40625 
Q 30.46875 72.796875 41.15625 72.796875 
Q 48.921875 72.796875 55.1875 70.28125 
Q 61.46875 67.78125 65.03125 63.28125 
Q 68.609375 58.796875 70.453125 51.5625 
L 61.921875 49.21875 
Q 60.296875 54.6875 57.90625 57.8125 
Q 55.515625 60.9375 51.0625 62.8125 
Q 46.625 64.703125 41.21875 64.703125 
Q 34.71875 64.703125 29.984375 62.71875 
Q 25.25 60.75 22.34375 57.515625 
Q 19.4375 54.296875 17.828125 50.4375 
Q 15.09375 43.796875 15.09375 36.03125 
Q 15.09375 26.46875 18.390625 20.015625 
Q 21.6875 13.578125 27.984375 10.453125 
Q 34.28125 7.328125 41.359375 7.328125 
Q 47.515625 7.328125 53.375 9.6875 
Q 59.234375 12.0625 62.25 14.75 
L 62.25 28.078125 
z
" id="ArialMT-71"/>
       <path d="M 7.859375 0 
L 7.859375 71.578125 
L 39.59375 71.578125 
Q 49.171875 71.578125 54.140625 69.640625 
Q 59.125 67.71875 62.109375 62.828125 
Q 65.09375 57.953125 65.09375 52.046875 
Q 65.09375 44.4375 60.15625 39.203125 
Q 55.21875 33.984375 44.921875 32.5625 
Q 48.6875 30.765625 50.640625 29 
Q 54.78125 25.203125 58.5 19.484375 
L 70.953125 0 
L 59.03125 0 
L 49.5625 14.890625 
Q 45.40625 21.34375 42.71875 24.75 
Q 40.046875 28.171875 37.921875 29.53125 
Q 35.796875 30.90625 33.59375 31.453125 
Q 31.984375 31.78125 28.328125 31.78125 
L 17.328125 31.78125 
L 17.328125 0 
z
M 17.328125 39.984375 
L 37.703125 39.984375 
Q 44.1875 39.984375 47.84375 41.328125 
Q 51.515625 42.671875 53.421875 45.625 
Q 55.328125 48.578125 55.328125 52.046875 
Q 55.328125 57.125 51.640625 60.390625 
Q 47.953125 63.671875 39.984375 63.671875 
L 17.328125 63.671875 
z
" id="ArialMT-82"/>
      </defs>
      <g style="fill:#262626;" transform="translate(159.561063 675.571406)rotate(-90)scale(0.11 -0.11)">
       <use xlink:href="#ArialMT-71"/>
       <use x="77.783203" xlink:href="#ArialMT-82"/>
       <use x="150" xlink:href="#ArialMT-80"/>
       <use x="216.699219" xlink:href="#ArialMT-50"/>
       <use x="272.314453" xlink:href="#ArialMT-50"/>
      </g>
     </g>
    </g>
    <g id="xtick_7">
     <g id="text_7">
      <!-- CCHex -->
      <g style="fill:#262626;" transform="translate(171.691498 674.949219)rotate(-90)scale(0.11 -0.11)">
       <use xlink:href="#ArialMT-67"/>
       <use x="72.216797" xlink:href="#ArialMT-67"/>
       <use x="144.433594" xlink:href="#ArialMT-72"/>
       <use x="216.650391" xlink:href="#ArialMT-101"/>
       <use x="272.265625" xlink:href="#ArialMT-120"/>
      </g>
     </g>
    </g>
    <g id="xtick_8">
     <g id="text_8">
      <!-- NLKEIA -->
      <g style="fill:#262626;" transform="translate(183.821933 678.629063)rotate(-90)scale(0.11 -0.11)">
       <use xlink:href="#ArialMT-78"/>
       <use x="72.216797" xlink:href="#ArialMT-76"/>
       <use x="127.832031" xlink:href="#ArialMT-75"/>
       <use x="194.53125" xlink:href="#ArialMT-69"/>
       <use x="261.230469" xlink:href="#ArialMT-73"/>
       <use x="289.013672" xlink:href="#ArialMT-65"/>
      </g>
     </g>
    </g>
    <g id="xtick_9">
     <g id="text_9">
      <!-- CCHept-L28K -->
      <g style="fill:#262626;" transform="translate(196.019399 707.973281)rotate(-90)scale(0.11 -0.11)">
       <use xlink:href="#ArialMT-67"/>
       <use x="72.216797" xlink:href="#ArialMT-67"/>
       <use x="144.433594" xlink:href="#ArialMT-72"/>
       <use x="216.650391" xlink:href="#ArialMT-101"/>
       <use x="272.265625" xlink:href="#ArialMT-112"/>
       <use x="327.880859" xlink:href="#ArialMT-116"/>
       <use x="355.664062" xlink:href="#ArialMT-45"/>
       <use x="388.964844" xlink:href="#ArialMT-76"/>
       <use x="444.580078" xlink:href="#ArialMT-50"/>
       <use x="500.195312" xlink:href="#ArialMT-56"/>
       <use x="555.810547" xlink:href="#ArialMT-75"/>
      </g>
     </g>
    </g>
    <g id="xtick_10">
     <g id="text_10">
      <!-- CCHept-I24T -->
      <defs>
       <path d="M 25.921875 0 
L 25.921875 63.140625 
L 2.34375 63.140625 
L 2.34375 71.578125 
L 59.078125 71.578125 
L 59.078125 63.140625 
L 35.40625 63.140625 
L 35.40625 0 
z
" id="ArialMT-84"/>
      </defs>
      <g style="fill:#262626;" transform="translate(208.149834 704.293437)rotate(-90)scale(0.11 -0.11)">
       <use xlink:href="#ArialMT-67"/>
       <use x="72.216797" xlink:href="#ArialMT-67"/>
       <use x="144.433594" xlink:href="#ArialMT-72"/>
       <use x="216.650391" xlink:href="#ArialMT-101"/>
       <use x="272.265625" xlink:href="#ArialMT-112"/>
       <use x="327.880859" xlink:href="#ArialMT-116"/>
       <use x="355.664062" xlink:href="#ArialMT-45"/>
       <use x="388.964844" xlink:href="#ArialMT-73"/>
       <use x="416.748047" xlink:href="#ArialMT-50"/>
       <use x="472.363281" xlink:href="#ArialMT-52"/>
       <use x="527.978516" xlink:href="#ArialMT-84"/>
      </g>
     </g>
    </g>
    <g id="xtick_11">
     <g id="text_11">
      <!-- CCHept-L7Y -->
      <defs>
       <path d="M 4.734375 62.203125 
L 4.734375 70.65625 
L 51.078125 70.65625 
L 51.078125 63.8125 
Q 44.234375 56.546875 37.515625 44.484375 
Q 30.8125 32.421875 27.15625 19.671875 
Q 24.515625 10.6875 23.78125 0 
L 14.75 0 
Q 14.890625 8.453125 18.0625 20.40625 
Q 21.234375 32.375 27.171875 43.484375 
Q 33.109375 54.59375 39.796875 62.203125 
z
" id="ArialMT-55"/>
       <path d="M 27.875 0 
L 27.875 30.328125 
L 0.296875 71.578125 
L 11.8125 71.578125 
L 25.921875 50 
Q 29.828125 43.953125 33.203125 37.890625 
Q 36.421875 43.5 41.015625 50.53125 
L 54.890625 71.578125 
L 65.921875 71.578125 
L 37.359375 30.328125 
L 37.359375 0 
z
" id="ArialMT-89"/>
      </defs>
      <g style="fill:#262626;" transform="translate(220.280268 701.85625)rotate(-90)scale(0.11 -0.11)">
       <use xlink:href="#ArialMT-67"/>
       <use x="72.216797" xlink:href="#ArialMT-67"/>
       <use x="144.433594" xlink:href="#ArialMT-72"/>
       <use x="216.650391" xlink:href="#ArialMT-101"/>
       <use x="272.265625" xlink:href="#ArialMT-112"/>
       <use x="327.880859" xlink:href="#ArialMT-116"/>
       <use x="355.664062" xlink:href="#ArialMT-45"/>
       <use x="388.964844" xlink:href="#ArialMT-76"/>
       <use x="444.580078" xlink:href="#ArialMT-55"/>
       <use x="500.195312" xlink:href="#ArialMT-89"/>
      </g>
     </g>
    </g>
    <g id="xtick_12">
     <g id="text_12">
      <!-- CCHex2 -->
      <g style="fill:#262626;" transform="translate(232.343672 681.06625)rotate(-90)scale(0.11 -0.11)">
       <use xlink:href="#ArialMT-67"/>
       <use x="72.216797" xlink:href="#ArialMT-67"/>
       <use x="144.433594" xlink:href="#ArialMT-72"/>
       <use x="216.650391" xlink:href="#ArialMT-101"/>
       <use x="272.265625" xlink:href="#ArialMT-120"/>
       <use x="322.265625" xlink:href="#ArialMT-50"/>
      </g>
     </g>
    </g>
    <g id="xtick_13">
     <g id="text_13">
      <!-- CCHept-I17G-L21G -->
      <defs>
       <path d="M 37.25 0 
L 28.46875 0 
L 28.46875 56 
Q 25.296875 52.984375 20.140625 49.953125 
Q 14.984375 46.921875 10.890625 45.40625 
L 10.890625 53.90625 
Q 18.265625 57.375 23.78125 62.296875 
Q 29.296875 67.234375 31.59375 71.875 
L 37.25 71.875 
z
" id="ArialMT-49"/>
      </defs>
      <g style="fill:#262626;" transform="translate(244.541138 736.700469)rotate(-90)scale(0.11 -0.11)">
       <use xlink:href="#ArialMT-67"/>
       <use x="72.216797" xlink:href="#ArialMT-67"/>
       <use x="144.433594" xlink:href="#ArialMT-72"/>
       <use x="216.650391" xlink:href="#ArialMT-101"/>
       <use x="272.265625" xlink:href="#ArialMT-112"/>
       <use x="327.880859" xlink:href="#ArialMT-116"/>
       <use x="355.664062" xlink:href="#ArialMT-45"/>
       <use x="388.964844" xlink:href="#ArialMT-73"/>
       <use x="416.748047" xlink:href="#ArialMT-49"/>
       <use x="472.363281" xlink:href="#ArialMT-55"/>
       <use x="527.978516" xlink:href="#ArialMT-71"/>
       <use x="605.761719" xlink:href="#ArialMT-45"/>
       <use x="639.0625" xlink:href="#ArialMT-76"/>
       <use x="694.677734" xlink:href="#ArialMT-50"/>
       <use x="750.292969" xlink:href="#ArialMT-49"/>
       <use x="805.908203" xlink:href="#ArialMT-71"/>
      </g>
     </g>
    </g>
    <g id="xtick_14">
     <g id="text_14">
      <!-- CCHept-I17H -->
      <g style="fill:#262626;" transform="translate(256.671573 705.518906)rotate(-90)scale(0.11 -0.11)">
       <use xlink:href="#ArialMT-67"/>
       <use x="72.216797" xlink:href="#ArialMT-67"/>
       <use x="144.433594" xlink:href="#ArialMT-72"/>
       <use x="216.650391" xlink:href="#ArialMT-101"/>
       <use x="272.265625" xlink:href="#ArialMT-112"/>
       <use x="327.880859" xlink:href="#ArialMT-116"/>
       <use x="355.664062" xlink:href="#ArialMT-45"/>
       <use x="388.964844" xlink:href="#ArialMT-73"/>
       <use x="416.748047" xlink:href="#ArialMT-49"/>
       <use x="472.363281" xlink:href="#ArialMT-55"/>
       <use x="527.978516" xlink:href="#ArialMT-72"/>
      </g>
     </g>
    </g>
    <g id="xtick_15">
     <g id="text_15">
      <!-- CCHept-I24H -->
      <g style="fill:#262626;" transform="translate(268.802007 705.518906)rotate(-90)scale(0.11 -0.11)">
       <use xlink:href="#ArialMT-67"/>
       <use x="72.216797" xlink:href="#ArialMT-67"/>
       <use x="144.433594" xlink:href="#ArialMT-72"/>
       <use x="216.650391" xlink:href="#ArialMT-101"/>
       <use x="272.265625" xlink:href="#ArialMT-112"/>
       <use x="327.880859" xlink:href="#ArialMT-116"/>
       <use x="355.664062" xlink:href="#ArialMT-45"/>
       <use x="388.964844" xlink:href="#ArialMT-73"/>
       <use x="416.748047" xlink:href="#ArialMT-50"/>
       <use x="472.363281" xlink:href="#ArialMT-52"/>
       <use x="527.978516" xlink:href="#ArialMT-72"/>
      </g>
     </g>
    </g>
    <g id="xtick_16">
     <g id="text_16">
      <!-- CCHept-L28Y -->
      <g style="fill:#262626;" transform="translate(280.932442 707.973281)rotate(-90)scale(0.11 -0.11)">
       <use xlink:href="#ArialMT-67"/>
       <use x="72.216797" xlink:href="#ArialMT-67"/>
       <use x="144.433594" xlink:href="#ArialMT-72"/>
       <use x="216.650391" xlink:href="#ArialMT-101"/>
       <use x="272.265625" xlink:href="#ArialMT-112"/>
       <use x="327.880859" xlink:href="#ArialMT-116"/>
       <use x="355.664062" xlink:href="#ArialMT-45"/>
       <use x="388.964844" xlink:href="#ArialMT-76"/>
       <use x="444.580078" xlink:href="#ArialMT-50"/>
       <use x="500.195312" xlink:href="#ArialMT-56"/>
       <use x="555.810547" xlink:href="#ArialMT-89"/>
      </g>
     </g>
    </g>
    <g id="xtick_17">
     <g id="text_17">
      <!-- GRP46 -->
      <defs>
       <path d="M 49.75 54.046875 
L 41.015625 53.375 
Q 39.84375 58.546875 37.703125 60.890625 
Q 34.125 64.65625 28.90625 64.65625 
Q 24.703125 64.65625 21.53125 62.3125 
Q 17.390625 59.28125 14.984375 53.46875 
Q 12.59375 47.65625 12.5 36.921875 
Q 15.671875 41.75 20.265625 44.09375 
Q 24.859375 46.4375 29.890625 46.4375 
Q 38.671875 46.4375 44.84375 39.96875 
Q 51.03125 33.5 51.03125 23.25 
Q 51.03125 16.5 48.125 10.71875 
Q 45.21875 4.9375 40.140625 1.859375 
Q 35.0625 -1.21875 28.609375 -1.21875 
Q 17.625 -1.21875 10.6875 6.859375 
Q 3.765625 14.9375 3.765625 33.5 
Q 3.765625 54.25 11.421875 63.671875 
Q 18.109375 71.875 29.4375 71.875 
Q 37.890625 71.875 43.28125 67.140625 
Q 48.6875 62.40625 49.75 54.046875 
z
M 13.875 23.1875 
Q 13.875 18.65625 15.796875 14.5 
Q 17.71875 10.359375 21.1875 8.171875 
Q 24.65625 6 28.46875 6 
Q 34.03125 6 38.03125 10.484375 
Q 42.046875 14.984375 42.046875 22.703125 
Q 42.046875 30.125 38.078125 34.390625 
Q 34.125 38.671875 28.125 38.671875 
Q 22.171875 38.671875 18.015625 34.390625 
Q 13.875 30.125 13.875 23.1875 
z
" id="ArialMT-54"/>
      </defs>
      <g style="fill:#262626;" transform="translate(292.995846 675.571406)rotate(-90)scale(0.11 -0.11)">
       <use xlink:href="#ArialMT-71"/>
       <use x="77.783203" xlink:href="#ArialMT-82"/>
       <use x="150" xlink:href="#ArialMT-80"/>
       <use x="216.699219" xlink:href="#ArialMT-52"/>
       <use x="272.314453" xlink:href="#ArialMT-54"/>
      </g>
     </g>
    </g>
    <g id="xtick_18">
     <g id="text_18">
      <!-- CCHept -->
      <g style="fill:#262626;" transform="translate(305.193312 678.622187)rotate(-90)scale(0.11 -0.11)">
       <use xlink:href="#ArialMT-67"/>
       <use x="72.216797" xlink:href="#ArialMT-67"/>
       <use x="144.433594" xlink:href="#ArialMT-72"/>
       <use x="216.650391" xlink:href="#ArialMT-101"/>
       <use x="272.265625" xlink:href="#ArialMT-112"/>
       <use x="327.880859" xlink:href="#ArialMT-116"/>
      </g>
     </g>
    </g>
    <g id="xtick_19">
     <g id="text_19">
      <!-- CCHept-I17A-L21A -->
      <g style="fill:#262626;" transform="translate(317.323747 734.263281)rotate(-90)scale(0.11 -0.11)">
       <use xlink:href="#ArialMT-67"/>
       <use x="72.216797" xlink:href="#ArialMT-67"/>
       <use x="144.433594" xlink:href="#ArialMT-72"/>
       <use x="216.650391" xlink:href="#ArialMT-101"/>
       <use x="272.265625" xlink:href="#ArialMT-112"/>
       <use x="327.880859" xlink:href="#ArialMT-116"/>
       <use x="355.664062" xlink:href="#ArialMT-45"/>
       <use x="388.964844" xlink:href="#ArialMT-73"/>
       <use x="416.748047" xlink:href="#ArialMT-49"/>
       <use x="472.363281" xlink:href="#ArialMT-55"/>
       <use x="527.978516" xlink:href="#ArialMT-65"/>
       <use x="594.677734" xlink:href="#ArialMT-45"/>
       <use x="627.978516" xlink:href="#ArialMT-76"/>
       <use x="683.59375" xlink:href="#ArialMT-50"/>
       <use x="739.208984" xlink:href="#ArialMT-49"/>
       <use x="794.824219" xlink:href="#ArialMT-65"/>
      </g>
     </g>
    </g>
    <g id="xtick_20">
     <g id="text_20">
      <!-- CCHept-I17K-L24E -->
      <g style="fill:#262626;" transform="translate(329.454181 734.263281)rotate(-90)scale(0.11 -0.11)">
       <use xlink:href="#ArialMT-67"/>
       <use x="72.216797" xlink:href="#ArialMT-67"/>
       <use x="144.433594" xlink:href="#ArialMT-72"/>
       <use x="216.650391" xlink:href="#ArialMT-101"/>
       <use x="272.265625" xlink:href="#ArialMT-112"/>
       <use x="327.880859" xlink:href="#ArialMT-116"/>
       <use x="355.664062" xlink:href="#ArialMT-45"/>
       <use x="388.964844" xlink:href="#ArialMT-73"/>
       <use x="416.748047" xlink:href="#ArialMT-49"/>
       <use x="472.363281" xlink:href="#ArialMT-55"/>
       <use x="527.978516" xlink:href="#ArialMT-75"/>
       <use x="594.677734" xlink:href="#ArialMT-45"/>
       <use x="627.978516" xlink:href="#ArialMT-76"/>
       <use x="683.59375" xlink:href="#ArialMT-50"/>
       <use x="739.208984" xlink:href="#ArialMT-52"/>
       <use x="794.824219" xlink:href="#ArialMT-69"/>
      </g>
     </g>
    </g>
    <g id="xtick_21">
     <g id="text_21">
      <!-- CCHept-L21S-I24S -->
      <defs>
       <path d="M 4.5 23 
L 13.421875 23.78125 
Q 14.0625 18.40625 16.375 14.96875 
Q 18.703125 11.53125 23.578125 9.40625 
Q 28.46875 7.28125 34.578125 7.28125 
Q 39.984375 7.28125 44.140625 8.890625 
Q 48.296875 10.5 50.3125 13.296875 
Q 52.34375 16.109375 52.34375 19.4375 
Q 52.34375 22.796875 50.390625 25.3125 
Q 48.4375 27.828125 43.953125 29.546875 
Q 41.0625 30.671875 31.203125 33.03125 
Q 21.34375 35.40625 17.390625 37.5 
Q 12.25 40.1875 9.734375 44.15625 
Q 7.234375 48.140625 7.234375 53.078125 
Q 7.234375 58.5 10.296875 63.203125 
Q 13.375 67.921875 19.28125 70.359375 
Q 25.203125 72.796875 32.421875 72.796875 
Q 40.375 72.796875 46.453125 70.234375 
Q 52.546875 67.671875 55.8125 62.6875 
Q 59.078125 57.71875 59.328125 51.421875 
L 50.25 50.734375 
Q 49.515625 57.515625 45.28125 60.984375 
Q 41.0625 64.453125 32.8125 64.453125 
Q 24.21875 64.453125 20.28125 61.296875 
Q 16.359375 58.15625 16.359375 53.71875 
Q 16.359375 49.859375 19.140625 47.359375 
Q 21.875 44.875 33.421875 42.265625 
Q 44.96875 39.65625 49.265625 37.703125 
Q 55.515625 34.8125 58.484375 30.390625 
Q 61.46875 25.984375 61.46875 20.21875 
Q 61.46875 14.5 58.203125 9.4375 
Q 54.9375 4.390625 48.796875 1.578125 
Q 42.671875 -1.21875 35.015625 -1.21875 
Q 25.296875 -1.21875 18.71875 1.609375 
Q 12.15625 4.4375 8.421875 10.125 
Q 4.6875 15.828125 4.5 23 
z
" id="ArialMT-83"/>
      </defs>
      <g style="fill:#262626;" transform="translate(341.584616 734.263281)rotate(-90)scale(0.11 -0.11)">
       <use xlink:href="#ArialMT-67"/>
       <use x="72.216797" xlink:href="#ArialMT-67"/>
       <use x="144.433594" xlink:href="#ArialMT-72"/>
       <use x="216.650391" xlink:href="#ArialMT-101"/>
       <use x="272.265625" xlink:href="#ArialMT-112"/>
       <use x="327.880859" xlink:href="#ArialMT-116"/>
       <use x="355.664062" xlink:href="#ArialMT-45"/>
       <use x="388.964844" xlink:href="#ArialMT-76"/>
       <use x="444.580078" xlink:href="#ArialMT-50"/>
       <use x="500.195312" xlink:href="#ArialMT-49"/>
       <use x="555.810547" xlink:href="#ArialMT-83"/>
       <use x="622.509766" xlink:href="#ArialMT-45"/>
       <use x="655.810547" xlink:href="#ArialMT-73"/>
       <use x="683.59375" xlink:href="#ArialMT-50"/>
       <use x="739.208984" xlink:href="#ArialMT-52"/>
       <use x="794.824219" xlink:href="#ArialMT-83"/>
      </g>
     </g>
    </g>
    <g id="xtick_22">
     <g id="text_22">
      <!-- CCHept-I24Y -->
      <g style="fill:#262626;" transform="translate(353.715051 704.912187)rotate(-90)scale(0.11 -0.11)">
       <use xlink:href="#ArialMT-67"/>
       <use x="72.216797" xlink:href="#ArialMT-67"/>
       <use x="144.433594" xlink:href="#ArialMT-72"/>
       <use x="216.650391" xlink:href="#ArialMT-101"/>
       <use x="272.265625" xlink:href="#ArialMT-112"/>
       <use x="327.880859" xlink:href="#ArialMT-116"/>
       <use x="355.664062" xlink:href="#ArialMT-45"/>
       <use x="388.964844" xlink:href="#ArialMT-73"/>
       <use x="416.748047" xlink:href="#ArialMT-50"/>
       <use x="472.363281" xlink:href="#ArialMT-52"/>
       <use x="527.978516" xlink:href="#ArialMT-89"/>
      </g>
     </g>
    </g>
    <g id="xtick_23">
     <g id="text_23">
      <!-- GRP51 -->
      <defs>
       <path d="M 4.15625 18.75 
L 13.375 19.53125 
Q 14.40625 12.796875 18.140625 9.390625 
Q 21.875 6 27.15625 6 
Q 33.5 6 37.890625 10.78125 
Q 42.28125 15.578125 42.28125 23.484375 
Q 42.28125 31 38.0625 35.34375 
Q 33.84375 39.703125 27 39.703125 
Q 22.75 39.703125 19.328125 37.765625 
Q 15.921875 35.84375 13.96875 32.765625 
L 5.71875 33.84375 
L 12.640625 70.609375 
L 48.25 70.609375 
L 48.25 62.203125 
L 19.671875 62.203125 
L 15.828125 42.96875 
Q 22.265625 47.46875 29.34375 47.46875 
Q 38.71875 47.46875 45.15625 40.96875 
Q 51.609375 34.46875 51.609375 24.265625 
Q 51.609375 14.546875 45.953125 7.46875 
Q 39.0625 -1.21875 27.15625 -1.21875 
Q 17.390625 -1.21875 11.203125 4.25 
Q 5.03125 9.71875 4.15625 18.75 
z
" id="ArialMT-53"/>
      </defs>
      <g style="fill:#262626;" transform="translate(365.778454 675.571406)rotate(-90)scale(0.11 -0.11)">
       <use xlink:href="#ArialMT-71"/>
       <use x="77.783203" xlink:href="#ArialMT-82"/>
       <use x="150" xlink:href="#ArialMT-80"/>
       <use x="216.699219" xlink:href="#ArialMT-53"/>
       <use x="272.314453" xlink:href="#ArialMT-49"/>
      </g>
     </g>
    </g>
    <g id="xtick_24">
     <g id="text_24">
      <!-- CCHept-I24D -->
      <defs>
       <path d="M 7.71875 0 
L 7.71875 71.578125 
L 32.375 71.578125 
Q 40.71875 71.578125 45.125 70.5625 
Q 51.265625 69.140625 55.609375 65.4375 
Q 61.28125 60.640625 64.078125 53.1875 
Q 66.890625 45.75 66.890625 36.1875 
Q 66.890625 28.03125 64.984375 21.734375 
Q 63.09375 15.4375 60.109375 11.296875 
Q 57.125 7.171875 53.578125 4.796875 
Q 50.046875 2.4375 45.046875 1.21875 
Q 40.046875 0 33.546875 0 
z
M 17.1875 8.453125 
L 32.46875 8.453125 
Q 39.546875 8.453125 43.578125 9.765625 
Q 47.609375 11.078125 50 13.484375 
Q 53.375 16.84375 55.25 22.53125 
Q 57.125 28.21875 57.125 36.328125 
Q 57.125 47.5625 53.4375 53.59375 
Q 49.75 59.625 44.484375 61.671875 
Q 40.671875 63.140625 32.234375 63.140625 
L 17.1875 63.140625 
z
" id="ArialMT-68"/>
      </defs>
      <g style="fill:#262626;" transform="translate(377.975921 705.518906)rotate(-90)scale(0.11 -0.11)">
       <use xlink:href="#ArialMT-67"/>
       <use x="72.216797" xlink:href="#ArialMT-67"/>
       <use x="144.433594" xlink:href="#ArialMT-72"/>
       <use x="216.650391" xlink:href="#ArialMT-101"/>
       <use x="272.265625" xlink:href="#ArialMT-112"/>
       <use x="327.880859" xlink:href="#ArialMT-116"/>
       <use x="355.664062" xlink:href="#ArialMT-45"/>
       <use x="388.964844" xlink:href="#ArialMT-73"/>
       <use x="416.748047" xlink:href="#ArialMT-50"/>
       <use x="472.363281" xlink:href="#ArialMT-52"/>
       <use x="527.978516" xlink:href="#ArialMT-68"/>
      </g>
     </g>
    </g>
    <g id="xtick_25">
     <g id="text_25">
      <!-- CCHept-L14A -->
      <g style="fill:#262626;" transform="translate(390.106355 707.973281)rotate(-90)scale(0.11 -0.11)">
       <use xlink:href="#ArialMT-67"/>
       <use x="72.216797" xlink:href="#ArialMT-67"/>
       <use x="144.433594" xlink:href="#ArialMT-72"/>
       <use x="216.650391" xlink:href="#ArialMT-101"/>
       <use x="272.265625" xlink:href="#ArialMT-112"/>
       <use x="327.880859" xlink:href="#ArialMT-116"/>
       <use x="355.664062" xlink:href="#ArialMT-45"/>
       <use x="388.964844" xlink:href="#ArialMT-76"/>
       <use x="444.580078" xlink:href="#ArialMT-49"/>
       <use x="500.195312" xlink:href="#ArialMT-52"/>
       <use x="555.810547" xlink:href="#ArialMT-65"/>
      </g>
     </g>
    </g>
    <g id="xtick_26">
     <g id="text_26">
      <!-- CCHept-L7K -->
      <g style="fill:#262626;" transform="translate(402.23679 701.85625)rotate(-90)scale(0.11 -0.11)">
       <use xlink:href="#ArialMT-67"/>
       <use x="72.216797" xlink:href="#ArialMT-67"/>
       <use x="144.433594" xlink:href="#ArialMT-72"/>
       <use x="216.650391" xlink:href="#ArialMT-101"/>
       <use x="272.265625" xlink:href="#ArialMT-112"/>
       <use x="327.880859" xlink:href="#ArialMT-116"/>
       <use x="355.664062" xlink:href="#ArialMT-45"/>
       <use x="388.964844" xlink:href="#ArialMT-76"/>
       <use x="444.580078" xlink:href="#ArialMT-55"/>
       <use x="500.195312" xlink:href="#ArialMT-75"/>
      </g>
     </g>
    </g>
    <g id="xtick_27">
     <g id="text_27">
      <!-- CCHept-L21N-I24N -->
      <g style="fill:#262626;" transform="translate(414.367225 735.476719)rotate(-90)scale(0.11 -0.11)">
       <use xlink:href="#ArialMT-67"/>
       <use x="72.216797" xlink:href="#ArialMT-67"/>
       <use x="144.433594" xlink:href="#ArialMT-72"/>
       <use x="216.650391" xlink:href="#ArialMT-101"/>
       <use x="272.265625" xlink:href="#ArialMT-112"/>
       <use x="327.880859" xlink:href="#ArialMT-116"/>
       <use x="355.664062" xlink:href="#ArialMT-45"/>
       <use x="388.964844" xlink:href="#ArialMT-76"/>
       <use x="444.580078" xlink:href="#ArialMT-50"/>
       <use x="500.195312" xlink:href="#ArialMT-49"/>
       <use x="555.810547" xlink:href="#ArialMT-78"/>
       <use x="628.027344" xlink:href="#ArialMT-45"/>
       <use x="661.328125" xlink:href="#ArialMT-73"/>
       <use x="689.111328" xlink:href="#ArialMT-50"/>
       <use x="744.726562" xlink:href="#ArialMT-52"/>
       <use x="800.341797" xlink:href="#ArialMT-78"/>
      </g>
     </g>
    </g>
    <g id="xtick_28">
     <g id="text_28">
      <!-- CCHept-L21S-I24Y -->
      <g style="fill:#262626;" transform="translate(426.49766 734.263281)rotate(-90)scale(0.11 -0.11)">
       <use xlink:href="#ArialMT-67"/>
       <use x="72.216797" xlink:href="#ArialMT-67"/>
       <use x="144.433594" xlink:href="#ArialMT-72"/>
       <use x="216.650391" xlink:href="#ArialMT-101"/>
       <use x="272.265625" xlink:href="#ArialMT-112"/>
       <use x="327.880859" xlink:href="#ArialMT-116"/>
       <use x="355.664062" xlink:href="#ArialMT-45"/>
       <use x="388.964844" xlink:href="#ArialMT-76"/>
       <use x="444.580078" xlink:href="#ArialMT-50"/>
       <use x="500.195312" xlink:href="#ArialMT-49"/>
       <use x="555.810547" xlink:href="#ArialMT-83"/>
       <use x="622.509766" xlink:href="#ArialMT-45"/>
       <use x="655.810547" xlink:href="#ArialMT-73"/>
       <use x="683.59375" xlink:href="#ArialMT-50"/>
       <use x="739.208984" xlink:href="#ArialMT-52"/>
       <use x="794.824219" xlink:href="#ArialMT-89"/>
      </g>
     </g>
    </g>
    <g id="xtick_29">
     <g id="text_29">
      <!-- GRP52 -->
      <g style="fill:#262626;" transform="translate(438.561063 675.571406)rotate(-90)scale(0.11 -0.11)">
       <use xlink:href="#ArialMT-71"/>
       <use x="77.783203" xlink:href="#ArialMT-82"/>
       <use x="150" xlink:href="#ArialMT-80"/>
       <use x="216.699219" xlink:href="#ArialMT-53"/>
       <use x="272.314453" xlink:href="#ArialMT-50"/>
      </g>
     </g>
    </g>
    <g id="xtick_30">
     <g id="text_30">
      <!-- CCHept-I24E -->
      <g style="fill:#262626;" transform="translate(450.758529 704.912187)rotate(-90)scale(0.11 -0.11)">
       <use xlink:href="#ArialMT-67"/>
       <use x="72.216797" xlink:href="#ArialMT-67"/>
       <use x="144.433594" xlink:href="#ArialMT-72"/>
       <use x="216.650391" xlink:href="#ArialMT-101"/>
       <use x="272.265625" xlink:href="#ArialMT-112"/>
       <use x="327.880859" xlink:href="#ArialMT-116"/>
       <use x="355.664062" xlink:href="#ArialMT-45"/>
       <use x="388.964844" xlink:href="#ArialMT-73"/>
       <use x="416.748047" xlink:href="#ArialMT-50"/>
       <use x="472.363281" xlink:href="#ArialMT-52"/>
       <use x="527.978516" xlink:href="#ArialMT-69"/>
      </g>
     </g>
    </g>
    <g id="xtick_31">
     <g id="text_31">
      <!-- CCHept-L21A -->
      <g style="fill:#262626;" transform="translate(462.888964 707.973281)rotate(-90)scale(0.11 -0.11)">
       <use xlink:href="#ArialMT-67"/>
       <use x="72.216797" xlink:href="#ArialMT-67"/>
       <use x="144.433594" xlink:href="#ArialMT-72"/>
       <use x="216.650391" xlink:href="#ArialMT-101"/>
       <use x="272.265625" xlink:href="#ArialMT-112"/>
       <use x="327.880859" xlink:href="#ArialMT-116"/>
       <use x="355.664062" xlink:href="#ArialMT-45"/>
       <use x="388.964844" xlink:href="#ArialMT-76"/>
       <use x="444.580078" xlink:href="#ArialMT-50"/>
       <use x="500.195312" xlink:href="#ArialMT-49"/>
       <use x="555.810547" xlink:href="#ArialMT-65"/>
      </g>
     </g>
    </g>
    <g id="xtick_32">
     <g id="text_32">
      <!-- CCHept-L21K-I24E -->
      <g style="fill:#262626;" transform="translate(475.019399 734.263281)rotate(-90)scale(0.11 -0.11)">
       <use xlink:href="#ArialMT-67"/>
       <use x="72.216797" xlink:href="#ArialMT-67"/>
       <use x="144.433594" xlink:href="#ArialMT-72"/>
       <use x="216.650391" xlink:href="#ArialMT-101"/>
       <use x="272.265625" xlink:href="#ArialMT-112"/>
       <use x="327.880859" xlink:href="#ArialMT-116"/>
       <use x="355.664062" xlink:href="#ArialMT-45"/>
       <use x="388.964844" xlink:href="#ArialMT-76"/>
       <use x="444.580078" xlink:href="#ArialMT-50"/>
       <use x="500.195312" xlink:href="#ArialMT-49"/>
       <use x="555.810547" xlink:href="#ArialMT-75"/>
       <use x="622.509766" xlink:href="#ArialMT-45"/>
       <use x="655.810547" xlink:href="#ArialMT-73"/>
       <use x="683.59375" xlink:href="#ArialMT-50"/>
       <use x="739.208984" xlink:href="#ArialMT-52"/>
       <use x="794.824219" xlink:href="#ArialMT-69"/>
      </g>
     </g>
    </g>
    <g id="xtick_33">
     <g id="text_33">
      <!-- CCHept-L21T-I24T -->
      <g style="fill:#262626;" transform="translate(487.149834 732.420781)rotate(-90)scale(0.11 -0.11)">
       <use xlink:href="#ArialMT-67"/>
       <use x="72.216797" xlink:href="#ArialMT-67"/>
       <use x="144.433594" xlink:href="#ArialMT-72"/>
       <use x="216.650391" xlink:href="#ArialMT-101"/>
       <use x="272.265625" xlink:href="#ArialMT-112"/>
       <use x="327.880859" xlink:href="#ArialMT-116"/>
       <use x="355.664062" xlink:href="#ArialMT-45"/>
       <use x="388.964844" xlink:href="#ArialMT-76"/>
       <use x="444.580078" xlink:href="#ArialMT-50"/>
       <use x="500.195312" xlink:href="#ArialMT-49"/>
       <use x="555.810547" xlink:href="#ArialMT-84"/>
       <use x="611.394531" xlink:href="#ArialMT-45"/>
       <use x="644.695312" xlink:href="#ArialMT-73"/>
       <use x="672.478516" xlink:href="#ArialMT-50"/>
       <use x="728.09375" xlink:href="#ArialMT-52"/>
       <use x="783.708984" xlink:href="#ArialMT-84"/>
      </g>
     </g>
    </g>
    <g id="xtick_34">
     <g id="text_34">
      <!-- CCHept-L21Y-I24S -->
      <g style="fill:#262626;" transform="translate(499.280268 733.259531)rotate(-90)scale(0.11 -0.11)">
       <use xlink:href="#ArialMT-67"/>
       <use x="72.216797" xlink:href="#ArialMT-67"/>
       <use x="144.433594" xlink:href="#ArialMT-72"/>
       <use x="216.650391" xlink:href="#ArialMT-101"/>
       <use x="272.265625" xlink:href="#ArialMT-112"/>
       <use x="327.880859" xlink:href="#ArialMT-116"/>
       <use x="355.664062" xlink:href="#ArialMT-45"/>
       <use x="388.964844" xlink:href="#ArialMT-76"/>
       <use x="444.580078" xlink:href="#ArialMT-50"/>
       <use x="500.195312" xlink:href="#ArialMT-49"/>
       <use x="555.810547" xlink:href="#ArialMT-89"/>
       <use x="613.384766" xlink:href="#ArialMT-45"/>
       <use x="646.685547" xlink:href="#ArialMT-73"/>
       <use x="674.46875" xlink:href="#ArialMT-50"/>
       <use x="730.083984" xlink:href="#ArialMT-52"/>
       <use x="785.699219" xlink:href="#ArialMT-83"/>
      </g>
     </g>
    </g>
    <g id="xtick_35">
     <g id="text_35">
      <!-- GRP63 -->
      <defs>
       <path d="M 4.203125 18.890625 
L 12.984375 20.0625 
Q 14.5 12.59375 18.140625 9.296875 
Q 21.78125 6 27 6 
Q 33.203125 6 37.46875 10.296875 
Q 41.75 14.59375 41.75 20.953125 
Q 41.75 27 37.796875 30.921875 
Q 33.84375 34.859375 27.734375 34.859375 
Q 25.25 34.859375 21.53125 33.890625 
L 22.515625 41.609375 
Q 23.390625 41.5 23.921875 41.5 
Q 29.546875 41.5 34.03125 44.421875 
Q 38.53125 47.359375 38.53125 53.46875 
Q 38.53125 58.296875 35.25 61.46875 
Q 31.984375 64.65625 26.8125 64.65625 
Q 21.6875 64.65625 18.265625 61.421875 
Q 14.84375 58.203125 13.875 51.765625 
L 5.078125 53.328125 
Q 6.6875 62.15625 12.390625 67.015625 
Q 18.109375 71.875 26.609375 71.875 
Q 32.46875 71.875 37.390625 69.359375 
Q 42.328125 66.84375 44.9375 62.5 
Q 47.5625 58.15625 47.5625 53.265625 
Q 47.5625 48.640625 45.0625 44.828125 
Q 42.578125 41.015625 37.703125 38.765625 
Q 44.046875 37.3125 47.5625 32.6875 
Q 51.078125 28.078125 51.078125 21.140625 
Q 51.078125 11.765625 44.234375 5.25 
Q 37.40625 -1.265625 26.953125 -1.265625 
Q 17.53125 -1.265625 11.296875 4.34375 
Q 5.078125 9.96875 4.203125 18.890625 
z
" id="ArialMT-51"/>
      </defs>
      <g style="fill:#262626;" transform="translate(511.343672 675.571406)rotate(-90)scale(0.11 -0.11)">
       <use xlink:href="#ArialMT-71"/>
       <use x="77.783203" xlink:href="#ArialMT-82"/>
       <use x="150" xlink:href="#ArialMT-80"/>
       <use x="216.699219" xlink:href="#ArialMT-54"/>
       <use x="272.314453" xlink:href="#ArialMT-51"/>
      </g>
     </g>
    </g>
    <g id="xtick_36">
     <g id="text_36">
      <!-- CCHept-I24K -->
      <g style="fill:#262626;" transform="translate(523.541138 704.912187)rotate(-90)scale(0.11 -0.11)">
       <use xlink:href="#ArialMT-67"/>
       <use x="72.216797" xlink:href="#ArialMT-67"/>
       <use x="144.433594" xlink:href="#ArialMT-72"/>
       <use x="216.650391" xlink:href="#ArialMT-101"/>
       <use x="272.265625" xlink:href="#ArialMT-112"/>
       <use x="327.880859" xlink:href="#ArialMT-116"/>
       <use x="355.664062" xlink:href="#ArialMT-45"/>
       <use x="388.964844" xlink:href="#ArialMT-73"/>
       <use x="416.748047" xlink:href="#ArialMT-50"/>
       <use x="472.363281" xlink:href="#ArialMT-52"/>
       <use x="527.978516" xlink:href="#ArialMT-75"/>
      </g>
     </g>
    </g>
    <g id="xtick_37">
     <g id="text_37">
      <!-- CCHept-L21K -->
      <g style="fill:#262626;" transform="translate(535.671573 707.973281)rotate(-90)scale(0.11 -0.11)">
       <use xlink:href="#ArialMT-67"/>
       <use x="72.216797" xlink:href="#ArialMT-67"/>
       <use x="144.433594" xlink:href="#ArialMT-72"/>
       <use x="216.650391" xlink:href="#ArialMT-101"/>
       <use x="272.265625" xlink:href="#ArialMT-112"/>
       <use x="327.880859" xlink:href="#ArialMT-116"/>
       <use x="355.664062" xlink:href="#ArialMT-45"/>
       <use x="388.964844" xlink:href="#ArialMT-76"/>
       <use x="444.580078" xlink:href="#ArialMT-50"/>
       <use x="500.195312" xlink:href="#ArialMT-49"/>
       <use x="555.810547" xlink:href="#ArialMT-75"/>
      </g>
     </g>
    </g>
    <g id="xtick_38">
     <g id="text_38">
      <!-- CCHept-L21E-I24K -->
      <g style="fill:#262626;" transform="translate(547.802007 734.263281)rotate(-90)scale(0.11 -0.11)">
       <use xlink:href="#ArialMT-67"/>
       <use x="72.216797" xlink:href="#ArialMT-67"/>
       <use x="144.433594" xlink:href="#ArialMT-72"/>
       <use x="216.650391" xlink:href="#ArialMT-101"/>
       <use x="272.265625" xlink:href="#ArialMT-112"/>
       <use x="327.880859" xlink:href="#ArialMT-116"/>
       <use x="355.664062" xlink:href="#ArialMT-45"/>
       <use x="388.964844" xlink:href="#ArialMT-76"/>
       <use x="444.580078" xlink:href="#ArialMT-50"/>
       <use x="500.195312" xlink:href="#ArialMT-49"/>
       <use x="555.810547" xlink:href="#ArialMT-69"/>
       <use x="622.509766" xlink:href="#ArialMT-45"/>
       <use x="655.810547" xlink:href="#ArialMT-73"/>
       <use x="683.59375" xlink:href="#ArialMT-50"/>
       <use x="739.208984" xlink:href="#ArialMT-52"/>
       <use x="794.824219" xlink:href="#ArialMT-75"/>
      </g>
     </g>
    </g>
    <g id="xtick_39">
     <g id="text_39">
      <!-- CCHept-L21H-I24H -->
      <g style="fill:#262626;" transform="translate(559.932442 735.476719)rotate(-90)scale(0.11 -0.11)">
       <use xlink:href="#ArialMT-67"/>
       <use x="72.216797" xlink:href="#ArialMT-67"/>
       <use x="144.433594" xlink:href="#ArialMT-72"/>
       <use x="216.650391" xlink:href="#ArialMT-101"/>
       <use x="272.265625" xlink:href="#ArialMT-112"/>
       <use x="327.880859" xlink:href="#ArialMT-116"/>
       <use x="355.664062" xlink:href="#ArialMT-45"/>
       <use x="388.964844" xlink:href="#ArialMT-76"/>
       <use x="444.580078" xlink:href="#ArialMT-50"/>
       <use x="500.195312" xlink:href="#ArialMT-49"/>
       <use x="555.810547" xlink:href="#ArialMT-72"/>
       <use x="628.027344" xlink:href="#ArialMT-45"/>
       <use x="661.328125" xlink:href="#ArialMT-73"/>
       <use x="689.111328" xlink:href="#ArialMT-50"/>
       <use x="744.726562" xlink:href="#ArialMT-52"/>
       <use x="800.341797" xlink:href="#ArialMT-72"/>
      </g>
     </g>
    </g>
    <g id="xtick_40">
     <g id="text_40">
      <!-- CCHept-I17T -->
      <g style="fill:#262626;" transform="translate(572.062877 704.293437)rotate(-90)scale(0.11 -0.11)">
       <use xlink:href="#ArialMT-67"/>
       <use x="72.216797" xlink:href="#ArialMT-67"/>
       <use x="144.433594" xlink:href="#ArialMT-72"/>
       <use x="216.650391" xlink:href="#ArialMT-101"/>
       <use x="272.265625" xlink:href="#ArialMT-112"/>
       <use x="327.880859" xlink:href="#ArialMT-116"/>
       <use x="355.664062" xlink:href="#ArialMT-45"/>
       <use x="388.964844" xlink:href="#ArialMT-73"/>
       <use x="416.748047" xlink:href="#ArialMT-49"/>
       <use x="472.363281" xlink:href="#ArialMT-55"/>
       <use x="527.978516" xlink:href="#ArialMT-84"/>
      </g>
     </g>
    </g>
    <g id="xtick_41">
     <g id="text_41">
      <!-- GRP80 -->
      <defs>
       <path d="M 4.15625 35.296875 
Q 4.15625 48 6.765625 55.734375 
Q 9.375 63.484375 14.515625 67.671875 
Q 19.671875 71.875 27.484375 71.875 
Q 33.25 71.875 37.59375 69.546875 
Q 41.9375 67.234375 44.765625 62.859375 
Q 47.609375 58.5 49.21875 52.21875 
Q 50.828125 45.953125 50.828125 35.296875 
Q 50.828125 22.703125 48.234375 14.96875 
Q 45.65625 7.234375 40.5 3 
Q 35.359375 -1.21875 27.484375 -1.21875 
Q 17.140625 -1.21875 11.234375 6.203125 
Q 4.15625 15.140625 4.15625 35.296875 
z
M 13.1875 35.296875 
Q 13.1875 17.671875 17.3125 11.828125 
Q 21.4375 6 27.484375 6 
Q 33.546875 6 37.671875 11.859375 
Q 41.796875 17.71875 41.796875 35.296875 
Q 41.796875 52.984375 37.671875 58.78125 
Q 33.546875 64.59375 27.390625 64.59375 
Q 21.34375 64.59375 17.71875 59.46875 
Q 13.1875 52.9375 13.1875 35.296875 
z
" id="ArialMT-48"/>
      </defs>
      <g style="fill:#262626;" transform="translate(584.126281 675.571406)rotate(-90)scale(0.11 -0.11)">
       <use xlink:href="#ArialMT-71"/>
       <use x="77.783203" xlink:href="#ArialMT-82"/>
       <use x="150" xlink:href="#ArialMT-80"/>
       <use x="216.699219" xlink:href="#ArialMT-56"/>
       <use x="272.314453" xlink:href="#ArialMT-48"/>
      </g>
     </g>
    </g>
    <g id="xtick_42">
     <g id="text_42">
      <!-- CCHept-I17K -->
      <g style="fill:#262626;" transform="translate(596.323747 704.912187)rotate(-90)scale(0.11 -0.11)">
       <use xlink:href="#ArialMT-67"/>
       <use x="72.216797" xlink:href="#ArialMT-67"/>
       <use x="144.433594" xlink:href="#ArialMT-72"/>
       <use x="216.650391" xlink:href="#ArialMT-101"/>
       <use x="272.265625" xlink:href="#ArialMT-112"/>
       <use x="327.880859" xlink:href="#ArialMT-116"/>
       <use x="355.664062" xlink:href="#ArialMT-45"/>
       <use x="388.964844" xlink:href="#ArialMT-73"/>
       <use x="416.748047" xlink:href="#ArialMT-49"/>
       <use x="472.363281" xlink:href="#ArialMT-55"/>
       <use x="527.978516" xlink:href="#ArialMT-75"/>
      </g>
     </g>
    </g>
    <g id="xtick_43">
     <g id="text_43">
      <!-- CCPent-I24K -->
      <g style="fill:#262626;" transform="translate(608.38715 704.305469)rotate(-90)scale(0.11 -0.11)">
       <use xlink:href="#ArialMT-67"/>
       <use x="72.216797" xlink:href="#ArialMT-67"/>
       <use x="144.433594" xlink:href="#ArialMT-80"/>
       <use x="211.132812" xlink:href="#ArialMT-101"/>
       <use x="266.748047" xlink:href="#ArialMT-110"/>
       <use x="322.363281" xlink:href="#ArialMT-116"/>
       <use x="350.146484" xlink:href="#ArialMT-45"/>
       <use x="383.447266" xlink:href="#ArialMT-73"/>
       <use x="411.230469" xlink:href="#ArialMT-50"/>
       <use x="466.845703" xlink:href="#ArialMT-52"/>
       <use x="522.460938" xlink:href="#ArialMT-75"/>
      </g>
     </g>
    </g>
    <g id="xtick_44">
     <g id="text_44">
      <!-- CCHept-I24S -->
      <g style="fill:#262626;" transform="translate(620.584616 704.912187)rotate(-90)scale(0.11 -0.11)">
       <use xlink:href="#ArialMT-67"/>
       <use x="72.216797" xlink:href="#ArialMT-67"/>
       <use x="144.433594" xlink:href="#ArialMT-72"/>
       <use x="216.650391" xlink:href="#ArialMT-101"/>
       <use x="272.265625" xlink:href="#ArialMT-112"/>
       <use x="327.880859" xlink:href="#ArialMT-116"/>
       <use x="355.664062" xlink:href="#ArialMT-45"/>
       <use x="388.964844" xlink:href="#ArialMT-73"/>
       <use x="416.748047" xlink:href="#ArialMT-50"/>
       <use x="472.363281" xlink:href="#ArialMT-52"/>
       <use x="527.978516" xlink:href="#ArialMT-83"/>
      </g>
     </g>
    </g>
    <g id="xtick_45">
     <g id="text_45">
      <!-- CCHept-L7W -->
      <g style="fill:#262626;" transform="translate(632.715051 704.901875)rotate(-90)scale(0.11 -0.11)">
       <use xlink:href="#ArialMT-67"/>
       <use x="72.216797" xlink:href="#ArialMT-67"/>
       <use x="144.433594" xlink:href="#ArialMT-72"/>
       <use x="216.650391" xlink:href="#ArialMT-101"/>
       <use x="272.265625" xlink:href="#ArialMT-112"/>
       <use x="327.880859" xlink:href="#ArialMT-116"/>
       <use x="355.664062" xlink:href="#ArialMT-45"/>
       <use x="388.964844" xlink:href="#ArialMT-76"/>
       <use x="444.580078" xlink:href="#ArialMT-55"/>
       <use x="500.195312" xlink:href="#ArialMT-87"/>
      </g>
     </g>
    </g>
    <g id="xtick_46">
     <g id="text_46">
      <!-- CCHept-I24P -->
      <g style="fill:#262626;" transform="translate(644.845486 704.912187)rotate(-90)scale(0.11 -0.11)">
       <use xlink:href="#ArialMT-67"/>
       <use x="72.216797" xlink:href="#ArialMT-67"/>
       <use x="144.433594" xlink:href="#ArialMT-72"/>
       <use x="216.650391" xlink:href="#ArialMT-101"/>
       <use x="272.265625" xlink:href="#ArialMT-112"/>
       <use x="327.880859" xlink:href="#ArialMT-116"/>
       <use x="355.664062" xlink:href="#ArialMT-45"/>
       <use x="388.964844" xlink:href="#ArialMT-73"/>
       <use x="416.748047" xlink:href="#ArialMT-50"/>
       <use x="472.363281" xlink:href="#ArialMT-52"/>
       <use x="527.978516" xlink:href="#ArialMT-80"/>
      </g>
     </g>
    </g>
   </g>
   <g id="matplotlib.axis_2">
    <g id="ytick_1">
     <g id="line2d_1">
      <path clip-path="url(#pfe584d9e7c)" d="M 90 630 
L 648 630 
" style="fill:none;stroke:#ffffff;stroke-linecap:round;"/>
     </g>
     <g id="text_47">
      <!-- 0.00 -->
      <defs>
       <path d="M 9.078125 0 
L 9.078125 10.015625 
L 19.09375 10.015625 
L 19.09375 0 
z
" id="ArialMT-46"/>
      </defs>
      <g style="fill:#262626;" transform="translate(59.092969 633.936797)scale(0.11 -0.11)">
       <use xlink:href="#ArialMT-48"/>
       <use x="55.615234" xlink:href="#ArialMT-46"/>
       <use x="83.398438" xlink:href="#ArialMT-48"/>
       <use x="139.013672" xlink:href="#ArialMT-48"/>
      </g>
     </g>
    </g>
    <g id="ytick_2">
     <g id="line2d_2">
      <path clip-path="url(#pfe584d9e7c)" d="M 90 560.922065 
L 648 560.922065 
" style="fill:none;stroke:#ffffff;stroke-linecap:round;"/>
     </g>
     <g id="text_48">
      <!-- 0.01 -->
      <g style="fill:#262626;" transform="translate(59.092969 564.858861)scale(0.11 -0.11)">
       <use xlink:href="#ArialMT-48"/>
       <use x="55.615234" xlink:href="#ArialMT-46"/>
       <use x="83.398438" xlink:href="#ArialMT-48"/>
       <use x="139.013672" xlink:href="#ArialMT-49"/>
      </g>
     </g>
    </g>
    <g id="ytick_3">
     <g id="line2d_3">
      <path clip-path="url(#pfe584d9e7c)" d="M 90 491.844129 
L 648 491.844129 
" style="fill:none;stroke:#ffffff;stroke-linecap:round;"/>
     </g>
     <g id="text_49">
      <!-- 0.02 -->
      <g style="fill:#262626;" transform="translate(59.092969 495.780926)scale(0.11 -0.11)">
       <use xlink:href="#ArialMT-48"/>
       <use x="55.615234" xlink:href="#ArialMT-46"/>
       <use x="83.398438" xlink:href="#ArialMT-48"/>
       <use x="139.013672" xlink:href="#ArialMT-50"/>
      </g>
     </g>
    </g>
    <g id="ytick_4">
     <g id="line2d_4">
      <path clip-path="url(#pfe584d9e7c)" d="M 90 422.766194 
L 648 422.766194 
" style="fill:none;stroke:#ffffff;stroke-linecap:round;"/>
     </g>
     <g id="text_50">
      <!-- 0.03 -->
      <g style="fill:#262626;" transform="translate(59.092969 426.70299)scale(0.11 -0.11)">
       <use xlink:href="#ArialMT-48"/>
       <use x="55.615234" xlink:href="#ArialMT-46"/>
       <use x="83.398438" xlink:href="#ArialMT-48"/>
       <use x="139.013672" xlink:href="#ArialMT-51"/>
      </g>
     </g>
    </g>
    <g id="ytick_5">
     <g id="line2d_5">
      <path clip-path="url(#pfe584d9e7c)" d="M 90 353.688258 
L 648 353.688258 
" style="fill:none;stroke:#ffffff;stroke-linecap:round;"/>
     </g>
     <g id="text_51">
      <!-- 0.04 -->
      <g style="fill:#262626;" transform="translate(59.092969 357.625055)scale(0.11 -0.11)">
       <use xlink:href="#ArialMT-48"/>
       <use x="55.615234" xlink:href="#ArialMT-46"/>
       <use x="83.398438" xlink:href="#ArialMT-48"/>
       <use x="139.013672" xlink:href="#ArialMT-52"/>
      </g>
     </g>
    </g>
    <g id="ytick_6">
     <g id="line2d_6">
      <path clip-path="url(#pfe584d9e7c)" d="M 90 284.610323 
L 648 284.610323 
" style="fill:none;stroke:#ffffff;stroke-linecap:round;"/>
     </g>
     <g id="text_52">
      <!-- 0.05 -->
      <g style="fill:#262626;" transform="translate(59.092969 288.547119)scale(0.11 -0.11)">
       <use xlink:href="#ArialMT-48"/>
       <use x="55.615234" xlink:href="#ArialMT-46"/>
       <use x="83.398438" xlink:href="#ArialMT-48"/>
       <use x="139.013672" xlink:href="#ArialMT-53"/>
      </g>
     </g>
    </g>
    <g id="ytick_7">
     <g id="line2d_7">
      <path clip-path="url(#pfe584d9e7c)" d="M 90 215.532387 
L 648 215.532387 
" style="fill:none;stroke:#ffffff;stroke-linecap:round;"/>
     </g>
     <g id="text_53">
      <!-- 0.06 -->
      <g style="fill:#262626;" transform="translate(59.092969 219.469184)scale(0.11 -0.11)">
       <use xlink:href="#ArialMT-48"/>
       <use x="55.615234" xlink:href="#ArialMT-46"/>
       <use x="83.398438" xlink:href="#ArialMT-48"/>
       <use x="139.013672" xlink:href="#ArialMT-54"/>
      </g>
     </g>
    </g>
    <g id="ytick_8">
     <g id="line2d_8">
      <path clip-path="url(#pfe584d9e7c)" d="M 90 146.454452 
L 648 146.454452 
" style="fill:none;stroke:#ffffff;stroke-linecap:round;"/>
     </g>
     <g id="text_54">
      <!-- 0.07 -->
      <g style="fill:#262626;" transform="translate(59.092969 150.391248)scale(0.11 -0.11)">
       <use xlink:href="#ArialMT-48"/>
       <use x="55.615234" xlink:href="#ArialMT-46"/>
       <use x="83.398438" xlink:href="#ArialMT-48"/>
       <use x="139.013672" xlink:href="#ArialMT-55"/>
      </g>
     </g>
    </g>
   </g>
   <g id="patch_3">
    <path clip-path="url(#pfe584d9e7c)" d="M 91.213043 630 
L 100.917391 630 
L 100.917391 444.012066 
L 91.213043 444.012066 
z
" style="fill:#ea96a3;stroke:#ffffff;stroke-linejoin:miter;"/>
   </g>
   <g id="patch_4">
    <path clip-path="url(#pfe584d9e7c)" d="M 103.343478 630 
L 113.047826 630 
L 113.047826 623.063729 
L 103.343478 623.063729 
z
" style="fill:#ea9798;stroke:#ffffff;stroke-linejoin:miter;"/>
   </g>
   <g id="patch_5">
    <path clip-path="url(#pfe584d9e7c)" d="M 115.473913 630 
L 125.178261 630 
L 125.178261 573.11981 
L 115.473913 573.11981 
z
" style="fill:#e89689;stroke:#ffffff;stroke-linejoin:miter;"/>
   </g>
   <g id="patch_6">
    <path clip-path="url(#pfe584d9e7c)" d="M 127.604348 630 
L 137.308696 630 
L 137.308696 479.058818 
L 127.604348 479.058818 
z
" style="fill:#e59472;stroke:#ffffff;stroke-linejoin:miter;"/>
   </g>
   <g id="patch_7">
    <path clip-path="url(#pfe584d9e7c)" d="M 139.734783 630 
L 149.43913 630 
L 149.43913 511.031863 
L 139.734783 511.031863 
z
" style="fill:#df914f;stroke:#ffffff;stroke-linejoin:miter;"/>
   </g>
   <g id="patch_8">
    <path clip-path="url(#pfe584d9e7c)" d="M 151.865217 630 
L 161.569565 630 
L 161.569565 112.285714 
L 151.865217 112.285714 
z
" style="fill:#d2954d;stroke:#ffffff;stroke-linejoin:miter;"/>
   </g>
   <g id="patch_9">
    <path clip-path="url(#pfe584d9e7c)" d="M 163.995652 630 
L 173.7 630 
L 173.7 559.837662 
L 163.995652 559.837662 
z
" style="fill:#c8984b;stroke:#ffffff;stroke-linejoin:miter;"/>
   </g>
   <g id="patch_10">
    <path clip-path="url(#pfe584d9e7c)" d="M 176.126087 630 
L 185.830435 630 
L 185.830435 411.43017 
L 176.126087 411.43017 
z
" style="fill:#be9b4a;stroke:#ffffff;stroke-linejoin:miter;"/>
   </g>
   <g id="patch_11">
    <path clip-path="url(#pfe584d9e7c)" d="M 188.256522 630 
L 197.96087 630 
L 197.96087 511.059776 
L 188.256522 511.059776 
z
" style="fill:#b69c49;stroke:#ffffff;stroke-linejoin:miter;"/>
   </g>
   <g id="patch_12">
    <path clip-path="url(#pfe584d9e7c)" d="M 200.386957 630 
L 210.091304 630 
L 210.091304 551.827066 
L 200.386957 551.827066 
z
" style="fill:#ad9e47;stroke:#ffffff;stroke-linejoin:miter;"/>
   </g>
   <g id="patch_13">
    <path clip-path="url(#pfe584d9e7c)" d="M 212.517391 630 
L 222.221739 630 
L 222.221739 484.115062 
L 212.517391 484.115062 
z
" style="fill:#a49f46;stroke:#ffffff;stroke-linejoin:miter;"/>
   </g>
   <g id="patch_14">
    <path clip-path="url(#pfe584d9e7c)" d="M 224.647826 630 
L 234.352174 630 
L 234.352174 564.486662 
L 224.647826 564.486662 
z
" style="fill:#9ca145;stroke:#ffffff;stroke-linejoin:miter;"/>
   </g>
   <g id="patch_15">
    <path clip-path="url(#pfe584d9e7c)" d="M 236.778261 630 
L 246.482609 630 
L 246.482609 321.210613 
L 236.778261 321.210613 
z
" style="fill:#93a346;stroke:#ffffff;stroke-linejoin:miter;"/>
   </g>
   <g id="patch_16">
    <path clip-path="url(#pfe584d9e7c)" d="M 248.908696 630 
L 258.613043 630 
L 258.613043 325.839944 
L 248.908696 325.839944 
z
" style="fill:#89a646;stroke:#ffffff;stroke-linejoin:miter;"/>
   </g>
   <g id="patch_17">
    <path clip-path="url(#pfe584d9e7c)" d="M 261.03913 630 
L 270.743478 630 
L 270.743478 540.176547 
L 261.03913 540.176547 
z
" style="fill:#7ca947;stroke:#ffffff;stroke-linejoin:miter;"/>
   </g>
   <g id="patch_18">
    <path clip-path="url(#pfe584d9e7c)" d="M 273.169565 630 
L 282.873913 630 
L 282.873913 480.619655 
L 273.169565 480.619655 
z
" style="fill:#69ad47;stroke:#ffffff;stroke-linejoin:miter;"/>
   </g>
   <g id="patch_19">
    <path clip-path="url(#pfe584d9e7c)" d="M 285.3 630 
L 295.004348 630 
L 295.004348 622.640869 
L 285.3 622.640869 
z
" style="fill:#48b14d;stroke:#ffffff;stroke-linejoin:miter;"/>
   </g>
   <g id="patch_20">
    <path clip-path="url(#pfe584d9e7c)" d="M 297.430435 630 
L 307.134783 630 
L 307.134783 620.774521 
L 297.430435 620.774521 
z
" style="fill:#48af6d;stroke:#ffffff;stroke-linejoin:miter;"/>
   </g>
   <g id="patch_21">
    <path clip-path="url(#pfe584d9e7c)" d="M 309.56087 630 
L 319.265217 630 
L 319.265217 364.451956 
L 309.56087 364.451956 
z
" style="fill:#49ae7e;stroke:#ffffff;stroke-linejoin:miter;"/>
   </g>
   <g id="patch_22">
    <path clip-path="url(#pfe584d9e7c)" d="M 321.691304 630 
L 331.395652 630 
L 331.395652 625.329 
L 321.691304 625.329 
z
" style="fill:#49ae89;stroke:#ffffff;stroke-linejoin:miter;"/>
   </g>
   <g id="patch_23">
    <path clip-path="url(#pfe584d9e7c)" d="M 333.821739 630 
L 343.526087 630 
L 343.526087 287.878191 
L 333.821739 287.878191 
z
" style="fill:#4aad91;stroke:#ffffff;stroke-linejoin:miter;"/>
   </g>
   <g id="patch_24">
    <path clip-path="url(#pfe584d9e7c)" d="M 345.952174 630 
L 355.656522 630 
L 355.656522 240.194403 
L 345.952174 240.194403 
z
" style="fill:#4aac98;stroke:#ffffff;stroke-linejoin:miter;"/>
   </g>
   <g id="patch_25">
    <path clip-path="url(#pfe584d9e7c)" d="M 358.082609 630 
L 367.786957 630 
L 367.786957 434.634234 
L 358.082609 434.634234 
z
" style="fill:#4bac9f;stroke:#ffffff;stroke-linejoin:miter;"/>
   </g>
   <g id="patch_26">
    <path clip-path="url(#pfe584d9e7c)" d="M 370.213043 630 
L 379.917391 630 
L 379.917391 493.115539 
L 370.213043 493.115539 
z
" style="fill:#4baba4;stroke:#ffffff;stroke-linejoin:miter;"/>
   </g>
   <g id="patch_27">
    <path clip-path="url(#pfe584d9e7c)" d="M 382.343478 630 
L 392.047826 630 
L 392.047826 459.821766 
L 382.343478 459.821766 
z
" style="fill:#4babaa;stroke:#ffffff;stroke-linejoin:miter;"/>
   </g>
   <g id="patch_28">
    <path clip-path="url(#pfe584d9e7c)" d="M 394.473913 630 
L 404.178261 630 
L 404.178261 487.452093 
L 394.473913 487.452093 
z
" style="fill:#4cabb0;stroke:#ffffff;stroke-linejoin:miter;"/>
   </g>
   <g id="patch_29">
    <path clip-path="url(#pfe584d9e7c)" d="M 406.604348 630 
L 416.308696 630 
L 416.308696 562.366413 
L 406.604348 562.366413 
z
" style="fill:#4eabb7;stroke:#ffffff;stroke-linejoin:miter;"/>
   </g>
   <g id="patch_30">
    <path clip-path="url(#pfe584d9e7c)" d="M 418.734783 630 
L 428.43913 630 
L 428.43913 202.652282 
L 418.734783 202.652282 
z
" style="fill:#4facbe;stroke:#ffffff;stroke-linejoin:miter;"/>
   </g>
   <g id="patch_31">
    <path clip-path="url(#pfe584d9e7c)" d="M 430.865217 630 
L 440.569565 630 
L 440.569565 427.635636 
L 430.865217 427.635636 
z
" style="fill:#51acc6;stroke:#ffffff;stroke-linejoin:miter;"/>
   </g>
   <g id="patch_32">
    <path clip-path="url(#pfe584d9e7c)" d="M 442.995652 630 
L 452.7 630 
L 452.7 435.650658 
L 442.995652 435.650658 
z
" style="fill:#53acd0;stroke:#ffffff;stroke-linejoin:miter;"/>
   </g>
   <g id="patch_33">
    <path clip-path="url(#pfe584d9e7c)" d="M 455.126087 630 
L 464.830435 630 
L 464.830435 415.679852 
L 455.126087 415.679852 
z
" style="fill:#56addd;stroke:#ffffff;stroke-linejoin:miter;"/>
   </g>
   <g id="patch_34">
    <path clip-path="url(#pfe584d9e7c)" d="M 467.256522 630 
L 476.96087 630 
L 476.96087 515.236827 
L 467.256522 515.236827 
z
" style="fill:#78aee4;stroke:#ffffff;stroke-linejoin:miter;"/>
   </g>
   <g id="patch_35">
    <path clip-path="url(#pfe584d9e7c)" d="M 479.386957 630 
L 489.091304 630 
L 489.091304 476.73743 
L 479.386957 476.73743 
z
" style="fill:#90aee7;stroke:#ffffff;stroke-linejoin:miter;"/>
   </g>
   <g id="patch_36">
    <path clip-path="url(#pfe584d9e7c)" d="M 491.517391 630 
L 501.221739 630 
L 501.221739 550.07498 
L 491.517391 550.07498 
z
" style="fill:#a2adea;stroke:#ffffff;stroke-linejoin:miter;"/>
   </g>
   <g id="patch_37">
    <path clip-path="url(#pfe584d9e7c)" d="M 503.647826 630 
L 513.352174 630 
L 513.352174 389.656147 
L 503.647826 389.656147 
z
" style="fill:#b0aaeb;stroke:#ffffff;stroke-linejoin:miter;"/>
   </g>
   <g id="patch_38">
    <path clip-path="url(#pfe584d9e7c)" d="M 515.778261 630 
L 525.482609 630 
L 525.482609 453.661442 
L 515.778261 453.661442 
z
" style="fill:#bba5ea;stroke:#ffffff;stroke-linejoin:miter;"/>
   </g>
   <g id="patch_39">
    <path clip-path="url(#pfe584d9e7c)" d="M 527.908696 630 
L 537.613043 630 
L 537.613043 546.181208 
L 527.908696 546.181208 
z
" style="fill:#c6a0ea;stroke:#ffffff;stroke-linejoin:miter;"/>
   </g>
   <g id="patch_40">
    <path clip-path="url(#pfe584d9e7c)" d="M 540.03913 630 
L 549.743478 630 
L 549.743478 542.170981 
L 540.03913 542.170981 
z
" style="fill:#d09ae9;stroke:#ffffff;stroke-linejoin:miter;"/>
   </g>
   <g id="patch_41">
    <path clip-path="url(#pfe584d9e7c)" d="M 552.169565 630 
L 561.873913 630 
L 561.873913 606.361851 
L 552.169565 606.361851 
z
" style="fill:#db92e8;stroke:#ffffff;stroke-linejoin:miter;"/>
   </g>
   <g id="patch_42">
    <path clip-path="url(#pfe584d9e7c)" d="M 564.3 630 
L 574.004348 630 
L 574.004348 614.666171 
L 564.3 614.666171 
z
" style="fill:#e688e6;stroke:#ffffff;stroke-linejoin:miter;"/>
   </g>
   <g id="patch_43">
    <path clip-path="url(#pfe584d9e7c)" d="M 576.430435 630 
L 586.134783 630 
L 586.134783 592.806352 
L 576.430435 592.806352 
z
" style="fill:#e78cda;stroke:#ffffff;stroke-linejoin:miter;"/>
   </g>
   <g id="patch_44">
    <path clip-path="url(#pfe584d9e7c)" d="M 588.56087 630 
L 598.265217 630 
L 598.265217 622.593611 
L 588.56087 622.593611 
z
" style="fill:#e88ed0;stroke:#ffffff;stroke-linejoin:miter;"/>
   </g>
   <g id="patch_45">
    <path clip-path="url(#pfe584d9e7c)" d="M 600.691304 630 
L 610.395652 630 
L 610.395652 589.270984 
L 600.691304 589.270984 
z
" style="fill:#e890c7;stroke:#ffffff;stroke-linejoin:miter;"/>
   </g>
   <g id="patch_46">
    <path clip-path="url(#pfe584d9e7c)" d="M 612.821739 630 
L 622.526087 630 
L 622.526087 440.192637 
L 612.821739 440.192637 
z
" style="fill:#e891bf;stroke:#ffffff;stroke-linejoin:miter;"/>
   </g>
   <g id="patch_47">
    <path clip-path="url(#pfe584d9e7c)" d="M 624.952174 630 
L 634.656522 630 
L 634.656522 529.674641 
L 624.952174 529.674641 
z
" style="fill:#e993b6;stroke:#ffffff;stroke-linejoin:miter;"/>
   </g>
   <g id="patch_48">
    <path clip-path="url(#pfe584d9e7c)" d="M 637.082609 630 
L 646.786957 630 
L 646.786957 429.468617 
L 637.082609 429.468617 
z
" style="fill:#e994ae;stroke:#ffffff;stroke-linejoin:miter;"/>
   </g>
   <g id="line2d_9">
    <path clip-path="url(#pfe584d9e7c)" d="M 0 0 
" style="fill:none;stroke:#424242;stroke-linecap:round;stroke-width:2.7;"/>
   </g>
   <g id="line2d_10">
    <path clip-path="url(#pfe584d9e7c)" d="M 0 0 
" style="fill:none;stroke:#424242;stroke-linecap:round;stroke-width:2.7;"/>
   </g>
   <g id="line2d_11">
    <path clip-path="url(#pfe584d9e7c)" d="M 0 0 
" style="fill:none;stroke:#424242;stroke-linecap:round;stroke-width:2.7;"/>
   </g>
   <g id="line2d_12">
    <path clip-path="url(#pfe584d9e7c)" d="M 0 0 
" style="fill:none;stroke:#424242;stroke-linecap:round;stroke-width:2.7;"/>
   </g>
   <g id="line2d_13">
    <path clip-path="url(#pfe584d9e7c)" d="M 0 0 
" style="fill:none;stroke:#424242;stroke-linecap:round;stroke-width:2.7;"/>
   </g>
   <g id="line2d_14">
    <path clip-path="url(#pfe584d9e7c)" d="M 0 0 
" style="fill:none;stroke:#424242;stroke-linecap:round;stroke-width:2.7;"/>
   </g>
   <g id="line2d_15">
    <path clip-path="url(#pfe584d9e7c)" d="M 0 0 
" style="fill:none;stroke:#424242;stroke-linecap:round;stroke-width:2.7;"/>
   </g>
   <g id="line2d_16">
    <path clip-path="url(#pfe584d9e7c)" d="M 0 0 
" style="fill:none;stroke:#424242;stroke-linecap:round;stroke-width:2.7;"/>
   </g>
   <g id="line2d_17">
    <path clip-path="url(#pfe584d9e7c)" d="M 0 0 
" style="fill:none;stroke:#424242;stroke-linecap:round;stroke-width:2.7;"/>
   </g>
   <g id="line2d_18">
    <path clip-path="url(#pfe584d9e7c)" d="M 0 0 
" style="fill:none;stroke:#424242;stroke-linecap:round;stroke-width:2.7;"/>
   </g>
   <g id="line2d_19">
    <path clip-path="url(#pfe584d9e7c)" d="M 0 0 
" style="fill:none;stroke:#424242;stroke-linecap:round;stroke-width:2.7;"/>
   </g>
   <g id="line2d_20">
    <path clip-path="url(#pfe584d9e7c)" d="M 0 0 
" style="fill:none;stroke:#424242;stroke-linecap:round;stroke-width:2.7;"/>
   </g>
   <g id="line2d_21">
    <path clip-path="url(#pfe584d9e7c)" d="M 0 0 
" style="fill:none;stroke:#424242;stroke-linecap:round;stroke-width:2.7;"/>
   </g>
   <g id="line2d_22">
    <path clip-path="url(#pfe584d9e7c)" d="M 0 0 
" style="fill:none;stroke:#424242;stroke-linecap:round;stroke-width:2.7;"/>
   </g>
   <g id="line2d_23">
    <path clip-path="url(#pfe584d9e7c)" d="M 0 0 
" style="fill:none;stroke:#424242;stroke-linecap:round;stroke-width:2.7;"/>
   </g>
   <g id="line2d_24">
    <path clip-path="url(#pfe584d9e7c)" d="M 0 0 
" style="fill:none;stroke:#424242;stroke-linecap:round;stroke-width:2.7;"/>
   </g>
   <g id="line2d_25">
    <path clip-path="url(#pfe584d9e7c)" d="M 0 0 
" style="fill:none;stroke:#424242;stroke-linecap:round;stroke-width:2.7;"/>
   </g>
   <g id="line2d_26">
    <path clip-path="url(#pfe584d9e7c)" d="M 0 0 
" style="fill:none;stroke:#424242;stroke-linecap:round;stroke-width:2.7;"/>
   </g>
   <g id="line2d_27">
    <path clip-path="url(#pfe584d9e7c)" d="M 0 0 
" style="fill:none;stroke:#424242;stroke-linecap:round;stroke-width:2.7;"/>
   </g>
   <g id="line2d_28">
    <path clip-path="url(#pfe584d9e7c)" d="M 0 0 
" style="fill:none;stroke:#424242;stroke-linecap:round;stroke-width:2.7;"/>
   </g>
   <g id="line2d_29">
    <path clip-path="url(#pfe584d9e7c)" d="M 0 0 
" style="fill:none;stroke:#424242;stroke-linecap:round;stroke-width:2.7;"/>
   </g>
   <g id="line2d_30">
    <path clip-path="url(#pfe584d9e7c)" d="M 0 0 
" style="fill:none;stroke:#424242;stroke-linecap:round;stroke-width:2.7;"/>
   </g>
   <g id="line2d_31">
    <path clip-path="url(#pfe584d9e7c)" d="M 0 0 
" style="fill:none;stroke:#424242;stroke-linecap:round;stroke-width:2.7;"/>
   </g>
   <g id="line2d_32">
    <path clip-path="url(#pfe584d9e7c)" d="M 0 0 
" style="fill:none;stroke:#424242;stroke-linecap:round;stroke-width:2.7;"/>
   </g>
   <g id="line2d_33">
    <path clip-path="url(#pfe584d9e7c)" d="M 0 0 
" style="fill:none;stroke:#424242;stroke-linecap:round;stroke-width:2.7;"/>
   </g>
   <g id="line2d_34">
    <path clip-path="url(#pfe584d9e7c)" d="M 0 0 
" style="fill:none;stroke:#424242;stroke-linecap:round;stroke-width:2.7;"/>
   </g>
   <g id="line2d_35">
    <path clip-path="url(#pfe584d9e7c)" d="M 0 0 
" style="fill:none;stroke:#424242;stroke-linecap:round;stroke-width:2.7;"/>
   </g>
   <g id="line2d_36">
    <path clip-path="url(#pfe584d9e7c)" d="M 0 0 
" style="fill:none;stroke:#424242;stroke-linecap:round;stroke-width:2.7;"/>
   </g>
   <g id="line2d_37">
    <path clip-path="url(#pfe584d9e7c)" d="M 0 0 
" style="fill:none;stroke:#424242;stroke-linecap:round;stroke-width:2.7;"/>
   </g>
   <g id="line2d_38">
    <path clip-path="url(#pfe584d9e7c)" d="M 0 0 
" style="fill:none;stroke:#424242;stroke-linecap:round;stroke-width:2.7;"/>
   </g>
   <g id="line2d_39">
    <path clip-path="url(#pfe584d9e7c)" d="M 0 0 
" style="fill:none;stroke:#424242;stroke-linecap:round;stroke-width:2.7;"/>
   </g>
   <g id="line2d_40">
    <path clip-path="url(#pfe584d9e7c)" d="M 0 0 
" style="fill:none;stroke:#424242;stroke-linecap:round;stroke-width:2.7;"/>
   </g>
   <g id="line2d_41">
    <path clip-path="url(#pfe584d9e7c)" d="M 0 0 
" style="fill:none;stroke:#424242;stroke-linecap:round;stroke-width:2.7;"/>
   </g>
   <g id="line2d_42">
    <path clip-path="url(#pfe584d9e7c)" d="M 0 0 
" style="fill:none;stroke:#424242;stroke-linecap:round;stroke-width:2.7;"/>
   </g>
   <g id="line2d_43">
    <path clip-path="url(#pfe584d9e7c)" d="M 0 0 
" style="fill:none;stroke:#424242;stroke-linecap:round;stroke-width:2.7;"/>
   </g>
   <g id="line2d_44">
    <path clip-path="url(#pfe584d9e7c)" d="M 0 0 
" style="fill:none;stroke:#424242;stroke-linecap:round;stroke-width:2.7;"/>
   </g>
   <g id="line2d_45">
    <path clip-path="url(#pfe584d9e7c)" d="M 0 0 
" style="fill:none;stroke:#424242;stroke-linecap:round;stroke-width:2.7;"/>
   </g>
   <g id="line2d_46">
    <path clip-path="url(#pfe584d9e7c)" d="M 0 0 
" style="fill:none;stroke:#424242;stroke-linecap:round;stroke-width:2.7;"/>
   </g>
   <g id="line2d_47">
    <path clip-path="url(#pfe584d9e7c)" d="M 0 0 
" style="fill:none;stroke:#424242;stroke-linecap:round;stroke-width:2.7;"/>
   </g>
   <g id="line2d_48">
    <path clip-path="url(#pfe584d9e7c)" d="M 0 0 
" style="fill:none;stroke:#424242;stroke-linecap:round;stroke-width:2.7;"/>
   </g>
   <g id="line2d_49">
    <path clip-path="url(#pfe584d9e7c)" d="M 0 0 
" style="fill:none;stroke:#424242;stroke-linecap:round;stroke-width:2.7;"/>
   </g>
   <g id="line2d_50">
    <path clip-path="url(#pfe584d9e7c)" d="M 0 0 
" style="fill:none;stroke:#424242;stroke-linecap:round;stroke-width:2.7;"/>
   </g>
   <g id="line2d_51">
    <path clip-path="url(#pfe584d9e7c)" d="M 0 0 
" style="fill:none;stroke:#424242;stroke-linecap:round;stroke-width:2.7;"/>
   </g>
   <g id="line2d_52">
    <path clip-path="url(#pfe584d9e7c)" d="M 0 0 
" style="fill:none;stroke:#424242;stroke-linecap:round;stroke-width:2.7;"/>
   </g>
   <g id="line2d_53">
    <path clip-path="url(#pfe584d9e7c)" d="M 0 0 
" style="fill:none;stroke:#424242;stroke-linecap:round;stroke-width:2.7;"/>
   </g>
   <g id="line2d_54">
    <path clip-path="url(#pfe584d9e7c)" d="M 0 0 
" style="fill:none;stroke:#424242;stroke-linecap:round;stroke-width:2.7;"/>
   </g>
   <g id="patch_49">
    <path d="M 90 630 
L 90 86.4 
" style="fill:none;stroke:#ffffff;stroke-linecap:square;stroke-linejoin:miter;stroke-width:1.25;"/>
   </g>
   <g id="patch_50">
    <path d="M 648 630 
L 648 86.4 
" style="fill:none;stroke:#ffffff;stroke-linecap:square;stroke-linejoin:miter;stroke-width:1.25;"/>
   </g>
   <g id="patch_51">
    <path d="M 90 630 
L 648 630 
" style="fill:none;stroke:#ffffff;stroke-linecap:square;stroke-linejoin:miter;stroke-width:1.25;"/>
   </g>
   <g id="patch_52">
    <path d="M 90 86.4 
L 648 86.4 
" style="fill:none;stroke:#ffffff;stroke-linecap:square;stroke-linejoin:miter;stroke-width:1.25;"/>
   </g>
  </g>
 </g>
 <defs>
  <clipPath id="pfe584d9e7c">
   <rect height="543.6" width="558" x="90" y="86.4"/>
  </clipPath>
 </defs>
</svg>
