<?xml version="1.0" encoding="utf-8" standalone="no"?>
<!DOCTYPE svg PUBLIC "-//W3C//DTD SVG 1.1//EN"
  "http://www.w3.org/Graphics/SVG/1.1/DTD/svg11.dtd">
<!-- Created with matplotlib (https://matplotlib.org/) -->
<svg height="720pt" version="1.1" viewBox="0 0 720 720" width="720pt" xmlns="http://www.w3.org/2000/svg" xmlns:xlink="http://www.w3.org/1999/xlink">
 <defs>
  <style type="text/css">
*{stroke-linecap:butt;stroke-linejoin:round;}
  </style>
 </defs>
 <g id="figure_1">
  <g id="patch_1">
   <path d="M 0 720 
L 720 720 
L 720 0 
L 0 0 
z
" style="fill:#ffffff;"/>
  </g>
  <g id="patch_2">
   <path d="M 90 630 
L 648 630 
L 648 86.4 
L 90 86.4 
z
" style="fill:#eaeaf2;"/>
  </g>
  <g id="pane3d_1">
   <g id="patch_3">
    <path d="M 163.971523 509.883558 
L 323.674042 376.605155 
L 321.015164 121.932002 
L 152.408183 241.679906 
" style="fill:#f2f2f2;opacity:0.5;stroke:#f2f2f2;stroke-linejoin:miter;"/>
   </g>
  </g>
  <g id="pane3d_2">
   <g id="patch_4">
    <path d="M 323.674042 376.605155 
L 582.377109 451.116383 
L 593.200935 188.763664 
L 321.015164 121.932002 
" style="fill:#e6e6e6;opacity:0.5;stroke:#e6e6e6;stroke-linejoin:miter;"/>
   </g>
  </g>
  <g id="pane3d_3">
   <g id="patch_5">
    <path d="M 163.971523 509.883558 
L 436.162105 596.664023 
L 582.377109 451.116383 
L 323.674042 376.605155 
" style="fill:#ececec;opacity:0.5;stroke:#ececec;stroke-linejoin:miter;"/>
   </g>
  </g>
  <g id="axis3d_1">
   <g id="line2d_1">
    <path d="M 163.971523 509.883558 
L 436.162105 596.664023 
" style="fill:none;stroke:#ffffff;stroke-linecap:round;stroke-width:1.25;"/>
   </g>
   <g id="Line3DCollection_1">
    <path d="M 196.022418 520.102102 
L 354.227009 385.40497 
L 353.098744 129.809706 
" style="fill:none;stroke:#ffffff;"/>
    <path d="M 242.819982 535.022216 
L 398.794077 398.241103 
L 399.928078 141.308037 
" style="fill:none;stroke:#ffffff;"/>
    <path d="M 290.372058 550.182885 
L 444.027042 411.269026 
L 447.493046 152.986994 
" style="fill:none;stroke:#ffffff;"/>
    <path d="M 338.69704 565.589973 
L 489.940942 424.493071 
L 495.811119 164.850866 
" style="fill:none;stroke:#ffffff;"/>
    <path d="M 387.813927 581.249539 
L 536.551268 437.9177 
L 544.900328 176.904081 
" style="fill:none;stroke:#ffffff;"/>
   </g>
   <g id="xtick_1">
    <g id="line2d_2">
     <path clip-path="url(#p8f8e7451f3)" d="M 376.540541 350.854054 
" style="fill:none;stroke:#ffffff;stroke-linecap:round;"/>
    </g>
    <g id="line2d_3">
     <path d="M 197.385689 518.941398 
L 193.290776 522.427852 
" style="fill:none;stroke:#262626;stroke-linecap:round;stroke-width:1.25;"/>
    </g>
    <g id="text_1">
     <!-- −0.4 -->
     <defs>
      <path d="M 52.828125 31.203125 
L 5.5625 31.203125 
L 5.5625 39.40625 
L 52.828125 39.40625 
z
" id="ArialMT-8722"/>
      <path d="M 4.15625 35.296875 
Q 4.15625 48 6.765625 55.734375 
Q 9.375 63.484375 14.515625 67.671875 
Q 19.671875 71.875 27.484375 71.875 
Q 33.25 71.875 37.59375 69.546875 
Q 41.9375 67.234375 44.765625 62.859375 
Q 47.609375 58.5 49.21875 52.21875 
Q 50.828125 45.953125 50.828125 35.296875 
Q 50.828125 22.703125 48.234375 14.96875 
Q 45.65625 7.234375 40.5 3 
Q 35.359375 -1.21875 27.484375 -1.21875 
Q 17.140625 -1.21875 11.234375 6.203125 
Q 4.15625 15.140625 4.15625 35.296875 
z
M 13.1875 35.296875 
Q 13.1875 17.671875 17.3125 11.828125 
Q 21.4375 6 27.484375 6 
Q 33.546875 6 37.671875 11.859375 
Q 41.796875 17.71875 41.796875 35.296875 
Q 41.796875 52.984375 37.671875 58.78125 
Q 33.546875 64.59375 27.390625 64.59375 
Q 21.34375 64.59375 17.71875 59.46875 
Q 13.1875 52.9375 13.1875 35.296875 
z
" id="ArialMT-48"/>
      <path d="M 9.078125 0 
L 9.078125 10.015625 
L 19.09375 10.015625 
L 19.09375 0 
z
" id="ArialMT-46"/>
      <path d="M 32.328125 0 
L 32.328125 17.140625 
L 1.265625 17.140625 
L 1.265625 25.203125 
L 33.9375 71.578125 
L 41.109375 71.578125 
L 41.109375 25.203125 
L 50.78125 25.203125 
L 50.78125 17.140625 
L 41.109375 17.140625 
L 41.109375 0 
z
M 32.328125 25.203125 
L 32.328125 57.46875 
L 9.90625 25.203125 
z
" id="ArialMT-52"/>
     </defs>
     <g style="fill:#262626;" transform="translate(178.698284 544.043927)scale(0.11 -0.11)">
      <use xlink:href="#ArialMT-8722"/>
      <use x="58.398438" xlink:href="#ArialMT-48"/>
      <use x="114.013672" xlink:href="#ArialMT-46"/>
      <use x="141.796875" xlink:href="#ArialMT-52"/>
     </g>
    </g>
   </g>
   <g id="xtick_2">
    <g id="line2d_4">
     <path clip-path="url(#p8f8e7451f3)" d="M 376.540541 350.854054 
" style="fill:none;stroke:#ffffff;stroke-linecap:round;"/>
    </g>
    <g id="line2d_5">
     <path d="M 244.164803 533.842879 
L 240.125272 537.385336 
" style="fill:none;stroke:#262626;stroke-linecap:round;stroke-width:1.25;"/>
    </g>
    <g id="text_2">
     <!-- −0.2 -->
     <defs>
      <path d="M 50.34375 8.453125 
L 50.34375 0 
L 3.03125 0 
Q 2.9375 3.171875 4.046875 6.109375 
Q 5.859375 10.9375 9.828125 15.625 
Q 13.8125 20.3125 21.34375 26.46875 
Q 33.015625 36.03125 37.109375 41.625 
Q 41.21875 47.21875 41.21875 52.203125 
Q 41.21875 57.421875 37.46875 61 
Q 33.734375 64.59375 27.734375 64.59375 
Q 21.390625 64.59375 17.578125 60.78125 
Q 13.765625 56.984375 13.71875 50.25 
L 4.6875 51.171875 
Q 5.609375 61.28125 11.65625 66.578125 
Q 17.71875 71.875 27.9375 71.875 
Q 38.234375 71.875 44.234375 66.15625 
Q 50.25 60.453125 50.25 52 
Q 50.25 47.703125 48.484375 43.546875 
Q 46.734375 39.40625 42.65625 34.8125 
Q 38.578125 30.21875 29.109375 22.21875 
Q 21.1875 15.578125 18.9375 13.203125 
Q 16.703125 10.84375 15.234375 8.453125 
z
" id="ArialMT-50"/>
     </defs>
     <g style="fill:#262626;" transform="translate(225.493179 559.108327)scale(0.11 -0.11)">
      <use xlink:href="#ArialMT-8722"/>
      <use x="58.398438" xlink:href="#ArialMT-48"/>
      <use x="114.013672" xlink:href="#ArialMT-46"/>
      <use x="141.796875" xlink:href="#ArialMT-50"/>
     </g>
    </g>
   </g>
   <g id="xtick_3">
    <g id="line2d_6">
     <path clip-path="url(#p8f8e7451f3)" d="M 376.540541 350.854054 
" style="fill:none;stroke:#ffffff;stroke-linecap:round;"/>
    </g>
    <g id="line2d_7">
     <path d="M 291.697653 548.984463 
L 287.71583 552.584283 
" style="fill:none;stroke:#262626;stroke-linecap:round;stroke-width:1.25;"/>
    </g>
    <g id="text_3">
     <!-- 0.0 -->
     <g style="fill:#262626;" transform="translate(276.255684 574.415865)scale(0.11 -0.11)">
      <use xlink:href="#ArialMT-48"/>
      <use x="55.615234" xlink:href="#ArialMT-46"/>
      <use x="83.398438" xlink:href="#ArialMT-48"/>
     </g>
    </g>
   </g>
   <g id="xtick_4">
    <g id="line2d_8">
     <path clip-path="url(#p8f8e7451f3)" d="M 376.540541 350.854054 
" style="fill:none;stroke:#ffffff;stroke-linecap:round;"/>
    </g>
    <g id="line2d_9">
     <path d="M 340.002604 564.371999 
L 336.080909 568.030587 
" style="fill:none;stroke:#262626;stroke-linecap:round;stroke-width:1.25;"/>
    </g>
    <g id="text_4">
     <!-- 0.2 -->
     <g style="fill:#262626;" transform="translate(324.579545 589.972475)scale(0.11 -0.11)">
      <use xlink:href="#ArialMT-48"/>
      <use x="55.615234" xlink:href="#ArialMT-46"/>
      <use x="83.398438" xlink:href="#ArialMT-50"/>
     </g>
    </g>
   </g>
   <g id="xtick_5">
    <g id="line2d_10">
     <path clip-path="url(#p8f8e7451f3)" d="M 376.540541 350.854054 
" style="fill:none;stroke:#ffffff;stroke-linecap:round;"/>
    </g>
    <g id="line2d_11">
     <path d="M 389.098624 580.011531 
L 385.23957 583.730337 
" style="fill:none;stroke:#262626;stroke-linecap:round;stroke-width:1.25;"/>
    </g>
    <g id="text_5">
     <!-- 0.4 -->
     <g style="fill:#262626;" transform="translate(373.696143 605.784287)scale(0.11 -0.11)">
      <use xlink:href="#ArialMT-48"/>
      <use x="55.615234" xlink:href="#ArialMT-46"/>
      <use x="83.398438" xlink:href="#ArialMT-52"/>
     </g>
    </g>
   </g>
  </g>
  <g id="axis3d_2">
   <g id="line2d_12">
    <path d="M 582.377109 451.116383 
L 436.162105 596.664023 
" style="fill:none;stroke:#ffffff;stroke-linecap:round;stroke-width:1.25;"/>
   </g>
   <g id="Line3DCollection_2">
    <path d="M 158.171945 237.586372 
L 169.410364 505.344618 
L 441.157772 591.691158 
" style="fill:none;stroke:#ffffff;"/>
    <path d="M 195.866424 210.815032 
L 205.015612 475.630556 
L 473.833571 559.1645 
" style="fill:none;stroke:#ffffff;"/>
    <path d="M 232.307305 184.934021 
L 239.495759 446.855438 
L 505.430261 527.712025 
" style="fill:none;stroke:#ffffff;"/>
    <path d="M 267.556102 159.899651 
L 272.903303 418.975451 
L 536.00043 497.281387 
" style="fill:none;stroke:#ffffff;"/>
    <path d="M 301.670367 135.671047 
L 305.287529 391.949466 
L 565.593302 467.823584 
" style="fill:none;stroke:#ffffff;"/>
   </g>
   <g id="xtick_6">
    <g id="line2d_13">
     <path clip-path="url(#p8f8e7451f3)" d="M 376.540541 350.854054 
" style="fill:none;stroke:#ffffff;stroke-linecap:round;"/>
    </g>
    <g id="line2d_14">
     <path d="M 438.883226 590.968432 
L 445.71196 593.138231 
" style="fill:none;stroke:#262626;stroke-linecap:round;stroke-width:1.25;"/>
    </g>
    <g id="text_6">
     <!-- −0.4 -->
     <g style="fill:#262626;" transform="translate(441.559398 613.653285)scale(0.11 -0.11)">
      <use xlink:href="#ArialMT-8722"/>
      <use x="58.398438" xlink:href="#ArialMT-48"/>
      <use x="114.013672" xlink:href="#ArialMT-46"/>
      <use x="141.796875" xlink:href="#ArialMT-52"/>
     </g>
    </g>
   </g>
   <g id="xtick_7">
    <g id="line2d_15">
     <path clip-path="url(#p8f8e7451f3)" d="M 376.540541 350.854054 
" style="fill:none;stroke:#ffffff;stroke-linecap:round;"/>
    </g>
    <g id="line2d_16">
     <path d="M 471.585215 558.465834 
L 478.335237 560.563372 
" style="fill:none;stroke:#262626;stroke-linecap:round;stroke-width:1.25;"/>
    </g>
    <g id="text_7">
     <!-- −0.2 -->
     <g style="fill:#262626;" transform="translate(474.036926 580.899403)scale(0.11 -0.11)">
      <use xlink:href="#ArialMT-8722"/>
      <use x="58.398438" xlink:href="#ArialMT-48"/>
      <use x="114.013672" xlink:href="#ArialMT-46"/>
      <use x="141.796875" xlink:href="#ArialMT-50"/>
     </g>
    </g>
   </g>
   <g id="xtick_8">
    <g id="line2d_17">
     <path clip-path="url(#p8f8e7451f3)" d="M 376.540541 350.854054 
" style="fill:none;stroke:#ffffff;stroke-linecap:round;"/>
    </g>
    <g id="line2d_18">
     <path d="M 503.207619 527.036238 
L 509.880361 529.065065 
" style="fill:none;stroke:#262626;stroke-linecap:round;stroke-width:1.25;"/>
    </g>
    <g id="text_8">
     <!-- 0.0 -->
     <g style="fill:#262626;" transform="translate(508.654536 549.226905)scale(0.11 -0.11)">
      <use xlink:href="#ArialMT-48"/>
      <use x="55.615234" xlink:href="#ArialMT-46"/>
      <use x="83.398438" xlink:href="#ArialMT-48"/>
     </g>
    </g>
   </g>
   <g id="xtick_9">
    <g id="line2d_19">
     <path clip-path="url(#p8f8e7451f3)" d="M 376.540541 350.854054 
" style="fill:none;stroke:#ffffff;stroke-linecap:round;"/>
    </g>
    <g id="line2d_20">
     <path d="M 533.803031 496.627372 
L 540.399911 498.59081 
" style="fill:none;stroke:#262626;stroke-linecap:round;stroke-width:1.25;"/>
    </g>
    <g id="text_9">
     <!-- 0.2 -->
     <g style="fill:#262626;" transform="translate(539.039781 518.583109)scale(0.11 -0.11)">
      <use xlink:href="#ArialMT-48"/>
      <use x="55.615234" xlink:href="#ArialMT-46"/>
      <use x="83.398438" xlink:href="#ArialMT-50"/>
     </g>
    </g>
   </g>
   <g id="xtick_10">
    <g id="line2d_21">
     <path clip-path="url(#p8f8e7451f3)" d="M 376.540541 350.854054 
" style="fill:none;stroke:#ffffff;stroke-linecap:round;"/>
    </g>
    <g id="line2d_22">
     <path d="M 563.420681 467.190307 
L 569.943101 469.091466 
" style="fill:none;stroke:#262626;stroke-linecap:round;stroke-width:1.25;"/>
    </g>
    <g id="text_10">
     <!-- 0.4 -->
     <g style="fill:#262626;" transform="translate(568.453904 488.918698)scale(0.11 -0.11)">
      <use xlink:href="#ArialMT-48"/>
      <use x="55.615234" xlink:href="#ArialMT-46"/>
      <use x="83.398438" xlink:href="#ArialMT-52"/>
     </g>
    </g>
   </g>
  </g>
  <g id="axis3d_3">
   <g id="line2d_23">
    <path d="M 582.377109 451.116383 
L 593.200935 188.763664 
" style="fill:none;stroke:#ffffff;stroke-linecap:round;stroke-width:1.25;"/>
   </g>
   <g id="Line3DCollection_3">
    <path d="M 582.629591 444.996612 
L 323.611888 370.65187 
L 163.702244 503.637815 
" style="fill:none;stroke:#ffffff;"/>
    <path d="M 583.982342 412.208039 
L 323.278984 338.765607 
L 162.259129 470.165769 
" style="fill:none;stroke:#ffffff;"/>
    <path d="M 585.352968 378.986179 
L 322.941866 306.475696 
L 160.796311 436.236721 
" style="fill:none;stroke:#ffffff;"/>
    <path d="M 586.741828 345.322386 
L 322.600453 273.774425 
L 159.313384 401.841248 
" style="fill:none;stroke:#ffffff;"/>
    <path d="M 588.149286 311.207784 
L 322.254663 240.653882 
L 157.809929 366.969664 
" style="fill:none;stroke:#ffffff;"/>
    <path d="M 589.57572 276.633255 
L 321.904411 207.105952 
L 156.285518 331.612016 
" style="fill:none;stroke:#ffffff;"/>
    <path d="M 591.021514 241.589436 
L 321.549609 173.122309 
L 154.73971 295.758069 
" style="fill:none;stroke:#ffffff;"/>
    <path d="M 592.487068 206.066707 
L 321.19017 138.694408 
L 153.172051 259.3973 
" style="fill:none;stroke:#ffffff;"/>
   </g>
   <g id="xtick_11">
    <g id="line2d_24">
     <path clip-path="url(#p8f8e7451f3)" d="M 376.540541 350.854054 
" style="fill:none;stroke:#ffffff;stroke-linecap:round;"/>
    </g>
    <g id="line2d_25">
     <path d="M 580.468438 444.376306 
L 586.956393 446.238516 
" style="fill:none;stroke:#262626;stroke-linecap:round;stroke-width:1.25;"/>
    </g>
    <g id="text_11">
     <!-- −0.3 -->
     <defs>
      <path d="M 4.203125 18.890625 
L 12.984375 20.0625 
Q 14.5 12.59375 18.140625 9.296875 
Q 21.78125 6 27 6 
Q 33.203125 6 37.46875 10.296875 
Q 41.75 14.59375 41.75 20.953125 
Q 41.75 27 37.796875 30.921875 
Q 33.84375 34.859375 27.734375 34.859375 
Q 25.25 34.859375 21.53125 33.890625 
L 22.515625 41.609375 
Q 23.390625 41.5 23.921875 41.5 
Q 29.546875 41.5 34.03125 44.421875 
Q 38.53125 47.359375 38.53125 53.46875 
Q 38.53125 58.296875 35.25 61.46875 
Q 31.984375 64.65625 26.8125 64.65625 
Q 21.6875 64.65625 18.265625 61.421875 
Q 14.84375 58.203125 13.875 51.765625 
L 5.078125 53.328125 
Q 6.6875 62.15625 12.390625 67.015625 
Q 18.109375 71.875 26.609375 71.875 
Q 32.46875 71.875 37.390625 69.359375 
Q 42.328125 66.84375 44.9375 62.5 
Q 47.5625 58.15625 47.5625 53.265625 
Q 47.5625 48.640625 45.0625 44.828125 
Q 42.578125 41.015625 37.703125 38.765625 
Q 44.046875 37.3125 47.5625 32.6875 
Q 51.078125 28.078125 51.078125 21.140625 
Q 51.078125 11.765625 44.234375 5.25 
Q 37.40625 -1.265625 26.953125 -1.265625 
Q 17.53125 -1.265625 11.296875 4.34375 
Q 5.078125 9.96875 4.203125 18.890625 
z
" id="ArialMT-51"/>
     </defs>
     <g style="fill:#262626;" transform="translate(588.012668 450.596882)scale(0.11 -0.11)">
      <use xlink:href="#ArialMT-8722"/>
      <use x="58.398438" xlink:href="#ArialMT-48"/>
      <use x="114.013672" xlink:href="#ArialMT-46"/>
      <use x="141.796875" xlink:href="#ArialMT-51"/>
     </g>
    </g>
   </g>
   <g id="xtick_12">
    <g id="line2d_26">
     <path clip-path="url(#p8f8e7451f3)" d="M 376.540541 350.854054 
" style="fill:none;stroke:#ffffff;stroke-linecap:round;"/>
    </g>
    <g id="line2d_27">
     <path d="M 581.806536 411.595095 
L 588.338509 413.43521 
" style="fill:none;stroke:#262626;stroke-linecap:round;stroke-width:1.25;"/>
    </g>
    <g id="text_12">
     <!-- −0.2 -->
     <g style="fill:#262626;" transform="translate(589.470154 417.835306)scale(0.11 -0.11)">
      <use xlink:href="#ArialMT-8722"/>
      <use x="58.398438" xlink:href="#ArialMT-48"/>
      <use x="114.013672" xlink:href="#ArialMT-46"/>
      <use x="141.796875" xlink:href="#ArialMT-50"/>
     </g>
    </g>
   </g>
   <g id="xtick_13">
    <g id="line2d_28">
     <path clip-path="url(#p8f8e7451f3)" d="M 376.540541 350.854054 
" style="fill:none;stroke:#ffffff;stroke-linecap:round;"/>
    </g>
    <g id="line2d_29">
     <path d="M 583.162311 378.380848 
L 589.738902 380.198117 
" style="fill:none;stroke:#262626;stroke-linecap:round;stroke-width:1.25;"/>
    </g>
    <g id="text_13">
     <!-- −0.1 -->
     <defs>
      <path d="M 37.25 0 
L 28.46875 0 
L 28.46875 56 
Q 25.296875 52.984375 20.140625 49.953125 
Q 14.984375 46.921875 10.890625 45.40625 
L 10.890625 53.90625 
Q 18.265625 57.375 23.78125 62.296875 
Q 29.296875 67.234375 31.59375 71.875 
L 37.25 71.875 
z
" id="ArialMT-49"/>
     </defs>
     <g style="fill:#262626;" transform="translate(590.946876 384.641357)scale(0.11 -0.11)">
      <use xlink:href="#ArialMT-8722"/>
      <use x="58.398438" xlink:href="#ArialMT-48"/>
      <use x="114.013672" xlink:href="#ArialMT-46"/>
      <use x="141.796875" xlink:href="#ArialMT-49"/>
     </g>
    </g>
   </g>
   <g id="xtick_14">
    <g id="line2d_30">
     <path clip-path="url(#p8f8e7451f3)" d="M 376.540541 350.854054 
" style="fill:none;stroke:#ffffff;stroke-linecap:round;"/>
    </g>
    <g id="line2d_31">
     <path d="M 584.536114 344.724925 
L 591.157936 346.518577 
" style="fill:none;stroke:#262626;stroke-linecap:round;stroke-width:1.25;"/>
    </g>
    <g id="text_14">
     <!-- 0.0 -->
     <g style="fill:#262626;" transform="translate(595.65556 351.006419)scale(0.11 -0.11)">
      <use xlink:href="#ArialMT-48"/>
      <use x="55.615234" xlink:href="#ArialMT-46"/>
      <use x="83.398438" xlink:href="#ArialMT-48"/>
     </g>
    </g>
   </g>
   <g id="xtick_15">
    <g id="line2d_32">
     <path clip-path="url(#p8f8e7451f3)" d="M 376.540541 350.854054 
" style="fill:none;stroke:#ffffff;stroke-linecap:round;"/>
    </g>
    <g id="line2d_33">
     <path d="M 585.928308 310.618458 
L 592.595987 312.387695 
" style="fill:none;stroke:#262626;stroke-linecap:round;stroke-width:1.25;"/>
    </g>
    <g id="text_15">
     <!-- 0.1 -->
     <g style="fill:#262626;" transform="translate(597.171913 316.921644)scale(0.11 -0.11)">
      <use xlink:href="#ArialMT-48"/>
      <use x="55.615234" xlink:href="#ArialMT-46"/>
      <use x="83.398438" xlink:href="#ArialMT-49"/>
     </g>
    </g>
   </g>
   <g id="xtick_16">
    <g id="line2d_34">
     <path clip-path="url(#p8f8e7451f3)" d="M 376.540541 350.854054 
" style="fill:none;stroke:#ffffff;stroke-linecap:round;"/>
    </g>
    <g id="line2d_35">
     <path d="M 587.339265 276.052339 
L 594.053439 277.796337 
" style="fill:none;stroke:#262626;stroke-linecap:round;stroke-width:1.25;"/>
    </g>
    <g id="text_16">
     <!-- 0.2 -->
     <g style="fill:#262626;" transform="translate(598.708682 282.377949)scale(0.11 -0.11)">
      <use xlink:href="#ArialMT-48"/>
      <use x="55.615234" xlink:href="#ArialMT-46"/>
      <use x="83.398438" xlink:href="#ArialMT-50"/>
     </g>
    </g>
   </g>
   <g id="xtick_17">
    <g id="line2d_36">
     <path clip-path="url(#p8f8e7451f3)" d="M 376.540541 350.854054 
" style="fill:none;stroke:#ffffff;stroke-linecap:round;"/>
    </g>
    <g id="line2d_37">
     <path d="M 588.769366 241.017213 
L 595.530688 242.735122 
" style="fill:none;stroke:#262626;stroke-linecap:round;stroke-width:1.25;"/>
    </g>
    <g id="text_17">
     <!-- 0.3 -->
     <g style="fill:#262626;" transform="translate(600.266282 247.366001)scale(0.11 -0.11)">
      <use xlink:href="#ArialMT-48"/>
      <use x="55.615234" xlink:href="#ArialMT-46"/>
      <use x="83.398438" xlink:href="#ArialMT-51"/>
     </g>
    </g>
   </g>
   <g id="xtick_18">
    <g id="line2d_38">
     <path clip-path="url(#p8f8e7451f3)" d="M 376.540541 350.854054 
" style="fill:none;stroke:#ffffff;stroke-linecap:round;"/>
    </g>
    <g id="line2d_39">
     <path d="M 590.219004 205.503469 
L 597.02814 207.19441 
" style="fill:none;stroke:#262626;stroke-linecap:round;stroke-width:1.25;"/>
    </g>
    <g id="text_18">
     <!-- 0.4 -->
     <g style="fill:#262626;" transform="translate(601.84514 211.876215)scale(0.11 -0.11)">
      <use xlink:href="#ArialMT-48"/>
      <use x="55.615234" xlink:href="#ArialMT-46"/>
      <use x="83.398438" xlink:href="#ArialMT-52"/>
     </g>
    </g>
   </g>
  </g>
  <g id="axes_1">
   <g id="Path3DCollection_1">
    <defs>
     <path d="M 0 2.236068 
C 0.593012 2.236068 1.161816 2.000462 1.581139 1.581139 
C 2.000462 1.161816 2.236068 0.593012 2.236068 0 
C 2.236068 -0.593012 2.000462 -1.161816 1.581139 -1.581139 
C 1.161816 -2.000462 0.593012 -2.236068 0 -2.236068 
C -0.593012 -2.236068 -1.161816 -2.000462 -1.581139 -1.581139 
C -2.000462 -1.161816 -2.236068 -0.593012 -2.236068 0 
C -2.236068 0.593012 -2.000462 1.161816 -1.581139 1.581139 
C -1.161816 2.000462 -0.593012 2.236068 0 2.236068 
z
" id="m05100c9c10" style="stroke:#64b5cd;"/>
    </defs>
    <g clip-path="url(#p8f8e7451f3)">
     <use style="fill:#64b5cd;stroke:#64b5cd;" x="434.412514" xlink:href="#m05100c9c10" y="364.597788"/>
    </g>
   </g>
   <g id="Path3DCollection_2">
    <defs>
     <path d="M 0 2.236068 
C 0.593012 2.236068 1.161816 2.000462 1.581139 1.581139 
C 2.000462 1.161816 2.236068 0.593012 2.236068 0 
C 2.236068 -0.593012 2.000462 -1.161816 1.581139 -1.581139 
C 1.161816 -2.000462 0.593012 -2.236068 0 -2.236068 
C -0.593012 -2.236068 -1.161816 -2.000462 -1.581139 -1.581139 
C -2.000462 -1.161816 -2.236068 -0.593012 -2.236068 0 
C -2.236068 0.593012 -2.000462 1.161816 -1.581139 1.581139 
C -1.161816 2.000462 -0.593012 2.236068 0 2.236068 
z
" id="m1a47dc192e" style="stroke:#c44e52;"/>
    </defs>
    <g clip-path="url(#p8f8e7451f3)">
     <use style="fill:#c44e52;stroke:#c44e52;" x="373.171503" xlink:href="#m1a47dc192e" y="274.218044"/>
    </g>
   </g>
   <g id="Path3DCollection_3">
    <defs>
     <path d="M 0 2.236068 
C 0.593012 2.236068 1.161816 2.000462 1.581139 1.581139 
C 2.000462 1.161816 2.236068 0.593012 2.236068 0 
C 2.236068 -0.593012 2.000462 -1.161816 1.581139 -1.581139 
C 1.161816 -2.000462 0.593012 -2.236068 0 -2.236068 
C -0.593012 -2.236068 -1.161816 -2.000462 -1.581139 -1.581139 
C -2.000462 -1.161816 -2.236068 -0.593012 -2.236068 0 
C -2.236068 0.593012 -2.000462 1.161816 -1.581139 1.581139 
C -1.161816 2.000462 -0.593012 2.236068 0 2.236068 
z
" id="m157dd0a7c2" style="stroke:#8172b3;"/>
    </defs>
    <g clip-path="url(#p8f8e7451f3)">
     <use style="fill:#8172b3;stroke:#8172b3;" x="277.844944" xlink:href="#m157dd0a7c2" y="388.303414"/>
    </g>
   </g>
   <g id="Path3DCollection_4">
    <g clip-path="url(#p8f8e7451f3)">
     <use style="fill:#8172b3;stroke:#8172b3;" x="287.322721" xlink:href="#m157dd0a7c2" y="419.426703"/>
    </g>
   </g>
   <g id="legend_1">
    <g id="patch_6">
     <path d="M 575.142188 189.731406 
L 640.3 189.731406 
Q 642.5 189.731406 642.5 187.531406 
L 642.5 94.1 
Q 642.5 91.9 640.3 91.9 
L 575.142188 91.9 
Q 572.942188 91.9 572.942188 94.1 
L 572.942188 187.531406 
Q 572.942188 189.731406 575.142188 189.731406 
z
" style="fill:#eaeaf2;opacity:0.8;stroke:#cccccc;stroke-linejoin:miter;"/>
    </g>
    <g id="text_19">
     <!-- Classes -->
     <defs>
      <path d="M 58.796875 25.09375 
L 68.265625 22.703125 
Q 65.28125 11.03125 57.546875 4.90625 
Q 49.8125 -1.21875 38.625 -1.21875 
Q 27.046875 -1.21875 19.796875 3.484375 
Q 12.546875 8.203125 8.765625 17.140625 
Q 4.984375 26.078125 4.984375 36.328125 
Q 4.984375 47.515625 9.25 55.828125 
Q 13.53125 64.15625 21.40625 68.46875 
Q 29.296875 72.796875 38.765625 72.796875 
Q 49.515625 72.796875 56.828125 67.328125 
Q 64.15625 61.859375 67.046875 51.953125 
L 57.71875 49.75 
Q 55.21875 57.5625 50.484375 61.125 
Q 45.75 64.703125 38.578125 64.703125 
Q 30.328125 64.703125 24.78125 60.734375 
Q 19.234375 56.78125 16.984375 50.109375 
Q 14.75 43.453125 14.75 36.375 
Q 14.75 27.25 17.40625 20.4375 
Q 20.0625 13.625 25.671875 10.25 
Q 31.296875 6.890625 37.84375 6.890625 
Q 45.796875 6.890625 51.3125 11.46875 
Q 56.84375 16.0625 58.796875 25.09375 
z
" id="ArialMT-67"/>
      <path d="M 6.390625 0 
L 6.390625 71.578125 
L 15.1875 71.578125 
L 15.1875 0 
z
" id="ArialMT-108"/>
      <path d="M 40.4375 6.390625 
Q 35.546875 2.25 31.03125 0.53125 
Q 26.515625 -1.171875 21.34375 -1.171875 
Q 12.796875 -1.171875 8.203125 3 
Q 3.609375 7.171875 3.609375 13.671875 
Q 3.609375 17.484375 5.34375 20.625 
Q 7.078125 23.78125 9.890625 25.6875 
Q 12.703125 27.59375 16.21875 28.5625 
Q 18.796875 29.25 24.03125 29.890625 
Q 34.671875 31.15625 39.703125 32.90625 
Q 39.75 34.71875 39.75 35.203125 
Q 39.75 40.578125 37.25 42.78125 
Q 33.890625 45.75 27.25 45.75 
Q 21.046875 45.75 18.09375 43.578125 
Q 15.140625 41.40625 13.71875 35.890625 
L 5.125 37.0625 
Q 6.296875 42.578125 8.984375 45.96875 
Q 11.671875 49.359375 16.75 51.1875 
Q 21.828125 53.03125 28.515625 53.03125 
Q 35.15625 53.03125 39.296875 51.46875 
Q 43.453125 49.90625 45.40625 47.53125 
Q 47.359375 45.171875 48.140625 41.546875 
Q 48.578125 39.3125 48.578125 33.453125 
L 48.578125 21.734375 
Q 48.578125 9.46875 49.140625 6.21875 
Q 49.703125 2.984375 51.375 0 
L 42.1875 0 
Q 40.828125 2.734375 40.4375 6.390625 
z
M 39.703125 26.03125 
Q 34.90625 24.078125 25.34375 22.703125 
Q 19.921875 21.921875 17.671875 20.9375 
Q 15.4375 19.96875 14.203125 18.09375 
Q 12.984375 16.21875 12.984375 13.921875 
Q 12.984375 10.40625 15.640625 8.0625 
Q 18.3125 5.71875 23.4375 5.71875 
Q 28.515625 5.71875 32.46875 7.9375 
Q 36.421875 10.15625 38.28125 14.015625 
Q 39.703125 17 39.703125 22.796875 
z
" id="ArialMT-97"/>
      <path d="M 3.078125 15.484375 
L 11.765625 16.84375 
Q 12.5 11.625 15.84375 8.84375 
Q 19.1875 6.0625 25.203125 6.0625 
Q 31.25 6.0625 34.171875 8.515625 
Q 37.109375 10.984375 37.109375 14.3125 
Q 37.109375 17.28125 34.515625 19 
Q 32.71875 20.171875 25.53125 21.96875 
Q 15.875 24.421875 12.140625 26.203125 
Q 8.40625 27.984375 6.46875 31.125 
Q 4.546875 34.28125 4.546875 38.09375 
Q 4.546875 41.546875 6.125 44.5 
Q 7.71875 47.46875 10.453125 49.421875 
Q 12.5 50.921875 16.03125 51.96875 
Q 19.578125 53.03125 23.640625 53.03125 
Q 29.734375 53.03125 34.34375 51.265625 
Q 38.96875 49.515625 41.15625 46.5 
Q 43.359375 43.5 44.1875 38.484375 
L 35.59375 37.3125 
Q 35.015625 41.3125 32.203125 43.546875 
Q 29.390625 45.796875 24.265625 45.796875 
Q 18.21875 45.796875 15.625 43.796875 
Q 13.03125 41.796875 13.03125 39.109375 
Q 13.03125 37.40625 14.109375 36.03125 
Q 15.1875 34.625 17.484375 33.6875 
Q 18.796875 33.203125 25.25 31.453125 
Q 34.578125 28.953125 38.25 27.359375 
Q 41.9375 25.78125 44.03125 22.75 
Q 46.140625 19.734375 46.140625 15.234375 
Q 46.140625 10.84375 43.578125 6.953125 
Q 41.015625 3.078125 36.171875 0.953125 
Q 31.34375 -1.171875 25.25 -1.171875 
Q 15.140625 -1.171875 9.84375 3.03125 
Q 4.546875 7.234375 3.078125 15.484375 
z
" id="ArialMT-115"/>
      <path d="M 42.09375 16.703125 
L 51.171875 15.578125 
Q 49.03125 7.625 43.21875 3.21875 
Q 37.40625 -1.171875 28.375 -1.171875 
Q 17 -1.171875 10.328125 5.828125 
Q 3.65625 12.84375 3.65625 25.484375 
Q 3.65625 38.578125 10.390625 45.796875 
Q 17.140625 53.03125 27.875 53.03125 
Q 38.28125 53.03125 44.875 45.953125 
Q 51.46875 38.875 51.46875 26.03125 
Q 51.46875 25.25 51.421875 23.6875 
L 12.75 23.6875 
Q 13.234375 15.140625 17.578125 10.59375 
Q 21.921875 6.0625 28.421875 6.0625 
Q 33.25 6.0625 36.671875 8.59375 
Q 40.09375 11.140625 42.09375 16.703125 
z
M 13.234375 30.90625 
L 42.1875 30.90625 
Q 41.609375 37.453125 38.875 40.71875 
Q 34.671875 45.796875 27.984375 45.796875 
Q 21.921875 45.796875 17.796875 41.75 
Q 13.671875 37.703125 13.234375 30.90625 
z
" id="ArialMT-101"/>
     </defs>
     <g style="fill:#262626;" transform="translate(586.381719 104.889375)scale(0.12 -0.12)">
      <use xlink:href="#ArialMT-67"/>
      <use x="72.216797" xlink:href="#ArialMT-108"/>
      <use x="94.433594" xlink:href="#ArialMT-97"/>
      <use x="150.048828" xlink:href="#ArialMT-115"/>
      <use x="200.048828" xlink:href="#ArialMT-115"/>
      <use x="250.048828" xlink:href="#ArialMT-101"/>
      <use x="305.664062" xlink:href="#ArialMT-115"/>
     </g>
    </g>
    <g id="line2d_40">
     <path d="M 577.342188 116.797969 
L 599.342188 116.797969 
" style="fill:none;stroke:#4c72b0;stroke-linecap:round;stroke-width:1.5;"/>
    </g>
    <g id="line2d_41">
     <defs>
      <path d="M 0 3 
C 0.795609 3 1.55874 2.683901 2.12132 2.12132 
C 2.683901 1.55874 3 0.795609 3 0 
C 3 -0.795609 2.683901 -1.55874 2.12132 -2.12132 
C 1.55874 -2.683901 0.795609 -3 0 -3 
C -0.795609 -3 -1.55874 -2.683901 -2.12132 -2.12132 
C -2.683901 -1.55874 -3 -0.795609 -3 0 
C -3 0.795609 -2.683901 1.55874 -2.12132 2.12132 
C -1.55874 2.683901 -0.795609 3 0 3 
z
" id="md314d74939" style="stroke:#4c72b0;"/>
     </defs>
     <g>
      <use style="fill:#4c72b0;stroke:#4c72b0;" x="588.342188" xlink:href="#md314d74939" y="116.797969"/>
     </g>
    </g>
    <g id="text_20">
     <!-- man -->
     <defs>
      <path d="M 6.59375 0 
L 6.59375 51.859375 
L 14.453125 51.859375 
L 14.453125 44.578125 
Q 16.890625 48.390625 20.9375 50.703125 
Q 25 53.03125 30.171875 53.03125 
Q 35.9375 53.03125 39.625 50.640625 
Q 43.3125 48.25 44.828125 43.953125 
Q 50.984375 53.03125 60.84375 53.03125 
Q 68.5625 53.03125 72.703125 48.75 
Q 76.859375 44.484375 76.859375 35.59375 
L 76.859375 0 
L 68.109375 0 
L 68.109375 32.671875 
Q 68.109375 37.9375 67.25 40.25 
Q 66.40625 42.578125 64.15625 43.984375 
Q 61.921875 45.40625 58.890625 45.40625 
Q 53.421875 45.40625 49.796875 41.765625 
Q 46.1875 38.140625 46.1875 30.125 
L 46.1875 0 
L 37.40625 0 
L 37.40625 33.6875 
Q 37.40625 39.546875 35.25 42.46875 
Q 33.109375 45.40625 28.21875 45.40625 
Q 24.515625 45.40625 21.359375 43.453125 
Q 18.21875 41.5 16.796875 37.734375 
Q 15.375 33.984375 15.375 26.90625 
L 15.375 0 
z
" id="ArialMT-109"/>
      <path d="M 6.59375 0 
L 6.59375 51.859375 
L 14.5 51.859375 
L 14.5 44.484375 
Q 20.21875 53.03125 31 53.03125 
Q 35.6875 53.03125 39.625 51.34375 
Q 43.5625 49.65625 45.515625 46.921875 
Q 47.46875 44.1875 48.25 40.4375 
Q 48.734375 37.984375 48.734375 31.890625 
L 48.734375 0 
L 39.9375 0 
L 39.9375 31.546875 
Q 39.9375 36.921875 38.90625 39.578125 
Q 37.890625 42.234375 35.28125 43.8125 
Q 32.671875 45.40625 29.15625 45.40625 
Q 23.53125 45.40625 19.453125 41.84375 
Q 15.375 38.28125 15.375 28.328125 
L 15.375 0 
z
" id="ArialMT-110"/>
     </defs>
     <g style="fill:#262626;" transform="translate(608.142187 120.647969)scale(0.11 -0.11)">
      <use xlink:href="#ArialMT-109"/>
      <use x="83.300781" xlink:href="#ArialMT-97"/>
      <use x="138.916016" xlink:href="#ArialMT-110"/>
     </g>
    </g>
    <g id="line2d_42">
     <path d="M 577.342188 132.357813 
L 599.342188 132.357813 
" style="fill:none;stroke:#55a868;stroke-linecap:round;stroke-width:1.5;"/>
    </g>
    <g id="line2d_43">
     <defs>
      <path d="M 0 3 
C 0.795609 3 1.55874 2.683901 2.12132 2.12132 
C 2.683901 1.55874 3 0.795609 3 0 
C 3 -0.795609 2.683901 -1.55874 2.12132 -2.12132 
C 1.55874 -2.683901 0.795609 -3 0 -3 
C -0.795609 -3 -1.55874 -2.683901 -2.12132 -2.12132 
C -2.683901 -1.55874 -3 -0.795609 -3 0 
C -3 0.795609 -2.683901 1.55874 -2.12132 2.12132 
C -1.55874 2.683901 -0.795609 3 0 3 
z
" id="mf8bc143f75" style="stroke:#55a868;"/>
     </defs>
     <g>
      <use style="fill:#55a868;stroke:#55a868;" x="588.342188" xlink:href="#mf8bc143f75" y="132.357813"/>
     </g>
    </g>
    <g id="text_21">
     <!-- glu -->
     <defs>
      <path d="M 4.984375 -4.296875 
L 13.53125 -5.5625 
Q 14.0625 -9.515625 16.5 -11.328125 
Q 19.78125 -13.765625 25.4375 -13.765625 
Q 31.546875 -13.765625 34.859375 -11.328125 
Q 38.1875 -8.890625 39.359375 -4.5 
Q 40.046875 -1.8125 39.984375 6.78125 
Q 34.234375 0 25.640625 0 
Q 14.9375 0 9.078125 7.71875 
Q 3.21875 15.4375 3.21875 26.21875 
Q 3.21875 33.640625 5.90625 39.90625 
Q 8.59375 46.1875 13.6875 49.609375 
Q 18.796875 53.03125 25.6875 53.03125 
Q 34.859375 53.03125 40.828125 45.609375 
L 40.828125 51.859375 
L 48.921875 51.859375 
L 48.921875 7.03125 
Q 48.921875 -5.078125 46.453125 -10.125 
Q 44 -15.1875 38.640625 -18.109375 
Q 33.296875 -21.046875 25.484375 -21.046875 
Q 16.21875 -21.046875 10.5 -16.875 
Q 4.78125 -12.703125 4.984375 -4.296875 
z
M 12.25 26.859375 
Q 12.25 16.65625 16.296875 11.96875 
Q 20.359375 7.28125 26.46875 7.28125 
Q 32.515625 7.28125 36.609375 11.9375 
Q 40.71875 16.609375 40.71875 26.5625 
Q 40.71875 36.078125 36.5 40.90625 
Q 32.28125 45.75 26.3125 45.75 
Q 20.453125 45.75 16.34375 40.984375 
Q 12.25 36.234375 12.25 26.859375 
z
" id="ArialMT-103"/>
      <path d="M 40.578125 0 
L 40.578125 7.625 
Q 34.515625 -1.171875 24.125 -1.171875 
Q 19.53125 -1.171875 15.546875 0.578125 
Q 11.578125 2.34375 9.640625 5 
Q 7.71875 7.671875 6.9375 11.53125 
Q 6.390625 14.109375 6.390625 19.734375 
L 6.390625 51.859375 
L 15.1875 51.859375 
L 15.1875 23.09375 
Q 15.1875 16.21875 15.71875 13.8125 
Q 16.546875 10.359375 19.234375 8.375 
Q 21.921875 6.390625 25.875 6.390625 
Q 29.828125 6.390625 33.296875 8.421875 
Q 36.765625 10.453125 38.203125 13.9375 
Q 39.65625 17.4375 39.65625 24.078125 
L 39.65625 51.859375 
L 48.4375 51.859375 
L 48.4375 0 
z
" id="ArialMT-117"/>
     </defs>
     <g style="fill:#262626;" transform="translate(608.142187 136.207813)scale(0.11 -0.11)">
      <use xlink:href="#ArialMT-103"/>
      <use x="55.615234" xlink:href="#ArialMT-108"/>
      <use x="77.832031" xlink:href="#ArialMT-117"/>
     </g>
    </g>
    <g id="line2d_44">
     <path d="M 577.342188 148.046563 
L 599.342188 148.046563 
" style="fill:none;stroke:#c44e52;stroke-linecap:round;stroke-width:1.5;"/>
    </g>
    <g id="line2d_45">
     <defs>
      <path d="M 0 3 
C 0.795609 3 1.55874 2.683901 2.12132 2.12132 
C 2.683901 1.55874 3 0.795609 3 0 
C 3 -0.795609 2.683901 -1.55874 2.12132 -2.12132 
C 1.55874 -2.683901 0.795609 -3 0 -3 
C -0.795609 -3 -1.55874 -2.683901 -2.12132 -2.12132 
C -2.683901 -1.55874 -3 -0.795609 -3 0 
C -3 0.795609 -2.683901 1.55874 -2.12132 2.12132 
C -1.55874 2.683901 -0.795609 3 0 3 
z
" id="m109320ab09" style="stroke:#c44e52;"/>
     </defs>
     <g>
      <use style="fill:#c44e52;stroke:#c44e52;" x="588.342188" xlink:href="#m109320ab09" y="148.046563"/>
     </g>
    </g>
    <g id="text_22">
     <!-- fru -->
     <defs>
      <path d="M 8.6875 0 
L 8.6875 45.015625 
L 0.921875 45.015625 
L 0.921875 51.859375 
L 8.6875 51.859375 
L 8.6875 57.375 
Q 8.6875 62.59375 9.625 65.140625 
Q 10.890625 68.5625 14.078125 70.671875 
Q 17.28125 72.796875 23.046875 72.796875 
Q 26.765625 72.796875 31.25 71.921875 
L 29.9375 64.265625 
Q 27.203125 64.75 24.75 64.75 
Q 20.75 64.75 19.09375 63.03125 
Q 17.4375 61.328125 17.4375 56.640625 
L 17.4375 51.859375 
L 27.546875 51.859375 
L 27.546875 45.015625 
L 17.4375 45.015625 
L 17.4375 0 
z
" id="ArialMT-102"/>
      <path d="M 6.5 0 
L 6.5 51.859375 
L 14.40625 51.859375 
L 14.40625 44 
Q 17.4375 49.515625 20 51.265625 
Q 22.5625 53.03125 25.640625 53.03125 
Q 30.078125 53.03125 34.671875 50.203125 
L 31.640625 42.046875 
Q 28.421875 43.953125 25.203125 43.953125 
Q 22.3125 43.953125 20.015625 42.21875 
Q 17.71875 40.484375 16.75 37.40625 
Q 15.28125 32.71875 15.28125 27.15625 
L 15.28125 0 
z
" id="ArialMT-114"/>
     </defs>
     <g style="fill:#262626;" transform="translate(608.142187 151.896563)scale(0.11 -0.11)">
      <use xlink:href="#ArialMT-102"/>
      <use x="27.783203" xlink:href="#ArialMT-114"/>
      <use x="61.083984" xlink:href="#ArialMT-117"/>
     </g>
    </g>
    <g id="line2d_46">
     <path d="M 577.342188 163.606406 
L 599.342188 163.606406 
" style="fill:none;stroke:#64b5cd;stroke-linecap:round;stroke-width:1.5;"/>
    </g>
    <g id="line2d_47">
     <defs>
      <path d="M 0 3 
C 0.795609 3 1.55874 2.683901 2.12132 2.12132 
C 2.683901 1.55874 3 0.795609 3 0 
C 3 -0.795609 2.683901 -1.55874 2.12132 -2.12132 
C 1.55874 -2.683901 0.795609 -3 0 -3 
C -0.795609 -3 -1.55874 -2.683901 -2.12132 -2.12132 
C -2.683901 -1.55874 -3 -0.795609 -3 0 
C -3 0.795609 -2.683901 1.55874 -2.12132 2.12132 
C -1.55874 2.683901 -0.795609 3 0 3 
z
" id="m181048697b" style="stroke:#64b5cd;"/>
     </defs>
     <g>
      <use style="fill:#64b5cd;stroke:#64b5cd;" x="588.342188" xlink:href="#m181048697b" y="163.606406"/>
     </g>
    </g>
    <g id="text_23">
     <!-- mal -->
     <g style="fill:#262626;" transform="translate(608.142187 167.456406)scale(0.11 -0.11)">
      <use xlink:href="#ArialMT-109"/>
      <use x="83.300781" xlink:href="#ArialMT-97"/>
      <use x="138.916016" xlink:href="#ArialMT-108"/>
     </g>
    </g>
    <g id="line2d_48">
     <path d="M 577.342188 179.16625 
L 599.342188 179.16625 
" style="fill:none;stroke:#8172b3;stroke-linecap:round;stroke-width:1.5;"/>
    </g>
    <g id="line2d_49">
     <defs>
      <path d="M 0 3 
C 0.795609 3 1.55874 2.683901 2.12132 2.12132 
C 2.683901 1.55874 3 0.795609 3 0 
C 3 -0.795609 2.683901 -1.55874 2.12132 -2.12132 
C 1.55874 -2.683901 0.795609 -3 0 -3 
C -0.795609 -3 -1.55874 -2.683901 -2.12132 -2.12132 
C -2.683901 -1.55874 -3 -0.795609 -3 0 
C -3 0.795609 -2.683901 1.55874 -2.12132 2.12132 
C -1.55874 2.683901 -0.795609 3 0 3 
z
" id="me6ac0408fa" style="stroke:#8172b3;"/>
     </defs>
     <g>
      <use style="fill:#8172b3;stroke:#8172b3;" x="588.342188" xlink:href="#me6ac0408fa" y="179.16625"/>
     </g>
    </g>
    <g id="text_24">
     <!-- gluam -->
     <g style="fill:#262626;" transform="translate(608.142187 183.01625)scale(0.11 -0.11)">
      <use xlink:href="#ArialMT-103"/>
      <use x="55.615234" xlink:href="#ArialMT-108"/>
      <use x="77.832031" xlink:href="#ArialMT-117"/>
      <use x="133.447266" xlink:href="#ArialMT-97"/>
      <use x="189.0625" xlink:href="#ArialMT-109"/>
     </g>
    </g>
   </g>
   <g id="Path3DCollection_5">
    <g clip-path="url(#p8f8e7451f3)">
     <use style="fill:#8172b3;stroke:#8172b3;" x="288.21799" xlink:href="#m157dd0a7c2" y="443.976468"/>
    </g>
   </g>
   <g id="Path3DCollection_6">
    <defs>
     <path d="M 0 2.236068 
C 0.593012 2.236068 1.161816 2.000462 1.581139 1.581139 
C 2.000462 1.161816 2.236068 0.593012 2.236068 0 
C 2.236068 -0.593012 2.000462 -1.161816 1.581139 -1.581139 
C 1.161816 -2.000462 0.593012 -2.236068 0 -2.236068 
C -0.593012 -2.236068 -1.161816 -2.000462 -1.581139 -1.581139 
C -2.000462 -1.161816 -2.236068 -0.593012 -2.236068 0 
C -2.236068 0.593012 -2.000462 1.161816 -1.581139 1.581139 
C -1.161816 2.000462 -0.593012 2.236068 0 2.236068 
z
" id="m826065f852" style="stroke:#55a868;"/>
    </defs>
    <g clip-path="url(#p8f8e7451f3)">
     <use style="fill:#55a868;stroke:#55a868;" x="459.475986" xlink:href="#m826065f852" y="417.173809"/>
    </g>
   </g>
   <g id="Path3DCollection_7">
    <g clip-path="url(#p8f8e7451f3)">
     <use style="fill:#64b5cd;stroke:#64b5cd;" x="393.755282" xlink:href="#m05100c9c10" y="349.484666"/>
    </g>
   </g>
   <g id="Path3DCollection_8">
    <g clip-path="url(#p8f8e7451f3)">
     <use style="fill:#8172b3;stroke:#8172b3;" x="340.754339" xlink:href="#m157dd0a7c2" y="405.959395"/>
    </g>
   </g>
   <g id="Path3DCollection_9">
    <g clip-path="url(#p8f8e7451f3)">
     <use style="fill:#c44e52;stroke:#c44e52;" x="396.99634" xlink:href="#m1a47dc192e" y="167.470497"/>
    </g>
   </g>
   <g id="Path3DCollection_10">
    <defs>
     <path d="M 0 2.236068 
C 0.593012 2.236068 1.161816 2.000462 1.581139 1.581139 
C 2.000462 1.161816 2.236068 0.593012 2.236068 0 
C 2.236068 -0.593012 2.000462 -1.161816 1.581139 -1.581139 
C 1.161816 -2.000462 0.593012 -2.236068 0 -2.236068 
C -0.593012 -2.236068 -1.161816 -2.000462 -1.581139 -1.581139 
C -2.000462 -1.161816 -2.236068 -0.593012 -2.236068 0 
C -2.236068 0.593012 -2.000462 1.161816 -1.581139 1.581139 
C -1.161816 2.000462 -0.593012 2.236068 0 2.236068 
z
" id="mcb9df1edb4" style="stroke:#4c72b0;"/>
    </defs>
    <g clip-path="url(#p8f8e7451f3)">
     <use style="fill:#4c72b0;stroke:#4c72b0;" x="293.848185" xlink:href="#mcb9df1edb4" y="433.952"/>
    </g>
   </g>
   <g id="Path3DCollection_11">
    <g clip-path="url(#p8f8e7451f3)">
     <use style="fill:#4c72b0;stroke:#4c72b0;" x="391.989443" xlink:href="#mcb9df1edb4" y="303.20271"/>
    </g>
   </g>
   <g id="Path3DCollection_12">
    <g clip-path="url(#p8f8e7451f3)">
     <use style="fill:#55a868;stroke:#55a868;" x="289.197237" xlink:href="#m826065f852" y="287.366262"/>
    </g>
   </g>
   <g id="Path3DCollection_13">
    <g clip-path="url(#p8f8e7451f3)">
     <use style="fill:#55a868;stroke:#55a868;" x="281.718891" xlink:href="#m826065f852" y="431.165326"/>
    </g>
   </g>
   <g id="Path3DCollection_14">
    <g clip-path="url(#p8f8e7451f3)">
     <use style="fill:#55a868;stroke:#55a868;" x="421.204571" xlink:href="#m826065f852" y="447.575077"/>
    </g>
   </g>
   <g id="Path3DCollection_15">
    <g clip-path="url(#p8f8e7451f3)">
     <use style="fill:#c44e52;stroke:#c44e52;" x="293.751102" xlink:href="#m1a47dc192e" y="348.291665"/>
    </g>
   </g>
   <g id="Path3DCollection_16">
    <g clip-path="url(#p8f8e7451f3)">
     <use style="fill:#55a868;stroke:#55a868;" x="296.859229" xlink:href="#m826065f852" y="361.446507"/>
    </g>
   </g>
   <g id="Path3DCollection_17">
    <g clip-path="url(#p8f8e7451f3)">
     <use style="fill:#8172b3;stroke:#8172b3;" x="446.748865" xlink:href="#m157dd0a7c2" y="366.497093"/>
    </g>
   </g>
   <g id="Path3DCollection_18">
    <g clip-path="url(#p8f8e7451f3)">
     <use style="fill:#8172b3;stroke:#8172b3;" x="426.249774" xlink:href="#m157dd0a7c2" y="457.588671"/>
    </g>
   </g>
   <g id="Path3DCollection_19">
    <g clip-path="url(#p8f8e7451f3)">
     <use style="fill:#8172b3;stroke:#8172b3;" x="439.74691" xlink:href="#m157dd0a7c2" y="412.225635"/>
    </g>
   </g>
   <g id="Path3DCollection_20">
    <g clip-path="url(#p8f8e7451f3)">
     <use style="fill:#4c72b0;stroke:#4c72b0;" x="412.8688" xlink:href="#mcb9df1edb4" y="355.666248"/>
    </g>
   </g>
   <g id="Path3DCollection_21">
    <g clip-path="url(#p8f8e7451f3)">
     <use style="fill:#55a868;stroke:#55a868;" x="279.95222" xlink:href="#m826065f852" y="357.662438"/>
    </g>
   </g>
   <g id="Path3DCollection_22">
    <g clip-path="url(#p8f8e7451f3)">
     <use style="fill:#4c72b0;stroke:#4c72b0;" x="309.148348" xlink:href="#mcb9df1edb4" y="450.539047"/>
    </g>
   </g>
   <g id="Path3DCollection_23">
    <g clip-path="url(#p8f8e7451f3)">
     <use style="fill:#4c72b0;stroke:#4c72b0;" x="451.096235" xlink:href="#mcb9df1edb4" y="407.92673"/>
    </g>
   </g>
   <g id="Path3DCollection_24">
    <g clip-path="url(#p8f8e7451f3)">
     <use style="fill:#4c72b0;stroke:#4c72b0;" x="300.63285" xlink:href="#mcb9df1edb4" y="460.753276"/>
    </g>
   </g>
   <g id="Path3DCollection_25">
    <g clip-path="url(#p8f8e7451f3)">
     <use style="fill:#55a868;stroke:#55a868;" x="450.613133" xlink:href="#m826065f852" y="424.315297"/>
    </g>
   </g>
   <g id="Path3DCollection_26">
    <g clip-path="url(#p8f8e7451f3)">
     <use style="fill:#4c72b0;stroke:#4c72b0;" x="452.143301" xlink:href="#mcb9df1edb4" y="451.042669"/>
    </g>
   </g>
   <g id="Path3DCollection_27">
    <g clip-path="url(#p8f8e7451f3)">
     <use style="fill:#64b5cd;stroke:#64b5cd;" x="396.770353" xlink:href="#m05100c9c10" y="365.080824"/>
    </g>
   </g>
   <g id="Path3DCollection_28">
    <g clip-path="url(#p8f8e7451f3)">
     <use style="fill:#64b5cd;stroke:#64b5cd;" x="416.297881" xlink:href="#m05100c9c10" y="421.219768"/>
    </g>
   </g>
   <g id="Path3DCollection_29">
    <g clip-path="url(#p8f8e7451f3)">
     <use style="fill:#c44e52;stroke:#c44e52;" x="285.690514" xlink:href="#m1a47dc192e" y="386.561843"/>
    </g>
   </g>
   <g id="Path3DCollection_30">
    <g clip-path="url(#p8f8e7451f3)">
     <use style="fill:#55a868;stroke:#55a868;" x="292.012561" xlink:href="#m826065f852" y="446.190236"/>
    </g>
   </g>
   <g id="Path3DCollection_31">
    <g clip-path="url(#p8f8e7451f3)">
     <use style="fill:#4c72b0;stroke:#4c72b0;" x="420.298405" xlink:href="#mcb9df1edb4" y="410.259073"/>
    </g>
   </g>
   <g id="Path3DCollection_32">
    <g clip-path="url(#p8f8e7451f3)">
     <use style="fill:#c44e52;stroke:#c44e52;" x="404.777568" xlink:href="#m1a47dc192e" y="259.891292"/>
    </g>
   </g>
   <g id="Path3DCollection_33">
    <g clip-path="url(#p8f8e7451f3)">
     <use style="fill:#4c72b0;stroke:#4c72b0;" x="461.207613" xlink:href="#mcb9df1edb4" y="316.524001"/>
    </g>
   </g>
   <g id="Path3DCollection_34">
    <g clip-path="url(#p8f8e7451f3)">
     <use style="fill:#8172b3;stroke:#8172b3;" x="390.943656" xlink:href="#m157dd0a7c2" y="272.810962"/>
    </g>
   </g>
   <g id="Path3DCollection_35">
    <g clip-path="url(#p8f8e7451f3)">
     <use style="fill:#c44e52;stroke:#c44e52;" x="411.106866" xlink:href="#m1a47dc192e" y="334.790728"/>
    </g>
   </g>
   <g id="Path3DCollection_36">
    <g clip-path="url(#p8f8e7451f3)">
     <use style="fill:#c44e52;stroke:#c44e52;" x="292.758124" xlink:href="#m1a47dc192e" y="396.918763"/>
    </g>
   </g>
   <g id="Path3DCollection_37">
    <g clip-path="url(#p8f8e7451f3)">
     <use style="fill:#55a868;stroke:#55a868;" x="266.540336" xlink:href="#m826065f852" y="271.069342"/>
    </g>
   </g>
   <g id="Path3DCollection_38">
    <g clip-path="url(#p8f8e7451f3)">
     <use style="fill:#8172b3;stroke:#8172b3;" x="423.644002" xlink:href="#m157dd0a7c2" y="392.682793"/>
    </g>
   </g>
   <g id="Path3DCollection_39">
    <g clip-path="url(#p8f8e7451f3)">
     <use style="fill:#55a868;stroke:#55a868;" x="265.572103" xlink:href="#m826065f852" y="349.905011"/>
    </g>
   </g>
   <g id="Path3DCollection_40">
    <g clip-path="url(#p8f8e7451f3)">
     <use style="fill:#8172b3;stroke:#8172b3;" x="392.791729" xlink:href="#m157dd0a7c2" y="422.247869"/>
    </g>
   </g>
   <g id="Path3DCollection_41">
    <g clip-path="url(#p8f8e7451f3)">
     <use style="fill:#64b5cd;stroke:#64b5cd;" x="460.646821" xlink:href="#m05100c9c10" y="395.98579"/>
    </g>
   </g>
   <g id="Path3DCollection_42">
    <g clip-path="url(#p8f8e7451f3)">
     <use style="fill:#c44e52;stroke:#c44e52;" x="370.386197" xlink:href="#m1a47dc192e" y="431.372793"/>
    </g>
   </g>
   <g id="Path3DCollection_43">
    <g clip-path="url(#p8f8e7451f3)">
     <use style="fill:#64b5cd;stroke:#64b5cd;" x="321.741333" xlink:href="#m05100c9c10" y="412.808532"/>
    </g>
   </g>
   <g id="Path3DCollection_44">
    <g clip-path="url(#p8f8e7451f3)">
     <use style="fill:#64b5cd;stroke:#64b5cd;" x="381.993291" xlink:href="#m05100c9c10" y="327.61356"/>
    </g>
   </g>
   <g id="Path3DCollection_45">
    <g clip-path="url(#p8f8e7451f3)">
     <use style="fill:#c44e52;stroke:#c44e52;" x="333.973659" xlink:href="#m1a47dc192e" y="475.265126"/>
    </g>
   </g>
   <g id="Path3DCollection_46">
    <g clip-path="url(#p8f8e7451f3)">
     <use style="fill:#4c72b0;stroke:#4c72b0;" x="264.124681" xlink:href="#mcb9df1edb4" y="309.527749"/>
    </g>
   </g>
   <g id="Path3DCollection_47">
    <g clip-path="url(#p8f8e7451f3)">
     <use style="fill:#64b5cd;stroke:#64b5cd;" x="297.732923" xlink:href="#m05100c9c10" y="348.236455"/>
    </g>
   </g>
   <g id="Path3DCollection_48">
    <g clip-path="url(#p8f8e7451f3)">
     <use style="fill:#64b5cd;stroke:#64b5cd;" x="304.78068" xlink:href="#m05100c9c10" y="350.44128"/>
    </g>
   </g>
   <g id="Path3DCollection_49">
    <g clip-path="url(#p8f8e7451f3)">
     <use style="fill:#c44e52;stroke:#c44e52;" x="433.226191" xlink:href="#m1a47dc192e" y="406.469119"/>
    </g>
   </g>
  </g>
 </g>
 <defs>
  <clipPath id="p8f8e7451f3">
   <rect height="543.6" width="558" x="90" y="86.4"/>
  </clipPath>
 </defs>
</svg>
