<?xml version="1.0" encoding="utf-8" standalone="no"?>
<!DOCTYPE svg PUBLIC "-//W3C//DTD SVG 1.1//EN"
  "http://www.w3.org/Graphics/SVG/1.1/DTD/svg11.dtd">
<!-- Created with matplotlib (https://matplotlib.org/) -->
<svg height="720pt" version="1.1" viewBox="0 0 720 720" width="720pt" xmlns="http://www.w3.org/2000/svg" xmlns:xlink="http://www.w3.org/1999/xlink">
 <defs>
  <style type="text/css">
*{stroke-linecap:butt;stroke-linejoin:round;}
  </style>
 </defs>
 <g id="figure_1">
  <g id="patch_1">
   <path d="M 0 720 
L 720 720 
L 720 0 
L 0 0 
z
" style="fill:#ffffff;"/>
  </g>
  <g id="axes_1">
   <g id="patch_2">
    <path d="M 90 630 
L 648 630 
L 648 86.4 
L 90 86.4 
z
" style="fill:#eaeaf2;"/>
   </g>
   <g id="matplotlib.axis_1">
    <g id="xtick_1">
     <g id="line2d_1">
      <path clip-path="url(#p14b71d4b80)" d="M 98.545018 630 
L 98.545018 86.4 
" style="fill:none;stroke:#ffffff;stroke-linecap:round;"/>
     </g>
     <g id="text_1">
      <!-- −2 -->
      <defs>
       <path d="M 52.828125 31.203125 
L 5.5625 31.203125 
L 5.5625 39.40625 
L 52.828125 39.40625 
z
" id="ArialMT-8722"/>
       <path d="M 50.34375 8.453125 
L 50.34375 0 
L 3.03125 0 
Q 2.9375 3.171875 4.046875 6.109375 
Q 5.859375 10.9375 9.828125 15.625 
Q 13.8125 20.3125 21.34375 26.46875 
Q 33.015625 36.03125 37.109375 41.625 
Q 41.21875 47.21875 41.21875 52.203125 
Q 41.21875 57.421875 37.46875 61 
Q 33.734375 64.59375 27.734375 64.59375 
Q 21.390625 64.59375 17.578125 60.78125 
Q 13.765625 56.984375 13.71875 50.25 
L 4.6875 51.171875 
Q 5.609375 61.28125 11.65625 66.578125 
Q 17.71875 71.875 27.9375 71.875 
Q 38.234375 71.875 44.234375 66.15625 
Q 50.25 60.453125 50.25 52 
Q 50.25 47.703125 48.484375 43.546875 
Q 46.734375 39.40625 42.65625 34.8125 
Q 38.578125 30.21875 29.109375 22.21875 
Q 21.1875 15.578125 18.9375 13.203125 
Q 16.703125 10.84375 15.234375 8.453125 
z
" id="ArialMT-50"/>
      </defs>
      <g style="fill:#262626;" transform="translate(92.274158 647.373594)scale(0.11 -0.11)">
       <use xlink:href="#ArialMT-8722"/>
       <use x="58.398438" xlink:href="#ArialMT-50"/>
      </g>
     </g>
    </g>
    <g id="xtick_2">
     <g id="line2d_2">
      <path clip-path="url(#p14b71d4b80)" d="M 203.068618 630 
L 203.068618 86.4 
" style="fill:none;stroke:#ffffff;stroke-linecap:round;"/>
     </g>
     <g id="text_2">
      <!-- 0 -->
      <defs>
       <path d="M 4.15625 35.296875 
Q 4.15625 48 6.765625 55.734375 
Q 9.375 63.484375 14.515625 67.671875 
Q 19.671875 71.875 27.484375 71.875 
Q 33.25 71.875 37.59375 69.546875 
Q 41.9375 67.234375 44.765625 62.859375 
Q 47.609375 58.5 49.21875 52.21875 
Q 50.828125 45.953125 50.828125 35.296875 
Q 50.828125 22.703125 48.234375 14.96875 
Q 45.65625 7.234375 40.5 3 
Q 35.359375 -1.21875 27.484375 -1.21875 
Q 17.140625 -1.21875 11.234375 6.203125 
Q 4.15625 15.140625 4.15625 35.296875 
z
M 13.1875 35.296875 
Q 13.1875 17.671875 17.3125 11.828125 
Q 21.4375 6 27.484375 6 
Q 33.546875 6 37.671875 11.859375 
Q 41.796875 17.71875 41.796875 35.296875 
Q 41.796875 52.984375 37.671875 58.78125 
Q 33.546875 64.59375 27.390625 64.59375 
Q 21.34375 64.59375 17.71875 59.46875 
Q 13.1875 52.9375 13.1875 35.296875 
z
" id="ArialMT-48"/>
      </defs>
      <g style="fill:#262626;" transform="translate(200.010103 647.373594)scale(0.11 -0.11)">
       <use xlink:href="#ArialMT-48"/>
      </g>
     </g>
    </g>
    <g id="xtick_3">
     <g id="line2d_3">
      <path clip-path="url(#p14b71d4b80)" d="M 307.592219 630 
L 307.592219 86.4 
" style="fill:none;stroke:#ffffff;stroke-linecap:round;"/>
     </g>
     <g id="text_3">
      <!-- 2 -->
      <g style="fill:#262626;" transform="translate(304.533703 647.373594)scale(0.11 -0.11)">
       <use xlink:href="#ArialMT-50"/>
      </g>
     </g>
    </g>
    <g id="xtick_4">
     <g id="line2d_4">
      <path clip-path="url(#p14b71d4b80)" d="M 412.11582 630 
L 412.11582 86.4 
" style="fill:none;stroke:#ffffff;stroke-linecap:round;"/>
     </g>
     <g id="text_4">
      <!-- 4 -->
      <defs>
       <path d="M 32.328125 0 
L 32.328125 17.140625 
L 1.265625 17.140625 
L 1.265625 25.203125 
L 33.9375 71.578125 
L 41.109375 71.578125 
L 41.109375 25.203125 
L 50.78125 25.203125 
L 50.78125 17.140625 
L 41.109375 17.140625 
L 41.109375 0 
z
M 32.328125 25.203125 
L 32.328125 57.46875 
L 9.90625 25.203125 
z
" id="ArialMT-52"/>
      </defs>
      <g style="fill:#262626;" transform="translate(409.057304 647.373594)scale(0.11 -0.11)">
       <use xlink:href="#ArialMT-52"/>
      </g>
     </g>
    </g>
    <g id="xtick_5">
     <g id="line2d_5">
      <path clip-path="url(#p14b71d4b80)" d="M 516.63942 630 
L 516.63942 86.4 
" style="fill:none;stroke:#ffffff;stroke-linecap:round;"/>
     </g>
     <g id="text_5">
      <!-- 6 -->
      <defs>
       <path d="M 49.75 54.046875 
L 41.015625 53.375 
Q 39.84375 58.546875 37.703125 60.890625 
Q 34.125 64.65625 28.90625 64.65625 
Q 24.703125 64.65625 21.53125 62.3125 
Q 17.390625 59.28125 14.984375 53.46875 
Q 12.59375 47.65625 12.5 36.921875 
Q 15.671875 41.75 20.265625 44.09375 
Q 24.859375 46.4375 29.890625 46.4375 
Q 38.671875 46.4375 44.84375 39.96875 
Q 51.03125 33.5 51.03125 23.25 
Q 51.03125 16.5 48.125 10.71875 
Q 45.21875 4.9375 40.140625 1.859375 
Q 35.0625 -1.21875 28.609375 -1.21875 
Q 17.625 -1.21875 10.6875 6.859375 
Q 3.765625 14.9375 3.765625 33.5 
Q 3.765625 54.25 11.421875 63.671875 
Q 18.109375 71.875 29.4375 71.875 
Q 37.890625 71.875 43.28125 67.140625 
Q 48.6875 62.40625 49.75 54.046875 
z
M 13.875 23.1875 
Q 13.875 18.65625 15.796875 14.5 
Q 17.71875 10.359375 21.1875 8.171875 
Q 24.65625 6 28.46875 6 
Q 34.03125 6 38.03125 10.484375 
Q 42.046875 14.984375 42.046875 22.703125 
Q 42.046875 30.125 38.078125 34.390625 
Q 34.125 38.671875 28.125 38.671875 
Q 22.171875 38.671875 18.015625 34.390625 
Q 13.875 30.125 13.875 23.1875 
z
" id="ArialMT-54"/>
      </defs>
      <g style="fill:#262626;" transform="translate(513.580905 647.373594)scale(0.11 -0.11)">
       <use xlink:href="#ArialMT-54"/>
      </g>
     </g>
    </g>
    <g id="xtick_6">
     <g id="line2d_6">
      <path clip-path="url(#p14b71d4b80)" d="M 621.163021 630 
L 621.163021 86.4 
" style="fill:none;stroke:#ffffff;stroke-linecap:round;"/>
     </g>
     <g id="text_6">
      <!-- 8 -->
      <defs>
       <path d="M 17.671875 38.8125 
Q 12.203125 40.828125 9.5625 44.53125 
Q 6.9375 48.25 6.9375 53.421875 
Q 6.9375 61.234375 12.546875 66.546875 
Q 18.171875 71.875 27.484375 71.875 
Q 36.859375 71.875 42.578125 66.421875 
Q 48.296875 60.984375 48.296875 53.171875 
Q 48.296875 48.1875 45.671875 44.5 
Q 43.0625 40.828125 37.75 38.8125 
Q 44.34375 36.671875 47.78125 31.875 
Q 51.21875 27.09375 51.21875 20.453125 
Q 51.21875 11.28125 44.71875 5.03125 
Q 38.234375 -1.21875 27.640625 -1.21875 
Q 17.046875 -1.21875 10.546875 5.046875 
Q 4.046875 11.328125 4.046875 20.703125 
Q 4.046875 27.6875 7.59375 32.390625 
Q 11.140625 37.109375 17.671875 38.8125 
z
M 15.921875 53.71875 
Q 15.921875 48.640625 19.1875 45.40625 
Q 22.46875 42.1875 27.6875 42.1875 
Q 32.765625 42.1875 36.015625 45.375 
Q 39.265625 48.578125 39.265625 53.21875 
Q 39.265625 58.0625 35.90625 61.359375 
Q 32.5625 64.65625 27.59375 64.65625 
Q 22.5625 64.65625 19.234375 61.421875 
Q 15.921875 58.203125 15.921875 53.71875 
z
M 13.09375 20.65625 
Q 13.09375 16.890625 14.875 13.375 
Q 16.65625 9.859375 20.171875 7.921875 
Q 23.6875 6 27.734375 6 
Q 34.03125 6 38.125 10.046875 
Q 42.234375 14.109375 42.234375 20.359375 
Q 42.234375 26.703125 38.015625 30.859375 
Q 33.796875 35.015625 27.4375 35.015625 
Q 21.234375 35.015625 17.15625 30.90625 
Q 13.09375 26.8125 13.09375 20.65625 
z
" id="ArialMT-56"/>
      </defs>
      <g style="fill:#262626;" transform="translate(618.104506 647.373594)scale(0.11 -0.11)">
       <use xlink:href="#ArialMT-56"/>
      </g>
     </g>
    </g>
   </g>
   <g id="matplotlib.axis_2">
    <g id="ytick_1">
     <g id="line2d_7">
      <path clip-path="url(#p14b71d4b80)" d="M 90 565.421832 
L 648 565.421832 
" style="fill:none;stroke:#ffffff;stroke-linecap:round;"/>
     </g>
     <g id="text_7">
      <!-- −2 -->
      <g style="fill:#262626;" transform="translate(67.958281 569.358628)scale(0.11 -0.11)">
       <use xlink:href="#ArialMT-8722"/>
       <use x="58.398438" xlink:href="#ArialMT-50"/>
      </g>
     </g>
    </g>
    <g id="ytick_2">
     <g id="line2d_8">
      <path clip-path="url(#p14b71d4b80)" d="M 90 464.470646 
L 648 464.470646 
" style="fill:none;stroke:#ffffff;stroke-linecap:round;"/>
     </g>
     <g id="text_8">
      <!-- 0 -->
      <g style="fill:#262626;" transform="translate(74.382969 468.407443)scale(0.11 -0.11)">
       <use xlink:href="#ArialMT-48"/>
      </g>
     </g>
    </g>
    <g id="ytick_3">
     <g id="line2d_9">
      <path clip-path="url(#p14b71d4b80)" d="M 90 363.51946 
L 648 363.51946 
" style="fill:none;stroke:#ffffff;stroke-linecap:round;"/>
     </g>
     <g id="text_9">
      <!-- 2 -->
      <g style="fill:#262626;" transform="translate(74.382969 367.456257)scale(0.11 -0.11)">
       <use xlink:href="#ArialMT-50"/>
      </g>
     </g>
    </g>
    <g id="ytick_4">
     <g id="line2d_10">
      <path clip-path="url(#p14b71d4b80)" d="M 90 262.568274 
L 648 262.568274 
" style="fill:none;stroke:#ffffff;stroke-linecap:round;"/>
     </g>
     <g id="text_10">
      <!-- 4 -->
      <g style="fill:#262626;" transform="translate(74.382969 266.505071)scale(0.11 -0.11)">
       <use xlink:href="#ArialMT-52"/>
      </g>
     </g>
    </g>
    <g id="ytick_5">
     <g id="line2d_11">
      <path clip-path="url(#p14b71d4b80)" d="M 90 161.617088 
L 648 161.617088 
" style="fill:none;stroke:#ffffff;stroke-linecap:round;"/>
     </g>
     <g id="text_11">
      <!-- 6 -->
      <g style="fill:#262626;" transform="translate(74.382969 165.553885)scale(0.11 -0.11)">
       <use xlink:href="#ArialMT-54"/>
      </g>
     </g>
    </g>
   </g>
   <g id="PathCollection_1">
    <defs>
     <path d="M 0 3 
C 0.795609 3 1.55874 2.683901 2.12132 2.12132 
C 2.683901 1.55874 3 0.795609 3 0 
C 3 -0.795609 2.683901 -1.55874 2.12132 -2.12132 
C 1.55874 -2.683901 0.795609 -3 0 -3 
C -0.795609 -3 -1.55874 -2.683901 -2.12132 -2.12132 
C -2.683901 -1.55874 -3 -0.795609 -3 0 
C -3 0.795609 -2.683901 1.55874 -2.12132 2.12132 
C -1.55874 2.683901 -0.795609 3 0 3 
z
" id="m856ea9ef61" style="stroke:#c44e52;"/>
    </defs>
    <g clip-path="url(#p14b71d4b80)">
     <use style="fill:#c44e52;stroke:#c44e52;" x="136.348147" xlink:href="#m856ea9ef61" y="448.882958"/>
    </g>
   </g>
   <g id="PathCollection_2">
    <defs>
     <path d="M 0 3 
C 0.795609 3 1.55874 2.683901 2.12132 2.12132 
C 2.683901 1.55874 3 0.795609 3 0 
C 3 -0.795609 2.683901 -1.55874 2.12132 -2.12132 
C 1.55874 -2.683901 0.795609 -3 0 -3 
C -0.795609 -3 -1.55874 -2.683901 -2.12132 -2.12132 
C -2.683901 -1.55874 -3 -0.795609 -3 0 
C -3 0.795609 -2.683901 1.55874 -2.12132 2.12132 
C -1.55874 2.683901 -0.795609 3 0 3 
z
" id="mfc8efd4808" style="stroke:#4c72b0;"/>
    </defs>
    <g clip-path="url(#p14b71d4b80)">
     <use style="fill:#4c72b0;stroke:#4c72b0;" x="167.55445" xlink:href="#mfc8efd4808" y="468.695377"/>
    </g>
   </g>
   <g id="PathCollection_3">
    <defs>
     <path d="M 0 3 
C 0.795609 3 1.55874 2.683901 2.12132 2.12132 
C 2.683901 1.55874 3 0.795609 3 0 
C 3 -0.795609 2.683901 -1.55874 2.12132 -2.12132 
C 1.55874 -2.683901 0.795609 -3 0 -3 
C -0.795609 -3 -1.55874 -2.683901 -2.12132 -2.12132 
C -2.683901 -1.55874 -3 -0.795609 -3 0 
C -3 0.795609 -2.683901 1.55874 -2.12132 2.12132 
C -1.55874 2.683901 -0.795609 3 0 3 
z
" id="m8b522ba2ad" style="stroke:#55a868;"/>
    </defs>
    <g clip-path="url(#p14b71d4b80)">
     <use style="fill:#55a868;stroke:#55a868;" x="133.101227" xlink:href="#m8b522ba2ad" y="466.147907"/>
    </g>
   </g>
   <g id="PathCollection_4">
    <g clip-path="url(#p14b71d4b80)">
     <use style="fill:#c44e52;stroke:#c44e52;" x="126.186306" xlink:href="#m856ea9ef61" y="466.960763"/>
    </g>
   </g>
   <g id="PathCollection_5">
    <g clip-path="url(#p14b71d4b80)">
     <use style="fill:#c44e52;stroke:#c44e52;" x="127.14379" xlink:href="#m856ea9ef61" y="451.837642"/>
    </g>
   </g>
   <g id="PathCollection_6">
    <g clip-path="url(#p14b71d4b80)">
     <use style="fill:#55a868;stroke:#55a868;" x="169.324298" xlink:href="#m8b522ba2ad" y="442.625056"/>
    </g>
   </g>
   <g id="PathCollection_7">
    <g clip-path="url(#p14b71d4b80)">
     <use style="fill:#4c72b0;stroke:#4c72b0;" x="392.583361" xlink:href="#mfc8efd4808" y="605.270949"/>
    </g>
   </g>
   <g id="PathCollection_8">
    <g clip-path="url(#p14b71d4b80)">
     <use style="fill:#4c72b0;stroke:#4c72b0;" x="394.677151" xlink:href="#mfc8efd4808" y="595.264884"/>
    </g>
   </g>
   <g id="PathCollection_9">
    <g clip-path="url(#p14b71d4b80)">
     <use style="fill:#c44e52;stroke:#c44e52;" x="121.162912" xlink:href="#m856ea9ef61" y="460.158993"/>
    </g>
   </g>
   <g id="PathCollection_10">
    <g clip-path="url(#p14b71d4b80)">
     <use style="fill:#c44e52;stroke:#c44e52;" x="132.439813" xlink:href="#m856ea9ef61" y="470.357923"/>
    </g>
   </g>
   <g id="PathCollection_11">
    <g clip-path="url(#p14b71d4b80)">
     <use style="fill:#55a868;stroke:#55a868;" x="138.91776" xlink:href="#m8b522ba2ad" y="448.933916"/>
    </g>
   </g>
   <g id="PathCollection_12">
    <g clip-path="url(#p14b71d4b80)">
     <use style="fill:#c44e52;stroke:#c44e52;" x="128.961585" xlink:href="#m856ea9ef61" y="464.300306"/>
    </g>
   </g>
   <g id="PathCollection_13">
    <g clip-path="url(#p14b71d4b80)">
     <use style="fill:#4c72b0;stroke:#4c72b0;" x="398.848243" xlink:href="#mfc8efd4808" y="594.604242"/>
    </g>
   </g>
   <g id="PathCollection_14">
    <g clip-path="url(#p14b71d4b80)">
     <use style="fill:#c44e52;stroke:#c44e52;" x="115.363636" xlink:href="#m856ea9ef61" y="455.779866"/>
    </g>
   </g>
   <g id="PathCollection_15">
    <g clip-path="url(#p14b71d4b80)">
     <use style="fill:#55a868;stroke:#55a868;" x="142.645397" xlink:href="#m8b522ba2ad" y="454.559674"/>
    </g>
   </g>
   <g id="PathCollection_16">
    <g clip-path="url(#p14b71d4b80)">
     <use style="fill:#4c72b0;stroke:#4c72b0;" x="393.984749" xlink:href="#mfc8efd4808" y="605.290909"/>
    </g>
   </g>
   <g id="PathCollection_17">
    <g clip-path="url(#p14b71d4b80)">
     <use style="fill:#55a868;stroke:#55a868;" x="139.964012" xlink:href="#m8b522ba2ad" y="455.258164"/>
    </g>
   </g>
   <g id="PathCollection_18">
    <g clip-path="url(#p14b71d4b80)">
     <use style="fill:#4c72b0;stroke:#4c72b0;" x="158.820816" xlink:href="#mfc8efd4808" y="472.304656"/>
    </g>
   </g>
   <g id="PathCollection_19">
    <g clip-path="url(#p14b71d4b80)">
     <use style="fill:#c44e52;stroke:#c44e52;" x="131.203033" xlink:href="#m856ea9ef61" y="454.822336"/>
    </g>
   </g>
   <g id="PathCollection_20">
    <g clip-path="url(#p14b71d4b80)">
     <use style="fill:#55a868;stroke:#55a868;" x="141.828202" xlink:href="#m8b522ba2ad" y="459.880101"/>
    </g>
   </g>
   <g id="PathCollection_21">
    <g clip-path="url(#p14b71d4b80)">
     <use style="fill:#c44e52;stroke:#c44e52;" x="127.102181" xlink:href="#m856ea9ef61" y="460.279858"/>
    </g>
   </g>
   <g id="PathCollection_22">
    <g clip-path="url(#p14b71d4b80)">
     <use style="fill:#c44e52;stroke:#c44e52;" x="139.41348" xlink:href="#m856ea9ef61" y="436.903548"/>
    </g>
   </g>
   <g id="PathCollection_23">
    <g clip-path="url(#p14b71d4b80)">
     <use style="fill:#c44e52;stroke:#c44e52;" x="138.97005" xlink:href="#m856ea9ef61" y="458.667069"/>
    </g>
   </g>
   <g id="PathCollection_24">
    <g clip-path="url(#p14b71d4b80)">
     <use style="fill:#55a868;stroke:#55a868;" x="168.228451" xlink:href="#m8b522ba2ad" y="431.548065"/>
    </g>
   </g>
   <g id="PathCollection_25">
    <g clip-path="url(#p14b71d4b80)">
     <use style="fill:#4c72b0;stroke:#4c72b0;" x="406.578397" xlink:href="#mfc8efd4808" y="578.034484"/>
    </g>
   </g>
   <g id="PathCollection_26">
    <g clip-path="url(#p14b71d4b80)">
     <use style="fill:#c44e52;stroke:#c44e52;" x="137.712069" xlink:href="#m856ea9ef61" y="460.077023"/>
    </g>
   </g>
   <g id="PathCollection_27">
    <g clip-path="url(#p14b71d4b80)">
     <use style="fill:#55a868;stroke:#55a868;" x="135.759475" xlink:href="#m8b522ba2ad" y="462.879659"/>
    </g>
   </g>
   <g id="PathCollection_28">
    <g clip-path="url(#p14b71d4b80)">
     <use style="fill:#55a868;stroke:#55a868;" x="144.444618" xlink:href="#m8b522ba2ad" y="464.947454"/>
    </g>
   </g>
   <g id="PathCollection_29">
    <g clip-path="url(#p14b71d4b80)">
     <use style="fill:#c44e52;stroke:#c44e52;" x="131.831438" xlink:href="#m856ea9ef61" y="458.110271"/>
    </g>
   </g>
   <g id="PathCollection_30">
    <g clip-path="url(#p14b71d4b80)">
     <use style="fill:#55a868;stroke:#55a868;" x="138.73942" xlink:href="#m8b522ba2ad" y="468.19849"/>
    </g>
   </g>
   <g id="PathCollection_31">
    <g clip-path="url(#p14b71d4b80)">
     <use style="fill:#55a868;stroke:#55a868;" x="176.693654" xlink:href="#m8b522ba2ad" y="424.47991"/>
    </g>
   </g>
   <g id="PathCollection_32">
    <g clip-path="url(#p14b71d4b80)">
     <use style="fill:#c44e52;stroke:#c44e52;" x="123.599272" xlink:href="#m856ea9ef61" y="451.295548"/>
    </g>
   </g>
   <g id="PathCollection_33">
    <g clip-path="url(#p14b71d4b80)">
     <use style="fill:#55a868;stroke:#55a868;" x="166.666903" xlink:href="#m8b522ba2ad" y="426.220073"/>
    </g>
   </g>
   <g id="PathCollection_34">
    <g clip-path="url(#p14b71d4b80)">
     <use style="fill:#c44e52;stroke:#c44e52;" x="141.1397" xlink:href="#m856ea9ef61" y="442.433359"/>
    </g>
   </g>
   <g id="PathCollection_35">
    <g clip-path="url(#p14b71d4b80)">
     <use style="fill:#4c72b0;stroke:#4c72b0;" x="161.973067" xlink:href="#mfc8efd4808" y="475.325912"/>
    </g>
   </g>
   <g id="PathCollection_36">
    <g clip-path="url(#p14b71d4b80)">
     <use style="fill:#c44e52;stroke:#c44e52;" x="131.543742" xlink:href="#m856ea9ef61" y="454.639387"/>
    </g>
   </g>
   <g id="PathCollection_37">
    <g clip-path="url(#p14b71d4b80)">
     <use style="fill:#4c72b0;stroke:#4c72b0;" x="455.506447" xlink:href="#mfc8efd4808" y="480.804752"/>
    </g>
   </g>
   <g id="PathCollection_38">
    <g clip-path="url(#p14b71d4b80)">
     <use style="fill:#4c72b0;stroke:#4c72b0;" x="424.764982" xlink:href="#mfc8efd4808" y="584.710579"/>
    </g>
   </g>
   <g id="PathCollection_39">
    <g clip-path="url(#p14b71d4b80)">
     <use style="fill:#55a868;stroke:#55a868;" x="133.112155" xlink:href="#m8b522ba2ad" y="461.094183"/>
    </g>
   </g>
   <g id="PathCollection_40">
    <g clip-path="url(#p14b71d4b80)">
     <use style="fill:#55a868;stroke:#55a868;" x="140.845933" xlink:href="#m8b522ba2ad" y="449.121171"/>
    </g>
   </g>
   <g id="PathCollection_41">
    <g clip-path="url(#p14b71d4b80)">
     <use style="fill:#4c72b0;stroke:#4c72b0;" x="159.144337" xlink:href="#mfc8efd4808" y="468.986205"/>
    </g>
   </g>
   <g id="PathCollection_42">
    <g clip-path="url(#p14b71d4b80)">
     <use style="fill:#4c72b0;stroke:#4c72b0;" x="434.696467" xlink:href="#mfc8efd4808" y="560.527051"/>
    </g>
   </g>
   <g id="PathCollection_43">
    <g clip-path="url(#p14b71d4b80)">
     <use style="fill:#c44e52;stroke:#c44e52;" x="136.622827" xlink:href="#m856ea9ef61" y="447.688109"/>
    </g>
   </g>
   <g id="PathCollection_44">
    <g clip-path="url(#p14b71d4b80)">
     <use style="fill:#55a868;stroke:#55a868;" x="146.429703" xlink:href="#m8b522ba2ad" y="455.171587"/>
    </g>
   </g>
   <g id="PathCollection_45">
    <g clip-path="url(#p14b71d4b80)">
     <use style="fill:#55a868;stroke:#55a868;" x="145.151944" xlink:href="#m8b522ba2ad" y="460.082279"/>
    </g>
   </g>
   <g id="PathCollection_46">
    <g clip-path="url(#p14b71d4b80)">
     <use style="fill:#4c72b0;stroke:#4c72b0;" x="583.111929" xlink:href="#mfc8efd4808" y="203.345034"/>
    </g>
   </g>
   <g id="PathCollection_47">
    <g clip-path="url(#p14b71d4b80)">
     <use style="fill:#c44e52;stroke:#c44e52;" x="141.422598" xlink:href="#m856ea9ef61" y="441.400522"/>
    </g>
   </g>
   <g id="PathCollection_48">
    <g clip-path="url(#p14b71d4b80)">
     <use style="fill:#55a868;stroke:#55a868;" x="144.122459" xlink:href="#m8b522ba2ad" y="461.076431"/>
    </g>
   </g>
   <g id="PathCollection_49">
    <g clip-path="url(#p14b71d4b80)">
     <use style="fill:#55a868;stroke:#55a868;" x="128.850302" xlink:href="#m8b522ba2ad" y="470.123313"/>
    </g>
   </g>
   <g id="PathCollection_50">
    <g clip-path="url(#p14b71d4b80)">
     <use style="fill:#c44e52;stroke:#c44e52;" x="118.760163" xlink:href="#m856ea9ef61" y="458.642703"/>
    </g>
   </g>
   <g id="PathCollection_51">
    <g clip-path="url(#p14b71d4b80)">
     <use style="fill:#c44e52;stroke:#c44e52;" x="138.40251" xlink:href="#m856ea9ef61" y="441.686726"/>
    </g>
   </g>
   <g id="PathCollection_52">
    <g clip-path="url(#p14b71d4b80)">
     <use style="fill:#4c72b0;stroke:#4c72b0;" x="397.144508" xlink:href="#mfc8efd4808" y="599.613546"/>
    </g>
   </g>
   <g id="PathCollection_53">
    <g clip-path="url(#p14b71d4b80)">
     <use style="fill:#55a868;stroke:#55a868;" x="143.794528" xlink:href="#m8b522ba2ad" y="463.639646"/>
    </g>
   </g>
   <g id="PathCollection_54">
    <g clip-path="url(#p14b71d4b80)">
     <use style="fill:#c44e52;stroke:#c44e52;" x="138.431402" xlink:href="#m856ea9ef61" y="442.670742"/>
    </g>
   </g>
   <g id="PathCollection_55">
    <g clip-path="url(#p14b71d4b80)">
     <use style="fill:#55a868;stroke:#55a868;" x="161.893328" xlink:href="#m8b522ba2ad" y="444.25688"/>
    </g>
   </g>
   <g id="PathCollection_56">
    <g clip-path="url(#p14b71d4b80)">
     <use style="fill:#c44e52;stroke:#c44e52;" x="138.358891" xlink:href="#m856ea9ef61" y="446.525733"/>
    </g>
   </g>
   <g id="PathCollection_57">
    <g clip-path="url(#p14b71d4b80)">
     <use style="fill:#55a868;stroke:#55a868;" x="133.037502" xlink:href="#m8b522ba2ad" y="462.160008"/>
    </g>
   </g>
   <g id="PathCollection_58">
    <g clip-path="url(#p14b71d4b80)">
     <use style="fill:#55a868;stroke:#55a868;" x="185.135629" xlink:href="#m8b522ba2ad" y="451.090917"/>
    </g>
   </g>
   <g id="PathCollection_59">
    <g clip-path="url(#p14b71d4b80)">
     <use style="fill:#4c72b0;stroke:#4c72b0;" x="149.516488" xlink:href="#mfc8efd4808" y="478.607282"/>
    </g>
   </g>
   <g id="PathCollection_60">
    <g clip-path="url(#p14b71d4b80)">
     <use style="fill:#4c72b0;stroke:#4c72b0;" x="166.528156" xlink:href="#mfc8efd4808" y="465.355472"/>
    </g>
   </g>
   <g id="PathCollection_61">
    <g clip-path="url(#p14b71d4b80)">
     <use style="fill:#55a868;stroke:#55a868;" x="133.789355" xlink:href="#m8b522ba2ad" y="444.360728"/>
    </g>
   </g>
   <g id="PathCollection_62">
    <g clip-path="url(#p14b71d4b80)">
     <use style="fill:#55a868;stroke:#55a868;" x="137.751695" xlink:href="#m8b522ba2ad" y="442.01748"/>
    </g>
   </g>
   <g id="PathCollection_63">
    <g clip-path="url(#p14b71d4b80)">
     <use style="fill:#c44e52;stroke:#c44e52;" x="146.944384" xlink:href="#m856ea9ef61" y="437.175147"/>
    </g>
   </g>
   <g id="PathCollection_64">
    <g clip-path="url(#p14b71d4b80)">
     <use style="fill:#55a868;stroke:#55a868;" x="135.323832" xlink:href="#m8b522ba2ad" y="459.976161"/>
    </g>
   </g>
   <g id="PathCollection_65">
    <g clip-path="url(#p14b71d4b80)">
     <use style="fill:#4c72b0;stroke:#4c72b0;" x="510.495622" xlink:href="#mfc8efd4808" y="371.506351"/>
    </g>
   </g>
   <g id="PathCollection_66">
    <g clip-path="url(#p14b71d4b80)">
     <use style="fill:#c44e52;stroke:#c44e52;" x="126.591029" xlink:href="#m856ea9ef61" y="460.096259"/>
    </g>
   </g>
   <g id="PathCollection_67">
    <g clip-path="url(#p14b71d4b80)">
     <use style="fill:#4c72b0;stroke:#4c72b0;" x="395.811374" xlink:href="#mfc8efd4808" y="587.21684"/>
    </g>
   </g>
   <g id="PathCollection_68">
    <g clip-path="url(#p14b71d4b80)">
     <use style="fill:#4c72b0;stroke:#4c72b0;" x="159.487679" xlink:href="#mfc8efd4808" y="476.945756"/>
    </g>
   </g>
   <g id="PathCollection_69">
    <g clip-path="url(#p14b71d4b80)">
     <use style="fill:#4c72b0;stroke:#4c72b0;" x="436.311387" xlink:href="#mfc8efd4808" y="568.30886"/>
    </g>
   </g>
   <g id="PathCollection_70">
    <g clip-path="url(#p14b71d4b80)">
     <use style="fill:#55a868;stroke:#55a868;" x="180.488057" xlink:href="#m8b522ba2ad" y="438.516158"/>
    </g>
   </g>
   <g id="PathCollection_71">
    <g clip-path="url(#p14b71d4b80)">
     <use style="fill:#55a868;stroke:#55a868;" x="138.746167" xlink:href="#m8b522ba2ad" y="455.402198"/>
    </g>
   </g>
   <g id="PathCollection_72">
    <g clip-path="url(#p14b71d4b80)">
     <use style="fill:#55a868;stroke:#55a868;" x="137.553162" xlink:href="#m8b522ba2ad" y="448.154642"/>
    </g>
   </g>
   <g id="PathCollection_73">
    <g clip-path="url(#p14b71d4b80)">
     <use style="fill:#55a868;stroke:#55a868;" x="144.529353" xlink:href="#m8b522ba2ad" y="464.171595"/>
    </g>
   </g>
   <g id="PathCollection_74">
    <g clip-path="url(#p14b71d4b80)">
     <use style="fill:#4c72b0;stroke:#4c72b0;" x="162.591339" xlink:href="#mfc8efd4808" y="461.268976"/>
    </g>
   </g>
   <g id="PathCollection_75">
    <g clip-path="url(#p14b71d4b80)">
     <use style="fill:#55a868;stroke:#55a868;" x="147.053999" xlink:href="#m8b522ba2ad" y="441.909332"/>
    </g>
   </g>
   <g id="PathCollection_76">
    <g clip-path="url(#p14b71d4b80)">
     <use style="fill:#4c72b0;stroke:#4c72b0;" x="168.70978" xlink:href="#mfc8efd4808" y="456.199056"/>
    </g>
   </g>
   <g id="PathCollection_77">
    <g clip-path="url(#p14b71d4b80)">
     <use style="fill:#55a868;stroke:#55a868;" x="127.456205" xlink:href="#m8b522ba2ad" y="458.114235"/>
    </g>
   </g>
   <g id="PathCollection_78">
    <g clip-path="url(#p14b71d4b80)">
     <use style="fill:#c44e52;stroke:#c44e52;" x="135.852803" xlink:href="#m856ea9ef61" y="449.215824"/>
    </g>
   </g>
   <g id="PathCollection_79">
    <g clip-path="url(#p14b71d4b80)">
     <use style="fill:#c44e52;stroke:#c44e52;" x="122.911885" xlink:href="#m856ea9ef61" y="457.689395"/>
    </g>
   </g>
   <g id="PathCollection_80">
    <g clip-path="url(#p14b71d4b80)">
     <use style="fill:#c44e52;stroke:#c44e52;" x="141.239936" xlink:href="#m856ea9ef61" y="452.635525"/>
    </g>
   </g>
   <g id="PathCollection_81">
    <g clip-path="url(#p14b71d4b80)">
     <use style="fill:#55a868;stroke:#55a868;" x="135.87538" xlink:href="#m8b522ba2ad" y="455.036851"/>
    </g>
   </g>
   <g id="PathCollection_82">
    <g clip-path="url(#p14b71d4b80)">
     <use style="fill:#4c72b0;stroke:#4c72b0;" x="151.081614" xlink:href="#mfc8efd4808" y="473.472244"/>
    </g>
   </g>
   <g id="PathCollection_83">
    <g clip-path="url(#p14b71d4b80)">
     <use style="fill:#4c72b0;stroke:#4c72b0;" x="157.105423" xlink:href="#mfc8efd4808" y="486.031912"/>
    </g>
   </g>
   <g id="PathCollection_84">
    <g clip-path="url(#p14b71d4b80)">
     <use style="fill:#4c72b0;stroke:#4c72b0;" x="530.322569" xlink:href="#mfc8efd4808" y="316.605045"/>
    </g>
   </g>
   <g id="PathCollection_85">
    <g clip-path="url(#p14b71d4b80)">
     <use style="fill:#4c72b0;stroke:#4c72b0;" x="169.402049" xlink:href="#mfc8efd4808" y="464.078055"/>
    </g>
   </g>
   <g id="PathCollection_86">
    <g clip-path="url(#p14b71d4b80)">
     <use style="fill:#55a868;stroke:#55a868;" x="171.136553" xlink:href="#m8b522ba2ad" y="432.137034"/>
    </g>
   </g>
   <g id="PathCollection_87">
    <g clip-path="url(#p14b71d4b80)">
     <use style="fill:#c44e52;stroke:#c44e52;" x="120.999942" xlink:href="#m856ea9ef61" y="457.167854"/>
    </g>
   </g>
   <g id="PathCollection_88">
    <g clip-path="url(#p14b71d4b80)">
     <use style="fill:#55a868;stroke:#55a868;" x="139.572678" xlink:href="#m8b522ba2ad" y="470.897285"/>
    </g>
   </g>
   <g id="PathCollection_89">
    <g clip-path="url(#p14b71d4b80)">
     <use style="fill:#c44e52;stroke:#c44e52;" x="126.906405" xlink:href="#m856ea9ef61" y="457.929375"/>
    </g>
   </g>
   <g id="PathCollection_90">
    <g clip-path="url(#p14b71d4b80)">
     <use style="fill:#4c72b0;stroke:#4c72b0;" x="423.093396" xlink:href="#mfc8efd4808" y="597.807865"/>
    </g>
   </g>
   <g id="PathCollection_91">
    <g clip-path="url(#p14b71d4b80)">
     <use style="fill:#c44e52;stroke:#c44e52;" x="128.002199" xlink:href="#m856ea9ef61" y="468.210257"/>
    </g>
   </g>
   <g id="PathCollection_92">
    <g clip-path="url(#p14b71d4b80)">
     <use style="fill:#55a868;stroke:#55a868;" x="142.551178" xlink:href="#m8b522ba2ad" y="464.474108"/>
    </g>
   </g>
   <g id="PathCollection_93">
    <g clip-path="url(#p14b71d4b80)">
     <use style="fill:#c44e52;stroke:#c44e52;" x="137.734629" xlink:href="#m856ea9ef61" y="454.926207"/>
    </g>
   </g>
   <g id="PathCollection_94">
    <g clip-path="url(#p14b71d4b80)">
     <use style="fill:#55a868;stroke:#55a868;" x="138.90362" xlink:href="#m8b522ba2ad" y="455.219045"/>
    </g>
   </g>
   <g id="PathCollection_95">
    <g clip-path="url(#p14b71d4b80)">
     <use style="fill:#55a868;stroke:#55a868;" x="137.309175" xlink:href="#m8b522ba2ad" y="455.675418"/>
    </g>
   </g>
   <g id="PathCollection_96">
    <g clip-path="url(#p14b71d4b80)">
     <use style="fill:#55a868;stroke:#55a868;" x="137.068237" xlink:href="#m8b522ba2ad" y="464.506607"/>
    </g>
   </g>
   <g id="PathCollection_97">
    <g clip-path="url(#p14b71d4b80)">
     <use style="fill:#4c72b0;stroke:#4c72b0;" x="404.626842" xlink:href="#mfc8efd4808" y="580.554087"/>
    </g>
   </g>
   <g id="PathCollection_98">
    <g clip-path="url(#p14b71d4b80)">
     <use style="fill:#c44e52;stroke:#c44e52;" x="136.056793" xlink:href="#m856ea9ef61" y="465.355477"/>
    </g>
   </g>
   <g id="PathCollection_99">
    <g clip-path="url(#p14b71d4b80)">
     <use style="fill:#c44e52;stroke:#c44e52;" x="142.511514" xlink:href="#m856ea9ef61" y="446.869726"/>
    </g>
   </g>
   <g id="PathCollection_100">
    <g clip-path="url(#p14b71d4b80)">
     <use style="fill:#55a868;stroke:#55a868;" x="132.668022" xlink:href="#m8b522ba2ad" y="457.156746"/>
    </g>
   </g>
   <g id="PathCollection_101">
    <g clip-path="url(#p14b71d4b80)">
     <use style="fill:#c44e52;stroke:#c44e52;" x="129.767356" xlink:href="#m856ea9ef61" y="461.653853"/>
    </g>
   </g>
   <g id="PathCollection_102">
    <g clip-path="url(#p14b71d4b80)">
     <use style="fill:#4c72b0;stroke:#4c72b0;" x="158.975307" xlink:href="#mfc8efd4808" y="472.849436"/>
    </g>
   </g>
   <g id="PathCollection_103">
    <g clip-path="url(#p14b71d4b80)">
     <use style="fill:#c44e52;stroke:#c44e52;" x="136.141031" xlink:href="#m856ea9ef61" y="449.233013"/>
    </g>
   </g>
   <g id="PathCollection_104">
    <g clip-path="url(#p14b71d4b80)">
     <use style="fill:#4c72b0;stroke:#4c72b0;" x="437.113454" xlink:href="#mfc8efd4808" y="578.719571"/>
    </g>
   </g>
   <g id="PathCollection_105">
    <g clip-path="url(#p14b71d4b80)">
     <use style="fill:#4c72b0;stroke:#4c72b0;" x="156.594739" xlink:href="#mfc8efd4808" y="471.220917"/>
    </g>
   </g>
   <g id="PathCollection_106">
    <g clip-path="url(#p14b71d4b80)">
     <use style="fill:#c44e52;stroke:#c44e52;" x="118.096487" xlink:href="#m856ea9ef61" y="456.789889"/>
    </g>
   </g>
   <g id="PathCollection_107">
    <g clip-path="url(#p14b71d4b80)">
     <use style="fill:#4c72b0;stroke:#4c72b0;" x="622.636364" xlink:href="#mfc8efd4808" y="111.109091"/>
    </g>
   </g>
   <g id="PathCollection_108">
    <g clip-path="url(#p14b71d4b80)">
     <use style="fill:#4c72b0;stroke:#4c72b0;" x="573.684471" xlink:href="#mfc8efd4808" y="229.729487"/>
    </g>
   </g>
   <g id="PathCollection_109">
    <g clip-path="url(#p14b71d4b80)">
     <use style="fill:#4c72b0;stroke:#4c72b0;" x="483.782589" xlink:href="#mfc8efd4808" y="423.267724"/>
    </g>
   </g>
   <g id="PathCollection_110">
    <g clip-path="url(#p14b71d4b80)">
     <use style="fill:#c44e52;stroke:#c44e52;" x="133.892633" xlink:href="#m856ea9ef61" y="448.357286"/>
    </g>
   </g>
   <g id="PathCollection_111">
    <g clip-path="url(#p14b71d4b80)">
     <use style="fill:#4c72b0;stroke:#4c72b0;" x="166.652793" xlink:href="#mfc8efd4808" y="469.839135"/>
    </g>
   </g>
   <g id="PathCollection_112">
    <g clip-path="url(#p14b71d4b80)">
     <use style="fill:#55a868;stroke:#55a868;" x="137.974149" xlink:href="#m8b522ba2ad" y="455.086949"/>
    </g>
   </g>
   <g id="PathCollection_113">
    <g clip-path="url(#p14b71d4b80)">
     <use style="fill:#c44e52;stroke:#c44e52;" x="133.17563" xlink:href="#m856ea9ef61" y="457.379972"/>
    </g>
   </g>
   <g id="PathCollection_114">
    <g clip-path="url(#p14b71d4b80)">
     <use style="fill:#4c72b0;stroke:#4c72b0;" x="431.70139" xlink:href="#mfc8efd4808" y="578.0168"/>
    </g>
   </g>
   <g id="PathCollection_115">
    <g clip-path="url(#p14b71d4b80)">
     <use style="fill:#4c72b0;stroke:#4c72b0;" x="417.982294" xlink:href="#mfc8efd4808" y="602.665818"/>
    </g>
   </g>
   <g id="PathCollection_116">
    <g clip-path="url(#p14b71d4b80)">
     <use style="fill:#c44e52;stroke:#c44e52;" x="136.255784" xlink:href="#m856ea9ef61" y="453.613196"/>
    </g>
   </g>
   <g id="PathCollection_117">
    <g clip-path="url(#p14b71d4b80)">
     <use style="fill:#4c72b0;stroke:#4c72b0;" x="158.365037" xlink:href="#mfc8efd4808" y="479.802587"/>
    </g>
   </g>
   <g id="PathCollection_118">
    <g clip-path="url(#p14b71d4b80)">
     <use style="fill:#4c72b0;stroke:#4c72b0;" x="158.890788" xlink:href="#mfc8efd4808" y="475.697113"/>
    </g>
   </g>
   <g id="PathCollection_119">
    <g clip-path="url(#p14b71d4b80)">
     <use style="fill:#4c72b0;stroke:#4c72b0;" x="484.305021" xlink:href="#mfc8efd4808" y="373.847992"/>
    </g>
   </g>
   <g id="PathCollection_120">
    <g clip-path="url(#p14b71d4b80)">
     <use style="fill:#c44e52;stroke:#c44e52;" x="133.014914" xlink:href="#m856ea9ef61" y="464.379952"/>
    </g>
   </g>
   <g id="PathCollection_121">
    <g clip-path="url(#p14b71d4b80)">
     <use style="fill:#4c72b0;stroke:#4c72b0;" x="404.551112" xlink:href="#mfc8efd4808" y="572.028742"/>
    </g>
   </g>
   <g id="PathCollection_122">
    <g clip-path="url(#p14b71d4b80)">
     <use style="fill:#55a868;stroke:#55a868;" x="205.513836" xlink:href="#m8b522ba2ad" y="451.499546"/>
    </g>
   </g>
   <g id="PathCollection_123">
    <g clip-path="url(#p14b71d4b80)">
     <use style="fill:#4c72b0;stroke:#4c72b0;" x="163.398597" xlink:href="#mfc8efd4808" y="460.253296"/>
    </g>
   </g>
   <g id="PathCollection_124">
    <g clip-path="url(#p14b71d4b80)">
     <use style="fill:#4c72b0;stroke:#4c72b0;" x="164.813279" xlink:href="#mfc8efd4808" y="453.177165"/>
    </g>
   </g>
   <g id="PathCollection_125">
    <g clip-path="url(#p14b71d4b80)">
     <use style="fill:#55a868;stroke:#55a868;" x="126.720009" xlink:href="#m8b522ba2ad" y="473.318725"/>
    </g>
   </g>
   <g id="PathCollection_126">
    <g clip-path="url(#p14b71d4b80)">
     <use style="fill:#55a868;stroke:#55a868;" x="140.843147" xlink:href="#m8b522ba2ad" y="465.383072"/>
    </g>
   </g>
   <g id="PathCollection_127">
    <g clip-path="url(#p14b71d4b80)">
     <use style="fill:#c44e52;stroke:#c44e52;" x="122.645704" xlink:href="#m856ea9ef61" y="483.122169"/>
    </g>
   </g>
   <g id="PathCollection_128">
    <g clip-path="url(#p14b71d4b80)">
     <use style="fill:#55a868;stroke:#55a868;" x="131.68074" xlink:href="#m8b522ba2ad" y="445.434936"/>
    </g>
   </g>
   <g id="PathCollection_129">
    <g clip-path="url(#p14b71d4b80)">
     <use style="fill:#4c72b0;stroke:#4c72b0;" x="435.710247" xlink:href="#mfc8efd4808" y="572.118659"/>
    </g>
   </g>
   <g id="PathCollection_130">
    <g clip-path="url(#p14b71d4b80)">
     <use style="fill:#4c72b0;stroke:#4c72b0;" x="429.645747" xlink:href="#mfc8efd4808" y="589.997248"/>
    </g>
   </g>
   <g id="PathCollection_131">
    <g clip-path="url(#p14b71d4b80)">
     <use style="fill:#55a868;stroke:#55a868;" x="136.032685" xlink:href="#m8b522ba2ad" y="451.388453"/>
    </g>
   </g>
   <g id="PathCollection_132">
    <g clip-path="url(#p14b71d4b80)">
     <use style="fill:#55a868;stroke:#55a868;" x="139.678676" xlink:href="#m8b522ba2ad" y="456.50226"/>
    </g>
   </g>
   <g id="PathCollection_133">
    <g clip-path="url(#p14b71d4b80)">
     <use style="fill:#c44e52;stroke:#c44e52;" x="135.58172" xlink:href="#m856ea9ef61" y="451.32003"/>
    </g>
   </g>
   <g id="PathCollection_134">
    <g clip-path="url(#p14b71d4b80)">
     <use style="fill:#55a868;stroke:#55a868;" x="171.12473" xlink:href="#m8b522ba2ad" y="441.201996"/>
    </g>
   </g>
   <g id="PathCollection_135">
    <g clip-path="url(#p14b71d4b80)">
     <use style="fill:#c44e52;stroke:#c44e52;" x="132.379658" xlink:href="#m856ea9ef61" y="454.190079"/>
    </g>
   </g>
   <g id="PathCollection_136">
    <g clip-path="url(#p14b71d4b80)">
     <use style="fill:#c44e52;stroke:#c44e52;" x="144.972666" xlink:href="#m856ea9ef61" y="436.325789"/>
    </g>
   </g>
   <g id="PathCollection_137">
    <g clip-path="url(#p14b71d4b80)">
     <use style="fill:#c44e52;stroke:#c44e52;" x="134.372815" xlink:href="#m856ea9ef61" y="458.7233"/>
    </g>
   </g>
   <g id="PathCollection_138">
    <g clip-path="url(#p14b71d4b80)">
     <use style="fill:#c44e52;stroke:#c44e52;" x="128.085141" xlink:href="#m856ea9ef61" y="466.510877"/>
    </g>
   </g>
   <g id="PathCollection_139">
    <g clip-path="url(#p14b71d4b80)">
     <use style="fill:#4c72b0;stroke:#4c72b0;" x="395.104699" xlink:href="#mfc8efd4808" y="599.069022"/>
    </g>
   </g>
   <g id="PathCollection_140">
    <g clip-path="url(#p14b71d4b80)">
     <use style="fill:#4c72b0;stroke:#4c72b0;" x="574.255219" xlink:href="#mfc8efd4808" y="217.279791"/>
    </g>
   </g>
   <g id="PathCollection_141">
    <g clip-path="url(#p14b71d4b80)">
     <use style="fill:#4c72b0;stroke:#4c72b0;" x="163.258078" xlink:href="#mfc8efd4808" y="456.591698"/>
    </g>
   </g>
   <g id="PathCollection_142">
    <g clip-path="url(#p14b71d4b80)">
     <use style="fill:#c44e52;stroke:#c44e52;" x="129.196926" xlink:href="#m856ea9ef61" y="446.642295"/>
    </g>
   </g>
   <g id="PathCollection_143">
    <g clip-path="url(#p14b71d4b80)">
     <use style="fill:#c44e52;stroke:#c44e52;" x="129.808694" xlink:href="#m856ea9ef61" y="455.309154"/>
    </g>
   </g>
   <g id="PathCollection_144">
    <g clip-path="url(#p14b71d4b80)">
     <use style="fill:#c44e52;stroke:#c44e52;" x="134.697421" xlink:href="#m856ea9ef61" y="463.775573"/>
    </g>
   </g>
   <g id="patch_3">
    <path d="M 90 630 
L 90 86.4 
" style="fill:none;stroke:#ffffff;stroke-linecap:square;stroke-linejoin:miter;stroke-width:1.25;"/>
   </g>
   <g id="patch_4">
    <path d="M 648 630 
L 648 86.4 
" style="fill:none;stroke:#ffffff;stroke-linecap:square;stroke-linejoin:miter;stroke-width:1.25;"/>
   </g>
   <g id="patch_5">
    <path d="M 90 630 
L 648 630 
" style="fill:none;stroke:#ffffff;stroke-linecap:square;stroke-linejoin:miter;stroke-width:1.25;"/>
   </g>
   <g id="patch_6">
    <path d="M 90 86.4 
L 648 86.4 
" style="fill:none;stroke:#ffffff;stroke-linecap:square;stroke-linejoin:miter;stroke-width:1.25;"/>
   </g>
   <g id="legend_1">
    <g id="patch_7">
     <path d="M 590.425313 158.353906 
L 640.3 158.353906 
Q 642.5 158.353906 642.5 156.153906 
L 642.5 94.1 
Q 642.5 91.9 640.3 91.9 
L 590.425313 91.9 
Q 588.225312 91.9 588.225312 94.1 
L 588.225312 156.153906 
Q 588.225312 158.353906 590.425313 158.353906 
z
" style="fill:#eaeaf2;opacity:0.8;stroke:#cccccc;stroke-linejoin:miter;"/>
    </g>
    <g id="text_12">
     <!-- Classes -->
     <defs>
      <path d="M 58.796875 25.09375 
L 68.265625 22.703125 
Q 65.28125 11.03125 57.546875 4.90625 
Q 49.8125 -1.21875 38.625 -1.21875 
Q 27.046875 -1.21875 19.796875 3.484375 
Q 12.546875 8.203125 8.765625 17.140625 
Q 4.984375 26.078125 4.984375 36.328125 
Q 4.984375 47.515625 9.25 55.828125 
Q 13.53125 64.15625 21.40625 68.46875 
Q 29.296875 72.796875 38.765625 72.796875 
Q 49.515625 72.796875 56.828125 67.328125 
Q 64.15625 61.859375 67.046875 51.953125 
L 57.71875 49.75 
Q 55.21875 57.5625 50.484375 61.125 
Q 45.75 64.703125 38.578125 64.703125 
Q 30.328125 64.703125 24.78125 60.734375 
Q 19.234375 56.78125 16.984375 50.109375 
Q 14.75 43.453125 14.75 36.375 
Q 14.75 27.25 17.40625 20.4375 
Q 20.0625 13.625 25.671875 10.25 
Q 31.296875 6.890625 37.84375 6.890625 
Q 45.796875 6.890625 51.3125 11.46875 
Q 56.84375 16.0625 58.796875 25.09375 
z
" id="ArialMT-67"/>
      <path d="M 6.390625 0 
L 6.390625 71.578125 
L 15.1875 71.578125 
L 15.1875 0 
z
" id="ArialMT-108"/>
      <path d="M 40.4375 6.390625 
Q 35.546875 2.25 31.03125 0.53125 
Q 26.515625 -1.171875 21.34375 -1.171875 
Q 12.796875 -1.171875 8.203125 3 
Q 3.609375 7.171875 3.609375 13.671875 
Q 3.609375 17.484375 5.34375 20.625 
Q 7.078125 23.78125 9.890625 25.6875 
Q 12.703125 27.59375 16.21875 28.5625 
Q 18.796875 29.25 24.03125 29.890625 
Q 34.671875 31.15625 39.703125 32.90625 
Q 39.75 34.71875 39.75 35.203125 
Q 39.75 40.578125 37.25 42.78125 
Q 33.890625 45.75 27.25 45.75 
Q 21.046875 45.75 18.09375 43.578125 
Q 15.140625 41.40625 13.71875 35.890625 
L 5.125 37.0625 
Q 6.296875 42.578125 8.984375 45.96875 
Q 11.671875 49.359375 16.75 51.1875 
Q 21.828125 53.03125 28.515625 53.03125 
Q 35.15625 53.03125 39.296875 51.46875 
Q 43.453125 49.90625 45.40625 47.53125 
Q 47.359375 45.171875 48.140625 41.546875 
Q 48.578125 39.3125 48.578125 33.453125 
L 48.578125 21.734375 
Q 48.578125 9.46875 49.140625 6.21875 
Q 49.703125 2.984375 51.375 0 
L 42.1875 0 
Q 40.828125 2.734375 40.4375 6.390625 
z
M 39.703125 26.03125 
Q 34.90625 24.078125 25.34375 22.703125 
Q 19.921875 21.921875 17.671875 20.9375 
Q 15.4375 19.96875 14.203125 18.09375 
Q 12.984375 16.21875 12.984375 13.921875 
Q 12.984375 10.40625 15.640625 8.0625 
Q 18.3125 5.71875 23.4375 5.71875 
Q 28.515625 5.71875 32.46875 7.9375 
Q 36.421875 10.15625 38.28125 14.015625 
Q 39.703125 17 39.703125 22.796875 
z
" id="ArialMT-97"/>
      <path d="M 3.078125 15.484375 
L 11.765625 16.84375 
Q 12.5 11.625 15.84375 8.84375 
Q 19.1875 6.0625 25.203125 6.0625 
Q 31.25 6.0625 34.171875 8.515625 
Q 37.109375 10.984375 37.109375 14.3125 
Q 37.109375 17.28125 34.515625 19 
Q 32.71875 20.171875 25.53125 21.96875 
Q 15.875 24.421875 12.140625 26.203125 
Q 8.40625 27.984375 6.46875 31.125 
Q 4.546875 34.28125 4.546875 38.09375 
Q 4.546875 41.546875 6.125 44.5 
Q 7.71875 47.46875 10.453125 49.421875 
Q 12.5 50.921875 16.03125 51.96875 
Q 19.578125 53.03125 23.640625 53.03125 
Q 29.734375 53.03125 34.34375 51.265625 
Q 38.96875 49.515625 41.15625 46.5 
Q 43.359375 43.5 44.1875 38.484375 
L 35.59375 37.3125 
Q 35.015625 41.3125 32.203125 43.546875 
Q 29.390625 45.796875 24.265625 45.796875 
Q 18.21875 45.796875 15.625 43.796875 
Q 13.03125 41.796875 13.03125 39.109375 
Q 13.03125 37.40625 14.109375 36.03125 
Q 15.1875 34.625 17.484375 33.6875 
Q 18.796875 33.203125 25.25 31.453125 
Q 34.578125 28.953125 38.25 27.359375 
Q 41.9375 25.78125 44.03125 22.75 
Q 46.140625 19.734375 46.140625 15.234375 
Q 46.140625 10.84375 43.578125 6.953125 
Q 41.015625 3.078125 36.171875 0.953125 
Q 31.34375 -1.171875 25.25 -1.171875 
Q 15.140625 -1.171875 9.84375 3.03125 
Q 4.546875 7.234375 3.078125 15.484375 
z
" id="ArialMT-115"/>
      <path d="M 42.09375 16.703125 
L 51.171875 15.578125 
Q 49.03125 7.625 43.21875 3.21875 
Q 37.40625 -1.171875 28.375 -1.171875 
Q 17 -1.171875 10.328125 5.828125 
Q 3.65625 12.84375 3.65625 25.484375 
Q 3.65625 38.578125 10.390625 45.796875 
Q 17.140625 53.03125 27.875 53.03125 
Q 38.28125 53.03125 44.875 45.953125 
Q 51.46875 38.875 51.46875 26.03125 
Q 51.46875 25.25 51.421875 23.6875 
L 12.75 23.6875 
Q 13.234375 15.140625 17.578125 10.59375 
Q 21.921875 6.0625 28.421875 6.0625 
Q 33.25 6.0625 36.671875 8.59375 
Q 40.09375 11.140625 42.09375 16.703125 
z
M 13.234375 30.90625 
L 42.1875 30.90625 
Q 41.609375 37.453125 38.875 40.71875 
Q 34.671875 45.796875 27.984375 45.796875 
Q 21.921875 45.796875 17.796875 41.75 
Q 13.671875 37.703125 13.234375 30.90625 
z
" id="ArialMT-101"/>
     </defs>
     <g style="fill:#262626;" transform="translate(594.023281 104.889375)scale(0.12 -0.12)">
      <use xlink:href="#ArialMT-67"/>
      <use x="72.216797" xlink:href="#ArialMT-108"/>
      <use x="94.433594" xlink:href="#ArialMT-97"/>
      <use x="150.048828" xlink:href="#ArialMT-115"/>
      <use x="200.048828" xlink:href="#ArialMT-115"/>
      <use x="250.048828" xlink:href="#ArialMT-101"/>
      <use x="305.664062" xlink:href="#ArialMT-115"/>
     </g>
    </g>
    <g id="line2d_12">
     <path d="M 592.625312 116.797969 
L 614.625312 116.797969 
" style="fill:none;stroke:#4c72b0;stroke-linecap:round;stroke-width:1.5;"/>
    </g>
    <g id="line2d_13">
     <g>
      <use style="fill:#4c72b0;stroke:#4c72b0;" x="603.625312" xlink:href="#mfc8efd4808" y="116.797969"/>
     </g>
    </g>
    <g id="text_13">
     <!-- FA -->
     <defs>
      <path d="M 8.203125 0 
L 8.203125 71.578125 
L 56.5 71.578125 
L 56.5 63.140625 
L 17.671875 63.140625 
L 17.671875 40.96875 
L 51.265625 40.96875 
L 51.265625 32.515625 
L 17.671875 32.515625 
L 17.671875 0 
z
" id="ArialMT-70"/>
      <path d="M -0.140625 0 
L 27.34375 71.578125 
L 37.546875 71.578125 
L 66.84375 0 
L 56.0625 0 
L 47.703125 21.6875 
L 17.78125 21.6875 
L 9.90625 0 
z
M 20.515625 29.390625 
L 44.78125 29.390625 
L 37.3125 49.21875 
Q 33.890625 58.25 32.234375 64.0625 
Q 30.859375 57.171875 28.375 50.390625 
z
" id="ArialMT-65"/>
     </defs>
     <g style="fill:#262626;" transform="translate(623.425312 120.647969)scale(0.11 -0.11)">
      <use xlink:href="#ArialMT-70"/>
      <use x="55.583984" xlink:href="#ArialMT-65"/>
     </g>
    </g>
    <g id="line2d_14">
     <path d="M 592.625312 132.357812 
L 614.625312 132.357812 
" style="fill:none;stroke:#55a868;stroke-linecap:round;stroke-width:1.5;"/>
    </g>
    <g id="line2d_15">
     <g>
      <use style="fill:#55a868;stroke:#55a868;" x="603.625312" xlink:href="#m8b522ba2ad" y="132.357812"/>
     </g>
    </g>
    <g id="text_14">
     <!-- AA -->
     <g style="fill:#262626;" transform="translate(623.425312 136.207812)scale(0.11 -0.11)">
      <use xlink:href="#ArialMT-65"/>
      <use x="66.699219" xlink:href="#ArialMT-65"/>
     </g>
    </g>
    <g id="line2d_16">
     <path d="M 592.625312 147.917656 
L 614.625312 147.917656 
" style="fill:none;stroke:#c44e52;stroke-linecap:round;stroke-width:1.5;"/>
    </g>
    <g id="line2d_17">
     <g>
      <use style="fill:#c44e52;stroke:#c44e52;" x="603.625312" xlink:href="#m856ea9ef61" y="147.917656"/>
     </g>
    </g>
    <g id="text_15">
     <!-- S -->
     <defs>
      <path d="M 4.5 23 
L 13.421875 23.78125 
Q 14.0625 18.40625 16.375 14.96875 
Q 18.703125 11.53125 23.578125 9.40625 
Q 28.46875 7.28125 34.578125 7.28125 
Q 39.984375 7.28125 44.140625 8.890625 
Q 48.296875 10.5 50.3125 13.296875 
Q 52.34375 16.109375 52.34375 19.4375 
Q 52.34375 22.796875 50.390625 25.3125 
Q 48.4375 27.828125 43.953125 29.546875 
Q 41.0625 30.671875 31.203125 33.03125 
Q 21.34375 35.40625 17.390625 37.5 
Q 12.25 40.1875 9.734375 44.15625 
Q 7.234375 48.140625 7.234375 53.078125 
Q 7.234375 58.5 10.296875 63.203125 
Q 13.375 67.921875 19.28125 70.359375 
Q 25.203125 72.796875 32.421875 72.796875 
Q 40.375 72.796875 46.453125 70.234375 
Q 52.546875 67.671875 55.8125 62.6875 
Q 59.078125 57.71875 59.328125 51.421875 
L 50.25 50.734375 
Q 49.515625 57.515625 45.28125 60.984375 
Q 41.0625 64.453125 32.8125 64.453125 
Q 24.21875 64.453125 20.28125 61.296875 
Q 16.359375 58.15625 16.359375 53.71875 
Q 16.359375 49.859375 19.140625 47.359375 
Q 21.875 44.875 33.421875 42.265625 
Q 44.96875 39.65625 49.265625 37.703125 
Q 55.515625 34.8125 58.484375 30.390625 
Q 61.46875 25.984375 61.46875 20.21875 
Q 61.46875 14.5 58.203125 9.4375 
Q 54.9375 4.390625 48.796875 1.578125 
Q 42.671875 -1.21875 35.015625 -1.21875 
Q 25.296875 -1.21875 18.71875 1.609375 
Q 12.15625 4.4375 8.421875 10.125 
Q 4.6875 15.828125 4.5 23 
z
" id="ArialMT-83"/>
     </defs>
     <g style="fill:#262626;" transform="translate(623.425312 151.767656)scale(0.11 -0.11)">
      <use xlink:href="#ArialMT-83"/>
     </g>
    </g>
   </g>
  </g>
 </g>
 <defs>
  <clipPath id="p14b71d4b80">
   <rect height="543.6" width="558" x="90" y="86.4"/>
  </clipPath>
 </defs>
</svg>
