<?xml version="1.0" encoding="utf-8" standalone="no"?>
<!DOCTYPE svg PUBLIC "-//W3C//DTD SVG 1.1//EN"
  "http://www.w3.org/Graphics/SVG/1.1/DTD/svg11.dtd">
<!-- Created with matplotlib (https://matplotlib.org/) -->
<svg height="720pt" version="1.1" viewBox="0 0 720 720" width="720pt" xmlns="http://www.w3.org/2000/svg" xmlns:xlink="http://www.w3.org/1999/xlink">
 <defs>
  <style type="text/css">
*{stroke-linecap:butt;stroke-linejoin:round;}
  </style>
 </defs>
 <g id="figure_1">
  <g id="patch_1">
   <path d="M 0 720 
L 720 720 
L 720 0 
L 0 0 
z
" style="fill:#ffffff;"/>
  </g>
  <g id="axes_1">
   <g id="patch_2">
    <path d="M 90 630 
L 648 630 
L 648 86.4 
L 90 86.4 
z
" style="fill:#eaeaf2;"/>
   </g>
   <g id="matplotlib.axis_1">
    <g id="xtick_1">
     <g id="line2d_1">
      <path clip-path="url(#p0af1f3b4b9)" d="M 171.327939 630 
L 171.327939 86.4 
" style="fill:none;stroke:#ffffff;stroke-linecap:round;"/>
     </g>
     <g id="text_1">
      <!-- 0.0 -->
      <defs>
       <path d="M 4.15625 35.296875 
Q 4.15625 48 6.765625 55.734375 
Q 9.375 63.484375 14.515625 67.671875 
Q 19.671875 71.875 27.484375 71.875 
Q 33.25 71.875 37.59375 69.546875 
Q 41.9375 67.234375 44.765625 62.859375 
Q 47.609375 58.5 49.21875 52.21875 
Q 50.828125 45.953125 50.828125 35.296875 
Q 50.828125 22.703125 48.234375 14.96875 
Q 45.65625 7.234375 40.5 3 
Q 35.359375 -1.21875 27.484375 -1.21875 
Q 17.140625 -1.21875 11.234375 6.203125 
Q 4.15625 15.140625 4.15625 35.296875 
z
M 13.1875 35.296875 
Q 13.1875 17.671875 17.3125 11.828125 
Q 21.4375 6 27.484375 6 
Q 33.546875 6 37.671875 11.859375 
Q 41.796875 17.71875 41.796875 35.296875 
Q 41.796875 52.984375 37.671875 58.78125 
Q 33.546875 64.59375 27.390625 64.59375 
Q 21.34375 64.59375 17.71875 59.46875 
Q 13.1875 52.9375 13.1875 35.296875 
z
" id="ArialMT-48"/>
       <path d="M 9.078125 0 
L 9.078125 10.015625 
L 19.09375 10.015625 
L 19.09375 0 
z
" id="ArialMT-46"/>
      </defs>
      <g style="fill:#262626;" transform="translate(163.682939 647.373594)scale(0.11 -0.11)">
       <use xlink:href="#ArialMT-48"/>
       <use x="55.615234" xlink:href="#ArialMT-46"/>
       <use x="83.398438" xlink:href="#ArialMT-48"/>
      </g>
     </g>
    </g>
    <g id="xtick_2">
     <g id="line2d_2">
      <path clip-path="url(#p0af1f3b4b9)" d="M 262.165907 630 
L 262.165907 86.4 
" style="fill:none;stroke:#ffffff;stroke-linecap:round;"/>
     </g>
     <g id="text_2">
      <!-- 0.5 -->
      <defs>
       <path d="M 4.15625 18.75 
L 13.375 19.53125 
Q 14.40625 12.796875 18.140625 9.390625 
Q 21.875 6 27.15625 6 
Q 33.5 6 37.890625 10.78125 
Q 42.28125 15.578125 42.28125 23.484375 
Q 42.28125 31 38.0625 35.34375 
Q 33.84375 39.703125 27 39.703125 
Q 22.75 39.703125 19.328125 37.765625 
Q 15.921875 35.84375 13.96875 32.765625 
L 5.71875 33.84375 
L 12.640625 70.609375 
L 48.25 70.609375 
L 48.25 62.203125 
L 19.671875 62.203125 
L 15.828125 42.96875 
Q 22.265625 47.46875 29.34375 47.46875 
Q 38.71875 47.46875 45.15625 40.96875 
Q 51.609375 34.46875 51.609375 24.265625 
Q 51.609375 14.546875 45.953125 7.46875 
Q 39.0625 -1.21875 27.15625 -1.21875 
Q 17.390625 -1.21875 11.203125 4.25 
Q 5.03125 9.71875 4.15625 18.75 
z
" id="ArialMT-53"/>
      </defs>
      <g style="fill:#262626;" transform="translate(254.520907 647.373594)scale(0.11 -0.11)">
       <use xlink:href="#ArialMT-48"/>
       <use x="55.615234" xlink:href="#ArialMT-46"/>
       <use x="83.398438" xlink:href="#ArialMT-53"/>
      </g>
     </g>
    </g>
    <g id="xtick_3">
     <g id="line2d_3">
      <path clip-path="url(#p0af1f3b4b9)" d="M 353.003876 630 
L 353.003876 86.4 
" style="fill:none;stroke:#ffffff;stroke-linecap:round;"/>
     </g>
     <g id="text_3">
      <!-- 1.0 -->
      <defs>
       <path d="M 37.25 0 
L 28.46875 0 
L 28.46875 56 
Q 25.296875 52.984375 20.140625 49.953125 
Q 14.984375 46.921875 10.890625 45.40625 
L 10.890625 53.90625 
Q 18.265625 57.375 23.78125 62.296875 
Q 29.296875 67.234375 31.59375 71.875 
L 37.25 71.875 
z
" id="ArialMT-49"/>
      </defs>
      <g style="fill:#262626;" transform="translate(345.358876 647.373594)scale(0.11 -0.11)">
       <use xlink:href="#ArialMT-49"/>
       <use x="55.615234" xlink:href="#ArialMT-46"/>
       <use x="83.398438" xlink:href="#ArialMT-48"/>
      </g>
     </g>
    </g>
    <g id="xtick_4">
     <g id="line2d_4">
      <path clip-path="url(#p0af1f3b4b9)" d="M 443.841844 630 
L 443.841844 86.4 
" style="fill:none;stroke:#ffffff;stroke-linecap:round;"/>
     </g>
     <g id="text_4">
      <!-- 1.5 -->
      <g style="fill:#262626;" transform="translate(436.196844 647.373594)scale(0.11 -0.11)">
       <use xlink:href="#ArialMT-49"/>
       <use x="55.615234" xlink:href="#ArialMT-46"/>
       <use x="83.398438" xlink:href="#ArialMT-53"/>
      </g>
     </g>
    </g>
    <g id="xtick_5">
     <g id="line2d_5">
      <path clip-path="url(#p0af1f3b4b9)" d="M 534.679812 630 
L 534.679812 86.4 
" style="fill:none;stroke:#ffffff;stroke-linecap:round;"/>
     </g>
     <g id="text_5">
      <!-- 2.0 -->
      <defs>
       <path d="M 50.34375 8.453125 
L 50.34375 0 
L 3.03125 0 
Q 2.9375 3.171875 4.046875 6.109375 
Q 5.859375 10.9375 9.828125 15.625 
Q 13.8125 20.3125 21.34375 26.46875 
Q 33.015625 36.03125 37.109375 41.625 
Q 41.21875 47.21875 41.21875 52.203125 
Q 41.21875 57.421875 37.46875 61 
Q 33.734375 64.59375 27.734375 64.59375 
Q 21.390625 64.59375 17.578125 60.78125 
Q 13.765625 56.984375 13.71875 50.25 
L 4.6875 51.171875 
Q 5.609375 61.28125 11.65625 66.578125 
Q 17.71875 71.875 27.9375 71.875 
Q 38.234375 71.875 44.234375 66.15625 
Q 50.25 60.453125 50.25 52 
Q 50.25 47.703125 48.484375 43.546875 
Q 46.734375 39.40625 42.65625 34.8125 
Q 38.578125 30.21875 29.109375 22.21875 
Q 21.1875 15.578125 18.9375 13.203125 
Q 16.703125 10.84375 15.234375 8.453125 
z
" id="ArialMT-50"/>
      </defs>
      <g style="fill:#262626;" transform="translate(527.034812 647.373594)scale(0.11 -0.11)">
       <use xlink:href="#ArialMT-50"/>
       <use x="55.615234" xlink:href="#ArialMT-46"/>
       <use x="83.398438" xlink:href="#ArialMT-48"/>
      </g>
     </g>
    </g>
    <g id="xtick_6">
     <g id="line2d_6">
      <path clip-path="url(#p0af1f3b4b9)" d="M 625.51778 630 
L 625.51778 86.4 
" style="fill:none;stroke:#ffffff;stroke-linecap:round;"/>
     </g>
     <g id="text_6">
      <!-- 2.5 -->
      <g style="fill:#262626;" transform="translate(617.87278 647.373594)scale(0.11 -0.11)">
       <use xlink:href="#ArialMT-50"/>
       <use x="55.615234" xlink:href="#ArialMT-46"/>
       <use x="83.398438" xlink:href="#ArialMT-53"/>
      </g>
     </g>
    </g>
   </g>
   <g id="matplotlib.axis_2">
    <g id="ytick_1">
     <g id="line2d_7">
      <path clip-path="url(#p0af1f3b4b9)" d="M 90 574.746502 
L 648 574.746502 
" style="fill:none;stroke:#ffffff;stroke-linecap:round;"/>
     </g>
     <g id="text_7">
      <!-- −0.3 -->
      <defs>
       <path d="M 52.828125 31.203125 
L 5.5625 31.203125 
L 5.5625 39.40625 
L 52.828125 39.40625 
z
" id="ArialMT-8722"/>
       <path d="M 4.203125 18.890625 
L 12.984375 20.0625 
Q 14.5 12.59375 18.140625 9.296875 
Q 21.78125 6 27 6 
Q 33.203125 6 37.46875 10.296875 
Q 41.75 14.59375 41.75 20.953125 
Q 41.75 27 37.796875 30.921875 
Q 33.84375 34.859375 27.734375 34.859375 
Q 25.25 34.859375 21.53125 33.890625 
L 22.515625 41.609375 
Q 23.390625 41.5 23.921875 41.5 
Q 29.546875 41.5 34.03125 44.421875 
Q 38.53125 47.359375 38.53125 53.46875 
Q 38.53125 58.296875 35.25 61.46875 
Q 31.984375 64.65625 26.8125 64.65625 
Q 21.6875 64.65625 18.265625 61.421875 
Q 14.84375 58.203125 13.875 51.765625 
L 5.078125 53.328125 
Q 6.6875 62.15625 12.390625 67.015625 
Q 18.109375 71.875 26.609375 71.875 
Q 32.46875 71.875 37.390625 69.359375 
Q 42.328125 66.84375 44.9375 62.5 
Q 47.5625 58.15625 47.5625 53.265625 
Q 47.5625 48.640625 45.0625 44.828125 
Q 42.578125 41.015625 37.703125 38.765625 
Q 44.046875 37.3125 47.5625 32.6875 
Q 51.078125 28.078125 51.078125 21.140625 
Q 51.078125 11.765625 44.234375 5.25 
Q 37.40625 -1.265625 26.953125 -1.265625 
Q 17.53125 -1.265625 11.296875 4.34375 
Q 5.078125 9.96875 4.203125 18.890625 
z
" id="ArialMT-51"/>
      </defs>
      <g style="fill:#262626;" transform="translate(58.785313 578.683299)scale(0.11 -0.11)">
       <use xlink:href="#ArialMT-8722"/>
       <use x="58.398438" xlink:href="#ArialMT-48"/>
       <use x="114.013672" xlink:href="#ArialMT-46"/>
       <use x="141.796875" xlink:href="#ArialMT-51"/>
      </g>
     </g>
    </g>
    <g id="ytick_2">
     <g id="line2d_8">
      <path clip-path="url(#p0af1f3b4b9)" d="M 90 504.216452 
L 648 504.216452 
" style="fill:none;stroke:#ffffff;stroke-linecap:round;"/>
     </g>
     <g id="text_8">
      <!-- −0.2 -->
      <g style="fill:#262626;" transform="translate(58.785313 508.153249)scale(0.11 -0.11)">
       <use xlink:href="#ArialMT-8722"/>
       <use x="58.398438" xlink:href="#ArialMT-48"/>
       <use x="114.013672" xlink:href="#ArialMT-46"/>
       <use x="141.796875" xlink:href="#ArialMT-50"/>
      </g>
     </g>
    </g>
    <g id="ytick_3">
     <g id="line2d_9">
      <path clip-path="url(#p0af1f3b4b9)" d="M 90 433.686402 
L 648 433.686402 
" style="fill:none;stroke:#ffffff;stroke-linecap:round;"/>
     </g>
     <g id="text_9">
      <!-- −0.1 -->
      <g style="fill:#262626;" transform="translate(58.785313 437.623199)scale(0.11 -0.11)">
       <use xlink:href="#ArialMT-8722"/>
       <use x="58.398438" xlink:href="#ArialMT-48"/>
       <use x="114.013672" xlink:href="#ArialMT-46"/>
       <use x="141.796875" xlink:href="#ArialMT-49"/>
      </g>
     </g>
    </g>
    <g id="ytick_4">
     <g id="line2d_10">
      <path clip-path="url(#p0af1f3b4b9)" d="M 90 363.156352 
L 648 363.156352 
" style="fill:none;stroke:#ffffff;stroke-linecap:round;"/>
     </g>
     <g id="text_10">
      <!-- 0.0 -->
      <g style="fill:#262626;" transform="translate(65.21 367.093149)scale(0.11 -0.11)">
       <use xlink:href="#ArialMT-48"/>
       <use x="55.615234" xlink:href="#ArialMT-46"/>
       <use x="83.398438" xlink:href="#ArialMT-48"/>
      </g>
     </g>
    </g>
    <g id="ytick_5">
     <g id="line2d_11">
      <path clip-path="url(#p0af1f3b4b9)" d="M 90 292.626302 
L 648 292.626302 
" style="fill:none;stroke:#ffffff;stroke-linecap:round;"/>
     </g>
     <g id="text_11">
      <!-- 0.1 -->
      <g style="fill:#262626;" transform="translate(65.21 296.563099)scale(0.11 -0.11)">
       <use xlink:href="#ArialMT-48"/>
       <use x="55.615234" xlink:href="#ArialMT-46"/>
       <use x="83.398438" xlink:href="#ArialMT-49"/>
      </g>
     </g>
    </g>
    <g id="ytick_6">
     <g id="line2d_12">
      <path clip-path="url(#p0af1f3b4b9)" d="M 90 222.096252 
L 648 222.096252 
" style="fill:none;stroke:#ffffff;stroke-linecap:round;"/>
     </g>
     <g id="text_12">
      <!-- 0.2 -->
      <g style="fill:#262626;" transform="translate(65.21 226.033049)scale(0.11 -0.11)">
       <use xlink:href="#ArialMT-48"/>
       <use x="55.615234" xlink:href="#ArialMT-46"/>
       <use x="83.398438" xlink:href="#ArialMT-50"/>
      </g>
     </g>
    </g>
    <g id="ytick_7">
     <g id="line2d_13">
      <path clip-path="url(#p0af1f3b4b9)" d="M 90 151.566202 
L 648 151.566202 
" style="fill:none;stroke:#ffffff;stroke-linecap:round;"/>
     </g>
     <g id="text_13">
      <!-- 0.3 -->
      <g style="fill:#262626;" transform="translate(65.21 155.502999)scale(0.11 -0.11)">
       <use xlink:href="#ArialMT-48"/>
       <use x="55.615234" xlink:href="#ArialMT-46"/>
       <use x="83.398438" xlink:href="#ArialMT-51"/>
      </g>
     </g>
    </g>
   </g>
   <g id="PathCollection_1">
    <defs>
     <path d="M 0 3 
C 0.795609 3 1.55874 2.683901 2.12132 2.12132 
C 2.683901 1.55874 3 0.795609 3 0 
C 3 -0.795609 2.683901 -1.55874 2.12132 -2.12132 
C 1.55874 -2.683901 0.795609 -3 0 -3 
C -0.795609 -3 -1.55874 -2.683901 -2.12132 -2.12132 
C -2.683901 -1.55874 -3 -0.795609 -3 0 
C -3 0.795609 -2.683901 1.55874 -2.12132 2.12132 
C -1.55874 2.683901 -0.795609 3 0 3 
z
" id="C0_0_91b883aab9"/>
    </defs>
    <g clip-path="url(#p0af1f3b4b9)">
     <use style="fill:#55a868;stroke:#55a868;" x="152.337791" xlink:href="#C0_0_91b883aab9" y="415.209252"/>
    </g>
    <g clip-path="url(#p0af1f3b4b9)">
     <use style="fill:#4c72b0;stroke:#4c72b0;" x="164.984009" xlink:href="#C0_0_91b883aab9" y="321.871626"/>
    </g>
    <g clip-path="url(#p0af1f3b4b9)">
     <use style="fill:#64b5cd;stroke:#64b5cd;" x="178.096944" xlink:href="#C0_0_91b883aab9" y="214.372935"/>
    </g>
    <g clip-path="url(#p0af1f3b4b9)">
     <use style="fill:#c44e52;stroke:#c44e52;" x="177.997059" xlink:href="#C0_0_91b883aab9" y="303.273787"/>
    </g>
    <g clip-path="url(#p0af1f3b4b9)">
     <use style="fill:#4c72b0;stroke:#4c72b0;" x="166.334834" xlink:href="#C0_0_91b883aab9" y="246.601931"/>
    </g>
    <g clip-path="url(#p0af1f3b4b9)">
     <use style="fill:#55a868;stroke:#55a868;" x="137.413924" xlink:href="#C0_0_91b883aab9" y="433.209227"/>
    </g>
    <g clip-path="url(#p0af1f3b4b9)">
     <use style="fill:#c44e52;stroke:#c44e52;" x="135.816837" xlink:href="#C0_0_91b883aab9" y="447.109777"/>
    </g>
    <g clip-path="url(#p0af1f3b4b9)">
     <use style="fill:#64b5cd;stroke:#64b5cd;" x="265.282181" xlink:href="#C0_0_91b883aab9" y="376.293953"/>
    </g>
    <g clip-path="url(#p0af1f3b4b9)">
     <use style="fill:#55a868;stroke:#55a868;" x="161.879901" xlink:href="#C0_0_91b883aab9" y="410.048332"/>
    </g>
    <g clip-path="url(#p0af1f3b4b9)">
     <use style="fill:#4c72b0;stroke:#4c72b0;" x="144.981112" xlink:href="#C0_0_91b883aab9" y="437.514118"/>
    </g>
    <g clip-path="url(#p0af1f3b4b9)">
     <use style="fill:#64b5cd;stroke:#64b5cd;" x="152.978596" xlink:href="#C0_0_91b883aab9" y="278.770323"/>
    </g>
    <g clip-path="url(#p0af1f3b4b9)">
     <use style="fill:#c44e52;stroke:#c44e52;" x="216.402299" xlink:href="#C0_0_91b883aab9" y="369.810237"/>
    </g>
    <g clip-path="url(#p0af1f3b4b9)">
     <use style="fill:#4c72b0;stroke:#4c72b0;" x="171.584006" xlink:href="#C0_0_91b883aab9" y="290.371957"/>
    </g>
    <g clip-path="url(#p0af1f3b4b9)">
     <use style="fill:#55a868;stroke:#55a868;" x="189.939662" xlink:href="#C0_0_91b883aab9" y="376.456571"/>
    </g>
    <g clip-path="url(#p0af1f3b4b9)">
     <use style="fill:#c44e52;stroke:#c44e52;" x="151.530182" xlink:href="#C0_0_91b883aab9" y="447.632874"/>
    </g>
    <g clip-path="url(#p0af1f3b4b9)">
     <use style="fill:#64b5cd;stroke:#64b5cd;" x="153.433859" xlink:href="#C0_0_91b883aab9" y="496.835149"/>
    </g>
    <g clip-path="url(#p0af1f3b4b9)">
     <use style="fill:#55a868;stroke:#55a868;" x="131.864885" xlink:href="#C0_0_91b883aab9" y="420.075825"/>
    </g>
    <g clip-path="url(#p0af1f3b4b9)">
     <use style="fill:#4c72b0;stroke:#4c72b0;" x="125.752656" xlink:href="#C0_0_91b883aab9" y="450.067749"/>
    </g>
    <g clip-path="url(#p0af1f3b4b9)">
     <use style="fill:#64b5cd;stroke:#64b5cd;" x="214.932414" xlink:href="#C0_0_91b883aab9" y="111.109091"/>
    </g>
    <g clip-path="url(#p0af1f3b4b9)">
     <use style="fill:#c44e52;stroke:#c44e52;" x="160.833344" xlink:href="#C0_0_91b883aab9" y="344.448857"/>
    </g>
    <g clip-path="url(#p0af1f3b4b9)">
     <use style="fill:#4c72b0;stroke:#4c72b0;" x="151.405428" xlink:href="#C0_0_91b883aab9" y="122.958234"/>
    </g>
    <g clip-path="url(#p0af1f3b4b9)">
     <use style="fill:#55a868;stroke:#55a868;" x="208.786803" xlink:href="#C0_0_91b883aab9" y="408.446626"/>
    </g>
    <g clip-path="url(#p0af1f3b4b9)">
     <use style="fill:#c44e52;stroke:#c44e52;" x="132.675785" xlink:href="#C0_0_91b883aab9" y="386.506565"/>
    </g>
    <g clip-path="url(#p0af1f3b4b9)">
     <use style="fill:#64b5cd;stroke:#64b5cd;" x="158.023731" xlink:href="#C0_0_91b883aab9" y="428.204836"/>
    </g>
    <g clip-path="url(#p0af1f3b4b9)">
     <use style="fill:#55a868;stroke:#55a868;" x="145.59677" xlink:href="#C0_0_91b883aab9" y="405.926177"/>
    </g>
    <g clip-path="url(#p0af1f3b4b9)">
     <use style="fill:#4c72b0;stroke:#4c72b0;" x="142.442594" xlink:href="#C0_0_91b883aab9" y="433.852691"/>
    </g>
    <g clip-path="url(#p0af1f3b4b9)">
     <use style="fill:#64b5cd;stroke:#64b5cd;" x="203.852793" xlink:href="#C0_0_91b883aab9" y="185.627951"/>
    </g>
    <g clip-path="url(#p0af1f3b4b9)">
     <use style="fill:#c44e52;stroke:#c44e52;" x="259.128665" xlink:href="#C0_0_91b883aab9" y="182.68361"/>
    </g>
    <g clip-path="url(#p0af1f3b4b9)">
     <use style="fill:#4c72b0;stroke:#4c72b0;" x="153.302483" xlink:href="#C0_0_91b883aab9" y="181.816166"/>
    </g>
    <g clip-path="url(#p0af1f3b4b9)">
     <use style="fill:#55a868;stroke:#55a868;" x="187.016924" xlink:href="#C0_0_91b883aab9" y="427.558015"/>
    </g>
    <g clip-path="url(#p0af1f3b4b9)">
     <use style="fill:#c44e52;stroke:#c44e52;" x="139.332918" xlink:href="#C0_0_91b883aab9" y="342.983591"/>
    </g>
    <g clip-path="url(#p0af1f3b4b9)">
     <use style="fill:#64b5cd;stroke:#64b5cd;" x="153.693629" xlink:href="#C0_0_91b883aab9" y="320.674513"/>
    </g>
    <g clip-path="url(#p0af1f3b4b9)">
     <use style="fill:#55a868;stroke:#55a868;" x="160.53698" xlink:href="#C0_0_91b883aab9" y="394.193132"/>
    </g>
    <g clip-path="url(#p0af1f3b4b9)">
     <use style="fill:#4c72b0;stroke:#4c72b0;" x="149.367475" xlink:href="#C0_0_91b883aab9" y="339.917128"/>
    </g>
    <g clip-path="url(#p0af1f3b4b9)">
     <use style="fill:#64b5cd;stroke:#64b5cd;" x="179.312863" xlink:href="#C0_0_91b883aab9" y="225.245989"/>
    </g>
    <g clip-path="url(#p0af1f3b4b9)">
     <use style="fill:#c44e52;stroke:#c44e52;" x="206.378352" xlink:href="#C0_0_91b883aab9" y="369.805557"/>
    </g>
    <g clip-path="url(#p0af1f3b4b9)">
     <use style="fill:#4c72b0;stroke:#4c72b0;" x="171.655141" xlink:href="#C0_0_91b883aab9" y="114.13671"/>
    </g>
    <g clip-path="url(#p0af1f3b4b9)">
     <use style="fill:#55a868;stroke:#55a868;" x="164.790141" xlink:href="#C0_0_91b883aab9" y="437.841797"/>
    </g>
    <g clip-path="url(#p0af1f3b4b9)">
     <use style="fill:#c44e52;stroke:#c44e52;" x="143.361793" xlink:href="#C0_0_91b883aab9" y="411.451625"/>
    </g>
    <g clip-path="url(#p0af1f3b4b9)">
     <use style="fill:#64b5cd;stroke:#64b5cd;" x="170.290405" xlink:href="#C0_0_91b883aab9" y="360.6532"/>
    </g>
    <g clip-path="url(#p0af1f3b4b9)">
     <use style="fill:#55a868;stroke:#55a868;" x="149.88196" xlink:href="#C0_0_91b883aab9" y="432.169298"/>
    </g>
    <g clip-path="url(#p0af1f3b4b9)">
     <use style="fill:#4c72b0;stroke:#4c72b0;" x="132.976023" xlink:href="#C0_0_91b883aab9" y="457.045406"/>
    </g>
    <g clip-path="url(#p0af1f3b4b9)">
     <use style="fill:#64b5cd;stroke:#64b5cd;" x="179.392453" xlink:href="#C0_0_91b883aab9" y="299.303238"/>
    </g>
    <g clip-path="url(#p0af1f3b4b9)">
     <use style="fill:#c44e52;stroke:#c44e52;" x="622.636364" xlink:href="#C0_0_91b883aab9" y="538.286192"/>
    </g>
    <g clip-path="url(#p0af1f3b4b9)">
     <use style="fill:#4c72b0;stroke:#4c72b0;" x="141.607168" xlink:href="#C0_0_91b883aab9" y="255.521483"/>
    </g>
    <g clip-path="url(#p0af1f3b4b9)">
     <use style="fill:#55a868;stroke:#55a868;" x="166.869444" xlink:href="#C0_0_91b883aab9" y="395.591847"/>
    </g>
    <g clip-path="url(#p0af1f3b4b9)">
     <use style="fill:#c44e52;stroke:#c44e52;" x="137.742142" xlink:href="#C0_0_91b883aab9" y="353.481931"/>
    </g>
    <g clip-path="url(#p0af1f3b4b9)">
     <use style="fill:#64b5cd;stroke:#64b5cd;" x="166.337842" xlink:href="#C0_0_91b883aab9" y="314.157053"/>
    </g>
    <g clip-path="url(#p0af1f3b4b9)">
     <use style="fill:#55a868;stroke:#55a868;" x="127.69877" xlink:href="#C0_0_91b883aab9" y="441.104269"/>
    </g>
    <g clip-path="url(#p0af1f3b4b9)">
     <use style="fill:#4c72b0;stroke:#4c72b0;" x="156.059608" xlink:href="#C0_0_91b883aab9" y="481.725902"/>
    </g>
    <g clip-path="url(#p0af1f3b4b9)">
     <use style="fill:#64b5cd;stroke:#64b5cd;" x="168.699802" xlink:href="#C0_0_91b883aab9" y="253.936129"/>
    </g>
    <g clip-path="url(#p0af1f3b4b9)">
     <use style="fill:#c44e52;stroke:#c44e52;" x="186.033546" xlink:href="#C0_0_91b883aab9" y="305.814622"/>
    </g>
    <g clip-path="url(#p0af1f3b4b9)">
     <use style="fill:#4c72b0;stroke:#4c72b0;" x="157.808153" xlink:href="#C0_0_91b883aab9" y="289.295747"/>
    </g>
    <g clip-path="url(#p0af1f3b4b9)">
     <use style="fill:#55a868;stroke:#55a868;" x="216.942732" xlink:href="#C0_0_91b883aab9" y="450.069583"/>
    </g>
    <g clip-path="url(#p0af1f3b4b9)">
     <use style="fill:#c44e52;stroke:#c44e52;" x="154.029745" xlink:href="#C0_0_91b883aab9" y="417.481087"/>
    </g>
    <g clip-path="url(#p0af1f3b4b9)">
     <use style="fill:#64b5cd;stroke:#64b5cd;" x="144.657001" xlink:href="#C0_0_91b883aab9" y="473.803984"/>
    </g>
    <g clip-path="url(#p0af1f3b4b9)">
     <use style="fill:#55a868;stroke:#55a868;" x="144.718945" xlink:href="#C0_0_91b883aab9" y="395.535238"/>
    </g>
    <g clip-path="url(#p0af1f3b4b9)">
     <use style="fill:#4c72b0;stroke:#4c72b0;" x="133.608179" xlink:href="#C0_0_91b883aab9" y="427.396844"/>
    </g>
    <g clip-path="url(#p0af1f3b4b9)">
     <use style="fill:#64b5cd;stroke:#64b5cd;" x="159.307127" xlink:href="#C0_0_91b883aab9" y="316.769384"/>
    </g>
    <g clip-path="url(#p0af1f3b4b9)">
     <use style="fill:#c44e52;stroke:#c44e52;" x="293.462927" xlink:href="#C0_0_91b883aab9" y="341.212081"/>
    </g>
    <g clip-path="url(#p0af1f3b4b9)">
     <use style="fill:#4c72b0;stroke:#4c72b0;" x="150.612103" xlink:href="#C0_0_91b883aab9" y="317.26183"/>
    </g>
    <g clip-path="url(#p0af1f3b4b9)">
     <use style="fill:#55a868;stroke:#55a868;" x="184.966625" xlink:href="#C0_0_91b883aab9" y="457.737793"/>
    </g>
    <g clip-path="url(#p0af1f3b4b9)">
     <use style="fill:#c44e52;stroke:#c44e52;" x="115.363636" xlink:href="#C0_0_91b883aab9" y="414.710076"/>
    </g>
    <g clip-path="url(#p0af1f3b4b9)">
     <use style="fill:#64b5cd;stroke:#64b5cd;" x="202.253754" xlink:href="#C0_0_91b883aab9" y="291.612299"/>
    </g>
    <g clip-path="url(#p0af1f3b4b9)">
     <use style="fill:#55a868;stroke:#55a868;" x="148.588475" xlink:href="#C0_0_91b883aab9" y="436.083807"/>
    </g>
    <g clip-path="url(#p0af1f3b4b9)">
     <use style="fill:#4c72b0;stroke:#4c72b0;" x="131.860405" xlink:href="#C0_0_91b883aab9" y="443.948439"/>
    </g>
    <g clip-path="url(#p0af1f3b4b9)">
     <use style="fill:#64b5cd;stroke:#64b5cd;" x="169.870096" xlink:href="#C0_0_91b883aab9" y="339.851334"/>
    </g>
    <g clip-path="url(#p0af1f3b4b9)">
     <use style="fill:#c44e52;stroke:#c44e52;" x="220.032086" xlink:href="#C0_0_91b883aab9" y="297.497317"/>
    </g>
    <g clip-path="url(#p0af1f3b4b9)">
     <use style="fill:#4c72b0;stroke:#4c72b0;" x="170.391922" xlink:href="#C0_0_91b883aab9" y="264.200137"/>
    </g>
    <g clip-path="url(#p0af1f3b4b9)">
     <use style="fill:#55a868;stroke:#55a868;" x="220.334806" xlink:href="#C0_0_91b883aab9" y="405.356434"/>
    </g>
    <g clip-path="url(#p0af1f3b4b9)">
     <use style="fill:#c44e52;stroke:#c44e52;" x="133.639816" xlink:href="#C0_0_91b883aab9" y="425.09128"/>
    </g>
    <g clip-path="url(#p0af1f3b4b9)">
     <use style="fill:#64b5cd;stroke:#64b5cd;" x="158.2714" xlink:href="#C0_0_91b883aab9" y="399.285486"/>
    </g>
    <g clip-path="url(#p0af1f3b4b9)">
     <use style="fill:#55a868;stroke:#55a868;" x="132.214262" xlink:href="#C0_0_91b883aab9" y="421.504629"/>
    </g>
    <g clip-path="url(#p0af1f3b4b9)">
     <use style="fill:#4c72b0;stroke:#4c72b0;" x="166.055806" xlink:href="#C0_0_91b883aab9" y="412.804037"/>
    </g>
    <g clip-path="url(#p0af1f3b4b9)">
     <use style="fill:#64b5cd;stroke:#64b5cd;" x="173.68158" xlink:href="#C0_0_91b883aab9" y="329.598934"/>
    </g>
    <g clip-path="url(#p0af1f3b4b9)">
     <use style="fill:#c44e52;stroke:#c44e52;" x="207.11399" xlink:href="#C0_0_91b883aab9" y="393.404358"/>
    </g>
    <g clip-path="url(#p0af1f3b4b9)">
     <use style="fill:#4c72b0;stroke:#4c72b0;" x="165.438288" xlink:href="#C0_0_91b883aab9" y="302.426918"/>
    </g>
    <g clip-path="url(#p0af1f3b4b9)">
     <use style="fill:#55a868;stroke:#55a868;" x="215.330904" xlink:href="#C0_0_91b883aab9" y="320.575661"/>
    </g>
    <g clip-path="url(#p0af1f3b4b9)">
     <use style="fill:#c44e52;stroke:#c44e52;" x="136.034412" xlink:href="#C0_0_91b883aab9" y="399.986451"/>
    </g>
    <g clip-path="url(#p0af1f3b4b9)">
     <use style="fill:#64b5cd;stroke:#64b5cd;" x="154.68111" xlink:href="#C0_0_91b883aab9" y="339.28956"/>
    </g>
    <g clip-path="url(#p0af1f3b4b9)">
     <use style="fill:#55a868;stroke:#55a868;" x="152.212253" xlink:href="#C0_0_91b883aab9" y="514.213553"/>
    </g>
    <g clip-path="url(#p0af1f3b4b9)">
     <use style="fill:#4c72b0;stroke:#4c72b0;" x="132.957944" xlink:href="#C0_0_91b883aab9" y="447.167534"/>
    </g>
    <g clip-path="url(#p0af1f3b4b9)">
     <use style="fill:#64b5cd;stroke:#64b5cd;" x="183.27407" xlink:href="#C0_0_91b883aab9" y="255.814019"/>
    </g>
    <g clip-path="url(#p0af1f3b4b9)">
     <use style="fill:#c44e52;stroke:#c44e52;" x="213.702132" xlink:href="#C0_0_91b883aab9" y="400.805473"/>
    </g>
    <g clip-path="url(#p0af1f3b4b9)">
     <use style="fill:#4c72b0;stroke:#4c72b0;" x="156.850563" xlink:href="#C0_0_91b883aab9" y="271.918017"/>
    </g>
    <g clip-path="url(#p0af1f3b4b9)">
     <use style="fill:#55a868;stroke:#55a868;" x="176.685792" xlink:href="#C0_0_91b883aab9" y="354.328811"/>
    </g>
    <g clip-path="url(#p0af1f3b4b9)">
     <use style="fill:#c44e52;stroke:#c44e52;" x="153.006206" xlink:href="#C0_0_91b883aab9" y="459.954816"/>
    </g>
    <g clip-path="url(#p0af1f3b4b9)">
     <use style="fill:#64b5cd;stroke:#64b5cd;" x="148.142898" xlink:href="#C0_0_91b883aab9" y="392.927936"/>
    </g>
    <g clip-path="url(#p0af1f3b4b9)">
     <use style="fill:#55a868;stroke:#55a868;" x="118.302727" xlink:href="#C0_0_91b883aab9" y="448.316456"/>
    </g>
    <g clip-path="url(#p0af1f3b4b9)">
     <use style="fill:#4c72b0;stroke:#4c72b0;" x="148.584423" xlink:href="#C0_0_91b883aab9" y="448.708627"/>
    </g>
    <g clip-path="url(#p0af1f3b4b9)">
     <use style="fill:#64b5cd;stroke:#64b5cd;" x="151.499394" xlink:href="#C0_0_91b883aab9" y="309.67606"/>
    </g>
    <g clip-path="url(#p0af1f3b4b9)">
     <use style="fill:#c44e52;stroke:#c44e52;" x="201.006518" xlink:href="#C0_0_91b883aab9" y="260.512894"/>
    </g>
    <g clip-path="url(#p0af1f3b4b9)">
     <use style="fill:#4c72b0;stroke:#4c72b0;" x="166.90762" xlink:href="#C0_0_91b883aab9" y="317.134925"/>
    </g>
    <g clip-path="url(#p0af1f3b4b9)">
     <use style="fill:#55a868;stroke:#55a868;" x="149.665918" xlink:href="#C0_0_91b883aab9" y="435.303624"/>
    </g>
    <g clip-path="url(#p0af1f3b4b9)">
     <use style="fill:#c44e52;stroke:#c44e52;" x="143.382958" xlink:href="#C0_0_91b883aab9" y="425.642793"/>
    </g>
    <g clip-path="url(#p0af1f3b4b9)">
     <use style="fill:#64b5cd;stroke:#64b5cd;" x="137.06186" xlink:href="#C0_0_91b883aab9" y="253.724782"/>
    </g>
    <g clip-path="url(#p0af1f3b4b9)">
     <use style="fill:#55a868;stroke:#55a868;" x="164.642433" xlink:href="#C0_0_91b883aab9" y="439.236551"/>
    </g>
    <g clip-path="url(#p0af1f3b4b9)">
     <use style="fill:#4c72b0;stroke:#4c72b0;" x="144.843324" xlink:href="#C0_0_91b883aab9" y="465.912123"/>
    </g>
    <g clip-path="url(#p0af1f3b4b9)">
     <use style="fill:#64b5cd;stroke:#64b5cd;" x="170.514441" xlink:href="#C0_0_91b883aab9" y="297.792511"/>
    </g>
    <g clip-path="url(#p0af1f3b4b9)">
     <use style="fill:#c44e52;stroke:#c44e52;" x="461.279961" xlink:href="#C0_0_91b883aab9" y="605.290909"/>
    </g>
    <g clip-path="url(#p0af1f3b4b9)">
     <use style="fill:#4c72b0;stroke:#4c72b0;" x="190.45098" xlink:href="#C0_0_91b883aab9" y="342.997828"/>
    </g>
    <g clip-path="url(#p0af1f3b4b9)">
     <use style="fill:#55a868;stroke:#55a868;" x="177.457301" xlink:href="#C0_0_91b883aab9" y="371.965104"/>
    </g>
    <g clip-path="url(#p0af1f3b4b9)">
     <use style="fill:#c44e52;stroke:#c44e52;" x="152.866638" xlink:href="#C0_0_91b883aab9" y="413.517312"/>
    </g>
    <g clip-path="url(#p0af1f3b4b9)">
     <use style="fill:#64b5cd;stroke:#64b5cd;" x="131.577699" xlink:href="#C0_0_91b883aab9" y="385.323134"/>
    </g>
    <g clip-path="url(#p0af1f3b4b9)">
     <use style="fill:#55a868;stroke:#55a868;" x="143.355697" xlink:href="#C0_0_91b883aab9" y="449.906299"/>
    </g>
    <g clip-path="url(#p0af1f3b4b9)">
     <use style="fill:#4c72b0;stroke:#4c72b0;" x="134.293359" xlink:href="#C0_0_91b883aab9" y="438.022554"/>
    </g>
    <g clip-path="url(#p0af1f3b4b9)">
     <use style="fill:#64b5cd;stroke:#64b5cd;" x="147.338315" xlink:href="#C0_0_91b883aab9" y="282.503226"/>
    </g>
    <g clip-path="url(#p0af1f3b4b9)">
     <use style="fill:#c44e52;stroke:#c44e52;" x="243.64592" xlink:href="#C0_0_91b883aab9" y="392.02879"/>
    </g>
    <g clip-path="url(#p0af1f3b4b9)">
     <use style="fill:#4c72b0;stroke:#4c72b0;" x="174.735696" xlink:href="#C0_0_91b883aab9" y="333.431972"/>
    </g>
    <g clip-path="url(#p0af1f3b4b9)">
     <use style="fill:#55a868;stroke:#55a868;" x="166.715989" xlink:href="#C0_0_91b883aab9" y="310.944673"/>
    </g>
    <g clip-path="url(#p0af1f3b4b9)">
     <use style="fill:#c44e52;stroke:#c44e52;" x="140.796656" xlink:href="#C0_0_91b883aab9" y="467.068304"/>
    </g>
    <g clip-path="url(#p0af1f3b4b9)">
     <use style="fill:#64b5cd;stroke:#64b5cd;" x="159.455481" xlink:href="#C0_0_91b883aab9" y="302.984802"/>
    </g>
    <g clip-path="url(#p0af1f3b4b9)">
     <use style="fill:#55a868;stroke:#55a868;" x="139.339026" xlink:href="#C0_0_91b883aab9" y="399.921055"/>
    </g>
    <g clip-path="url(#p0af1f3b4b9)">
     <use style="fill:#4c72b0;stroke:#4c72b0;" x="142.625879" xlink:href="#C0_0_91b883aab9" y="425.875253"/>
    </g>
    <g clip-path="url(#p0af1f3b4b9)">
     <use style="fill:#64b5cd;stroke:#64b5cd;" x="159.317543" xlink:href="#C0_0_91b883aab9" y="229.216885"/>
    </g>
    <g clip-path="url(#p0af1f3b4b9)">
     <use style="fill:#c44e52;stroke:#c44e52;" x="225.634258" xlink:href="#C0_0_91b883aab9" y="404.093595"/>
    </g>
    <g clip-path="url(#p0af1f3b4b9)">
     <use style="fill:#4c72b0;stroke:#4c72b0;" x="182.27012" xlink:href="#C0_0_91b883aab9" y="284.93509"/>
    </g>
    <g clip-path="url(#p0af1f3b4b9)">
     <use style="fill:#55a868;stroke:#55a868;" x="185.962476" xlink:href="#C0_0_91b883aab9" y="335.316814"/>
    </g>
    <g clip-path="url(#p0af1f3b4b9)">
     <use style="fill:#c44e52;stroke:#c44e52;" x="147.671773" xlink:href="#C0_0_91b883aab9" y="430.634074"/>
    </g>
    <g clip-path="url(#p0af1f3b4b9)">
     <use style="fill:#64b5cd;stroke:#64b5cd;" x="148.587019" xlink:href="#C0_0_91b883aab9" y="348.904308"/>
    </g>
    <g clip-path="url(#p0af1f3b4b9)">
     <use style="fill:#55a868;stroke:#55a868;" x="144.837612" xlink:href="#C0_0_91b883aab9" y="370.481778"/>
    </g>
    <g clip-path="url(#p0af1f3b4b9)">
     <use style="fill:#4c72b0;stroke:#4c72b0;" x="158.358216" xlink:href="#C0_0_91b883aab9" y="466.509045"/>
    </g>
    <g clip-path="url(#p0af1f3b4b9)">
     <use style="fill:#64b5cd;stroke:#64b5cd;" x="166.078434" xlink:href="#C0_0_91b883aab9" y="191.378115"/>
    </g>
    <g clip-path="url(#p0af1f3b4b9)">
     <use style="fill:#c44e52;stroke:#c44e52;" x="195.31844" xlink:href="#C0_0_91b883aab9" y="360.166408"/>
    </g>
    <g clip-path="url(#p0af1f3b4b9)">
     <use style="fill:#4c72b0;stroke:#4c72b0;" x="167.280016" xlink:href="#C0_0_91b883aab9" y="278.452371"/>
    </g>
    <g clip-path="url(#p0af1f3b4b9)">
     <use style="fill:#55a868;stroke:#55a868;" x="149.493898" xlink:href="#C0_0_91b883aab9" y="347.412868"/>
    </g>
    <g clip-path="url(#p0af1f3b4b9)">
     <use style="fill:#c44e52;stroke:#c44e52;" x="158.716522" xlink:href="#C0_0_91b883aab9" y="425.806724"/>
    </g>
    <g clip-path="url(#p0af1f3b4b9)">
     <use style="fill:#64b5cd;stroke:#64b5cd;" x="176.705986" xlink:href="#C0_0_91b883aab9" y="412.176252"/>
    </g>
    <g clip-path="url(#p0af1f3b4b9)">
     <use style="fill:#55a868;stroke:#55a868;" x="144.462725" xlink:href="#C0_0_91b883aab9" y="449.70779"/>
    </g>
    <g clip-path="url(#p0af1f3b4b9)">
     <use style="fill:#4c72b0;stroke:#4c72b0;" x="143.286238" xlink:href="#C0_0_91b883aab9" y="459.210852"/>
    </g>
    <g clip-path="url(#p0af1f3b4b9)">
     <use style="fill:#64b5cd;stroke:#64b5cd;" x="166.354781" xlink:href="#C0_0_91b883aab9" y="174.533171"/>
    </g>
    <g clip-path="url(#p0af1f3b4b9)">
     <use style="fill:#c44e52;stroke:#c44e52;" x="263.879643" xlink:href="#C0_0_91b883aab9" y="330.033582"/>
    </g>
    <g clip-path="url(#p0af1f3b4b9)">
     <use style="fill:#4c72b0;stroke:#4c72b0;" x="197.770648" xlink:href="#C0_0_91b883aab9" y="185.804884"/>
    </g>
    <g clip-path="url(#p0af1f3b4b9)">
     <use style="fill:#55a868;stroke:#55a868;" x="190.230638" xlink:href="#C0_0_91b883aab9" y="383.475655"/>
    </g>
    <g clip-path="url(#p0af1f3b4b9)">
     <use style="fill:#c44e52;stroke:#c44e52;" x="154.280019" xlink:href="#C0_0_91b883aab9" y="449.827186"/>
    </g>
    <g clip-path="url(#p0af1f3b4b9)">
     <use style="fill:#64b5cd;stroke:#64b5cd;" x="157.076141" xlink:href="#C0_0_91b883aab9" y="359.797043"/>
    </g>
    <g clip-path="url(#p0af1f3b4b9)">
     <use style="fill:#55a868;stroke:#55a868;" x="143.118122" xlink:href="#C0_0_91b883aab9" y="389.326302"/>
    </g>
    <g clip-path="url(#p0af1f3b4b9)">
     <use style="fill:#4c72b0;stroke:#4c72b0;" x="140.43506" xlink:href="#C0_0_91b883aab9" y="452.12817"/>
    </g>
    <g clip-path="url(#p0af1f3b4b9)">
     <use style="fill:#64b5cd;stroke:#64b5cd;" x="173.222684" xlink:href="#C0_0_91b883aab9" y="284.649679"/>
    </g>
    <g clip-path="url(#p0af1f3b4b9)">
     <use style="fill:#c44e52;stroke:#c44e52;" x="209.987637" xlink:href="#C0_0_91b883aab9" y="316.96525"/>
    </g>
    <g clip-path="url(#p0af1f3b4b9)">
     <use style="fill:#4c72b0;stroke:#4c72b0;" x="154.110615" xlink:href="#C0_0_91b883aab9" y="350.83262"/>
    </g>
    <g clip-path="url(#p0af1f3b4b9)">
     <use style="fill:#55a868;stroke:#55a868;" x="231.101104" xlink:href="#C0_0_91b883aab9" y="377.100207"/>
    </g>
    <g clip-path="url(#p0af1f3b4b9)">
     <use style="fill:#c44e52;stroke:#c44e52;" x="140.887759" xlink:href="#C0_0_91b883aab9" y="420.292988"/>
    </g>
    <g clip-path="url(#p0af1f3b4b9)">
     <use style="fill:#64b5cd;stroke:#64b5cd;" x="137.977321" xlink:href="#C0_0_91b883aab9" y="407.015551"/>
    </g>
    <g clip-path="url(#p0af1f3b4b9)">
     <use style="fill:#55a868;stroke:#55a868;" x="136.219137" xlink:href="#C0_0_91b883aab9" y="440.912058"/>
    </g>
    <g clip-path="url(#p0af1f3b4b9)">
     <use style="fill:#4c72b0;stroke:#4c72b0;" x="131.90577" xlink:href="#C0_0_91b883aab9" y="435.373315"/>
    </g>
    <g clip-path="url(#p0af1f3b4b9)">
     <use style="fill:#64b5cd;stroke:#64b5cd;" x="175.799563" xlink:href="#C0_0_91b883aab9" y="170.204522"/>
    </g>
    <g clip-path="url(#p0af1f3b4b9)">
     <use style="fill:#c44e52;stroke:#c44e52;" x="246.178419" xlink:href="#C0_0_91b883aab9" y="366.097667"/>
    </g>
    <g clip-path="url(#p0af1f3b4b9)">
     <use style="fill:#4c72b0;stroke:#4c72b0;" x="209.344332" xlink:href="#C0_0_91b883aab9" y="139.828928"/>
    </g>
    <g clip-path="url(#p0af1f3b4b9)">
     <use style="fill:#55a868;stroke:#55a868;" x="188.664636" xlink:href="#C0_0_91b883aab9" y="315.24521"/>
    </g>
    <g clip-path="url(#p0af1f3b4b9)">
     <use style="fill:#c44e52;stroke:#c44e52;" x="152.565578" xlink:href="#C0_0_91b883aab9" y="436.945115"/>
    </g>
    <g clip-path="url(#p0af1f3b4b9)">
     <use style="fill:#64b5cd;stroke:#64b5cd;" x="147.15959" xlink:href="#C0_0_91b883aab9" y="343.990613"/>
    </g>
    <g clip-path="url(#p0af1f3b4b9)">
     <use style="fill:#55a868;stroke:#55a868;" x="149.268364" xlink:href="#C0_0_91b883aab9" y="441.803133"/>
    </g>
    <g clip-path="url(#p0af1f3b4b9)">
     <use style="fill:#4c72b0;stroke:#4c72b0;" x="132.367603" xlink:href="#C0_0_91b883aab9" y="406.813933"/>
    </g>
    <g clip-path="url(#p0af1f3b4b9)">
     <use style="fill:#64b5cd;stroke:#64b5cd;" x="141.408052" xlink:href="#C0_0_91b883aab9" y="501.512039"/>
    </g>
    <g clip-path="url(#p0af1f3b4b9)">
     <use style="fill:#c44e52;stroke:#c44e52;" x="208.463439" xlink:href="#C0_0_91b883aab9" y="274.723161"/>
    </g>
    <g clip-path="url(#p0af1f3b4b9)">
     <use style="fill:#4c72b0;stroke:#4c72b0;" x="176.041239" xlink:href="#C0_0_91b883aab9" y="226.84965"/>
    </g>
    <g clip-path="url(#p0af1f3b4b9)">
     <use style="fill:#55a868;stroke:#55a868;" x="195.608317" xlink:href="#C0_0_91b883aab9" y="415.52655"/>
    </g>
    <g clip-path="url(#p0af1f3b4b9)">
     <use style="fill:#c44e52;stroke:#c44e52;" x="202.824347" xlink:href="#C0_0_91b883aab9" y="248.791017"/>
    </g>
    <g clip-path="url(#p0af1f3b4b9)">
     <use style="fill:#64b5cd;stroke:#64b5cd;" x="152.526773" xlink:href="#C0_0_91b883aab9" y="419.845645"/>
    </g>
   </g>
   <g id="patch_3">
    <path d="M 90 630 
L 90 86.4 
" style="fill:none;stroke:#ffffff;stroke-linecap:square;stroke-linejoin:miter;stroke-width:1.25;"/>
   </g>
   <g id="patch_4">
    <path d="M 648 630 
L 648 86.4 
" style="fill:none;stroke:#ffffff;stroke-linecap:square;stroke-linejoin:miter;stroke-width:1.25;"/>
   </g>
   <g id="patch_5">
    <path d="M 90 630 
L 648 630 
" style="fill:none;stroke:#ffffff;stroke-linecap:square;stroke-linejoin:miter;stroke-width:1.25;"/>
   </g>
   <g id="patch_6">
    <path d="M 90 86.4 
L 648 86.4 
" style="fill:none;stroke:#ffffff;stroke-linecap:square;stroke-linejoin:miter;stroke-width:1.25;"/>
   </g>
   <g id="legend_1">
    <g id="patch_7">
     <path d="M 593.22125 174.042656 
L 640.3 174.042656 
Q 642.5 174.042656 642.5 171.842656 
L 642.5 94.1 
Q 642.5 91.9 640.3 91.9 
L 593.22125 91.9 
Q 591.02125 91.9 591.02125 94.1 
L 591.02125 171.842656 
Q 591.02125 174.042656 593.22125 174.042656 
z
" style="fill:#eaeaf2;opacity:0.8;stroke:#cccccc;stroke-linejoin:miter;"/>
    </g>
    <g id="text_14">
     <!-- Classes -->
     <defs>
      <path d="M 58.796875 25.09375 
L 68.265625 22.703125 
Q 65.28125 11.03125 57.546875 4.90625 
Q 49.8125 -1.21875 38.625 -1.21875 
Q 27.046875 -1.21875 19.796875 3.484375 
Q 12.546875 8.203125 8.765625 17.140625 
Q 4.984375 26.078125 4.984375 36.328125 
Q 4.984375 47.515625 9.25 55.828125 
Q 13.53125 64.15625 21.40625 68.46875 
Q 29.296875 72.796875 38.765625 72.796875 
Q 49.515625 72.796875 56.828125 67.328125 
Q 64.15625 61.859375 67.046875 51.953125 
L 57.71875 49.75 
Q 55.21875 57.5625 50.484375 61.125 
Q 45.75 64.703125 38.578125 64.703125 
Q 30.328125 64.703125 24.78125 60.734375 
Q 19.234375 56.78125 16.984375 50.109375 
Q 14.75 43.453125 14.75 36.375 
Q 14.75 27.25 17.40625 20.4375 
Q 20.0625 13.625 25.671875 10.25 
Q 31.296875 6.890625 37.84375 6.890625 
Q 45.796875 6.890625 51.3125 11.46875 
Q 56.84375 16.0625 58.796875 25.09375 
z
" id="ArialMT-67"/>
      <path d="M 6.390625 0 
L 6.390625 71.578125 
L 15.1875 71.578125 
L 15.1875 0 
z
" id="ArialMT-108"/>
      <path d="M 40.4375 6.390625 
Q 35.546875 2.25 31.03125 0.53125 
Q 26.515625 -1.171875 21.34375 -1.171875 
Q 12.796875 -1.171875 8.203125 3 
Q 3.609375 7.171875 3.609375 13.671875 
Q 3.609375 17.484375 5.34375 20.625 
Q 7.078125 23.78125 9.890625 25.6875 
Q 12.703125 27.59375 16.21875 28.5625 
Q 18.796875 29.25 24.03125 29.890625 
Q 34.671875 31.15625 39.703125 32.90625 
Q 39.75 34.71875 39.75 35.203125 
Q 39.75 40.578125 37.25 42.78125 
Q 33.890625 45.75 27.25 45.75 
Q 21.046875 45.75 18.09375 43.578125 
Q 15.140625 41.40625 13.71875 35.890625 
L 5.125 37.0625 
Q 6.296875 42.578125 8.984375 45.96875 
Q 11.671875 49.359375 16.75 51.1875 
Q 21.828125 53.03125 28.515625 53.03125 
Q 35.15625 53.03125 39.296875 51.46875 
Q 43.453125 49.90625 45.40625 47.53125 
Q 47.359375 45.171875 48.140625 41.546875 
Q 48.578125 39.3125 48.578125 33.453125 
L 48.578125 21.734375 
Q 48.578125 9.46875 49.140625 6.21875 
Q 49.703125 2.984375 51.375 0 
L 42.1875 0 
Q 40.828125 2.734375 40.4375 6.390625 
z
M 39.703125 26.03125 
Q 34.90625 24.078125 25.34375 22.703125 
Q 19.921875 21.921875 17.671875 20.9375 
Q 15.4375 19.96875 14.203125 18.09375 
Q 12.984375 16.21875 12.984375 13.921875 
Q 12.984375 10.40625 15.640625 8.0625 
Q 18.3125 5.71875 23.4375 5.71875 
Q 28.515625 5.71875 32.46875 7.9375 
Q 36.421875 10.15625 38.28125 14.015625 
Q 39.703125 17 39.703125 22.796875 
z
" id="ArialMT-97"/>
      <path d="M 3.078125 15.484375 
L 11.765625 16.84375 
Q 12.5 11.625 15.84375 8.84375 
Q 19.1875 6.0625 25.203125 6.0625 
Q 31.25 6.0625 34.171875 8.515625 
Q 37.109375 10.984375 37.109375 14.3125 
Q 37.109375 17.28125 34.515625 19 
Q 32.71875 20.171875 25.53125 21.96875 
Q 15.875 24.421875 12.140625 26.203125 
Q 8.40625 27.984375 6.46875 31.125 
Q 4.546875 34.28125 4.546875 38.09375 
Q 4.546875 41.546875 6.125 44.5 
Q 7.71875 47.46875 10.453125 49.421875 
Q 12.5 50.921875 16.03125 51.96875 
Q 19.578125 53.03125 23.640625 53.03125 
Q 29.734375 53.03125 34.34375 51.265625 
Q 38.96875 49.515625 41.15625 46.5 
Q 43.359375 43.5 44.1875 38.484375 
L 35.59375 37.3125 
Q 35.015625 41.3125 32.203125 43.546875 
Q 29.390625 45.796875 24.265625 45.796875 
Q 18.21875 45.796875 15.625 43.796875 
Q 13.03125 41.796875 13.03125 39.109375 
Q 13.03125 37.40625 14.109375 36.03125 
Q 15.1875 34.625 17.484375 33.6875 
Q 18.796875 33.203125 25.25 31.453125 
Q 34.578125 28.953125 38.25 27.359375 
Q 41.9375 25.78125 44.03125 22.75 
Q 46.140625 19.734375 46.140625 15.234375 
Q 46.140625 10.84375 43.578125 6.953125 
Q 41.015625 3.078125 36.171875 0.953125 
Q 31.34375 -1.171875 25.25 -1.171875 
Q 15.140625 -1.171875 9.84375 3.03125 
Q 4.546875 7.234375 3.078125 15.484375 
z
" id="ArialMT-115"/>
      <path d="M 42.09375 16.703125 
L 51.171875 15.578125 
Q 49.03125 7.625 43.21875 3.21875 
Q 37.40625 -1.171875 28.375 -1.171875 
Q 17 -1.171875 10.328125 5.828125 
Q 3.65625 12.84375 3.65625 25.484375 
Q 3.65625 38.578125 10.390625 45.796875 
Q 17.140625 53.03125 27.875 53.03125 
Q 38.28125 53.03125 44.875 45.953125 
Q 51.46875 38.875 51.46875 26.03125 
Q 51.46875 25.25 51.421875 23.6875 
L 12.75 23.6875 
Q 13.234375 15.140625 17.578125 10.59375 
Q 21.921875 6.0625 28.421875 6.0625 
Q 33.25 6.0625 36.671875 8.59375 
Q 40.09375 11.140625 42.09375 16.703125 
z
M 13.234375 30.90625 
L 42.1875 30.90625 
Q 41.609375 37.453125 38.875 40.71875 
Q 34.671875 45.796875 27.984375 45.796875 
Q 21.921875 45.796875 17.796875 41.75 
Q 13.671875 37.703125 13.234375 30.90625 
z
" id="ArialMT-101"/>
     </defs>
     <g style="fill:#262626;" transform="translate(595.42125 104.889375)scale(0.12 -0.12)">
      <use xlink:href="#ArialMT-67"/>
      <use x="72.216797" xlink:href="#ArialMT-108"/>
      <use x="94.433594" xlink:href="#ArialMT-97"/>
      <use x="150.048828" xlink:href="#ArialMT-115"/>
      <use x="200.048828" xlink:href="#ArialMT-115"/>
      <use x="250.048828" xlink:href="#ArialMT-101"/>
      <use x="305.664062" xlink:href="#ArialMT-115"/>
     </g>
    </g>
    <g id="line2d_14">
     <path d="M 598.302109 116.797969 
L 620.302109 116.797969 
" style="fill:none;stroke:#4c72b0;stroke-linecap:round;stroke-width:1.5;"/>
    </g>
    <g id="line2d_15">
     <defs>
      <path d="M 0 3 
C 0.795609 3 1.55874 2.683901 2.12132 2.12132 
C 2.683901 1.55874 3 0.795609 3 0 
C 3 -0.795609 2.683901 -1.55874 2.12132 -2.12132 
C 1.55874 -2.683901 0.795609 -3 0 -3 
C -0.795609 -3 -1.55874 -2.683901 -2.12132 -2.12132 
C -2.683901 -1.55874 -3 -0.795609 -3 0 
C -3 0.795609 -2.683901 1.55874 -2.12132 2.12132 
C -1.55874 2.683901 -0.795609 3 0 3 
z
" id="m503398ac79" style="stroke:#4c72b0;"/>
     </defs>
     <g>
      <use style="fill:#4c72b0;stroke:#4c72b0;" x="609.302109" xlink:href="#m503398ac79" y="116.797969"/>
     </g>
    </g>
    <g id="text_15">
     <!-- a -->
     <g style="fill:#262626;" transform="translate(629.102109 120.647969)scale(0.11 -0.11)">
      <use xlink:href="#ArialMT-97"/>
     </g>
    </g>
    <g id="line2d_16">
     <path d="M 598.302109 132.357813 
L 620.302109 132.357813 
" style="fill:none;stroke:#55a868;stroke-linecap:round;stroke-width:1.5;"/>
    </g>
    <g id="line2d_17">
     <defs>
      <path d="M 0 3 
C 0.795609 3 1.55874 2.683901 2.12132 2.12132 
C 2.683901 1.55874 3 0.795609 3 0 
C 3 -0.795609 2.683901 -1.55874 2.12132 -2.12132 
C 1.55874 -2.683901 0.795609 -3 0 -3 
C -0.795609 -3 -1.55874 -2.683901 -2.12132 -2.12132 
C -2.683901 -1.55874 -3 -0.795609 -3 0 
C -3 0.795609 -2.683901 1.55874 -2.12132 2.12132 
C -1.55874 2.683901 -0.795609 3 0 3 
z
" id="mf6e800abf6" style="stroke:#55a868;"/>
     </defs>
     <g>
      <use style="fill:#55a868;stroke:#55a868;" x="609.302109" xlink:href="#mf6e800abf6" y="132.357813"/>
     </g>
    </g>
    <g id="text_16">
     <!-- c -->
     <defs>
      <path d="M 40.4375 19 
L 49.078125 17.875 
Q 47.65625 8.9375 41.8125 3.875 
Q 35.984375 -1.171875 27.484375 -1.171875 
Q 16.84375 -1.171875 10.375 5.78125 
Q 3.90625 12.75 3.90625 25.734375 
Q 3.90625 34.125 6.6875 40.421875 
Q 9.46875 46.734375 15.15625 49.875 
Q 20.84375 53.03125 27.546875 53.03125 
Q 35.984375 53.03125 41.359375 48.75 
Q 46.734375 44.484375 48.25 36.625 
L 39.703125 35.296875 
Q 38.484375 40.53125 35.375 43.15625 
Q 32.28125 45.796875 27.875 45.796875 
Q 21.234375 45.796875 17.078125 41.03125 
Q 12.9375 36.28125 12.9375 25.984375 
Q 12.9375 15.53125 16.9375 10.796875 
Q 20.953125 6.0625 27.390625 6.0625 
Q 32.5625 6.0625 36.03125 9.234375 
Q 39.5 12.40625 40.4375 19 
z
" id="ArialMT-99"/>
     </defs>
     <g style="fill:#262626;" transform="translate(629.102109 136.207813)scale(0.11 -0.11)">
      <use xlink:href="#ArialMT-99"/>
     </g>
    </g>
    <g id="line2d_18">
     <path d="M 598.302109 147.917656 
L 620.302109 147.917656 
" style="fill:none;stroke:#c44e52;stroke-linecap:round;stroke-width:1.5;"/>
    </g>
    <g id="line2d_19">
     <defs>
      <path d="M 0 3 
C 0.795609 3 1.55874 2.683901 2.12132 2.12132 
C 2.683901 1.55874 3 0.795609 3 0 
C 3 -0.795609 2.683901 -1.55874 2.12132 -2.12132 
C 1.55874 -2.683901 0.795609 -3 0 -3 
C -0.795609 -3 -1.55874 -2.683901 -2.12132 -2.12132 
C -2.683901 -1.55874 -3 -0.795609 -3 0 
C -3 0.795609 -2.683901 1.55874 -2.12132 2.12132 
C -1.55874 2.683901 -0.795609 3 0 3 
z
" id="m3baeb012d0" style="stroke:#c44e52;"/>
     </defs>
     <g>
      <use style="fill:#c44e52;stroke:#c44e52;" x="609.302109" xlink:href="#m3baeb012d0" y="147.917656"/>
     </g>
    </g>
    <g id="text_17">
     <!-- t -->
     <defs>
      <path d="M 25.78125 7.859375 
L 27.046875 0.09375 
Q 23.34375 -0.6875 20.40625 -0.6875 
Q 15.625 -0.6875 12.984375 0.828125 
Q 10.359375 2.34375 9.28125 4.8125 
Q 8.203125 7.28125 8.203125 15.1875 
L 8.203125 45.015625 
L 1.765625 45.015625 
L 1.765625 51.859375 
L 8.203125 51.859375 
L 8.203125 64.703125 
L 16.9375 69.96875 
L 16.9375 51.859375 
L 25.78125 51.859375 
L 25.78125 45.015625 
L 16.9375 45.015625 
L 16.9375 14.703125 
Q 16.9375 10.9375 17.40625 9.859375 
Q 17.875 8.796875 18.921875 8.15625 
Q 19.96875 7.515625 21.921875 7.515625 
Q 23.390625 7.515625 25.78125 7.859375 
z
" id="ArialMT-116"/>
     </defs>
     <g style="fill:#262626;" transform="translate(629.102109 151.767656)scale(0.11 -0.11)">
      <use xlink:href="#ArialMT-116"/>
     </g>
    </g>
    <g id="line2d_20">
     <path d="M 598.302109 163.4775 
L 620.302109 163.4775 
" style="fill:none;stroke:#64b5cd;stroke-linecap:round;stroke-width:1.5;"/>
    </g>
    <g id="line2d_21">
     <defs>
      <path d="M 0 3 
C 0.795609 3 1.55874 2.683901 2.12132 2.12132 
C 2.683901 1.55874 3 0.795609 3 0 
C 3 -0.795609 2.683901 -1.55874 2.12132 -2.12132 
C 1.55874 -2.683901 0.795609 -3 0 -3 
C -0.795609 -3 -1.55874 -2.683901 -2.12132 -2.12132 
C -2.683901 -1.55874 -3 -0.795609 -3 0 
C -3 0.795609 -2.683901 1.55874 -2.12132 2.12132 
C -1.55874 2.683901 -0.795609 3 0 3 
z
" id="mc38ae80c60" style="stroke:#64b5cd;"/>
     </defs>
     <g>
      <use style="fill:#64b5cd;stroke:#64b5cd;" x="609.302109" xlink:href="#mc38ae80c60" y="163.4775"/>
     </g>
    </g>
    <g id="text_18">
     <!-- g -->
     <defs>
      <path d="M 4.984375 -4.296875 
L 13.53125 -5.5625 
Q 14.0625 -9.515625 16.5 -11.328125 
Q 19.78125 -13.765625 25.4375 -13.765625 
Q 31.546875 -13.765625 34.859375 -11.328125 
Q 38.1875 -8.890625 39.359375 -4.5 
Q 40.046875 -1.8125 39.984375 6.78125 
Q 34.234375 0 25.640625 0 
Q 14.9375 0 9.078125 7.71875 
Q 3.21875 15.4375 3.21875 26.21875 
Q 3.21875 33.640625 5.90625 39.90625 
Q 8.59375 46.1875 13.6875 49.609375 
Q 18.796875 53.03125 25.6875 53.03125 
Q 34.859375 53.03125 40.828125 45.609375 
L 40.828125 51.859375 
L 48.921875 51.859375 
L 48.921875 7.03125 
Q 48.921875 -5.078125 46.453125 -10.125 
Q 44 -15.1875 38.640625 -18.109375 
Q 33.296875 -21.046875 25.484375 -21.046875 
Q 16.21875 -21.046875 10.5 -16.875 
Q 4.78125 -12.703125 4.984375 -4.296875 
z
M 12.25 26.859375 
Q 12.25 16.65625 16.296875 11.96875 
Q 20.359375 7.28125 26.46875 7.28125 
Q 32.515625 7.28125 36.609375 11.9375 
Q 40.71875 16.609375 40.71875 26.5625 
Q 40.71875 36.078125 36.5 40.90625 
Q 32.28125 45.75 26.3125 45.75 
Q 20.453125 45.75 16.34375 40.984375 
Q 12.25 36.234375 12.25 26.859375 
z
" id="ArialMT-103"/>
     </defs>
     <g style="fill:#262626;" transform="translate(629.102109 167.3275)scale(0.11 -0.11)">
      <use xlink:href="#ArialMT-103"/>
     </g>
    </g>
   </g>
  </g>
 </g>
 <defs>
  <clipPath id="p0af1f3b4b9">
   <rect height="543.6" width="558" x="90" y="86.4"/>
  </clipPath>
 </defs>
</svg>
